%TF.GenerationSoftware,KiCad,Pcbnew,10.0.0*%
%TF.CreationDate,2026-03-30T17:23:21-04:00*%
%TF.ProjectId,geodude-carrier,67656f64-7564-4652-9d63-617272696572,rev?*%
%TF.SameCoordinates,Original*%
%TF.FileFunction,Copper,L1,Top*%
%TF.FilePolarity,Positive*%
%FSLAX46Y46*%
G04 Gerber Fmt 4.6, Leading zero omitted, Abs format (unit mm)*
G04 Created by KiCad (PCBNEW 10.0.0) date 2026-03-30 17:23:21*
%MOMM*%
%LPD*%
G01*
G04 APERTURE LIST*
G04 Aperture macros list*
%AMRoundRect*
0 Rectangle with rounded corners*
0 $1 Rounding radius*
0 $2 $3 $4 $5 $6 $7 $8 $9 X,Y pos of 4 corners*
0 Add a 4 corners polygon primitive as box body*
4,1,4,$2,$3,$4,$5,$6,$7,$8,$9,$2,$3,0*
0 Add four circle primitives for the rounded corners*
1,1,$1+$1,$2,$3*
1,1,$1+$1,$4,$5*
1,1,$1+$1,$6,$7*
1,1,$1+$1,$8,$9*
0 Add four rect primitives between the rounded corners*
20,1,$1+$1,$2,$3,$4,$5,0*
20,1,$1+$1,$4,$5,$6,$7,0*
20,1,$1+$1,$6,$7,$8,$9,0*
20,1,$1+$1,$8,$9,$2,$3,0*%
G04 Aperture macros list end*
%TA.AperFunction,ComponentPad*%
%ADD10C,2.800000*%
%TD*%
%TA.AperFunction,ComponentPad*%
%ADD11R,1.700000X1.700000*%
%TD*%
%TA.AperFunction,ComponentPad*%
%ADD12C,1.700000*%
%TD*%
%TA.AperFunction,ComponentPad*%
%ADD13RoundRect,0.250001X1.149999X-1.149999X1.149999X1.149999X-1.149999X1.149999X-1.149999X-1.149999X0*%
%TD*%
%TA.AperFunction,ViaPad*%
%ADD14C,0.600000*%
%TD*%
%TA.AperFunction,Conductor*%
%ADD15C,3.000000*%
%TD*%
%TA.AperFunction,Conductor*%
%ADD16C,1.699800*%
%TD*%
%TA.AperFunction,Conductor*%
%ADD17C,2.000000*%
%TD*%
%TA.AperFunction,Conductor*%
%ADD18C,0.400000*%
%TD*%
%TA.AperFunction,Conductor*%
%ADD19C,1.000000*%
%TD*%
%TA.AperFunction,Conductor*%
%ADD20C,0.600000*%
%TD*%
%TA.AperFunction,Conductor*%
%ADD21C,1.500000*%
%TD*%
G04 APERTURE END LIST*
D10*
%TO.P,F2,1*%
%TO.N,+12V*%
X83185000Y-63000000D03*
%TO.P,F2,2*%
%TO.N,SV2_PWR*%
X105815000Y-63000000D03*
%TD*%
D11*
%TO.P,SV4,1*%
%TO.N,PWM_CH3*%
X137000000Y-152000000D03*
D12*
%TO.P,SV4,2*%
%TO.N,SV4_PWR*%
X139540000Y-152000000D03*
%TO.P,SV4,3*%
%TO.N,GND*%
X142080000Y-152000000D03*
%TD*%
D10*
%TO.P,F6,1*%
%TO.N,+12V*%
X46685000Y-48000000D03*
%TO.P,F6,2*%
%TO.N,SV6_PWR*%
X69315000Y-48000000D03*
%TD*%
D11*
%TO.P,SV2,1*%
%TO.N,PWM_CH1*%
X113000000Y-152000000D03*
D12*
%TO.P,SV2,2*%
%TO.N,SV2_PWR*%
X115540000Y-152000000D03*
%TO.P,SV2,3*%
%TO.N,GND*%
X118080000Y-152000000D03*
%TD*%
D13*
%TO.P,J4,1*%
%TO.N,GND*%
X151600000Y-114200000D03*
D10*
%TO.P,J4,2*%
X151600000Y-109200000D03*
%TD*%
D11*
%TO.P,SV6,1*%
%TO.N,PWM_CH5*%
X41000000Y-152000000D03*
D12*
%TO.P,SV6,2*%
%TO.N,SV6_PWR*%
X43540000Y-152000000D03*
%TO.P,SV6,3*%
%TO.N,GND*%
X46080000Y-152000000D03*
%TD*%
D11*
%TO.P,J41,1*%
%TO.N,SDA*%
X33700000Y-51400000D03*
D12*
%TO.P,J41,2*%
X33700000Y-53940000D03*
%TO.P,J41,3*%
X33700000Y-56480000D03*
%TO.P,J41,4*%
X33700000Y-59020000D03*
%TD*%
D13*
%TO.P,J2,1*%
%TO.N,+12V*%
X151600000Y-58200000D03*
D10*
%TO.P,J2,2*%
X151600000Y-53200000D03*
%TD*%
D13*
%TO.P,J34,1*%
%TO.N,+3V3*%
X23200000Y-79400000D03*
D10*
%TO.P,J34,2*%
X23200000Y-74400000D03*
%TD*%
D13*
%TO.P,J35,1*%
%TO.N,+3V3*%
X23200000Y-91400000D03*
D10*
%TO.P,J35,2*%
X23200000Y-86400000D03*
%TD*%
D13*
%TO.P,J32,1*%
%TO.N,SDA*%
X23200000Y-49400000D03*
D10*
%TO.P,J32,2*%
X23200000Y-44400000D03*
%TD*%
D11*
%TO.P,SV1,1*%
%TO.N,PWM_CH0*%
X101000000Y-152000000D03*
D12*
%TO.P,SV1,2*%
%TO.N,SV1_PWR*%
X103540000Y-152000000D03*
%TO.P,SV1,3*%
%TO.N,GND*%
X106080000Y-152000000D03*
%TD*%
D11*
%TO.P,J_ESC,1*%
%TO.N,PWM_CH11*%
X89000000Y-138000000D03*
D12*
%TO.P,J_ESC,2*%
%TO.N,N/C*%
X91540000Y-138000000D03*
%TO.P,J_ESC,3*%
%TO.N,GND*%
X94080000Y-138000000D03*
%TD*%
D11*
%TO.P,SV3,1*%
%TO.N,PWM_CH2*%
X125000000Y-152000000D03*
D12*
%TO.P,SV3,2*%
%TO.N,SV3_PWR*%
X127540000Y-152000000D03*
%TO.P,SV3,3*%
%TO.N,GND*%
X130080000Y-152000000D03*
%TD*%
D13*
%TO.P,J37,1*%
%TO.N,+5V_LOGIC*%
X23200000Y-109400000D03*
D10*
%TO.P,J37,2*%
X23200000Y-104400000D03*
%TD*%
D11*
%TO.P,J44,1*%
%TO.N,GND_LOGIC*%
X33700000Y-141400000D03*
D12*
%TO.P,J44,2*%
X33700000Y-143940000D03*
%TO.P,J44,3*%
X33700000Y-146480000D03*
%TO.P,J44,4*%
X33700000Y-149020000D03*
%TD*%
D11*
%TO.P,SV10,1*%
%TO.N,PWM_CH9*%
X89000000Y-152000000D03*
D12*
%TO.P,SV10,2*%
%TO.N,SV10_PWR*%
X91540000Y-152000000D03*
%TO.P,SV10,3*%
%TO.N,GND*%
X94080000Y-152000000D03*
%TD*%
D11*
%TO.P,SV7,1*%
%TO.N,PWM_CH6*%
X53000000Y-152000000D03*
D12*
%TO.P,SV7,2*%
%TO.N,SV7_PWR*%
X55540000Y-152000000D03*
%TO.P,SV7,3*%
%TO.N,GND*%
X58080000Y-152000000D03*
%TD*%
D10*
%TO.P,F7,1*%
%TO.N,+12V*%
X46685000Y-63000000D03*
%TO.P,F7,2*%
%TO.N,SV7_PWR*%
X69315000Y-63000000D03*
%TD*%
D13*
%TO.P,J1,1*%
%TO.N,+12V*%
X151600000Y-46200000D03*
D10*
%TO.P,J1,2*%
X151600000Y-41200000D03*
%TD*%
D13*
%TO.P,J36,1*%
%TO.N,+5V_LOGIC*%
X23200000Y-121400000D03*
D10*
%TO.P,J36,2*%
X23200000Y-116400000D03*
%TD*%
D11*
%TO.P,SV9,1*%
%TO.N,PWM_CH8*%
X77000000Y-152000000D03*
D12*
%TO.P,SV9,2*%
%TO.N,SV9_PWR*%
X79540000Y-152000000D03*
%TO.P,SV9,3*%
%TO.N,GND*%
X82080000Y-152000000D03*
%TD*%
D11*
%TO.P,SV5,1*%
%TO.N,PWM_CH4*%
X149000000Y-152000000D03*
D12*
%TO.P,SV5,2*%
%TO.N,SV5_PWR*%
X151540000Y-152000000D03*
%TO.P,SV5,3*%
%TO.N,GND*%
X154080000Y-152000000D03*
%TD*%
D11*
%TO.P,J43,1*%
%TO.N,+5V_LOGIC*%
X33700000Y-111400000D03*
D12*
%TO.P,J43,2*%
X33700000Y-113940000D03*
%TO.P,J43,3*%
X33700000Y-116480000D03*
%TO.P,J43,4*%
X33700000Y-119020000D03*
%TD*%
D13*
%TO.P,J39,1*%
%TO.N,GND_LOGIC*%
X23200000Y-139400000D03*
D10*
%TO.P,J39,2*%
X23200000Y-134400000D03*
%TD*%
D11*
%TO.P,SV8,1*%
%TO.N,PWM_CH7*%
X65000000Y-152000000D03*
D12*
%TO.P,SV8,2*%
%TO.N,SV8_PWR*%
X67540000Y-152000000D03*
%TO.P,SV8,3*%
%TO.N,GND*%
X70080000Y-152000000D03*
%TD*%
D11*
%TO.P,J40,1*%
%TO.N,SCL*%
X33700000Y-21400000D03*
D12*
%TO.P,J40,2*%
X33700000Y-23940000D03*
%TO.P,J40,3*%
X33700000Y-26480000D03*
%TO.P,J40,4*%
X33700000Y-29020000D03*
%TD*%
D13*
%TO.P,J6,1*%
%TO.N,+5V_SERVO*%
X151600000Y-86200000D03*
D10*
%TO.P,J6,2*%
X151600000Y-81200000D03*
%TD*%
%TO.P,F4,1*%
%TO.N,+5V_SERVO*%
X83185000Y-93000000D03*
%TO.P,F4,2*%
%TO.N,SV4_PWR*%
X105815000Y-93000000D03*
%TD*%
%TO.P,F3,1*%
%TO.N,+7V4*%
X83185000Y-78000000D03*
%TO.P,F3,2*%
%TO.N,SV3_PWR*%
X105815000Y-78000000D03*
%TD*%
D13*
%TO.P,J5,1*%
%TO.N,+7V4*%
X151600000Y-74200000D03*
D10*
%TO.P,J5,2*%
X151600000Y-69200000D03*
%TD*%
D13*
%TO.P,J31,1*%
%TO.N,SCL*%
X23200000Y-19400000D03*
D10*
%TO.P,J31,2*%
X23200000Y-14400000D03*
%TD*%
%TO.P,F5,1*%
%TO.N,+5V_SERVO*%
X83185000Y-108000000D03*
%TO.P,F5,2*%
%TO.N,SV5_PWR*%
X105815000Y-108000000D03*
%TD*%
%TO.P,F9,1*%
%TO.N,+5V_SERVO*%
X46685000Y-93000000D03*
%TO.P,F9,2*%
%TO.N,SV9_PWR*%
X69315000Y-93000000D03*
%TD*%
D11*
%TO.P,J42,1*%
%TO.N,+3V3*%
X33700000Y-81400000D03*
D12*
%TO.P,J42,2*%
X33700000Y-83940000D03*
%TO.P,J42,3*%
X33700000Y-86480000D03*
%TO.P,J42,4*%
X33700000Y-89020000D03*
%TD*%
D13*
%TO.P,J38,1*%
%TO.N,GND_LOGIC*%
X23200000Y-151400000D03*
D10*
%TO.P,J38,2*%
X23200000Y-146400000D03*
%TD*%
D13*
%TO.P,J33,1*%
%TO.N,SDA*%
X23200000Y-61400000D03*
D10*
%TO.P,J33,2*%
X23200000Y-56400000D03*
%TD*%
D13*
%TO.P,J3,1*%
%TO.N,GND*%
X151600000Y-102200000D03*
D10*
%TO.P,J3,2*%
X151600000Y-97200000D03*
%TD*%
%TO.P,F8,1*%
%TO.N,+7V4*%
X46685000Y-78000000D03*
%TO.P,F8,2*%
%TO.N,SV8_PWR*%
X69315000Y-78000000D03*
%TD*%
D11*
%TO.P,J_FAN,1*%
%TO.N,PWM_CH12*%
X101000000Y-138000000D03*
D12*
%TO.P,J_FAN,2*%
%TO.N,+12V*%
X103540000Y-138000000D03*
%TO.P,J_FAN,3*%
%TO.N,GND*%
X106080000Y-138000000D03*
%TD*%
D11*
%TO.P,J_PCA,1*%
%TO.N,PWM_CH0*%
X117860000Y-10000000D03*
D12*
%TO.P,J_PCA,2*%
%TO.N,PWM_CH1*%
X115320000Y-10000000D03*
%TO.P,J_PCA,3*%
%TO.N,PWM_CH2*%
X112780000Y-10000000D03*
%TO.P,J_PCA,4*%
%TO.N,PWM_CH3*%
X110240000Y-10000000D03*
%TO.P,J_PCA,5*%
%TO.N,N/C*%
X107700000Y-10000000D03*
%TO.P,J_PCA,6*%
%TO.N,PWM_CH4*%
X105160000Y-10000000D03*
%TO.P,J_PCA,7*%
%TO.N,PWM_CH5*%
X102620000Y-10000000D03*
%TO.P,J_PCA,8*%
%TO.N,PWM_CH6*%
X100080000Y-10000000D03*
%TO.P,J_PCA,9*%
%TO.N,PWM_CH7*%
X97540000Y-10000000D03*
%TO.P,J_PCA,10*%
%TO.N,N/C*%
X95000000Y-10000000D03*
%TO.P,J_PCA,11*%
%TO.N,PWM_CH8*%
X92460000Y-10000000D03*
%TO.P,J_PCA,12*%
%TO.N,PWM_CH9*%
X89920000Y-10000000D03*
%TO.P,J_PCA,13*%
%TO.N,PWM_CH10*%
X87380000Y-10000000D03*
%TO.P,J_PCA,14*%
%TO.N,PWM_CH11*%
X84840000Y-10000000D03*
%TO.P,J_PCA,15*%
%TO.N,N/C*%
X82300000Y-10000000D03*
%TO.P,J_PCA,16*%
%TO.N,PWM_CH12*%
X79760000Y-10000000D03*
%TO.P,J_PCA,17*%
%TO.N,PWM_CH13*%
X77220000Y-10000000D03*
%TO.P,J_PCA,18*%
%TO.N,PWM_CH14*%
X74680000Y-10000000D03*
%TO.P,J_PCA,19*%
%TO.N,PWM_CH15*%
X72140000Y-10000000D03*
%TD*%
D13*
%TO.P,J30,1*%
%TO.N,SCL*%
X23200000Y-31400000D03*
D10*
%TO.P,J30,2*%
X23200000Y-26400000D03*
%TD*%
%TO.P,F1,1*%
%TO.N,+12V*%
X83185000Y-48000000D03*
%TO.P,F1,2*%
%TO.N,SV1_PWR*%
X105815000Y-48000000D03*
%TD*%
%TO.P,F10,1*%
%TO.N,+5V_SERVO*%
X46685000Y-108000000D03*
%TO.P,F10,2*%
%TO.N,SV10_PWR*%
X69315000Y-108000000D03*
%TD*%
D14*
%TO.N,PWM_CH1*%
X107491500Y-138051800D03*
%TO.N,PWM_CH5*%
X94704200Y-120105200D03*
%TO.N,PWM_CH0*%
X101000000Y-141042900D03*
X104912400Y-137199200D03*
%TO.N,PWM_CH2*%
X129715100Y-149835300D03*
X113432300Y-13653600D03*
%TO.N,PWM_CH6*%
X93995700Y-122768600D03*
%TO.N,PWM_CH8*%
X77000000Y-111301200D03*
X92460000Y-111301200D03*
%TO.N,PWM_CH12*%
X85484100Y-16452900D03*
%TD*%
%TO.N,+12V*%
D15*
X151600000Y-46200000D02*
X151600000Y-53200000D01*
X46685000Y-63000000D02*
X46685000Y-48000000D01*
X86694000Y-118591900D02*
X86694000Y-66509000D01*
X103550200Y-135448100D02*
X86694000Y-118591900D01*
X151600000Y-41200000D02*
X151600000Y-46200000D01*
D16*
X103550200Y-137989800D02*
X103540000Y-138000000D01*
X103550200Y-135448100D02*
X103550200Y-137989800D01*
D15*
X86694000Y-66509000D02*
X83185000Y-63000000D01*
X83185000Y-48000000D02*
X83185000Y-63000000D01*
X151600000Y-53200000D02*
X151600000Y-58200000D01*
%TO.N,SV2_PWR*%
D17*
X105815000Y-63000000D02*
X103185300Y-65629700D01*
X103185300Y-118438900D02*
X115540000Y-130793600D01*
X103185300Y-65629700D02*
X103185300Y-118438900D01*
X115540000Y-130793600D02*
X115540000Y-152000000D01*
%TO.N,PWM_CH3*%
D18*
X137000000Y-36229000D02*
X110771000Y-10000000D01*
X137000000Y-152000000D02*
X137000000Y-36229000D01*
X110771000Y-10000000D02*
X110240000Y-10000000D01*
%TO.N,SV4_PWR*%
D19*
X139540000Y-152000000D02*
X139540000Y-152193800D01*
X138182100Y-153551700D02*
X123859300Y-153551700D01*
X139540000Y-152193800D02*
X138182100Y-153551700D01*
X120555900Y-150248300D02*
X120555900Y-107740900D01*
X123859300Y-153551700D02*
X120555900Y-150248300D01*
X120555900Y-107740900D02*
X105815000Y-93000000D01*
%TO.N,GND*%
D16*
X154090200Y-149944600D02*
X154090200Y-151989800D01*
D15*
X151600000Y-147454400D02*
X154090200Y-149944600D01*
X105787300Y-140358300D02*
X105787300Y-149641700D01*
D16*
X106090200Y-151989800D02*
X106080000Y-152000000D01*
D15*
X151600000Y-109200000D02*
X151600000Y-114200000D01*
D16*
X94080000Y-152000000D02*
X94080000Y-138000000D01*
X105787300Y-140358300D02*
X105787300Y-138292700D01*
X154090200Y-151989800D02*
X154080000Y-152000000D01*
X105787300Y-138292700D02*
X106080000Y-138000000D01*
D15*
X105787300Y-149641700D02*
X106090200Y-149944600D01*
X151600000Y-102200000D02*
X151600000Y-109200000D01*
X151600000Y-114200000D02*
X151600000Y-147454400D01*
D16*
X106090200Y-149944600D02*
X106090200Y-151989800D01*
D15*
X151600000Y-97200000D02*
X151600000Y-102200000D01*
%TO.N,SV6_PWR*%
D17*
X43540000Y-152000000D02*
X43540000Y-73775000D01*
X43540000Y-73775000D02*
X69315000Y-48000000D01*
%TO.N,PWM_CH1*%
D18*
X108970000Y-9454900D02*
X109718800Y-8706100D01*
X99523000Y-121410300D02*
X99523000Y-20927800D01*
X107491500Y-129378800D02*
X99523000Y-121410300D01*
X107491500Y-138051800D02*
X107491500Y-129378800D01*
X108970000Y-11480800D02*
X108970000Y-9454900D01*
X99523000Y-20927800D02*
X108970000Y-11480800D01*
X109718800Y-8706100D02*
X114026100Y-8706100D01*
X114026100Y-8706100D02*
X115320000Y-10000000D01*
%TO.N,PWM_CH5*%
X94704200Y-120105200D02*
X94704200Y-17915800D01*
X94704200Y-17915800D02*
X102620000Y-10000000D01*
%TO.N,SDA*%
X23200000Y-61400000D02*
X23200000Y-56400000D01*
X33700000Y-53940000D02*
X33700000Y-51400000D01*
X23200000Y-44400000D02*
X23200000Y-49400000D01*
X33700000Y-56480000D02*
X33700000Y-53940000D01*
X33700000Y-59020000D02*
X33700000Y-56480000D01*
X23200000Y-56400000D02*
X23200000Y-49400000D01*
%TO.N,+3V3*%
D20*
X23200000Y-86400000D02*
X23200000Y-79400000D01*
X33700000Y-89020000D02*
X33700000Y-86480000D01*
X33700000Y-83940000D02*
X33700000Y-81400000D01*
X33700000Y-86480000D02*
X33700000Y-83940000D01*
X23200000Y-91400000D02*
X23200000Y-86400000D01*
X23200000Y-74400000D02*
X23200000Y-79400000D01*
%TO.N,PWM_CH0*%
D18*
X105463900Y-136647700D02*
X104912400Y-137199200D01*
X117860000Y-10000000D02*
X117860000Y-8748300D01*
X98921200Y-20572600D02*
X98921200Y-127840300D01*
X101000000Y-152000000D02*
X101000000Y-141042900D01*
X105463900Y-134383000D02*
X105463900Y-136647700D01*
X105981700Y-7403100D02*
X103890000Y-9494800D01*
X116514800Y-7403100D02*
X105981700Y-7403100D01*
X103890000Y-15603800D02*
X98921200Y-20572600D01*
X103890000Y-9494800D02*
X103890000Y-15603800D01*
X98921200Y-127840300D02*
X105463900Y-134383000D01*
X117860000Y-8748300D02*
X116514800Y-7403100D01*
%TO.N,SV1_PWR*%
D17*
X108993200Y-152059600D02*
X108993200Y-127477900D01*
X100982100Y-52832900D02*
X105815000Y-48000000D01*
X108993200Y-127477900D02*
X100982100Y-119466800D01*
X100982100Y-119466800D02*
X100982100Y-52832900D01*
X103540000Y-152000000D02*
X103540000Y-152451500D01*
X105140200Y-154051700D02*
X107001100Y-154051700D01*
X103540000Y-152451500D02*
X105140200Y-154051700D01*
X107001100Y-154051700D02*
X108993200Y-152059600D01*
%TO.N,PWM_CH11*%
D18*
X80030100Y-109998400D02*
X80030100Y-15660700D01*
X80631800Y-128380100D02*
X80631800Y-110600100D01*
X89000000Y-136748300D02*
X80631800Y-128380100D01*
X89000000Y-138000000D02*
X89000000Y-136748300D01*
X84840000Y-10850800D02*
X84840000Y-10000000D01*
X80631800Y-110600100D02*
X80030100Y-109998400D01*
X80030100Y-15660700D02*
X84840000Y-10850800D01*
%TO.N,PWM_CH2*%
X129715100Y-29936400D02*
X129715100Y-149835300D01*
X113432300Y-13653600D02*
X129715100Y-29936400D01*
%TO.N,SV3_PWR*%
D21*
X127540000Y-152000000D02*
X127540000Y-99725000D01*
X127540000Y-99725000D02*
X105815000Y-78000000D01*
%TO.N,+5V_LOGIC*%
D20*
X23200000Y-121400000D02*
X23200000Y-116400000D01*
X23200000Y-104400000D02*
X23200000Y-109400000D01*
X33700000Y-116480000D02*
X33700000Y-113940000D01*
X33700000Y-119020000D02*
X33700000Y-116480000D01*
X23200000Y-116400000D02*
X23200000Y-109400000D01*
X33700000Y-113940000D02*
X33700000Y-111400000D01*
%TO.N,GND_LOGIC*%
X23200000Y-134400000D02*
X23200000Y-139400000D01*
X23200000Y-151400000D02*
X23200000Y-146400000D01*
X33700000Y-143940000D02*
X33700000Y-141400000D01*
X33700000Y-146480000D02*
X33700000Y-143940000D01*
X33700000Y-149020000D02*
X33700000Y-146480000D01*
X23200000Y-146400000D02*
X23200000Y-139400000D01*
%TO.N,PWM_CH9*%
D18*
X81926300Y-126230100D02*
X90251700Y-134555500D01*
X80631800Y-19288200D02*
X80631800Y-109749300D01*
X90251700Y-134555500D02*
X90251700Y-149496600D01*
X89000000Y-152000000D02*
X89000000Y-150748300D01*
X89920000Y-10000000D02*
X80631800Y-19288200D01*
X90251700Y-149496600D02*
X89000000Y-150748300D01*
X80631800Y-109749300D02*
X81926300Y-111043800D01*
X81926300Y-111043800D02*
X81926300Y-126230100D01*
%TO.N,SV10_PWR*%
D19*
X90239800Y-153577000D02*
X75807500Y-153577000D01*
X91540000Y-152276800D02*
X90239800Y-153577000D01*
X69315000Y-147084500D02*
X69315000Y-108000000D01*
X91540000Y-152000000D02*
X91540000Y-152276800D01*
X75807500Y-153577000D02*
X69315000Y-147084500D01*
%TO.N,PWM_CH6*%
D18*
X93995700Y-16084300D02*
X93995700Y-122768600D01*
X100080000Y-10000000D02*
X93995700Y-16084300D01*
%TO.N,SV7_PWR*%
D17*
X55540000Y-76775000D02*
X69315000Y-63000000D01*
X55540000Y-152000000D02*
X55540000Y-76775000D01*
%TO.N,PWM_CH8*%
D18*
X77000000Y-152000000D02*
X77000000Y-111301200D01*
X92460000Y-10000000D02*
X92460000Y-111301200D01*
%TO.N,SV9_PWR*%
D19*
X69315000Y-100558400D02*
X79540000Y-110783400D01*
X69315000Y-93000000D02*
X69315000Y-100558400D01*
X79540000Y-110783400D02*
X79540000Y-152000000D01*
%TO.N,PWM_CH4*%
D18*
X115216700Y-8060800D02*
X116608300Y-9452400D01*
X107099200Y-8060800D02*
X115216700Y-8060800D01*
X105160000Y-10000000D02*
X107099200Y-8060800D01*
X116608300Y-13421900D02*
X149000000Y-45813600D01*
X149000000Y-45813600D02*
X149000000Y-152000000D01*
X116608300Y-9452400D02*
X116608300Y-13421900D01*
%TO.N,PWM_CH7*%
X96249400Y-8709400D02*
X81819500Y-8709400D01*
X72534900Y-70649200D02*
X65000000Y-78184100D01*
X97540000Y-10000000D02*
X96249400Y-8709400D01*
X81030000Y-9498900D02*
X81030000Y-13703900D01*
X72534900Y-22199000D02*
X72534900Y-70649200D01*
X81030000Y-13703900D02*
X72534900Y-22199000D01*
X65000000Y-78184100D02*
X65000000Y-152000000D01*
X81819500Y-8709400D02*
X81030000Y-9498900D01*
%TO.N,SV8_PWR*%
D21*
X66963300Y-80351700D02*
X69315000Y-78000000D01*
X67540000Y-152000000D02*
X66963300Y-151423300D01*
X66963300Y-151423300D02*
X66963300Y-80351700D01*
%TO.N,SCL*%
D18*
X33700000Y-29020000D02*
X33700000Y-26480000D01*
X23200000Y-26400000D02*
X23200000Y-19400000D01*
X23200000Y-14400000D02*
X23200000Y-19400000D01*
X23200000Y-31400000D02*
X23200000Y-26400000D01*
X33700000Y-26480000D02*
X33700000Y-23940000D01*
X33700000Y-23940000D02*
X33700000Y-21400000D01*
%TO.N,+5V_SERVO*%
D21*
X83185000Y-108000000D02*
X83185000Y-93000000D01*
X46685000Y-108000000D02*
X46685000Y-93000000D01*
X151600000Y-81200000D02*
X151600000Y-86200000D01*
%TO.N,+7V4*%
D17*
X151600000Y-69200000D02*
X151600000Y-74200000D01*
%TO.N,PWM_CH12*%
D18*
X83101500Y-118849800D02*
X83101500Y-111068000D01*
X81233500Y-109200000D02*
X81233500Y-20703500D01*
X101000000Y-136748300D02*
X83101500Y-118849800D01*
X101000000Y-138000000D02*
X101000000Y-136748300D01*
X83101500Y-111068000D02*
X81233500Y-109200000D01*
X81233500Y-20703500D02*
X85484100Y-16452900D01*
%TD*%
%TA.AperFunction,Conductor*%
%TO.N,+12V*%
G36*
X157425500Y-5569962D02*
G01*
X157480038Y-5624500D01*
X157500000Y-5699000D01*
X157500000Y-156744796D01*
X157480038Y-156819296D01*
X157425500Y-156873834D01*
X157351000Y-156893796D01*
X86349000Y-156893796D01*
X86274500Y-156873834D01*
X86219962Y-156819296D01*
X86200000Y-156744796D01*
X86200000Y-154726500D01*
X86219962Y-154652000D01*
X86274500Y-154597462D01*
X86349000Y-154577500D01*
X90338337Y-154577500D01*
X90338340Y-154577500D01*
X90338341Y-154577500D01*
X90434988Y-154558275D01*
X90531636Y-154539051D01*
X90592715Y-154513751D01*
X90713714Y-154463632D01*
X90877582Y-154354139D01*
X91016939Y-154214782D01*
X91016939Y-154214780D01*
X91029201Y-154202519D01*
X91029204Y-154202514D01*
X91917208Y-153314511D01*
X91976523Y-153278164D01*
X92058412Y-153251557D01*
X92247816Y-153155051D01*
X92419792Y-153030104D01*
X92570104Y-152879792D01*
X92689456Y-152715517D01*
X92749396Y-152666979D01*
X92825574Y-152654913D01*
X92897580Y-152682553D01*
X92930544Y-152715517D01*
X93049896Y-152879792D01*
X93200208Y-153030104D01*
X93372184Y-153155051D01*
X93561588Y-153251557D01*
X93763757Y-153317246D01*
X93973713Y-153350500D01*
X93973718Y-153350500D01*
X94186282Y-153350500D01*
X94186287Y-153350500D01*
X94396243Y-153317246D01*
X94598412Y-153251557D01*
X94787816Y-153155051D01*
X94959792Y-153030104D01*
X95110104Y-152879792D01*
X95235051Y-152707816D01*
X95331557Y-152518412D01*
X95397246Y-152316243D01*
X95430500Y-152106287D01*
X95430500Y-151893713D01*
X95430500Y-151889141D01*
X95430400Y-151886592D01*
X95430400Y-138113414D01*
X95430500Y-138110869D01*
X95430500Y-137893717D01*
X95430500Y-137893713D01*
X95397246Y-137683757D01*
X95331557Y-137481588D01*
X95235051Y-137292184D01*
X95110104Y-137120208D01*
X94959792Y-136969896D01*
X94787816Y-136844949D01*
X94598412Y-136748443D01*
X94396243Y-136682754D01*
X94186287Y-136649500D01*
X93973713Y-136649500D01*
X93802391Y-136676635D01*
X93763756Y-136682754D01*
X93603035Y-136734976D01*
X93561588Y-136748443D01*
X93561582Y-136748445D01*
X93561582Y-136748446D01*
X93372182Y-136844950D01*
X93372181Y-136844950D01*
X93200209Y-136969895D01*
X93200206Y-136969897D01*
X93049897Y-137120206D01*
X93049895Y-137120209D01*
X92930544Y-137284482D01*
X92870604Y-137333020D01*
X92794425Y-137345086D01*
X92722420Y-137317446D01*
X92689456Y-137284482D01*
X92627236Y-137198844D01*
X92570104Y-137120208D01*
X92419792Y-136969896D01*
X92247816Y-136844949D01*
X92058412Y-136748443D01*
X91856243Y-136682754D01*
X91646287Y-136649500D01*
X91433713Y-136649500D01*
X91223757Y-136682754D01*
X91204808Y-136688911D01*
X91147242Y-136707615D01*
X91070220Y-136711651D01*
X91001499Y-136676635D01*
X90959492Y-136611949D01*
X90952200Y-136565907D01*
X90952200Y-134486506D01*
X90925280Y-134351174D01*
X90925279Y-134351170D01*
X90872479Y-134223697D01*
X90872473Y-134223686D01*
X90842395Y-134178671D01*
X90842395Y-134178670D01*
X90826797Y-134155327D01*
X90795814Y-134108957D01*
X86243641Y-129556784D01*
X86205077Y-129489989D01*
X86200000Y-129451425D01*
X86200000Y-123298674D01*
X86219962Y-123224174D01*
X86274500Y-123169636D01*
X86349000Y-123149674D01*
X86423500Y-123169636D01*
X86454355Y-123193312D01*
X91305671Y-128044627D01*
X99820151Y-136559107D01*
X99858715Y-136625902D01*
X99858715Y-136703030D01*
X99820151Y-136769825D01*
X99804088Y-136783744D01*
X99792455Y-136792452D01*
X99792452Y-136792455D01*
X99706204Y-136907666D01*
X99706202Y-136907670D01*
X99655908Y-137042517D01*
X99649500Y-137102114D01*
X99649500Y-138897863D01*
X99649502Y-138897888D01*
X99655908Y-138957478D01*
X99655909Y-138957484D01*
X99706202Y-139092329D01*
X99706204Y-139092333D01*
X99792452Y-139207544D01*
X99792455Y-139207547D01*
X99907666Y-139293795D01*
X99907670Y-139293797D01*
X100042517Y-139344091D01*
X100102114Y-139350499D01*
X100102118Y-139350499D01*
X100102127Y-139350500D01*
X101897872Y-139350499D01*
X101957483Y-139344091D01*
X102062147Y-139305054D01*
X102092329Y-139293797D01*
X102092333Y-139293795D01*
X102195983Y-139216202D01*
X102207546Y-139207546D01*
X102293796Y-139092331D01*
X102344091Y-138957483D01*
X102346391Y-138936091D01*
X102350499Y-138897885D01*
X102350499Y-138897882D01*
X102350500Y-138897873D01*
X102350499Y-138685529D01*
X102370461Y-138611033D01*
X102394140Y-138580173D01*
X102974314Y-137999999D01*
X102394140Y-137419825D01*
X102355576Y-137353030D01*
X102350499Y-137314466D01*
X102350499Y-137102136D01*
X102350499Y-137102128D01*
X102344091Y-137042517D01*
X102317005Y-136969895D01*
X102293797Y-136907670D01*
X102293795Y-136907666D01*
X102207547Y-136792455D01*
X102207544Y-136792452D01*
X102092333Y-136706204D01*
X102092329Y-136706202D01*
X101957482Y-136655908D01*
X101897885Y-136649500D01*
X101897873Y-136649500D01*
X101816098Y-136649500D01*
X101741598Y-136629538D01*
X101724444Y-136612384D01*
X101723335Y-136611925D01*
X101721191Y-136609131D01*
X101687060Y-136575000D01*
X101677904Y-136556207D01*
X101674172Y-136546950D01*
X101673580Y-136543971D01*
X101651144Y-136489806D01*
X101626149Y-136429463D01*
X101620777Y-136416493D01*
X101620770Y-136416481D01*
X101544116Y-136301761D01*
X101544114Y-136301758D01*
X101446542Y-136204186D01*
X93954267Y-128711911D01*
X86243641Y-121001284D01*
X86205077Y-120934489D01*
X86200000Y-120895925D01*
X86200000Y-16846008D01*
X86211341Y-16788991D01*
X86253837Y-16686397D01*
X86284600Y-16531742D01*
X86284600Y-16374058D01*
X86253837Y-16219403D01*
X86237496Y-16179953D01*
X86211342Y-16116809D01*
X86200000Y-16059790D01*
X86200000Y-14772373D01*
X86219962Y-14697873D01*
X86243641Y-14667014D01*
X87854840Y-13055815D01*
X89541143Y-11369511D01*
X89607936Y-11330949D01*
X89669806Y-11327707D01*
X89813713Y-11350500D01*
X90026282Y-11350500D01*
X90026287Y-11350500D01*
X90236243Y-11317246D01*
X90438412Y-11251557D01*
X90627816Y-11155051D01*
X90799792Y-11030104D01*
X90950104Y-10879792D01*
X91069456Y-10715517D01*
X91129396Y-10666979D01*
X91205574Y-10654913D01*
X91277580Y-10682553D01*
X91310544Y-10715517D01*
X91429895Y-10879790D01*
X91429897Y-10879793D01*
X91580206Y-11030102D01*
X91580214Y-11030109D01*
X91636852Y-11071258D01*
X91698080Y-11115742D01*
X91746618Y-11175680D01*
X91759500Y-11236285D01*
X91759500Y-110870911D01*
X91748158Y-110927930D01*
X91690263Y-111067701D01*
X91690262Y-111067705D01*
X91659500Y-111222357D01*
X91659500Y-111380042D01*
X91690262Y-111534694D01*
X91690263Y-111534698D01*
X91750604Y-111680376D01*
X91750605Y-111680378D01*
X91750606Y-111680379D01*
X91838211Y-111811489D01*
X91949711Y-111922989D01*
X92080821Y-112010594D01*
X92226503Y-112070937D01*
X92381158Y-112101700D01*
X92538842Y-112101700D01*
X92693497Y-112070937D01*
X92839179Y-112010594D01*
X92970289Y-111922989D01*
X93040841Y-111852437D01*
X93107636Y-111813873D01*
X93184764Y-111813873D01*
X93251559Y-111852437D01*
X93290123Y-111919232D01*
X93295200Y-111957796D01*
X93295200Y-122338311D01*
X93283858Y-122395330D01*
X93225963Y-122535101D01*
X93225962Y-122535105D01*
X93195200Y-122689757D01*
X93195200Y-122847442D01*
X93225962Y-123002094D01*
X93225963Y-123002098D01*
X93286304Y-123147776D01*
X93286305Y-123147778D01*
X93286306Y-123147779D01*
X93373911Y-123278889D01*
X93485411Y-123390389D01*
X93616521Y-123477994D01*
X93762203Y-123538337D01*
X93916858Y-123569100D01*
X94074542Y-123569100D01*
X94229197Y-123538337D01*
X94374879Y-123477994D01*
X94505989Y-123390389D01*
X94617489Y-123278889D01*
X94705094Y-123147779D01*
X94765437Y-123002097D01*
X94796200Y-122847442D01*
X94796200Y-122689758D01*
X94765437Y-122535103D01*
X94707542Y-122395330D01*
X94696200Y-122338311D01*
X94696200Y-121045254D01*
X94716162Y-120970754D01*
X94770700Y-120916216D01*
X94816128Y-120899118D01*
X94911565Y-120880134D01*
X94937693Y-120874938D01*
X94937694Y-120874937D01*
X94937697Y-120874937D01*
X95083379Y-120814594D01*
X95214489Y-120726989D01*
X95325989Y-120615489D01*
X95413594Y-120484379D01*
X95473937Y-120338697D01*
X95504700Y-120184042D01*
X95504700Y-120026358D01*
X95473937Y-119871703D01*
X95416042Y-119731930D01*
X95404700Y-119674911D01*
X95404700Y-18267674D01*
X95424662Y-18193174D01*
X95448337Y-18162319D01*
X102241143Y-11369512D01*
X102307936Y-11330950D01*
X102369805Y-11327707D01*
X102513713Y-11350500D01*
X102513718Y-11350500D01*
X102726282Y-11350500D01*
X102726287Y-11350500D01*
X102936243Y-11317246D01*
X102994457Y-11298330D01*
X103071478Y-11294294D01*
X103140200Y-11329309D01*
X103182207Y-11393994D01*
X103189500Y-11440038D01*
X103189500Y-15251925D01*
X103169538Y-15326425D01*
X103145859Y-15357284D01*
X98377089Y-20126053D01*
X98377085Y-20126058D01*
X98300428Y-20240784D01*
X98300420Y-20240797D01*
X98247621Y-20368268D01*
X98247619Y-20368274D01*
X98246940Y-20371689D01*
X98225146Y-20481258D01*
X98221811Y-20498019D01*
X98220700Y-20503606D01*
X98220700Y-127909297D01*
X98247619Y-128044627D01*
X98247620Y-128044629D01*
X98300420Y-128172102D01*
X98300423Y-128172108D01*
X98300425Y-128172111D01*
X98377086Y-128286843D01*
X98377089Y-128286846D01*
X104719759Y-134629516D01*
X104758323Y-134696311D01*
X104763400Y-134734875D01*
X104763400Y-136294904D01*
X104743438Y-136369404D01*
X104688900Y-136423942D01*
X104671420Y-136432562D01*
X104533221Y-136489805D01*
X104452157Y-136543971D01*
X104405720Y-136575000D01*
X104402107Y-136577414D01*
X104290614Y-136688907D01*
X104290610Y-136688912D01*
X104275238Y-136711917D01*
X104217248Y-136762769D01*
X104141601Y-136777813D01*
X104083709Y-136761893D01*
X104058226Y-136748909D01*
X104058210Y-136748902D01*
X103856128Y-136683242D01*
X103646242Y-136650000D01*
X103433758Y-136650000D01*
X103223871Y-136683242D01*
X103021789Y-136748902D01*
X103021774Y-136748908D01*
X102911024Y-136805339D01*
X103605685Y-137500000D01*
X103474174Y-137500000D01*
X103347007Y-137534075D01*
X103232993Y-137599901D01*
X103139901Y-137692993D01*
X103074075Y-137807007D01*
X103040000Y-137934174D01*
X103040000Y-138065826D01*
X103074075Y-138192993D01*
X103139901Y-138307007D01*
X103232993Y-138400099D01*
X103347007Y-138465925D01*
X103474174Y-138500000D01*
X103605684Y-138500000D01*
X102911024Y-139194659D01*
X103021782Y-139251094D01*
X103021787Y-139251096D01*
X103223871Y-139316757D01*
X103433758Y-139350000D01*
X103646242Y-139350000D01*
X103804463Y-139324940D01*
X103881169Y-139333002D01*
X103943567Y-139378337D01*
X103974938Y-139448797D01*
X103966876Y-139525503D01*
X103965430Y-139529126D01*
X103888900Y-139713883D01*
X103888900Y-139713884D01*
X103821028Y-139967189D01*
X103821028Y-139967192D01*
X103786800Y-140227176D01*
X103786800Y-149772821D01*
X103794119Y-149828410D01*
X103794119Y-149828412D01*
X103821027Y-150032808D01*
X103821028Y-150032814D01*
X103821029Y-150032816D01*
X103830670Y-150068798D01*
X103866948Y-150204185D01*
X103888904Y-150286125D01*
X103897881Y-150307796D01*
X103907950Y-150384264D01*
X103878435Y-150455522D01*
X103817246Y-150502475D01*
X103740778Y-150512544D01*
X103736917Y-150511984D01*
X103694414Y-150505252D01*
X103658092Y-150499500D01*
X103421908Y-150499500D01*
X103188632Y-150536447D01*
X102975005Y-150605859D01*
X102964008Y-150609432D01*
X102964002Y-150609434D01*
X102964002Y-150609435D01*
X102753565Y-150716658D01*
X102562499Y-150855476D01*
X102562494Y-150855479D01*
X102562490Y-150855483D01*
X102562487Y-150855486D01*
X102508075Y-150909898D01*
X102441280Y-150948461D01*
X102364152Y-150948461D01*
X102297357Y-150909896D01*
X102283437Y-150893831D01*
X102207547Y-150792455D01*
X102207544Y-150792452D01*
X102092333Y-150706204D01*
X102092329Y-150706202D01*
X101957482Y-150655908D01*
X101897885Y-150649500D01*
X101897873Y-150649500D01*
X101849500Y-150649500D01*
X101775000Y-150629538D01*
X101720462Y-150575000D01*
X101700500Y-150500500D01*
X101700500Y-141473189D01*
X101711842Y-141416170D01*
X101736373Y-141356944D01*
X101769737Y-141276397D01*
X101800500Y-141121742D01*
X101800500Y-140964058D01*
X101769737Y-140809403D01*
X101709394Y-140663721D01*
X101621789Y-140532611D01*
X101510289Y-140421111D01*
X101379179Y-140333506D01*
X101379178Y-140333505D01*
X101379176Y-140333504D01*
X101233498Y-140273163D01*
X101233494Y-140273162D01*
X101078842Y-140242400D01*
X100921158Y-140242400D01*
X100766505Y-140273162D01*
X100766501Y-140273163D01*
X100620823Y-140333504D01*
X100489707Y-140421114D01*
X100378214Y-140532607D01*
X100290604Y-140663723D01*
X100230263Y-140809401D01*
X100230262Y-140809405D01*
X100199500Y-140964057D01*
X100199500Y-141121742D01*
X100230262Y-141276394D01*
X100230263Y-141276398D01*
X100288158Y-141416170D01*
X100299500Y-141473189D01*
X100299500Y-150500500D01*
X100279538Y-150575000D01*
X100225000Y-150629538D01*
X100150503Y-150649500D01*
X100102137Y-150649500D01*
X100102111Y-150649502D01*
X100042521Y-150655908D01*
X100042515Y-150655909D01*
X99907670Y-150706202D01*
X99907666Y-150706204D01*
X99792455Y-150792452D01*
X99792452Y-150792455D01*
X99706204Y-150907666D01*
X99706202Y-150907670D01*
X99655908Y-151042517D01*
X99649500Y-151102114D01*
X99649500Y-152897863D01*
X99649502Y-152897888D01*
X99655908Y-152957478D01*
X99655909Y-152957484D01*
X99706202Y-153092329D01*
X99706204Y-153092333D01*
X99792452Y-153207544D01*
X99792455Y-153207547D01*
X99907666Y-153293795D01*
X99907670Y-153293797D01*
X100042517Y-153344091D01*
X100102114Y-153350499D01*
X100102118Y-153350499D01*
X100102127Y-153350500D01*
X101897872Y-153350499D01*
X101957483Y-153344091D01*
X102053447Y-153308298D01*
X102092329Y-153293797D01*
X102092331Y-153293796D01*
X102098446Y-153289218D01*
X102104056Y-153285018D01*
X102175657Y-153256350D01*
X102252000Y-153267324D01*
X102312629Y-153314999D01*
X102313895Y-153316715D01*
X102341320Y-153354462D01*
X102395483Y-153429010D01*
X104162690Y-155196218D01*
X104353767Y-155335043D01*
X104564208Y-155442268D01*
X104788832Y-155515253D01*
X105022108Y-155552200D01*
X105022109Y-155552200D01*
X105022113Y-155552200D01*
X107119187Y-155552200D01*
X107119192Y-155552200D01*
X107352468Y-155515253D01*
X107577092Y-155442268D01*
X107787534Y-155335043D01*
X107978610Y-155196217D01*
X110137717Y-153037110D01*
X110276543Y-152846033D01*
X110383768Y-152635592D01*
X110456753Y-152410968D01*
X110493700Y-152177692D01*
X110493700Y-151941508D01*
X110493700Y-128229045D01*
X110513662Y-128154545D01*
X110568200Y-128100007D01*
X110642700Y-128080045D01*
X110717200Y-128100007D01*
X110748059Y-128123686D01*
X113995859Y-131371486D01*
X114034423Y-131438281D01*
X114039500Y-131476845D01*
X114039500Y-150500500D01*
X114019538Y-150575000D01*
X113965000Y-150629538D01*
X113890500Y-150649500D01*
X112102136Y-150649500D01*
X112102111Y-150649502D01*
X112042521Y-150655908D01*
X112042515Y-150655909D01*
X111907670Y-150706202D01*
X111907666Y-150706204D01*
X111792455Y-150792452D01*
X111792452Y-150792455D01*
X111706204Y-150907666D01*
X111706202Y-150907670D01*
X111655908Y-151042517D01*
X111649500Y-151102114D01*
X111649500Y-152897863D01*
X111649502Y-152897888D01*
X111655908Y-152957478D01*
X111655909Y-152957484D01*
X111706202Y-153092329D01*
X111706204Y-153092333D01*
X111792452Y-153207544D01*
X111792455Y-153207547D01*
X111907666Y-153293795D01*
X111907670Y-153293797D01*
X112042517Y-153344091D01*
X112102114Y-153350499D01*
X112102118Y-153350499D01*
X112102127Y-153350500D01*
X113897872Y-153350499D01*
X113957483Y-153344091D01*
X114053447Y-153308298D01*
X114092329Y-153293797D01*
X114092333Y-153293795D01*
X114166953Y-153237934D01*
X114207546Y-153207546D01*
X114283438Y-153106167D01*
X114344063Y-153058491D01*
X114420406Y-153047515D01*
X114492009Y-153076180D01*
X114508068Y-153090095D01*
X114562490Y-153144517D01*
X114753567Y-153283343D01*
X114964008Y-153390568D01*
X115188632Y-153463553D01*
X115421908Y-153500500D01*
X115421913Y-153500500D01*
X115658087Y-153500500D01*
X115658092Y-153500500D01*
X115891368Y-153463553D01*
X116115992Y-153390568D01*
X116326433Y-153283343D01*
X116517510Y-153144517D01*
X116684517Y-152977510D01*
X116782164Y-152843110D01*
X116842100Y-152794576D01*
X116918279Y-152782510D01*
X116990284Y-152810150D01*
X117023248Y-152843114D01*
X117049896Y-152879792D01*
X117200208Y-153030104D01*
X117372184Y-153155051D01*
X117561588Y-153251557D01*
X117763757Y-153317246D01*
X117973713Y-153350500D01*
X117973718Y-153350500D01*
X118186282Y-153350500D01*
X118186287Y-153350500D01*
X118396243Y-153317246D01*
X118598412Y-153251557D01*
X118787816Y-153155051D01*
X118959792Y-153030104D01*
X119110104Y-152879792D01*
X119235051Y-152707816D01*
X119331557Y-152518412D01*
X119397246Y-152316243D01*
X119430500Y-152106287D01*
X119430500Y-151893713D01*
X119397246Y-151683757D01*
X119331557Y-151481588D01*
X119235051Y-151292184D01*
X119110104Y-151120208D01*
X118959792Y-150969896D01*
X118787816Y-150844949D01*
X118598412Y-150748443D01*
X118396243Y-150682754D01*
X118186287Y-150649500D01*
X117973713Y-150649500D01*
X117798749Y-150677211D01*
X117763756Y-150682754D01*
X117561594Y-150748441D01*
X117561588Y-150748443D01*
X117561582Y-150748445D01*
X117561582Y-150748446D01*
X117372182Y-150844950D01*
X117372175Y-150844954D01*
X117277079Y-150914045D01*
X117205074Y-150941685D01*
X117128895Y-150929619D01*
X117068956Y-150881080D01*
X117041316Y-150809075D01*
X117040500Y-150793501D01*
X117040500Y-130675512D01*
X117040500Y-130675508D01*
X117003553Y-130442232D01*
X116930568Y-130217608D01*
X116860097Y-130079300D01*
X116823343Y-130007166D01*
X116759413Y-129919175D01*
X116684522Y-129816096D01*
X116684519Y-129816093D01*
X116684517Y-129816090D01*
X104729441Y-117861014D01*
X104690877Y-117794219D01*
X104685800Y-117755655D01*
X104685800Y-109800640D01*
X104705762Y-109726140D01*
X104760300Y-109671602D01*
X104834800Y-109651640D01*
X104909298Y-109671601D01*
X104909300Y-109671602D01*
X104909301Y-109671603D01*
X104972619Y-109708160D01*
X104972622Y-109708161D01*
X104972627Y-109708164D01*
X105202793Y-109803502D01*
X105443435Y-109867982D01*
X105443441Y-109867982D01*
X105443442Y-109867983D01*
X105510586Y-109876822D01*
X105690435Y-109900500D01*
X105939565Y-109900500D01*
X106186565Y-109867982D01*
X106427207Y-109803502D01*
X106657373Y-109708164D01*
X106873127Y-109583599D01*
X107070776Y-109431938D01*
X107246938Y-109255776D01*
X107398599Y-109058127D01*
X107523164Y-108842373D01*
X107618502Y-108612207D01*
X107682982Y-108371565D01*
X107715500Y-108124565D01*
X107715500Y-107875435D01*
X107682982Y-107628435D01*
X107618502Y-107387793D01*
X107523164Y-107157627D01*
X107398599Y-106941873D01*
X107246938Y-106744224D01*
X107070776Y-106568062D01*
X106873127Y-106416401D01*
X106657380Y-106291840D01*
X106657377Y-106291838D01*
X106657375Y-106291837D01*
X106657373Y-106291836D01*
X106522548Y-106235989D01*
X106427210Y-106196499D01*
X106427208Y-106196498D01*
X106427207Y-106196498D01*
X106186565Y-106132018D01*
X106186563Y-106132017D01*
X106186557Y-106132016D01*
X105939570Y-106099500D01*
X105939565Y-106099500D01*
X105690435Y-106099500D01*
X105690429Y-106099500D01*
X105443442Y-106132016D01*
X105202789Y-106196499D01*
X105040032Y-106263915D01*
X104972627Y-106291836D01*
X104972625Y-106291836D01*
X104972618Y-106291840D01*
X104909299Y-106328397D01*
X104834799Y-106348359D01*
X104760299Y-106328396D01*
X104705762Y-106273858D01*
X104685800Y-106199359D01*
X104685800Y-94800640D01*
X104705762Y-94726140D01*
X104760300Y-94671602D01*
X104834800Y-94651640D01*
X104909298Y-94671601D01*
X104909300Y-94671602D01*
X104909301Y-94671603D01*
X104972619Y-94708160D01*
X104972622Y-94708161D01*
X104972627Y-94708164D01*
X105202793Y-94803502D01*
X105443435Y-94867982D01*
X105443441Y-94867982D01*
X105443442Y-94867983D01*
X105510586Y-94876822D01*
X105690435Y-94900500D01*
X105939565Y-94900500D01*
X106112010Y-94877797D01*
X106185731Y-94868092D01*
X106262199Y-94878159D01*
X106310538Y-94910458D01*
X119511759Y-108111679D01*
X119550323Y-108178474D01*
X119555400Y-108217038D01*
X119555400Y-150346839D01*
X119593848Y-150540134D01*
X119593849Y-150540136D01*
X119669267Y-150722212D01*
X119669268Y-150722215D01*
X119734470Y-150819796D01*
X119778761Y-150886082D01*
X119918118Y-151025439D01*
X119918121Y-151025441D01*
X123078415Y-154185735D01*
X123078422Y-154185743D01*
X123082161Y-154189482D01*
X123221518Y-154328839D01*
X123286975Y-154372576D01*
X123385383Y-154438331D01*
X123514134Y-154491661D01*
X123514133Y-154491661D01*
X123543298Y-154503741D01*
X123567464Y-154513751D01*
X123664110Y-154532974D01*
X123664111Y-154532975D01*
X123694657Y-154539051D01*
X123760759Y-154552200D01*
X123760760Y-154552200D01*
X123760763Y-154552200D01*
X138280637Y-154552200D01*
X138280640Y-154552200D01*
X138280641Y-154552200D01*
X138377288Y-154532975D01*
X138473936Y-154513751D01*
X138527265Y-154491661D01*
X138656014Y-154438332D01*
X138819882Y-154328839D01*
X138959239Y-154189482D01*
X138959239Y-154189480D01*
X138971501Y-154177219D01*
X138971504Y-154177214D01*
X139794259Y-153354460D01*
X139853572Y-153318114D01*
X139873243Y-153311722D01*
X140058412Y-153251557D01*
X140247816Y-153155051D01*
X140419792Y-153030104D01*
X140570104Y-152879792D01*
X140689456Y-152715517D01*
X140749396Y-152666979D01*
X140825574Y-152654913D01*
X140897580Y-152682553D01*
X140930544Y-152715517D01*
X141049896Y-152879792D01*
X141200208Y-153030104D01*
X141372184Y-153155051D01*
X141561588Y-153251557D01*
X141763757Y-153317246D01*
X141973713Y-153350500D01*
X141973718Y-153350500D01*
X142186282Y-153350500D01*
X142186287Y-153350500D01*
X142396243Y-153317246D01*
X142598412Y-153251557D01*
X142787816Y-153155051D01*
X142959792Y-153030104D01*
X143110104Y-152879792D01*
X143235051Y-152707816D01*
X143331557Y-152518412D01*
X143397246Y-152316243D01*
X143430500Y-152106287D01*
X143430500Y-151893713D01*
X143397246Y-151683757D01*
X143331557Y-151481588D01*
X143235051Y-151292184D01*
X143110104Y-151120208D01*
X142959792Y-150969896D01*
X142787816Y-150844949D01*
X142598412Y-150748443D01*
X142396243Y-150682754D01*
X142186287Y-150649500D01*
X141973713Y-150649500D01*
X141798749Y-150677211D01*
X141763756Y-150682754D01*
X141561594Y-150748441D01*
X141561588Y-150748443D01*
X141561582Y-150748445D01*
X141561582Y-150748446D01*
X141372182Y-150844950D01*
X141372181Y-150844950D01*
X141200209Y-150969895D01*
X141200206Y-150969897D01*
X141049897Y-151120206D01*
X141049895Y-151120209D01*
X140930544Y-151284482D01*
X140870604Y-151333020D01*
X140794425Y-151345086D01*
X140722420Y-151317446D01*
X140689456Y-151284482D01*
X140627236Y-151198844D01*
X140570104Y-151120208D01*
X140419792Y-150969896D01*
X140247816Y-150844949D01*
X140058412Y-150748443D01*
X139856243Y-150682754D01*
X139646287Y-150649500D01*
X139433713Y-150649500D01*
X139258749Y-150677211D01*
X139223756Y-150682754D01*
X139021594Y-150748441D01*
X139021588Y-150748443D01*
X139021582Y-150748445D01*
X139021582Y-150748446D01*
X138832182Y-150844950D01*
X138832181Y-150844950D01*
X138660209Y-150969895D01*
X138660198Y-150969904D01*
X138574179Y-151055923D01*
X138507384Y-151094487D01*
X138430256Y-151094487D01*
X138363462Y-151055922D01*
X138329215Y-151002633D01*
X138293796Y-150907669D01*
X138293795Y-150907668D01*
X138293795Y-150907666D01*
X138207547Y-150792455D01*
X138207544Y-150792452D01*
X138092333Y-150706204D01*
X138092329Y-150706202D01*
X137957482Y-150655908D01*
X137897885Y-150649500D01*
X137897873Y-150649500D01*
X137849500Y-150649500D01*
X137775000Y-150629538D01*
X137720462Y-150575000D01*
X137700500Y-150500500D01*
X137700500Y-36160006D01*
X137673580Y-36024674D01*
X137673579Y-36024670D01*
X137620779Y-35897197D01*
X137620776Y-35897193D01*
X137620775Y-35897189D01*
X137544114Y-35782457D01*
X113254427Y-11492770D01*
X113215863Y-11425975D01*
X113215863Y-11348847D01*
X113254427Y-11282052D01*
X113293934Y-11255667D01*
X113293195Y-11254215D01*
X113298412Y-11251557D01*
X113487816Y-11155051D01*
X113659792Y-11030104D01*
X113810104Y-10879792D01*
X113929456Y-10715517D01*
X113989396Y-10666979D01*
X114065574Y-10654913D01*
X114137580Y-10682553D01*
X114170544Y-10715517D01*
X114289896Y-10879792D01*
X114440208Y-11030104D01*
X114612184Y-11155051D01*
X114801588Y-11251557D01*
X115003757Y-11317246D01*
X115213713Y-11350500D01*
X115213718Y-11350500D01*
X115426282Y-11350500D01*
X115426287Y-11350500D01*
X115636243Y-11317246D01*
X115712757Y-11292384D01*
X115789778Y-11288348D01*
X115858500Y-11323363D01*
X115900507Y-11388048D01*
X115907800Y-11434092D01*
X115907800Y-13490897D01*
X115934719Y-13626227D01*
X115934720Y-13626229D01*
X115987520Y-13753702D01*
X115987523Y-13753708D01*
X115987525Y-13753711D01*
X116064186Y-13868443D01*
X116064188Y-13868445D01*
X116064189Y-13868446D01*
X148255859Y-46060115D01*
X148294423Y-46126910D01*
X148299500Y-46165474D01*
X148299500Y-150500500D01*
X148279538Y-150575000D01*
X148225000Y-150629538D01*
X148150503Y-150649500D01*
X148102137Y-150649500D01*
X148102111Y-150649502D01*
X148042521Y-150655908D01*
X148042515Y-150655909D01*
X147907670Y-150706202D01*
X147907666Y-150706204D01*
X147792455Y-150792452D01*
X147792452Y-150792455D01*
X147706204Y-150907666D01*
X147706202Y-150907670D01*
X147655908Y-151042517D01*
X147649500Y-151102114D01*
X147649500Y-152897863D01*
X147649502Y-152897888D01*
X147655908Y-152957478D01*
X147655909Y-152957484D01*
X147706202Y-153092329D01*
X147706204Y-153092333D01*
X147792452Y-153207544D01*
X147792455Y-153207547D01*
X147907666Y-153293795D01*
X147907670Y-153293797D01*
X148042517Y-153344091D01*
X148102114Y-153350499D01*
X148102118Y-153350499D01*
X148102127Y-153350500D01*
X149897872Y-153350499D01*
X149957483Y-153344091D01*
X150053447Y-153308298D01*
X150092329Y-153293797D01*
X150092333Y-153293795D01*
X150166953Y-153237934D01*
X150207546Y-153207546D01*
X150293796Y-153092331D01*
X150293797Y-153092329D01*
X150293798Y-153092327D01*
X150329215Y-152997367D01*
X150373953Y-152934540D01*
X150444110Y-152902498D01*
X150520889Y-152909829D01*
X150574180Y-152944076D01*
X150660208Y-153030104D01*
X150832184Y-153155051D01*
X151021588Y-153251557D01*
X151223757Y-153317246D01*
X151433713Y-153350500D01*
X151433718Y-153350500D01*
X151646282Y-153350500D01*
X151646287Y-153350500D01*
X151856243Y-153317246D01*
X152058412Y-153251557D01*
X152247816Y-153155051D01*
X152419792Y-153030104D01*
X152570104Y-152879792D01*
X152689456Y-152715517D01*
X152749396Y-152666979D01*
X152825574Y-152654913D01*
X152897580Y-152682553D01*
X152930544Y-152715517D01*
X153049896Y-152879792D01*
X153200208Y-153030104D01*
X153372184Y-153155051D01*
X153561588Y-153251557D01*
X153763757Y-153317246D01*
X153973713Y-153350500D01*
X153973718Y-153350500D01*
X154186282Y-153350500D01*
X154186287Y-153350500D01*
X154396243Y-153317246D01*
X154598412Y-153251557D01*
X154787816Y-153155051D01*
X154959792Y-153030104D01*
X155110104Y-152879792D01*
X155110109Y-152879784D01*
X155113399Y-152876495D01*
X155115087Y-152874667D01*
X155120228Y-152869527D01*
X155183449Y-152782510D01*
X155245159Y-152697574D01*
X155245159Y-152697572D01*
X155245166Y-152697564D01*
X155341665Y-152508174D01*
X155352797Y-152473914D01*
X155407349Y-152306020D01*
X155440601Y-152096079D01*
X155440601Y-151883521D01*
X155440601Y-151878248D01*
X155440600Y-151878218D01*
X155440600Y-151485053D01*
X155460562Y-151410553D01*
X155484241Y-151379694D01*
X155530915Y-151333020D01*
X155597483Y-151266452D01*
X155757124Y-151058402D01*
X155888243Y-150831297D01*
X155971814Y-150629538D01*
X155988595Y-150589027D01*
X155988596Y-150589023D01*
X155988598Y-150589019D01*
X156056471Y-150335716D01*
X156090699Y-150075720D01*
X156090699Y-149813481D01*
X156056471Y-149553485D01*
X155988598Y-149300181D01*
X155888243Y-149057903D01*
X155757124Y-148830798D01*
X155597483Y-148622749D01*
X153644141Y-146669407D01*
X153605577Y-146602612D01*
X153600500Y-146564048D01*
X153600500Y-97068878D01*
X153600499Y-97068876D01*
X153566271Y-96808892D01*
X153566271Y-96808889D01*
X153498399Y-96555584D01*
X153498399Y-96555583D01*
X153482752Y-96517809D01*
X153398043Y-96313303D01*
X153266924Y-96086197D01*
X153266921Y-96086193D01*
X153266921Y-96086192D01*
X153107284Y-95878151D01*
X152921848Y-95692715D01*
X152713806Y-95533078D01*
X152486701Y-95401959D01*
X152486699Y-95401958D01*
X152486697Y-95401957D01*
X152411154Y-95370666D01*
X152244416Y-95301600D01*
X152018255Y-95241002D01*
X151991116Y-95233730D01*
X151991114Y-95233729D01*
X151991108Y-95233728D01*
X151731123Y-95199500D01*
X151731120Y-95199500D01*
X151468880Y-95199500D01*
X151468876Y-95199500D01*
X151208892Y-95233728D01*
X151208889Y-95233728D01*
X150955584Y-95301600D01*
X150955583Y-95301600D01*
X150713298Y-95401959D01*
X150486193Y-95533078D01*
X150486192Y-95533078D01*
X150278151Y-95692715D01*
X150278151Y-95692716D01*
X150092715Y-95878152D01*
X149967709Y-96041062D01*
X149906519Y-96088014D01*
X149830051Y-96098081D01*
X149758794Y-96068565D01*
X149711842Y-96007375D01*
X149700500Y-95950356D01*
X149700500Y-88021584D01*
X149720462Y-87947084D01*
X149775000Y-87892546D01*
X149849500Y-87872584D01*
X149924000Y-87892546D01*
X149954859Y-87916225D01*
X149981345Y-87942711D01*
X150130666Y-88034814D01*
X150297203Y-88089999D01*
X150399992Y-88100500D01*
X150399996Y-88100500D01*
X152800004Y-88100500D01*
X152800008Y-88100500D01*
X152902797Y-88089999D01*
X153069334Y-88034814D01*
X153218655Y-87942711D01*
X153342711Y-87818655D01*
X153434814Y-87669334D01*
X153489999Y-87502797D01*
X153500500Y-87400008D01*
X153500500Y-84999992D01*
X153489999Y-84897203D01*
X153434814Y-84730666D01*
X153342711Y-84581345D01*
X153218655Y-84457289D01*
X153069337Y-84365187D01*
X152952631Y-84326514D01*
X152888192Y-84284130D01*
X152853578Y-84215206D01*
X152850500Y-84185077D01*
X152850500Y-82698932D01*
X152870462Y-82624432D01*
X152894141Y-82593573D01*
X153031938Y-82455776D01*
X153183599Y-82258127D01*
X153308164Y-82042373D01*
X153403502Y-81812207D01*
X153467982Y-81571565D01*
X153500500Y-81324565D01*
X153500500Y-81075435D01*
X153467982Y-80828435D01*
X153403502Y-80587793D01*
X153308164Y-80357627D01*
X153183599Y-80141873D01*
X153031938Y-79944224D01*
X152855776Y-79768062D01*
X152658127Y-79616401D01*
X152506851Y-79529062D01*
X152442377Y-79491838D01*
X152442375Y-79491837D01*
X152442373Y-79491836D01*
X152307548Y-79435989D01*
X152212210Y-79396499D01*
X152212208Y-79396498D01*
X152212207Y-79396498D01*
X151971565Y-79332018D01*
X151971563Y-79332017D01*
X151971557Y-79332016D01*
X151724570Y-79299500D01*
X151724565Y-79299500D01*
X151475435Y-79299500D01*
X151475429Y-79299500D01*
X151228442Y-79332016D01*
X150987789Y-79396499D01*
X150757622Y-79491838D01*
X150541874Y-79616400D01*
X150344222Y-79768063D01*
X150168063Y-79944222D01*
X150016400Y-80141874D01*
X149978538Y-80207454D01*
X149924000Y-80261992D01*
X149849500Y-80281954D01*
X149775000Y-80261992D01*
X149720462Y-80207454D01*
X149700500Y-80132954D01*
X149700500Y-76021584D01*
X149720462Y-75947084D01*
X149775000Y-75892546D01*
X149849500Y-75872584D01*
X149924000Y-75892546D01*
X149954859Y-75916225D01*
X149981345Y-75942711D01*
X150130666Y-76034814D01*
X150297203Y-76089999D01*
X150399992Y-76100500D01*
X150399996Y-76100500D01*
X152800004Y-76100500D01*
X152800008Y-76100500D01*
X152902797Y-76089999D01*
X153069334Y-76034814D01*
X153218655Y-75942711D01*
X153342711Y-75818655D01*
X153434814Y-75669334D01*
X153489999Y-75502797D01*
X153500500Y-75400008D01*
X153500500Y-72999992D01*
X153489999Y-72897203D01*
X153434814Y-72730666D01*
X153342711Y-72581345D01*
X153218655Y-72457289D01*
X153171275Y-72428064D01*
X153118349Y-72371964D01*
X153100500Y-72301250D01*
X153100500Y-70417002D01*
X153120462Y-70342502D01*
X153131290Y-70326297D01*
X153183599Y-70258127D01*
X153308164Y-70042373D01*
X153403502Y-69812207D01*
X153467982Y-69571565D01*
X153500500Y-69324565D01*
X153500500Y-69075435D01*
X153467982Y-68828435D01*
X153403502Y-68587793D01*
X153308164Y-68357627D01*
X153183599Y-68141873D01*
X153031938Y-67944224D01*
X152855776Y-67768062D01*
X152658127Y-67616401D01*
X152586209Y-67574879D01*
X152442377Y-67491838D01*
X152442375Y-67491837D01*
X152442373Y-67491836D01*
X152307548Y-67435989D01*
X152212210Y-67396499D01*
X152212208Y-67396498D01*
X152212207Y-67396498D01*
X151971565Y-67332018D01*
X151971563Y-67332017D01*
X151971557Y-67332016D01*
X151724570Y-67299500D01*
X151724565Y-67299500D01*
X151475435Y-67299500D01*
X151475429Y-67299500D01*
X151228442Y-67332016D01*
X150987789Y-67396499D01*
X150757622Y-67491838D01*
X150541874Y-67616400D01*
X150344222Y-67768063D01*
X150168063Y-67944222D01*
X150016400Y-68141874D01*
X149978538Y-68207454D01*
X149924000Y-68261992D01*
X149849500Y-68281954D01*
X149775000Y-68261992D01*
X149720462Y-68207454D01*
X149700500Y-68132954D01*
X149700500Y-60020877D01*
X149720462Y-59946377D01*
X149775000Y-59891839D01*
X149849500Y-59871877D01*
X149924000Y-59891839D01*
X149954859Y-59915518D01*
X149981660Y-59942319D01*
X150130879Y-60034357D01*
X150297303Y-60089505D01*
X150297312Y-60089507D01*
X150400011Y-60099999D01*
X150400022Y-60100000D01*
X151200000Y-60100000D01*
X151200000Y-58714476D01*
X151292110Y-58776022D01*
X151410402Y-58825021D01*
X151535981Y-58850000D01*
X151664019Y-58850000D01*
X151789598Y-58825021D01*
X151907890Y-58776022D01*
X152000000Y-58714476D01*
X152000000Y-60100000D01*
X152799978Y-60100000D01*
X152799988Y-60099999D01*
X152902687Y-60089507D01*
X152902696Y-60089505D01*
X153069120Y-60034357D01*
X153218339Y-59942319D01*
X153342319Y-59818339D01*
X153434357Y-59669120D01*
X153489505Y-59502696D01*
X153489507Y-59502687D01*
X153499999Y-59399988D01*
X153500000Y-59399978D01*
X153500000Y-58600000D01*
X152114477Y-58600000D01*
X152176022Y-58507890D01*
X152225021Y-58389598D01*
X152250000Y-58264019D01*
X152250000Y-58135981D01*
X152225021Y-58010402D01*
X152176022Y-57892110D01*
X152114477Y-57800000D01*
X153500000Y-57800000D01*
X153500000Y-57000021D01*
X153499999Y-57000011D01*
X153489507Y-56897312D01*
X153489505Y-56897303D01*
X153434357Y-56730879D01*
X153342319Y-56581660D01*
X153218339Y-56457680D01*
X153069120Y-56365642D01*
X152902696Y-56310494D01*
X152902687Y-56310492D01*
X152799988Y-56300000D01*
X152000000Y-56300000D01*
X152000000Y-57685523D01*
X151907890Y-57623978D01*
X151789598Y-57574979D01*
X151664019Y-57550000D01*
X151535981Y-57550000D01*
X151410402Y-57574979D01*
X151292110Y-57623978D01*
X151200000Y-57685523D01*
X151200000Y-56300000D01*
X150400011Y-56300000D01*
X150297312Y-56310492D01*
X150297303Y-56310494D01*
X150130879Y-56365642D01*
X149981660Y-56457680D01*
X149954859Y-56484482D01*
X149888064Y-56523046D01*
X149810936Y-56523046D01*
X149744141Y-56484482D01*
X149705577Y-56417687D01*
X149700500Y-56379123D01*
X149700500Y-54266045D01*
X149720462Y-54191545D01*
X149775000Y-54137007D01*
X149849500Y-54117045D01*
X149924000Y-54137007D01*
X149978538Y-54191545D01*
X150002048Y-54232265D01*
X150953367Y-53280946D01*
X150974979Y-53389598D01*
X151023978Y-53507890D01*
X151095112Y-53614351D01*
X151185649Y-53704888D01*
X151292110Y-53776022D01*
X151410402Y-53825021D01*
X151519052Y-53846632D01*
X150567733Y-54797950D01*
X150757849Y-54907714D01*
X150987951Y-55003026D01*
X151228540Y-55067492D01*
X151475461Y-55099999D01*
X151475467Y-55100000D01*
X151724533Y-55100000D01*
X151724538Y-55099999D01*
X151971459Y-55067492D01*
X152212048Y-55003026D01*
X152442150Y-54907714D01*
X152632265Y-54797950D01*
X151680947Y-53846632D01*
X151789598Y-53825021D01*
X151907890Y-53776022D01*
X152014351Y-53704888D01*
X152104888Y-53614351D01*
X152176022Y-53507890D01*
X152225021Y-53389598D01*
X152246632Y-53280947D01*
X153197950Y-54232265D01*
X153307714Y-54042150D01*
X153403026Y-53812048D01*
X153467492Y-53571459D01*
X153499999Y-53324538D01*
X153500000Y-53324533D01*
X153500000Y-53075467D01*
X153499999Y-53075461D01*
X153467492Y-52828540D01*
X153403026Y-52587951D01*
X153307714Y-52357849D01*
X153197950Y-52167733D01*
X152246632Y-53119051D01*
X152225021Y-53010402D01*
X152176022Y-52892110D01*
X152104888Y-52785649D01*
X152014351Y-52695112D01*
X151907890Y-52623978D01*
X151789598Y-52574979D01*
X151680946Y-52553366D01*
X152632265Y-51602048D01*
X152442156Y-51492287D01*
X152212048Y-51396973D01*
X151971459Y-51332507D01*
X151724538Y-51300000D01*
X151475461Y-51300000D01*
X151228540Y-51332507D01*
X150987951Y-51396973D01*
X150757843Y-51492287D01*
X150567733Y-51602048D01*
X151519052Y-52553367D01*
X151410402Y-52574979D01*
X151292110Y-52623978D01*
X151185649Y-52695112D01*
X151095112Y-52785649D01*
X151023978Y-52892110D01*
X150974979Y-53010402D01*
X150953367Y-53119052D01*
X150002048Y-52167733D01*
X149978537Y-52208455D01*
X149923999Y-52262992D01*
X149849499Y-52282954D01*
X149774999Y-52262991D01*
X149720462Y-52208453D01*
X149700500Y-52133954D01*
X149700500Y-48020877D01*
X149720462Y-47946377D01*
X149775000Y-47891839D01*
X149849500Y-47871877D01*
X149924000Y-47891839D01*
X149954859Y-47915518D01*
X149981660Y-47942319D01*
X150130879Y-48034357D01*
X150297303Y-48089505D01*
X150297312Y-48089507D01*
X150400011Y-48099999D01*
X150400022Y-48100000D01*
X151200000Y-48100000D01*
X151200000Y-46714476D01*
X151292110Y-46776022D01*
X151410402Y-46825021D01*
X151535981Y-46850000D01*
X151664019Y-46850000D01*
X151789598Y-46825021D01*
X151907890Y-46776022D01*
X152000000Y-46714476D01*
X152000000Y-48100000D01*
X152799978Y-48100000D01*
X152799988Y-48099999D01*
X152902687Y-48089507D01*
X152902696Y-48089505D01*
X153069120Y-48034357D01*
X153218339Y-47942319D01*
X153342319Y-47818339D01*
X153434357Y-47669120D01*
X153489505Y-47502696D01*
X153489507Y-47502687D01*
X153499999Y-47399988D01*
X153500000Y-47399978D01*
X153500000Y-46600000D01*
X152114477Y-46600000D01*
X152176022Y-46507890D01*
X152225021Y-46389598D01*
X152250000Y-46264019D01*
X152250000Y-46135981D01*
X152225021Y-46010402D01*
X152176022Y-45892110D01*
X152114477Y-45800000D01*
X153500000Y-45800000D01*
X153500000Y-45000021D01*
X153499999Y-45000011D01*
X153489507Y-44897312D01*
X153489505Y-44897303D01*
X153434357Y-44730879D01*
X153342319Y-44581660D01*
X153218339Y-44457680D01*
X153069120Y-44365642D01*
X152902696Y-44310494D01*
X152902687Y-44310492D01*
X152799988Y-44300000D01*
X152000000Y-44300000D01*
X152000000Y-45685523D01*
X151907890Y-45623978D01*
X151789598Y-45574979D01*
X151664019Y-45550000D01*
X151535981Y-45550000D01*
X151410402Y-45574979D01*
X151292110Y-45623978D01*
X151200000Y-45685523D01*
X151200000Y-44300000D01*
X150400011Y-44300000D01*
X150297312Y-44310492D01*
X150297303Y-44310494D01*
X150130879Y-44365642D01*
X149981660Y-44457680D01*
X149857680Y-44581660D01*
X149765642Y-44730879D01*
X149710494Y-44897303D01*
X149710492Y-44897312D01*
X149700000Y-45000011D01*
X149700000Y-45163225D01*
X149680038Y-45237725D01*
X149625500Y-45292263D01*
X149551000Y-45312225D01*
X149476500Y-45292263D01*
X149445641Y-45268584D01*
X145252518Y-41075461D01*
X149700000Y-41075461D01*
X149700000Y-41324538D01*
X149732507Y-41571459D01*
X149796973Y-41812048D01*
X149892287Y-42042156D01*
X150002048Y-42232265D01*
X150953367Y-41280946D01*
X150974979Y-41389598D01*
X151023978Y-41507890D01*
X151095112Y-41614351D01*
X151185649Y-41704888D01*
X151292110Y-41776022D01*
X151410402Y-41825021D01*
X151519052Y-41846632D01*
X150567733Y-42797950D01*
X150757849Y-42907714D01*
X150987951Y-43003026D01*
X151228540Y-43067492D01*
X151475461Y-43099999D01*
X151475467Y-43100000D01*
X151724533Y-43100000D01*
X151724538Y-43099999D01*
X151971459Y-43067492D01*
X152212048Y-43003026D01*
X152442150Y-42907714D01*
X152632265Y-42797950D01*
X151680947Y-41846632D01*
X151789598Y-41825021D01*
X151907890Y-41776022D01*
X152014351Y-41704888D01*
X152104888Y-41614351D01*
X152176022Y-41507890D01*
X152225021Y-41389598D01*
X152246632Y-41280947D01*
X153197950Y-42232265D01*
X153307714Y-42042150D01*
X153403026Y-41812048D01*
X153467492Y-41571459D01*
X153499999Y-41324538D01*
X153500000Y-41324533D01*
X153500000Y-41075467D01*
X153499999Y-41075461D01*
X153467492Y-40828540D01*
X153403026Y-40587951D01*
X153307714Y-40357849D01*
X153197950Y-40167733D01*
X152246632Y-41119051D01*
X152225021Y-41010402D01*
X152176022Y-40892110D01*
X152104888Y-40785649D01*
X152014351Y-40695112D01*
X151907890Y-40623978D01*
X151789598Y-40574979D01*
X151680946Y-40553366D01*
X152632265Y-39602048D01*
X152442156Y-39492287D01*
X152212048Y-39396973D01*
X151971459Y-39332507D01*
X151724538Y-39300000D01*
X151475461Y-39300000D01*
X151228540Y-39332507D01*
X150987951Y-39396973D01*
X150757843Y-39492287D01*
X150567733Y-39602048D01*
X151519052Y-40553367D01*
X151410402Y-40574979D01*
X151292110Y-40623978D01*
X151185649Y-40695112D01*
X151095112Y-40785649D01*
X151023978Y-40892110D01*
X150974979Y-41010402D01*
X150953367Y-41119052D01*
X150002048Y-40167733D01*
X149892287Y-40357843D01*
X149796973Y-40587951D01*
X149732507Y-40828540D01*
X149700000Y-41075461D01*
X145252518Y-41075461D01*
X117352441Y-13175384D01*
X117313877Y-13108589D01*
X117308800Y-13070025D01*
X117308800Y-11499499D01*
X117328762Y-11424999D01*
X117383300Y-11370461D01*
X117457800Y-11350499D01*
X118757864Y-11350499D01*
X118757872Y-11350499D01*
X118817483Y-11344091D01*
X118950996Y-11294294D01*
X118952329Y-11293797D01*
X118952333Y-11293795D01*
X119009938Y-11250671D01*
X119067546Y-11207546D01*
X119110671Y-11149938D01*
X119153795Y-11092333D01*
X119153797Y-11092329D01*
X119182596Y-11015114D01*
X119204091Y-10957483D01*
X119210500Y-10897873D01*
X119210499Y-9102128D01*
X119204091Y-9042517D01*
X119177005Y-8969895D01*
X119153797Y-8907670D01*
X119153795Y-8907666D01*
X119067547Y-8792455D01*
X119067544Y-8792452D01*
X118952333Y-8706204D01*
X118952329Y-8706202D01*
X118817482Y-8655908D01*
X118757885Y-8649500D01*
X118757873Y-8649500D01*
X118676097Y-8649500D01*
X118601597Y-8629538D01*
X118547059Y-8575000D01*
X118536516Y-8550678D01*
X118536381Y-8550734D01*
X118480779Y-8416497D01*
X118480769Y-8416479D01*
X118452578Y-8374288D01*
X118452578Y-8374289D01*
X118404114Y-8301757D01*
X116961343Y-6858986D01*
X116846611Y-6782325D01*
X116846608Y-6782323D01*
X116846602Y-6782320D01*
X116719129Y-6729520D01*
X116719127Y-6729519D01*
X116583797Y-6702600D01*
X116583794Y-6702600D01*
X116583793Y-6702600D01*
X106050694Y-6702600D01*
X105912707Y-6702600D01*
X105777374Y-6729519D01*
X105777370Y-6729520D01*
X105649897Y-6782320D01*
X105649884Y-6782328D01*
X105535158Y-6858985D01*
X105535153Y-6858989D01*
X103546021Y-8848120D01*
X103479226Y-8886684D01*
X103402098Y-8886684D01*
X103353084Y-8863306D01*
X103327822Y-8844953D01*
X103327817Y-8844950D01*
X103327818Y-8844950D01*
X103327816Y-8844949D01*
X103138412Y-8748443D01*
X102936243Y-8682754D01*
X102726287Y-8649500D01*
X102513713Y-8649500D01*
X102338749Y-8677211D01*
X102303756Y-8682754D01*
X102101594Y-8748441D01*
X102101588Y-8748443D01*
X102101582Y-8748445D01*
X102101582Y-8748446D01*
X101912182Y-8844950D01*
X101912181Y-8844950D01*
X101740209Y-8969895D01*
X101740206Y-8969897D01*
X101589897Y-9120206D01*
X101589895Y-9120209D01*
X101470544Y-9284482D01*
X101410604Y-9333020D01*
X101334425Y-9345086D01*
X101262420Y-9317446D01*
X101229456Y-9284482D01*
X101136066Y-9155942D01*
X101110104Y-9120208D01*
X100959792Y-8969896D01*
X100787816Y-8844949D01*
X100598412Y-8748443D01*
X100396243Y-8682754D01*
X100186287Y-8649500D01*
X99973713Y-8649500D01*
X99798749Y-8677211D01*
X99763756Y-8682754D01*
X99561594Y-8748441D01*
X99561588Y-8748443D01*
X99561582Y-8748445D01*
X99561582Y-8748446D01*
X99372182Y-8844950D01*
X99372181Y-8844950D01*
X99200209Y-8969895D01*
X99200206Y-8969897D01*
X99049897Y-9120206D01*
X99049895Y-9120209D01*
X98930544Y-9284482D01*
X98870604Y-9333020D01*
X98794425Y-9345086D01*
X98722420Y-9317446D01*
X98689456Y-9284482D01*
X98596066Y-9155942D01*
X98570104Y-9120208D01*
X98419792Y-8969896D01*
X98247816Y-8844949D01*
X98058412Y-8748443D01*
X97856243Y-8682754D01*
X97646287Y-8649500D01*
X97433713Y-8649500D01*
X97337757Y-8664698D01*
X97289809Y-8672292D01*
X97213103Y-8664229D01*
X97161142Y-8630485D01*
X96695946Y-8165289D01*
X96695943Y-8165286D01*
X96581211Y-8088625D01*
X96581208Y-8088623D01*
X96581202Y-8088620D01*
X96453729Y-8035820D01*
X96453727Y-8035819D01*
X96318397Y-8008900D01*
X96318394Y-8008900D01*
X96318393Y-8008900D01*
X86349000Y-8008900D01*
X86274500Y-7988938D01*
X86219962Y-7934400D01*
X86200000Y-7859900D01*
X86200000Y-5699000D01*
X86219962Y-5624500D01*
X86274500Y-5569962D01*
X86349000Y-5550000D01*
X157351000Y-5550000D01*
X157425500Y-5569962D01*
G37*
%TD.AperFunction*%
%TD*%
M02*
