M48
; DRILL file KiCad 10.0.0 date 2026-03-30T17:00:35
; FORMAT={-:-/ absolute / metric / decimal}
; #@! TF.CreationDate,2026-03-30T17:00:35-04:00
; #@! TF.GenerationSoftware,Kicad,Pcbnew,10.0.0
; #@! TF.FileFunction,MixedPlating,1,2
FMAT,2
METRIC
; #@! TA.AperFunction,Plated,PTH,ViaDrill
T1C0.300
; #@! TA.AperFunction,Plated,PTH,ComponentDrill
T2C1.000
; #@! TA.AperFunction,Plated,PTH,ComponentDrill
T3C1.300
; #@! TA.AperFunction,Plated,PTH,ComponentDrill
T4C1.500
%
G90
G05
T1
X41.0Y-8.088
X80.739Y-12.684
X87.138Y-14.181
X87.138Y-147.025
X90.902Y-18.408
X106.701Y-18.408
X107.458Y-12.426
X107.458Y-138.052
X108.972Y-149.22
T2
X28.0Y-22.19
X28.0Y-24.73
X28.0Y-27.27
X28.0Y-29.81
X28.0Y-52.19
X28.0Y-54.73
X28.0Y-57.27
X28.0Y-59.81
X28.0Y-82.19
X28.0Y-84.73
X28.0Y-87.27
X28.0Y-89.81
X28.0Y-112.19
X28.0Y-114.73
X28.0Y-117.27
X28.0Y-119.81
X28.0Y-142.19
X28.0Y-144.73
X28.0Y-147.27
X28.0Y-149.81
X41.0Y-152.0
X43.54Y-152.0
X46.08Y-152.0
X53.0Y-152.0
X55.54Y-152.0
X58.08Y-152.0
X65.0Y-152.0
X67.54Y-152.0
X70.08Y-152.0
X72.14Y-10.0
X74.68Y-10.0
X77.0Y-152.0
X77.22Y-10.0
X79.54Y-152.0
X79.76Y-10.0
X82.08Y-152.0
X82.3Y-10.0
X84.84Y-10.0
X87.38Y-10.0
X89.0Y-138.0
X89.0Y-152.0
X89.92Y-10.0
X91.54Y-138.0
X91.54Y-152.0
X92.46Y-10.0
X94.08Y-138.0
X94.08Y-152.0
X95.0Y-10.0
X97.54Y-10.0
X100.08Y-10.0
X101.0Y-138.0
X101.0Y-152.0
X102.62Y-10.0
X103.54Y-138.0
X103.54Y-152.0
X105.16Y-10.0
X106.08Y-138.0
X106.08Y-152.0
X107.7Y-10.0
X110.24Y-10.0
X112.78Y-10.0
X113.0Y-152.0
X115.32Y-10.0
X115.54Y-152.0
X117.86Y-10.0
X118.08Y-152.0
X125.0Y-152.0
X127.54Y-152.0
X130.08Y-152.0
X137.0Y-152.0
X139.54Y-152.0
X142.08Y-152.0
X149.0Y-152.0
X151.54Y-152.0
X154.08Y-152.0
T3
X10.0Y-15.0
X10.0Y-20.0
X10.0Y-27.0
X10.0Y-32.0
X10.0Y-45.0
X10.0Y-50.0
X10.0Y-57.0
X10.0Y-62.0
X10.0Y-75.0
X10.0Y-80.0
X10.0Y-87.0
X10.0Y-92.0
X10.0Y-105.0
X10.0Y-110.0
X10.0Y-117.0
X10.0Y-122.0
X10.0Y-135.0
X10.0Y-140.0
X10.0Y-147.0
X10.0Y-152.0
X172.0Y-40.0
X172.0Y-45.0
X172.0Y-52.0
X172.0Y-57.0
X172.0Y-68.0
X172.0Y-73.0
X172.0Y-80.0
X172.0Y-85.0
X172.0Y-96.0
X172.0Y-101.0
X172.0Y-108.0
X172.0Y-113.0
T4
X46.685Y-48.0
X46.685Y-64.0
X46.685Y-80.0
X46.685Y-96.0
X46.685Y-112.0
X69.315Y-48.0
X69.315Y-64.0
X69.315Y-80.0
X69.315Y-96.0
X69.315Y-112.0
X94.685Y-48.0
X94.685Y-64.0
X94.685Y-80.0
X94.685Y-96.0
X94.685Y-112.0
X117.315Y-48.0
X117.315Y-64.0
X117.315Y-80.0
X117.315Y-96.0
X117.315Y-112.0
M30
