%TF.GenerationSoftware,KiCad,Pcbnew,10.0.0*%
%TF.CreationDate,2026-03-30T18:06:58-04:00*%
%TF.ProjectId,geodude-carrier,67656f64-7564-4652-9d63-617272696572,rev?*%
%TF.SameCoordinates,Original*%
%TF.FileFunction,Soldermask,Top*%
%TF.FilePolarity,Negative*%
%FSLAX46Y46*%
G04 Gerber Fmt 4.6, Leading zero omitted, Abs format (unit mm)*
G04 Created by KiCad (PCBNEW 10.0.0) date 2026-03-30 18:06:58*
%MOMM*%
%LPD*%
G01*
G04 APERTURE LIST*
G04 Aperture macros list*
%AMRoundRect*
0 Rectangle with rounded corners*
0 $1 Rounding radius*
0 $2 $3 $4 $5 $6 $7 $8 $9 X,Y pos of 4 corners*
0 Add a 4 corners polygon primitive as box body*
4,1,4,$2,$3,$4,$5,$6,$7,$8,$9,$2,$3,0*
0 Add four circle primitives for the rounded corners*
1,1,$1+$1,$2,$3*
1,1,$1+$1,$4,$5*
1,1,$1+$1,$6,$7*
1,1,$1+$1,$8,$9*
0 Add four rect primitives between the rounded corners*
20,1,$1+$1,$2,$3,$4,$5,0*
20,1,$1+$1,$4,$5,$6,$7,0*
20,1,$1+$1,$6,$7,$8,$9,0*
20,1,$1+$1,$8,$9,$2,$3,0*%
G04 Aperture macros list end*
%ADD10C,2.800000*%
%ADD11R,1.700000X1.700000*%
%ADD12C,1.700000*%
%ADD13RoundRect,0.250001X1.149999X-1.149999X1.149999X1.149999X-1.149999X1.149999X-1.149999X-1.149999X0*%
%ADD14C,3.200000*%
G04 APERTURE END LIST*
D10*
%TO.C,F2*%
X83185000Y-58900000D03*
X105385000Y-58900000D03*
%TD*%
D11*
%TO.C,SV4*%
X85220000Y-124300000D03*
D12*
X87760000Y-124300000D03*
X90300000Y-124300000D03*
%TD*%
D10*
%TO.C,F6*%
X46685000Y-43900000D03*
X68885000Y-43900000D03*
%TD*%
D11*
%TO.C,SV2*%
X61220000Y-124300000D03*
D12*
X63760000Y-124300000D03*
X66300000Y-124300000D03*
%TD*%
D13*
%TO.C,J4*%
X122900000Y-107000000D03*
D10*
X122900000Y-102000000D03*
%TD*%
D11*
%TO.C,SV6*%
X48960000Y-132500000D03*
D12*
X51500000Y-132500000D03*
X54040000Y-132500000D03*
%TD*%
D11*
%TO.C,J41*%
X35300000Y-39060000D03*
D12*
X35300000Y-41600000D03*
X35300000Y-44140000D03*
X35300000Y-46680000D03*
%TD*%
D13*
%TO.C,J2*%
X122900000Y-59000000D03*
D10*
X122900000Y-54000000D03*
%TD*%
D13*
%TO.C,J34*%
X24600000Y-62400000D03*
D10*
X24600000Y-57400000D03*
%TD*%
D13*
%TO.C,J35*%
X24600000Y-74400000D03*
D10*
X24600000Y-69400000D03*
%TD*%
D13*
%TO.C,J32*%
X24600000Y-38400000D03*
D10*
X24600000Y-33400000D03*
%TD*%
D11*
%TO.C,SV1*%
X49220000Y-124300000D03*
D12*
X51760000Y-124300000D03*
X54300000Y-124300000D03*
%TD*%
D11*
%TO.C,J_ESC*%
X116460000Y-124700000D03*
D12*
X119000000Y-124700000D03*
X121540000Y-124700000D03*
%TD*%
D11*
%TO.C,SV3*%
X73220000Y-124300000D03*
D12*
X75760000Y-124300000D03*
X78300000Y-124300000D03*
%TD*%
D14*
%TO.C,MH3*%
X21800000Y-135800000D03*
%TD*%
D13*
%TO.C,J37*%
X24600000Y-86400000D03*
D10*
X24600000Y-81400000D03*
%TD*%
D11*
%TO.C,J44*%
X36200000Y-109790000D03*
D12*
X36200000Y-112330000D03*
X36200000Y-114870000D03*
X36200000Y-117410000D03*
%TD*%
D11*
%TO.C,SV10*%
X96780000Y-133200000D03*
D12*
X99320000Y-133200000D03*
X101860000Y-133200000D03*
%TD*%
D11*
%TO.C,SV7*%
X60960000Y-132500000D03*
D12*
X63500000Y-132500000D03*
X66040000Y-132500000D03*
%TD*%
D10*
%TO.C,F7*%
X46685000Y-58900000D03*
X68885000Y-58900000D03*
%TD*%
D13*
%TO.C,J1*%
X122900000Y-47000000D03*
D10*
X122900000Y-42000000D03*
%TD*%
D14*
%TO.C,MH1*%
X21800000Y-8600000D03*
%TD*%
D13*
%TO.C,J36*%
X24600000Y-98400000D03*
D10*
X24600000Y-93400000D03*
%TD*%
D11*
%TO.C,SV9*%
X84960000Y-132500000D03*
D12*
X87500000Y-132500000D03*
X90040000Y-132500000D03*
%TD*%
D11*
%TO.C,SV5*%
X97220000Y-124300000D03*
D12*
X99760000Y-124300000D03*
X102300000Y-124300000D03*
%TD*%
D11*
%TO.C,J43*%
X36400000Y-85390000D03*
D12*
X36400000Y-87930000D03*
X36400000Y-90470000D03*
X36400000Y-93010000D03*
%TD*%
D13*
%TO.C,J39*%
X24600000Y-110400000D03*
D10*
X24600000Y-105400000D03*
%TD*%
D11*
%TO.C,SV8*%
X72960000Y-132500000D03*
D12*
X75500000Y-132500000D03*
X78040000Y-132500000D03*
%TD*%
D11*
%TO.C,J40*%
X34900000Y-14460000D03*
D12*
X34900000Y-17000000D03*
X34900000Y-19540000D03*
X34900000Y-22080000D03*
%TD*%
D13*
%TO.C,J6*%
X122900000Y-83000000D03*
D10*
X122900000Y-78000000D03*
%TD*%
%TO.C,F4*%
X83185000Y-88900000D03*
X105385000Y-88900000D03*
%TD*%
D14*
%TO.C,MH2*%
X126300000Y-8600000D03*
%TD*%
D10*
%TO.C,F3*%
X83185000Y-73900000D03*
X105385000Y-73900000D03*
%TD*%
D13*
%TO.C,J5*%
X122900000Y-71000000D03*
D10*
X122900000Y-66000000D03*
%TD*%
D13*
%TO.C,J31*%
X24600000Y-14400000D03*
D10*
X24600000Y-9400000D03*
%TD*%
%TO.C,F5*%
X83185000Y-103900000D03*
X105385000Y-103900000D03*
%TD*%
%TO.C,F9*%
X46685000Y-88900000D03*
X68885000Y-88900000D03*
%TD*%
D11*
%TO.C,J42*%
X36100000Y-62260000D03*
D12*
X36100000Y-64800000D03*
X36100000Y-67340000D03*
X36100000Y-69880000D03*
%TD*%
D13*
%TO.C,J38*%
X24600000Y-122400000D03*
D10*
X24600000Y-117400000D03*
%TD*%
D13*
%TO.C,J33*%
X24600000Y-50400000D03*
D10*
X24600000Y-45400000D03*
%TD*%
D14*
%TO.C,MH4*%
X126300000Y-135800000D03*
%TD*%
D13*
%TO.C,J3*%
X122900000Y-95000000D03*
D10*
X122900000Y-90000000D03*
%TD*%
%TO.C,F8*%
X46685000Y-73900000D03*
X68885000Y-73900000D03*
%TD*%
D11*
%TO.C,J_FAN*%
X116440000Y-133100000D03*
D12*
X118980000Y-133100000D03*
X121520000Y-133100000D03*
%TD*%
D11*
%TO.C,J_PCA*%
X98260000Y-7900000D03*
D12*
X95720000Y-7900000D03*
X93180000Y-7900000D03*
X90640000Y-7900000D03*
X88100000Y-7900000D03*
X85560000Y-7900000D03*
X83020000Y-7900000D03*
X80480000Y-7900000D03*
X77940000Y-7900000D03*
X75400000Y-7900000D03*
X72860000Y-7900000D03*
X70320000Y-7900000D03*
X67780000Y-7900000D03*
X65240000Y-7900000D03*
X62700000Y-7900000D03*
X60160000Y-7900000D03*
X57620000Y-7900000D03*
X55080000Y-7900000D03*
X52540000Y-7900000D03*
%TD*%
D13*
%TO.C,J30*%
X24600000Y-26400000D03*
D10*
X24600000Y-21400000D03*
%TD*%
%TO.C,F1*%
X83185000Y-43900000D03*
X105385000Y-43900000D03*
%TD*%
%TO.C,F10*%
X46685000Y-103900000D03*
X68885000Y-103900000D03*
%TD*%
M02*
