%TF.GenerationSoftware,KiCad,Pcbnew,10.0.0*%
%TF.CreationDate,2026-03-30T17:41:24-04:00*%
%TF.ProjectId,geodude-carrier,67656f64-7564-4652-9d63-617272696572,rev?*%
%TF.SameCoordinates,Original*%
%TF.FileFunction,Copper,L1,Top*%
%TF.FilePolarity,Positive*%
%FSLAX46Y46*%
G04 Gerber Fmt 4.6, Leading zero omitted, Abs format (unit mm)*
G04 Created by KiCad (PCBNEW 10.0.0) date 2026-03-30 17:41:24*
%MOMM*%
%LPD*%
G01*
G04 APERTURE LIST*
G04 Aperture macros list*
%AMRoundRect*
0 Rectangle with rounded corners*
0 $1 Rounding radius*
0 $2 $3 $4 $5 $6 $7 $8 $9 X,Y pos of 4 corners*
0 Add a 4 corners polygon primitive as box body*
4,1,4,$2,$3,$4,$5,$6,$7,$8,$9,$2,$3,0*
0 Add four circle primitives for the rounded corners*
1,1,$1+$1,$2,$3*
1,1,$1+$1,$4,$5*
1,1,$1+$1,$6,$7*
1,1,$1+$1,$8,$9*
0 Add four rect primitives between the rounded corners*
20,1,$1+$1,$2,$3,$4,$5,0*
20,1,$1+$1,$4,$5,$6,$7,0*
20,1,$1+$1,$6,$7,$8,$9,0*
20,1,$1+$1,$8,$9,$2,$3,0*%
G04 Aperture macros list end*
%TA.AperFunction,ComponentPad*%
%ADD10C,2.800000*%
%TD*%
%TA.AperFunction,ComponentPad*%
%ADD11R,1.700000X1.700000*%
%TD*%
%TA.AperFunction,ComponentPad*%
%ADD12C,1.700000*%
%TD*%
%TA.AperFunction,ComponentPad*%
%ADD13RoundRect,0.250001X1.149999X-1.149999X1.149999X1.149999X-1.149999X1.149999X-1.149999X-1.149999X0*%
%TD*%
%TA.AperFunction,ViaPad*%
%ADD14C,0.600000*%
%TD*%
%TA.AperFunction,Conductor*%
%ADD15C,3.000000*%
%TD*%
%TA.AperFunction,Conductor*%
%ADD16C,1.699800*%
%TD*%
%TA.AperFunction,Conductor*%
%ADD17C,2.000000*%
%TD*%
%TA.AperFunction,Conductor*%
%ADD18C,0.400000*%
%TD*%
%TA.AperFunction,Conductor*%
%ADD19C,1.000000*%
%TD*%
%TA.AperFunction,Conductor*%
%ADD20C,0.600000*%
%TD*%
%TA.AperFunction,Conductor*%
%ADD21C,1.500000*%
%TD*%
G04 APERTURE END LIST*
D10*
%TO.P,F2,1*%
%TO.N,+12V*%
X82970000Y-58900000D03*
%TO.P,F2,2*%
%TO.N,SV2_PWR*%
X105600000Y-58900000D03*
%TD*%
D11*
%TO.P,SV4,1*%
%TO.N,PWM_CH3*%
X85220000Y-124300000D03*
D12*
%TO.P,SV4,2*%
%TO.N,SV4_PWR*%
X87760000Y-124300000D03*
%TO.P,SV4,3*%
%TO.N,GND*%
X90300000Y-124300000D03*
%TD*%
D10*
%TO.P,F6,1*%
%TO.N,+12V*%
X46470000Y-43900000D03*
%TO.P,F6,2*%
%TO.N,SV6_PWR*%
X69100000Y-43900000D03*
%TD*%
D11*
%TO.P,SV2,1*%
%TO.N,PWM_CH1*%
X61220000Y-124300000D03*
D12*
%TO.P,SV2,2*%
%TO.N,SV2_PWR*%
X63760000Y-124300000D03*
%TO.P,SV2,3*%
%TO.N,GND*%
X66300000Y-124300000D03*
%TD*%
D13*
%TO.P,J4,1*%
%TO.N,GND*%
X122900000Y-107000000D03*
D10*
%TO.P,J4,2*%
X122900000Y-102000000D03*
%TD*%
D11*
%TO.P,SV6,1*%
%TO.N,PWM_CH5*%
X48960000Y-132500000D03*
D12*
%TO.P,SV6,2*%
%TO.N,SV6_PWR*%
X51500000Y-132500000D03*
%TO.P,SV6,3*%
%TO.N,GND*%
X54040000Y-132500000D03*
%TD*%
D11*
%TO.P,J41,1*%
%TO.N,SDA*%
X35300000Y-39060000D03*
D12*
%TO.P,J41,2*%
X35300000Y-41600000D03*
%TO.P,J41,3*%
X35300000Y-44140000D03*
%TO.P,J41,4*%
X35300000Y-46680000D03*
%TD*%
D13*
%TO.P,J2,1*%
%TO.N,+12V*%
X122900000Y-59000000D03*
D10*
%TO.P,J2,2*%
X122900000Y-54000000D03*
%TD*%
D13*
%TO.P,J34,1*%
%TO.N,+3V3*%
X24600000Y-62400000D03*
D10*
%TO.P,J34,2*%
X24600000Y-57400000D03*
%TD*%
D13*
%TO.P,J35,1*%
%TO.N,+3V3*%
X24600000Y-74400000D03*
D10*
%TO.P,J35,2*%
X24600000Y-69400000D03*
%TD*%
D13*
%TO.P,J32,1*%
%TO.N,SDA*%
X24600000Y-38400000D03*
D10*
%TO.P,J32,2*%
X24600000Y-33400000D03*
%TD*%
D11*
%TO.P,SV1,1*%
%TO.N,PWM_CH0*%
X49220000Y-124300000D03*
D12*
%TO.P,SV1,2*%
%TO.N,SV1_PWR*%
X51760000Y-124300000D03*
%TO.P,SV1,3*%
%TO.N,GND*%
X54300000Y-124300000D03*
%TD*%
D11*
%TO.P,J_ESC,1*%
%TO.N,PWM_CH11*%
X116460000Y-124700000D03*
D12*
%TO.P,J_ESC,2*%
%TO.N,N/C*%
X119000000Y-124700000D03*
%TO.P,J_ESC,3*%
%TO.N,GND*%
X121540000Y-124700000D03*
%TD*%
D11*
%TO.P,SV3,1*%
%TO.N,PWM_CH2*%
X73220000Y-124300000D03*
D12*
%TO.P,SV3,2*%
%TO.N,SV3_PWR*%
X75760000Y-124300000D03*
%TO.P,SV3,3*%
%TO.N,GND*%
X78300000Y-124300000D03*
%TD*%
D13*
%TO.P,J37,1*%
%TO.N,+5V_LOGIC*%
X24600000Y-86400000D03*
D10*
%TO.P,J37,2*%
X24600000Y-81400000D03*
%TD*%
D11*
%TO.P,J44,1*%
%TO.N,GND_LOGIC*%
X36200000Y-109790000D03*
D12*
%TO.P,J44,2*%
X36200000Y-112330000D03*
%TO.P,J44,3*%
X36200000Y-114870000D03*
%TO.P,J44,4*%
X36200000Y-117410000D03*
%TD*%
D11*
%TO.P,SV10,1*%
%TO.N,PWM_CH9*%
X96780000Y-133200000D03*
D12*
%TO.P,SV10,2*%
%TO.N,SV10_PWR*%
X99320000Y-133200000D03*
%TO.P,SV10,3*%
%TO.N,GND*%
X101860000Y-133200000D03*
%TD*%
D11*
%TO.P,SV7,1*%
%TO.N,PWM_CH6*%
X60960000Y-132500000D03*
D12*
%TO.P,SV7,2*%
%TO.N,SV7_PWR*%
X63500000Y-132500000D03*
%TO.P,SV7,3*%
%TO.N,GND*%
X66040000Y-132500000D03*
%TD*%
D10*
%TO.P,F7,1*%
%TO.N,+12V*%
X46470000Y-58900000D03*
%TO.P,F7,2*%
%TO.N,SV7_PWR*%
X69100000Y-58900000D03*
%TD*%
D13*
%TO.P,J1,1*%
%TO.N,+12V*%
X122900000Y-47000000D03*
D10*
%TO.P,J1,2*%
X122900000Y-42000000D03*
%TD*%
D13*
%TO.P,J36,1*%
%TO.N,+5V_LOGIC*%
X24600000Y-98400000D03*
D10*
%TO.P,J36,2*%
X24600000Y-93400000D03*
%TD*%
D11*
%TO.P,SV9,1*%
%TO.N,PWM_CH8*%
X84960000Y-132500000D03*
D12*
%TO.P,SV9,2*%
%TO.N,SV9_PWR*%
X87500000Y-132500000D03*
%TO.P,SV9,3*%
%TO.N,GND*%
X90040000Y-132500000D03*
%TD*%
D11*
%TO.P,SV5,1*%
%TO.N,PWM_CH4*%
X97220000Y-124300000D03*
D12*
%TO.P,SV5,2*%
%TO.N,SV5_PWR*%
X99760000Y-124300000D03*
%TO.P,SV5,3*%
%TO.N,GND*%
X102300000Y-124300000D03*
%TD*%
D11*
%TO.P,J43,1*%
%TO.N,+5V_LOGIC*%
X36400000Y-85390000D03*
D12*
%TO.P,J43,2*%
X36400000Y-87930000D03*
%TO.P,J43,3*%
X36400000Y-90470000D03*
%TO.P,J43,4*%
X36400000Y-93010000D03*
%TD*%
D13*
%TO.P,J39,1*%
%TO.N,GND_LOGIC*%
X24600000Y-110400000D03*
D10*
%TO.P,J39,2*%
X24600000Y-105400000D03*
%TD*%
D11*
%TO.P,SV8,1*%
%TO.N,PWM_CH7*%
X72960000Y-132500000D03*
D12*
%TO.P,SV8,2*%
%TO.N,SV8_PWR*%
X75500000Y-132500000D03*
%TO.P,SV8,3*%
%TO.N,GND*%
X78040000Y-132500000D03*
%TD*%
D11*
%TO.P,J40,1*%
%TO.N,SCL*%
X34900000Y-14460000D03*
D12*
%TO.P,J40,2*%
X34900000Y-17000000D03*
%TO.P,J40,3*%
X34900000Y-19540000D03*
%TO.P,J40,4*%
X34900000Y-22080000D03*
%TD*%
D13*
%TO.P,J6,1*%
%TO.N,+5V_SERVO*%
X122900000Y-83000000D03*
D10*
%TO.P,J6,2*%
X122900000Y-78000000D03*
%TD*%
%TO.P,F4,1*%
%TO.N,+5V_SERVO*%
X82970000Y-88900000D03*
%TO.P,F4,2*%
%TO.N,SV4_PWR*%
X105600000Y-88900000D03*
%TD*%
%TO.P,F3,1*%
%TO.N,+7V4*%
X82970000Y-73900000D03*
%TO.P,F3,2*%
%TO.N,SV3_PWR*%
X105600000Y-73900000D03*
%TD*%
D13*
%TO.P,J5,1*%
%TO.N,+7V4*%
X122900000Y-71000000D03*
D10*
%TO.P,J5,2*%
X122900000Y-66000000D03*
%TD*%
D13*
%TO.P,J31,1*%
%TO.N,SCL*%
X24600000Y-14400000D03*
D10*
%TO.P,J31,2*%
X24600000Y-9400000D03*
%TD*%
%TO.P,F5,1*%
%TO.N,+5V_SERVO*%
X82970000Y-103900000D03*
%TO.P,F5,2*%
%TO.N,SV5_PWR*%
X105600000Y-103900000D03*
%TD*%
%TO.P,F9,1*%
%TO.N,+5V_SERVO*%
X46470000Y-88900000D03*
%TO.P,F9,2*%
%TO.N,SV9_PWR*%
X69100000Y-88900000D03*
%TD*%
D11*
%TO.P,J42,1*%
%TO.N,+3V3*%
X36100000Y-62260000D03*
D12*
%TO.P,J42,2*%
X36100000Y-64800000D03*
%TO.P,J42,3*%
X36100000Y-67340000D03*
%TO.P,J42,4*%
X36100000Y-69880000D03*
%TD*%
D13*
%TO.P,J38,1*%
%TO.N,GND_LOGIC*%
X24600000Y-122400000D03*
D10*
%TO.P,J38,2*%
X24600000Y-117400000D03*
%TD*%
D13*
%TO.P,J33,1*%
%TO.N,SDA*%
X24600000Y-50400000D03*
D10*
%TO.P,J33,2*%
X24600000Y-45400000D03*
%TD*%
D13*
%TO.P,J3,1*%
%TO.N,GND*%
X122900000Y-95000000D03*
D10*
%TO.P,J3,2*%
X122900000Y-90000000D03*
%TD*%
%TO.P,F8,1*%
%TO.N,+7V4*%
X46470000Y-73900000D03*
%TO.P,F8,2*%
%TO.N,SV8_PWR*%
X69100000Y-73900000D03*
%TD*%
D11*
%TO.P,J_FAN,1*%
%TO.N,PWM_CH12*%
X116440000Y-133100000D03*
D12*
%TO.P,J_FAN,2*%
%TO.N,+12V*%
X118980000Y-133100000D03*
%TO.P,J_FAN,3*%
%TO.N,GND*%
X121520000Y-133100000D03*
%TD*%
D11*
%TO.P,J_PCA,1*%
%TO.N,PWM_CH0*%
X98260000Y-7900000D03*
D12*
%TO.P,J_PCA,2*%
%TO.N,PWM_CH1*%
X95720000Y-7900000D03*
%TO.P,J_PCA,3*%
%TO.N,PWM_CH2*%
X93180000Y-7900000D03*
%TO.P,J_PCA,4*%
%TO.N,PWM_CH3*%
X90640000Y-7900000D03*
%TO.P,J_PCA,5*%
%TO.N,N/C*%
X88100000Y-7900000D03*
%TO.P,J_PCA,6*%
%TO.N,PWM_CH4*%
X85560000Y-7900000D03*
%TO.P,J_PCA,7*%
%TO.N,PWM_CH5*%
X83020000Y-7900000D03*
%TO.P,J_PCA,8*%
%TO.N,PWM_CH6*%
X80480000Y-7900000D03*
%TO.P,J_PCA,9*%
%TO.N,PWM_CH7*%
X77940000Y-7900000D03*
%TO.P,J_PCA,10*%
%TO.N,N/C*%
X75400000Y-7900000D03*
%TO.P,J_PCA,11*%
%TO.N,PWM_CH8*%
X72860000Y-7900000D03*
%TO.P,J_PCA,12*%
%TO.N,PWM_CH9*%
X70320000Y-7900000D03*
%TO.P,J_PCA,13*%
%TO.N,PWM_CH10*%
X67780000Y-7900000D03*
%TO.P,J_PCA,14*%
%TO.N,PWM_CH11*%
X65240000Y-7900000D03*
%TO.P,J_PCA,15*%
%TO.N,N/C*%
X62700000Y-7900000D03*
%TO.P,J_PCA,16*%
%TO.N,PWM_CH12*%
X60160000Y-7900000D03*
%TO.P,J_PCA,17*%
%TO.N,PWM_CH13*%
X57620000Y-7900000D03*
%TO.P,J_PCA,18*%
%TO.N,PWM_CH14*%
X55080000Y-7900000D03*
%TO.P,J_PCA,19*%
%TO.N,PWM_CH15*%
X52540000Y-7900000D03*
%TD*%
D13*
%TO.P,J30,1*%
%TO.N,SCL*%
X24600000Y-26400000D03*
D10*
%TO.P,J30,2*%
X24600000Y-21400000D03*
%TD*%
%TO.P,F1,1*%
%TO.N,+12V*%
X82970000Y-43900000D03*
%TO.P,F1,2*%
%TO.N,SV1_PWR*%
X105600000Y-43900000D03*
%TD*%
%TO.P,F10,1*%
%TO.N,+5V_SERVO*%
X46470000Y-103900000D03*
%TO.P,F10,2*%
%TO.N,SV10_PWR*%
X69100000Y-103900000D03*
%TD*%
D14*
%TO.N,+12V*%
X118980000Y-129597700D03*
%TO.N,SV2_PWR*%
X81961500Y-115256000D03*
%TO.N,PWM_CH3*%
X84720000Y-90432400D03*
X87182500Y-10959600D03*
X77507500Y-94275700D03*
X77507500Y-121154900D03*
%TO.N,PWM_CH1*%
X70519100Y-11615100D03*
%TO.N,PWM_CH5*%
X44531600Y-9568000D03*
X44531600Y-132251500D03*
%TO.N,PWM_CH0*%
X53024800Y-118623100D03*
X74868500Y-111936700D03*
%TO.N,SV1_PWR*%
X86922600Y-90184000D03*
%TO.N,PWM_CH11*%
X116460000Y-12354600D03*
%TO.N,PWM_CH9*%
X72579600Y-119870800D03*
%TO.N,PWM_CH6*%
X70695800Y-131258900D03*
X71220800Y-14801200D03*
%TO.N,PWM_CH8*%
X72829200Y-122446700D03*
%TO.N,SV9_PWR*%
X78509200Y-91332200D03*
%TO.N,PWM_CH7*%
X71965600Y-10758900D03*
%TO.N,PWM_CH12*%
X115208300Y-5444900D03*
%TD*%
%TO.N,+12V*%
D15*
X118980000Y-130548100D02*
X118980000Y-129597700D01*
X122900000Y-42000000D02*
X122900000Y-47000000D01*
X82970000Y-43900000D02*
X82970000Y-58900000D01*
X122900000Y-47000000D02*
X122900000Y-54000000D01*
D16*
X118980000Y-130548100D02*
X118980000Y-133100000D01*
D15*
X46470000Y-58900000D02*
X46470000Y-43900000D01*
X122900000Y-54000000D02*
X122900000Y-59000000D01*
%TO.N,SV2_PWR*%
D17*
X108269500Y-61569500D02*
X108269500Y-77907800D01*
X94290300Y-102927200D02*
X81961500Y-115256000D01*
X105600000Y-58900000D02*
X108269500Y-61569500D01*
X108269500Y-77907800D02*
X94290300Y-91887000D01*
X94290300Y-91887000D02*
X94290300Y-102927200D01*
%TO.N,PWM_CH3*%
D18*
X84987800Y-90164600D02*
X84720000Y-90432400D01*
X77507500Y-94275700D02*
X77507500Y-121154900D01*
X87182500Y-10959600D02*
X84987800Y-13154300D01*
X84987800Y-13154300D02*
X84987800Y-90164600D01*
%TO.N,SV4_PWR*%
D19*
X95992000Y-116068000D02*
X95992000Y-98508000D01*
X95992000Y-98508000D02*
X105600000Y-88900000D01*
X87760000Y-124300000D02*
X95992000Y-116068000D01*
%TO.N,GND*%
D15*
X78573100Y-131966900D02*
X78573300Y-131966700D01*
D16*
X121551900Y-124700000D02*
X121540000Y-124700000D01*
D15*
X122900000Y-123351900D02*
X121551900Y-124700000D01*
X102833100Y-132226900D02*
X102394500Y-132665500D01*
X122900000Y-107000000D02*
X122900000Y-123351900D01*
X54574500Y-131965500D02*
X54833100Y-131706900D01*
D16*
X66300000Y-124300000D02*
X66300000Y-132240000D01*
X90050200Y-132489800D02*
X90040000Y-132500000D01*
X102394500Y-132665500D02*
X101860000Y-133200000D01*
X90050200Y-130909800D02*
X90050200Y-132489800D01*
D15*
X121531900Y-133100000D02*
X121540000Y-133100000D01*
X122900000Y-102000000D02*
X122900000Y-107000000D01*
X122900000Y-90000000D02*
X122900000Y-95000000D01*
D16*
X54833100Y-124833100D02*
X54300000Y-124300000D01*
X54574500Y-131965500D02*
X54040000Y-132500000D01*
X90310200Y-130649800D02*
X90310200Y-124310200D01*
X121531900Y-133100000D02*
X121520000Y-133100000D01*
D15*
X90050200Y-130909800D02*
X90310200Y-130649800D01*
D16*
X78573300Y-124573300D02*
X78300000Y-124300000D01*
X78573100Y-131966900D02*
X78040000Y-132500000D01*
D15*
X122900000Y-95000000D02*
X122900000Y-102000000D01*
X102833100Y-124833100D02*
X102833100Y-132226900D01*
D16*
X121540000Y-133100000D02*
X121540000Y-124700000D01*
X66300000Y-132240000D02*
X66040000Y-132500000D01*
D15*
X54833100Y-131706900D02*
X54833100Y-124833100D01*
D16*
X90310200Y-124310200D02*
X90300000Y-124300000D01*
D15*
X78573300Y-131966700D02*
X78573300Y-124573300D01*
D16*
X102833100Y-124833100D02*
X102300000Y-124300000D01*
%TO.N,SV6_PWR*%
D17*
X47612200Y-134551700D02*
X46908300Y-133847800D01*
X51500000Y-133359500D02*
X50307800Y-134551700D01*
X59820600Y-53179400D02*
X69100000Y-43900000D01*
X51500000Y-132500000D02*
X51500000Y-133359500D01*
X50307800Y-134551700D02*
X47612200Y-134551700D01*
X59820600Y-94228800D02*
X59820600Y-53179400D01*
X46908300Y-107141100D02*
X59820600Y-94228800D01*
X46908300Y-133847800D02*
X46908300Y-107141100D01*
%TO.N,PWM_CH1*%
D18*
X65447900Y-66249100D02*
X70919900Y-60777100D01*
X65447900Y-118820400D02*
X65447900Y-66249100D01*
X61220000Y-123048300D02*
X65447900Y-118820400D01*
X70519100Y-15091700D02*
X70519100Y-11615100D01*
X61220000Y-124300000D02*
X61220000Y-123048300D01*
X70919900Y-60777100D02*
X70919900Y-15492500D01*
X70919900Y-15492500D02*
X70519100Y-15091700D01*
%TO.N,PWM_CH5*%
X44531600Y-132251500D02*
X44531600Y-9568000D01*
%TO.N,SDA*%
X35300000Y-46680000D02*
X35300000Y-44140000D01*
X35300000Y-41600000D02*
X35300000Y-39060000D01*
X35300000Y-44140000D02*
X35300000Y-41600000D01*
X24600000Y-45400000D02*
X24600000Y-38400000D01*
X24600000Y-50400000D02*
X24600000Y-45400000D01*
X24600000Y-33400000D02*
X24600000Y-38400000D01*
%TO.N,+3V3*%
D20*
X36100000Y-67340000D02*
X36100000Y-64800000D01*
X24600000Y-74400000D02*
X24600000Y-69400000D01*
X24600000Y-57400000D02*
X24600000Y-62400000D01*
X36100000Y-69880000D02*
X36100000Y-67340000D01*
X24600000Y-69400000D02*
X24600000Y-62400000D01*
X36100000Y-64800000D02*
X36100000Y-62260000D01*
%TO.N,PWM_CH0*%
D18*
X98260000Y-7900000D02*
X97008300Y-7900000D01*
X97008300Y-7900000D02*
X97008300Y-8447600D01*
X90084600Y-9158800D02*
X89370100Y-8444300D01*
X97008300Y-8447600D02*
X96297100Y-9158800D01*
X84290000Y-7359800D02*
X84290000Y-14250000D01*
X74868500Y-23671500D02*
X74868500Y-111936700D01*
X49220000Y-122427900D02*
X49220000Y-124300000D01*
X89370100Y-7374100D02*
X88613800Y-6617800D01*
X89370100Y-8444300D02*
X89370100Y-7374100D01*
X96297100Y-9158800D02*
X90084600Y-9158800D01*
X53024800Y-118623100D02*
X49220000Y-122427900D01*
X88613800Y-6617800D02*
X85032000Y-6617800D01*
X85032000Y-6617800D02*
X84290000Y-7359800D01*
X84290000Y-14250000D02*
X74868500Y-23671500D01*
%TO.N,SV1_PWR*%
D17*
X86922600Y-62577400D02*
X105600000Y-43900000D01*
X86922600Y-90184000D02*
X86922600Y-62577400D01*
%TO.N,PWM_CH11*%
D18*
X116460000Y-124700000D02*
X116460000Y-12354600D01*
%TO.N,PWM_CH2*%
X81750000Y-7387900D02*
X81750000Y-8447400D01*
X91296100Y-6016100D02*
X83121800Y-6016100D01*
X81750000Y-8447400D02*
X73928400Y-16269000D01*
X83121800Y-6016100D02*
X81750000Y-7387900D01*
X93180000Y-7900000D02*
X91296100Y-6016100D01*
X73928400Y-122339900D02*
X73220000Y-123048300D01*
X73928400Y-16269000D02*
X73928400Y-122339900D01*
X73220000Y-124300000D02*
X73220000Y-123048300D01*
%TO.N,SV3_PWR*%
D21*
X87731100Y-92135700D02*
X82452500Y-92135700D01*
X80161700Y-89844900D02*
X77924600Y-89844900D01*
X82452500Y-92135700D02*
X80161700Y-89844900D01*
X105600000Y-74266800D02*
X87731100Y-92135700D01*
X76120300Y-91649200D02*
X76120300Y-123939700D01*
X77924600Y-89844900D02*
X76120300Y-91649200D01*
X105600000Y-73900000D02*
X105600000Y-74266800D01*
X76120300Y-123939700D02*
X75760000Y-124300000D01*
%TO.N,+5V_LOGIC*%
D20*
X36400000Y-90470000D02*
X36400000Y-87930000D01*
X36400000Y-93010000D02*
X36400000Y-90470000D01*
X24600000Y-81400000D02*
X24600000Y-86400000D01*
X24600000Y-98400000D02*
X24600000Y-93400000D01*
X36400000Y-87930000D02*
X36400000Y-85390000D01*
X24600000Y-93400000D02*
X24600000Y-86400000D01*
%TO.N,GND_LOGIC*%
X24600000Y-117400000D02*
X24600000Y-110400000D01*
X24600000Y-122400000D02*
X24600000Y-117400000D01*
X36200000Y-117410000D02*
X36200000Y-114870000D01*
X36200000Y-112330000D02*
X36200000Y-109790000D01*
X24600000Y-105400000D02*
X24600000Y-110400000D01*
X36200000Y-114870000D02*
X36200000Y-112330000D01*
%TO.N,PWM_CH9*%
D18*
X72725000Y-119725400D02*
X72579600Y-119870800D01*
X70320000Y-7900000D02*
X72725000Y-10305000D01*
X72725000Y-10305000D02*
X72725000Y-119725400D01*
%TO.N,PWM_CH6*%
X71220800Y-14801200D02*
X71521600Y-15102000D01*
X70695800Y-105700200D02*
X70695800Y-131258900D01*
X71521600Y-15102000D02*
X71521600Y-104874400D01*
X71521600Y-104874400D02*
X70695800Y-105700200D01*
%TO.N,SV7_PWR*%
D17*
X63500000Y-132500000D02*
X63500000Y-130600600D01*
X62620200Y-117190000D02*
X62620200Y-65379800D01*
X59168300Y-120641900D02*
X62620200Y-117190000D01*
X59168300Y-126268900D02*
X59168300Y-120641900D01*
X63500000Y-130600600D02*
X59168300Y-126268900D01*
X62620200Y-65379800D02*
X69100000Y-58900000D01*
%TO.N,PWM_CH8*%
D18*
X73326700Y-8366700D02*
X73326700Y-121949200D01*
X73326700Y-121949200D02*
X72829200Y-122446700D01*
X72860000Y-7900000D02*
X73326700Y-8366700D01*
%TO.N,SV9_PWR*%
D19*
X78509200Y-116704900D02*
X78509200Y-91332200D01*
X81177500Y-124066000D02*
X81177500Y-119373200D01*
X81177500Y-119373200D02*
X78509200Y-116704900D01*
X87500000Y-132500000D02*
X87500000Y-130388500D01*
X87500000Y-130388500D02*
X81177500Y-124066000D01*
%TO.N,PWM_CH4*%
D18*
X109677500Y-97274600D02*
X97220000Y-109732100D01*
X109677500Y-32017500D02*
X109677500Y-97274600D01*
X97220000Y-109732100D02*
X97220000Y-124300000D01*
X85560000Y-7900000D02*
X109677500Y-32017500D01*
%TO.N,SV5_PWR*%
D19*
X99760000Y-124300000D02*
X105600000Y-118460000D01*
X105600000Y-118460000D02*
X105600000Y-103900000D01*
%TO.N,PWM_CH7*%
D18*
X71860400Y-105686600D02*
X72123300Y-105423700D01*
X72960000Y-131248300D02*
X71860400Y-130148700D01*
X72960000Y-132500000D02*
X72960000Y-131248300D01*
X72123300Y-105423700D02*
X72123300Y-10916600D01*
X72123300Y-10916600D02*
X71965600Y-10758900D01*
X71860400Y-130148700D02*
X71860400Y-105686600D01*
%TO.N,SV8_PWR*%
D21*
X68193500Y-122499800D02*
X66746000Y-121052300D01*
X66746000Y-76254000D02*
X69100000Y-73900000D01*
X71730000Y-134330600D02*
X68193500Y-130794100D01*
X75500000Y-132500000D02*
X75500000Y-133061700D01*
X75500000Y-133061700D02*
X74231100Y-134330600D01*
X68193500Y-130794100D02*
X68193500Y-122499800D01*
X74231100Y-134330600D02*
X71730000Y-134330600D01*
X66746000Y-121052300D02*
X66746000Y-76254000D01*
%TO.N,SCL*%
D18*
X34900000Y-19540000D02*
X34900000Y-17000000D01*
X24600000Y-26400000D02*
X24600000Y-21400000D01*
X24600000Y-9400000D02*
X24600000Y-14400000D01*
X24600000Y-21400000D02*
X24600000Y-14400000D01*
X34900000Y-22080000D02*
X34900000Y-19540000D01*
X34900000Y-17000000D02*
X34900000Y-14460000D01*
%TO.N,+5V_SERVO*%
D21*
X46470000Y-103900000D02*
X46470000Y-88900000D01*
X122900000Y-78000000D02*
X122900000Y-83000000D01*
%TO.N,+7V4*%
D17*
X122900000Y-66000000D02*
X122900000Y-71000000D01*
%TO.N,PWM_CH12*%
D18*
X115208300Y-130616600D02*
X115208300Y-5444900D01*
X116440000Y-131848300D02*
X115208300Y-130616600D01*
X116440000Y-133100000D02*
X116440000Y-131848300D01*
%TD*%
%TA.AperFunction,Conductor*%
%TO.N,+12V*%
G36*
X114353665Y-5119962D02*
G01*
X114408203Y-5174500D01*
X114428165Y-5249000D01*
X114425302Y-5278068D01*
X114407800Y-5366057D01*
X114407800Y-5523742D01*
X114438562Y-5678394D01*
X114438563Y-5678398D01*
X114496458Y-5818170D01*
X114507800Y-5875189D01*
X114507800Y-130685597D01*
X114534719Y-130820927D01*
X114534720Y-130820929D01*
X114587520Y-130948402D01*
X114587523Y-130948408D01*
X114587525Y-130948411D01*
X114664186Y-131063143D01*
X114664189Y-131063146D01*
X115260150Y-131659107D01*
X115298714Y-131725902D01*
X115298714Y-131803030D01*
X115260150Y-131869825D01*
X115244090Y-131883742D01*
X115232455Y-131892452D01*
X115232452Y-131892455D01*
X115146204Y-132007666D01*
X115146202Y-132007670D01*
X115095908Y-132142517D01*
X115089500Y-132202114D01*
X115089500Y-133997863D01*
X115089502Y-133997888D01*
X115095908Y-134057478D01*
X115095909Y-134057484D01*
X115146202Y-134192329D01*
X115146204Y-134192333D01*
X115232452Y-134307544D01*
X115232455Y-134307547D01*
X115347666Y-134393795D01*
X115347670Y-134393797D01*
X115482517Y-134444091D01*
X115542114Y-134450499D01*
X115542118Y-134450499D01*
X115542127Y-134450500D01*
X117337872Y-134450499D01*
X117397483Y-134444091D01*
X117495471Y-134407544D01*
X117532329Y-134393797D01*
X117532333Y-134393795D01*
X117614313Y-134332424D01*
X117647546Y-134307546D01*
X117717722Y-134213803D01*
X117733795Y-134192333D01*
X117733797Y-134192329D01*
X117764567Y-134109829D01*
X117784091Y-134057483D01*
X117786210Y-134037774D01*
X117790499Y-133997885D01*
X117790499Y-133997882D01*
X117790500Y-133997873D01*
X117790499Y-133785529D01*
X117810461Y-133711033D01*
X117834140Y-133680173D01*
X118414314Y-133099999D01*
X117834140Y-132519825D01*
X117795576Y-132453030D01*
X117790499Y-132414466D01*
X117790499Y-132202136D01*
X117790499Y-132202128D01*
X117784091Y-132142517D01*
X117769588Y-132103633D01*
X117733797Y-132007670D01*
X117733795Y-132007666D01*
X117647547Y-131892455D01*
X117647544Y-131892452D01*
X117532333Y-131806204D01*
X117532329Y-131806202D01*
X117397482Y-131755908D01*
X117337885Y-131749500D01*
X117337873Y-131749500D01*
X117256097Y-131749500D01*
X117181597Y-131729538D01*
X117127059Y-131675000D01*
X117116516Y-131650678D01*
X117116381Y-131650734D01*
X117060779Y-131516497D01*
X117060776Y-131516493D01*
X117060775Y-131516489D01*
X116984114Y-131401757D01*
X115952441Y-130370084D01*
X115913877Y-130303289D01*
X115908800Y-130264725D01*
X115908800Y-126199499D01*
X115928762Y-126124999D01*
X115983300Y-126070461D01*
X116057800Y-126050499D01*
X117357864Y-126050499D01*
X117357872Y-126050499D01*
X117417483Y-126044091D01*
X117513447Y-126008298D01*
X117552329Y-125993797D01*
X117552333Y-125993795D01*
X117609938Y-125950671D01*
X117667546Y-125907546D01*
X117753796Y-125792331D01*
X117753798Y-125792327D01*
X117789215Y-125697367D01*
X117833953Y-125634540D01*
X117904110Y-125602498D01*
X117980889Y-125609829D01*
X118034180Y-125644076D01*
X118120208Y-125730104D01*
X118292184Y-125855051D01*
X118481588Y-125951557D01*
X118683757Y-126017246D01*
X118893713Y-126050500D01*
X118893718Y-126050500D01*
X119106282Y-126050500D01*
X119106287Y-126050500D01*
X119316243Y-126017246D01*
X119518412Y-125951557D01*
X119707816Y-125855051D01*
X119724453Y-125842962D01*
X119796455Y-125815321D01*
X119872634Y-125827383D01*
X119930245Y-125872798D01*
X120041083Y-126017246D01*
X120044618Y-126021852D01*
X120145959Y-126123193D01*
X120184523Y-126189988D01*
X120189600Y-126228552D01*
X120189600Y-131551449D01*
X120169638Y-131625949D01*
X120145959Y-131656808D01*
X120024616Y-131778151D01*
X120024614Y-131778152D01*
X119909940Y-131927597D01*
X119848750Y-131974550D01*
X119772281Y-131984616D01*
X119704152Y-131957435D01*
X119687563Y-131945382D01*
X119687555Y-131945378D01*
X119498220Y-131848906D01*
X119296128Y-131783242D01*
X119086242Y-131750000D01*
X118873758Y-131750000D01*
X118663871Y-131783242D01*
X118461789Y-131848902D01*
X118461774Y-131848908D01*
X118351024Y-131905339D01*
X119045685Y-132600000D01*
X118914174Y-132600000D01*
X118787007Y-132634075D01*
X118672993Y-132699901D01*
X118579901Y-132792993D01*
X118514075Y-132907007D01*
X118480000Y-133034174D01*
X118480000Y-133165826D01*
X118514075Y-133292993D01*
X118579901Y-133407007D01*
X118672993Y-133500099D01*
X118787007Y-133565925D01*
X118914174Y-133600000D01*
X119045684Y-133600000D01*
X118351024Y-134294659D01*
X118461782Y-134351094D01*
X118461787Y-134351096D01*
X118663871Y-134416757D01*
X118873758Y-134450000D01*
X119086242Y-134450000D01*
X119296128Y-134416757D01*
X119498220Y-134351093D01*
X119687552Y-134254623D01*
X119704149Y-134242565D01*
X119776153Y-134214924D01*
X119852332Y-134226987D01*
X119909940Y-134272401D01*
X120024615Y-134421848D01*
X120210051Y-134607284D01*
X120286570Y-134665999D01*
X120418097Y-134766924D01*
X120645203Y-134898043D01*
X120849709Y-134982752D01*
X120887483Y-134998399D01*
X120975232Y-135021910D01*
X121140784Y-135066270D01*
X121140790Y-135066270D01*
X121140791Y-135066271D01*
X121177734Y-135071134D01*
X121400777Y-135100499D01*
X121400778Y-135100500D01*
X121400780Y-135100500D01*
X121671122Y-135100500D01*
X121671122Y-135100499D01*
X121931108Y-135066271D01*
X121931110Y-135066271D01*
X121931111Y-135066270D01*
X121931116Y-135066270D01*
X122184415Y-134998399D01*
X122184416Y-134998399D01*
X122184417Y-134998398D01*
X122184419Y-134998398D01*
X122426697Y-134898043D01*
X122653803Y-134766924D01*
X122861848Y-134607284D01*
X122861849Y-134607284D01*
X123047284Y-134421849D01*
X123047284Y-134421848D01*
X123051191Y-134416757D01*
X123194417Y-134230102D01*
X123206921Y-134213807D01*
X123206921Y-134213806D01*
X123206924Y-134213803D01*
X123338043Y-133986697D01*
X123438398Y-133744419D01*
X123506270Y-133491116D01*
X123540500Y-133231120D01*
X123540500Y-132968880D01*
X123506270Y-132708884D01*
X123440177Y-132462219D01*
X123438399Y-132455584D01*
X123438399Y-132455583D01*
X123405331Y-132375751D01*
X123338043Y-132213303D01*
X123206924Y-131986197D01*
X123206921Y-131986193D01*
X123206921Y-131986192D01*
X123047284Y-131778151D01*
X122934041Y-131664908D01*
X122895477Y-131598113D01*
X122890400Y-131559549D01*
X122890400Y-126252352D01*
X122910362Y-126177852D01*
X122934041Y-126146993D01*
X123659059Y-125421975D01*
X124407283Y-124673751D01*
X124509979Y-124539914D01*
X124566924Y-124465703D01*
X124698043Y-124238597D01*
X124798398Y-123996319D01*
X124818081Y-123922861D01*
X124866271Y-123743016D01*
X124877227Y-123659795D01*
X124884778Y-123602438D01*
X124884778Y-123602436D01*
X124887176Y-123584220D01*
X124900500Y-123483020D01*
X124900500Y-106868880D01*
X124900500Y-101868880D01*
X124900500Y-94868880D01*
X124900500Y-89868880D01*
X124866270Y-89608884D01*
X124798398Y-89355581D01*
X124698043Y-89113303D01*
X124566924Y-88886197D01*
X124566921Y-88886193D01*
X124566921Y-88886192D01*
X124407284Y-88678151D01*
X124221848Y-88492715D01*
X124013806Y-88333078D01*
X123786701Y-88201959D01*
X123786699Y-88201958D01*
X123786697Y-88201957D01*
X123711154Y-88170666D01*
X123544416Y-88101600D01*
X123318255Y-88041002D01*
X123291116Y-88033730D01*
X123291114Y-88033729D01*
X123291108Y-88033728D01*
X123031123Y-87999500D01*
X123031120Y-87999500D01*
X122768880Y-87999500D01*
X122768876Y-87999500D01*
X122508892Y-88033728D01*
X122508889Y-88033728D01*
X122255584Y-88101600D01*
X122255583Y-88101600D01*
X122013298Y-88201959D01*
X121786193Y-88333078D01*
X121786192Y-88333078D01*
X121578151Y-88492715D01*
X121578151Y-88492716D01*
X121578149Y-88492718D01*
X121392718Y-88678149D01*
X121392716Y-88678151D01*
X121392715Y-88678151D01*
X121233078Y-88886192D01*
X121233078Y-88886193D01*
X121101959Y-89113298D01*
X121001600Y-89355583D01*
X121001600Y-89355584D01*
X120933728Y-89608889D01*
X120933728Y-89608892D01*
X120899500Y-89868876D01*
X120899500Y-122461548D01*
X120879538Y-122536048D01*
X120855859Y-122566907D01*
X120044618Y-123378147D01*
X120044617Y-123378148D01*
X119930245Y-123527201D01*
X119869055Y-123574153D01*
X119792587Y-123584220D01*
X119724457Y-123557039D01*
X119707818Y-123544950D01*
X119700164Y-123541050D01*
X119518412Y-123448443D01*
X119316243Y-123382754D01*
X119106287Y-123349500D01*
X118893713Y-123349500D01*
X118719442Y-123377102D01*
X118683756Y-123382754D01*
X118481594Y-123448441D01*
X118481588Y-123448443D01*
X118481582Y-123448445D01*
X118481582Y-123448446D01*
X118292182Y-123544950D01*
X118292181Y-123544950D01*
X118120209Y-123669895D01*
X118120198Y-123669904D01*
X118034179Y-123755923D01*
X117967384Y-123794487D01*
X117890256Y-123794487D01*
X117823462Y-123755922D01*
X117789215Y-123702633D01*
X117777005Y-123669896D01*
X117753796Y-123607669D01*
X117753795Y-123607668D01*
X117753795Y-123607666D01*
X117667547Y-123492455D01*
X117667544Y-123492452D01*
X117552333Y-123406204D01*
X117552329Y-123406202D01*
X117417482Y-123355908D01*
X117357885Y-123349500D01*
X117357873Y-123349500D01*
X117309500Y-123349500D01*
X117235000Y-123329538D01*
X117180462Y-123275000D01*
X117160500Y-123200500D01*
X117160500Y-77875429D01*
X120999500Y-77875429D01*
X120999500Y-78124570D01*
X121032016Y-78371557D01*
X121032017Y-78371563D01*
X121032018Y-78371565D01*
X121096498Y-78612207D01*
X121191836Y-78842373D01*
X121316401Y-79058127D01*
X121468062Y-79255776D01*
X121468063Y-79255777D01*
X121605859Y-79393573D01*
X121644423Y-79460368D01*
X121649500Y-79498932D01*
X121649500Y-80985077D01*
X121629538Y-81059577D01*
X121575000Y-81114115D01*
X121547369Y-81126514D01*
X121430662Y-81165187D01*
X121281344Y-81257289D01*
X121157289Y-81381344D01*
X121065187Y-81530663D01*
X121010001Y-81697201D01*
X121010001Y-81697203D01*
X120999500Y-81799992D01*
X120999500Y-84200008D01*
X121010001Y-84302797D01*
X121065186Y-84469334D01*
X121157289Y-84618655D01*
X121281345Y-84742711D01*
X121430666Y-84834814D01*
X121597203Y-84889999D01*
X121699992Y-84900500D01*
X121699996Y-84900500D01*
X124100004Y-84900500D01*
X124100008Y-84900500D01*
X124202797Y-84889999D01*
X124369334Y-84834814D01*
X124518655Y-84742711D01*
X124642711Y-84618655D01*
X124734814Y-84469334D01*
X124789999Y-84302797D01*
X124800500Y-84200008D01*
X124800500Y-81799992D01*
X124789999Y-81697203D01*
X124734814Y-81530666D01*
X124642711Y-81381345D01*
X124518655Y-81257289D01*
X124369337Y-81165187D01*
X124252631Y-81126514D01*
X124188192Y-81084130D01*
X124153578Y-81015206D01*
X124150500Y-80985077D01*
X124150500Y-79498932D01*
X124170462Y-79424432D01*
X124194141Y-79393573D01*
X124331938Y-79255776D01*
X124483599Y-79058127D01*
X124608164Y-78842373D01*
X124703502Y-78612207D01*
X124767982Y-78371565D01*
X124800500Y-78124565D01*
X124800500Y-77875435D01*
X124767982Y-77628435D01*
X124703502Y-77387793D01*
X124608164Y-77157627D01*
X124483599Y-76941873D01*
X124331938Y-76744224D01*
X124155776Y-76568062D01*
X123958127Y-76416401D01*
X123886209Y-76374879D01*
X123742377Y-76291838D01*
X123742375Y-76291837D01*
X123742373Y-76291836D01*
X123607548Y-76235989D01*
X123512210Y-76196499D01*
X123512208Y-76196498D01*
X123512207Y-76196498D01*
X123271565Y-76132018D01*
X123271563Y-76132017D01*
X123271557Y-76132016D01*
X123024570Y-76099500D01*
X123024565Y-76099500D01*
X122775435Y-76099500D01*
X122775429Y-76099500D01*
X122528442Y-76132016D01*
X122287789Y-76196499D01*
X122057622Y-76291838D01*
X121841874Y-76416400D01*
X121644222Y-76568063D01*
X121468063Y-76744222D01*
X121316400Y-76941874D01*
X121191838Y-77157622D01*
X121096499Y-77387789D01*
X121032016Y-77628442D01*
X120999500Y-77875429D01*
X117160500Y-77875429D01*
X117160500Y-65875429D01*
X120999500Y-65875429D01*
X120999500Y-66124570D01*
X121032016Y-66371557D01*
X121032017Y-66371563D01*
X121032018Y-66371565D01*
X121096498Y-66612207D01*
X121191836Y-66842373D01*
X121316401Y-67058127D01*
X121368710Y-67126297D01*
X121398225Y-67197554D01*
X121399500Y-67217002D01*
X121399500Y-69101250D01*
X121379538Y-69175750D01*
X121328724Y-69228064D01*
X121281345Y-69257289D01*
X121281342Y-69257291D01*
X121157289Y-69381344D01*
X121065187Y-69530663D01*
X121010001Y-69697201D01*
X121010001Y-69697203D01*
X120999500Y-69799992D01*
X120999500Y-72200008D01*
X121004748Y-72251376D01*
X121010001Y-72302798D01*
X121023047Y-72342167D01*
X121065186Y-72469334D01*
X121157289Y-72618655D01*
X121281345Y-72742711D01*
X121430666Y-72834814D01*
X121597203Y-72889999D01*
X121699992Y-72900500D01*
X121699996Y-72900500D01*
X124100004Y-72900500D01*
X124100008Y-72900500D01*
X124202797Y-72889999D01*
X124369334Y-72834814D01*
X124518655Y-72742711D01*
X124642711Y-72618655D01*
X124734814Y-72469334D01*
X124789999Y-72302797D01*
X124800500Y-72200008D01*
X124800500Y-69799992D01*
X124789999Y-69697203D01*
X124734814Y-69530666D01*
X124642711Y-69381345D01*
X124518655Y-69257289D01*
X124471275Y-69228064D01*
X124418349Y-69171964D01*
X124400500Y-69101250D01*
X124400500Y-67217002D01*
X124420462Y-67142502D01*
X124431290Y-67126297D01*
X124483599Y-67058127D01*
X124608164Y-66842373D01*
X124703502Y-66612207D01*
X124767982Y-66371565D01*
X124800500Y-66124565D01*
X124800500Y-65875435D01*
X124767982Y-65628435D01*
X124703502Y-65387793D01*
X124608164Y-65157627D01*
X124483599Y-64941873D01*
X124331938Y-64744224D01*
X124155776Y-64568062D01*
X123958127Y-64416401D01*
X123886209Y-64374879D01*
X123742377Y-64291838D01*
X123742375Y-64291837D01*
X123742373Y-64291836D01*
X123607548Y-64235989D01*
X123512210Y-64196499D01*
X123512208Y-64196498D01*
X123512207Y-64196498D01*
X123271565Y-64132018D01*
X123271563Y-64132017D01*
X123271557Y-64132016D01*
X123024570Y-64099500D01*
X123024565Y-64099500D01*
X122775435Y-64099500D01*
X122775429Y-64099500D01*
X122528442Y-64132016D01*
X122287789Y-64196499D01*
X122057622Y-64291838D01*
X121841874Y-64416400D01*
X121644222Y-64568063D01*
X121468063Y-64744222D01*
X121316400Y-64941874D01*
X121191838Y-65157622D01*
X121096499Y-65387789D01*
X121032016Y-65628442D01*
X120999500Y-65875429D01*
X117160500Y-65875429D01*
X117160500Y-57800011D01*
X121000000Y-57800011D01*
X121000000Y-58600000D01*
X122385523Y-58600000D01*
X122323978Y-58692110D01*
X122274979Y-58810402D01*
X122250000Y-58935981D01*
X122250000Y-59064019D01*
X122274979Y-59189598D01*
X122323978Y-59307890D01*
X122385523Y-59400000D01*
X121000000Y-59400000D01*
X121000000Y-60199988D01*
X121010492Y-60302687D01*
X121010494Y-60302696D01*
X121065642Y-60469120D01*
X121157680Y-60618339D01*
X121281660Y-60742319D01*
X121430879Y-60834357D01*
X121597303Y-60889505D01*
X121597312Y-60889507D01*
X121700011Y-60899999D01*
X121700022Y-60900000D01*
X122500000Y-60900000D01*
X122500000Y-59514476D01*
X122592110Y-59576022D01*
X122710402Y-59625021D01*
X122835981Y-59650000D01*
X122964019Y-59650000D01*
X123089598Y-59625021D01*
X123207890Y-59576022D01*
X123300000Y-59514476D01*
X123300000Y-60900000D01*
X124099978Y-60900000D01*
X124099988Y-60899999D01*
X124202687Y-60889507D01*
X124202696Y-60889505D01*
X124369120Y-60834357D01*
X124518339Y-60742319D01*
X124642319Y-60618339D01*
X124734357Y-60469120D01*
X124789505Y-60302696D01*
X124789507Y-60302687D01*
X124799999Y-60199988D01*
X124800000Y-60199978D01*
X124800000Y-59400000D01*
X123414477Y-59400000D01*
X123476022Y-59307890D01*
X123525021Y-59189598D01*
X123550000Y-59064019D01*
X123550000Y-58935981D01*
X123525021Y-58810402D01*
X123476022Y-58692110D01*
X123414477Y-58600000D01*
X124800000Y-58600000D01*
X124800000Y-57800021D01*
X124799999Y-57800011D01*
X124789507Y-57697312D01*
X124789505Y-57697303D01*
X124734357Y-57530879D01*
X124642319Y-57381660D01*
X124518339Y-57257680D01*
X124369120Y-57165642D01*
X124202696Y-57110494D01*
X124202687Y-57110492D01*
X124099988Y-57100000D01*
X123300000Y-57100000D01*
X123300000Y-58485523D01*
X123207890Y-58423978D01*
X123089598Y-58374979D01*
X122964019Y-58350000D01*
X122835981Y-58350000D01*
X122710402Y-58374979D01*
X122592110Y-58423978D01*
X122500000Y-58485523D01*
X122500000Y-57100000D01*
X121700011Y-57100000D01*
X121597312Y-57110492D01*
X121597303Y-57110494D01*
X121430879Y-57165642D01*
X121281660Y-57257680D01*
X121157680Y-57381660D01*
X121065642Y-57530879D01*
X121010494Y-57697303D01*
X121010492Y-57697312D01*
X121000000Y-57800011D01*
X117160500Y-57800011D01*
X117160500Y-53875461D01*
X121000000Y-53875461D01*
X121000000Y-54124538D01*
X121032507Y-54371459D01*
X121096973Y-54612048D01*
X121192287Y-54842156D01*
X121302048Y-55032265D01*
X122253367Y-54080946D01*
X122274979Y-54189598D01*
X122323978Y-54307890D01*
X122395112Y-54414351D01*
X122485649Y-54504888D01*
X122592110Y-54576022D01*
X122710402Y-54625021D01*
X122819052Y-54646632D01*
X121867733Y-55597950D01*
X122057849Y-55707714D01*
X122287951Y-55803026D01*
X122528540Y-55867492D01*
X122775461Y-55899999D01*
X122775467Y-55900000D01*
X123024533Y-55900000D01*
X123024538Y-55899999D01*
X123271459Y-55867492D01*
X123512048Y-55803026D01*
X123742150Y-55707714D01*
X123932265Y-55597950D01*
X122980947Y-54646632D01*
X123089598Y-54625021D01*
X123207890Y-54576022D01*
X123314351Y-54504888D01*
X123404888Y-54414351D01*
X123476022Y-54307890D01*
X123525021Y-54189598D01*
X123546632Y-54080947D01*
X124497950Y-55032265D01*
X124607714Y-54842150D01*
X124703026Y-54612048D01*
X124767492Y-54371459D01*
X124799999Y-54124538D01*
X124800000Y-54124533D01*
X124800000Y-53875467D01*
X124799999Y-53875461D01*
X124767492Y-53628540D01*
X124703026Y-53387951D01*
X124607714Y-53157849D01*
X124497950Y-52967733D01*
X123546632Y-53919051D01*
X123525021Y-53810402D01*
X123476022Y-53692110D01*
X123404888Y-53585649D01*
X123314351Y-53495112D01*
X123207890Y-53423978D01*
X123089598Y-53374979D01*
X122980946Y-53353366D01*
X123932265Y-52402048D01*
X123742156Y-52292287D01*
X123512048Y-52196973D01*
X123271459Y-52132507D01*
X123024538Y-52100000D01*
X122775461Y-52100000D01*
X122528540Y-52132507D01*
X122287951Y-52196973D01*
X122057843Y-52292287D01*
X121867733Y-52402048D01*
X122819052Y-53353367D01*
X122710402Y-53374979D01*
X122592110Y-53423978D01*
X122485649Y-53495112D01*
X122395112Y-53585649D01*
X122323978Y-53692110D01*
X122274979Y-53810402D01*
X122253367Y-53919052D01*
X121302048Y-52967733D01*
X121192287Y-53157843D01*
X121096973Y-53387951D01*
X121032507Y-53628540D01*
X121000000Y-53875461D01*
X117160500Y-53875461D01*
X117160500Y-45800011D01*
X121000000Y-45800011D01*
X121000000Y-46600000D01*
X122385523Y-46600000D01*
X122323978Y-46692110D01*
X122274979Y-46810402D01*
X122250000Y-46935981D01*
X122250000Y-47064019D01*
X122274979Y-47189598D01*
X122323978Y-47307890D01*
X122385523Y-47400000D01*
X121000000Y-47400000D01*
X121000000Y-48199988D01*
X121010492Y-48302687D01*
X121010494Y-48302696D01*
X121065642Y-48469120D01*
X121157680Y-48618339D01*
X121281660Y-48742319D01*
X121430879Y-48834357D01*
X121597303Y-48889505D01*
X121597312Y-48889507D01*
X121700011Y-48899999D01*
X121700022Y-48900000D01*
X122500000Y-48900000D01*
X122500000Y-47514476D01*
X122592110Y-47576022D01*
X122710402Y-47625021D01*
X122835981Y-47650000D01*
X122964019Y-47650000D01*
X123089598Y-47625021D01*
X123207890Y-47576022D01*
X123300000Y-47514476D01*
X123300000Y-48900000D01*
X124099978Y-48900000D01*
X124099988Y-48899999D01*
X124202687Y-48889507D01*
X124202696Y-48889505D01*
X124369120Y-48834357D01*
X124518339Y-48742319D01*
X124642319Y-48618339D01*
X124734357Y-48469120D01*
X124789505Y-48302696D01*
X124789507Y-48302687D01*
X124799999Y-48199988D01*
X124800000Y-48199978D01*
X124800000Y-47400000D01*
X123414477Y-47400000D01*
X123476022Y-47307890D01*
X123525021Y-47189598D01*
X123550000Y-47064019D01*
X123550000Y-46935981D01*
X123525021Y-46810402D01*
X123476022Y-46692110D01*
X123414477Y-46600000D01*
X124800000Y-46600000D01*
X124800000Y-45800021D01*
X124799999Y-45800011D01*
X124789507Y-45697312D01*
X124789505Y-45697303D01*
X124734357Y-45530879D01*
X124642319Y-45381660D01*
X124518339Y-45257680D01*
X124369120Y-45165642D01*
X124202696Y-45110494D01*
X124202687Y-45110492D01*
X124099988Y-45100000D01*
X123300000Y-45100000D01*
X123300000Y-46485523D01*
X123207890Y-46423978D01*
X123089598Y-46374979D01*
X122964019Y-46350000D01*
X122835981Y-46350000D01*
X122710402Y-46374979D01*
X122592110Y-46423978D01*
X122500000Y-46485523D01*
X122500000Y-45100000D01*
X121700011Y-45100000D01*
X121597312Y-45110492D01*
X121597303Y-45110494D01*
X121430879Y-45165642D01*
X121281660Y-45257680D01*
X121157680Y-45381660D01*
X121065642Y-45530879D01*
X121010494Y-45697303D01*
X121010492Y-45697312D01*
X121000000Y-45800011D01*
X117160500Y-45800011D01*
X117160500Y-41875461D01*
X121000000Y-41875461D01*
X121000000Y-42124538D01*
X121032507Y-42371459D01*
X121096973Y-42612048D01*
X121192287Y-42842156D01*
X121302048Y-43032265D01*
X122253367Y-42080946D01*
X122274979Y-42189598D01*
X122323978Y-42307890D01*
X122395112Y-42414351D01*
X122485649Y-42504888D01*
X122592110Y-42576022D01*
X122710402Y-42625021D01*
X122819052Y-42646632D01*
X121867733Y-43597950D01*
X122057849Y-43707714D01*
X122287951Y-43803026D01*
X122528540Y-43867492D01*
X122775461Y-43899999D01*
X122775467Y-43900000D01*
X123024533Y-43900000D01*
X123024538Y-43899999D01*
X123271459Y-43867492D01*
X123512048Y-43803026D01*
X123742150Y-43707714D01*
X123932265Y-43597950D01*
X122980947Y-42646632D01*
X123089598Y-42625021D01*
X123207890Y-42576022D01*
X123314351Y-42504888D01*
X123404888Y-42414351D01*
X123476022Y-42307890D01*
X123525021Y-42189598D01*
X123546632Y-42080947D01*
X124497950Y-43032265D01*
X124607714Y-42842150D01*
X124703026Y-42612048D01*
X124767492Y-42371459D01*
X124799999Y-42124538D01*
X124800000Y-42124533D01*
X124800000Y-41875467D01*
X124799999Y-41875461D01*
X124767492Y-41628540D01*
X124703026Y-41387951D01*
X124607714Y-41157849D01*
X124497950Y-40967733D01*
X123546632Y-41919051D01*
X123525021Y-41810402D01*
X123476022Y-41692110D01*
X123404888Y-41585649D01*
X123314351Y-41495112D01*
X123207890Y-41423978D01*
X123089598Y-41374979D01*
X122980946Y-41353366D01*
X123932265Y-40402048D01*
X123742156Y-40292287D01*
X123512048Y-40196973D01*
X123271459Y-40132507D01*
X123024538Y-40100000D01*
X122775461Y-40100000D01*
X122528540Y-40132507D01*
X122287951Y-40196973D01*
X122057843Y-40292287D01*
X121867733Y-40402048D01*
X122819052Y-41353367D01*
X122710402Y-41374979D01*
X122592110Y-41423978D01*
X122485649Y-41495112D01*
X122395112Y-41585649D01*
X122323978Y-41692110D01*
X122274979Y-41810402D01*
X122253367Y-41919052D01*
X121302048Y-40967733D01*
X121192287Y-41157843D01*
X121096973Y-41387951D01*
X121032507Y-41628540D01*
X121000000Y-41875461D01*
X117160500Y-41875461D01*
X117160500Y-12784889D01*
X117171842Y-12727870D01*
X117196373Y-12668644D01*
X117229737Y-12588097D01*
X117260500Y-12433442D01*
X117260500Y-12275758D01*
X117229737Y-12121103D01*
X117169394Y-11975421D01*
X117081789Y-11844311D01*
X116970289Y-11732811D01*
X116839179Y-11645206D01*
X116839178Y-11645205D01*
X116839176Y-11645204D01*
X116693498Y-11584863D01*
X116693494Y-11584862D01*
X116538842Y-11554100D01*
X116381158Y-11554100D01*
X116226505Y-11584862D01*
X116226501Y-11584863D01*
X116114819Y-11631123D01*
X116038351Y-11641190D01*
X115967094Y-11611674D01*
X115920142Y-11550484D01*
X115908800Y-11493465D01*
X115908800Y-5875189D01*
X115920142Y-5818170D01*
X115944673Y-5758944D01*
X115978037Y-5678397D01*
X116008800Y-5523742D01*
X116008800Y-5366058D01*
X116000335Y-5323500D01*
X115991298Y-5278068D01*
X115996343Y-5201105D01*
X116039193Y-5136976D01*
X116108367Y-5102863D01*
X116137435Y-5100000D01*
X129651000Y-5100000D01*
X129725500Y-5119962D01*
X129780038Y-5174500D01*
X129800000Y-5249000D01*
X129800000Y-139151000D01*
X129780038Y-139225500D01*
X129725500Y-139280038D01*
X129651000Y-139300000D01*
X74199000Y-139300000D01*
X74124500Y-139280038D01*
X74069962Y-139225500D01*
X74050000Y-139151000D01*
X74050000Y-135730100D01*
X74069962Y-135655600D01*
X74124500Y-135601062D01*
X74199000Y-135581100D01*
X74329512Y-135581100D01*
X74329517Y-135581100D01*
X74523926Y-135550309D01*
X74711126Y-135489484D01*
X74886505Y-135400124D01*
X75045746Y-135284428D01*
X76453829Y-133876345D01*
X76569524Y-133717105D01*
X76658884Y-133541726D01*
X76713344Y-133374116D01*
X76755351Y-133309431D01*
X76824072Y-133274416D01*
X76901095Y-133278453D01*
X76965780Y-133320460D01*
X76975595Y-133332581D01*
X77009890Y-133379785D01*
X77009895Y-133379791D01*
X77009896Y-133379792D01*
X77160208Y-133530104D01*
X77332184Y-133655051D01*
X77521588Y-133751557D01*
X77723757Y-133817246D01*
X77850308Y-133837289D01*
X77884012Y-133846795D01*
X77928681Y-133865298D01*
X78181984Y-133933171D01*
X78181990Y-133933171D01*
X78181991Y-133933172D01*
X78252679Y-133942477D01*
X78441980Y-133967399D01*
X78704220Y-133967399D01*
X78964216Y-133933171D01*
X79217519Y-133865298D01*
X79217525Y-133865295D01*
X79217527Y-133865295D01*
X79268717Y-133844091D01*
X79459797Y-133764943D01*
X79686902Y-133633824D01*
X79894951Y-133474183D01*
X80080583Y-133288551D01*
X80172323Y-133168993D01*
X80240224Y-133080503D01*
X80371343Y-132853397D01*
X80471698Y-132611119D01*
X80492260Y-132534380D01*
X80539571Y-132357815D01*
X80554750Y-132242517D01*
X80560413Y-132199502D01*
X80560413Y-132199499D01*
X80564310Y-132169904D01*
X80573800Y-132097820D01*
X80573800Y-125236938D01*
X80593762Y-125162438D01*
X80648300Y-125107900D01*
X80722800Y-125087938D01*
X80797300Y-125107900D01*
X80828159Y-125131579D01*
X86455859Y-130759279D01*
X86494423Y-130826074D01*
X86499500Y-130864638D01*
X86499500Y-131288217D01*
X86479538Y-131362717D01*
X86425000Y-131417255D01*
X86350500Y-131437217D01*
X86276000Y-131417255D01*
X86231220Y-131377511D01*
X86186441Y-131317695D01*
X86167546Y-131292454D01*
X86167544Y-131292453D01*
X86167544Y-131292452D01*
X86052333Y-131206204D01*
X86052329Y-131206202D01*
X85917482Y-131155908D01*
X85857876Y-131149500D01*
X84062136Y-131149500D01*
X84062111Y-131149502D01*
X84002521Y-131155908D01*
X84002515Y-131155909D01*
X83867670Y-131206202D01*
X83867666Y-131206204D01*
X83752455Y-131292452D01*
X83752452Y-131292455D01*
X83666204Y-131407666D01*
X83666202Y-131407670D01*
X83615908Y-131542517D01*
X83609500Y-131602114D01*
X83609500Y-133397863D01*
X83609502Y-133397888D01*
X83615908Y-133457478D01*
X83615909Y-133457484D01*
X83666202Y-133592329D01*
X83666204Y-133592333D01*
X83752452Y-133707544D01*
X83752455Y-133707547D01*
X83867666Y-133793795D01*
X83867670Y-133793797D01*
X84002517Y-133844091D01*
X84062114Y-133850499D01*
X84062118Y-133850499D01*
X84062127Y-133850500D01*
X85857872Y-133850499D01*
X85917483Y-133844091D01*
X86013447Y-133808298D01*
X86052329Y-133793797D01*
X86052333Y-133793795D01*
X86118295Y-133744415D01*
X86167546Y-133707546D01*
X86253796Y-133592331D01*
X86253797Y-133592329D01*
X86253798Y-133592327D01*
X86289215Y-133497367D01*
X86333953Y-133434540D01*
X86404110Y-133402498D01*
X86480889Y-133409829D01*
X86534180Y-133444076D01*
X86620208Y-133530104D01*
X86792184Y-133655051D01*
X86981588Y-133751557D01*
X87183757Y-133817246D01*
X87393713Y-133850500D01*
X87393718Y-133850500D01*
X87606282Y-133850500D01*
X87606287Y-133850500D01*
X87816243Y-133817246D01*
X88018412Y-133751557D01*
X88207816Y-133655051D01*
X88379792Y-133530104D01*
X88530104Y-133379792D01*
X88649456Y-133215517D01*
X88709396Y-133166979D01*
X88785574Y-133154913D01*
X88857580Y-133182553D01*
X88890544Y-133215517D01*
X89009896Y-133379792D01*
X89160208Y-133530104D01*
X89332184Y-133655051D01*
X89521588Y-133751557D01*
X89723757Y-133817246D01*
X89933713Y-133850500D01*
X89933718Y-133850500D01*
X90146282Y-133850500D01*
X90146287Y-133850500D01*
X90356243Y-133817246D01*
X90558412Y-133751557D01*
X90747816Y-133655051D01*
X90919792Y-133530104D01*
X91070104Y-133379792D01*
X91070109Y-133379784D01*
X91073399Y-133376495D01*
X91075087Y-133374667D01*
X91080228Y-133369527D01*
X91180784Y-133231123D01*
X91205159Y-133197574D01*
X91205159Y-133197572D01*
X91205166Y-133197564D01*
X91301665Y-133008174D01*
X91316251Y-132963283D01*
X91367349Y-132806020D01*
X91400601Y-132596079D01*
X91400601Y-132450251D01*
X91420563Y-132375751D01*
X91444242Y-132344892D01*
X91619239Y-132169895D01*
X91817483Y-131971651D01*
X91977124Y-131763602D01*
X92108243Y-131536497D01*
X92208598Y-131294219D01*
X92276471Y-131040915D01*
X92310699Y-130780919D01*
X92310699Y-130518680D01*
X92276471Y-130258684D01*
X92208598Y-130005381D01*
X92208596Y-130005376D01*
X92208595Y-130005372D01*
X92164504Y-129898930D01*
X92108243Y-129763103D01*
X91977124Y-129535998D01*
X91817483Y-129327948D01*
X91704241Y-129214706D01*
X91665677Y-129147911D01*
X91660600Y-129109347D01*
X91660600Y-124422646D01*
X91660601Y-124422621D01*
X91660601Y-124203925D01*
X91660601Y-124203921D01*
X91627349Y-123993980D01*
X91561665Y-123791826D01*
X91465166Y-123602436D01*
X91457755Y-123592236D01*
X91340228Y-123430473D01*
X91330478Y-123420723D01*
X91330104Y-123420208D01*
X91179792Y-123269896D01*
X91007816Y-123144949D01*
X90818412Y-123048443D01*
X90780561Y-123036144D01*
X90753837Y-123027461D01*
X90689152Y-122985453D01*
X90654138Y-122916731D01*
X90658175Y-122839709D01*
X90694521Y-122780397D01*
X96265143Y-117209776D01*
X96331936Y-117171214D01*
X96409064Y-117171214D01*
X96475859Y-117209778D01*
X96514423Y-117276573D01*
X96519500Y-117315137D01*
X96519500Y-122800500D01*
X96499538Y-122875000D01*
X96445000Y-122929538D01*
X96370503Y-122949500D01*
X96322137Y-122949500D01*
X96322111Y-122949502D01*
X96262521Y-122955908D01*
X96262515Y-122955909D01*
X96127670Y-123006202D01*
X96127666Y-123006204D01*
X96012455Y-123092452D01*
X96012452Y-123092455D01*
X95926204Y-123207666D01*
X95926202Y-123207670D01*
X95875908Y-123342517D01*
X95869500Y-123402114D01*
X95869500Y-125197863D01*
X95869502Y-125197888D01*
X95875908Y-125257478D01*
X95875909Y-125257484D01*
X95926202Y-125392329D01*
X95926204Y-125392333D01*
X96012452Y-125507544D01*
X96012455Y-125507547D01*
X96127666Y-125593795D01*
X96127670Y-125593797D01*
X96262517Y-125644091D01*
X96322114Y-125650499D01*
X96322118Y-125650499D01*
X96322127Y-125650500D01*
X98117872Y-125650499D01*
X98177483Y-125644091D01*
X98301400Y-125597873D01*
X98312329Y-125593797D01*
X98312333Y-125593795D01*
X98369938Y-125550671D01*
X98427546Y-125507546D01*
X98470671Y-125449938D01*
X98513795Y-125392333D01*
X98513798Y-125392327D01*
X98549215Y-125297367D01*
X98593953Y-125234540D01*
X98664110Y-125202498D01*
X98740889Y-125209829D01*
X98794180Y-125244076D01*
X98880208Y-125330104D01*
X99052184Y-125455051D01*
X99241588Y-125551557D01*
X99443757Y-125617246D01*
X99653713Y-125650500D01*
X99653718Y-125650500D01*
X99866282Y-125650500D01*
X99866287Y-125650500D01*
X100076243Y-125617246D01*
X100278412Y-125551557D01*
X100467816Y-125455051D01*
X100585136Y-125369814D01*
X100596020Y-125361906D01*
X100668025Y-125334265D01*
X100744203Y-125346331D01*
X100804143Y-125394869D01*
X100831784Y-125466874D01*
X100832600Y-125482449D01*
X100832600Y-131364248D01*
X100812638Y-131438748D01*
X100801811Y-131454952D01*
X100727574Y-131551700D01*
X100596459Y-131778798D01*
X100496104Y-132021072D01*
X100496103Y-132021076D01*
X100489706Y-132044950D01*
X100472901Y-132107670D01*
X100468831Y-132122858D01*
X100430267Y-132189653D01*
X100363472Y-132228217D01*
X100286344Y-132228217D01*
X100219549Y-132189653D01*
X100199793Y-132169897D01*
X100199792Y-132169896D01*
X100027816Y-132044949D01*
X99838412Y-131948443D01*
X99636243Y-131882754D01*
X99426287Y-131849500D01*
X99213713Y-131849500D01*
X99038749Y-131877211D01*
X99003756Y-131882754D01*
X98865745Y-131927597D01*
X98801588Y-131948443D01*
X98801582Y-131948445D01*
X98801582Y-131948446D01*
X98612182Y-132044950D01*
X98612181Y-132044950D01*
X98440209Y-132169895D01*
X98440198Y-132169904D01*
X98354179Y-132255923D01*
X98287384Y-132294487D01*
X98210256Y-132294487D01*
X98143462Y-132255922D01*
X98109215Y-132202633D01*
X98109027Y-132202128D01*
X98073796Y-132107669D01*
X98073795Y-132107668D01*
X98073795Y-132107666D01*
X97987547Y-131992455D01*
X97987544Y-131992452D01*
X97872333Y-131906204D01*
X97872329Y-131906202D01*
X97737482Y-131855908D01*
X97677876Y-131849500D01*
X95882136Y-131849500D01*
X95882111Y-131849502D01*
X95822521Y-131855908D01*
X95822515Y-131855909D01*
X95687670Y-131906202D01*
X95687666Y-131906204D01*
X95572455Y-131992452D01*
X95572452Y-131992455D01*
X95486204Y-132107666D01*
X95486202Y-132107670D01*
X95435908Y-132242517D01*
X95429500Y-132302114D01*
X95429500Y-134097863D01*
X95429502Y-134097888D01*
X95435908Y-134157478D01*
X95435909Y-134157484D01*
X95486202Y-134292329D01*
X95486204Y-134292333D01*
X95572452Y-134407544D01*
X95572455Y-134407547D01*
X95687666Y-134493795D01*
X95687670Y-134493797D01*
X95822517Y-134544091D01*
X95882114Y-134550499D01*
X95882118Y-134550499D01*
X95882127Y-134550500D01*
X97677872Y-134550499D01*
X97737483Y-134544091D01*
X97833447Y-134508298D01*
X97872329Y-134493797D01*
X97872333Y-134493795D01*
X97938728Y-134444091D01*
X97987546Y-134407546D01*
X98030671Y-134349938D01*
X98073795Y-134292333D01*
X98073798Y-134292327D01*
X98102667Y-134214924D01*
X98109215Y-134197366D01*
X98153953Y-134134540D01*
X98224110Y-134102498D01*
X98300889Y-134109829D01*
X98354180Y-134144076D01*
X98440208Y-134230104D01*
X98612184Y-134355051D01*
X98801588Y-134451557D01*
X99003757Y-134517246D01*
X99213713Y-134550500D01*
X99213718Y-134550500D01*
X99426282Y-134550500D01*
X99426287Y-134550500D01*
X99636243Y-134517246D01*
X99838412Y-134451557D01*
X100027816Y-134355051D01*
X100199792Y-134230104D01*
X100350104Y-134079792D01*
X100469456Y-133915517D01*
X100529396Y-133866979D01*
X100605574Y-133854913D01*
X100677580Y-133882553D01*
X100710544Y-133915517D01*
X100829896Y-134079792D01*
X100980208Y-134230104D01*
X101152184Y-134355051D01*
X101341588Y-134451557D01*
X101543757Y-134517246D01*
X101678047Y-134538515D01*
X101711751Y-134548020D01*
X101750081Y-134563898D01*
X102003384Y-134631771D01*
X102003390Y-134631771D01*
X102003391Y-134631772D01*
X102074079Y-134641077D01*
X102263380Y-134665999D01*
X102525620Y-134665999D01*
X102785616Y-134631771D01*
X103038919Y-134563898D01*
X103038925Y-134563895D01*
X103038927Y-134563895D01*
X103100201Y-134538514D01*
X103281197Y-134463543D01*
X103508302Y-134332424D01*
X103716351Y-134172783D01*
X104340383Y-133548751D01*
X104442078Y-133416219D01*
X104500024Y-133340703D01*
X104631143Y-133113597D01*
X104731498Y-132871319D01*
X104732749Y-132866648D01*
X104742084Y-132831813D01*
X104742084Y-132831812D01*
X104756344Y-132778593D01*
X104799371Y-132618016D01*
X104819882Y-132462218D01*
X104833600Y-132358020D01*
X104833600Y-124701980D01*
X104799370Y-124441984D01*
X104731498Y-124188681D01*
X104631143Y-123946403D01*
X104500024Y-123719297D01*
X104500021Y-123719293D01*
X104500021Y-123719292D01*
X104340384Y-123511251D01*
X104154948Y-123325815D01*
X103946906Y-123166178D01*
X103910136Y-123144949D01*
X103804129Y-123083746D01*
X103719801Y-123035059D01*
X103719799Y-123035058D01*
X103719797Y-123035057D01*
X103611066Y-122990019D01*
X103477516Y-122934700D01*
X103251355Y-122874102D01*
X103224216Y-122866830D01*
X103224214Y-122866829D01*
X103224208Y-122866828D01*
X102979324Y-122834588D01*
X102908067Y-122805072D01*
X102861115Y-122743882D01*
X102851048Y-122667414D01*
X102880564Y-122596157D01*
X102893406Y-122581512D01*
X106229288Y-119245631D01*
X106229295Y-119245625D01*
X106237780Y-119237140D01*
X106237782Y-119237139D01*
X106377139Y-119097782D01*
X106486632Y-118933914D01*
X106562051Y-118751835D01*
X106565317Y-118735419D01*
X106600500Y-118558540D01*
X106600500Y-118361460D01*
X106600500Y-105601295D01*
X106620462Y-105526795D01*
X106658791Y-105483089D01*
X106855776Y-105331938D01*
X107031938Y-105155776D01*
X107183599Y-104958127D01*
X107308164Y-104742373D01*
X107403502Y-104512207D01*
X107467982Y-104271565D01*
X107500500Y-104024565D01*
X107500500Y-103775435D01*
X107467982Y-103528435D01*
X107403502Y-103287793D01*
X107308164Y-103057627D01*
X107183599Y-102841873D01*
X107031938Y-102644224D01*
X106855776Y-102468062D01*
X106658127Y-102316401D01*
X106532646Y-102243955D01*
X106442377Y-102191838D01*
X106442375Y-102191837D01*
X106442373Y-102191836D01*
X106338092Y-102148641D01*
X106212208Y-102096498D01*
X106212209Y-102096498D01*
X106172870Y-102085957D01*
X106106076Y-102047392D01*
X106067513Y-101980596D01*
X106067515Y-101903468D01*
X106106076Y-101836678D01*
X110221613Y-97721143D01*
X110298274Y-97606412D01*
X110298275Y-97606411D01*
X110351080Y-97478928D01*
X110378000Y-97343593D01*
X110378000Y-31948507D01*
X110351080Y-31813172D01*
X110340519Y-31787675D01*
X110298279Y-31685697D01*
X110298276Y-31685693D01*
X110298275Y-31685689D01*
X110221614Y-31570957D01*
X88149655Y-9498998D01*
X88111091Y-9432203D01*
X88111091Y-9355075D01*
X88149655Y-9288280D01*
X88216450Y-9249716D01*
X88231687Y-9246476D01*
X88416243Y-9217246D01*
X88618412Y-9151557D01*
X88807816Y-9055051D01*
X88807822Y-9055046D01*
X88807825Y-9055045D01*
X88810490Y-9053109D01*
X88811815Y-9052599D01*
X88812813Y-9051989D01*
X88812926Y-9052173D01*
X88882494Y-9025466D01*
X88958673Y-9037529D01*
X89003433Y-9068290D01*
X89638057Y-9702914D01*
X89752789Y-9779575D01*
X89752793Y-9779576D01*
X89752797Y-9779579D01*
X89854775Y-9821819D01*
X89880272Y-9832380D01*
X90015606Y-9859300D01*
X90015607Y-9859300D01*
X90015610Y-9859300D01*
X96366090Y-9859300D01*
X96366094Y-9859300D01*
X96501428Y-9832380D01*
X96588471Y-9796325D01*
X96628902Y-9779579D01*
X96628903Y-9779578D01*
X96628911Y-9779575D01*
X96743643Y-9702914D01*
X97162833Y-9283722D01*
X97229626Y-9245160D01*
X97293129Y-9244215D01*
X97293250Y-9243095D01*
X97302392Y-9244077D01*
X97302457Y-9244077D01*
X97302515Y-9244090D01*
X97302517Y-9244091D01*
X97312460Y-9245160D01*
X97362114Y-9250499D01*
X97362118Y-9250499D01*
X97362127Y-9250500D01*
X99157872Y-9250499D01*
X99217483Y-9244091D01*
X99350996Y-9194294D01*
X99352329Y-9193797D01*
X99352333Y-9193795D01*
X99421986Y-9141652D01*
X99467546Y-9107546D01*
X99519961Y-9037529D01*
X99553795Y-8992333D01*
X99553797Y-8992329D01*
X99604091Y-8857482D01*
X99610499Y-8797885D01*
X99610499Y-8797882D01*
X99610500Y-8797873D01*
X99610499Y-7002128D01*
X99604091Y-6942517D01*
X99577005Y-6869895D01*
X99553797Y-6807670D01*
X99553795Y-6807666D01*
X99467547Y-6692455D01*
X99467544Y-6692452D01*
X99352333Y-6606204D01*
X99352329Y-6606202D01*
X99217482Y-6555908D01*
X99157876Y-6549500D01*
X97362136Y-6549500D01*
X97362111Y-6549502D01*
X97302521Y-6555908D01*
X97302515Y-6555909D01*
X97167670Y-6606202D01*
X97167666Y-6606204D01*
X97052455Y-6692452D01*
X97052452Y-6692455D01*
X96966204Y-6807666D01*
X96966203Y-6807668D01*
X96930784Y-6902634D01*
X96886045Y-6965461D01*
X96815887Y-6997501D01*
X96739108Y-6990170D01*
X96685819Y-6955923D01*
X96599793Y-6869897D01*
X96599792Y-6869896D01*
X96427816Y-6744949D01*
X96238412Y-6648443D01*
X96036243Y-6582754D01*
X95826287Y-6549500D01*
X95613713Y-6549500D01*
X95438749Y-6577211D01*
X95403756Y-6582754D01*
X95201594Y-6648441D01*
X95201588Y-6648443D01*
X95201582Y-6648445D01*
X95201582Y-6648446D01*
X95012182Y-6744950D01*
X95012181Y-6744950D01*
X94840209Y-6869895D01*
X94840206Y-6869897D01*
X94689897Y-7020206D01*
X94689895Y-7020209D01*
X94570544Y-7184482D01*
X94510604Y-7233020D01*
X94434425Y-7245086D01*
X94362420Y-7217446D01*
X94329456Y-7184482D01*
X94240857Y-7062536D01*
X94210104Y-7020208D01*
X94059792Y-6869896D01*
X93887816Y-6744949D01*
X93698412Y-6648443D01*
X93496243Y-6582754D01*
X93286287Y-6549500D01*
X93073713Y-6549500D01*
X92977757Y-6564698D01*
X92929809Y-6572292D01*
X92853103Y-6564229D01*
X92801142Y-6530485D01*
X91742646Y-5471989D01*
X91742643Y-5471986D01*
X91627911Y-5395325D01*
X91627907Y-5395323D01*
X91627905Y-5395322D01*
X91606987Y-5386658D01*
X91545797Y-5339705D01*
X91516282Y-5268448D01*
X91526349Y-5191980D01*
X91573302Y-5130790D01*
X91644559Y-5101275D01*
X91664007Y-5100000D01*
X114279165Y-5100000D01*
X114353665Y-5119962D01*
G37*
%TD.AperFunction*%
%TA.AperFunction,Conductor*%
G36*
X84243659Y-15497716D02*
G01*
X84282223Y-15564511D01*
X84287300Y-15603075D01*
X84287300Y-42213759D01*
X84267338Y-42288259D01*
X84212800Y-42342797D01*
X84138300Y-42362759D01*
X84063800Y-42342797D01*
X84047596Y-42331970D01*
X84027850Y-42316819D01*
X83812156Y-42192287D01*
X83582048Y-42096973D01*
X83341459Y-42032507D01*
X83094538Y-42000000D01*
X82845461Y-42000000D01*
X82598540Y-42032507D01*
X82357951Y-42096973D01*
X82127843Y-42192287D01*
X81937733Y-42302048D01*
X82804009Y-43168324D01*
X82751233Y-43178822D01*
X82614742Y-43235359D01*
X82491903Y-43317437D01*
X82387437Y-43421903D01*
X82305359Y-43544742D01*
X82248822Y-43681233D01*
X82238324Y-43734009D01*
X81372048Y-42867733D01*
X81262287Y-43057843D01*
X81166973Y-43287951D01*
X81102507Y-43528540D01*
X81070000Y-43775461D01*
X81070000Y-44024538D01*
X81102507Y-44271459D01*
X81166973Y-44512048D01*
X81262287Y-44742156D01*
X81372048Y-44932265D01*
X82238323Y-44065989D01*
X82248822Y-44118767D01*
X82305359Y-44255258D01*
X82387437Y-44378097D01*
X82491903Y-44482563D01*
X82614742Y-44564641D01*
X82751233Y-44621178D01*
X82804008Y-44631675D01*
X81937733Y-45497950D01*
X82127849Y-45607714D01*
X82357951Y-45703026D01*
X82598540Y-45767492D01*
X82845461Y-45799999D01*
X82845467Y-45800000D01*
X83094533Y-45800000D01*
X83094538Y-45799999D01*
X83341459Y-45767492D01*
X83582048Y-45703026D01*
X83812156Y-45607712D01*
X84027851Y-45483180D01*
X84027854Y-45483178D01*
X84047593Y-45468032D01*
X84118849Y-45438515D01*
X84195318Y-45448581D01*
X84256508Y-45495533D01*
X84286025Y-45566789D01*
X84287300Y-45586240D01*
X84287300Y-57213759D01*
X84267338Y-57288259D01*
X84212800Y-57342797D01*
X84138300Y-57362759D01*
X84063800Y-57342797D01*
X84047596Y-57331970D01*
X84027850Y-57316819D01*
X83812156Y-57192287D01*
X83582048Y-57096973D01*
X83341459Y-57032507D01*
X83094538Y-57000000D01*
X82845461Y-57000000D01*
X82598540Y-57032507D01*
X82357951Y-57096973D01*
X82127843Y-57192287D01*
X81937733Y-57302048D01*
X82804009Y-58168324D01*
X82751233Y-58178822D01*
X82614742Y-58235359D01*
X82491903Y-58317437D01*
X82387437Y-58421903D01*
X82305359Y-58544742D01*
X82248822Y-58681233D01*
X82238324Y-58734009D01*
X81372048Y-57867733D01*
X81262287Y-58057843D01*
X81166973Y-58287951D01*
X81102507Y-58528540D01*
X81070000Y-58775461D01*
X81070000Y-59024538D01*
X81102507Y-59271459D01*
X81166973Y-59512048D01*
X81262287Y-59742156D01*
X81372048Y-59932265D01*
X82238323Y-59065989D01*
X82248822Y-59118767D01*
X82305359Y-59255258D01*
X82387437Y-59378097D01*
X82491903Y-59482563D01*
X82614742Y-59564641D01*
X82751233Y-59621178D01*
X82804008Y-59631675D01*
X81937733Y-60497950D01*
X82127849Y-60607714D01*
X82357951Y-60703026D01*
X82598540Y-60767492D01*
X82845461Y-60799999D01*
X82845467Y-60800000D01*
X83094533Y-60800000D01*
X83094538Y-60799999D01*
X83341459Y-60767492D01*
X83582048Y-60703026D01*
X83812156Y-60607712D01*
X84027851Y-60483180D01*
X84027854Y-60483178D01*
X84047593Y-60468032D01*
X84118849Y-60438515D01*
X84195318Y-60448581D01*
X84256508Y-60495533D01*
X84286025Y-60566789D01*
X84287300Y-60586240D01*
X84287300Y-72213129D01*
X84267338Y-72287629D01*
X84212800Y-72342167D01*
X84138300Y-72362129D01*
X84063800Y-72342167D01*
X84047597Y-72331341D01*
X84028127Y-72316401D01*
X83849254Y-72213129D01*
X83812377Y-72191838D01*
X83812375Y-72191837D01*
X83812373Y-72191836D01*
X83644590Y-72122338D01*
X83582210Y-72096499D01*
X83582208Y-72096498D01*
X83582207Y-72096498D01*
X83341565Y-72032018D01*
X83341563Y-72032017D01*
X83341557Y-72032016D01*
X83094570Y-71999500D01*
X83094565Y-71999500D01*
X82845435Y-71999500D01*
X82845429Y-71999500D01*
X82598442Y-72032016D01*
X82357789Y-72096499D01*
X82127622Y-72191838D01*
X81911874Y-72316400D01*
X81714222Y-72468063D01*
X81538063Y-72644222D01*
X81386400Y-72841874D01*
X81261838Y-73057622D01*
X81166499Y-73287789D01*
X81102016Y-73528442D01*
X81069500Y-73775429D01*
X81069500Y-74024570D01*
X81102016Y-74271557D01*
X81102017Y-74271563D01*
X81102018Y-74271565D01*
X81166498Y-74512207D01*
X81261836Y-74742373D01*
X81386401Y-74958127D01*
X81538062Y-75155776D01*
X81714224Y-75331938D01*
X81911873Y-75483599D01*
X82127627Y-75608164D01*
X82357793Y-75703502D01*
X82598435Y-75767982D01*
X82598441Y-75767982D01*
X82598442Y-75767983D01*
X82665586Y-75776822D01*
X82845435Y-75800500D01*
X83094565Y-75800500D01*
X83341565Y-75767982D01*
X83582207Y-75703502D01*
X83812373Y-75608164D01*
X84028127Y-75483599D01*
X84047595Y-75468660D01*
X84118851Y-75439145D01*
X84195319Y-75449212D01*
X84256509Y-75496164D01*
X84286025Y-75567421D01*
X84287300Y-75586870D01*
X84287300Y-87213129D01*
X84267338Y-87287629D01*
X84212800Y-87342167D01*
X84138300Y-87362129D01*
X84063800Y-87342167D01*
X84047597Y-87331341D01*
X84028127Y-87316401D01*
X83849254Y-87213129D01*
X83812377Y-87191838D01*
X83812375Y-87191837D01*
X83812373Y-87191836D01*
X83677548Y-87135989D01*
X83582210Y-87096499D01*
X83582208Y-87096498D01*
X83582207Y-87096498D01*
X83341565Y-87032018D01*
X83341563Y-87032017D01*
X83341557Y-87032016D01*
X83094570Y-86999500D01*
X83094565Y-86999500D01*
X82845435Y-86999500D01*
X82845429Y-86999500D01*
X82598442Y-87032016D01*
X82357789Y-87096499D01*
X82127622Y-87191838D01*
X81911874Y-87316400D01*
X81714222Y-87468063D01*
X81538063Y-87644222D01*
X81386400Y-87841874D01*
X81261838Y-88057622D01*
X81166499Y-88287789D01*
X81102016Y-88528442D01*
X81080162Y-88694444D01*
X81050647Y-88765701D01*
X80989457Y-88812654D01*
X80912989Y-88822721D01*
X80844857Y-88795539D01*
X80817178Y-88775429D01*
X80817105Y-88775376D01*
X80641726Y-88686016D01*
X80454526Y-88625191D01*
X80260117Y-88594400D01*
X77826183Y-88594400D01*
X77795460Y-88599265D01*
X77739279Y-88608163D01*
X77739280Y-88608164D01*
X77631773Y-88625191D01*
X77468787Y-88678149D01*
X77444575Y-88686016D01*
X77444572Y-88686017D01*
X77444563Y-88686021D01*
X77269198Y-88775374D01*
X77269191Y-88775378D01*
X77109958Y-88891068D01*
X75823359Y-90177667D01*
X75756564Y-90216231D01*
X75679436Y-90216231D01*
X75612641Y-90177667D01*
X75574077Y-90110872D01*
X75569000Y-90072308D01*
X75569000Y-24023375D01*
X75588962Y-23948875D01*
X75612641Y-23918016D01*
X84032941Y-15497716D01*
X84099736Y-15459152D01*
X84176864Y-15459152D01*
X84243659Y-15497716D01*
G37*
%TD.AperFunction*%
%TD*%
M02*
