%TF.GenerationSoftware,KiCad,Pcbnew,10.0.0*%
%TF.CreationDate,2026-03-30T18:22:06-04:00*%
%TF.ProjectId,geodude-carrier,67656f64-7564-4652-9d63-617272696572,rev?*%
%TF.SameCoordinates,Original*%
%TF.FileFunction,Copper,L2,Bot*%
%TF.FilePolarity,Positive*%
%FSLAX46Y46*%
G04 Gerber Fmt 4.6, Leading zero omitted, Abs format (unit mm)*
G04 Created by KiCad (PCBNEW 10.0.0) date 2026-03-30 18:22:06*
%MOMM*%
%LPD*%
G01*
G04 APERTURE LIST*
G04 Aperture macros list*
%AMRoundRect*
0 Rectangle with rounded corners*
0 $1 Rounding radius*
0 $2 $3 $4 $5 $6 $7 $8 $9 X,Y pos of 4 corners*
0 Add a 4 corners polygon primitive as box body*
4,1,4,$2,$3,$4,$5,$6,$7,$8,$9,$2,$3,0*
0 Add four circle primitives for the rounded corners*
1,1,$1+$1,$2,$3*
1,1,$1+$1,$4,$5*
1,1,$1+$1,$6,$7*
1,1,$1+$1,$8,$9*
0 Add four rect primitives between the rounded corners*
20,1,$1+$1,$2,$3,$4,$5,0*
20,1,$1+$1,$4,$5,$6,$7,0*
20,1,$1+$1,$6,$7,$8,$9,0*
20,1,$1+$1,$8,$9,$2,$3,0*%
G04 Aperture macros list end*
%TA.AperFunction,ComponentPad*%
%ADD10C,2.800000*%
%TD*%
%TA.AperFunction,ComponentPad*%
%ADD11R,1.700000X1.700000*%
%TD*%
%TA.AperFunction,ComponentPad*%
%ADD12C,1.700000*%
%TD*%
%TA.AperFunction,ComponentPad*%
%ADD13RoundRect,0.250001X1.149999X-1.149999X1.149999X1.149999X-1.149999X1.149999X-1.149999X-1.149999X0*%
%TD*%
%TA.AperFunction,ViaPad*%
%ADD14C,0.600000*%
%TD*%
%TA.AperFunction,Conductor*%
%ADD15C,3.000000*%
%TD*%
%TA.AperFunction,Conductor*%
%ADD16C,2.000000*%
%TD*%
%TA.AperFunction,Conductor*%
%ADD17C,1.699800*%
%TD*%
%TA.AperFunction,Conductor*%
%ADD18C,0.400000*%
%TD*%
%TA.AperFunction,Conductor*%
%ADD19C,0.600000*%
%TD*%
%TA.AperFunction,Conductor*%
%ADD20C,1.500000*%
%TD*%
%TA.AperFunction,Conductor*%
%ADD21C,1.000000*%
%TD*%
G04 APERTURE END LIST*
D10*
%TO.P,F2,1*%
%TO.N,+12V*%
X83185000Y-58900000D03*
%TO.P,F2,2*%
%TO.N,SV2_PWR*%
X105385000Y-58900000D03*
%TD*%
D11*
%TO.P,SV4,1*%
%TO.N,PWM_CH3*%
X85220000Y-124300000D03*
D12*
%TO.P,SV4,2*%
%TO.N,SV4_PWR*%
X87760000Y-124300000D03*
%TO.P,SV4,3*%
%TO.N,GND*%
X90300000Y-124300000D03*
%TD*%
D10*
%TO.P,F6,1*%
%TO.N,+12V*%
X46685000Y-43900000D03*
%TO.P,F6,2*%
%TO.N,SV6_PWR*%
X68885000Y-43900000D03*
%TD*%
D11*
%TO.P,SV2,1*%
%TO.N,PWM_CH1*%
X61220000Y-124300000D03*
D12*
%TO.P,SV2,2*%
%TO.N,SV2_PWR*%
X63760000Y-124300000D03*
%TO.P,SV2,3*%
%TO.N,GND*%
X66300000Y-124300000D03*
%TD*%
D13*
%TO.P,J4,1*%
%TO.N,GND*%
X122900000Y-107000000D03*
D10*
%TO.P,J4,2*%
X122900000Y-102000000D03*
%TD*%
D11*
%TO.P,SV6,1*%
%TO.N,PWM_CH5*%
X48960000Y-132500000D03*
D12*
%TO.P,SV6,2*%
%TO.N,SV6_PWR*%
X51500000Y-132500000D03*
%TO.P,SV6,3*%
%TO.N,GND*%
X54040000Y-132500000D03*
%TD*%
D11*
%TO.P,J41,1*%
%TO.N,SDA*%
X37000000Y-68100000D03*
D12*
%TO.P,J41,2*%
X37000000Y-70640000D03*
%TO.P,J41,3*%
X37000000Y-73180000D03*
%TO.P,J41,4*%
X37000000Y-75720000D03*
%TD*%
D13*
%TO.P,J2,1*%
%TO.N,+12V*%
X122900000Y-59000000D03*
D10*
%TO.P,J2,2*%
X122900000Y-54000000D03*
%TD*%
D13*
%TO.P,J34,1*%
%TO.N,+3V3*%
X25000000Y-81400000D03*
D10*
%TO.P,J34,2*%
X25000000Y-76400000D03*
%TD*%
D13*
%TO.P,J32,1*%
%TO.N,SDA*%
X25000000Y-69400000D03*
D10*
%TO.P,J32,2*%
X25000000Y-64400000D03*
%TD*%
D11*
%TO.P,SV1,1*%
%TO.N,PWM_CH0*%
X49220000Y-124300000D03*
D12*
%TO.P,SV1,2*%
%TO.N,SV1_PWR*%
X51760000Y-124300000D03*
%TO.P,SV1,3*%
%TO.N,GND*%
X54300000Y-124300000D03*
%TD*%
D11*
%TO.P,J_ESC,1*%
%TO.N,PWM_CH11*%
X116460000Y-132500000D03*
D12*
%TO.P,J_ESC,2*%
%TO.N,N/C*%
X119000000Y-132500000D03*
%TO.P,J_ESC,3*%
%TO.N,GND*%
X121540000Y-132500000D03*
%TD*%
D11*
%TO.P,SV3,1*%
%TO.N,PWM_CH2*%
X73220000Y-124300000D03*
D12*
%TO.P,SV3,2*%
%TO.N,SV3_PWR*%
X75760000Y-124300000D03*
%TO.P,SV3,3*%
%TO.N,GND*%
X78300000Y-124300000D03*
%TD*%
D13*
%TO.P,J37,1*%
%TO.N,+5V_LOGIC*%
X25000000Y-93400000D03*
D10*
%TO.P,J37,2*%
X25000000Y-88400000D03*
%TD*%
D11*
%TO.P,J44,1*%
%TO.N,GND_LOGIC*%
X37000000Y-104100000D03*
D12*
%TO.P,J44,2*%
X37000000Y-106640000D03*
%TO.P,J44,3*%
X37000000Y-109180000D03*
%TO.P,J44,4*%
X37000000Y-111720000D03*
%TD*%
D11*
%TO.P,SV10,1*%
%TO.N,PWM_CH9*%
X96780000Y-132500000D03*
D12*
%TO.P,SV10,2*%
%TO.N,SV10_PWR*%
X99320000Y-132500000D03*
%TO.P,SV10,3*%
%TO.N,GND*%
X101860000Y-132500000D03*
%TD*%
D11*
%TO.P,SV7,1*%
%TO.N,PWM_CH6*%
X60960000Y-132500000D03*
D12*
%TO.P,SV7,2*%
%TO.N,SV7_PWR*%
X63500000Y-132500000D03*
%TO.P,SV7,3*%
%TO.N,GND*%
X66040000Y-132500000D03*
%TD*%
D10*
%TO.P,F7,1*%
%TO.N,+12V*%
X46685000Y-58900000D03*
%TO.P,F7,2*%
%TO.N,SV7_PWR*%
X68885000Y-58900000D03*
%TD*%
D13*
%TO.P,J1,1*%
%TO.N,+12V*%
X122900000Y-47000000D03*
D10*
%TO.P,J1,2*%
X122900000Y-42000000D03*
%TD*%
D11*
%TO.P,SV9,1*%
%TO.N,PWM_CH8*%
X84960000Y-132500000D03*
D12*
%TO.P,SV9,2*%
%TO.N,SV9_PWR*%
X87500000Y-132500000D03*
%TO.P,SV9,3*%
%TO.N,GND*%
X90040000Y-132500000D03*
%TD*%
D11*
%TO.P,SV5,1*%
%TO.N,PWM_CH4*%
X97220000Y-124300000D03*
D12*
%TO.P,SV5,2*%
%TO.N,SV5_PWR*%
X99760000Y-124300000D03*
%TO.P,SV5,3*%
%TO.N,GND*%
X102300000Y-124300000D03*
%TD*%
D11*
%TO.P,J43,1*%
%TO.N,+5V_LOGIC*%
X37000000Y-92100000D03*
D12*
%TO.P,J43,2*%
X37000000Y-94640000D03*
%TO.P,J43,3*%
X37000000Y-97180000D03*
%TO.P,J43,4*%
X37000000Y-99720000D03*
%TD*%
D13*
%TO.P,J39,1*%
%TO.N,GND_LOGIC*%
X25000000Y-105400000D03*
D10*
%TO.P,J39,2*%
X25000000Y-100400000D03*
%TD*%
D11*
%TO.P,SV8,1*%
%TO.N,PWM_CH7*%
X72960000Y-132500000D03*
D12*
%TO.P,SV8,2*%
%TO.N,SV8_PWR*%
X75500000Y-132500000D03*
%TO.P,SV8,3*%
%TO.N,GND*%
X78040000Y-132500000D03*
%TD*%
D11*
%TO.P,J40,1*%
%TO.N,SCL*%
X37000000Y-56100000D03*
D12*
%TO.P,J40,2*%
X37000000Y-58640000D03*
%TO.P,J40,3*%
X37000000Y-61180000D03*
%TO.P,J40,4*%
X37000000Y-63720000D03*
%TD*%
D13*
%TO.P,J6,1*%
%TO.N,+5V_SERVO*%
X122900000Y-83000000D03*
D10*
%TO.P,J6,2*%
X122900000Y-78000000D03*
%TD*%
%TO.P,F4,1*%
%TO.N,+5V_SERVO*%
X83185000Y-88900000D03*
%TO.P,F4,2*%
%TO.N,SV4_PWR*%
X105385000Y-88900000D03*
%TD*%
%TO.P,F3,1*%
%TO.N,+7V4*%
X83185000Y-73900000D03*
%TO.P,F3,2*%
%TO.N,SV3_PWR*%
X105385000Y-73900000D03*
%TD*%
D13*
%TO.P,J5,1*%
%TO.N,+7V4*%
X122900000Y-71000000D03*
D10*
%TO.P,J5,2*%
X122900000Y-66000000D03*
%TD*%
D13*
%TO.P,J31,1*%
%TO.N,SCL*%
X25000000Y-57400000D03*
D10*
%TO.P,J31,2*%
X25000000Y-52400000D03*
%TD*%
%TO.P,F5,1*%
%TO.N,+5V_SERVO*%
X83185000Y-103900000D03*
%TO.P,F5,2*%
%TO.N,SV5_PWR*%
X105385000Y-103900000D03*
%TD*%
%TO.P,F9,1*%
%TO.N,+5V_SERVO*%
X46685000Y-88900000D03*
%TO.P,F9,2*%
%TO.N,SV9_PWR*%
X68885000Y-88900000D03*
%TD*%
D11*
%TO.P,J42,1*%
%TO.N,+3V3*%
X37000000Y-80100000D03*
D12*
%TO.P,J42,2*%
X37000000Y-82640000D03*
%TO.P,J42,3*%
X37000000Y-85180000D03*
%TO.P,J42,4*%
X37000000Y-87720000D03*
%TD*%
D13*
%TO.P,J3,1*%
%TO.N,GND*%
X122900000Y-95000000D03*
D10*
%TO.P,J3,2*%
X122900000Y-90000000D03*
%TD*%
%TO.P,F8,1*%
%TO.N,+7V4*%
X46685000Y-73900000D03*
%TO.P,F8,2*%
%TO.N,SV8_PWR*%
X68885000Y-73900000D03*
%TD*%
D11*
%TO.P,J_FAN,1*%
%TO.N,PWM_CH12*%
X128440000Y-132500000D03*
D12*
%TO.P,J_FAN,2*%
%TO.N,+12V*%
X130980000Y-132500000D03*
%TO.P,J_FAN,3*%
%TO.N,GND*%
X133520000Y-132500000D03*
%TD*%
D11*
%TO.P,J_PCA,1*%
%TO.N,PWM_CH0*%
X98160000Y-24000000D03*
D12*
%TO.P,J_PCA,2*%
%TO.N,PWM_CH1*%
X95620000Y-24000000D03*
%TO.P,J_PCA,3*%
%TO.N,PWM_CH2*%
X93080000Y-24000000D03*
%TO.P,J_PCA,4*%
%TO.N,PWM_CH3*%
X90540000Y-24000000D03*
%TO.P,J_PCA,5*%
%TO.N,N/C*%
X88000000Y-24000000D03*
%TO.P,J_PCA,6*%
%TO.N,PWM_CH4*%
X85460000Y-24000000D03*
%TO.P,J_PCA,7*%
%TO.N,PWM_CH5*%
X82920000Y-24000000D03*
%TO.P,J_PCA,8*%
%TO.N,PWM_CH6*%
X80380000Y-24000000D03*
%TO.P,J_PCA,9*%
%TO.N,PWM_CH7*%
X77840000Y-24000000D03*
%TO.P,J_PCA,10*%
%TO.N,N/C*%
X75300000Y-24000000D03*
%TO.P,J_PCA,11*%
%TO.N,PWM_CH8*%
X72760000Y-24000000D03*
%TO.P,J_PCA,12*%
%TO.N,PWM_CH9*%
X70220000Y-24000000D03*
%TO.P,J_PCA,13*%
%TO.N,PWM_CH10*%
X67680000Y-24000000D03*
%TO.P,J_PCA,14*%
%TO.N,PWM_CH11*%
X65140000Y-24000000D03*
%TO.P,J_PCA,15*%
%TO.N,N/C*%
X62600000Y-24000000D03*
%TO.P,J_PCA,16*%
%TO.N,PWM_CH12*%
X60060000Y-24000000D03*
%TO.P,J_PCA,17*%
%TO.N,PWM_CH13*%
X57520000Y-24000000D03*
%TO.P,J_PCA,18*%
%TO.N,PWM_CH14*%
X54980000Y-24000000D03*
%TO.P,J_PCA,19*%
%TO.N,PWM_CH15*%
X52440000Y-24000000D03*
%TD*%
D10*
%TO.P,F1,1*%
%TO.N,+12V*%
X83185000Y-43900000D03*
%TO.P,F1,2*%
%TO.N,SV1_PWR*%
X105385000Y-43900000D03*
%TD*%
%TO.P,F10,1*%
%TO.N,+5V_SERVO*%
X46685000Y-103900000D03*
%TO.P,F10,2*%
%TO.N,SV10_PWR*%
X68885000Y-103900000D03*
%TD*%
D14*
%TO.N,SV2_PWR*%
X93099900Y-126380200D03*
%TO.N,SV6_PWR*%
X51999000Y-120000000D03*
%TO.N,PWM_CH5*%
X53030000Y-39000000D03*
%TO.N,PWM_CH0*%
X50616600Y-22748300D03*
%TO.N,SV1_PWR*%
X95909400Y-94268100D03*
%TO.N,PWM_CH2*%
X73220000Y-37102700D03*
%TO.N,SV3_PWR*%
X75758400Y-89511700D03*
%TO.N,PWM_CH9*%
X78272000Y-27344900D03*
%TO.N,SV7_PWR*%
X61905600Y-120000000D03*
%TO.N,SV9_PWR*%
X77370300Y-110686300D03*
X80832100Y-129000000D03*
X71612400Y-110686300D03*
%TO.N,PWM_CH4*%
X86755000Y-116295000D03*
%TD*%
%TO.N,+12V*%
D15*
X49786700Y-55798300D02*
X80083300Y-55798300D01*
X80083300Y-55798300D02*
X83185000Y-58900000D01*
X122900000Y-54000000D02*
X93285000Y-54000000D01*
X93285000Y-54000000D02*
X83185000Y-43900000D01*
X46685000Y-58900000D02*
X49786700Y-55798300D01*
%TO.N,SV2_PWR*%
D16*
X65393200Y-126380200D02*
X63760000Y-124747000D01*
X63760000Y-124747000D02*
X63760000Y-124300000D01*
X93099900Y-126380200D02*
X65393200Y-126380200D01*
%TO.N,GND*%
D17*
X121540000Y-132500000D02*
X121520000Y-132500000D01*
D15*
X115940100Y-124834500D02*
X102834500Y-124834500D01*
X68610400Y-135070400D02*
X66574500Y-133034500D01*
D17*
X90050200Y-132510200D02*
X90040000Y-132500000D01*
D15*
X78092800Y-132500000D02*
X78092800Y-135070400D01*
X90050200Y-134555400D02*
X89535200Y-135070400D01*
D17*
X78092800Y-132500000D02*
X78040000Y-132500000D01*
X90050200Y-134555400D02*
X90050200Y-132510200D01*
D15*
X78092800Y-135070400D02*
X68610400Y-135070400D01*
X89535200Y-135070400D02*
X78092800Y-135070400D01*
D17*
X121540000Y-130434400D02*
X121540000Y-132500000D01*
D15*
X121540000Y-130434400D02*
X115940100Y-124834500D01*
D17*
X66574500Y-133034500D02*
X66040000Y-132500000D01*
X102834500Y-124834500D02*
X102300000Y-124300000D01*
%TO.N,SV6_PWR*%
D16*
X50083000Y-120000000D02*
X51999000Y-120000000D01*
X50299300Y-134567900D02*
X47566300Y-134567900D01*
X46908300Y-133909900D02*
X46908300Y-123174700D01*
X51500000Y-133367200D02*
X50299300Y-134567900D01*
X51500000Y-132500000D02*
X51500000Y-133367200D01*
X47566300Y-134567900D02*
X46908300Y-133909900D01*
X46908300Y-123174700D02*
X50083000Y-120000000D01*
%TO.N,PWM_CH5*%
D18*
X82920000Y-24000000D02*
X67920000Y-39000000D01*
X67920000Y-39000000D02*
X53030000Y-39000000D01*
%TO.N,SDA*%
X37000000Y-70640000D02*
X26240000Y-70640000D01*
X26240000Y-70640000D02*
X25000000Y-69400000D01*
%TO.N,+3V3*%
D19*
X37000000Y-80100000D02*
X26300000Y-80100000D01*
X26300000Y-80100000D02*
X25000000Y-81400000D01*
%TO.N,PWM_CH0*%
D18*
X98160000Y-24000000D02*
X98160000Y-22748300D01*
X98160000Y-22748300D02*
X50616600Y-22748300D01*
%TO.N,SV1_PWR*%
D16*
X51760000Y-124300000D02*
X51760000Y-123560600D01*
X74836400Y-94268100D02*
X95909400Y-94268100D01*
X65146000Y-110174600D02*
X65146000Y-103958500D01*
X65146000Y-103958500D02*
X74836400Y-94268100D01*
X51760000Y-123560600D02*
X65146000Y-110174600D01*
%TO.N,PWM_CH2*%
D18*
X93080000Y-24000000D02*
X79977300Y-37102700D01*
X79977300Y-37102700D02*
X73220000Y-37102700D01*
%TO.N,SV3_PWR*%
D20*
X91370100Y-73900000D02*
X75758400Y-89511700D01*
X105385000Y-73900000D02*
X91370100Y-73900000D01*
%TO.N,+5V_LOGIC*%
D19*
X37000000Y-92100000D02*
X26300000Y-92100000D01*
X26300000Y-92100000D02*
X25000000Y-93400000D01*
%TO.N,GND_LOGIC*%
X37000000Y-106640000D02*
X26240000Y-106640000D01*
X26240000Y-106640000D02*
X25000000Y-105400000D01*
%TO.N,PWM_CH9*%
D18*
X73564900Y-27344900D02*
X78272000Y-27344900D01*
X70220000Y-24000000D02*
X73564900Y-27344900D01*
%TO.N,SV10_PWR*%
D21*
X68885000Y-103900000D02*
X72943500Y-103900000D01*
X99320000Y-130193700D02*
X99320000Y-132500000D01*
X72943500Y-103900000D02*
X86340200Y-117296700D01*
X86340200Y-117296700D02*
X86423000Y-117296700D01*
X86423000Y-117296700D02*
X99320000Y-130193700D01*
%TO.N,SV7_PWR*%
D16*
X59168300Y-122737300D02*
X61905600Y-120000000D01*
X63500000Y-131640500D02*
X59168300Y-127308800D01*
X63500000Y-132500000D02*
X63500000Y-131640500D01*
X59168300Y-127308800D02*
X59168300Y-122737300D01*
%TO.N,SV9_PWR*%
D21*
X84193800Y-129000000D02*
X80832100Y-129000000D01*
X87500000Y-132306200D02*
X84193800Y-129000000D01*
X77370300Y-110686300D02*
X71612400Y-110686300D01*
X87500000Y-132500000D02*
X87500000Y-132306200D01*
%TO.N,PWM_CH4*%
D18*
X97220000Y-124300000D02*
X95968300Y-124300000D01*
X86755000Y-116295000D02*
X87963300Y-116295000D01*
X87963300Y-116295000D02*
X95968300Y-124300000D01*
%TO.N,SCL*%
X37000000Y-58640000D02*
X26240000Y-58640000D01*
X26240000Y-58640000D02*
X25000000Y-57400000D01*
%TO.N,+5V_SERVO*%
D20*
X80811500Y-91273500D02*
X83185000Y-88900000D01*
X83185000Y-88900000D02*
X89085000Y-83000000D01*
X46685000Y-88900000D02*
X49058500Y-91273500D01*
X89085000Y-83000000D02*
X122900000Y-83000000D01*
X49058500Y-91273500D02*
X80811500Y-91273500D01*
%TO.N,+7V4*%
D16*
X80583300Y-71298300D02*
X83185000Y-73900000D01*
X46685000Y-73900000D02*
X49286700Y-71298300D01*
X122900000Y-71000000D02*
X86085000Y-71000000D01*
X86085000Y-71000000D02*
X83185000Y-73900000D01*
X49286700Y-71298300D02*
X80583300Y-71298300D01*
%TD*%
%TA.AperFunction,Conductor*%
%TO.N,GND*%
G36*
X129725500Y-5119962D02*
G01*
X129780038Y-5174500D01*
X129800000Y-5249000D01*
X129800000Y-144751000D01*
X129780038Y-144825500D01*
X129725500Y-144880038D01*
X129651000Y-144900000D01*
X18449000Y-144900000D01*
X18374500Y-144880038D01*
X18319962Y-144825500D01*
X18300000Y-144751000D01*
X18300000Y-140378706D01*
X47449500Y-140378706D01*
X47449500Y-140621293D01*
X47481160Y-140861781D01*
X47481161Y-140861787D01*
X47481162Y-140861789D01*
X47543946Y-141096100D01*
X47636776Y-141320212D01*
X47758064Y-141530289D01*
X47905735Y-141722738D01*
X48077262Y-141894265D01*
X48269711Y-142041936D01*
X48479788Y-142163224D01*
X48703900Y-142256054D01*
X48938211Y-142318838D01*
X48938217Y-142318838D01*
X48938218Y-142318839D01*
X49003600Y-142327446D01*
X49178712Y-142350500D01*
X49421288Y-142350500D01*
X49661789Y-142318838D01*
X49896100Y-142256054D01*
X50120212Y-142163224D01*
X50330289Y-142041936D01*
X50522738Y-141894265D01*
X50694265Y-141722738D01*
X50841936Y-141530289D01*
X50963224Y-141320212D01*
X51056054Y-141096100D01*
X51118838Y-140861789D01*
X51150500Y-140621288D01*
X51150500Y-140378712D01*
X51150499Y-140378706D01*
X97449500Y-140378706D01*
X97449500Y-140621293D01*
X97481160Y-140861781D01*
X97481161Y-140861787D01*
X97481162Y-140861789D01*
X97543946Y-141096100D01*
X97636776Y-141320212D01*
X97758064Y-141530289D01*
X97905735Y-141722738D01*
X98077262Y-141894265D01*
X98269711Y-142041936D01*
X98479788Y-142163224D01*
X98703900Y-142256054D01*
X98938211Y-142318838D01*
X98938217Y-142318838D01*
X98938218Y-142318839D01*
X99003600Y-142327446D01*
X99178712Y-142350500D01*
X99421288Y-142350500D01*
X99661789Y-142318838D01*
X99896100Y-142256054D01*
X100120212Y-142163224D01*
X100330289Y-142041936D01*
X100522738Y-141894265D01*
X100694265Y-141722738D01*
X100841936Y-141530289D01*
X100963224Y-141320212D01*
X101056054Y-141096100D01*
X101118838Y-140861789D01*
X101150500Y-140621288D01*
X101150500Y-140378712D01*
X101118838Y-140138211D01*
X101056054Y-139903900D01*
X100963224Y-139679788D01*
X100841936Y-139469711D01*
X100694265Y-139277262D01*
X100522738Y-139105735D01*
X100330289Y-138958064D01*
X100260263Y-138917634D01*
X100120216Y-138836778D01*
X100120214Y-138836777D01*
X100120212Y-138836776D01*
X99988932Y-138782398D01*
X99896103Y-138743947D01*
X99896101Y-138743946D01*
X99896100Y-138743946D01*
X99661789Y-138681162D01*
X99661787Y-138681161D01*
X99661781Y-138681160D01*
X99421293Y-138649500D01*
X99421288Y-138649500D01*
X99178712Y-138649500D01*
X99178706Y-138649500D01*
X98938218Y-138681160D01*
X98703896Y-138743947D01*
X98479783Y-138836778D01*
X98269712Y-138958063D01*
X98269711Y-138958064D01*
X98077262Y-139105735D01*
X98077260Y-139105736D01*
X98077256Y-139105740D01*
X97905740Y-139277256D01*
X97758063Y-139469712D01*
X97636778Y-139679783D01*
X97543947Y-139903896D01*
X97481160Y-140138218D01*
X97449500Y-140378706D01*
X51150499Y-140378706D01*
X51118838Y-140138211D01*
X51056054Y-139903900D01*
X50963224Y-139679788D01*
X50841936Y-139469711D01*
X50694265Y-139277262D01*
X50522738Y-139105735D01*
X50330289Y-138958064D01*
X50260263Y-138917634D01*
X50120216Y-138836778D01*
X50120214Y-138836777D01*
X50120212Y-138836776D01*
X49988932Y-138782398D01*
X49896103Y-138743947D01*
X49896101Y-138743946D01*
X49896100Y-138743946D01*
X49661789Y-138681162D01*
X49661787Y-138681161D01*
X49661781Y-138681160D01*
X49421293Y-138649500D01*
X49421288Y-138649500D01*
X49178712Y-138649500D01*
X49178706Y-138649500D01*
X48938218Y-138681160D01*
X48703896Y-138743947D01*
X48479783Y-138836778D01*
X48269712Y-138958063D01*
X48269711Y-138958064D01*
X48077262Y-139105735D01*
X48077260Y-139105736D01*
X48077256Y-139105740D01*
X47905740Y-139277256D01*
X47758063Y-139469712D01*
X47636778Y-139679783D01*
X47543947Y-139903896D01*
X47481160Y-140138218D01*
X47449500Y-140378706D01*
X18300000Y-140378706D01*
X18300000Y-104199992D01*
X23099500Y-104199992D01*
X23099500Y-106600008D01*
X23108250Y-106685665D01*
X23110001Y-106702798D01*
X23165187Y-106869336D01*
X23257289Y-107018655D01*
X23381345Y-107142711D01*
X23530666Y-107234814D01*
X23697203Y-107289999D01*
X23799992Y-107300500D01*
X25742447Y-107300500D01*
X25816947Y-107320462D01*
X25825217Y-107325604D01*
X25860821Y-107349394D01*
X26006503Y-107409737D01*
X26161158Y-107440500D01*
X35836367Y-107440500D01*
X35910867Y-107460462D01*
X35956910Y-107501919D01*
X35969892Y-107519787D01*
X35969896Y-107519792D01*
X36120208Y-107670104D01*
X36198844Y-107727236D01*
X36284482Y-107789456D01*
X36333020Y-107849396D01*
X36345086Y-107925575D01*
X36317446Y-107997580D01*
X36284482Y-108030544D01*
X36120209Y-108149895D01*
X36120206Y-108149897D01*
X35969897Y-108300206D01*
X35969895Y-108300209D01*
X35844950Y-108472181D01*
X35844950Y-108472182D01*
X35748446Y-108661582D01*
X35748441Y-108661594D01*
X35692307Y-108834357D01*
X35682754Y-108863757D01*
X35649500Y-109073713D01*
X35649500Y-109286287D01*
X35682754Y-109496243D01*
X35748443Y-109698412D01*
X35844949Y-109887816D01*
X35969896Y-110059792D01*
X36120208Y-110210104D01*
X36198844Y-110267236D01*
X36284482Y-110329456D01*
X36333020Y-110389396D01*
X36345086Y-110465575D01*
X36317446Y-110537580D01*
X36284482Y-110570544D01*
X36120209Y-110689895D01*
X36120206Y-110689897D01*
X35969897Y-110840206D01*
X35969895Y-110840209D01*
X35844950Y-111012181D01*
X35844950Y-111012182D01*
X35769523Y-111160217D01*
X35748443Y-111201588D01*
X35682754Y-111403757D01*
X35649500Y-111613713D01*
X35649500Y-111826287D01*
X35682754Y-112036243D01*
X35748443Y-112238412D01*
X35844949Y-112427816D01*
X35969896Y-112599792D01*
X36120208Y-112750104D01*
X36292184Y-112875051D01*
X36481588Y-112971557D01*
X36683757Y-113037246D01*
X36893713Y-113070500D01*
X36893718Y-113070500D01*
X37106282Y-113070500D01*
X37106287Y-113070500D01*
X37316243Y-113037246D01*
X37518412Y-112971557D01*
X37707816Y-112875051D01*
X37879792Y-112750104D01*
X38030104Y-112599792D01*
X38155051Y-112427816D01*
X38251557Y-112238412D01*
X38317246Y-112036243D01*
X38350500Y-111826287D01*
X38350500Y-111613713D01*
X38317246Y-111403757D01*
X38251557Y-111201588D01*
X38155051Y-111012184D01*
X38030104Y-110840208D01*
X37879792Y-110689896D01*
X37715517Y-110570544D01*
X37666979Y-110510604D01*
X37654913Y-110434426D01*
X37682553Y-110362420D01*
X37715517Y-110329456D01*
X37722519Y-110324368D01*
X37879792Y-110210104D01*
X38030104Y-110059792D01*
X38155051Y-109887816D01*
X38251557Y-109698412D01*
X38317246Y-109496243D01*
X38350500Y-109286287D01*
X38350500Y-109073713D01*
X38317246Y-108863757D01*
X38251557Y-108661588D01*
X38155051Y-108472184D01*
X38030104Y-108300208D01*
X37879792Y-108149896D01*
X37715517Y-108030544D01*
X37666979Y-107970604D01*
X37654913Y-107894426D01*
X37682553Y-107822420D01*
X37715517Y-107789456D01*
X37722519Y-107784368D01*
X37879792Y-107670104D01*
X38030104Y-107519792D01*
X38155051Y-107347816D01*
X38251557Y-107158412D01*
X38317246Y-106956243D01*
X38350500Y-106746287D01*
X38350500Y-106533713D01*
X38317246Y-106323757D01*
X38251557Y-106121588D01*
X38155051Y-105932184D01*
X38030104Y-105760208D01*
X37944076Y-105674180D01*
X37905512Y-105607385D01*
X37905512Y-105530257D01*
X37944076Y-105463462D01*
X37997366Y-105429215D01*
X38028278Y-105417685D01*
X38092327Y-105393798D01*
X38092333Y-105393795D01*
X38149938Y-105350671D01*
X38207546Y-105307546D01*
X38293796Y-105192331D01*
X38344091Y-105057483D01*
X38345823Y-105041370D01*
X38350499Y-104997885D01*
X38350499Y-104997882D01*
X38350500Y-104997873D01*
X38350499Y-103775429D01*
X44784500Y-103775429D01*
X44784500Y-104024570D01*
X44817016Y-104271557D01*
X44817017Y-104271563D01*
X44817018Y-104271565D01*
X44881498Y-104512207D01*
X44976836Y-104742373D01*
X45101401Y-104958127D01*
X45253062Y-105155776D01*
X45429224Y-105331938D01*
X45626873Y-105483599D01*
X45842627Y-105608164D01*
X46072793Y-105703502D01*
X46313435Y-105767982D01*
X46313441Y-105767982D01*
X46313442Y-105767983D01*
X46380586Y-105776822D01*
X46560435Y-105800500D01*
X46809565Y-105800500D01*
X47056565Y-105767982D01*
X47297207Y-105703502D01*
X47527373Y-105608164D01*
X47743127Y-105483599D01*
X47940776Y-105331938D01*
X48116938Y-105155776D01*
X48268599Y-104958127D01*
X48393164Y-104742373D01*
X48488502Y-104512207D01*
X48552982Y-104271565D01*
X48585500Y-104024565D01*
X48585500Y-103775435D01*
X48560189Y-103583179D01*
X48552983Y-103528442D01*
X48552982Y-103528441D01*
X48552982Y-103528435D01*
X48488502Y-103287793D01*
X48393164Y-103057627D01*
X48268599Y-102841873D01*
X48116938Y-102644224D01*
X47940776Y-102468062D01*
X47743127Y-102316401D01*
X47659262Y-102267982D01*
X47527377Y-102191838D01*
X47527375Y-102191837D01*
X47527373Y-102191836D01*
X47392548Y-102135989D01*
X47297210Y-102096499D01*
X47297208Y-102096498D01*
X47297207Y-102096498D01*
X47056565Y-102032018D01*
X47056563Y-102032017D01*
X47056557Y-102032016D01*
X46809570Y-101999500D01*
X46809565Y-101999500D01*
X46560435Y-101999500D01*
X46560429Y-101999500D01*
X46313442Y-102032016D01*
X46072789Y-102096499D01*
X45842622Y-102191838D01*
X45626874Y-102316400D01*
X45429222Y-102468063D01*
X45253063Y-102644222D01*
X45101400Y-102841874D01*
X44976838Y-103057622D01*
X44881499Y-103287789D01*
X44817016Y-103528442D01*
X44784500Y-103775429D01*
X38350499Y-103775429D01*
X38350499Y-103202128D01*
X38344091Y-103142517D01*
X38329588Y-103103633D01*
X38293797Y-103007670D01*
X38293795Y-103007666D01*
X38207547Y-102892455D01*
X38207544Y-102892452D01*
X38092333Y-102806204D01*
X38092329Y-102806202D01*
X37957482Y-102755908D01*
X37897876Y-102749500D01*
X36102136Y-102749500D01*
X36102111Y-102749502D01*
X36042521Y-102755908D01*
X36042515Y-102755909D01*
X35907670Y-102806202D01*
X35907666Y-102806204D01*
X35792455Y-102892452D01*
X35792452Y-102892455D01*
X35706204Y-103007666D01*
X35706202Y-103007670D01*
X35655908Y-103142517D01*
X35649500Y-103202114D01*
X35649500Y-104997863D01*
X35649502Y-104997888D01*
X35655908Y-105057478D01*
X35655909Y-105057484D01*
X35706202Y-105192329D01*
X35706204Y-105192333D01*
X35792452Y-105307544D01*
X35792455Y-105307547D01*
X35907666Y-105393795D01*
X35907668Y-105393795D01*
X35907669Y-105393796D01*
X36002633Y-105429215D01*
X36065460Y-105473953D01*
X36097501Y-105544111D01*
X36090170Y-105620890D01*
X36059210Y-105670787D01*
X36057576Y-105672527D01*
X35969896Y-105760208D01*
X35951416Y-105785643D01*
X35945013Y-105792466D01*
X35919917Y-105808035D01*
X35896969Y-105826619D01*
X35886316Y-105828883D01*
X35879475Y-105833128D01*
X35864043Y-105833617D01*
X35836367Y-105839500D01*
X27049500Y-105839500D01*
X26975000Y-105819538D01*
X26920462Y-105765000D01*
X26900500Y-105690500D01*
X26900500Y-104199996D01*
X26900500Y-104199992D01*
X26889999Y-104097203D01*
X26834814Y-103930666D01*
X26742711Y-103781345D01*
X26618655Y-103657289D01*
X26469334Y-103565186D01*
X26358427Y-103528435D01*
X26302798Y-103510001D01*
X26302799Y-103510001D01*
X26268534Y-103506500D01*
X26200008Y-103499500D01*
X23799992Y-103499500D01*
X23731466Y-103506500D01*
X23697201Y-103510001D01*
X23530663Y-103565187D01*
X23381344Y-103657289D01*
X23257289Y-103781344D01*
X23165187Y-103930663D01*
X23110001Y-104097201D01*
X23110001Y-104097203D01*
X23099500Y-104199992D01*
X18300000Y-104199992D01*
X18300000Y-100275429D01*
X23099500Y-100275429D01*
X23099500Y-100524570D01*
X23132016Y-100771557D01*
X23196499Y-101012210D01*
X23220644Y-101070500D01*
X23291836Y-101242373D01*
X23416401Y-101458127D01*
X23568062Y-101655776D01*
X23744224Y-101831938D01*
X23941873Y-101983599D01*
X24157627Y-102108164D01*
X24387793Y-102203502D01*
X24628435Y-102267982D01*
X24628441Y-102267982D01*
X24628442Y-102267983D01*
X24695586Y-102276822D01*
X24875435Y-102300500D01*
X25124565Y-102300500D01*
X25371565Y-102267982D01*
X25612207Y-102203502D01*
X25842373Y-102108164D01*
X26058127Y-101983599D01*
X26255776Y-101831938D01*
X26431938Y-101655776D01*
X26583599Y-101458127D01*
X26708164Y-101242373D01*
X26803502Y-101012207D01*
X26867982Y-100771565D01*
X26900500Y-100524565D01*
X26900500Y-100275435D01*
X26867982Y-100028435D01*
X26803502Y-99787793D01*
X26708164Y-99557627D01*
X26583599Y-99341873D01*
X26431938Y-99144224D01*
X26255776Y-98968062D01*
X26058127Y-98816401D01*
X25986209Y-98774879D01*
X25842377Y-98691838D01*
X25842375Y-98691837D01*
X25842373Y-98691836D01*
X25707548Y-98635989D01*
X25612210Y-98596499D01*
X25612208Y-98596498D01*
X25612207Y-98596498D01*
X25371565Y-98532018D01*
X25371563Y-98532017D01*
X25371557Y-98532016D01*
X25124570Y-98499500D01*
X25124565Y-98499500D01*
X24875435Y-98499500D01*
X24875429Y-98499500D01*
X24628442Y-98532016D01*
X24387789Y-98596499D01*
X24157622Y-98691838D01*
X23941874Y-98816400D01*
X23744222Y-98968063D01*
X23568063Y-99144222D01*
X23416400Y-99341874D01*
X23291838Y-99557622D01*
X23196499Y-99787789D01*
X23132016Y-100028442D01*
X23099500Y-100275429D01*
X18300000Y-100275429D01*
X18300000Y-92199992D01*
X23099500Y-92199992D01*
X23099500Y-94600008D01*
X23101488Y-94619467D01*
X23110001Y-94702798D01*
X23137350Y-94785332D01*
X23156823Y-94844097D01*
X23165187Y-94869336D01*
X23257289Y-95018655D01*
X23381345Y-95142711D01*
X23530666Y-95234814D01*
X23697203Y-95289999D01*
X23799992Y-95300500D01*
X23799996Y-95300500D01*
X26200004Y-95300500D01*
X26200008Y-95300500D01*
X26302797Y-95289999D01*
X26469334Y-95234814D01*
X26618655Y-95142711D01*
X26742711Y-95018655D01*
X26834814Y-94869334D01*
X26889999Y-94702797D01*
X26900500Y-94600008D01*
X26900500Y-93049500D01*
X26920462Y-92975000D01*
X26975000Y-92920462D01*
X27049500Y-92900500D01*
X35505193Y-92900500D01*
X35579693Y-92920462D01*
X35634231Y-92975000D01*
X35653338Y-93033571D01*
X35655051Y-93049500D01*
X35655909Y-93057485D01*
X35706202Y-93192329D01*
X35706204Y-93192333D01*
X35792452Y-93307544D01*
X35792455Y-93307547D01*
X35907666Y-93393795D01*
X35907668Y-93393795D01*
X35907669Y-93393796D01*
X36002633Y-93429215D01*
X36065460Y-93473953D01*
X36097501Y-93544111D01*
X36090170Y-93620890D01*
X36055923Y-93674179D01*
X35969904Y-93760198D01*
X35969895Y-93760209D01*
X35844950Y-93932181D01*
X35844950Y-93932182D01*
X35844949Y-93932184D01*
X35748443Y-94121588D01*
X35682754Y-94323757D01*
X35649500Y-94533713D01*
X35649500Y-94746287D01*
X35682754Y-94956243D01*
X35748443Y-95158412D01*
X35844949Y-95347816D01*
X35969896Y-95519792D01*
X36120208Y-95670104D01*
X36198844Y-95727236D01*
X36284482Y-95789456D01*
X36333020Y-95849396D01*
X36345086Y-95925575D01*
X36317446Y-95997580D01*
X36284482Y-96030544D01*
X36120209Y-96149895D01*
X36120206Y-96149897D01*
X35969897Y-96300206D01*
X35969895Y-96300209D01*
X35844950Y-96472181D01*
X35844950Y-96472182D01*
X35748446Y-96661582D01*
X35748441Y-96661594D01*
X35692307Y-96834357D01*
X35682754Y-96863757D01*
X35649500Y-97073713D01*
X35649500Y-97286287D01*
X35682754Y-97496243D01*
X35748443Y-97698412D01*
X35844949Y-97887816D01*
X35969896Y-98059792D01*
X36120208Y-98210104D01*
X36198844Y-98267236D01*
X36284482Y-98329456D01*
X36333020Y-98389396D01*
X36345086Y-98465575D01*
X36317446Y-98537580D01*
X36284482Y-98570544D01*
X36120209Y-98689895D01*
X36120206Y-98689897D01*
X35969897Y-98840206D01*
X35969895Y-98840209D01*
X35844950Y-99012181D01*
X35844950Y-99012182D01*
X35844949Y-99012184D01*
X35748443Y-99201588D01*
X35682754Y-99403757D01*
X35649500Y-99613713D01*
X35649500Y-99826287D01*
X35682754Y-100036243D01*
X35748443Y-100238412D01*
X35839346Y-100416820D01*
X35844950Y-100427817D01*
X35844950Y-100427818D01*
X35891144Y-100491399D01*
X35969896Y-100599792D01*
X36120208Y-100750104D01*
X36292184Y-100875051D01*
X36481588Y-100971557D01*
X36683757Y-101037246D01*
X36893713Y-101070500D01*
X36893718Y-101070500D01*
X37106282Y-101070500D01*
X37106287Y-101070500D01*
X37316243Y-101037246D01*
X37518412Y-100971557D01*
X37707816Y-100875051D01*
X37879792Y-100750104D01*
X38030104Y-100599792D01*
X38155051Y-100427816D01*
X38251557Y-100238412D01*
X38317246Y-100036243D01*
X38350500Y-99826287D01*
X38350500Y-99613713D01*
X38317246Y-99403757D01*
X38251557Y-99201588D01*
X38155051Y-99012184D01*
X38030104Y-98840208D01*
X37879792Y-98689896D01*
X37715517Y-98570544D01*
X37666979Y-98510604D01*
X37654913Y-98434426D01*
X37682553Y-98362420D01*
X37715517Y-98329456D01*
X37722519Y-98324368D01*
X37879792Y-98210104D01*
X38030104Y-98059792D01*
X38155051Y-97887816D01*
X38251557Y-97698412D01*
X38317246Y-97496243D01*
X38350500Y-97286287D01*
X38350500Y-97073713D01*
X38317246Y-96863757D01*
X38251557Y-96661588D01*
X38155051Y-96472184D01*
X38030104Y-96300208D01*
X37879792Y-96149896D01*
X37715517Y-96030544D01*
X37666979Y-95970604D01*
X37654913Y-95894426D01*
X37682553Y-95822420D01*
X37715517Y-95789456D01*
X37795076Y-95731653D01*
X37879792Y-95670104D01*
X38030104Y-95519792D01*
X38155051Y-95347816D01*
X38251557Y-95158412D01*
X38317246Y-94956243D01*
X38350500Y-94746287D01*
X38350500Y-94533713D01*
X38317246Y-94323757D01*
X38251557Y-94121588D01*
X38155051Y-93932184D01*
X38143827Y-93916736D01*
X38130283Y-93898093D01*
X38030104Y-93760208D01*
X37944075Y-93674179D01*
X37905512Y-93607385D01*
X37905512Y-93530257D01*
X37944076Y-93463462D01*
X37997366Y-93429215D01*
X38028278Y-93417685D01*
X38092327Y-93393798D01*
X38092333Y-93393795D01*
X38149938Y-93350671D01*
X38207546Y-93307546D01*
X38293796Y-93192331D01*
X38344091Y-93057483D01*
X38350500Y-92997873D01*
X38350499Y-91202128D01*
X38344091Y-91142517D01*
X38329588Y-91103633D01*
X38293797Y-91007670D01*
X38293795Y-91007666D01*
X38207547Y-90892455D01*
X38207544Y-90892452D01*
X38092333Y-90806204D01*
X38092329Y-90806202D01*
X37957482Y-90755908D01*
X37897876Y-90749500D01*
X36102136Y-90749500D01*
X36102111Y-90749502D01*
X36042521Y-90755908D01*
X36042515Y-90755909D01*
X35907670Y-90806202D01*
X35907666Y-90806204D01*
X35792455Y-90892452D01*
X35792452Y-90892455D01*
X35706204Y-91007666D01*
X35706202Y-91007670D01*
X35655908Y-91142517D01*
X35653338Y-91166427D01*
X35625527Y-91238367D01*
X35565472Y-91286762D01*
X35505192Y-91299500D01*
X26221158Y-91299500D01*
X26066505Y-91330261D01*
X26066503Y-91330262D01*
X25920825Y-91390603D01*
X25920813Y-91390610D01*
X25795433Y-91474388D01*
X25722398Y-91499181D01*
X25712652Y-91499500D01*
X23799992Y-91499500D01*
X23731466Y-91506500D01*
X23697201Y-91510001D01*
X23530663Y-91565187D01*
X23381344Y-91657289D01*
X23257289Y-91781344D01*
X23165187Y-91930663D01*
X23110001Y-92097201D01*
X23110001Y-92097203D01*
X23099500Y-92199992D01*
X18300000Y-92199992D01*
X18300000Y-88275429D01*
X23099500Y-88275429D01*
X23099500Y-88524570D01*
X23132016Y-88771557D01*
X23132017Y-88771563D01*
X23132018Y-88771565D01*
X23195604Y-89008872D01*
X23196499Y-89012210D01*
X23210001Y-89044807D01*
X23291836Y-89242373D01*
X23416401Y-89458127D01*
X23568062Y-89655776D01*
X23744224Y-89831938D01*
X23941873Y-89983599D01*
X24157627Y-90108164D01*
X24387793Y-90203502D01*
X24628435Y-90267982D01*
X24628441Y-90267982D01*
X24628442Y-90267983D01*
X24695586Y-90276822D01*
X24875435Y-90300500D01*
X25124565Y-90300500D01*
X25371565Y-90267982D01*
X25612207Y-90203502D01*
X25842373Y-90108164D01*
X26058127Y-89983599D01*
X26255776Y-89831938D01*
X26431938Y-89655776D01*
X26583599Y-89458127D01*
X26708164Y-89242373D01*
X26803502Y-89012207D01*
X26867982Y-88771565D01*
X26900500Y-88524565D01*
X26900500Y-88275435D01*
X26867982Y-88028435D01*
X26803502Y-87787793D01*
X26708164Y-87557627D01*
X26583599Y-87341873D01*
X26431938Y-87144224D01*
X26255776Y-86968062D01*
X26058127Y-86816401D01*
X25986209Y-86774879D01*
X25842377Y-86691838D01*
X25842375Y-86691837D01*
X25842373Y-86691836D01*
X25707548Y-86635989D01*
X25612210Y-86596499D01*
X25612208Y-86596498D01*
X25612207Y-86596498D01*
X25371565Y-86532018D01*
X25371563Y-86532017D01*
X25371557Y-86532016D01*
X25124570Y-86499500D01*
X25124565Y-86499500D01*
X24875435Y-86499500D01*
X24875429Y-86499500D01*
X24628442Y-86532016D01*
X24387789Y-86596499D01*
X24157622Y-86691838D01*
X23941874Y-86816400D01*
X23744222Y-86968063D01*
X23568063Y-87144222D01*
X23416400Y-87341874D01*
X23291838Y-87557622D01*
X23196499Y-87787789D01*
X23132016Y-88028442D01*
X23099500Y-88275429D01*
X18300000Y-88275429D01*
X18300000Y-80199992D01*
X23099500Y-80199992D01*
X23099500Y-82600008D01*
X23108250Y-82685665D01*
X23110001Y-82702798D01*
X23165187Y-82869336D01*
X23257289Y-83018655D01*
X23381345Y-83142711D01*
X23530666Y-83234814D01*
X23697203Y-83289999D01*
X23799992Y-83300500D01*
X23799996Y-83300500D01*
X26200004Y-83300500D01*
X26200008Y-83300500D01*
X26302797Y-83289999D01*
X26469334Y-83234814D01*
X26618655Y-83142711D01*
X26742711Y-83018655D01*
X26834814Y-82869334D01*
X26889999Y-82702797D01*
X26900500Y-82600008D01*
X26900500Y-81049500D01*
X26920462Y-80975000D01*
X26975000Y-80920462D01*
X27049500Y-80900500D01*
X35505193Y-80900500D01*
X35579693Y-80920462D01*
X35634231Y-80975000D01*
X35653338Y-81033571D01*
X35655051Y-81049500D01*
X35655909Y-81057485D01*
X35706202Y-81192329D01*
X35706204Y-81192333D01*
X35792452Y-81307544D01*
X35792455Y-81307547D01*
X35907666Y-81393795D01*
X35907668Y-81393795D01*
X35907669Y-81393796D01*
X36002633Y-81429215D01*
X36065460Y-81473953D01*
X36097501Y-81544111D01*
X36090170Y-81620890D01*
X36055923Y-81674179D01*
X35969904Y-81760198D01*
X35969895Y-81760209D01*
X35844950Y-81932181D01*
X35844950Y-81932182D01*
X35844949Y-81932184D01*
X35748443Y-82121588D01*
X35682754Y-82323757D01*
X35649500Y-82533713D01*
X35649500Y-82746287D01*
X35682754Y-82956243D01*
X35748443Y-83158412D01*
X35844949Y-83347816D01*
X35969896Y-83519792D01*
X36120208Y-83670104D01*
X36198844Y-83727236D01*
X36284482Y-83789456D01*
X36333020Y-83849396D01*
X36345086Y-83925575D01*
X36317446Y-83997580D01*
X36284482Y-84030544D01*
X36120209Y-84149895D01*
X36120206Y-84149897D01*
X35969897Y-84300206D01*
X35969895Y-84300209D01*
X35844950Y-84472181D01*
X35844950Y-84472182D01*
X35844949Y-84472184D01*
X35748443Y-84661588D01*
X35682754Y-84863757D01*
X35649500Y-85073713D01*
X35649500Y-85286287D01*
X35682754Y-85496243D01*
X35748443Y-85698412D01*
X35844949Y-85887816D01*
X35969896Y-86059792D01*
X36120208Y-86210104D01*
X36198844Y-86267236D01*
X36284482Y-86329456D01*
X36333020Y-86389396D01*
X36345086Y-86465575D01*
X36317446Y-86537580D01*
X36284482Y-86570544D01*
X36120209Y-86689895D01*
X36120206Y-86689897D01*
X35969897Y-86840206D01*
X35969895Y-86840209D01*
X35844950Y-87012181D01*
X35844950Y-87012182D01*
X35844949Y-87012184D01*
X35748443Y-87201588D01*
X35682754Y-87403757D01*
X35649500Y-87613713D01*
X35649500Y-87826287D01*
X35682754Y-88036243D01*
X35748443Y-88238412D01*
X35844949Y-88427816D01*
X35969896Y-88599792D01*
X36120208Y-88750104D01*
X36292184Y-88875051D01*
X36481588Y-88971557D01*
X36683757Y-89037246D01*
X36893713Y-89070500D01*
X36893718Y-89070500D01*
X37106282Y-89070500D01*
X37106287Y-89070500D01*
X37316243Y-89037246D01*
X37518412Y-88971557D01*
X37707816Y-88875051D01*
X37879792Y-88750104D01*
X38030104Y-88599792D01*
X38155051Y-88427816D01*
X38251557Y-88238412D01*
X38317246Y-88036243D01*
X38350500Y-87826287D01*
X38350500Y-87613713D01*
X38317246Y-87403757D01*
X38251557Y-87201588D01*
X38155051Y-87012184D01*
X38030104Y-86840208D01*
X37879792Y-86689896D01*
X37715517Y-86570544D01*
X37666979Y-86510604D01*
X37654913Y-86434426D01*
X37682553Y-86362420D01*
X37715517Y-86329456D01*
X37722519Y-86324368D01*
X37879792Y-86210104D01*
X38030104Y-86059792D01*
X38155051Y-85887816D01*
X38251557Y-85698412D01*
X38317246Y-85496243D01*
X38350500Y-85286287D01*
X38350500Y-85073713D01*
X38317246Y-84863757D01*
X38251557Y-84661588D01*
X38155051Y-84472184D01*
X38152980Y-84469334D01*
X38048116Y-84325000D01*
X38030104Y-84300208D01*
X37879792Y-84149896D01*
X37715517Y-84030544D01*
X37666979Y-83970604D01*
X37654913Y-83894426D01*
X37682553Y-83822420D01*
X37715517Y-83789456D01*
X37722519Y-83784368D01*
X37879792Y-83670104D01*
X38030104Y-83519792D01*
X38155051Y-83347816D01*
X38251557Y-83158412D01*
X38317246Y-82956243D01*
X38350500Y-82746287D01*
X38350500Y-82533713D01*
X38317246Y-82323757D01*
X38251557Y-82121588D01*
X38155051Y-81932184D01*
X38030104Y-81760208D01*
X37944075Y-81674179D01*
X37905512Y-81607385D01*
X37905512Y-81530257D01*
X37944076Y-81463462D01*
X37997366Y-81429215D01*
X38028278Y-81417685D01*
X38092327Y-81393798D01*
X38092333Y-81393795D01*
X38149938Y-81350671D01*
X38207546Y-81307546D01*
X38293796Y-81192331D01*
X38303921Y-81165186D01*
X38344091Y-81057482D01*
X38350499Y-80997885D01*
X38350499Y-80997882D01*
X38350500Y-80997873D01*
X38350499Y-79202128D01*
X38344091Y-79142517D01*
X38312615Y-79058125D01*
X38293797Y-79007670D01*
X38293795Y-79007666D01*
X38207547Y-78892455D01*
X38207544Y-78892452D01*
X38092333Y-78806204D01*
X38092329Y-78806202D01*
X37957482Y-78755908D01*
X37897876Y-78749500D01*
X36102136Y-78749500D01*
X36102111Y-78749502D01*
X36042521Y-78755908D01*
X36042515Y-78755909D01*
X35907670Y-78806202D01*
X35907666Y-78806204D01*
X35792455Y-78892452D01*
X35792452Y-78892455D01*
X35706204Y-79007666D01*
X35706202Y-79007670D01*
X35655908Y-79142517D01*
X35653338Y-79166427D01*
X35625527Y-79238367D01*
X35565472Y-79286762D01*
X35505192Y-79299500D01*
X26221158Y-79299500D01*
X26066505Y-79330261D01*
X26066503Y-79330262D01*
X25920825Y-79390603D01*
X25920813Y-79390610D01*
X25795433Y-79474388D01*
X25722398Y-79499181D01*
X25712652Y-79499500D01*
X23799992Y-79499500D01*
X23731466Y-79506500D01*
X23697201Y-79510001D01*
X23530663Y-79565187D01*
X23381344Y-79657289D01*
X23257289Y-79781344D01*
X23165187Y-79930663D01*
X23110001Y-80097201D01*
X23110001Y-80097203D01*
X23099500Y-80199992D01*
X18300000Y-80199992D01*
X18300000Y-76275429D01*
X23099500Y-76275429D01*
X23099500Y-76524570D01*
X23132016Y-76771557D01*
X23196499Y-77012210D01*
X23220644Y-77070500D01*
X23291836Y-77242373D01*
X23416401Y-77458127D01*
X23568062Y-77655776D01*
X23744224Y-77831938D01*
X23941873Y-77983599D01*
X24157627Y-78108164D01*
X24387793Y-78203502D01*
X24628435Y-78267982D01*
X24628441Y-78267982D01*
X24628442Y-78267983D01*
X24695586Y-78276822D01*
X24875435Y-78300500D01*
X25124565Y-78300500D01*
X25371565Y-78267982D01*
X25612207Y-78203502D01*
X25842373Y-78108164D01*
X26058127Y-77983599D01*
X26255776Y-77831938D01*
X26431938Y-77655776D01*
X26583599Y-77458127D01*
X26708164Y-77242373D01*
X26803502Y-77012207D01*
X26867982Y-76771565D01*
X26900500Y-76524565D01*
X26900500Y-76275435D01*
X26867982Y-76028435D01*
X26803502Y-75787793D01*
X26708164Y-75557627D01*
X26583599Y-75341873D01*
X26431938Y-75144224D01*
X26255776Y-74968062D01*
X26058127Y-74816401D01*
X25929906Y-74742373D01*
X25842377Y-74691838D01*
X25842375Y-74691837D01*
X25842373Y-74691836D01*
X25707548Y-74635989D01*
X25612210Y-74596499D01*
X25612208Y-74596498D01*
X25612207Y-74596498D01*
X25371565Y-74532018D01*
X25371563Y-74532017D01*
X25371557Y-74532016D01*
X25124570Y-74499500D01*
X25124565Y-74499500D01*
X24875435Y-74499500D01*
X24875429Y-74499500D01*
X24628442Y-74532016D01*
X24387789Y-74596499D01*
X24157622Y-74691838D01*
X23941874Y-74816400D01*
X23744222Y-74968063D01*
X23568063Y-75144222D01*
X23416400Y-75341874D01*
X23291838Y-75557622D01*
X23196499Y-75787789D01*
X23132016Y-76028442D01*
X23099500Y-76275429D01*
X18300000Y-76275429D01*
X18300000Y-68199992D01*
X23099500Y-68199992D01*
X23099500Y-70600008D01*
X23108250Y-70685665D01*
X23110001Y-70702798D01*
X23165187Y-70869336D01*
X23257289Y-71018655D01*
X23381345Y-71142711D01*
X23530666Y-71234814D01*
X23697203Y-71289999D01*
X23799992Y-71300500D01*
X25974457Y-71300500D01*
X26031475Y-71311841D01*
X26035672Y-71313580D01*
X26171006Y-71340500D01*
X26171007Y-71340500D01*
X35763714Y-71340500D01*
X35838214Y-71360462D01*
X35884258Y-71401921D01*
X35969890Y-71519785D01*
X35969895Y-71519791D01*
X35969896Y-71519792D01*
X36120208Y-71670104D01*
X36176742Y-71711178D01*
X36284482Y-71789456D01*
X36333020Y-71849396D01*
X36345086Y-71925575D01*
X36317446Y-71997580D01*
X36284482Y-72030544D01*
X36120209Y-72149895D01*
X36120206Y-72149897D01*
X35969897Y-72300206D01*
X35969895Y-72300209D01*
X35844950Y-72472181D01*
X35844950Y-72472182D01*
X35748446Y-72661582D01*
X35748441Y-72661594D01*
X35682754Y-72863756D01*
X35681242Y-72873301D01*
X35649500Y-73073713D01*
X35649500Y-73286287D01*
X35682754Y-73496243D01*
X35748443Y-73698412D01*
X35844949Y-73887816D01*
X35969896Y-74059792D01*
X36120208Y-74210104D01*
X36198844Y-74267236D01*
X36284482Y-74329456D01*
X36333020Y-74389396D01*
X36345086Y-74465575D01*
X36317446Y-74537580D01*
X36284482Y-74570544D01*
X36120209Y-74689895D01*
X36120206Y-74689897D01*
X35969897Y-74840206D01*
X35969895Y-74840209D01*
X35844950Y-75012181D01*
X35844950Y-75012182D01*
X35748446Y-75201582D01*
X35748441Y-75201594D01*
X35706090Y-75331938D01*
X35682754Y-75403757D01*
X35649500Y-75613713D01*
X35649500Y-75826287D01*
X35682754Y-76036243D01*
X35748443Y-76238412D01*
X35844949Y-76427816D01*
X35969896Y-76599792D01*
X36120208Y-76750104D01*
X36292184Y-76875051D01*
X36481588Y-76971557D01*
X36683757Y-77037246D01*
X36893713Y-77070500D01*
X36893718Y-77070500D01*
X37106282Y-77070500D01*
X37106287Y-77070500D01*
X37316243Y-77037246D01*
X37518412Y-76971557D01*
X37707816Y-76875051D01*
X37879792Y-76750104D01*
X38030104Y-76599792D01*
X38155051Y-76427816D01*
X38251557Y-76238412D01*
X38317246Y-76036243D01*
X38350500Y-75826287D01*
X38350500Y-75613713D01*
X38317246Y-75403757D01*
X38251557Y-75201588D01*
X38155051Y-75012184D01*
X38030104Y-74840208D01*
X37879792Y-74689896D01*
X37715517Y-74570544D01*
X37666979Y-74510604D01*
X37654913Y-74434426D01*
X37682553Y-74362420D01*
X37715517Y-74329456D01*
X37722519Y-74324368D01*
X37879792Y-74210104D01*
X38030104Y-74059792D01*
X38155051Y-73887816D01*
X38212315Y-73775429D01*
X44784500Y-73775429D01*
X44784500Y-74024570D01*
X44817016Y-74271557D01*
X44817017Y-74271563D01*
X44817018Y-74271565D01*
X44881068Y-74510604D01*
X44881499Y-74512210D01*
X44916413Y-74596499D01*
X44976836Y-74742373D01*
X45101401Y-74958127D01*
X45253062Y-75155776D01*
X45429224Y-75331938D01*
X45626873Y-75483599D01*
X45842627Y-75608164D01*
X46072793Y-75703502D01*
X46313435Y-75767982D01*
X46313441Y-75767982D01*
X46313442Y-75767983D01*
X46380586Y-75776822D01*
X46560435Y-75800500D01*
X46809565Y-75800500D01*
X47056565Y-75767982D01*
X47297207Y-75703502D01*
X47527373Y-75608164D01*
X47743127Y-75483599D01*
X47940776Y-75331938D01*
X48116938Y-75155776D01*
X48268599Y-74958127D01*
X48393164Y-74742373D01*
X48488502Y-74512207D01*
X48552982Y-74271565D01*
X48564197Y-74186371D01*
X48593711Y-74115117D01*
X48606555Y-74100470D01*
X49864586Y-72842441D01*
X49931381Y-72803877D01*
X49969945Y-72798800D01*
X67068194Y-72798800D01*
X67142694Y-72818762D01*
X67197232Y-72873300D01*
X67217194Y-72947800D01*
X67197232Y-73022300D01*
X67197231Y-73022301D01*
X67176839Y-73057619D01*
X67081499Y-73287789D01*
X67017016Y-73528442D01*
X66984500Y-73775429D01*
X66984500Y-74024570D01*
X67017016Y-74271557D01*
X67017017Y-74271563D01*
X67017018Y-74271565D01*
X67081068Y-74510604D01*
X67081499Y-74512210D01*
X67116413Y-74596499D01*
X67176836Y-74742373D01*
X67301401Y-74958127D01*
X67453062Y-75155776D01*
X67629224Y-75331938D01*
X67826873Y-75483599D01*
X68042627Y-75608164D01*
X68272793Y-75703502D01*
X68513435Y-75767982D01*
X68513441Y-75767982D01*
X68513442Y-75767983D01*
X68580586Y-75776822D01*
X68760435Y-75800500D01*
X69009565Y-75800500D01*
X69256565Y-75767982D01*
X69497207Y-75703502D01*
X69727373Y-75608164D01*
X69943127Y-75483599D01*
X70140776Y-75331938D01*
X70316938Y-75155776D01*
X70468599Y-74958127D01*
X70593164Y-74742373D01*
X70688502Y-74512207D01*
X70752982Y-74271565D01*
X70785500Y-74024565D01*
X70785500Y-73775435D01*
X70752982Y-73528435D01*
X70688502Y-73287793D01*
X70593164Y-73057627D01*
X70593161Y-73057622D01*
X70593160Y-73057619D01*
X70572769Y-73022301D01*
X70552806Y-72947801D01*
X70572768Y-72873301D01*
X70627305Y-72818763D01*
X70701805Y-72798800D01*
X79900055Y-72798800D01*
X79974555Y-72818762D01*
X80005414Y-72842441D01*
X81263435Y-74100462D01*
X81301999Y-74167257D01*
X81305801Y-74186372D01*
X81317015Y-74271551D01*
X81317017Y-74271563D01*
X81348591Y-74389396D01*
X81381068Y-74510604D01*
X81381499Y-74512210D01*
X81416413Y-74596499D01*
X81476836Y-74742373D01*
X81601401Y-74958127D01*
X81753062Y-75155776D01*
X81929224Y-75331938D01*
X82126873Y-75483599D01*
X82342627Y-75608164D01*
X82572793Y-75703502D01*
X82813435Y-75767982D01*
X82813441Y-75767982D01*
X82813442Y-75767983D01*
X82880586Y-75776822D01*
X83060435Y-75800500D01*
X83309565Y-75800500D01*
X83556565Y-75767982D01*
X83797207Y-75703502D01*
X84027373Y-75608164D01*
X84243127Y-75483599D01*
X84440776Y-75331938D01*
X84616938Y-75155776D01*
X84768599Y-74958127D01*
X84893164Y-74742373D01*
X84988502Y-74512207D01*
X85052982Y-74271565D01*
X85064197Y-74186371D01*
X85093711Y-74115117D01*
X85106555Y-74100470D01*
X86662886Y-72544141D01*
X86729681Y-72505577D01*
X86768245Y-72500500D01*
X90741680Y-72500500D01*
X90816180Y-72520462D01*
X90870718Y-72575000D01*
X90890680Y-72649500D01*
X90870718Y-72724000D01*
X90816180Y-72778538D01*
X90809335Y-72782254D01*
X90776863Y-72798800D01*
X90714693Y-72830477D01*
X90555463Y-72946165D01*
X90555452Y-72946174D01*
X74804574Y-88697052D01*
X74804565Y-88697063D01*
X74688877Y-88856293D01*
X74599519Y-89031668D01*
X74599514Y-89031680D01*
X74595249Y-89044807D01*
X74538691Y-89218874D01*
X74507900Y-89413283D01*
X74507900Y-89610117D01*
X74537355Y-89796088D01*
X74538691Y-89804526D01*
X74538691Y-89804528D01*
X74546304Y-89827957D01*
X74550341Y-89904979D01*
X74515326Y-89973701D01*
X74450640Y-90015707D01*
X74404597Y-90023000D01*
X70689220Y-90023000D01*
X70614720Y-90003038D01*
X70560182Y-89948500D01*
X70540220Y-89874000D01*
X70560182Y-89799500D01*
X70577998Y-89768641D01*
X70593164Y-89742373D01*
X70688502Y-89512207D01*
X70752982Y-89271565D01*
X70785500Y-89024565D01*
X70785500Y-88775435D01*
X70752982Y-88528435D01*
X70688502Y-88287793D01*
X70593164Y-88057627D01*
X70468599Y-87841873D01*
X70316938Y-87644224D01*
X70140776Y-87468062D01*
X69943127Y-87316401D01*
X69871209Y-87274879D01*
X69727377Y-87191838D01*
X69727375Y-87191837D01*
X69727373Y-87191836D01*
X69592548Y-87135989D01*
X69497210Y-87096499D01*
X69497208Y-87096498D01*
X69497207Y-87096498D01*
X69256565Y-87032018D01*
X69256563Y-87032017D01*
X69256557Y-87032016D01*
X69009570Y-86999500D01*
X69009565Y-86999500D01*
X68760435Y-86999500D01*
X68760429Y-86999500D01*
X68513442Y-87032016D01*
X68272789Y-87096499D01*
X68042622Y-87191838D01*
X67826874Y-87316400D01*
X67629222Y-87468063D01*
X67453063Y-87644222D01*
X67301400Y-87841874D01*
X67176838Y-88057622D01*
X67081499Y-88287789D01*
X67017016Y-88528442D01*
X66984500Y-88775429D01*
X66984500Y-89024570D01*
X67017016Y-89271557D01*
X67017017Y-89271563D01*
X67017018Y-89271565D01*
X67081498Y-89512207D01*
X67156016Y-89692110D01*
X67176838Y-89742377D01*
X67209818Y-89799500D01*
X67229780Y-89874000D01*
X67209818Y-89948500D01*
X67155280Y-90003038D01*
X67080780Y-90023000D01*
X49638192Y-90023000D01*
X49563692Y-90003038D01*
X49532833Y-89979359D01*
X48629141Y-89075667D01*
X48590577Y-89008872D01*
X48585500Y-88970308D01*
X48585500Y-88775435D01*
X48585499Y-88775429D01*
X48584990Y-88771565D01*
X48552982Y-88528435D01*
X48488502Y-88287793D01*
X48393164Y-88057627D01*
X48268599Y-87841873D01*
X48116938Y-87644224D01*
X47940776Y-87468062D01*
X47743127Y-87316401D01*
X47671209Y-87274879D01*
X47527377Y-87191838D01*
X47527375Y-87191837D01*
X47527373Y-87191836D01*
X47392548Y-87135989D01*
X47297210Y-87096499D01*
X47297208Y-87096498D01*
X47297207Y-87096498D01*
X47056565Y-87032018D01*
X47056563Y-87032017D01*
X47056557Y-87032016D01*
X46809570Y-86999500D01*
X46809565Y-86999500D01*
X46560435Y-86999500D01*
X46560429Y-86999500D01*
X46313442Y-87032016D01*
X46072789Y-87096499D01*
X45842622Y-87191838D01*
X45626874Y-87316400D01*
X45429222Y-87468063D01*
X45253063Y-87644222D01*
X45101400Y-87841874D01*
X44976838Y-88057622D01*
X44881499Y-88287789D01*
X44817016Y-88528442D01*
X44784500Y-88775429D01*
X44784500Y-89024570D01*
X44817016Y-89271557D01*
X44817017Y-89271563D01*
X44817018Y-89271565D01*
X44881498Y-89512207D01*
X44976836Y-89742373D01*
X45101401Y-89958127D01*
X45253062Y-90155776D01*
X45429224Y-90331938D01*
X45626873Y-90483599D01*
X45842627Y-90608164D01*
X46072793Y-90703502D01*
X46313435Y-90767982D01*
X46313441Y-90767982D01*
X46313442Y-90767983D01*
X46380586Y-90776822D01*
X46560435Y-90800500D01*
X46755308Y-90800500D01*
X46829808Y-90820462D01*
X46860667Y-90844141D01*
X48243854Y-92227328D01*
X48403095Y-92343024D01*
X48578474Y-92432384D01*
X48722494Y-92479179D01*
X48765674Y-92493209D01*
X48960083Y-92524000D01*
X48960084Y-92524000D01*
X48960088Y-92524000D01*
X74407718Y-92524000D01*
X74482218Y-92543962D01*
X74536756Y-92598500D01*
X74556718Y-92673000D01*
X74536756Y-92747500D01*
X74482218Y-92802038D01*
X74453762Y-92814706D01*
X74260408Y-92877532D01*
X74260403Y-92877534D01*
X74260397Y-92877537D01*
X74049969Y-92984755D01*
X74049964Y-92984758D01*
X73858896Y-93123577D01*
X64001477Y-102980996D01*
X63862662Y-103172058D01*
X63862659Y-103172063D01*
X63862657Y-103172066D01*
X63847340Y-103202128D01*
X63785824Y-103322861D01*
X63785823Y-103322862D01*
X63755433Y-103382503D01*
X63690229Y-103583182D01*
X63682447Y-103607132D01*
X63645500Y-103840408D01*
X63645500Y-103840412D01*
X63645500Y-109491354D01*
X63625538Y-109565854D01*
X63601859Y-109596713D01*
X53655913Y-119542658D01*
X53589118Y-119581222D01*
X53511990Y-119581222D01*
X53445195Y-119542658D01*
X53408847Y-119483343D01*
X53389568Y-119424008D01*
X53282343Y-119213567D01*
X53143517Y-119022490D01*
X52976510Y-118855483D01*
X52785433Y-118716657D01*
X52574992Y-118609432D01*
X52350368Y-118536447D01*
X52117092Y-118499500D01*
X50201092Y-118499500D01*
X49964908Y-118499500D01*
X49731632Y-118536447D01*
X49507008Y-118609432D01*
X49507002Y-118609434D01*
X49507002Y-118609435D01*
X49296565Y-118716658D01*
X49296564Y-118716658D01*
X49105491Y-118855481D01*
X49105488Y-118855483D01*
X45763780Y-122197193D01*
X45624957Y-122388264D01*
X45610785Y-122416081D01*
X45610784Y-122416082D01*
X45517737Y-122598697D01*
X45517734Y-122598703D01*
X45517732Y-122598708D01*
X45444747Y-122823332D01*
X45407800Y-123056608D01*
X45407800Y-133791808D01*
X45407800Y-134027992D01*
X45444747Y-134261268D01*
X45517732Y-134485892D01*
X45517736Y-134485901D01*
X45517737Y-134485902D01*
X45624954Y-134696330D01*
X45624957Y-134696334D01*
X45763783Y-134887410D01*
X46588790Y-135712418D01*
X46779867Y-135851243D01*
X46990308Y-135958468D01*
X47214932Y-136031453D01*
X47448208Y-136068400D01*
X47448209Y-136068400D01*
X47448213Y-136068400D01*
X50417387Y-136068400D01*
X50417392Y-136068400D01*
X50650668Y-136031453D01*
X50875292Y-135958468D01*
X51085734Y-135851243D01*
X51276810Y-135712417D01*
X52644517Y-134344710D01*
X52783343Y-134153634D01*
X52890568Y-133943192D01*
X52963553Y-133718568D01*
X52972668Y-133661016D01*
X53004037Y-133590558D01*
X53066434Y-133545222D01*
X53143139Y-133537159D01*
X53207413Y-133563782D01*
X53332435Y-133654616D01*
X53332444Y-133654621D01*
X53521779Y-133751093D01*
X53723871Y-133816757D01*
X53933758Y-133850000D01*
X54146242Y-133850000D01*
X54356128Y-133816757D01*
X54558220Y-133751093D01*
X54747555Y-133654622D01*
X54747557Y-133654620D01*
X54801716Y-133615270D01*
X54169408Y-132982962D01*
X54232993Y-132965925D01*
X54347007Y-132900099D01*
X54440099Y-132807007D01*
X54505925Y-132692993D01*
X54522962Y-132629409D01*
X55155269Y-133261716D01*
X55155270Y-133261716D01*
X55194620Y-133207557D01*
X55194622Y-133207555D01*
X55291093Y-133018220D01*
X55356757Y-132816128D01*
X55390000Y-132606242D01*
X55390000Y-132393757D01*
X55356757Y-132183871D01*
X55291093Y-131981779D01*
X55194621Y-131792444D01*
X55155270Y-131738282D01*
X54522962Y-132370589D01*
X54505925Y-132307007D01*
X54440099Y-132192993D01*
X54347007Y-132099901D01*
X54232993Y-132034075D01*
X54169407Y-132017037D01*
X54801716Y-131384729D01*
X54801716Y-131384728D01*
X54747555Y-131345378D01*
X54747555Y-131345377D01*
X54558220Y-131248906D01*
X54356128Y-131183242D01*
X54146242Y-131150000D01*
X53933758Y-131150000D01*
X53723871Y-131183242D01*
X53521779Y-131248906D01*
X53332444Y-131345378D01*
X53278282Y-131384728D01*
X53278282Y-131384729D01*
X53910590Y-132017037D01*
X53847007Y-132034075D01*
X53732993Y-132099901D01*
X53639901Y-132192993D01*
X53574075Y-132307007D01*
X53557037Y-132370591D01*
X52924729Y-131738282D01*
X52891161Y-131740924D01*
X52815325Y-131726868D01*
X52758928Y-131679963D01*
X52715514Y-131620209D01*
X52644517Y-131522490D01*
X52477510Y-131355483D01*
X52286433Y-131216657D01*
X52075992Y-131109432D01*
X51851368Y-131036447D01*
X51618092Y-130999500D01*
X51381908Y-130999500D01*
X51148632Y-131036447D01*
X50935005Y-131105859D01*
X50924008Y-131109432D01*
X50924002Y-131109434D01*
X50924002Y-131109435D01*
X50713565Y-131216658D01*
X50522499Y-131355476D01*
X50522494Y-131355479D01*
X50522490Y-131355483D01*
X50522488Y-131355485D01*
X50522487Y-131355486D01*
X50468075Y-131409898D01*
X50401280Y-131448461D01*
X50324152Y-131448461D01*
X50257357Y-131409896D01*
X50243437Y-131393831D01*
X50167547Y-131292455D01*
X50167544Y-131292452D01*
X50052333Y-131206204D01*
X50052329Y-131206202D01*
X49917482Y-131155908D01*
X49857885Y-131149500D01*
X49857873Y-131149500D01*
X48557800Y-131149500D01*
X48483300Y-131129538D01*
X48428762Y-131075000D01*
X48408800Y-131000500D01*
X48408800Y-125799499D01*
X48428762Y-125724999D01*
X48483300Y-125670461D01*
X48557800Y-125650499D01*
X50117864Y-125650499D01*
X50117872Y-125650499D01*
X50177483Y-125644091D01*
X50273447Y-125608298D01*
X50312329Y-125593797D01*
X50312333Y-125593795D01*
X50392964Y-125533434D01*
X50427546Y-125507546D01*
X50503438Y-125406167D01*
X50564063Y-125358491D01*
X50640406Y-125347515D01*
X50712009Y-125376180D01*
X50728068Y-125390095D01*
X50782490Y-125444517D01*
X50973567Y-125583343D01*
X51184008Y-125690568D01*
X51408632Y-125763553D01*
X51641908Y-125800500D01*
X51641913Y-125800500D01*
X51878087Y-125800500D01*
X51878092Y-125800500D01*
X52111368Y-125763553D01*
X52335992Y-125690568D01*
X52546433Y-125583343D01*
X52737510Y-125444517D01*
X52904517Y-125277510D01*
X53018931Y-125120031D01*
X53078868Y-125071497D01*
X53151164Y-125059074D01*
X53184730Y-125061715D01*
X53817037Y-124429408D01*
X53834075Y-124492993D01*
X53899901Y-124607007D01*
X53992993Y-124700099D01*
X54107007Y-124765925D01*
X54170590Y-124782962D01*
X53538282Y-125415270D01*
X53592444Y-125454621D01*
X53592444Y-125454622D01*
X53781779Y-125551093D01*
X53983871Y-125616757D01*
X54193758Y-125650000D01*
X54406242Y-125650000D01*
X54616128Y-125616757D01*
X54818220Y-125551093D01*
X55007555Y-125454622D01*
X55007557Y-125454620D01*
X55061716Y-125415270D01*
X55061716Y-125415269D01*
X54429409Y-124782962D01*
X54492993Y-124765925D01*
X54607007Y-124700099D01*
X54700099Y-124607007D01*
X54765925Y-124492993D01*
X54782962Y-124429409D01*
X55415269Y-125061716D01*
X55415270Y-125061716D01*
X55454620Y-125007557D01*
X55454622Y-125007555D01*
X55551093Y-124818220D01*
X55616757Y-124616128D01*
X55650000Y-124406242D01*
X55650000Y-124193757D01*
X55616757Y-123983871D01*
X55551093Y-123781779D01*
X55454621Y-123592444D01*
X55415270Y-123538282D01*
X54782962Y-124170589D01*
X54765925Y-124107007D01*
X54700099Y-123992993D01*
X54607007Y-123899901D01*
X54492993Y-123834075D01*
X54429408Y-123817037D01*
X55061716Y-123184729D01*
X55061716Y-123184728D01*
X55007555Y-123145378D01*
X55007555Y-123145377D01*
X54818226Y-123048908D01*
X54729068Y-123019940D01*
X54664383Y-122977933D01*
X54629367Y-122909211D01*
X54633403Y-122832189D01*
X54669748Y-122772878D01*
X66290518Y-111152110D01*
X66429343Y-110961033D01*
X66536568Y-110750592D01*
X66609553Y-110525968D01*
X66646500Y-110292692D01*
X66646500Y-110056508D01*
X66646500Y-104641744D01*
X66666462Y-104567244D01*
X66690138Y-104536388D01*
X66821418Y-104405108D01*
X66888212Y-104366545D01*
X66965340Y-104366545D01*
X67032135Y-104405109D01*
X67070698Y-104471901D01*
X67081498Y-104512207D01*
X67176836Y-104742373D01*
X67301401Y-104958127D01*
X67453062Y-105155776D01*
X67629224Y-105331938D01*
X67826873Y-105483599D01*
X68042627Y-105608164D01*
X68272793Y-105703502D01*
X68513435Y-105767982D01*
X68513441Y-105767982D01*
X68513442Y-105767983D01*
X68580586Y-105776822D01*
X68760435Y-105800500D01*
X69009565Y-105800500D01*
X69256565Y-105767982D01*
X69497207Y-105703502D01*
X69727373Y-105608164D01*
X69943127Y-105483599D01*
X70140776Y-105331938D01*
X70316938Y-105155776D01*
X70400644Y-105046687D01*
X70468088Y-104958794D01*
X70529277Y-104911842D01*
X70586297Y-104900500D01*
X72467362Y-104900500D01*
X72541862Y-104920462D01*
X72572721Y-104944141D01*
X77060021Y-109431441D01*
X77098585Y-109498236D01*
X77098585Y-109575364D01*
X77060021Y-109642159D01*
X76993226Y-109680723D01*
X76954662Y-109685800D01*
X71513859Y-109685800D01*
X71481789Y-109692178D01*
X71320565Y-109724248D01*
X71320563Y-109724249D01*
X71138487Y-109799667D01*
X71138484Y-109799668D01*
X70974619Y-109909160D01*
X70974614Y-109909164D01*
X70835264Y-110048514D01*
X70835260Y-110048519D01*
X70725768Y-110212384D01*
X70725767Y-110212387D01*
X70650349Y-110394463D01*
X70650348Y-110394465D01*
X70611900Y-110587760D01*
X70611900Y-110784839D01*
X70650348Y-110978134D01*
X70650349Y-110978136D01*
X70725767Y-111160212D01*
X70725768Y-111160215D01*
X70753409Y-111201582D01*
X70835261Y-111324082D01*
X70974618Y-111463439D01*
X71083615Y-111536268D01*
X71138484Y-111572931D01*
X71138485Y-111572931D01*
X71138486Y-111572932D01*
X71320565Y-111648351D01*
X71513859Y-111686800D01*
X71513860Y-111686800D01*
X77468840Y-111686800D01*
X77468841Y-111686800D01*
X77662135Y-111648351D01*
X77844214Y-111572932D01*
X78008082Y-111463439D01*
X78147439Y-111324082D01*
X78256932Y-111160214D01*
X78327376Y-110990145D01*
X78374324Y-110928960D01*
X78445581Y-110899444D01*
X78522049Y-110909510D01*
X78570390Y-110941810D01*
X85559315Y-117930735D01*
X85559322Y-117930743D01*
X85563061Y-117934482D01*
X85702418Y-118073839D01*
X85811415Y-118146668D01*
X85866284Y-118183331D01*
X85866285Y-118183331D01*
X85866286Y-118183332D01*
X85887048Y-118191931D01*
X85887428Y-118192089D01*
X85935767Y-118224387D01*
X90407021Y-122695642D01*
X90445585Y-122762436D01*
X90445585Y-122839564D01*
X90407021Y-122906359D01*
X90340226Y-122944923D01*
X90301662Y-122950000D01*
X90193758Y-122950000D01*
X89983871Y-122983242D01*
X89781779Y-123048906D01*
X89592444Y-123145378D01*
X89538282Y-123184728D01*
X89538282Y-123184729D01*
X90170590Y-123817037D01*
X90107007Y-123834075D01*
X89992993Y-123899901D01*
X89899901Y-123992993D01*
X89834075Y-124107007D01*
X89817037Y-124170590D01*
X89184729Y-123538282D01*
X89184727Y-123538282D01*
X89150852Y-123584908D01*
X89090912Y-123633446D01*
X89014734Y-123645512D01*
X88942729Y-123617871D01*
X88909765Y-123584908D01*
X88833518Y-123479963D01*
X88790104Y-123420208D01*
X88639792Y-123269896D01*
X88467816Y-123144949D01*
X88278412Y-123048443D01*
X88076243Y-122982754D01*
X87866287Y-122949500D01*
X87653713Y-122949500D01*
X87497670Y-122974215D01*
X87443756Y-122982754D01*
X87278772Y-123036361D01*
X87241588Y-123048443D01*
X87241582Y-123048445D01*
X87241582Y-123048446D01*
X87052182Y-123144950D01*
X87052181Y-123144950D01*
X86880209Y-123269895D01*
X86880198Y-123269904D01*
X86794179Y-123355923D01*
X86727384Y-123394487D01*
X86650256Y-123394487D01*
X86583462Y-123355922D01*
X86549215Y-123302633D01*
X86537008Y-123269904D01*
X86513796Y-123207669D01*
X86513795Y-123207668D01*
X86513795Y-123207666D01*
X86427547Y-123092455D01*
X86427544Y-123092452D01*
X86312333Y-123006204D01*
X86312329Y-123006202D01*
X86177482Y-122955908D01*
X86117876Y-122949500D01*
X84322136Y-122949500D01*
X84322111Y-122949502D01*
X84262521Y-122955908D01*
X84262515Y-122955909D01*
X84127670Y-123006202D01*
X84127666Y-123006204D01*
X84012455Y-123092452D01*
X84012452Y-123092455D01*
X83926204Y-123207666D01*
X83926202Y-123207670D01*
X83875908Y-123342517D01*
X83869500Y-123402114D01*
X83869500Y-123402127D01*
X83869500Y-124132923D01*
X83869501Y-124730700D01*
X83849539Y-124805200D01*
X83795001Y-124859738D01*
X83720501Y-124879700D01*
X79736198Y-124879700D01*
X79661698Y-124859738D01*
X79607160Y-124805200D01*
X79587198Y-124730700D01*
X79594491Y-124684656D01*
X79616757Y-124616126D01*
X79650000Y-124406242D01*
X79650000Y-124193757D01*
X79616757Y-123983871D01*
X79551093Y-123781779D01*
X79454621Y-123592444D01*
X79415270Y-123538282D01*
X78782962Y-124170589D01*
X78765925Y-124107007D01*
X78700099Y-123992993D01*
X78607007Y-123899901D01*
X78492993Y-123834075D01*
X78429407Y-123817037D01*
X79061716Y-123184729D01*
X79061716Y-123184728D01*
X79007555Y-123145378D01*
X79007555Y-123145377D01*
X78818220Y-123048906D01*
X78616128Y-122983242D01*
X78406242Y-122950000D01*
X78193758Y-122950000D01*
X77983871Y-122983242D01*
X77781779Y-123048906D01*
X77592444Y-123145378D01*
X77538282Y-123184728D01*
X77538282Y-123184729D01*
X78170590Y-123817037D01*
X78107007Y-123834075D01*
X77992993Y-123899901D01*
X77899901Y-123992993D01*
X77834075Y-124107007D01*
X77817037Y-124170590D01*
X77184729Y-123538282D01*
X77184727Y-123538282D01*
X77150852Y-123584908D01*
X77090912Y-123633446D01*
X77014734Y-123645512D01*
X76942729Y-123617871D01*
X76909765Y-123584908D01*
X76833518Y-123479963D01*
X76790104Y-123420208D01*
X76639792Y-123269896D01*
X76467816Y-123144949D01*
X76278412Y-123048443D01*
X76076243Y-122982754D01*
X75866287Y-122949500D01*
X75653713Y-122949500D01*
X75497670Y-122974215D01*
X75443756Y-122982754D01*
X75278772Y-123036361D01*
X75241588Y-123048443D01*
X75241582Y-123048445D01*
X75241582Y-123048446D01*
X75052182Y-123144950D01*
X75052181Y-123144950D01*
X74880209Y-123269895D01*
X74880198Y-123269904D01*
X74794179Y-123355923D01*
X74727384Y-123394487D01*
X74650256Y-123394487D01*
X74583462Y-123355922D01*
X74549215Y-123302633D01*
X74537008Y-123269904D01*
X74513796Y-123207669D01*
X74513795Y-123207668D01*
X74513795Y-123207666D01*
X74427547Y-123092455D01*
X74427544Y-123092452D01*
X74312333Y-123006204D01*
X74312329Y-123006202D01*
X74177482Y-122955908D01*
X74117876Y-122949500D01*
X72322136Y-122949500D01*
X72322111Y-122949502D01*
X72262521Y-122955908D01*
X72262515Y-122955909D01*
X72127670Y-123006202D01*
X72127666Y-123006204D01*
X72012455Y-123092452D01*
X72012452Y-123092455D01*
X71926204Y-123207666D01*
X71926202Y-123207670D01*
X71875908Y-123342517D01*
X71869500Y-123402114D01*
X71869500Y-123402127D01*
X71869500Y-124132923D01*
X71869501Y-124730700D01*
X71849539Y-124805200D01*
X71795001Y-124859738D01*
X71720501Y-124879700D01*
X67736198Y-124879700D01*
X67661698Y-124859738D01*
X67607160Y-124805200D01*
X67587198Y-124730700D01*
X67594491Y-124684656D01*
X67616757Y-124616126D01*
X67650000Y-124406242D01*
X67650000Y-124193757D01*
X67616757Y-123983871D01*
X67551093Y-123781779D01*
X67454621Y-123592444D01*
X67415270Y-123538282D01*
X66782962Y-124170589D01*
X66765925Y-124107007D01*
X66700099Y-123992993D01*
X66607007Y-123899901D01*
X66492993Y-123834075D01*
X66429407Y-123817037D01*
X67061716Y-123184729D01*
X67061716Y-123184728D01*
X67007555Y-123145378D01*
X67007555Y-123145377D01*
X66818220Y-123048906D01*
X66616128Y-122983242D01*
X66406242Y-122950000D01*
X66193758Y-122950000D01*
X65983871Y-122983242D01*
X65781779Y-123048906D01*
X65592444Y-123145378D01*
X65538282Y-123184728D01*
X65538282Y-123184729D01*
X66170590Y-123817037D01*
X66107007Y-123834075D01*
X65992993Y-123899901D01*
X65899901Y-123992993D01*
X65834075Y-124107007D01*
X65817037Y-124170590D01*
X65184729Y-123538282D01*
X65151161Y-123540924D01*
X65075325Y-123526868D01*
X65018928Y-123479963D01*
X64975514Y-123420209D01*
X64904517Y-123322490D01*
X64737510Y-123155483D01*
X64546433Y-123016657D01*
X64335992Y-122909432D01*
X64111368Y-122836447D01*
X63878092Y-122799500D01*
X63641908Y-122799500D01*
X63408632Y-122836447D01*
X63206100Y-122902254D01*
X63184008Y-122909432D01*
X63184002Y-122909434D01*
X63184002Y-122909435D01*
X62973565Y-123016658D01*
X62782499Y-123155476D01*
X62782494Y-123155479D01*
X62782490Y-123155483D01*
X62782488Y-123155485D01*
X62782487Y-123155486D01*
X62728075Y-123209898D01*
X62661280Y-123248461D01*
X62584152Y-123248461D01*
X62517357Y-123209896D01*
X62503437Y-123193831D01*
X62427547Y-123092455D01*
X62427544Y-123092452D01*
X62312333Y-123006204D01*
X62312329Y-123006202D01*
X62177482Y-122955908D01*
X62117885Y-122949500D01*
X62117873Y-122949500D01*
X61437844Y-122949500D01*
X61363344Y-122929538D01*
X61308806Y-122875000D01*
X61288844Y-122800500D01*
X61308806Y-122726000D01*
X61332485Y-122695141D01*
X61444536Y-122583090D01*
X63050118Y-120977510D01*
X63188943Y-120786433D01*
X63296168Y-120575992D01*
X63369153Y-120351368D01*
X63406100Y-120118092D01*
X63406100Y-119881908D01*
X63369153Y-119648631D01*
X63296168Y-119424008D01*
X63188943Y-119213566D01*
X63188941Y-119213563D01*
X63188940Y-119213561D01*
X63080816Y-119064742D01*
X63050118Y-119022490D01*
X62883110Y-118855482D01*
X62883102Y-118855476D01*
X62692038Y-118716659D01*
X62692030Y-118716655D01*
X62481602Y-118609437D01*
X62481601Y-118609436D01*
X62481592Y-118609432D01*
X62256969Y-118536447D01*
X62023692Y-118499500D01*
X61787508Y-118499500D01*
X61554232Y-118536447D01*
X61329608Y-118609432D01*
X61329602Y-118609434D01*
X61329602Y-118609435D01*
X61119165Y-118716658D01*
X61119164Y-118716658D01*
X60928091Y-118855481D01*
X60928088Y-118855483D01*
X58023777Y-121759796D01*
X57884958Y-121950864D01*
X57884955Y-121950869D01*
X57777737Y-122161297D01*
X57777734Y-122161303D01*
X57777732Y-122161308D01*
X57704747Y-122385932D01*
X57667800Y-122619208D01*
X57667800Y-127190708D01*
X57667800Y-127426892D01*
X57704747Y-127660168D01*
X57777732Y-127884792D01*
X57777736Y-127884801D01*
X57777737Y-127884802D01*
X57884955Y-128095230D01*
X57884958Y-128095235D01*
X58023777Y-128286303D01*
X58023780Y-128286306D01*
X58023783Y-128286310D01*
X59375253Y-129637780D01*
X60632614Y-130895141D01*
X60671178Y-130961936D01*
X60671178Y-131039064D01*
X60632614Y-131105859D01*
X60565819Y-131144423D01*
X60527255Y-131149500D01*
X60062136Y-131149500D01*
X60062111Y-131149502D01*
X60002521Y-131155908D01*
X60002515Y-131155909D01*
X59867670Y-131206202D01*
X59867666Y-131206204D01*
X59752455Y-131292452D01*
X59752452Y-131292455D01*
X59666204Y-131407666D01*
X59666202Y-131407670D01*
X59615908Y-131542517D01*
X59609500Y-131602114D01*
X59609500Y-133397863D01*
X59609502Y-133397888D01*
X59615908Y-133457478D01*
X59615909Y-133457484D01*
X59666202Y-133592329D01*
X59666204Y-133592333D01*
X59752452Y-133707544D01*
X59752455Y-133707547D01*
X59867666Y-133793795D01*
X59867670Y-133793797D01*
X60002517Y-133844091D01*
X60062114Y-133850499D01*
X60062118Y-133850499D01*
X60062127Y-133850500D01*
X61857872Y-133850499D01*
X61917483Y-133844091D01*
X62013447Y-133808298D01*
X62052329Y-133793797D01*
X62052333Y-133793795D01*
X62109938Y-133750671D01*
X62167546Y-133707546D01*
X62243438Y-133606167D01*
X62304063Y-133558491D01*
X62380406Y-133547515D01*
X62452009Y-133576180D01*
X62468068Y-133590095D01*
X62522490Y-133644517D01*
X62713567Y-133783343D01*
X62924008Y-133890568D01*
X63148632Y-133963553D01*
X63381908Y-134000500D01*
X63381913Y-134000500D01*
X63618087Y-134000500D01*
X63618092Y-134000500D01*
X63851368Y-133963553D01*
X64075992Y-133890568D01*
X64286433Y-133783343D01*
X64477510Y-133644517D01*
X64644517Y-133477510D01*
X64758931Y-133320031D01*
X64818868Y-133271497D01*
X64891164Y-133259074D01*
X64924730Y-133261715D01*
X65557037Y-132629408D01*
X65574075Y-132692993D01*
X65639901Y-132807007D01*
X65732993Y-132900099D01*
X65847007Y-132965925D01*
X65910590Y-132982962D01*
X65278282Y-133615270D01*
X65332444Y-133654621D01*
X65332444Y-133654622D01*
X65521779Y-133751093D01*
X65723871Y-133816757D01*
X65933758Y-133850000D01*
X66146242Y-133850000D01*
X66356128Y-133816757D01*
X66558220Y-133751093D01*
X66747555Y-133654622D01*
X66747557Y-133654620D01*
X66801716Y-133615270D01*
X66801716Y-133615269D01*
X66169409Y-132982962D01*
X66232993Y-132965925D01*
X66347007Y-132900099D01*
X66440099Y-132807007D01*
X66505925Y-132692993D01*
X66522962Y-132629409D01*
X67155269Y-133261716D01*
X67155270Y-133261716D01*
X67194620Y-133207557D01*
X67194622Y-133207555D01*
X67291093Y-133018220D01*
X67356757Y-132816128D01*
X67390000Y-132606242D01*
X67390000Y-132393757D01*
X67356757Y-132183871D01*
X67291093Y-131981779D01*
X67194621Y-131792444D01*
X67155270Y-131738282D01*
X66522962Y-132370589D01*
X66505925Y-132307007D01*
X66440099Y-132192993D01*
X66347007Y-132099901D01*
X66232993Y-132034075D01*
X66169408Y-132017037D01*
X66584331Y-131602114D01*
X71609500Y-131602114D01*
X71609500Y-133397863D01*
X71609502Y-133397888D01*
X71615908Y-133457478D01*
X71615909Y-133457484D01*
X71666202Y-133592329D01*
X71666204Y-133592333D01*
X71752452Y-133707544D01*
X71752455Y-133707547D01*
X71867666Y-133793795D01*
X71867670Y-133793797D01*
X72002517Y-133844091D01*
X72062114Y-133850499D01*
X72062118Y-133850499D01*
X72062127Y-133850500D01*
X73857872Y-133850499D01*
X73917483Y-133844091D01*
X74013447Y-133808298D01*
X74052329Y-133793797D01*
X74052333Y-133793795D01*
X74109938Y-133750671D01*
X74167546Y-133707546D01*
X74230324Y-133623686D01*
X74253795Y-133592333D01*
X74253798Y-133592327D01*
X74289215Y-133497367D01*
X74333953Y-133434540D01*
X74404110Y-133402498D01*
X74480889Y-133409829D01*
X74534180Y-133444076D01*
X74620208Y-133530104D01*
X74792184Y-133655051D01*
X74981588Y-133751557D01*
X75183757Y-133817246D01*
X75393713Y-133850500D01*
X75393718Y-133850500D01*
X75606282Y-133850500D01*
X75606287Y-133850500D01*
X75816243Y-133817246D01*
X76018412Y-133751557D01*
X76207816Y-133655051D01*
X76379792Y-133530104D01*
X76530104Y-133379792D01*
X76649767Y-133215089D01*
X76709704Y-133166552D01*
X76785883Y-133154486D01*
X76857888Y-133182126D01*
X76890852Y-133215089D01*
X76924729Y-133261716D01*
X77557037Y-132629408D01*
X77574075Y-132692993D01*
X77639901Y-132807007D01*
X77732993Y-132900099D01*
X77847007Y-132965925D01*
X77910590Y-132982962D01*
X77278281Y-133615270D01*
X77332444Y-133654621D01*
X77332444Y-133654622D01*
X77521779Y-133751093D01*
X77723871Y-133816757D01*
X77933758Y-133850000D01*
X78146242Y-133850000D01*
X78356128Y-133816757D01*
X78558220Y-133751093D01*
X78747555Y-133654622D01*
X78747557Y-133654620D01*
X78801716Y-133615270D01*
X78801716Y-133615269D01*
X78169409Y-132982962D01*
X78232993Y-132965925D01*
X78347007Y-132900099D01*
X78440099Y-132807007D01*
X78505925Y-132692993D01*
X78522962Y-132629409D01*
X79155269Y-133261716D01*
X79155270Y-133261716D01*
X79194620Y-133207557D01*
X79194622Y-133207555D01*
X79291093Y-133018220D01*
X79356757Y-132816128D01*
X79390000Y-132606242D01*
X79390000Y-132393757D01*
X79356757Y-132183871D01*
X79291093Y-131981779D01*
X79194621Y-131792444D01*
X79155270Y-131738282D01*
X78522962Y-132370589D01*
X78505925Y-132307007D01*
X78440099Y-132192993D01*
X78347007Y-132099901D01*
X78232993Y-132034075D01*
X78169407Y-132017037D01*
X78801716Y-131384729D01*
X78801716Y-131384728D01*
X78747555Y-131345378D01*
X78747555Y-131345377D01*
X78558220Y-131248906D01*
X78356128Y-131183242D01*
X78146242Y-131150000D01*
X77933758Y-131150000D01*
X77723871Y-131183242D01*
X77521779Y-131248906D01*
X77332444Y-131345378D01*
X77278282Y-131384728D01*
X77278282Y-131384729D01*
X77910590Y-132017037D01*
X77847007Y-132034075D01*
X77732993Y-132099901D01*
X77639901Y-132192993D01*
X77574075Y-132307007D01*
X77557037Y-132370590D01*
X76924729Y-131738282D01*
X76924727Y-131738282D01*
X76890852Y-131784908D01*
X76830912Y-131833446D01*
X76754734Y-131845512D01*
X76682729Y-131817871D01*
X76649765Y-131784908D01*
X76530108Y-131620214D01*
X76530104Y-131620208D01*
X76379792Y-131469896D01*
X76207816Y-131344949D01*
X76018412Y-131248443D01*
X75816243Y-131182754D01*
X75606287Y-131149500D01*
X75393713Y-131149500D01*
X75218749Y-131177211D01*
X75183756Y-131182754D01*
X74981594Y-131248441D01*
X74981588Y-131248443D01*
X74981582Y-131248445D01*
X74981582Y-131248446D01*
X74792182Y-131344950D01*
X74792181Y-131344950D01*
X74620209Y-131469895D01*
X74620198Y-131469904D01*
X74534179Y-131555923D01*
X74467384Y-131594487D01*
X74390256Y-131594487D01*
X74323462Y-131555922D01*
X74289215Y-131502633D01*
X74277006Y-131469898D01*
X74253796Y-131407669D01*
X74253795Y-131407668D01*
X74253795Y-131407666D01*
X74167547Y-131292455D01*
X74167544Y-131292452D01*
X74052333Y-131206204D01*
X74052329Y-131206202D01*
X73917482Y-131155908D01*
X73857876Y-131149500D01*
X72062136Y-131149500D01*
X72062111Y-131149502D01*
X72002521Y-131155908D01*
X72002515Y-131155909D01*
X71867670Y-131206202D01*
X71867666Y-131206204D01*
X71752455Y-131292452D01*
X71752452Y-131292455D01*
X71666204Y-131407666D01*
X71666202Y-131407670D01*
X71615908Y-131542517D01*
X71609500Y-131602114D01*
X66584331Y-131602114D01*
X66801716Y-131384729D01*
X66801716Y-131384728D01*
X66747555Y-131345378D01*
X66747555Y-131345377D01*
X66558220Y-131248906D01*
X66356128Y-131183242D01*
X66146242Y-131150000D01*
X65933758Y-131150000D01*
X65723871Y-131183242D01*
X65521779Y-131248906D01*
X65332444Y-131345378D01*
X65332443Y-131345378D01*
X65206320Y-131437012D01*
X65134314Y-131464652D01*
X65058136Y-131452586D01*
X64998196Y-131404048D01*
X64971574Y-131339776D01*
X64963553Y-131289132D01*
X64890568Y-131064508D01*
X64783343Y-130854067D01*
X64644517Y-130662990D01*
X64477510Y-130495983D01*
X60712441Y-126730914D01*
X60673877Y-126664119D01*
X60668800Y-126625555D01*
X60668800Y-125799499D01*
X60688762Y-125724999D01*
X60743300Y-125670461D01*
X60817800Y-125650499D01*
X62117864Y-125650499D01*
X62117872Y-125650499D01*
X62177483Y-125644091D01*
X62273447Y-125608298D01*
X62312329Y-125593797D01*
X62312329Y-125593796D01*
X62312331Y-125593796D01*
X62326176Y-125583431D01*
X62397778Y-125554765D01*
X62474121Y-125565740D01*
X62534749Y-125613416D01*
X62536013Y-125615130D01*
X62590822Y-125690568D01*
X62615483Y-125724510D01*
X64415690Y-127524718D01*
X64602121Y-127660167D01*
X64602122Y-127660168D01*
X64602126Y-127660171D01*
X64606769Y-127663545D01*
X64756764Y-127739970D01*
X64817208Y-127770768D01*
X65041832Y-127843753D01*
X65275108Y-127880700D01*
X65275109Y-127880700D01*
X65275113Y-127880700D01*
X80215211Y-127880700D01*
X80289711Y-127900662D01*
X80344249Y-127955200D01*
X80364211Y-128029700D01*
X80344249Y-128104200D01*
X80297991Y-128153589D01*
X80194319Y-128222860D01*
X80194314Y-128222864D01*
X80054964Y-128362214D01*
X80054960Y-128362219D01*
X79945468Y-128526084D01*
X79945467Y-128526087D01*
X79870049Y-128708163D01*
X79870048Y-128708165D01*
X79831600Y-128901460D01*
X79831600Y-129098539D01*
X79870048Y-129291834D01*
X79870049Y-129291836D01*
X79945467Y-129473912D01*
X79945468Y-129473915D01*
X80000261Y-129555918D01*
X80054961Y-129637782D01*
X80194318Y-129777139D01*
X80268110Y-129826445D01*
X80358182Y-129886630D01*
X80358184Y-129886631D01*
X80358186Y-129886632D01*
X80540265Y-129962051D01*
X80733559Y-130000500D01*
X83717662Y-130000500D01*
X83792162Y-130020462D01*
X83823021Y-130044141D01*
X84674021Y-130895141D01*
X84712585Y-130961936D01*
X84712585Y-131039064D01*
X84674021Y-131105859D01*
X84607226Y-131144423D01*
X84568662Y-131149500D01*
X84062136Y-131149500D01*
X84062111Y-131149502D01*
X84002521Y-131155908D01*
X84002515Y-131155909D01*
X83867670Y-131206202D01*
X83867666Y-131206204D01*
X83752455Y-131292452D01*
X83752452Y-131292455D01*
X83666204Y-131407666D01*
X83666202Y-131407670D01*
X83615908Y-131542517D01*
X83609500Y-131602114D01*
X83609500Y-133397863D01*
X83609502Y-133397888D01*
X83615908Y-133457478D01*
X83615909Y-133457484D01*
X83666202Y-133592329D01*
X83666204Y-133592333D01*
X83752452Y-133707544D01*
X83752455Y-133707547D01*
X83867666Y-133793795D01*
X83867670Y-133793797D01*
X84002517Y-133844091D01*
X84062114Y-133850499D01*
X84062118Y-133850499D01*
X84062127Y-133850500D01*
X85857872Y-133850499D01*
X85917483Y-133844091D01*
X86013447Y-133808298D01*
X86052329Y-133793797D01*
X86052333Y-133793795D01*
X86109938Y-133750671D01*
X86167546Y-133707546D01*
X86230324Y-133623686D01*
X86253795Y-133592333D01*
X86253798Y-133592327D01*
X86289215Y-133497367D01*
X86333953Y-133434540D01*
X86404110Y-133402498D01*
X86480889Y-133409829D01*
X86534180Y-133444076D01*
X86620208Y-133530104D01*
X86792184Y-133655051D01*
X86981588Y-133751557D01*
X87183757Y-133817246D01*
X87393713Y-133850500D01*
X87393718Y-133850500D01*
X87606282Y-133850500D01*
X87606287Y-133850500D01*
X87816243Y-133817246D01*
X88018412Y-133751557D01*
X88207816Y-133655051D01*
X88379792Y-133530104D01*
X88530104Y-133379792D01*
X88649767Y-133215089D01*
X88709704Y-133166552D01*
X88785883Y-133154486D01*
X88857888Y-133182126D01*
X88890852Y-133215089D01*
X88924729Y-133261716D01*
X89557037Y-132629408D01*
X89574075Y-132692993D01*
X89639901Y-132807007D01*
X89732993Y-132900099D01*
X89847007Y-132965925D01*
X89910590Y-132982962D01*
X89278282Y-133615270D01*
X89332444Y-133654621D01*
X89332444Y-133654622D01*
X89521779Y-133751093D01*
X89723871Y-133816757D01*
X89933758Y-133850000D01*
X90146242Y-133850000D01*
X90356128Y-133816757D01*
X90558220Y-133751093D01*
X90747555Y-133654622D01*
X90747557Y-133654620D01*
X90801716Y-133615270D01*
X90801716Y-133615269D01*
X90169409Y-132982962D01*
X90232993Y-132965925D01*
X90347007Y-132900099D01*
X90440099Y-132807007D01*
X90505925Y-132692993D01*
X90522962Y-132629409D01*
X91155269Y-133261716D01*
X91155270Y-133261716D01*
X91194620Y-133207557D01*
X91194622Y-133207555D01*
X91291093Y-133018220D01*
X91356757Y-132816128D01*
X91390000Y-132606242D01*
X91390000Y-132393757D01*
X91356757Y-132183871D01*
X91291093Y-131981779D01*
X91194621Y-131792444D01*
X91155270Y-131738282D01*
X90522962Y-132370589D01*
X90505925Y-132307007D01*
X90440099Y-132192993D01*
X90347007Y-132099901D01*
X90232993Y-132034075D01*
X90169407Y-132017037D01*
X90801716Y-131384729D01*
X90801716Y-131384728D01*
X90747555Y-131345378D01*
X90747555Y-131345377D01*
X90558220Y-131248906D01*
X90356128Y-131183242D01*
X90146242Y-131150000D01*
X89933758Y-131150000D01*
X89723871Y-131183242D01*
X89521779Y-131248906D01*
X89332444Y-131345378D01*
X89278282Y-131384728D01*
X89278282Y-131384729D01*
X89910590Y-132017037D01*
X89847007Y-132034075D01*
X89732993Y-132099901D01*
X89639901Y-132192993D01*
X89574075Y-132307007D01*
X89557037Y-132370590D01*
X88924729Y-131738282D01*
X88924727Y-131738282D01*
X88890852Y-131784908D01*
X88830912Y-131833446D01*
X88754734Y-131845512D01*
X88682729Y-131817871D01*
X88649765Y-131784908D01*
X88530108Y-131620214D01*
X88530104Y-131620208D01*
X88379792Y-131469896D01*
X88207816Y-131344949D01*
X88018412Y-131248443D01*
X87941896Y-131223581D01*
X87813573Y-131181886D01*
X87754258Y-131145538D01*
X84970941Y-128362221D01*
X84970939Y-128362218D01*
X84831582Y-128222861D01*
X84727908Y-128153588D01*
X84677055Y-128095601D01*
X84662008Y-128019955D01*
X84686800Y-127946920D01*
X84744788Y-127896066D01*
X84810689Y-127880700D01*
X93217987Y-127880700D01*
X93217992Y-127880700D01*
X93451268Y-127843753D01*
X93675892Y-127770768D01*
X93886333Y-127663543D01*
X94077410Y-127524717D01*
X94244417Y-127357710D01*
X94383243Y-127166633D01*
X94457143Y-127021595D01*
X94508750Y-126964279D01*
X94582103Y-126940445D01*
X94657546Y-126956481D01*
X94695261Y-126983882D01*
X98275859Y-130564479D01*
X98314423Y-130631274D01*
X98319500Y-130669838D01*
X98319500Y-131288217D01*
X98299538Y-131362717D01*
X98245000Y-131417255D01*
X98170500Y-131437217D01*
X98096000Y-131417255D01*
X98051220Y-131377511D01*
X98022971Y-131339776D01*
X97987546Y-131292454D01*
X97987544Y-131292453D01*
X97987544Y-131292452D01*
X97872333Y-131206204D01*
X97872329Y-131206202D01*
X97737482Y-131155908D01*
X97677876Y-131149500D01*
X95882136Y-131149500D01*
X95882111Y-131149502D01*
X95822521Y-131155908D01*
X95822515Y-131155909D01*
X95687670Y-131206202D01*
X95687666Y-131206204D01*
X95572455Y-131292452D01*
X95572452Y-131292455D01*
X95486204Y-131407666D01*
X95486202Y-131407670D01*
X95435908Y-131542517D01*
X95429500Y-131602114D01*
X95429500Y-133397863D01*
X95429502Y-133397888D01*
X95435908Y-133457478D01*
X95435909Y-133457484D01*
X95486202Y-133592329D01*
X95486204Y-133592333D01*
X95572452Y-133707544D01*
X95572455Y-133707547D01*
X95687666Y-133793795D01*
X95687670Y-133793797D01*
X95822517Y-133844091D01*
X95882114Y-133850499D01*
X95882118Y-133850499D01*
X95882127Y-133850500D01*
X97677872Y-133850499D01*
X97737483Y-133844091D01*
X97833447Y-133808298D01*
X97872329Y-133793797D01*
X97872333Y-133793795D01*
X97929938Y-133750671D01*
X97987546Y-133707546D01*
X98050324Y-133623686D01*
X98073795Y-133592333D01*
X98073798Y-133592327D01*
X98109215Y-133497367D01*
X98153953Y-133434540D01*
X98224110Y-133402498D01*
X98300889Y-133409829D01*
X98354180Y-133444076D01*
X98440208Y-133530104D01*
X98612184Y-133655051D01*
X98801588Y-133751557D01*
X99003757Y-133817246D01*
X99213713Y-133850500D01*
X99213718Y-133850500D01*
X99426282Y-133850500D01*
X99426287Y-133850500D01*
X99636243Y-133817246D01*
X99838412Y-133751557D01*
X100027816Y-133655051D01*
X100199792Y-133530104D01*
X100350104Y-133379792D01*
X100469767Y-133215089D01*
X100529704Y-133166552D01*
X100605883Y-133154486D01*
X100677888Y-133182126D01*
X100710852Y-133215089D01*
X100744729Y-133261716D01*
X101377037Y-132629408D01*
X101394075Y-132692993D01*
X101459901Y-132807007D01*
X101552993Y-132900099D01*
X101667007Y-132965925D01*
X101730590Y-132982962D01*
X101098282Y-133615270D01*
X101152444Y-133654621D01*
X101152444Y-133654622D01*
X101341779Y-133751093D01*
X101543871Y-133816757D01*
X101753758Y-133850000D01*
X101966242Y-133850000D01*
X102176128Y-133816757D01*
X102378220Y-133751093D01*
X102567555Y-133654622D01*
X102567557Y-133654620D01*
X102621716Y-133615270D01*
X102621716Y-133615269D01*
X101989409Y-132982962D01*
X102052993Y-132965925D01*
X102167007Y-132900099D01*
X102260099Y-132807007D01*
X102325925Y-132692993D01*
X102342962Y-132629409D01*
X102975269Y-133261716D01*
X102975270Y-133261716D01*
X103014620Y-133207557D01*
X103014622Y-133207555D01*
X103111093Y-133018220D01*
X103176757Y-132816128D01*
X103210000Y-132606242D01*
X103210000Y-132393757D01*
X103176757Y-132183871D01*
X103111093Y-131981779D01*
X103014621Y-131792444D01*
X102975270Y-131738282D01*
X102342962Y-132370589D01*
X102325925Y-132307007D01*
X102260099Y-132192993D01*
X102167007Y-132099901D01*
X102052993Y-132034075D01*
X101989407Y-132017037D01*
X102404331Y-131602114D01*
X115089500Y-131602114D01*
X115089500Y-133397863D01*
X115089502Y-133397888D01*
X115095908Y-133457478D01*
X115095909Y-133457484D01*
X115146202Y-133592329D01*
X115146204Y-133592333D01*
X115232452Y-133707544D01*
X115232455Y-133707547D01*
X115347666Y-133793795D01*
X115347670Y-133793797D01*
X115482514Y-133844090D01*
X115482517Y-133844091D01*
X115542127Y-133850500D01*
X115562126Y-133850499D01*
X115562127Y-133850500D01*
X117357872Y-133850499D01*
X117417483Y-133844091D01*
X117513447Y-133808298D01*
X117552329Y-133793797D01*
X117552333Y-133793795D01*
X117609938Y-133750671D01*
X117667546Y-133707546D01*
X117730324Y-133623686D01*
X117753795Y-133592333D01*
X117753798Y-133592327D01*
X117783782Y-133511934D01*
X117828520Y-133449107D01*
X117898677Y-133417065D01*
X117975456Y-133424396D01*
X118028747Y-133458643D01*
X118100208Y-133530104D01*
X118272184Y-133655051D01*
X118461588Y-133751557D01*
X118663757Y-133817246D01*
X118873713Y-133850500D01*
X118873718Y-133850500D01*
X119106282Y-133850500D01*
X119106287Y-133850500D01*
X119316243Y-133817246D01*
X119518412Y-133751557D01*
X119707816Y-133655051D01*
X119879792Y-133530104D01*
X120030104Y-133379792D01*
X120139767Y-133228853D01*
X120199704Y-133180316D01*
X120275883Y-133168250D01*
X120347888Y-133195890D01*
X120380852Y-133228853D01*
X120404729Y-133261716D01*
X121037037Y-132629408D01*
X121054075Y-132692993D01*
X121119901Y-132807007D01*
X121212993Y-132900099D01*
X121327007Y-132965925D01*
X121406363Y-132987188D01*
X120769865Y-133623686D01*
X120812442Y-133654620D01*
X120812444Y-133654622D01*
X121001779Y-133751093D01*
X121203871Y-133816757D01*
X121413758Y-133850000D01*
X121646242Y-133850000D01*
X121856128Y-133816757D01*
X122058220Y-133751093D01*
X122247550Y-133654625D01*
X122247557Y-133654620D01*
X122290132Y-133623686D01*
X122290132Y-133623685D01*
X121653636Y-132987189D01*
X121732993Y-132965925D01*
X121847007Y-132900099D01*
X121940099Y-132807007D01*
X122005925Y-132692993D01*
X122022962Y-132629409D01*
X122655269Y-133261716D01*
X122655270Y-133261716D01*
X122694620Y-133207557D01*
X122694622Y-133207555D01*
X122791093Y-133018220D01*
X122856757Y-132816128D01*
X122890000Y-132606242D01*
X122890000Y-132393757D01*
X122856757Y-132183871D01*
X122791093Y-131981779D01*
X122694621Y-131792444D01*
X122655270Y-131738282D01*
X122022962Y-132370589D01*
X122005925Y-132307007D01*
X121940099Y-132192993D01*
X121847007Y-132099901D01*
X121732993Y-132034075D01*
X121653634Y-132012810D01*
X122290133Y-131376313D01*
X122290132Y-131376312D01*
X122247555Y-131345378D01*
X122247555Y-131345377D01*
X122058220Y-131248906D01*
X121856128Y-131183242D01*
X121646242Y-131150000D01*
X121413758Y-131150000D01*
X121203871Y-131183242D01*
X121001779Y-131248906D01*
X120812444Y-131345378D01*
X120812435Y-131345383D01*
X120769866Y-131376311D01*
X120769866Y-131376313D01*
X121406363Y-132012810D01*
X121327007Y-132034075D01*
X121212993Y-132099901D01*
X121119901Y-132192993D01*
X121054075Y-132307007D01*
X121037037Y-132370590D01*
X120404729Y-131738282D01*
X120404728Y-131738282D01*
X120380853Y-131771145D01*
X120320913Y-131819683D01*
X120244734Y-131831749D01*
X120172729Y-131804109D01*
X120139765Y-131771144D01*
X120030109Y-131620214D01*
X120030102Y-131620206D01*
X119879793Y-131469897D01*
X119879792Y-131469896D01*
X119707816Y-131344949D01*
X119518412Y-131248443D01*
X119316243Y-131182754D01*
X119106287Y-131149500D01*
X119086287Y-131149500D01*
X118873713Y-131149500D01*
X118698749Y-131177211D01*
X118663756Y-131182754D01*
X118461594Y-131248441D01*
X118461588Y-131248443D01*
X118461582Y-131248445D01*
X118461582Y-131248446D01*
X118272182Y-131344950D01*
X118272181Y-131344950D01*
X118100209Y-131469895D01*
X118100205Y-131469898D01*
X118028746Y-131541357D01*
X117961951Y-131579920D01*
X117884823Y-131579920D01*
X117818028Y-131541355D01*
X117783782Y-131488066D01*
X117777006Y-131469898D01*
X117753796Y-131407669D01*
X117753795Y-131407668D01*
X117753795Y-131407666D01*
X117667547Y-131292455D01*
X117667544Y-131292452D01*
X117552333Y-131206204D01*
X117552329Y-131206202D01*
X117417482Y-131155908D01*
X117357885Y-131149500D01*
X117357873Y-131149500D01*
X117337873Y-131149500D01*
X115542136Y-131149500D01*
X115542111Y-131149502D01*
X115482521Y-131155908D01*
X115482515Y-131155909D01*
X115347670Y-131206202D01*
X115347666Y-131206204D01*
X115232455Y-131292452D01*
X115232452Y-131292455D01*
X115146204Y-131407666D01*
X115146202Y-131407670D01*
X115095908Y-131542517D01*
X115089500Y-131602114D01*
X102404331Y-131602114D01*
X102621716Y-131384729D01*
X102621716Y-131384728D01*
X102567555Y-131345378D01*
X102567555Y-131345377D01*
X102378220Y-131248906D01*
X102176128Y-131183242D01*
X101966242Y-131150000D01*
X101753758Y-131150000D01*
X101543871Y-131183242D01*
X101341779Y-131248906D01*
X101152444Y-131345378D01*
X101098282Y-131384728D01*
X101098282Y-131384729D01*
X101730590Y-132017037D01*
X101667007Y-132034075D01*
X101552993Y-132099901D01*
X101459901Y-132192993D01*
X101394075Y-132307007D01*
X101377037Y-132370590D01*
X100744729Y-131738282D01*
X100744727Y-131738282D01*
X100710852Y-131784908D01*
X100650912Y-131833446D01*
X100574734Y-131845512D01*
X100502729Y-131817871D01*
X100469765Y-131784908D01*
X100348956Y-131618628D01*
X100321316Y-131546622D01*
X100320500Y-131531048D01*
X100320500Y-130095158D01*
X100282051Y-129901866D01*
X100275742Y-129886635D01*
X100275740Y-129886630D01*
X100250811Y-129826446D01*
X100250811Y-129826445D01*
X100206635Y-129719794D01*
X100206632Y-129719786D01*
X100097139Y-129555918D01*
X99957782Y-129416561D01*
X99957781Y-129416560D01*
X96446079Y-125904858D01*
X96407515Y-125838063D01*
X96407515Y-125760935D01*
X96446079Y-125694140D01*
X96512874Y-125655576D01*
X96551431Y-125650499D01*
X98117872Y-125650499D01*
X98177483Y-125644091D01*
X98273447Y-125608298D01*
X98312329Y-125593797D01*
X98312333Y-125593795D01*
X98392964Y-125533434D01*
X98427546Y-125507546D01*
X98513796Y-125392331D01*
X98513798Y-125392327D01*
X98549215Y-125297367D01*
X98593953Y-125234540D01*
X98664110Y-125202498D01*
X98740889Y-125209829D01*
X98794180Y-125244076D01*
X98880208Y-125330104D01*
X99052184Y-125455051D01*
X99241588Y-125551557D01*
X99443757Y-125617246D01*
X99653713Y-125650500D01*
X99653718Y-125650500D01*
X99866282Y-125650500D01*
X99866287Y-125650500D01*
X100076243Y-125617246D01*
X100278412Y-125551557D01*
X100467816Y-125455051D01*
X100639792Y-125330104D01*
X100790104Y-125179792D01*
X100909767Y-125015089D01*
X100969704Y-124966552D01*
X101045883Y-124954486D01*
X101117888Y-124982126D01*
X101150852Y-125015089D01*
X101184729Y-125061716D01*
X101817037Y-124429408D01*
X101834075Y-124492993D01*
X101899901Y-124607007D01*
X101992993Y-124700099D01*
X102107007Y-124765925D01*
X102170590Y-124782962D01*
X101538282Y-125415270D01*
X101592444Y-125454621D01*
X101592444Y-125454622D01*
X101781779Y-125551093D01*
X101983871Y-125616757D01*
X102193758Y-125650000D01*
X102406242Y-125650000D01*
X102616128Y-125616757D01*
X102818220Y-125551093D01*
X103007555Y-125454622D01*
X103007557Y-125454620D01*
X103061716Y-125415270D01*
X103061716Y-125415269D01*
X102429409Y-124782962D01*
X102492993Y-124765925D01*
X102607007Y-124700099D01*
X102700099Y-124607007D01*
X102765925Y-124492993D01*
X102782962Y-124429409D01*
X103415269Y-125061716D01*
X103415270Y-125061716D01*
X103454620Y-125007557D01*
X103454622Y-125007555D01*
X103551093Y-124818220D01*
X103616757Y-124616128D01*
X103650000Y-124406242D01*
X103650000Y-124193757D01*
X103616757Y-123983871D01*
X103551093Y-123781779D01*
X103454621Y-123592444D01*
X103415270Y-123538282D01*
X102782962Y-124170589D01*
X102765925Y-124107007D01*
X102700099Y-123992993D01*
X102607007Y-123899901D01*
X102492993Y-123834075D01*
X102429407Y-123817037D01*
X103061716Y-123184729D01*
X103061716Y-123184728D01*
X103007555Y-123145378D01*
X103007555Y-123145377D01*
X102818220Y-123048906D01*
X102616128Y-122983242D01*
X102406242Y-122950000D01*
X102193758Y-122950000D01*
X101983871Y-122983242D01*
X101781779Y-123048906D01*
X101592444Y-123145378D01*
X101538282Y-123184728D01*
X101538282Y-123184729D01*
X102170590Y-123817037D01*
X102107007Y-123834075D01*
X101992993Y-123899901D01*
X101899901Y-123992993D01*
X101834075Y-124107007D01*
X101817037Y-124170590D01*
X101184729Y-123538282D01*
X101184727Y-123538282D01*
X101150852Y-123584908D01*
X101090912Y-123633446D01*
X101014734Y-123645512D01*
X100942729Y-123617871D01*
X100909765Y-123584908D01*
X100833518Y-123479963D01*
X100790104Y-123420208D01*
X100639792Y-123269896D01*
X100467816Y-123144949D01*
X100278412Y-123048443D01*
X100076243Y-122982754D01*
X99866287Y-122949500D01*
X99653713Y-122949500D01*
X99497670Y-122974215D01*
X99443756Y-122982754D01*
X99278772Y-123036361D01*
X99241588Y-123048443D01*
X99241582Y-123048445D01*
X99241582Y-123048446D01*
X99052182Y-123144950D01*
X99052181Y-123144950D01*
X98880209Y-123269895D01*
X98880198Y-123269904D01*
X98794179Y-123355923D01*
X98727384Y-123394487D01*
X98650256Y-123394487D01*
X98583462Y-123355922D01*
X98549215Y-123302633D01*
X98537008Y-123269904D01*
X98513796Y-123207669D01*
X98513795Y-123207668D01*
X98513795Y-123207666D01*
X98427547Y-123092455D01*
X98427544Y-123092452D01*
X98312333Y-123006204D01*
X98312329Y-123006202D01*
X98177482Y-122955908D01*
X98117876Y-122949500D01*
X96322136Y-122949500D01*
X96322111Y-122949502D01*
X96262521Y-122955908D01*
X96262515Y-122955909D01*
X96127670Y-123006202D01*
X96127666Y-123006204D01*
X96012455Y-123092452D01*
X96012452Y-123092455D01*
X96003742Y-123104090D01*
X95943113Y-123151764D01*
X95866769Y-123162736D01*
X95795167Y-123134067D01*
X95779107Y-123120150D01*
X88409846Y-115750889D01*
X88409843Y-115750886D01*
X88295111Y-115674225D01*
X88295108Y-115674223D01*
X88295102Y-115674220D01*
X88167629Y-115621420D01*
X88167627Y-115621419D01*
X88032297Y-115594500D01*
X88032294Y-115594500D01*
X88032293Y-115594500D01*
X87185289Y-115594500D01*
X87128270Y-115583158D01*
X86988498Y-115525263D01*
X86988494Y-115525262D01*
X86833842Y-115494500D01*
X86676158Y-115494500D01*
X86521505Y-115525262D01*
X86521501Y-115525263D01*
X86375822Y-115585605D01*
X86375818Y-115585607D01*
X86278597Y-115650568D01*
X86205562Y-115675360D01*
X86129916Y-115660313D01*
X86090458Y-115632038D01*
X74233849Y-103775429D01*
X81284500Y-103775429D01*
X81284500Y-104024570D01*
X81317016Y-104271557D01*
X81317017Y-104271563D01*
X81317018Y-104271565D01*
X81381498Y-104512207D01*
X81476836Y-104742373D01*
X81601401Y-104958127D01*
X81753062Y-105155776D01*
X81929224Y-105331938D01*
X82126873Y-105483599D01*
X82342627Y-105608164D01*
X82572793Y-105703502D01*
X82813435Y-105767982D01*
X82813441Y-105767982D01*
X82813442Y-105767983D01*
X82880586Y-105776822D01*
X83060435Y-105800500D01*
X83309565Y-105800500D01*
X83556565Y-105767982D01*
X83797207Y-105703502D01*
X84027373Y-105608164D01*
X84243127Y-105483599D01*
X84440776Y-105331938D01*
X84616938Y-105155776D01*
X84768599Y-104958127D01*
X84893164Y-104742373D01*
X84988502Y-104512207D01*
X85052982Y-104271565D01*
X85085500Y-104024565D01*
X85085500Y-103775435D01*
X85085499Y-103775429D01*
X103484500Y-103775429D01*
X103484500Y-104024570D01*
X103517016Y-104271557D01*
X103517017Y-104271563D01*
X103517018Y-104271565D01*
X103581498Y-104512207D01*
X103676836Y-104742373D01*
X103801401Y-104958127D01*
X103953062Y-105155776D01*
X104129224Y-105331938D01*
X104326873Y-105483599D01*
X104542627Y-105608164D01*
X104772793Y-105703502D01*
X105013435Y-105767982D01*
X105013441Y-105767982D01*
X105013442Y-105767983D01*
X105080586Y-105776822D01*
X105260435Y-105800500D01*
X105509565Y-105800500D01*
X105513279Y-105800011D01*
X121000000Y-105800011D01*
X121000000Y-106750000D01*
X122299999Y-106750000D01*
X122274979Y-106810402D01*
X122250000Y-106935981D01*
X122250000Y-107064019D01*
X122274979Y-107189598D01*
X122299999Y-107250000D01*
X121000000Y-107250000D01*
X121000000Y-108199988D01*
X121010492Y-108302687D01*
X121010494Y-108302696D01*
X121065642Y-108469120D01*
X121157680Y-108618339D01*
X121281660Y-108742319D01*
X121430879Y-108834357D01*
X121597303Y-108889505D01*
X121597312Y-108889507D01*
X121700011Y-108899999D01*
X121700022Y-108900000D01*
X122650000Y-108900000D01*
X122650000Y-107600001D01*
X122710402Y-107625021D01*
X122835981Y-107650000D01*
X122964019Y-107650000D01*
X123089598Y-107625021D01*
X123150000Y-107600001D01*
X123150000Y-108900000D01*
X124099978Y-108900000D01*
X124099988Y-108899999D01*
X124202687Y-108889507D01*
X124202696Y-108889505D01*
X124369120Y-108834357D01*
X124518339Y-108742319D01*
X124642319Y-108618339D01*
X124734357Y-108469120D01*
X124789505Y-108302696D01*
X124789507Y-108302687D01*
X124799999Y-108199988D01*
X124800000Y-108199978D01*
X124800000Y-107250000D01*
X123500001Y-107250000D01*
X123525021Y-107189598D01*
X123550000Y-107064019D01*
X123550000Y-106935981D01*
X123525021Y-106810402D01*
X123500001Y-106750000D01*
X124800000Y-106750000D01*
X124800000Y-105800021D01*
X124799999Y-105800011D01*
X124789507Y-105697312D01*
X124789505Y-105697303D01*
X124734357Y-105530879D01*
X124642319Y-105381660D01*
X124518339Y-105257680D01*
X124369120Y-105165642D01*
X124202696Y-105110494D01*
X124202687Y-105110492D01*
X124099988Y-105100000D01*
X123150000Y-105100000D01*
X123150000Y-106399998D01*
X123089598Y-106374979D01*
X122964019Y-106350000D01*
X122835981Y-106350000D01*
X122710402Y-106374979D01*
X122650000Y-106399998D01*
X122650000Y-105100000D01*
X121700011Y-105100000D01*
X121597312Y-105110492D01*
X121597303Y-105110494D01*
X121430879Y-105165642D01*
X121281660Y-105257680D01*
X121157680Y-105381660D01*
X121065642Y-105530879D01*
X121010494Y-105697303D01*
X121010492Y-105697312D01*
X121000000Y-105800011D01*
X105513279Y-105800011D01*
X105756565Y-105767982D01*
X105997207Y-105703502D01*
X106227373Y-105608164D01*
X106443127Y-105483599D01*
X106640776Y-105331938D01*
X106816938Y-105155776D01*
X106968599Y-104958127D01*
X107093164Y-104742373D01*
X107188502Y-104512207D01*
X107252982Y-104271565D01*
X107285500Y-104024565D01*
X107285500Y-103775435D01*
X107260189Y-103583179D01*
X107252983Y-103528442D01*
X107252982Y-103528441D01*
X107252982Y-103528435D01*
X107188502Y-103287793D01*
X107093164Y-103057627D01*
X106968599Y-102841873D01*
X106816938Y-102644224D01*
X106640776Y-102468062D01*
X106443127Y-102316401D01*
X106359262Y-102267982D01*
X106227377Y-102191838D01*
X106227375Y-102191837D01*
X106227373Y-102191836D01*
X106092548Y-102135989D01*
X105997210Y-102096499D01*
X105997208Y-102096498D01*
X105997207Y-102096498D01*
X105756565Y-102032018D01*
X105756563Y-102032017D01*
X105756557Y-102032016D01*
X105652476Y-102018314D01*
X105509570Y-101999500D01*
X105509565Y-101999500D01*
X105260435Y-101999500D01*
X105260429Y-101999500D01*
X105013442Y-102032016D01*
X104772789Y-102096499D01*
X104542622Y-102191838D01*
X104326874Y-102316400D01*
X104129222Y-102468063D01*
X103953063Y-102644222D01*
X103801400Y-102841874D01*
X103676838Y-103057622D01*
X103581499Y-103287789D01*
X103517016Y-103528442D01*
X103484500Y-103775429D01*
X85085499Y-103775429D01*
X85060189Y-103583179D01*
X85052983Y-103528442D01*
X85052982Y-103528441D01*
X85052982Y-103528435D01*
X84988502Y-103287793D01*
X84893164Y-103057627D01*
X84768599Y-102841873D01*
X84616938Y-102644224D01*
X84440776Y-102468062D01*
X84243127Y-102316401D01*
X84159262Y-102267982D01*
X84027377Y-102191838D01*
X84027375Y-102191837D01*
X84027373Y-102191836D01*
X83892548Y-102135989D01*
X83797210Y-102096499D01*
X83797208Y-102096498D01*
X83797207Y-102096498D01*
X83556565Y-102032018D01*
X83556563Y-102032017D01*
X83556557Y-102032016D01*
X83309570Y-101999500D01*
X83309565Y-101999500D01*
X83060435Y-101999500D01*
X83060429Y-101999500D01*
X82813442Y-102032016D01*
X82572789Y-102096499D01*
X82342622Y-102191838D01*
X82126874Y-102316400D01*
X81929222Y-102468063D01*
X81753063Y-102644222D01*
X81601400Y-102841874D01*
X81476838Y-103057622D01*
X81381499Y-103287789D01*
X81317016Y-103528442D01*
X81284500Y-103775429D01*
X74233849Y-103775429D01*
X73720641Y-103262221D01*
X73720639Y-103262218D01*
X73581282Y-103122861D01*
X73548419Y-103100902D01*
X73417419Y-103013370D01*
X73417409Y-103013365D01*
X73328368Y-102976483D01*
X73288665Y-102960038D01*
X73262000Y-102948993D01*
X73235337Y-102937949D01*
X73138688Y-102918724D01*
X73138688Y-102918723D01*
X73042041Y-102899500D01*
X70586297Y-102899500D01*
X70511797Y-102879538D01*
X70468088Y-102841206D01*
X70316937Y-102644223D01*
X70140777Y-102468063D01*
X70014880Y-102371459D01*
X69943127Y-102316401D01*
X69859262Y-102267982D01*
X69727377Y-102191838D01*
X69727375Y-102191837D01*
X69727373Y-102191836D01*
X69592548Y-102135989D01*
X69497210Y-102096499D01*
X69497208Y-102096498D01*
X69497207Y-102096498D01*
X69456901Y-102085698D01*
X69390108Y-102047135D01*
X69351544Y-101980340D01*
X69351544Y-101903212D01*
X69367566Y-101875461D01*
X121000000Y-101875461D01*
X121000000Y-102124538D01*
X121032507Y-102371459D01*
X121096973Y-102612048D01*
X121192287Y-102842156D01*
X121316819Y-103057851D01*
X121316820Y-103057853D01*
X121391399Y-103155045D01*
X122298957Y-102247486D01*
X122323978Y-102307890D01*
X122395112Y-102414351D01*
X122485649Y-102504888D01*
X122592110Y-102576022D01*
X122652511Y-102601041D01*
X121744952Y-103508599D01*
X121842146Y-103583179D01*
X121842148Y-103583180D01*
X122057843Y-103707712D01*
X122287951Y-103803026D01*
X122528540Y-103867492D01*
X122775461Y-103899999D01*
X122775467Y-103900000D01*
X123024533Y-103900000D01*
X123024538Y-103899999D01*
X123271459Y-103867492D01*
X123512048Y-103803026D01*
X123742157Y-103707712D01*
X123957849Y-103583182D01*
X124055045Y-103508599D01*
X124055046Y-103508599D01*
X123147488Y-102601041D01*
X123207890Y-102576022D01*
X123314351Y-102504888D01*
X123404888Y-102414351D01*
X123476022Y-102307890D01*
X123501041Y-102247488D01*
X124408599Y-103155046D01*
X124408599Y-103155045D01*
X124483182Y-103057849D01*
X124607712Y-102842157D01*
X124703026Y-102612048D01*
X124767492Y-102371459D01*
X124799999Y-102124538D01*
X124800000Y-102124533D01*
X124800000Y-101875467D01*
X124799999Y-101875461D01*
X124767492Y-101628540D01*
X124703026Y-101387951D01*
X124607712Y-101157843D01*
X124483180Y-100942148D01*
X124483179Y-100942146D01*
X124408599Y-100844952D01*
X123501041Y-101752510D01*
X123476022Y-101692110D01*
X123404888Y-101585649D01*
X123314351Y-101495112D01*
X123207890Y-101423978D01*
X123147487Y-101398957D01*
X124055046Y-100491399D01*
X123957853Y-100416820D01*
X123957851Y-100416819D01*
X123742156Y-100292287D01*
X123512048Y-100196973D01*
X123271459Y-100132507D01*
X123024538Y-100100000D01*
X122775461Y-100100000D01*
X122528540Y-100132507D01*
X122287951Y-100196973D01*
X122057843Y-100292287D01*
X121842152Y-100416817D01*
X121744953Y-100491400D01*
X122652511Y-101398958D01*
X122592110Y-101423978D01*
X122485649Y-101495112D01*
X122395112Y-101585649D01*
X122323978Y-101692110D01*
X122298958Y-101752511D01*
X121391399Y-100844953D01*
X121316817Y-100942152D01*
X121192287Y-101157843D01*
X121096973Y-101387951D01*
X121032507Y-101628540D01*
X121000000Y-101875461D01*
X69367566Y-101875461D01*
X69390106Y-101836419D01*
X75414286Y-95812241D01*
X75481081Y-95773677D01*
X75519645Y-95768600D01*
X96027487Y-95768600D01*
X96027492Y-95768600D01*
X96260768Y-95731653D01*
X96485392Y-95658668D01*
X96695833Y-95551443D01*
X96886910Y-95412617D01*
X97053917Y-95245610D01*
X97192743Y-95054533D01*
X97299968Y-94844092D01*
X97372953Y-94619468D01*
X97409900Y-94386192D01*
X97409900Y-94150008D01*
X97372953Y-93916732D01*
X97335028Y-93800011D01*
X121000000Y-93800011D01*
X121000000Y-94750000D01*
X122299999Y-94750000D01*
X122274979Y-94810402D01*
X122250000Y-94935981D01*
X122250000Y-95064019D01*
X122274979Y-95189598D01*
X122299999Y-95250000D01*
X121000000Y-95250000D01*
X121000000Y-96199988D01*
X121010492Y-96302687D01*
X121010494Y-96302696D01*
X121065642Y-96469120D01*
X121157680Y-96618339D01*
X121281660Y-96742319D01*
X121430879Y-96834357D01*
X121597303Y-96889505D01*
X121597312Y-96889507D01*
X121700011Y-96899999D01*
X121700022Y-96900000D01*
X122650000Y-96900000D01*
X122650000Y-95600001D01*
X122710402Y-95625021D01*
X122835981Y-95650000D01*
X122964019Y-95650000D01*
X123089598Y-95625021D01*
X123150000Y-95600001D01*
X123150000Y-96900000D01*
X124099978Y-96900000D01*
X124099988Y-96899999D01*
X124202687Y-96889507D01*
X124202696Y-96889505D01*
X124369120Y-96834357D01*
X124518339Y-96742319D01*
X124642319Y-96618339D01*
X124734357Y-96469120D01*
X124789505Y-96302696D01*
X124789507Y-96302687D01*
X124799999Y-96199988D01*
X124800000Y-96199978D01*
X124800000Y-95250000D01*
X123500001Y-95250000D01*
X123525021Y-95189598D01*
X123550000Y-95064019D01*
X123550000Y-94935981D01*
X123525021Y-94810402D01*
X123500001Y-94750000D01*
X124800000Y-94750000D01*
X124800000Y-93800021D01*
X124799999Y-93800011D01*
X124789507Y-93697312D01*
X124789505Y-93697303D01*
X124734357Y-93530879D01*
X124642319Y-93381660D01*
X124518339Y-93257680D01*
X124369120Y-93165642D01*
X124202696Y-93110494D01*
X124202687Y-93110492D01*
X124099988Y-93100000D01*
X123150000Y-93100000D01*
X123150000Y-94399998D01*
X123089598Y-94374979D01*
X122964019Y-94350000D01*
X122835981Y-94350000D01*
X122710402Y-94374979D01*
X122650000Y-94399998D01*
X122650000Y-93100000D01*
X121700011Y-93100000D01*
X121597312Y-93110492D01*
X121597303Y-93110494D01*
X121430879Y-93165642D01*
X121281660Y-93257680D01*
X121157680Y-93381660D01*
X121065642Y-93530879D01*
X121010494Y-93697303D01*
X121010492Y-93697312D01*
X121000000Y-93800011D01*
X97335028Y-93800011D01*
X97299968Y-93692108D01*
X97192743Y-93481667D01*
X97053917Y-93290590D01*
X96886910Y-93123583D01*
X96695833Y-92984757D01*
X96485392Y-92877532D01*
X96260768Y-92804547D01*
X96027492Y-92767600D01*
X81200585Y-92767600D01*
X81126085Y-92747638D01*
X81071547Y-92693100D01*
X81051585Y-92618600D01*
X81071547Y-92544100D01*
X81126085Y-92489562D01*
X81154541Y-92476893D01*
X81291526Y-92432384D01*
X81466905Y-92343024D01*
X81626146Y-92227328D01*
X83009332Y-90844140D01*
X83076127Y-90805577D01*
X83114691Y-90800500D01*
X83309565Y-90800500D01*
X83556565Y-90767982D01*
X83797207Y-90703502D01*
X84027373Y-90608164D01*
X84243127Y-90483599D01*
X84440776Y-90331938D01*
X84616938Y-90155776D01*
X84768599Y-89958127D01*
X84893164Y-89742373D01*
X84988502Y-89512207D01*
X85052982Y-89271565D01*
X85085500Y-89024565D01*
X85085500Y-88829691D01*
X85100039Y-88775429D01*
X103484500Y-88775429D01*
X103484500Y-89024570D01*
X103517016Y-89271557D01*
X103517017Y-89271563D01*
X103517018Y-89271565D01*
X103581498Y-89512207D01*
X103676836Y-89742373D01*
X103801401Y-89958127D01*
X103953062Y-90155776D01*
X104129224Y-90331938D01*
X104326873Y-90483599D01*
X104542627Y-90608164D01*
X104772793Y-90703502D01*
X105013435Y-90767982D01*
X105013441Y-90767982D01*
X105013442Y-90767983D01*
X105080586Y-90776822D01*
X105260435Y-90800500D01*
X105509565Y-90800500D01*
X105756565Y-90767982D01*
X105997207Y-90703502D01*
X106227373Y-90608164D01*
X106443127Y-90483599D01*
X106640776Y-90331938D01*
X106816938Y-90155776D01*
X106968599Y-89958127D01*
X107016326Y-89875461D01*
X121000000Y-89875461D01*
X121000000Y-90124538D01*
X121032507Y-90371459D01*
X121096973Y-90612048D01*
X121192287Y-90842156D01*
X121316819Y-91057851D01*
X121316820Y-91057853D01*
X121391399Y-91155045D01*
X122298957Y-90247486D01*
X122323978Y-90307890D01*
X122395112Y-90414351D01*
X122485649Y-90504888D01*
X122592110Y-90576022D01*
X122652511Y-90601041D01*
X121744952Y-91508599D01*
X121842146Y-91583179D01*
X121842148Y-91583180D01*
X122057843Y-91707712D01*
X122287951Y-91803026D01*
X122528540Y-91867492D01*
X122775461Y-91899999D01*
X122775467Y-91900000D01*
X123024533Y-91900000D01*
X123024538Y-91899999D01*
X123271459Y-91867492D01*
X123512048Y-91803026D01*
X123742157Y-91707712D01*
X123957849Y-91583182D01*
X124055045Y-91508599D01*
X124055046Y-91508599D01*
X123147488Y-90601041D01*
X123207890Y-90576022D01*
X123314351Y-90504888D01*
X123404888Y-90414351D01*
X123476022Y-90307890D01*
X123501041Y-90247488D01*
X124408599Y-91155046D01*
X124408599Y-91155045D01*
X124483182Y-91057849D01*
X124607712Y-90842157D01*
X124703026Y-90612048D01*
X124767492Y-90371459D01*
X124799999Y-90124538D01*
X124800000Y-90124533D01*
X124800000Y-89875467D01*
X124799999Y-89875461D01*
X124767492Y-89628540D01*
X124703026Y-89387951D01*
X124607712Y-89157843D01*
X124483180Y-88942148D01*
X124483179Y-88942146D01*
X124408599Y-88844952D01*
X123501041Y-89752510D01*
X123476022Y-89692110D01*
X123404888Y-89585649D01*
X123314351Y-89495112D01*
X123207890Y-89423978D01*
X123147487Y-89398957D01*
X124055046Y-88491399D01*
X123957853Y-88416820D01*
X123957851Y-88416819D01*
X123742156Y-88292287D01*
X123512048Y-88196973D01*
X123271459Y-88132507D01*
X123024538Y-88100000D01*
X122775461Y-88100000D01*
X122528540Y-88132507D01*
X122287951Y-88196973D01*
X122057843Y-88292287D01*
X121842152Y-88416817D01*
X121744953Y-88491400D01*
X122652511Y-89398958D01*
X122592110Y-89423978D01*
X122485649Y-89495112D01*
X122395112Y-89585649D01*
X122323978Y-89692110D01*
X122298958Y-89752511D01*
X121391399Y-88844953D01*
X121316817Y-88942152D01*
X121192287Y-89157843D01*
X121096973Y-89387951D01*
X121032507Y-89628540D01*
X121000000Y-89875461D01*
X107016326Y-89875461D01*
X107093164Y-89742373D01*
X107188502Y-89512207D01*
X107252982Y-89271565D01*
X107285500Y-89024565D01*
X107285500Y-88775435D01*
X107270987Y-88665198D01*
X107258253Y-88568469D01*
X107252983Y-88528442D01*
X107252982Y-88528441D01*
X107252982Y-88528435D01*
X107188502Y-88287793D01*
X107093164Y-88057627D01*
X106968599Y-87841873D01*
X106816938Y-87644224D01*
X106640776Y-87468062D01*
X106443127Y-87316401D01*
X106371209Y-87274879D01*
X106227377Y-87191838D01*
X106227375Y-87191837D01*
X106227373Y-87191836D01*
X106092548Y-87135989D01*
X105997210Y-87096499D01*
X105997208Y-87096498D01*
X105997207Y-87096498D01*
X105756565Y-87032018D01*
X105756563Y-87032017D01*
X105756557Y-87032016D01*
X105509570Y-86999500D01*
X105509565Y-86999500D01*
X105260435Y-86999500D01*
X105260429Y-86999500D01*
X105013442Y-87032016D01*
X104772789Y-87096499D01*
X104542622Y-87191838D01*
X104326874Y-87316400D01*
X104129222Y-87468063D01*
X103953063Y-87644222D01*
X103801400Y-87841874D01*
X103676838Y-88057622D01*
X103581499Y-88287789D01*
X103517016Y-88528442D01*
X103484500Y-88775429D01*
X85100039Y-88775429D01*
X85105462Y-88755191D01*
X85129141Y-88724332D01*
X85188275Y-88665198D01*
X87353974Y-86499500D01*
X89559333Y-84294141D01*
X89626128Y-84255577D01*
X89664692Y-84250500D01*
X120885078Y-84250500D01*
X120959578Y-84270462D01*
X121014116Y-84325000D01*
X121026515Y-84352632D01*
X121065187Y-84469336D01*
X121066944Y-84472184D01*
X121157289Y-84618655D01*
X121281345Y-84742711D01*
X121430666Y-84834814D01*
X121597203Y-84889999D01*
X121699992Y-84900500D01*
X121699996Y-84900500D01*
X124100004Y-84900500D01*
X124100008Y-84900500D01*
X124202797Y-84889999D01*
X124369334Y-84834814D01*
X124518655Y-84742711D01*
X124642711Y-84618655D01*
X124734814Y-84469334D01*
X124789999Y-84302797D01*
X124800500Y-84200008D01*
X124800500Y-81799992D01*
X124789999Y-81697203D01*
X124734814Y-81530666D01*
X124642711Y-81381345D01*
X124518655Y-81257289D01*
X124413343Y-81192331D01*
X124369336Y-81165187D01*
X124369335Y-81165186D01*
X124369334Y-81165186D01*
X124285332Y-81137350D01*
X124202798Y-81110001D01*
X124202799Y-81110001D01*
X124168534Y-81106500D01*
X124100008Y-81099500D01*
X121699992Y-81099500D01*
X121631466Y-81106500D01*
X121597201Y-81110001D01*
X121430663Y-81165187D01*
X121281344Y-81257289D01*
X121157289Y-81381344D01*
X121065187Y-81530663D01*
X121026515Y-81647368D01*
X120984132Y-81711807D01*
X120915208Y-81746422D01*
X120885078Y-81749500D01*
X89183417Y-81749500D01*
X88986583Y-81749500D01*
X88792174Y-81780291D01*
X88604974Y-81841116D01*
X88604968Y-81841118D01*
X88604968Y-81841119D01*
X88429593Y-81930477D01*
X88270363Y-82046165D01*
X88270352Y-82046174D01*
X83360666Y-86955859D01*
X83293871Y-86994423D01*
X83255307Y-86999500D01*
X83060429Y-86999500D01*
X82813442Y-87032016D01*
X82572789Y-87096499D01*
X82342622Y-87191838D01*
X82126874Y-87316400D01*
X81929222Y-87468063D01*
X81753063Y-87644222D01*
X81601400Y-87841874D01*
X81476838Y-88057622D01*
X81381499Y-88287789D01*
X81317016Y-88528442D01*
X81284500Y-88775429D01*
X81284500Y-88970307D01*
X81264538Y-89044807D01*
X81240859Y-89075666D01*
X80337167Y-89979359D01*
X80270372Y-90017923D01*
X80231808Y-90023000D01*
X77375292Y-90023000D01*
X77300792Y-90003038D01*
X77246254Y-89948500D01*
X77226292Y-89874000D01*
X77246254Y-89799500D01*
X77269933Y-89768641D01*
X89163145Y-77875429D01*
X120999500Y-77875429D01*
X120999500Y-78124570D01*
X121032016Y-78371557D01*
X121032017Y-78371563D01*
X121032018Y-78371565D01*
X121096498Y-78612207D01*
X121191836Y-78842373D01*
X121316401Y-79058127D01*
X121468062Y-79255776D01*
X121644224Y-79431938D01*
X121841873Y-79583599D01*
X122057627Y-79708164D01*
X122287793Y-79803502D01*
X122528435Y-79867982D01*
X122528441Y-79867982D01*
X122528442Y-79867983D01*
X122595586Y-79876822D01*
X122775435Y-79900500D01*
X123024565Y-79900500D01*
X123271565Y-79867982D01*
X123512207Y-79803502D01*
X123742373Y-79708164D01*
X123958127Y-79583599D01*
X124155776Y-79431938D01*
X124331938Y-79255776D01*
X124483599Y-79058127D01*
X124608164Y-78842373D01*
X124703502Y-78612207D01*
X124767982Y-78371565D01*
X124800500Y-78124565D01*
X124800500Y-77875435D01*
X124771582Y-77655777D01*
X124767983Y-77628442D01*
X124767982Y-77628441D01*
X124767982Y-77628435D01*
X124703502Y-77387793D01*
X124608164Y-77157627D01*
X124483599Y-76941873D01*
X124331938Y-76744224D01*
X124155776Y-76568062D01*
X123958127Y-76416401D01*
X123886209Y-76374879D01*
X123742377Y-76291838D01*
X123742375Y-76291837D01*
X123742373Y-76291836D01*
X123607548Y-76235989D01*
X123512210Y-76196499D01*
X123512208Y-76196498D01*
X123512207Y-76196498D01*
X123271565Y-76132018D01*
X123271563Y-76132017D01*
X123271557Y-76132016D01*
X123024570Y-76099500D01*
X123024565Y-76099500D01*
X122775435Y-76099500D01*
X122775429Y-76099500D01*
X122528442Y-76132016D01*
X122287789Y-76196499D01*
X122057622Y-76291838D01*
X121841874Y-76416400D01*
X121644222Y-76568063D01*
X121468063Y-76744222D01*
X121316400Y-76941874D01*
X121191838Y-77157622D01*
X121096499Y-77387789D01*
X121032016Y-77628442D01*
X120999500Y-77875429D01*
X89163145Y-77875429D01*
X91844433Y-75194141D01*
X91911228Y-75155577D01*
X91949792Y-75150500D01*
X103886068Y-75150500D01*
X103960568Y-75170462D01*
X103991427Y-75194141D01*
X104129224Y-75331938D01*
X104326873Y-75483599D01*
X104542627Y-75608164D01*
X104772793Y-75703502D01*
X105013435Y-75767982D01*
X105013441Y-75767982D01*
X105013442Y-75767983D01*
X105080586Y-75776822D01*
X105260435Y-75800500D01*
X105509565Y-75800500D01*
X105756565Y-75767982D01*
X105997207Y-75703502D01*
X106227373Y-75608164D01*
X106443127Y-75483599D01*
X106640776Y-75331938D01*
X106816938Y-75155776D01*
X106968599Y-74958127D01*
X107093164Y-74742373D01*
X107188502Y-74512207D01*
X107252982Y-74271565D01*
X107285500Y-74024565D01*
X107285500Y-73775435D01*
X107252982Y-73528435D01*
X107188502Y-73287793D01*
X107093164Y-73057627D01*
X106968599Y-72841873D01*
X106890585Y-72740203D01*
X106861071Y-72668948D01*
X106871138Y-72592480D01*
X106918091Y-72531290D01*
X106989348Y-72501775D01*
X107008796Y-72500500D01*
X121001250Y-72500500D01*
X121075750Y-72520462D01*
X121128067Y-72571279D01*
X121157286Y-72618651D01*
X121157287Y-72618652D01*
X121157289Y-72618655D01*
X121281345Y-72742711D01*
X121430666Y-72834814D01*
X121597203Y-72889999D01*
X121699992Y-72900500D01*
X121699996Y-72900500D01*
X124100004Y-72900500D01*
X124100008Y-72900500D01*
X124202797Y-72889999D01*
X124369334Y-72834814D01*
X124518655Y-72742711D01*
X124642711Y-72618655D01*
X124734814Y-72469334D01*
X124789999Y-72302797D01*
X124800500Y-72200008D01*
X124800500Y-69799992D01*
X124789999Y-69697203D01*
X124734814Y-69530666D01*
X124642711Y-69381345D01*
X124518655Y-69257289D01*
X124413343Y-69192331D01*
X124369336Y-69165187D01*
X124369335Y-69165186D01*
X124369334Y-69165186D01*
X124285332Y-69137350D01*
X124202798Y-69110001D01*
X124202799Y-69110001D01*
X124168534Y-69106500D01*
X124100008Y-69099500D01*
X121699992Y-69099500D01*
X121631466Y-69106500D01*
X121597201Y-69110001D01*
X121430663Y-69165187D01*
X121281344Y-69257289D01*
X121157286Y-69381348D01*
X121128067Y-69428721D01*
X121071966Y-69481650D01*
X121001250Y-69499500D01*
X85966908Y-69499500D01*
X85733632Y-69536447D01*
X85509008Y-69609432D01*
X85509003Y-69609434D01*
X85508997Y-69609437D01*
X85298569Y-69716655D01*
X85298564Y-69716658D01*
X85107496Y-69855477D01*
X83290358Y-71672614D01*
X83223563Y-71711178D01*
X83146435Y-71711178D01*
X83079642Y-71672615D01*
X81560810Y-70153783D01*
X81560806Y-70153780D01*
X81560803Y-70153777D01*
X81369735Y-70014958D01*
X81369734Y-70014957D01*
X81159292Y-69907732D01*
X80934668Y-69834747D01*
X80701392Y-69797800D01*
X49168608Y-69797800D01*
X49009135Y-69823057D01*
X48935336Y-69834746D01*
X48935333Y-69834746D01*
X48935332Y-69834747D01*
X48802740Y-69877829D01*
X48802739Y-69877828D01*
X48710713Y-69907730D01*
X48710707Y-69907732D01*
X48710701Y-69907734D01*
X48710701Y-69907735D01*
X48500264Y-70014958D01*
X48309195Y-70153777D01*
X46484536Y-71978435D01*
X46417741Y-72016999D01*
X46398627Y-72020801D01*
X46313446Y-72032015D01*
X46313436Y-72032017D01*
X46072789Y-72096499D01*
X45842622Y-72191838D01*
X45626874Y-72316400D01*
X45429222Y-72468063D01*
X45253063Y-72644222D01*
X45101400Y-72841874D01*
X44976838Y-73057622D01*
X44881499Y-73287789D01*
X44817016Y-73528442D01*
X44784500Y-73775429D01*
X38212315Y-73775429D01*
X38251557Y-73698412D01*
X38317246Y-73496243D01*
X38350500Y-73286287D01*
X38350500Y-73073713D01*
X38317246Y-72863757D01*
X38251557Y-72661588D01*
X38155051Y-72472184D01*
X38152980Y-72469334D01*
X38130283Y-72438093D01*
X38030104Y-72300208D01*
X37879792Y-72149896D01*
X37715517Y-72030544D01*
X37666979Y-71970604D01*
X37654913Y-71894426D01*
X37682553Y-71822420D01*
X37715517Y-71789456D01*
X37731322Y-71777973D01*
X37879792Y-71670104D01*
X38030104Y-71519792D01*
X38155051Y-71347816D01*
X38251557Y-71158412D01*
X38317246Y-70956243D01*
X38350500Y-70746287D01*
X38350500Y-70533713D01*
X38317246Y-70323757D01*
X38251557Y-70121588D01*
X38155051Y-69932184D01*
X38030104Y-69760208D01*
X37944076Y-69674180D01*
X37905512Y-69607385D01*
X37905512Y-69530257D01*
X37944076Y-69463462D01*
X37997366Y-69429215D01*
X38028278Y-69417685D01*
X38092327Y-69393798D01*
X38092333Y-69393795D01*
X38149938Y-69350671D01*
X38207546Y-69307546D01*
X38293796Y-69192331D01*
X38303921Y-69165186D01*
X38328420Y-69099500D01*
X38344091Y-69057483D01*
X38345823Y-69041370D01*
X38350499Y-68997885D01*
X38350499Y-68997882D01*
X38350500Y-68997873D01*
X38350499Y-67202128D01*
X38344091Y-67142517D01*
X38312615Y-67058125D01*
X38293797Y-67007670D01*
X38293795Y-67007666D01*
X38207547Y-66892455D01*
X38207544Y-66892452D01*
X38092333Y-66806204D01*
X38092329Y-66806202D01*
X37957482Y-66755908D01*
X37897876Y-66749500D01*
X36102136Y-66749500D01*
X36102111Y-66749502D01*
X36042521Y-66755908D01*
X36042515Y-66755909D01*
X35907670Y-66806202D01*
X35907666Y-66806204D01*
X35792455Y-66892452D01*
X35792452Y-66892455D01*
X35706204Y-67007666D01*
X35706202Y-67007670D01*
X35655908Y-67142517D01*
X35649500Y-67202114D01*
X35649500Y-68997863D01*
X35649502Y-68997888D01*
X35655908Y-69057478D01*
X35655909Y-69057484D01*
X35706202Y-69192329D01*
X35706204Y-69192333D01*
X35792452Y-69307544D01*
X35792455Y-69307547D01*
X35907666Y-69393795D01*
X35907668Y-69393795D01*
X35907669Y-69393796D01*
X36002633Y-69429215D01*
X36065460Y-69473953D01*
X36097501Y-69544111D01*
X36090170Y-69620890D01*
X36064492Y-69664849D01*
X36060398Y-69669705D01*
X35969896Y-69760208D01*
X35881103Y-69882421D01*
X35877642Y-69886528D01*
X35850256Y-69905613D01*
X35824318Y-69926618D01*
X35818272Y-69927902D01*
X35814364Y-69930627D01*
X35799492Y-69931894D01*
X35763714Y-69939500D01*
X27049500Y-69939500D01*
X26975000Y-69919538D01*
X26920462Y-69865000D01*
X26900500Y-69790500D01*
X26900500Y-68199996D01*
X26900500Y-68199992D01*
X26889999Y-68097203D01*
X26834814Y-67930666D01*
X26742711Y-67781345D01*
X26618655Y-67657289D01*
X26469334Y-67565186D01*
X26385332Y-67537350D01*
X26302798Y-67510001D01*
X26302799Y-67510001D01*
X26268534Y-67506500D01*
X26200008Y-67499500D01*
X23799992Y-67499500D01*
X23731466Y-67506500D01*
X23697201Y-67510001D01*
X23530663Y-67565187D01*
X23381344Y-67657289D01*
X23257289Y-67781344D01*
X23165187Y-67930663D01*
X23110001Y-68097201D01*
X23110001Y-68097203D01*
X23099500Y-68199992D01*
X18300000Y-68199992D01*
X18300000Y-64275429D01*
X23099500Y-64275429D01*
X23099500Y-64524570D01*
X23132016Y-64771557D01*
X23196499Y-65012210D01*
X23220644Y-65070500D01*
X23291836Y-65242373D01*
X23416401Y-65458127D01*
X23568062Y-65655776D01*
X23744224Y-65831938D01*
X23941873Y-65983599D01*
X24157627Y-66108164D01*
X24387793Y-66203502D01*
X24628435Y-66267982D01*
X24628441Y-66267982D01*
X24628442Y-66267983D01*
X24695586Y-66276822D01*
X24875435Y-66300500D01*
X25124565Y-66300500D01*
X25371565Y-66267982D01*
X25612207Y-66203502D01*
X25842373Y-66108164D01*
X26058127Y-65983599D01*
X26199097Y-65875429D01*
X120999500Y-65875429D01*
X120999500Y-66124570D01*
X121032016Y-66371557D01*
X121032017Y-66371563D01*
X121032018Y-66371565D01*
X121096498Y-66612207D01*
X121191836Y-66842373D01*
X121316401Y-67058127D01*
X121468062Y-67255776D01*
X121644224Y-67431938D01*
X121841873Y-67583599D01*
X122057627Y-67708164D01*
X122287793Y-67803502D01*
X122528435Y-67867982D01*
X122528441Y-67867982D01*
X122528442Y-67867983D01*
X122595586Y-67876822D01*
X122775435Y-67900500D01*
X123024565Y-67900500D01*
X123271565Y-67867982D01*
X123512207Y-67803502D01*
X123742373Y-67708164D01*
X123958127Y-67583599D01*
X124155776Y-67431938D01*
X124331938Y-67255776D01*
X124483599Y-67058127D01*
X124608164Y-66842373D01*
X124703502Y-66612207D01*
X124767982Y-66371565D01*
X124800500Y-66124565D01*
X124800500Y-65875435D01*
X124771582Y-65655777D01*
X124767983Y-65628442D01*
X124767982Y-65628441D01*
X124767982Y-65628435D01*
X124703502Y-65387793D01*
X124608164Y-65157627D01*
X124483599Y-64941873D01*
X124331938Y-64744224D01*
X124155776Y-64568062D01*
X123958127Y-64416401D01*
X123886209Y-64374879D01*
X123742377Y-64291838D01*
X123742375Y-64291837D01*
X123742373Y-64291836D01*
X123607548Y-64235989D01*
X123512210Y-64196499D01*
X123512208Y-64196498D01*
X123512207Y-64196498D01*
X123271565Y-64132018D01*
X123271563Y-64132017D01*
X123271557Y-64132016D01*
X123024570Y-64099500D01*
X123024565Y-64099500D01*
X122775435Y-64099500D01*
X122775429Y-64099500D01*
X122528442Y-64132016D01*
X122287789Y-64196499D01*
X122057622Y-64291838D01*
X121841874Y-64416400D01*
X121644222Y-64568063D01*
X121468063Y-64744222D01*
X121316400Y-64941874D01*
X121191838Y-65157622D01*
X121096499Y-65387789D01*
X121032016Y-65628442D01*
X120999500Y-65875429D01*
X26199097Y-65875429D01*
X26255776Y-65831938D01*
X26431938Y-65655776D01*
X26583599Y-65458127D01*
X26708164Y-65242373D01*
X26803502Y-65012207D01*
X26867982Y-64771565D01*
X26900500Y-64524565D01*
X26900500Y-64275435D01*
X26867982Y-64028435D01*
X26803502Y-63787793D01*
X26708164Y-63557627D01*
X26583599Y-63341873D01*
X26431938Y-63144224D01*
X26255776Y-62968062D01*
X26058127Y-62816401D01*
X25986209Y-62774879D01*
X25842377Y-62691838D01*
X25842375Y-62691837D01*
X25842373Y-62691836D01*
X25707548Y-62635989D01*
X25612210Y-62596499D01*
X25612208Y-62596498D01*
X25612207Y-62596498D01*
X25371565Y-62532018D01*
X25371563Y-62532017D01*
X25371557Y-62532016D01*
X25124570Y-62499500D01*
X25124565Y-62499500D01*
X24875435Y-62499500D01*
X24875429Y-62499500D01*
X24628442Y-62532016D01*
X24387789Y-62596499D01*
X24157622Y-62691838D01*
X23941874Y-62816400D01*
X23744222Y-62968063D01*
X23568063Y-63144222D01*
X23416400Y-63341874D01*
X23291838Y-63557622D01*
X23196499Y-63787789D01*
X23132016Y-64028442D01*
X23099500Y-64275429D01*
X18300000Y-64275429D01*
X18300000Y-56199992D01*
X23099500Y-56199992D01*
X23099500Y-58600008D01*
X23108250Y-58685665D01*
X23110001Y-58702798D01*
X23165187Y-58869336D01*
X23257289Y-59018655D01*
X23381345Y-59142711D01*
X23530666Y-59234814D01*
X23697203Y-59289999D01*
X23799992Y-59300500D01*
X25974457Y-59300500D01*
X26031475Y-59311841D01*
X26035672Y-59313580D01*
X26171006Y-59340500D01*
X26171007Y-59340500D01*
X35763714Y-59340500D01*
X35838214Y-59360462D01*
X35884258Y-59401921D01*
X35969890Y-59519785D01*
X35969895Y-59519791D01*
X35969896Y-59519792D01*
X36120208Y-59670104D01*
X36198844Y-59727236D01*
X36284482Y-59789456D01*
X36333020Y-59849396D01*
X36345086Y-59925575D01*
X36317446Y-59997580D01*
X36284482Y-60030544D01*
X36120209Y-60149895D01*
X36120206Y-60149897D01*
X35969897Y-60300206D01*
X35969895Y-60300209D01*
X35844950Y-60472181D01*
X35844950Y-60472182D01*
X35748446Y-60661582D01*
X35748441Y-60661594D01*
X35682754Y-60863756D01*
X35678598Y-60889998D01*
X35649500Y-61073713D01*
X35649500Y-61286287D01*
X35682754Y-61496243D01*
X35748443Y-61698412D01*
X35844949Y-61887816D01*
X35969896Y-62059792D01*
X36120208Y-62210104D01*
X36198844Y-62267236D01*
X36284482Y-62329456D01*
X36333020Y-62389396D01*
X36345086Y-62465575D01*
X36317446Y-62537580D01*
X36284482Y-62570544D01*
X36120209Y-62689895D01*
X36120206Y-62689897D01*
X35969897Y-62840206D01*
X35969895Y-62840209D01*
X35844950Y-63012181D01*
X35844950Y-63012182D01*
X35844949Y-63012184D01*
X35748443Y-63201588D01*
X35682754Y-63403757D01*
X35649500Y-63613713D01*
X35649500Y-63826287D01*
X35682754Y-64036243D01*
X35748443Y-64238412D01*
X35844949Y-64427816D01*
X35969896Y-64599792D01*
X36120208Y-64750104D01*
X36292184Y-64875051D01*
X36481588Y-64971557D01*
X36683757Y-65037246D01*
X36893713Y-65070500D01*
X36893718Y-65070500D01*
X37106282Y-65070500D01*
X37106287Y-65070500D01*
X37316243Y-65037246D01*
X37518412Y-64971557D01*
X37707816Y-64875051D01*
X37879792Y-64750104D01*
X38030104Y-64599792D01*
X38155051Y-64427816D01*
X38251557Y-64238412D01*
X38317246Y-64036243D01*
X38350500Y-63826287D01*
X38350500Y-63613713D01*
X38317246Y-63403757D01*
X38251557Y-63201588D01*
X38155051Y-63012184D01*
X38030104Y-62840208D01*
X37879792Y-62689896D01*
X37715517Y-62570544D01*
X37666979Y-62510604D01*
X37654913Y-62434426D01*
X37682553Y-62362420D01*
X37715517Y-62329456D01*
X37722519Y-62324368D01*
X37879792Y-62210104D01*
X38030104Y-62059792D01*
X38155051Y-61887816D01*
X38251557Y-61698412D01*
X38317246Y-61496243D01*
X38350500Y-61286287D01*
X38350500Y-61073713D01*
X38317246Y-60863757D01*
X38251557Y-60661588D01*
X38155051Y-60472184D01*
X38152980Y-60469334D01*
X38107898Y-60407283D01*
X38030104Y-60300208D01*
X37879792Y-60149896D01*
X37715517Y-60030544D01*
X37666979Y-59970604D01*
X37654913Y-59894426D01*
X37682553Y-59822420D01*
X37715517Y-59789456D01*
X37722519Y-59784368D01*
X37879792Y-59670104D01*
X38030104Y-59519792D01*
X38155051Y-59347816D01*
X38251557Y-59158412D01*
X38317246Y-58956243D01*
X38346923Y-58768874D01*
X44684501Y-58768874D01*
X44684501Y-59031125D01*
X44718727Y-59291108D01*
X44718728Y-59291112D01*
X44718729Y-59291116D01*
X44724283Y-59311842D01*
X44786603Y-59544423D01*
X44786604Y-59544427D01*
X44886959Y-59786701D01*
X44923156Y-59849396D01*
X45018076Y-60013802D01*
X45177717Y-60221851D01*
X45363149Y-60407283D01*
X45571198Y-60566924D01*
X45798303Y-60698043D01*
X45906141Y-60742711D01*
X46040572Y-60798395D01*
X46040576Y-60798396D01*
X46040581Y-60798398D01*
X46293884Y-60866271D01*
X46293890Y-60866271D01*
X46293891Y-60866272D01*
X46293899Y-60866273D01*
X46553880Y-60900499D01*
X46816120Y-60900499D01*
X47076116Y-60866271D01*
X47329419Y-60798398D01*
X47329425Y-60798395D01*
X47329427Y-60798395D01*
X47402847Y-60767983D01*
X47571697Y-60698043D01*
X47798802Y-60566924D01*
X48006851Y-60407283D01*
X50571693Y-57842441D01*
X50638488Y-57803877D01*
X50677052Y-57798800D01*
X67068194Y-57798800D01*
X67142694Y-57818762D01*
X67197232Y-57873300D01*
X67217194Y-57947800D01*
X67197232Y-58022300D01*
X67197231Y-58022301D01*
X67176839Y-58057619D01*
X67081499Y-58287789D01*
X67017016Y-58528442D01*
X66984500Y-58775429D01*
X66984500Y-59024570D01*
X67017016Y-59271557D01*
X67017017Y-59271563D01*
X67017018Y-59271565D01*
X67037449Y-59347816D01*
X67081499Y-59512210D01*
X67176838Y-59742377D01*
X67223051Y-59822420D01*
X67301401Y-59958127D01*
X67453062Y-60155776D01*
X67629224Y-60331938D01*
X67826873Y-60483599D01*
X68042627Y-60608164D01*
X68272793Y-60703502D01*
X68513435Y-60767982D01*
X68513441Y-60767982D01*
X68513442Y-60767983D01*
X68580586Y-60776822D01*
X68760435Y-60800500D01*
X69009565Y-60800500D01*
X69256565Y-60767982D01*
X69497207Y-60703502D01*
X69727373Y-60608164D01*
X69943127Y-60483599D01*
X70140776Y-60331938D01*
X70316938Y-60155776D01*
X70468599Y-59958127D01*
X70593164Y-59742373D01*
X70688502Y-59512207D01*
X70752982Y-59271565D01*
X70785500Y-59024565D01*
X70785500Y-58775435D01*
X70752982Y-58528435D01*
X70688502Y-58287793D01*
X70593164Y-58057627D01*
X70593161Y-58057622D01*
X70593160Y-58057619D01*
X70572769Y-58022301D01*
X70552806Y-57947801D01*
X70572768Y-57873301D01*
X70627305Y-57818763D01*
X70701805Y-57798800D01*
X79192948Y-57798800D01*
X79267448Y-57818762D01*
X79298307Y-57842441D01*
X81863151Y-60407285D01*
X82071201Y-60566925D01*
X82298295Y-60698039D01*
X82298298Y-60698040D01*
X82298303Y-60698043D01*
X82406141Y-60742711D01*
X82540572Y-60798395D01*
X82540576Y-60798396D01*
X82540581Y-60798398D01*
X82793884Y-60866271D01*
X82793890Y-60866271D01*
X82793891Y-60866272D01*
X82793899Y-60866273D01*
X83053880Y-60900499D01*
X83316119Y-60900499D01*
X83576115Y-60866271D01*
X83829419Y-60798398D01*
X84071697Y-60698043D01*
X84298802Y-60566923D01*
X84506851Y-60407283D01*
X84692283Y-60221851D01*
X84851923Y-60013802D01*
X84983043Y-59786697D01*
X85083398Y-59544419D01*
X85151271Y-59291115D01*
X85185499Y-59031119D01*
X85185499Y-58775429D01*
X103484500Y-58775429D01*
X103484500Y-59024570D01*
X103517016Y-59271557D01*
X103517017Y-59271563D01*
X103517018Y-59271565D01*
X103537449Y-59347816D01*
X103581499Y-59512210D01*
X103676838Y-59742377D01*
X103723051Y-59822420D01*
X103801401Y-59958127D01*
X103953062Y-60155776D01*
X104129224Y-60331938D01*
X104326873Y-60483599D01*
X104542627Y-60608164D01*
X104772793Y-60703502D01*
X105013435Y-60767982D01*
X105013441Y-60767982D01*
X105013442Y-60767983D01*
X105080586Y-60776822D01*
X105260435Y-60800500D01*
X105509565Y-60800500D01*
X105756565Y-60767982D01*
X105997207Y-60703502D01*
X106227373Y-60608164D01*
X106443127Y-60483599D01*
X106640776Y-60331938D01*
X106816938Y-60155776D01*
X106968599Y-59958127D01*
X107093164Y-59742373D01*
X107188502Y-59512207D01*
X107252982Y-59271565D01*
X107285500Y-59024565D01*
X107285500Y-58775435D01*
X107252982Y-58528435D01*
X107188502Y-58287793D01*
X107093164Y-58057627D01*
X106968599Y-57841873D01*
X106936463Y-57799992D01*
X120999500Y-57799992D01*
X120999500Y-60200008D01*
X121001732Y-60221852D01*
X121010001Y-60302798D01*
X121065187Y-60469336D01*
X121066944Y-60472184D01*
X121157289Y-60618655D01*
X121281345Y-60742711D01*
X121430666Y-60834814D01*
X121597203Y-60889999D01*
X121699992Y-60900500D01*
X121699996Y-60900500D01*
X124100004Y-60900500D01*
X124100008Y-60900500D01*
X124202797Y-60889999D01*
X124369334Y-60834814D01*
X124518655Y-60742711D01*
X124642711Y-60618655D01*
X124734814Y-60469334D01*
X124789999Y-60302797D01*
X124800500Y-60200008D01*
X124800500Y-57799992D01*
X124789999Y-57697203D01*
X124734814Y-57530666D01*
X124642711Y-57381345D01*
X124518655Y-57257289D01*
X124413343Y-57192331D01*
X124369336Y-57165187D01*
X124369335Y-57165186D01*
X124369334Y-57165186D01*
X124285332Y-57137350D01*
X124202798Y-57110001D01*
X124202799Y-57110001D01*
X124168534Y-57106500D01*
X124100008Y-57099500D01*
X121699992Y-57099500D01*
X121631466Y-57106500D01*
X121597201Y-57110001D01*
X121430663Y-57165187D01*
X121281344Y-57257289D01*
X121157289Y-57381344D01*
X121065187Y-57530663D01*
X121010001Y-57697201D01*
X121010001Y-57697203D01*
X120999500Y-57799992D01*
X106936463Y-57799992D01*
X106816938Y-57644224D01*
X106640776Y-57468062D01*
X106443127Y-57316401D01*
X106371209Y-57274879D01*
X106227377Y-57191838D01*
X106227375Y-57191837D01*
X106227373Y-57191836D01*
X106029806Y-57110001D01*
X105997210Y-57096499D01*
X105997208Y-57096498D01*
X105997207Y-57096498D01*
X105756565Y-57032018D01*
X105756563Y-57032017D01*
X105756557Y-57032016D01*
X105509570Y-56999500D01*
X105509565Y-56999500D01*
X105260435Y-56999500D01*
X105260429Y-56999500D01*
X105013442Y-57032016D01*
X104772789Y-57096499D01*
X104542622Y-57191838D01*
X104326874Y-57316400D01*
X104129222Y-57468063D01*
X103953063Y-57644222D01*
X103801400Y-57841874D01*
X103676838Y-58057622D01*
X103581499Y-58287789D01*
X103517016Y-58528442D01*
X103484500Y-58775429D01*
X85185499Y-58775429D01*
X85185499Y-58768880D01*
X85151271Y-58508884D01*
X85083398Y-58255581D01*
X85083396Y-58255576D01*
X85083395Y-58255572D01*
X85027894Y-58121582D01*
X84983043Y-58013303D01*
X84983040Y-58013298D01*
X84983039Y-58013295D01*
X84851925Y-57786201D01*
X84851923Y-57786199D01*
X84851923Y-57786198D01*
X84783634Y-57697201D01*
X84692285Y-57578151D01*
X81405148Y-54291014D01*
X81287431Y-54200688D01*
X81287430Y-54200687D01*
X81197106Y-54131378D01*
X81196664Y-54131123D01*
X81091701Y-54070523D01*
X80970001Y-54000259D01*
X80969999Y-54000258D01*
X80969997Y-54000257D01*
X80919824Y-53979475D01*
X80727727Y-53899904D01*
X80727723Y-53899903D01*
X80611937Y-53868878D01*
X80474416Y-53832029D01*
X80474414Y-53832028D01*
X80474408Y-53832027D01*
X80344419Y-53814915D01*
X80344418Y-53814914D01*
X80344418Y-53814915D01*
X80214423Y-53797800D01*
X80214420Y-53797800D01*
X49655580Y-53797800D01*
X49655576Y-53797800D01*
X49525582Y-53814915D01*
X49525580Y-53814915D01*
X49395591Y-53832027D01*
X49142276Y-53899903D01*
X49142272Y-53899904D01*
X48899998Y-54000259D01*
X48672894Y-54131377D01*
X48540029Y-54233327D01*
X48540030Y-54233328D01*
X48464845Y-54291020D01*
X45177718Y-57578147D01*
X45018075Y-57786199D01*
X44886959Y-58013298D01*
X44786604Y-58255572D01*
X44786603Y-58255576D01*
X44718727Y-58508891D01*
X44684501Y-58768874D01*
X38346923Y-58768874D01*
X38350500Y-58746287D01*
X38350500Y-58533713D01*
X38317246Y-58323757D01*
X38251557Y-58121588D01*
X38155051Y-57932184D01*
X38030104Y-57760208D01*
X37944076Y-57674180D01*
X37905512Y-57607385D01*
X37905512Y-57530257D01*
X37944076Y-57463462D01*
X37997366Y-57429215D01*
X38028278Y-57417685D01*
X38092327Y-57393798D01*
X38092333Y-57393795D01*
X38195717Y-57316401D01*
X38207546Y-57307546D01*
X38293796Y-57192331D01*
X38303921Y-57165186D01*
X38329539Y-57096498D01*
X38344091Y-57057483D01*
X38350325Y-56999500D01*
X38350499Y-56997885D01*
X38350499Y-56997882D01*
X38350500Y-56997873D01*
X38350499Y-55202128D01*
X38344091Y-55142517D01*
X38329588Y-55103633D01*
X38293797Y-55007670D01*
X38293795Y-55007666D01*
X38207547Y-54892455D01*
X38207544Y-54892452D01*
X38092333Y-54806204D01*
X38092329Y-54806202D01*
X37957482Y-54755908D01*
X37897876Y-54749500D01*
X36102136Y-54749500D01*
X36102111Y-54749502D01*
X36042521Y-54755908D01*
X36042515Y-54755909D01*
X35907670Y-54806202D01*
X35907666Y-54806204D01*
X35792455Y-54892452D01*
X35792452Y-54892455D01*
X35706204Y-55007666D01*
X35706202Y-55007670D01*
X35655908Y-55142517D01*
X35649500Y-55202114D01*
X35649500Y-56997863D01*
X35649502Y-56997888D01*
X35655908Y-57057478D01*
X35655909Y-57057484D01*
X35706202Y-57192329D01*
X35706204Y-57192333D01*
X35792452Y-57307544D01*
X35792455Y-57307547D01*
X35907666Y-57393795D01*
X35907668Y-57393795D01*
X35907669Y-57393796D01*
X36002633Y-57429215D01*
X36065460Y-57473953D01*
X36097501Y-57544111D01*
X36090170Y-57620890D01*
X36064492Y-57664849D01*
X36060398Y-57669705D01*
X35969896Y-57760208D01*
X35881103Y-57882421D01*
X35877642Y-57886528D01*
X35850256Y-57905613D01*
X35824318Y-57926618D01*
X35818272Y-57927902D01*
X35814364Y-57930627D01*
X35799492Y-57931894D01*
X35763714Y-57939500D01*
X27049500Y-57939500D01*
X26975000Y-57919538D01*
X26920462Y-57865000D01*
X26900500Y-57790500D01*
X26900500Y-56199996D01*
X26900500Y-56199992D01*
X26889999Y-56097203D01*
X26834814Y-55930666D01*
X26742711Y-55781345D01*
X26618655Y-55657289D01*
X26469336Y-55565187D01*
X26469335Y-55565186D01*
X26469334Y-55565186D01*
X26385332Y-55537350D01*
X26302798Y-55510001D01*
X26302799Y-55510001D01*
X26268534Y-55506500D01*
X26200008Y-55499500D01*
X23799992Y-55499500D01*
X23731466Y-55506500D01*
X23697201Y-55510001D01*
X23530663Y-55565187D01*
X23381344Y-55657289D01*
X23257289Y-55781344D01*
X23165187Y-55930663D01*
X23110001Y-56097201D01*
X23110001Y-56097203D01*
X23099500Y-56199992D01*
X18300000Y-56199992D01*
X18300000Y-52275429D01*
X23099500Y-52275429D01*
X23099500Y-52524570D01*
X23132016Y-52771557D01*
X23132017Y-52771563D01*
X23132018Y-52771565D01*
X23196498Y-53012207D01*
X23291836Y-53242373D01*
X23416401Y-53458127D01*
X23568062Y-53655776D01*
X23744224Y-53831938D01*
X23941873Y-53983599D01*
X24157627Y-54108164D01*
X24387793Y-54203502D01*
X24628435Y-54267982D01*
X24628441Y-54267982D01*
X24628442Y-54267983D01*
X24695586Y-54276822D01*
X24875435Y-54300500D01*
X25124565Y-54300500D01*
X25371565Y-54267982D01*
X25612207Y-54203502D01*
X25842373Y-54108164D01*
X26058127Y-53983599D01*
X26255776Y-53831938D01*
X26431938Y-53655776D01*
X26583599Y-53458127D01*
X26708164Y-53242373D01*
X26803502Y-53012207D01*
X26867982Y-52771565D01*
X26900500Y-52524565D01*
X26900500Y-52275435D01*
X26867982Y-52028435D01*
X26803502Y-51787793D01*
X26708164Y-51557627D01*
X26583599Y-51341873D01*
X26431938Y-51144224D01*
X26255776Y-50968062D01*
X26058127Y-50816401D01*
X25986209Y-50774879D01*
X25842377Y-50691838D01*
X25842375Y-50691837D01*
X25842373Y-50691836D01*
X25707548Y-50635989D01*
X25612210Y-50596499D01*
X25612208Y-50596498D01*
X25612207Y-50596498D01*
X25371565Y-50532018D01*
X25371563Y-50532017D01*
X25371557Y-50532016D01*
X25124570Y-50499500D01*
X25124565Y-50499500D01*
X24875435Y-50499500D01*
X24875429Y-50499500D01*
X24628442Y-50532016D01*
X24387789Y-50596499D01*
X24157622Y-50691838D01*
X23941874Y-50816400D01*
X23744222Y-50968063D01*
X23568063Y-51144222D01*
X23416400Y-51341874D01*
X23291838Y-51557622D01*
X23196499Y-51787789D01*
X23132016Y-52028442D01*
X23099500Y-52275429D01*
X18300000Y-52275429D01*
X18300000Y-43775429D01*
X44784500Y-43775429D01*
X44784500Y-44024570D01*
X44817016Y-44271557D01*
X44881499Y-44512210D01*
X44976838Y-44742377D01*
X45059879Y-44886209D01*
X45101401Y-44958127D01*
X45253062Y-45155776D01*
X45429224Y-45331938D01*
X45626873Y-45483599D01*
X45842627Y-45608164D01*
X46072793Y-45703502D01*
X46313435Y-45767982D01*
X46313441Y-45767982D01*
X46313442Y-45767983D01*
X46380586Y-45776822D01*
X46560435Y-45800500D01*
X46809565Y-45800500D01*
X47056565Y-45767982D01*
X47297207Y-45703502D01*
X47527373Y-45608164D01*
X47743127Y-45483599D01*
X47940776Y-45331938D01*
X48116938Y-45155776D01*
X48268599Y-44958127D01*
X48393164Y-44742373D01*
X48488502Y-44512207D01*
X48552982Y-44271565D01*
X48585500Y-44024565D01*
X48585500Y-43775435D01*
X48585499Y-43775429D01*
X66984500Y-43775429D01*
X66984500Y-44024570D01*
X67017016Y-44271557D01*
X67081499Y-44512210D01*
X67176838Y-44742377D01*
X67259879Y-44886209D01*
X67301401Y-44958127D01*
X67453062Y-45155776D01*
X67629224Y-45331938D01*
X67826873Y-45483599D01*
X68042627Y-45608164D01*
X68272793Y-45703502D01*
X68513435Y-45767982D01*
X68513441Y-45767982D01*
X68513442Y-45767983D01*
X68580586Y-45776822D01*
X68760435Y-45800500D01*
X69009565Y-45800500D01*
X69256565Y-45767982D01*
X69497207Y-45703502D01*
X69727373Y-45608164D01*
X69943127Y-45483599D01*
X70140776Y-45331938D01*
X70316938Y-45155776D01*
X70468599Y-44958127D01*
X70593164Y-44742373D01*
X70688502Y-44512207D01*
X70752982Y-44271565D01*
X70785500Y-44024565D01*
X70785500Y-43775435D01*
X70785499Y-43775429D01*
X70784636Y-43768874D01*
X81184501Y-43768874D01*
X81184501Y-44031125D01*
X81218727Y-44291108D01*
X81286603Y-44544423D01*
X81286604Y-44544427D01*
X81366175Y-44736524D01*
X81386957Y-44786697D01*
X81518076Y-45013802D01*
X81677717Y-45221851D01*
X81677718Y-45221852D01*
X91963151Y-55507285D01*
X91966691Y-55510001D01*
X92080868Y-55597611D01*
X92171197Y-55666924D01*
X92369381Y-55781345D01*
X92398303Y-55798043D01*
X92538510Y-55856119D01*
X92640572Y-55898395D01*
X92640576Y-55898396D01*
X92640581Y-55898398D01*
X92893884Y-55966271D01*
X93023882Y-55983385D01*
X93153877Y-56000499D01*
X93153878Y-56000500D01*
X93153880Y-56000500D01*
X123031122Y-56000500D01*
X123031122Y-56000499D01*
X123291108Y-55966271D01*
X123291110Y-55966271D01*
X123291111Y-55966270D01*
X123291116Y-55966270D01*
X123544415Y-55898399D01*
X123544416Y-55898399D01*
X123544417Y-55898398D01*
X123544419Y-55898398D01*
X123786697Y-55798043D01*
X124013803Y-55666924D01*
X124026360Y-55657289D01*
X124052650Y-55637115D01*
X124221848Y-55507284D01*
X124221849Y-55507284D01*
X124407284Y-55321849D01*
X124407284Y-55321848D01*
X124566921Y-55113807D01*
X124566921Y-55113806D01*
X124566924Y-55113803D01*
X124698043Y-54886697D01*
X124798398Y-54644419D01*
X124866270Y-54391116D01*
X124900500Y-54131120D01*
X124900500Y-53868880D01*
X124866270Y-53608884D01*
X124798398Y-53355581D01*
X124698043Y-53113303D01*
X124566924Y-52886197D01*
X124566921Y-52886193D01*
X124566921Y-52886192D01*
X124407284Y-52678151D01*
X124221848Y-52492715D01*
X124013806Y-52333078D01*
X123786701Y-52201959D01*
X123786699Y-52201958D01*
X123786697Y-52201957D01*
X123711154Y-52170666D01*
X123544416Y-52101600D01*
X123318255Y-52041002D01*
X123291116Y-52033730D01*
X123291114Y-52033729D01*
X123291108Y-52033728D01*
X123031123Y-51999500D01*
X123031120Y-51999500D01*
X94175352Y-51999500D01*
X94100852Y-51979538D01*
X94069993Y-51955859D01*
X85889563Y-43775429D01*
X103484500Y-43775429D01*
X103484500Y-44024570D01*
X103517016Y-44271557D01*
X103581499Y-44512210D01*
X103676838Y-44742377D01*
X103759879Y-44886209D01*
X103801401Y-44958127D01*
X103953062Y-45155776D01*
X104129224Y-45331938D01*
X104326873Y-45483599D01*
X104542627Y-45608164D01*
X104772793Y-45703502D01*
X105013435Y-45767982D01*
X105013441Y-45767982D01*
X105013442Y-45767983D01*
X105080586Y-45776822D01*
X105260435Y-45800500D01*
X105509565Y-45800500D01*
X105513424Y-45799992D01*
X120999500Y-45799992D01*
X120999500Y-48200008D01*
X121010001Y-48302797D01*
X121065186Y-48469334D01*
X121157289Y-48618655D01*
X121281345Y-48742711D01*
X121430666Y-48834814D01*
X121597203Y-48889999D01*
X121699992Y-48900500D01*
X121699996Y-48900500D01*
X124100004Y-48900500D01*
X124100008Y-48900500D01*
X124202797Y-48889999D01*
X124369334Y-48834814D01*
X124518655Y-48742711D01*
X124642711Y-48618655D01*
X124734814Y-48469334D01*
X124789999Y-48302797D01*
X124800500Y-48200008D01*
X124800500Y-45799992D01*
X124789999Y-45697203D01*
X124734814Y-45530666D01*
X124642711Y-45381345D01*
X124518655Y-45257289D01*
X124369334Y-45165186D01*
X124285332Y-45137350D01*
X124202798Y-45110001D01*
X124202799Y-45110001D01*
X124168534Y-45106500D01*
X124100008Y-45099500D01*
X121699992Y-45099500D01*
X121631466Y-45106500D01*
X121597201Y-45110001D01*
X121430663Y-45165187D01*
X121281344Y-45257289D01*
X121157289Y-45381344D01*
X121065187Y-45530663D01*
X121010001Y-45697201D01*
X121010001Y-45697203D01*
X120999500Y-45799992D01*
X105513424Y-45799992D01*
X105756565Y-45767982D01*
X105997207Y-45703502D01*
X106227373Y-45608164D01*
X106443127Y-45483599D01*
X106640776Y-45331938D01*
X106816938Y-45155776D01*
X106968599Y-44958127D01*
X107093164Y-44742373D01*
X107188502Y-44512207D01*
X107252982Y-44271565D01*
X107285500Y-44024565D01*
X107285500Y-43775435D01*
X107252982Y-43528435D01*
X107188502Y-43287793D01*
X107093164Y-43057627D01*
X106968599Y-42841873D01*
X106816938Y-42644224D01*
X106640776Y-42468062D01*
X106443127Y-42316401D01*
X106298803Y-42233076D01*
X106227377Y-42191838D01*
X106227375Y-42191837D01*
X106227373Y-42191836D01*
X106064967Y-42124565D01*
X105997210Y-42096499D01*
X105997208Y-42096498D01*
X105997207Y-42096498D01*
X105756565Y-42032018D01*
X105756563Y-42032017D01*
X105756557Y-42032016D01*
X105652233Y-42018282D01*
X105509570Y-41999500D01*
X105509565Y-41999500D01*
X105260435Y-41999500D01*
X105260429Y-41999500D01*
X105013442Y-42032016D01*
X104772789Y-42096499D01*
X104542622Y-42191838D01*
X104326874Y-42316400D01*
X104129222Y-42468063D01*
X103953063Y-42644222D01*
X103801400Y-42841874D01*
X103676838Y-43057622D01*
X103581499Y-43287789D01*
X103517016Y-43528442D01*
X103484500Y-43775429D01*
X85889563Y-43775429D01*
X84506852Y-42392718D01*
X84479285Y-42371565D01*
X84298802Y-42233076D01*
X84110864Y-42124570D01*
X84071701Y-42101959D01*
X84071699Y-42101958D01*
X84071697Y-42101957D01*
X84021524Y-42081175D01*
X83829427Y-42001604D01*
X83829423Y-42001603D01*
X83744984Y-41978977D01*
X83576116Y-41933729D01*
X83576114Y-41933728D01*
X83576108Y-41933727D01*
X83316125Y-41899501D01*
X83316120Y-41899501D01*
X83053880Y-41899501D01*
X83053874Y-41899501D01*
X82793891Y-41933727D01*
X82540576Y-42001603D01*
X82540572Y-42001604D01*
X82298298Y-42101959D01*
X82071199Y-42233075D01*
X81863147Y-42392718D01*
X81677718Y-42578147D01*
X81518075Y-42786199D01*
X81386959Y-43013298D01*
X81286604Y-43255572D01*
X81286603Y-43255576D01*
X81218727Y-43508891D01*
X81184501Y-43768874D01*
X70784636Y-43768874D01*
X70752983Y-43528442D01*
X70752982Y-43528441D01*
X70752982Y-43528435D01*
X70688502Y-43287793D01*
X70593164Y-43057627D01*
X70468599Y-42841873D01*
X70316938Y-42644224D01*
X70140776Y-42468062D01*
X69943127Y-42316401D01*
X69798803Y-42233076D01*
X69727377Y-42191838D01*
X69727375Y-42191837D01*
X69727373Y-42191836D01*
X69564967Y-42124565D01*
X69497210Y-42096499D01*
X69497208Y-42096498D01*
X69497207Y-42096498D01*
X69256565Y-42032018D01*
X69256563Y-42032017D01*
X69256557Y-42032016D01*
X69009570Y-41999500D01*
X69009565Y-41999500D01*
X68760435Y-41999500D01*
X68760429Y-41999500D01*
X68513442Y-42032016D01*
X68272789Y-42096499D01*
X68042622Y-42191838D01*
X67826874Y-42316400D01*
X67629222Y-42468063D01*
X67453063Y-42644222D01*
X67301400Y-42841874D01*
X67176838Y-43057622D01*
X67081499Y-43287789D01*
X67017016Y-43528442D01*
X66984500Y-43775429D01*
X48585499Y-43775429D01*
X48552982Y-43528435D01*
X48488502Y-43287793D01*
X48393164Y-43057627D01*
X48268599Y-42841873D01*
X48116938Y-42644224D01*
X47940776Y-42468062D01*
X47743127Y-42316401D01*
X47598803Y-42233076D01*
X47527377Y-42191838D01*
X47527375Y-42191837D01*
X47527373Y-42191836D01*
X47364967Y-42124565D01*
X47297210Y-42096499D01*
X47297208Y-42096498D01*
X47297207Y-42096498D01*
X47056565Y-42032018D01*
X47056563Y-42032017D01*
X47056557Y-42032016D01*
X46809570Y-41999500D01*
X46809565Y-41999500D01*
X46560435Y-41999500D01*
X46560429Y-41999500D01*
X46313442Y-42032016D01*
X46072789Y-42096499D01*
X45842622Y-42191838D01*
X45626874Y-42316400D01*
X45429222Y-42468063D01*
X45253063Y-42644222D01*
X45101400Y-42841874D01*
X44976838Y-43057622D01*
X44881499Y-43287789D01*
X44817016Y-43528442D01*
X44784500Y-43775429D01*
X18300000Y-43775429D01*
X18300000Y-41875429D01*
X120999500Y-41875429D01*
X120999500Y-42124570D01*
X121032016Y-42371557D01*
X121032017Y-42371563D01*
X121032018Y-42371565D01*
X121096498Y-42612207D01*
X121191836Y-42842373D01*
X121316401Y-43058127D01*
X121468062Y-43255776D01*
X121644224Y-43431938D01*
X121841873Y-43583599D01*
X122057627Y-43708164D01*
X122287793Y-43803502D01*
X122528435Y-43867982D01*
X122528441Y-43867982D01*
X122528442Y-43867983D01*
X122595586Y-43876822D01*
X122775435Y-43900500D01*
X123024565Y-43900500D01*
X123271565Y-43867982D01*
X123512207Y-43803502D01*
X123742373Y-43708164D01*
X123958127Y-43583599D01*
X124155776Y-43431938D01*
X124331938Y-43255776D01*
X124483599Y-43058127D01*
X124608164Y-42842373D01*
X124703502Y-42612207D01*
X124767982Y-42371565D01*
X124800500Y-42124565D01*
X124800500Y-41875435D01*
X124767982Y-41628435D01*
X124703502Y-41387793D01*
X124608164Y-41157627D01*
X124483599Y-40941873D01*
X124331938Y-40744224D01*
X124155776Y-40568062D01*
X123958127Y-40416401D01*
X123886209Y-40374879D01*
X123742377Y-40291838D01*
X123742375Y-40291837D01*
X123742373Y-40291836D01*
X123607548Y-40235989D01*
X123512210Y-40196499D01*
X123512208Y-40196498D01*
X123512207Y-40196498D01*
X123271565Y-40132018D01*
X123271563Y-40132017D01*
X123271557Y-40132016D01*
X123024570Y-40099500D01*
X123024565Y-40099500D01*
X122775435Y-40099500D01*
X122775429Y-40099500D01*
X122528442Y-40132016D01*
X122287789Y-40196499D01*
X122057622Y-40291838D01*
X121841874Y-40416400D01*
X121644222Y-40568063D01*
X121468063Y-40744222D01*
X121316400Y-40941874D01*
X121191838Y-41157622D01*
X121096499Y-41387789D01*
X121032016Y-41628442D01*
X120999500Y-41875429D01*
X18300000Y-41875429D01*
X18300000Y-31678706D01*
X46449500Y-31678706D01*
X46449500Y-31921293D01*
X46481160Y-32161781D01*
X46481161Y-32161787D01*
X46481162Y-32161789D01*
X46543946Y-32396100D01*
X46636776Y-32620212D01*
X46758064Y-32830289D01*
X46905735Y-33022738D01*
X47077262Y-33194265D01*
X47269711Y-33341936D01*
X47479788Y-33463224D01*
X47703900Y-33556054D01*
X47938211Y-33618838D01*
X47938217Y-33618838D01*
X47938218Y-33618839D01*
X48003600Y-33627446D01*
X48178712Y-33650500D01*
X48421288Y-33650500D01*
X48661789Y-33618838D01*
X48896100Y-33556054D01*
X49120212Y-33463224D01*
X49330289Y-33341936D01*
X49522738Y-33194265D01*
X49694265Y-33022738D01*
X49841936Y-32830289D01*
X49963224Y-32620212D01*
X50056054Y-32396100D01*
X50118838Y-32161789D01*
X50150500Y-31921288D01*
X50150500Y-31678712D01*
X50118838Y-31438211D01*
X50056054Y-31203900D01*
X49963224Y-30979788D01*
X49841936Y-30769711D01*
X49694265Y-30577262D01*
X49522738Y-30405735D01*
X49330289Y-30258064D01*
X49239653Y-30205735D01*
X49120216Y-30136778D01*
X49120214Y-30136777D01*
X49120212Y-30136776D01*
X48930182Y-30058063D01*
X48896103Y-30043947D01*
X48896101Y-30043946D01*
X48896100Y-30043946D01*
X48661789Y-29981162D01*
X48661787Y-29981161D01*
X48661781Y-29981160D01*
X48421293Y-29949500D01*
X48421288Y-29949500D01*
X48178712Y-29949500D01*
X48178706Y-29949500D01*
X47938218Y-29981160D01*
X47703896Y-30043947D01*
X47479783Y-30136778D01*
X47269712Y-30258063D01*
X47269711Y-30258064D01*
X47077262Y-30405735D01*
X47077260Y-30405736D01*
X47077256Y-30405740D01*
X46905740Y-30577256D01*
X46758063Y-30769712D01*
X46636778Y-30979783D01*
X46543947Y-31203896D01*
X46481160Y-31438218D01*
X46449500Y-31678706D01*
X18300000Y-31678706D01*
X18300000Y-22669457D01*
X49816100Y-22669457D01*
X49816100Y-22827142D01*
X49846862Y-22981794D01*
X49846863Y-22981798D01*
X49907204Y-23127476D01*
X49907205Y-23127478D01*
X49907206Y-23127479D01*
X49994811Y-23258589D01*
X50106311Y-23370089D01*
X50237421Y-23457694D01*
X50237422Y-23457694D01*
X50237423Y-23457695D01*
X50295107Y-23481588D01*
X50383103Y-23518037D01*
X50537758Y-23548800D01*
X50695442Y-23548800D01*
X50850097Y-23518037D01*
X50928775Y-23485447D01*
X51005241Y-23475381D01*
X51076498Y-23504896D01*
X51123451Y-23566086D01*
X51133518Y-23642554D01*
X51127501Y-23669145D01*
X51122754Y-23683757D01*
X51089500Y-23893713D01*
X51089500Y-24106287D01*
X51122754Y-24316243D01*
X51188443Y-24518412D01*
X51284949Y-24707816D01*
X51409896Y-24879792D01*
X51560208Y-25030104D01*
X51732184Y-25155051D01*
X51921588Y-25251557D01*
X52123757Y-25317246D01*
X52333713Y-25350500D01*
X52333718Y-25350500D01*
X52546282Y-25350500D01*
X52546287Y-25350500D01*
X52756243Y-25317246D01*
X52958412Y-25251557D01*
X53147816Y-25155051D01*
X53319792Y-25030104D01*
X53470104Y-24879792D01*
X53589456Y-24715517D01*
X53649396Y-24666979D01*
X53725574Y-24654913D01*
X53797580Y-24682553D01*
X53830544Y-24715517D01*
X53949896Y-24879792D01*
X54100208Y-25030104D01*
X54272184Y-25155051D01*
X54461588Y-25251557D01*
X54663757Y-25317246D01*
X54873713Y-25350500D01*
X54873718Y-25350500D01*
X55086282Y-25350500D01*
X55086287Y-25350500D01*
X55296243Y-25317246D01*
X55498412Y-25251557D01*
X55687816Y-25155051D01*
X55859792Y-25030104D01*
X56010104Y-24879792D01*
X56129456Y-24715517D01*
X56189396Y-24666979D01*
X56265574Y-24654913D01*
X56337580Y-24682553D01*
X56370544Y-24715517D01*
X56489896Y-24879792D01*
X56640208Y-25030104D01*
X56812184Y-25155051D01*
X57001588Y-25251557D01*
X57203757Y-25317246D01*
X57413713Y-25350500D01*
X57413718Y-25350500D01*
X57626282Y-25350500D01*
X57626287Y-25350500D01*
X57836243Y-25317246D01*
X58038412Y-25251557D01*
X58227816Y-25155051D01*
X58399792Y-25030104D01*
X58550104Y-24879792D01*
X58669456Y-24715517D01*
X58729396Y-24666979D01*
X58805574Y-24654913D01*
X58877580Y-24682553D01*
X58910544Y-24715517D01*
X59029896Y-24879792D01*
X59180208Y-25030104D01*
X59352184Y-25155051D01*
X59541588Y-25251557D01*
X59743757Y-25317246D01*
X59953713Y-25350500D01*
X59953718Y-25350500D01*
X60166282Y-25350500D01*
X60166287Y-25350500D01*
X60376243Y-25317246D01*
X60578412Y-25251557D01*
X60767816Y-25155051D01*
X60939792Y-25030104D01*
X61090104Y-24879792D01*
X61209456Y-24715517D01*
X61269396Y-24666979D01*
X61345574Y-24654913D01*
X61417580Y-24682553D01*
X61450544Y-24715517D01*
X61569896Y-24879792D01*
X61720208Y-25030104D01*
X61892184Y-25155051D01*
X62081588Y-25251557D01*
X62283757Y-25317246D01*
X62493713Y-25350500D01*
X62493718Y-25350500D01*
X62706282Y-25350500D01*
X62706287Y-25350500D01*
X62916243Y-25317246D01*
X63118412Y-25251557D01*
X63307816Y-25155051D01*
X63479792Y-25030104D01*
X63630104Y-24879792D01*
X63749456Y-24715517D01*
X63809396Y-24666979D01*
X63885574Y-24654913D01*
X63957580Y-24682553D01*
X63990544Y-24715517D01*
X64109896Y-24879792D01*
X64260208Y-25030104D01*
X64432184Y-25155051D01*
X64621588Y-25251557D01*
X64823757Y-25317246D01*
X65033713Y-25350500D01*
X65033718Y-25350500D01*
X65246282Y-25350500D01*
X65246287Y-25350500D01*
X65456243Y-25317246D01*
X65658412Y-25251557D01*
X65847816Y-25155051D01*
X66019792Y-25030104D01*
X66170104Y-24879792D01*
X66289456Y-24715517D01*
X66349396Y-24666979D01*
X66425574Y-24654913D01*
X66497580Y-24682553D01*
X66530544Y-24715517D01*
X66649896Y-24879792D01*
X66800208Y-25030104D01*
X66972184Y-25155051D01*
X67161588Y-25251557D01*
X67363757Y-25317246D01*
X67573713Y-25350500D01*
X67573718Y-25350500D01*
X67786282Y-25350500D01*
X67786287Y-25350500D01*
X67996243Y-25317246D01*
X68198412Y-25251557D01*
X68387816Y-25155051D01*
X68559792Y-25030104D01*
X68710104Y-24879792D01*
X68829456Y-24715517D01*
X68889396Y-24666979D01*
X68965574Y-24654913D01*
X69037580Y-24682553D01*
X69070544Y-24715517D01*
X69189896Y-24879792D01*
X69340208Y-25030104D01*
X69512184Y-25155051D01*
X69701588Y-25251557D01*
X69903757Y-25317246D01*
X70113713Y-25350500D01*
X70113718Y-25350500D01*
X70326282Y-25350500D01*
X70326287Y-25350500D01*
X70470192Y-25327707D01*
X70546894Y-25335769D01*
X70598857Y-25369514D01*
X73118357Y-27889014D01*
X73233089Y-27965675D01*
X73233093Y-27965676D01*
X73233097Y-27965679D01*
X73335075Y-28007919D01*
X73360572Y-28018480D01*
X73495906Y-28045400D01*
X73495907Y-28045400D01*
X77524224Y-28045400D01*
X77598724Y-28065362D01*
X77653262Y-28119900D01*
X77673224Y-28194400D01*
X77653262Y-28268900D01*
X77629583Y-28299759D01*
X67673484Y-38255859D01*
X67606689Y-38294423D01*
X67568125Y-38299500D01*
X53460289Y-38299500D01*
X53403270Y-38288158D01*
X53263498Y-38230263D01*
X53263494Y-38230262D01*
X53108842Y-38199500D01*
X52951158Y-38199500D01*
X52796505Y-38230262D01*
X52796501Y-38230263D01*
X52650823Y-38290604D01*
X52519707Y-38378214D01*
X52408214Y-38489707D01*
X52320604Y-38620823D01*
X52260263Y-38766501D01*
X52260262Y-38766505D01*
X52229500Y-38921157D01*
X52229500Y-39078842D01*
X52260262Y-39233494D01*
X52260263Y-39233498D01*
X52320604Y-39379176D01*
X52320605Y-39379178D01*
X52320606Y-39379179D01*
X52408211Y-39510289D01*
X52519711Y-39621789D01*
X52650821Y-39709394D01*
X52796503Y-39769737D01*
X52951158Y-39800500D01*
X53108842Y-39800500D01*
X53263497Y-39769737D01*
X53344044Y-39736373D01*
X53403270Y-39711842D01*
X53460289Y-39700500D01*
X67988990Y-39700500D01*
X67988994Y-39700500D01*
X68124328Y-39673580D01*
X68211371Y-39637525D01*
X68251802Y-39620779D01*
X68251803Y-39620778D01*
X68251811Y-39620775D01*
X68366543Y-39544114D01*
X82541143Y-25369511D01*
X82607936Y-25330949D01*
X82669806Y-25327707D01*
X82813713Y-25350500D01*
X83026282Y-25350500D01*
X83026287Y-25350500D01*
X83236243Y-25317246D01*
X83438412Y-25251557D01*
X83627816Y-25155051D01*
X83799792Y-25030104D01*
X83950104Y-24879792D01*
X84069456Y-24715517D01*
X84129396Y-24666979D01*
X84205574Y-24654913D01*
X84277580Y-24682553D01*
X84310544Y-24715517D01*
X84429896Y-24879792D01*
X84580208Y-25030104D01*
X84752184Y-25155051D01*
X84941588Y-25251557D01*
X85143757Y-25317246D01*
X85353713Y-25350500D01*
X85353718Y-25350500D01*
X85566282Y-25350500D01*
X85566287Y-25350500D01*
X85776243Y-25317246D01*
X85978412Y-25251557D01*
X86167816Y-25155051D01*
X86339792Y-25030104D01*
X86490104Y-24879792D01*
X86609456Y-24715517D01*
X86669396Y-24666979D01*
X86745574Y-24654913D01*
X86817580Y-24682553D01*
X86850544Y-24715517D01*
X86969896Y-24879792D01*
X87120208Y-25030104D01*
X87292184Y-25155051D01*
X87481588Y-25251557D01*
X87683757Y-25317246D01*
X87893713Y-25350500D01*
X87893718Y-25350500D01*
X88106282Y-25350500D01*
X88106287Y-25350500D01*
X88316243Y-25317246D01*
X88518412Y-25251557D01*
X88707816Y-25155051D01*
X88879792Y-25030104D01*
X89030104Y-24879792D01*
X89149456Y-24715517D01*
X89209396Y-24666979D01*
X89285574Y-24654913D01*
X89357580Y-24682553D01*
X89390544Y-24715517D01*
X89509896Y-24879792D01*
X89660208Y-25030104D01*
X89832184Y-25155051D01*
X90021588Y-25251557D01*
X90223757Y-25317246D01*
X90408294Y-25346474D01*
X90478752Y-25377844D01*
X90524087Y-25440242D01*
X90532150Y-25516947D01*
X90500779Y-25587407D01*
X90490343Y-25598998D01*
X79730784Y-36358559D01*
X79663989Y-36397123D01*
X79625425Y-36402200D01*
X73650289Y-36402200D01*
X73593270Y-36390858D01*
X73453498Y-36332963D01*
X73453494Y-36332962D01*
X73298842Y-36302200D01*
X73141158Y-36302200D01*
X72986505Y-36332962D01*
X72986501Y-36332963D01*
X72840823Y-36393304D01*
X72709707Y-36480914D01*
X72598214Y-36592407D01*
X72510604Y-36723523D01*
X72450263Y-36869201D01*
X72450262Y-36869205D01*
X72419500Y-37023857D01*
X72419500Y-37181542D01*
X72450262Y-37336194D01*
X72450263Y-37336198D01*
X72510604Y-37481876D01*
X72510605Y-37481878D01*
X72510606Y-37481879D01*
X72598211Y-37612989D01*
X72709711Y-37724489D01*
X72840821Y-37812094D01*
X72986503Y-37872437D01*
X73141158Y-37903200D01*
X73298842Y-37903200D01*
X73453497Y-37872437D01*
X73534044Y-37839073D01*
X73593270Y-37814542D01*
X73650289Y-37803200D01*
X80046290Y-37803200D01*
X80046294Y-37803200D01*
X80181628Y-37776280D01*
X80268671Y-37740225D01*
X80309102Y-37723479D01*
X80309103Y-37723478D01*
X80309111Y-37723475D01*
X80423843Y-37646814D01*
X86591950Y-31478706D01*
X97949500Y-31478706D01*
X97949500Y-31721293D01*
X97981160Y-31961781D01*
X97981161Y-31961787D01*
X97981162Y-31961789D01*
X98043946Y-32196100D01*
X98136776Y-32420212D01*
X98258064Y-32630289D01*
X98405735Y-32822738D01*
X98577262Y-32994265D01*
X98769711Y-33141936D01*
X98979788Y-33263224D01*
X99203900Y-33356054D01*
X99438211Y-33418838D01*
X99438217Y-33418838D01*
X99438218Y-33418839D01*
X99503600Y-33427446D01*
X99678712Y-33450500D01*
X99921288Y-33450500D01*
X100161789Y-33418838D01*
X100396100Y-33356054D01*
X100620212Y-33263224D01*
X100830289Y-33141936D01*
X101022738Y-32994265D01*
X101194265Y-32822738D01*
X101341936Y-32630289D01*
X101463224Y-32420212D01*
X101556054Y-32196100D01*
X101618838Y-31961789D01*
X101650500Y-31721288D01*
X101650500Y-31478712D01*
X101618838Y-31238211D01*
X101556054Y-31003900D01*
X101463224Y-30779788D01*
X101341936Y-30569711D01*
X101194265Y-30377262D01*
X101022738Y-30205735D01*
X100830289Y-30058064D01*
X100697091Y-29981162D01*
X100620216Y-29936778D01*
X100620214Y-29936777D01*
X100620212Y-29936776D01*
X100488932Y-29882398D01*
X100396103Y-29843947D01*
X100396101Y-29843946D01*
X100396100Y-29843946D01*
X100161789Y-29781162D01*
X100161787Y-29781161D01*
X100161781Y-29781160D01*
X99921293Y-29749500D01*
X99921288Y-29749500D01*
X99678712Y-29749500D01*
X99678706Y-29749500D01*
X99438218Y-29781160D01*
X99203896Y-29843947D01*
X98979783Y-29936778D01*
X98769712Y-30058063D01*
X98769711Y-30058064D01*
X98577262Y-30205735D01*
X98577260Y-30205736D01*
X98577256Y-30205740D01*
X98405740Y-30377256D01*
X98258063Y-30569712D01*
X98136778Y-30779783D01*
X98043947Y-31003896D01*
X97981160Y-31238218D01*
X97949500Y-31478706D01*
X86591950Y-31478706D01*
X92701143Y-25369512D01*
X92767936Y-25330950D01*
X92829805Y-25327707D01*
X92973713Y-25350500D01*
X92973718Y-25350500D01*
X93186282Y-25350500D01*
X93186287Y-25350500D01*
X93396243Y-25317246D01*
X93598412Y-25251557D01*
X93787816Y-25155051D01*
X93959792Y-25030104D01*
X94110104Y-24879792D01*
X94229456Y-24715517D01*
X94289396Y-24666979D01*
X94365574Y-24654913D01*
X94437580Y-24682553D01*
X94470544Y-24715517D01*
X94589896Y-24879792D01*
X94740208Y-25030104D01*
X94912184Y-25155051D01*
X95101588Y-25251557D01*
X95303757Y-25317246D01*
X95513713Y-25350500D01*
X95513718Y-25350500D01*
X95726282Y-25350500D01*
X95726287Y-25350500D01*
X95936243Y-25317246D01*
X96138412Y-25251557D01*
X96327816Y-25155051D01*
X96499792Y-25030104D01*
X96585819Y-24944077D01*
X96652613Y-24905512D01*
X96729741Y-24905512D01*
X96796536Y-24944076D01*
X96830784Y-24997366D01*
X96866202Y-25092329D01*
X96866204Y-25092333D01*
X96952452Y-25207544D01*
X96952455Y-25207547D01*
X97067666Y-25293795D01*
X97067670Y-25293797D01*
X97202517Y-25344091D01*
X97262114Y-25350499D01*
X97262118Y-25350499D01*
X97262127Y-25350500D01*
X99057872Y-25350499D01*
X99117483Y-25344091D01*
X99213447Y-25308298D01*
X99252329Y-25293797D01*
X99252333Y-25293795D01*
X99309938Y-25250671D01*
X99367546Y-25207546D01*
X99453796Y-25092331D01*
X99504091Y-24957483D01*
X99510500Y-24897873D01*
X99510499Y-23102128D01*
X99504091Y-23042517D01*
X99481443Y-22981794D01*
X99453797Y-22907670D01*
X99453795Y-22907666D01*
X99367547Y-22792455D01*
X99367544Y-22792452D01*
X99252333Y-22706204D01*
X99252329Y-22706202D01*
X99117482Y-22655908D01*
X99057885Y-22649500D01*
X99057873Y-22649500D01*
X98976097Y-22649500D01*
X98901597Y-22629538D01*
X98847059Y-22575000D01*
X98836516Y-22550678D01*
X98836381Y-22550734D01*
X98780775Y-22416490D01*
X98780772Y-22416484D01*
X98704116Y-22301761D01*
X98704114Y-22301758D01*
X98606542Y-22204186D01*
X98606538Y-22204183D01*
X98491815Y-22127527D01*
X98491809Y-22127524D01*
X98364329Y-22074720D01*
X98364325Y-22074719D01*
X98228993Y-22047800D01*
X51046889Y-22047800D01*
X50989870Y-22036458D01*
X50850098Y-21978563D01*
X50850094Y-21978562D01*
X50695442Y-21947800D01*
X50537758Y-21947800D01*
X50383105Y-21978562D01*
X50383101Y-21978563D01*
X50237423Y-22038904D01*
X50106307Y-22126514D01*
X49994814Y-22238007D01*
X49907204Y-22369123D01*
X49846863Y-22514801D01*
X49846862Y-22514805D01*
X49816100Y-22669457D01*
X18300000Y-22669457D01*
X18300000Y-5249000D01*
X18319962Y-5174500D01*
X18374500Y-5119962D01*
X18449000Y-5100000D01*
X129651000Y-5100000D01*
X129725500Y-5119962D01*
G37*
%TD.AperFunction*%
%TD*%
M02*
