%TF.GenerationSoftware,KiCad,Pcbnew,10.0.0*%
%TF.CreationDate,2026-03-30T20:12:30-04:00*%
%TF.ProjectId,geodude-carrier,67656f64-7564-4652-9d63-617272696572,rev?*%
%TF.SameCoordinates,Original*%
%TF.FileFunction,Copper,L2,Bot*%
%TF.FilePolarity,Positive*%
%FSLAX46Y46*%
G04 Gerber Fmt 4.6, Leading zero omitted, Abs format (unit mm)*
G04 Created by KiCad (PCBNEW 10.0.0) date 2026-03-30 20:12:30*
%MOMM*%
%LPD*%
G01*
G04 APERTURE LIST*
G04 Aperture macros list*
%AMRoundRect*
0 Rectangle with rounded corners*
0 $1 Rounding radius*
0 $2 $3 $4 $5 $6 $7 $8 $9 X,Y pos of 4 corners*
0 Add a 4 corners polygon primitive as box body*
4,1,4,$2,$3,$4,$5,$6,$7,$8,$9,$2,$3,0*
0 Add four circle primitives for the rounded corners*
1,1,$1+$1,$2,$3*
1,1,$1+$1,$4,$5*
1,1,$1+$1,$6,$7*
1,1,$1+$1,$8,$9*
0 Add four rect primitives between the rounded corners*
20,1,$1+$1,$2,$3,$4,$5,0*
20,1,$1+$1,$4,$5,$6,$7,0*
20,1,$1+$1,$6,$7,$8,$9,0*
20,1,$1+$1,$8,$9,$2,$3,0*%
G04 Aperture macros list end*
%TA.AperFunction,ComponentPad*%
%ADD10C,2.800000*%
%TD*%
%TA.AperFunction,ComponentPad*%
%ADD11R,1.700000X1.700000*%
%TD*%
%TA.AperFunction,ComponentPad*%
%ADD12C,1.700000*%
%TD*%
%TA.AperFunction,ComponentPad*%
%ADD13RoundRect,0.250001X1.149999X-1.149999X1.149999X1.149999X-1.149999X1.149999X-1.149999X-1.149999X0*%
%TD*%
%TA.AperFunction,ViaPad*%
%ADD14C,0.600000*%
%TD*%
%TA.AperFunction,Conductor*%
%ADD15C,3.000000*%
%TD*%
%TA.AperFunction,Conductor*%
%ADD16C,0.400000*%
%TD*%
%TA.AperFunction,Conductor*%
%ADD17C,1.000000*%
%TD*%
%TA.AperFunction,Conductor*%
%ADD18C,1.699800*%
%TD*%
%TA.AperFunction,Conductor*%
%ADD19C,0.600000*%
%TD*%
%TA.AperFunction,Conductor*%
%ADD20C,1.500000*%
%TD*%
%TA.AperFunction,Conductor*%
%ADD21C,2.000000*%
%TD*%
G04 APERTURE END LIST*
D10*
%TO.P,F2,1*%
%TO.N,+12V*%
X87185000Y-60900000D03*
%TO.P,F2,2*%
%TO.N,SV2_PWR*%
X109385000Y-60900000D03*
%TD*%
D11*
%TO.P,SV4,1*%
%TO.N,PWM_CH3*%
X117000000Y-132000000D03*
D12*
%TO.P,SV4,2*%
%TO.N,SV4_PWR*%
X119540000Y-132000000D03*
%TO.P,SV4,3*%
%TO.N,GND*%
X122080000Y-132000000D03*
%TD*%
D11*
%TO.P,J_FAN,1*%
%TO.N,GND*%
X81000000Y-118000000D03*
D12*
%TO.P,J_FAN,2*%
%TO.N,N/C*%
X81000000Y-115460000D03*
%TO.P,J_FAN,3*%
%TO.N,+12V_FAN*%
X83540000Y-118000000D03*
%TO.P,J_FAN,4*%
%TO.N,N/C*%
X83540000Y-115460000D03*
%TO.P,J_FAN,5*%
%TO.N,TACH*%
X86080000Y-118000000D03*
%TO.P,J_FAN,6*%
X86080000Y-115460000D03*
%TO.P,J_FAN,7*%
%TO.N,PWM_CH12*%
X88620000Y-118000000D03*
%TO.P,J_FAN,8*%
X88620000Y-115460000D03*
%TD*%
D10*
%TO.P,F6,1*%
%TO.N,+12V*%
X42685000Y-43900000D03*
%TO.P,F6,2*%
%TO.N,SV6_PWR*%
X64885000Y-43900000D03*
%TD*%
D11*
%TO.P,SV2,1*%
%TO.N,PWM_CH1*%
X93000000Y-132000000D03*
D12*
%TO.P,SV2,2*%
%TO.N,SV2_PWR*%
X95540000Y-132000000D03*
%TO.P,SV2,3*%
%TO.N,GND*%
X98080000Y-132000000D03*
%TD*%
D13*
%TO.P,J4,1*%
%TO.N,GND*%
X130900000Y-107000000D03*
D10*
%TO.P,J4,2*%
X130900000Y-102000000D03*
%TD*%
D11*
%TO.P,SV6,1*%
%TO.N,PWM_CH5*%
X21000000Y-132000000D03*
D12*
%TO.P,SV6,2*%
%TO.N,SV6_PWR*%
X23540000Y-132000000D03*
%TO.P,SV6,3*%
%TO.N,GND*%
X26080000Y-132000000D03*
%TD*%
D11*
%TO.P,J41,1*%
%TO.N,SDA*%
X24000000Y-65680000D03*
D12*
%TO.P,J41,2*%
X24000000Y-68220000D03*
%TO.P,J41,3*%
X24000000Y-70760000D03*
%TO.P,J41,4*%
X24000000Y-73300000D03*
%TD*%
D13*
%TO.P,J2,1*%
%TO.N,+12V*%
X130900000Y-59000000D03*
D10*
%TO.P,J2,2*%
X130900000Y-54000000D03*
%TD*%
D13*
%TO.P,J34,1*%
%TO.N,+3V3*%
X13000000Y-83700000D03*
D10*
%TO.P,J34,2*%
X13000000Y-78700000D03*
%TD*%
D13*
%TO.P,J32,1*%
%TO.N,SDA*%
X13000000Y-71700000D03*
D10*
%TO.P,J32,2*%
X13000000Y-66700000D03*
%TD*%
D11*
%TO.P,SV1,1*%
%TO.N,PWM_CH0*%
X81000000Y-132000000D03*
D12*
%TO.P,SV1,2*%
%TO.N,SV1_PWR*%
X83540000Y-132000000D03*
%TO.P,SV1,3*%
%TO.N,GND*%
X86080000Y-132000000D03*
%TD*%
D11*
%TO.P,J_ESC,1*%
%TO.N,PWM_CH11*%
X69000000Y-118000000D03*
D12*
%TO.P,J_ESC,2*%
%TO.N,N/C*%
X71540000Y-118000000D03*
%TO.P,J_ESC,3*%
%TO.N,GND*%
X74080000Y-118000000D03*
%TD*%
D11*
%TO.P,SV3,1*%
%TO.N,PWM_CH2*%
X105000000Y-132000000D03*
D12*
%TO.P,SV3,2*%
%TO.N,SV3_PWR*%
X107540000Y-132000000D03*
%TO.P,SV3,3*%
%TO.N,GND*%
X110080000Y-132000000D03*
%TD*%
D13*
%TO.P,J37,1*%
%TO.N,+5V_LOGIC*%
X13000000Y-95700000D03*
D10*
%TO.P,J37,2*%
X13000000Y-90700000D03*
%TD*%
D11*
%TO.P,J44,1*%
%TO.N,GND_LOGIC*%
X24000000Y-101680000D03*
D12*
%TO.P,J44,2*%
X24000000Y-104220000D03*
%TO.P,J44,3*%
X24000000Y-106760000D03*
%TO.P,J44,4*%
X24000000Y-109300000D03*
%TD*%
D11*
%TO.P,SV10,1*%
%TO.N,PWM_CH9*%
X69000000Y-132000000D03*
D12*
%TO.P,SV10,2*%
%TO.N,SV10_PWR*%
X71540000Y-132000000D03*
%TO.P,SV10,3*%
%TO.N,GND*%
X74080000Y-132000000D03*
%TD*%
D11*
%TO.P,SV7,1*%
%TO.N,PWM_CH6*%
X33000000Y-132000000D03*
D12*
%TO.P,SV7,2*%
%TO.N,SV7_PWR*%
X35540000Y-132000000D03*
%TO.P,SV7,3*%
%TO.N,GND*%
X38080000Y-132000000D03*
%TD*%
D10*
%TO.P,F7,1*%
%TO.N,+12V*%
X42685000Y-60900000D03*
%TO.P,F7,2*%
%TO.N,SV7_PWR*%
X64885000Y-60900000D03*
%TD*%
D13*
%TO.P,J1,1*%
%TO.N,+12V*%
X130900000Y-47000000D03*
D10*
%TO.P,J1,2*%
X130900000Y-42000000D03*
%TD*%
D11*
%TO.P,SV9,1*%
%TO.N,PWM_CH8*%
X57000000Y-132000000D03*
D12*
%TO.P,SV9,2*%
%TO.N,SV9_PWR*%
X59540000Y-132000000D03*
%TO.P,SV9,3*%
%TO.N,GND*%
X62080000Y-132000000D03*
%TD*%
D11*
%TO.P,SV5,1*%
%TO.N,PWM_CH4*%
X129000000Y-132000000D03*
D12*
%TO.P,SV5,2*%
%TO.N,SV5_PWR*%
X131540000Y-132000000D03*
%TO.P,SV5,3*%
%TO.N,GND*%
X134080000Y-132000000D03*
%TD*%
D11*
%TO.P,J43,1*%
%TO.N,+5V_LOGIC*%
X24000000Y-89680000D03*
D12*
%TO.P,J43,2*%
X24000000Y-92220000D03*
%TO.P,J43,3*%
X24000000Y-94760000D03*
%TO.P,J43,4*%
X24000000Y-97300000D03*
%TD*%
D13*
%TO.P,J39,1*%
%TO.N,GND_LOGIC*%
X13000000Y-107700000D03*
D10*
%TO.P,J39,2*%
X13000000Y-102700000D03*
%TD*%
D11*
%TO.P,SV8,1*%
%TO.N,PWM_CH7*%
X45000000Y-132000000D03*
D12*
%TO.P,SV8,2*%
%TO.N,SV8_PWR*%
X47540000Y-132000000D03*
%TO.P,SV8,3*%
%TO.N,GND*%
X50080000Y-132000000D03*
%TD*%
D11*
%TO.P,J40,1*%
%TO.N,SCL*%
X24000000Y-53680000D03*
D12*
%TO.P,J40,2*%
X24000000Y-56220000D03*
%TO.P,J40,3*%
X24000000Y-58760000D03*
%TO.P,J40,4*%
X24000000Y-61300000D03*
%TD*%
D13*
%TO.P,J6,1*%
%TO.N,+5V_SERVO*%
X130900000Y-83000000D03*
D10*
%TO.P,J6,2*%
X130900000Y-78000000D03*
%TD*%
%TO.P,F4,1*%
%TO.N,+5V_SERVO*%
X87185000Y-94900000D03*
%TO.P,F4,2*%
%TO.N,SV4_PWR*%
X109385000Y-94900000D03*
%TD*%
%TO.P,F3,1*%
%TO.N,+7V4*%
X87185000Y-77900000D03*
%TO.P,F3,2*%
%TO.N,SV3_PWR*%
X109385000Y-77900000D03*
%TD*%
D13*
%TO.P,J5,1*%
%TO.N,+7V4*%
X130900000Y-71000000D03*
D10*
%TO.P,J5,2*%
X130900000Y-66000000D03*
%TD*%
D13*
%TO.P,J31,1*%
%TO.N,SCL*%
X13000000Y-59700000D03*
D10*
%TO.P,J31,2*%
X13000000Y-54700000D03*
%TD*%
%TO.P,F5,1*%
%TO.N,+5V_SERVO*%
X87185000Y-111900000D03*
%TO.P,F5,2*%
%TO.N,SV5_PWR*%
X109385000Y-111900000D03*
%TD*%
%TO.P,F9,1*%
%TO.N,+5V_SERVO*%
X42685000Y-94900000D03*
%TO.P,F9,2*%
%TO.N,SV9_PWR*%
X64885000Y-94900000D03*
%TD*%
D11*
%TO.P,J42,1*%
%TO.N,+3V3*%
X24000000Y-77680000D03*
D12*
%TO.P,J42,2*%
X24000000Y-80220000D03*
%TO.P,J42,3*%
X24000000Y-82760000D03*
%TO.P,J42,4*%
X24000000Y-85300000D03*
%TD*%
D13*
%TO.P,J3,1*%
%TO.N,GND*%
X130900000Y-95000000D03*
D10*
%TO.P,J3,2*%
X130900000Y-90000000D03*
%TD*%
%TO.P,F8,1*%
%TO.N,+7V4*%
X42685000Y-77900000D03*
%TO.P,F8,2*%
%TO.N,SV8_PWR*%
X64885000Y-77900000D03*
%TD*%
D11*
%TO.P,J_PCA,1*%
%TO.N,PWM_CH0*%
X98160000Y-24000000D03*
D12*
%TO.P,J_PCA,2*%
%TO.N,PWM_CH1*%
X95620000Y-24000000D03*
%TO.P,J_PCA,3*%
%TO.N,PWM_CH2*%
X93080000Y-24000000D03*
%TO.P,J_PCA,4*%
%TO.N,PWM_CH3*%
X90540000Y-24000000D03*
%TO.P,J_PCA,5*%
%TO.N,N/C*%
X88000000Y-24000000D03*
%TO.P,J_PCA,6*%
%TO.N,PWM_CH4*%
X85460000Y-24000000D03*
%TO.P,J_PCA,7*%
%TO.N,PWM_CH5*%
X82920000Y-24000000D03*
%TO.P,J_PCA,8*%
%TO.N,PWM_CH6*%
X80380000Y-24000000D03*
%TO.P,J_PCA,9*%
%TO.N,PWM_CH7*%
X77840000Y-24000000D03*
%TO.P,J_PCA,10*%
%TO.N,N/C*%
X75300000Y-24000000D03*
%TO.P,J_PCA,11*%
%TO.N,PWM_CH8*%
X72760000Y-24000000D03*
%TO.P,J_PCA,12*%
%TO.N,PWM_CH9*%
X70220000Y-24000000D03*
%TO.P,J_PCA,13*%
%TO.N,PWM_CH10*%
X67680000Y-24000000D03*
%TO.P,J_PCA,14*%
%TO.N,PWM_CH11*%
X65140000Y-24000000D03*
%TO.P,J_PCA,15*%
%TO.N,N/C*%
X62600000Y-24000000D03*
%TO.P,J_PCA,16*%
%TO.N,PWM_CH12*%
X60060000Y-24000000D03*
%TO.P,J_PCA,17*%
%TO.N,PWM_CH13*%
X57520000Y-24000000D03*
%TO.P,J_PCA,18*%
%TO.N,PWM_CH14*%
X54980000Y-24000000D03*
%TO.P,J_PCA,19*%
%TO.N,PWM_CH15*%
X52440000Y-24000000D03*
%TD*%
D10*
%TO.P,F1,1*%
%TO.N,+12V*%
X87185000Y-43900000D03*
%TO.P,F1,2*%
%TO.N,SV1_PWR*%
X109385000Y-43900000D03*
%TD*%
%TO.P,F10,1*%
%TO.N,+5V_SERVO*%
X42685000Y-111900000D03*
%TO.P,F10,2*%
%TO.N,SV10_PWR*%
X64885000Y-111900000D03*
%TD*%
D14*
%TO.N,PWM_CH3*%
X92013300Y-130577200D03*
%TO.N,SV4_PWR*%
X109106800Y-129448600D03*
%TO.N,PWM_CH5*%
X82920000Y-104838800D03*
%TO.N,PWM_CH0*%
X93976400Y-118969700D03*
%TO.N,PWM_CH6*%
X80380000Y-106536400D03*
%TO.N,PWM_CH8*%
X67528600Y-28313300D03*
%TO.N,PWM_CH4*%
X91209900Y-128491100D03*
%TO.N,PWM_CH7*%
X66752600Y-33281400D03*
%TD*%
%TO.N,+12V*%
D15*
X90315400Y-40769600D02*
X87185000Y-43900000D01*
X42685000Y-43900000D02*
X45786700Y-40798300D01*
X130900000Y-42000000D02*
X129669600Y-40769600D01*
X45786700Y-40798300D02*
X84083300Y-40798300D01*
X84083300Y-40798300D02*
X87185000Y-43900000D01*
X129669600Y-40769600D02*
X90315400Y-40769600D01*
%TO.N,PWM_CH3*%
D16*
X114325500Y-130577200D02*
X92013300Y-130577200D01*
X115748300Y-132000000D02*
X114325500Y-130577200D01*
X117000000Y-132000000D02*
X115748300Y-132000000D01*
%TO.N,SV4_PWR*%
D17*
X117182400Y-129448600D02*
X109106800Y-129448600D01*
X119540000Y-131806200D02*
X117182400Y-129448600D01*
X119540000Y-132000000D02*
X119540000Y-131806200D01*
%TO.N,GND*%
D15*
X38614500Y-131465500D02*
X40667200Y-129412800D01*
D18*
X62090200Y-129944600D02*
X62090200Y-131989800D01*
D15*
X86091900Y-133068800D02*
X84609000Y-134551700D01*
X61558400Y-129412800D02*
X62090200Y-129944600D01*
X50091900Y-132000000D02*
X50091900Y-129412800D01*
X40667200Y-129412800D02*
X50091900Y-129412800D01*
D18*
X26614500Y-132534500D02*
X26080000Y-132000000D01*
D15*
X36612600Y-134551700D02*
X28631700Y-134551700D01*
X98614500Y-132534500D02*
X96577700Y-134571300D01*
D18*
X86091900Y-132000000D02*
X86080000Y-132000000D01*
X38091900Y-132000000D02*
X38080000Y-132000000D01*
D15*
X74080000Y-129934400D02*
X73593900Y-129448300D01*
X28631700Y-134551700D02*
X26614500Y-132534500D01*
X86091900Y-132000000D02*
X86091900Y-133068800D01*
D18*
X74091900Y-132000000D02*
X74080000Y-132000000D01*
D15*
X96577700Y-134571300D02*
X87594400Y-134571300D01*
X38091900Y-133072400D02*
X36612600Y-134551700D01*
D18*
X110080000Y-134065600D02*
X110080000Y-132000000D01*
D15*
X73593900Y-129448300D02*
X62586500Y-129448300D01*
D18*
X98614500Y-132534500D02*
X98080000Y-132000000D01*
D15*
X62586500Y-129448300D02*
X62090200Y-129944600D01*
X84609000Y-134551700D02*
X76643600Y-134551700D01*
X110080000Y-134065600D02*
X109576000Y-134569600D01*
X38091900Y-132000000D02*
X38091900Y-133072400D01*
X109576000Y-134569600D02*
X100649600Y-134569600D01*
X76643600Y-134551700D02*
X74091900Y-132000000D01*
D18*
X38614500Y-131465500D02*
X38080000Y-132000000D01*
X50091900Y-132000000D02*
X50080000Y-132000000D01*
D15*
X100649600Y-134569600D02*
X98614500Y-132534500D01*
D18*
X74080000Y-129934400D02*
X74080000Y-132000000D01*
D15*
X87594400Y-134571300D02*
X86091900Y-133068800D01*
X50091900Y-129412800D02*
X61558400Y-129412800D01*
D18*
X62090200Y-131989800D02*
X62080000Y-132000000D01*
%TO.N,PWM_CH5*%
D16*
X31388900Y-130632800D02*
X23071200Y-130632800D01*
X22251700Y-131452300D02*
X22251700Y-132000000D01*
X82920000Y-104838800D02*
X57182900Y-104838800D01*
X23071200Y-130632800D02*
X22251700Y-131452300D01*
X57182900Y-104838800D02*
X31388900Y-130632800D01*
X21000000Y-132000000D02*
X22251700Y-132000000D01*
%TO.N,SDA*%
X14020000Y-65680000D02*
X13000000Y-66700000D01*
X24000000Y-65680000D02*
X14020000Y-65680000D01*
%TO.N,+3V3*%
D19*
X13940000Y-82760000D02*
X13000000Y-83700000D01*
X24000000Y-82760000D02*
X13940000Y-82760000D01*
%TO.N,PWM_CH0*%
D16*
X82197800Y-130748300D02*
X93976400Y-118969700D01*
X81000000Y-130748300D02*
X82197800Y-130748300D01*
X81000000Y-132000000D02*
X81000000Y-130748300D01*
%TO.N,+5V_LOGIC*%
D19*
X24000000Y-94760000D02*
X13940000Y-94760000D01*
X13940000Y-94760000D02*
X13000000Y-95700000D01*
%TO.N,GND_LOGIC*%
X24000000Y-106760000D02*
X13940000Y-106760000D01*
X13940000Y-106760000D02*
X13000000Y-107700000D01*
%TO.N,PWM_CH6*%
D16*
X34251700Y-132000000D02*
X34251700Y-131452400D01*
X34251700Y-131452400D02*
X59167700Y-106536400D01*
X33000000Y-132000000D02*
X34251700Y-132000000D01*
X59167700Y-106536400D02*
X80380000Y-106536400D01*
%TO.N,PWM_CH8*%
X68446700Y-28313300D02*
X67528600Y-28313300D01*
X72760000Y-24000000D02*
X68446700Y-28313300D01*
%TO.N,PWM_CH4*%
X124239400Y-128491100D02*
X91209900Y-128491100D01*
X129000000Y-132000000D02*
X127748300Y-132000000D01*
X127748300Y-132000000D02*
X124239400Y-128491100D01*
%TO.N,SV5_PWR*%
D17*
X131540000Y-132000000D02*
X131540000Y-131806200D01*
X131540000Y-131806200D02*
X111633800Y-111900000D01*
X111633800Y-111900000D02*
X109385000Y-111900000D01*
%TO.N,PWM_CH7*%
D16*
X68558600Y-33281400D02*
X66752600Y-33281400D01*
X77840000Y-24000000D02*
X68558600Y-33281400D01*
%TO.N,SCL*%
X24000000Y-53680000D02*
X14020000Y-53680000D01*
X14020000Y-53680000D02*
X13000000Y-54700000D01*
%TO.N,+5V_SERVO*%
D20*
X45102800Y-92482200D02*
X84767200Y-92482200D01*
X130900000Y-83000000D02*
X99085000Y-83000000D01*
X99085000Y-83000000D02*
X87185000Y-94900000D01*
X42685000Y-94900000D02*
X45102800Y-92482200D01*
X84767200Y-92482200D02*
X87185000Y-94900000D01*
%TO.N,+7V4*%
D21*
X130900000Y-71000000D02*
X94085000Y-71000000D01*
X42685000Y-77900000D02*
X45286700Y-75298300D01*
X45286700Y-75298300D02*
X84583300Y-75298300D01*
X94085000Y-71000000D02*
X87185000Y-77900000D01*
X84583300Y-75298300D02*
X87185000Y-77900000D01*
%TD*%
%TA.AperFunction,Conductor*%
%TO.N,GND*%
G36*
X140487501Y-14504465D02*
G01*
X140647271Y-14544485D01*
X140703790Y-14575894D01*
X141170865Y-14731109D01*
X141187574Y-14737807D01*
X141679959Y-14970688D01*
X141692818Y-14977562D01*
X142159997Y-15257579D01*
X142172141Y-15265694D01*
X142343989Y-15393145D01*
X142609610Y-15590143D01*
X142620913Y-15599419D01*
X142801395Y-15762997D01*
X143024484Y-15965193D01*
X143034804Y-15975513D01*
X143217696Y-16177303D01*
X143400578Y-16379084D01*
X143409854Y-16390387D01*
X143734299Y-16827850D01*
X143742423Y-16840008D01*
X144022428Y-17307168D01*
X144029320Y-17320063D01*
X144262185Y-17812415D01*
X144267781Y-17825924D01*
X144451268Y-18338733D01*
X144455513Y-18352726D01*
X144495535Y-18512503D01*
X144500000Y-18548707D01*
X144500000Y-143451289D01*
X144495535Y-143487494D01*
X144455512Y-143647272D01*
X144451267Y-143661264D01*
X144267781Y-144174073D01*
X144262185Y-144187582D01*
X144029320Y-144679934D01*
X144022428Y-144692829D01*
X143742423Y-145159989D01*
X143734299Y-145172147D01*
X143409854Y-145609610D01*
X143400578Y-145620913D01*
X143034814Y-146024474D01*
X143024474Y-146034814D01*
X142620913Y-146400578D01*
X142609610Y-146409854D01*
X142172147Y-146734299D01*
X142159990Y-146742422D01*
X141692833Y-147022427D01*
X141679943Y-147029317D01*
X141433759Y-147145753D01*
X141187582Y-147262186D01*
X141174074Y-147267781D01*
X140661264Y-147451267D01*
X140647272Y-147455512D01*
X140487494Y-147495535D01*
X140451289Y-147500000D01*
X9548709Y-147500000D01*
X9512505Y-147495535D01*
X9352726Y-147455512D01*
X9338733Y-147451267D01*
X8825924Y-147267781D01*
X8812415Y-147262185D01*
X8320063Y-147029320D01*
X8307168Y-147022428D01*
X7840008Y-146742423D01*
X7827850Y-146734299D01*
X7390387Y-146409854D01*
X7379084Y-146400578D01*
X7177303Y-146217696D01*
X6975513Y-146034804D01*
X6965193Y-146024484D01*
X6762997Y-145801395D01*
X6599419Y-145620913D01*
X6590143Y-145609610D01*
X6265698Y-145172147D01*
X6257575Y-145159990D01*
X5977562Y-144692818D01*
X5970688Y-144679959D01*
X5737807Y-144187572D01*
X5732216Y-144174074D01*
X5548730Y-143661264D01*
X5544485Y-143647271D01*
X5504465Y-143487501D01*
X5500000Y-143451297D01*
X5500000Y-140378706D01*
X47149500Y-140378706D01*
X47149500Y-140621293D01*
X47181160Y-140861781D01*
X47181161Y-140861787D01*
X47181162Y-140861789D01*
X47243946Y-141096100D01*
X47336776Y-141320212D01*
X47458064Y-141530289D01*
X47605735Y-141722738D01*
X47777262Y-141894265D01*
X47969711Y-142041936D01*
X48179788Y-142163224D01*
X48403900Y-142256054D01*
X48638211Y-142318838D01*
X48638217Y-142318838D01*
X48638218Y-142318839D01*
X48703600Y-142327446D01*
X48878712Y-142350500D01*
X49121288Y-142350500D01*
X49361789Y-142318838D01*
X49596100Y-142256054D01*
X49820212Y-142163224D01*
X50030289Y-142041936D01*
X50222738Y-141894265D01*
X50394265Y-141722738D01*
X50541936Y-141530289D01*
X50663224Y-141320212D01*
X50756054Y-141096100D01*
X50818838Y-140861789D01*
X50850500Y-140621288D01*
X50850500Y-140378712D01*
X50850499Y-140378706D01*
X97149500Y-140378706D01*
X97149500Y-140621293D01*
X97181160Y-140861781D01*
X97181161Y-140861787D01*
X97181162Y-140861789D01*
X97243946Y-141096100D01*
X97336776Y-141320212D01*
X97458064Y-141530289D01*
X97605735Y-141722738D01*
X97777262Y-141894265D01*
X97969711Y-142041936D01*
X98179788Y-142163224D01*
X98403900Y-142256054D01*
X98638211Y-142318838D01*
X98638217Y-142318838D01*
X98638218Y-142318839D01*
X98703600Y-142327446D01*
X98878712Y-142350500D01*
X99121288Y-142350500D01*
X99361789Y-142318838D01*
X99596100Y-142256054D01*
X99820212Y-142163224D01*
X100030289Y-142041936D01*
X100222738Y-141894265D01*
X100394265Y-141722738D01*
X100541936Y-141530289D01*
X100663224Y-141320212D01*
X100756054Y-141096100D01*
X100818838Y-140861789D01*
X100850500Y-140621288D01*
X100850500Y-140378712D01*
X100818838Y-140138211D01*
X100756054Y-139903900D01*
X100663224Y-139679788D01*
X100541936Y-139469711D01*
X100394265Y-139277262D01*
X100222738Y-139105735D01*
X100030289Y-138958064D01*
X99960263Y-138917634D01*
X99820216Y-138836778D01*
X99820214Y-138836777D01*
X99820212Y-138836776D01*
X99688932Y-138782398D01*
X99596103Y-138743947D01*
X99596101Y-138743946D01*
X99596100Y-138743946D01*
X99361789Y-138681162D01*
X99361787Y-138681161D01*
X99361781Y-138681160D01*
X99121293Y-138649500D01*
X99121288Y-138649500D01*
X98878712Y-138649500D01*
X98878706Y-138649500D01*
X98638218Y-138681160D01*
X98403896Y-138743947D01*
X98179783Y-138836778D01*
X97969712Y-138958063D01*
X97969711Y-138958064D01*
X97777262Y-139105735D01*
X97777260Y-139105736D01*
X97777256Y-139105740D01*
X97605740Y-139277256D01*
X97458063Y-139469712D01*
X97336778Y-139679783D01*
X97243947Y-139903896D01*
X97181160Y-140138218D01*
X97149500Y-140378706D01*
X50850499Y-140378706D01*
X50818838Y-140138211D01*
X50756054Y-139903900D01*
X50663224Y-139679788D01*
X50541936Y-139469711D01*
X50394265Y-139277262D01*
X50222738Y-139105735D01*
X50030289Y-138958064D01*
X49960263Y-138917634D01*
X49820216Y-138836778D01*
X49820214Y-138836777D01*
X49820212Y-138836776D01*
X49688932Y-138782398D01*
X49596103Y-138743947D01*
X49596101Y-138743946D01*
X49596100Y-138743946D01*
X49361789Y-138681162D01*
X49361787Y-138681161D01*
X49361781Y-138681160D01*
X49121293Y-138649500D01*
X49121288Y-138649500D01*
X48878712Y-138649500D01*
X48878706Y-138649500D01*
X48638218Y-138681160D01*
X48403896Y-138743947D01*
X48179783Y-138836778D01*
X47969712Y-138958063D01*
X47969711Y-138958064D01*
X47777262Y-139105735D01*
X47777260Y-139105736D01*
X47777256Y-139105740D01*
X47605740Y-139277256D01*
X47458063Y-139469712D01*
X47336778Y-139679783D01*
X47243947Y-139903896D01*
X47181160Y-140138218D01*
X47149500Y-140378706D01*
X5500000Y-140378706D01*
X5500000Y-131102114D01*
X19649500Y-131102114D01*
X19649500Y-132897863D01*
X19649502Y-132897888D01*
X19655908Y-132957478D01*
X19655909Y-132957484D01*
X19706202Y-133092329D01*
X19706204Y-133092333D01*
X19792452Y-133207544D01*
X19792455Y-133207547D01*
X19907666Y-133293795D01*
X19907670Y-133293797D01*
X20042517Y-133344091D01*
X20102114Y-133350499D01*
X20102118Y-133350499D01*
X20102127Y-133350500D01*
X21897872Y-133350499D01*
X21957483Y-133344091D01*
X22053447Y-133308298D01*
X22092329Y-133293797D01*
X22092333Y-133293795D01*
X22149938Y-133250671D01*
X22207546Y-133207546D01*
X22293796Y-133092331D01*
X22293797Y-133092329D01*
X22293798Y-133092327D01*
X22329215Y-132997367D01*
X22373953Y-132934540D01*
X22444110Y-132902498D01*
X22520889Y-132909829D01*
X22574180Y-132944076D01*
X22660208Y-133030104D01*
X22832184Y-133155051D01*
X23021588Y-133251557D01*
X23223757Y-133317246D01*
X23433713Y-133350500D01*
X23433718Y-133350500D01*
X23646282Y-133350500D01*
X23646287Y-133350500D01*
X23856243Y-133317246D01*
X24058412Y-133251557D01*
X24247816Y-133155051D01*
X24419792Y-133030104D01*
X24570104Y-132879792D01*
X24689767Y-132715089D01*
X24749704Y-132666552D01*
X24825883Y-132654486D01*
X24897888Y-132682126D01*
X24930852Y-132715089D01*
X24964729Y-132761716D01*
X25597037Y-132129408D01*
X25614075Y-132192993D01*
X25679901Y-132307007D01*
X25772993Y-132400099D01*
X25887007Y-132465925D01*
X25950590Y-132482962D01*
X25318281Y-133115270D01*
X25372444Y-133154621D01*
X25372444Y-133154622D01*
X25561779Y-133251093D01*
X25763871Y-133316757D01*
X25973758Y-133350000D01*
X26186242Y-133350000D01*
X26396128Y-133316757D01*
X26598220Y-133251093D01*
X26787555Y-133154622D01*
X26787557Y-133154620D01*
X26841716Y-133115270D01*
X26841716Y-133115269D01*
X26209409Y-132482962D01*
X26272993Y-132465925D01*
X26387007Y-132400099D01*
X26480099Y-132307007D01*
X26545925Y-132192993D01*
X26562962Y-132129409D01*
X27195269Y-132761716D01*
X27195270Y-132761716D01*
X27234620Y-132707557D01*
X27234622Y-132707555D01*
X27331093Y-132518220D01*
X27396757Y-132316128D01*
X27430000Y-132106242D01*
X27430000Y-131893757D01*
X27396757Y-131683873D01*
X27346223Y-131528344D01*
X27342186Y-131451321D01*
X27377201Y-131382600D01*
X27441886Y-131340593D01*
X27487930Y-131333300D01*
X31457890Y-131333300D01*
X31457894Y-131333300D01*
X31471431Y-131330607D01*
X31548392Y-131335651D01*
X31612523Y-131378500D01*
X31646637Y-131447673D01*
X31649500Y-131476744D01*
X31649500Y-132897863D01*
X31649502Y-132897888D01*
X31655908Y-132957478D01*
X31655909Y-132957484D01*
X31706202Y-133092329D01*
X31706204Y-133092333D01*
X31792452Y-133207544D01*
X31792455Y-133207547D01*
X31907666Y-133293795D01*
X31907670Y-133293797D01*
X32042517Y-133344091D01*
X32102114Y-133350499D01*
X32102118Y-133350499D01*
X32102127Y-133350500D01*
X33897872Y-133350499D01*
X33957483Y-133344091D01*
X34053447Y-133308298D01*
X34092329Y-133293797D01*
X34092333Y-133293795D01*
X34149938Y-133250671D01*
X34207546Y-133207546D01*
X34293796Y-133092331D01*
X34293797Y-133092329D01*
X34293798Y-133092327D01*
X34329215Y-132997367D01*
X34373953Y-132934540D01*
X34444110Y-132902498D01*
X34520889Y-132909829D01*
X34574180Y-132944076D01*
X34660208Y-133030104D01*
X34832184Y-133155051D01*
X35021588Y-133251557D01*
X35223757Y-133317246D01*
X35433713Y-133350500D01*
X35433718Y-133350500D01*
X35646282Y-133350500D01*
X35646287Y-133350500D01*
X35856243Y-133317246D01*
X36058412Y-133251557D01*
X36247816Y-133155051D01*
X36419792Y-133030104D01*
X36570104Y-132879792D01*
X36689767Y-132715089D01*
X36749704Y-132666552D01*
X36825883Y-132654486D01*
X36897888Y-132682126D01*
X36930852Y-132715089D01*
X36964729Y-132761716D01*
X37597037Y-132129408D01*
X37614075Y-132192993D01*
X37679901Y-132307007D01*
X37772993Y-132400099D01*
X37887007Y-132465925D01*
X37950590Y-132482962D01*
X37318281Y-133115270D01*
X37372444Y-133154621D01*
X37372444Y-133154622D01*
X37561779Y-133251093D01*
X37763871Y-133316757D01*
X37973758Y-133350000D01*
X38186242Y-133350000D01*
X38396128Y-133316757D01*
X38598220Y-133251093D01*
X38787555Y-133154622D01*
X38787557Y-133154620D01*
X38841716Y-133115270D01*
X38841716Y-133115269D01*
X38209409Y-132482962D01*
X38272993Y-132465925D01*
X38387007Y-132400099D01*
X38480099Y-132307007D01*
X38545925Y-132192993D01*
X38562962Y-132129409D01*
X39195269Y-132761716D01*
X39195270Y-132761716D01*
X39234620Y-132707557D01*
X39234622Y-132707555D01*
X39331093Y-132518220D01*
X39396757Y-132316128D01*
X39430000Y-132106242D01*
X39430000Y-131893757D01*
X39396757Y-131683871D01*
X39331093Y-131481779D01*
X39234621Y-131292444D01*
X39195270Y-131238282D01*
X38562962Y-131870589D01*
X38545925Y-131807007D01*
X38480099Y-131692993D01*
X38387007Y-131599901D01*
X38272993Y-131534075D01*
X38209407Y-131517037D01*
X38624331Y-131102114D01*
X43649500Y-131102114D01*
X43649500Y-132897863D01*
X43649502Y-132897888D01*
X43655908Y-132957478D01*
X43655909Y-132957484D01*
X43706202Y-133092329D01*
X43706204Y-133092333D01*
X43792452Y-133207544D01*
X43792455Y-133207547D01*
X43907666Y-133293795D01*
X43907670Y-133293797D01*
X44042517Y-133344091D01*
X44102114Y-133350499D01*
X44102118Y-133350499D01*
X44102127Y-133350500D01*
X45897872Y-133350499D01*
X45957483Y-133344091D01*
X46053447Y-133308298D01*
X46092329Y-133293797D01*
X46092333Y-133293795D01*
X46149938Y-133250671D01*
X46207546Y-133207546D01*
X46293796Y-133092331D01*
X46293797Y-133092329D01*
X46293798Y-133092327D01*
X46329215Y-132997367D01*
X46373953Y-132934540D01*
X46444110Y-132902498D01*
X46520889Y-132909829D01*
X46574180Y-132944076D01*
X46660208Y-133030104D01*
X46832184Y-133155051D01*
X47021588Y-133251557D01*
X47223757Y-133317246D01*
X47433713Y-133350500D01*
X47433718Y-133350500D01*
X47646282Y-133350500D01*
X47646287Y-133350500D01*
X47856243Y-133317246D01*
X48058412Y-133251557D01*
X48247816Y-133155051D01*
X48419792Y-133030104D01*
X48570104Y-132879792D01*
X48689767Y-132715089D01*
X48749704Y-132666552D01*
X48825883Y-132654486D01*
X48897888Y-132682126D01*
X48930852Y-132715089D01*
X48964729Y-132761716D01*
X49597037Y-132129408D01*
X49614075Y-132192993D01*
X49679901Y-132307007D01*
X49772993Y-132400099D01*
X49887007Y-132465925D01*
X49950590Y-132482962D01*
X49318282Y-133115270D01*
X49372444Y-133154621D01*
X49372444Y-133154622D01*
X49561779Y-133251093D01*
X49763871Y-133316757D01*
X49973758Y-133350000D01*
X50186242Y-133350000D01*
X50396128Y-133316757D01*
X50598220Y-133251093D01*
X50787555Y-133154622D01*
X50787557Y-133154620D01*
X50841716Y-133115270D01*
X50841716Y-133115269D01*
X50209409Y-132482962D01*
X50272993Y-132465925D01*
X50387007Y-132400099D01*
X50480099Y-132307007D01*
X50545925Y-132192993D01*
X50562962Y-132129409D01*
X51195269Y-132761716D01*
X51195270Y-132761716D01*
X51234620Y-132707557D01*
X51234622Y-132707555D01*
X51331093Y-132518220D01*
X51396757Y-132316128D01*
X51430000Y-132106242D01*
X51430000Y-131893757D01*
X51396757Y-131683871D01*
X51331093Y-131481779D01*
X51234621Y-131292444D01*
X51195270Y-131238282D01*
X50562962Y-131870589D01*
X50545925Y-131807007D01*
X50480099Y-131692993D01*
X50387007Y-131599901D01*
X50272993Y-131534075D01*
X50209407Y-131517037D01*
X50624331Y-131102114D01*
X55649500Y-131102114D01*
X55649500Y-132897863D01*
X55649502Y-132897888D01*
X55655908Y-132957478D01*
X55655909Y-132957484D01*
X55706202Y-133092329D01*
X55706204Y-133092333D01*
X55792452Y-133207544D01*
X55792455Y-133207547D01*
X55907666Y-133293795D01*
X55907670Y-133293797D01*
X56042517Y-133344091D01*
X56102114Y-133350499D01*
X56102118Y-133350499D01*
X56102127Y-133350500D01*
X57897872Y-133350499D01*
X57957483Y-133344091D01*
X58053447Y-133308298D01*
X58092329Y-133293797D01*
X58092333Y-133293795D01*
X58149938Y-133250671D01*
X58207546Y-133207546D01*
X58293796Y-133092331D01*
X58293797Y-133092329D01*
X58293798Y-133092327D01*
X58329215Y-132997367D01*
X58373953Y-132934540D01*
X58444110Y-132902498D01*
X58520889Y-132909829D01*
X58574180Y-132944076D01*
X58660208Y-133030104D01*
X58832184Y-133155051D01*
X59021588Y-133251557D01*
X59223757Y-133317246D01*
X59433713Y-133350500D01*
X59433718Y-133350500D01*
X59646282Y-133350500D01*
X59646287Y-133350500D01*
X59856243Y-133317246D01*
X60058412Y-133251557D01*
X60247816Y-133155051D01*
X60419792Y-133030104D01*
X60570104Y-132879792D01*
X60689767Y-132715089D01*
X60749704Y-132666552D01*
X60825883Y-132654486D01*
X60897888Y-132682126D01*
X60930852Y-132715089D01*
X60964729Y-132761716D01*
X61597037Y-132129408D01*
X61614075Y-132192993D01*
X61679901Y-132307007D01*
X61772993Y-132400099D01*
X61887007Y-132465925D01*
X61950590Y-132482962D01*
X61318282Y-133115270D01*
X61372444Y-133154621D01*
X61372444Y-133154622D01*
X61561779Y-133251093D01*
X61763871Y-133316757D01*
X61973758Y-133350000D01*
X62186242Y-133350000D01*
X62396128Y-133316757D01*
X62598220Y-133251093D01*
X62787555Y-133154622D01*
X62787557Y-133154620D01*
X62841716Y-133115270D01*
X62841716Y-133115269D01*
X62209409Y-132482962D01*
X62272993Y-132465925D01*
X62387007Y-132400099D01*
X62480099Y-132307007D01*
X62545925Y-132192993D01*
X62562962Y-132129409D01*
X63195269Y-132761716D01*
X63195270Y-132761716D01*
X63234620Y-132707557D01*
X63234622Y-132707555D01*
X63331093Y-132518220D01*
X63396757Y-132316128D01*
X63430000Y-132106242D01*
X63430000Y-131893757D01*
X63396757Y-131683871D01*
X63331093Y-131481779D01*
X63234621Y-131292444D01*
X63195270Y-131238282D01*
X62562962Y-131870589D01*
X62545925Y-131807007D01*
X62480099Y-131692993D01*
X62387007Y-131599901D01*
X62272993Y-131534075D01*
X62209407Y-131517037D01*
X62624331Y-131102114D01*
X67649500Y-131102114D01*
X67649500Y-132897863D01*
X67649502Y-132897888D01*
X67655908Y-132957478D01*
X67655909Y-132957484D01*
X67706202Y-133092329D01*
X67706204Y-133092333D01*
X67792452Y-133207544D01*
X67792455Y-133207547D01*
X67907666Y-133293795D01*
X67907670Y-133293797D01*
X68042517Y-133344091D01*
X68102114Y-133350499D01*
X68102118Y-133350499D01*
X68102127Y-133350500D01*
X69897872Y-133350499D01*
X69957483Y-133344091D01*
X70053447Y-133308298D01*
X70092329Y-133293797D01*
X70092333Y-133293795D01*
X70149938Y-133250671D01*
X70207546Y-133207546D01*
X70293796Y-133092331D01*
X70293797Y-133092329D01*
X70293798Y-133092327D01*
X70329215Y-132997367D01*
X70373953Y-132934540D01*
X70444110Y-132902498D01*
X70520889Y-132909829D01*
X70574180Y-132944076D01*
X70660208Y-133030104D01*
X70832184Y-133155051D01*
X71021588Y-133251557D01*
X71223757Y-133317246D01*
X71433713Y-133350500D01*
X71433718Y-133350500D01*
X71646282Y-133350500D01*
X71646287Y-133350500D01*
X71856243Y-133317246D01*
X72058412Y-133251557D01*
X72247816Y-133155051D01*
X72419792Y-133030104D01*
X72570104Y-132879792D01*
X72689767Y-132715089D01*
X72749704Y-132666552D01*
X72825883Y-132654486D01*
X72897888Y-132682126D01*
X72930852Y-132715089D01*
X72964729Y-132761716D01*
X73597037Y-132129408D01*
X73614075Y-132192993D01*
X73679901Y-132307007D01*
X73772993Y-132400099D01*
X73887007Y-132465925D01*
X73950590Y-132482962D01*
X73318282Y-133115270D01*
X73372444Y-133154621D01*
X73372444Y-133154622D01*
X73561779Y-133251093D01*
X73763871Y-133316757D01*
X73973758Y-133350000D01*
X74186242Y-133350000D01*
X74396128Y-133316757D01*
X74598220Y-133251093D01*
X74787555Y-133154622D01*
X74787557Y-133154620D01*
X74841716Y-133115270D01*
X74841716Y-133115269D01*
X74209409Y-132482962D01*
X74272993Y-132465925D01*
X74387007Y-132400099D01*
X74480099Y-132307007D01*
X74545925Y-132192993D01*
X74562962Y-132129409D01*
X75195269Y-132761716D01*
X75195270Y-132761716D01*
X75234620Y-132707557D01*
X75234622Y-132707555D01*
X75331093Y-132518220D01*
X75396757Y-132316128D01*
X75430000Y-132106242D01*
X75430000Y-131893757D01*
X75396757Y-131683871D01*
X75331093Y-131481779D01*
X75234621Y-131292444D01*
X75195270Y-131238282D01*
X74562962Y-131870589D01*
X74545925Y-131807007D01*
X74480099Y-131692993D01*
X74387007Y-131599901D01*
X74272993Y-131534075D01*
X74209407Y-131517037D01*
X74624331Y-131102114D01*
X79649500Y-131102114D01*
X79649500Y-132897863D01*
X79649502Y-132897888D01*
X79655908Y-132957478D01*
X79655909Y-132957484D01*
X79706202Y-133092329D01*
X79706204Y-133092333D01*
X79792452Y-133207544D01*
X79792455Y-133207547D01*
X79907666Y-133293795D01*
X79907670Y-133293797D01*
X80042517Y-133344091D01*
X80102114Y-133350499D01*
X80102118Y-133350499D01*
X80102127Y-133350500D01*
X81897872Y-133350499D01*
X81957483Y-133344091D01*
X82053447Y-133308298D01*
X82092329Y-133293797D01*
X82092333Y-133293795D01*
X82149938Y-133250671D01*
X82207546Y-133207546D01*
X82293796Y-133092331D01*
X82293797Y-133092329D01*
X82293798Y-133092327D01*
X82329215Y-132997367D01*
X82373953Y-132934540D01*
X82444110Y-132902498D01*
X82520889Y-132909829D01*
X82574180Y-132944076D01*
X82660208Y-133030104D01*
X82832184Y-133155051D01*
X83021588Y-133251557D01*
X83223757Y-133317246D01*
X83433713Y-133350500D01*
X83433718Y-133350500D01*
X83646282Y-133350500D01*
X83646287Y-133350500D01*
X83856243Y-133317246D01*
X84058412Y-133251557D01*
X84247816Y-133155051D01*
X84419792Y-133030104D01*
X84570104Y-132879792D01*
X84689767Y-132715089D01*
X84749704Y-132666552D01*
X84825883Y-132654486D01*
X84897888Y-132682126D01*
X84930852Y-132715089D01*
X84964729Y-132761716D01*
X85597037Y-132129408D01*
X85614075Y-132192993D01*
X85679901Y-132307007D01*
X85772993Y-132400099D01*
X85887007Y-132465925D01*
X85950590Y-132482962D01*
X85318281Y-133115270D01*
X85372444Y-133154621D01*
X85372444Y-133154622D01*
X85561779Y-133251093D01*
X85763871Y-133316757D01*
X85973758Y-133350000D01*
X86186242Y-133350000D01*
X86396128Y-133316757D01*
X86598220Y-133251093D01*
X86787555Y-133154622D01*
X86787557Y-133154620D01*
X86841716Y-133115270D01*
X86841716Y-133115269D01*
X86209409Y-132482962D01*
X86272993Y-132465925D01*
X86387007Y-132400099D01*
X86480099Y-132307007D01*
X86545925Y-132192993D01*
X86562962Y-132129409D01*
X87195269Y-132761716D01*
X87195270Y-132761716D01*
X87234620Y-132707557D01*
X87234622Y-132707555D01*
X87331093Y-132518220D01*
X87396757Y-132316128D01*
X87430000Y-132106242D01*
X87430000Y-131893757D01*
X87396757Y-131683871D01*
X87331093Y-131481779D01*
X87234621Y-131292444D01*
X87195270Y-131238282D01*
X86562962Y-131870589D01*
X86545925Y-131807007D01*
X86480099Y-131692993D01*
X86387007Y-131599901D01*
X86272993Y-131534075D01*
X86209407Y-131517037D01*
X86841716Y-130884729D01*
X86841716Y-130884728D01*
X86787555Y-130845378D01*
X86787555Y-130845377D01*
X86598220Y-130748906D01*
X86396128Y-130683242D01*
X86186242Y-130650000D01*
X85973758Y-130650000D01*
X85763871Y-130683242D01*
X85561779Y-130748906D01*
X85372444Y-130845378D01*
X85318282Y-130884728D01*
X85318282Y-130884729D01*
X85950590Y-131517037D01*
X85887007Y-131534075D01*
X85772993Y-131599901D01*
X85679901Y-131692993D01*
X85614075Y-131807007D01*
X85597037Y-131870590D01*
X84964729Y-131238282D01*
X84964727Y-131238282D01*
X84930852Y-131284908D01*
X84870912Y-131333446D01*
X84794734Y-131345512D01*
X84722729Y-131317871D01*
X84689765Y-131284908D01*
X84655889Y-131238282D01*
X84570104Y-131120208D01*
X84419792Y-130969896D01*
X84247816Y-130844949D01*
X84058412Y-130748443D01*
X83856243Y-130682754D01*
X83646287Y-130649500D01*
X83646274Y-130649498D01*
X83640447Y-130649040D01*
X83640546Y-130647777D01*
X83572474Y-130629538D01*
X83517936Y-130575000D01*
X83497974Y-130500500D01*
X83517936Y-130426000D01*
X83541615Y-130395141D01*
X85524499Y-128412257D01*
X90409400Y-128412257D01*
X90409400Y-128569942D01*
X90440162Y-128724594D01*
X90440163Y-128724598D01*
X90500504Y-128870276D01*
X90500505Y-128870278D01*
X90500506Y-128870279D01*
X90588111Y-129001389D01*
X90699611Y-129112889D01*
X90830721Y-129200494D01*
X90830722Y-129200494D01*
X90830723Y-129200495D01*
X90903562Y-129230665D01*
X90976403Y-129260837D01*
X91131058Y-129291600D01*
X91288742Y-129291600D01*
X91443397Y-129260837D01*
X91523944Y-129227473D01*
X91583170Y-129202942D01*
X91640189Y-129191600D01*
X107957511Y-129191600D01*
X108032011Y-129211562D01*
X108086549Y-129266100D01*
X108106511Y-129340600D01*
X108106300Y-129344886D01*
X108106300Y-129547139D01*
X108136434Y-129698631D01*
X108131390Y-129775594D01*
X108088540Y-129839724D01*
X108019366Y-129873837D01*
X107990297Y-129876700D01*
X92443589Y-129876700D01*
X92386570Y-129865358D01*
X92246798Y-129807463D01*
X92246794Y-129807462D01*
X92092142Y-129776700D01*
X91934458Y-129776700D01*
X91779805Y-129807462D01*
X91779801Y-129807463D01*
X91634123Y-129867804D01*
X91503007Y-129955414D01*
X91391514Y-130066907D01*
X91391511Y-130066910D01*
X91391511Y-130066911D01*
X91362578Y-130110212D01*
X91303904Y-130198023D01*
X91243563Y-130343701D01*
X91243562Y-130343705D01*
X91212800Y-130498357D01*
X91212800Y-130656042D01*
X91243562Y-130810694D01*
X91243563Y-130810698D01*
X91303904Y-130956376D01*
X91303905Y-130956378D01*
X91303906Y-130956379D01*
X91391511Y-131087489D01*
X91503011Y-131198989D01*
X91583279Y-131252623D01*
X91634134Y-131310609D01*
X91649500Y-131376511D01*
X91649500Y-132897863D01*
X91649502Y-132897888D01*
X91655908Y-132957478D01*
X91655909Y-132957484D01*
X91706202Y-133092329D01*
X91706204Y-133092333D01*
X91792452Y-133207544D01*
X91792455Y-133207547D01*
X91907666Y-133293795D01*
X91907670Y-133293797D01*
X92042517Y-133344091D01*
X92102114Y-133350499D01*
X92102118Y-133350499D01*
X92102127Y-133350500D01*
X93897872Y-133350499D01*
X93957483Y-133344091D01*
X94053447Y-133308298D01*
X94092329Y-133293797D01*
X94092333Y-133293795D01*
X94149938Y-133250671D01*
X94207546Y-133207546D01*
X94293796Y-133092331D01*
X94293797Y-133092329D01*
X94293798Y-133092327D01*
X94329215Y-132997367D01*
X94373953Y-132934540D01*
X94444110Y-132902498D01*
X94520889Y-132909829D01*
X94574180Y-132944076D01*
X94660208Y-133030104D01*
X94832184Y-133155051D01*
X95021588Y-133251557D01*
X95223757Y-133317246D01*
X95433713Y-133350500D01*
X95433718Y-133350500D01*
X95646282Y-133350500D01*
X95646287Y-133350500D01*
X95856243Y-133317246D01*
X96058412Y-133251557D01*
X96247816Y-133155051D01*
X96419792Y-133030104D01*
X96570104Y-132879792D01*
X96689767Y-132715089D01*
X96749704Y-132666552D01*
X96825883Y-132654486D01*
X96897888Y-132682126D01*
X96930852Y-132715089D01*
X96964729Y-132761716D01*
X97597037Y-132129408D01*
X97614075Y-132192993D01*
X97679901Y-132307007D01*
X97772993Y-132400099D01*
X97887007Y-132465925D01*
X97950590Y-132482962D01*
X97318282Y-133115270D01*
X97372444Y-133154621D01*
X97372444Y-133154622D01*
X97561779Y-133251093D01*
X97763871Y-133316757D01*
X97973758Y-133350000D01*
X98186242Y-133350000D01*
X98396128Y-133316757D01*
X98598220Y-133251093D01*
X98787555Y-133154622D01*
X98787557Y-133154620D01*
X98841716Y-133115270D01*
X98841716Y-133115269D01*
X98209409Y-132482962D01*
X98272993Y-132465925D01*
X98387007Y-132400099D01*
X98480099Y-132307007D01*
X98545925Y-132192993D01*
X98562962Y-132129409D01*
X99195269Y-132761716D01*
X99195270Y-132761716D01*
X99234620Y-132707557D01*
X99234622Y-132707555D01*
X99331093Y-132518220D01*
X99396757Y-132316128D01*
X99430000Y-132106242D01*
X99430000Y-131893757D01*
X99396757Y-131683871D01*
X99329285Y-131476212D01*
X99330842Y-131475705D01*
X99321829Y-131407255D01*
X99351343Y-131335997D01*
X99412532Y-131289043D01*
X99469555Y-131277700D01*
X103500500Y-131277700D01*
X103575000Y-131297662D01*
X103629538Y-131352200D01*
X103649500Y-131426700D01*
X103649500Y-132897863D01*
X103649502Y-132897888D01*
X103655908Y-132957478D01*
X103655909Y-132957484D01*
X103706202Y-133092329D01*
X103706204Y-133092333D01*
X103792452Y-133207544D01*
X103792455Y-133207547D01*
X103907666Y-133293795D01*
X103907670Y-133293797D01*
X104042517Y-133344091D01*
X104102114Y-133350499D01*
X104102118Y-133350499D01*
X104102127Y-133350500D01*
X105897872Y-133350499D01*
X105957483Y-133344091D01*
X106053447Y-133308298D01*
X106092329Y-133293797D01*
X106092333Y-133293795D01*
X106149938Y-133250671D01*
X106207546Y-133207546D01*
X106293796Y-133092331D01*
X106293797Y-133092329D01*
X106293798Y-133092327D01*
X106329215Y-132997367D01*
X106373953Y-132934540D01*
X106444110Y-132902498D01*
X106520889Y-132909829D01*
X106574180Y-132944076D01*
X106660208Y-133030104D01*
X106832184Y-133155051D01*
X107021588Y-133251557D01*
X107223757Y-133317246D01*
X107433713Y-133350500D01*
X107433718Y-133350500D01*
X107646282Y-133350500D01*
X107646287Y-133350500D01*
X107856243Y-133317246D01*
X108058412Y-133251557D01*
X108247816Y-133155051D01*
X108419792Y-133030104D01*
X108570104Y-132879792D01*
X108689767Y-132715089D01*
X108749704Y-132666552D01*
X108825883Y-132654486D01*
X108897888Y-132682126D01*
X108930852Y-132715089D01*
X108964729Y-132761716D01*
X109597037Y-132129408D01*
X109614075Y-132192993D01*
X109679901Y-132307007D01*
X109772993Y-132400099D01*
X109887007Y-132465925D01*
X109950590Y-132482962D01*
X109318281Y-133115270D01*
X109372444Y-133154621D01*
X109372444Y-133154622D01*
X109561779Y-133251093D01*
X109763871Y-133316757D01*
X109973758Y-133350000D01*
X110186242Y-133350000D01*
X110396128Y-133316757D01*
X110598220Y-133251093D01*
X110787555Y-133154622D01*
X110787557Y-133154620D01*
X110841716Y-133115270D01*
X110841716Y-133115269D01*
X110209409Y-132482962D01*
X110272993Y-132465925D01*
X110387007Y-132400099D01*
X110480099Y-132307007D01*
X110545925Y-132192993D01*
X110562962Y-132129409D01*
X111195269Y-132761716D01*
X111195270Y-132761716D01*
X111234620Y-132707557D01*
X111234622Y-132707555D01*
X111331093Y-132518220D01*
X111396757Y-132316128D01*
X111430000Y-132106242D01*
X111430000Y-131893757D01*
X111396757Y-131683871D01*
X111329285Y-131476212D01*
X111330842Y-131475705D01*
X111321829Y-131407255D01*
X111351343Y-131335997D01*
X111412532Y-131289043D01*
X111469555Y-131277700D01*
X113973625Y-131277700D01*
X114048125Y-131297662D01*
X114078984Y-131321341D01*
X115301757Y-132544114D01*
X115416489Y-132620775D01*
X115416493Y-132620776D01*
X115416497Y-132620779D01*
X115550734Y-132676381D01*
X115550248Y-132677553D01*
X115609247Y-132714239D01*
X115645607Y-132782259D01*
X115649500Y-132816095D01*
X115649500Y-132897862D01*
X115649502Y-132897888D01*
X115655908Y-132957478D01*
X115655909Y-132957484D01*
X115706202Y-133092329D01*
X115706204Y-133092333D01*
X115792452Y-133207544D01*
X115792455Y-133207547D01*
X115907666Y-133293795D01*
X115907670Y-133293797D01*
X116042517Y-133344091D01*
X116102114Y-133350499D01*
X116102118Y-133350499D01*
X116102127Y-133350500D01*
X117897872Y-133350499D01*
X117957483Y-133344091D01*
X118053447Y-133308298D01*
X118092329Y-133293797D01*
X118092333Y-133293795D01*
X118149938Y-133250671D01*
X118207546Y-133207546D01*
X118293796Y-133092331D01*
X118293797Y-133092329D01*
X118293798Y-133092327D01*
X118329215Y-132997367D01*
X118373953Y-132934540D01*
X118444110Y-132902498D01*
X118520889Y-132909829D01*
X118574180Y-132944076D01*
X118660208Y-133030104D01*
X118832184Y-133155051D01*
X119021588Y-133251557D01*
X119223757Y-133317246D01*
X119433713Y-133350500D01*
X119433718Y-133350500D01*
X119646282Y-133350500D01*
X119646287Y-133350500D01*
X119856243Y-133317246D01*
X120058412Y-133251557D01*
X120247816Y-133155051D01*
X120419792Y-133030104D01*
X120570104Y-132879792D01*
X120689767Y-132715089D01*
X120749704Y-132666552D01*
X120825883Y-132654486D01*
X120897888Y-132682126D01*
X120930852Y-132715089D01*
X120964729Y-132761716D01*
X121597037Y-132129408D01*
X121614075Y-132192993D01*
X121679901Y-132307007D01*
X121772993Y-132400099D01*
X121887007Y-132465925D01*
X121950590Y-132482962D01*
X121318281Y-133115270D01*
X121372444Y-133154621D01*
X121372444Y-133154622D01*
X121561779Y-133251093D01*
X121763871Y-133316757D01*
X121973758Y-133350000D01*
X122186242Y-133350000D01*
X122396128Y-133316757D01*
X122598220Y-133251093D01*
X122787555Y-133154622D01*
X122787557Y-133154620D01*
X122841716Y-133115270D01*
X122841716Y-133115269D01*
X122209409Y-132482962D01*
X122272993Y-132465925D01*
X122387007Y-132400099D01*
X122480099Y-132307007D01*
X122545925Y-132192993D01*
X122562962Y-132129409D01*
X123195269Y-132761716D01*
X123195270Y-132761716D01*
X123234620Y-132707557D01*
X123234622Y-132707555D01*
X123331093Y-132518220D01*
X123396757Y-132316128D01*
X123430000Y-132106242D01*
X123430000Y-131893757D01*
X123396757Y-131683871D01*
X123331093Y-131481779D01*
X123234621Y-131292444D01*
X123195270Y-131238282D01*
X122562962Y-131870589D01*
X122545925Y-131807007D01*
X122480099Y-131692993D01*
X122387007Y-131599901D01*
X122272993Y-131534075D01*
X122209407Y-131517037D01*
X122841716Y-130884729D01*
X122841716Y-130884728D01*
X122787555Y-130845378D01*
X122787555Y-130845377D01*
X122598220Y-130748906D01*
X122396128Y-130683242D01*
X122186242Y-130650000D01*
X121973758Y-130650000D01*
X121763871Y-130683242D01*
X121561779Y-130748906D01*
X121372444Y-130845378D01*
X121318282Y-130884728D01*
X121318282Y-130884729D01*
X121950590Y-131517037D01*
X121887007Y-131534075D01*
X121772993Y-131599901D01*
X121679901Y-131692993D01*
X121614075Y-131807007D01*
X121597037Y-131870590D01*
X120964729Y-131238282D01*
X120964727Y-131238282D01*
X120930852Y-131284908D01*
X120870912Y-131333446D01*
X120794734Y-131345512D01*
X120722729Y-131317871D01*
X120689765Y-131284908D01*
X120655889Y-131238282D01*
X120570104Y-131120208D01*
X120419792Y-130969896D01*
X120247816Y-130844949D01*
X120058412Y-130748443D01*
X119973804Y-130720952D01*
X119853573Y-130681886D01*
X119794258Y-130645538D01*
X118594679Y-129445959D01*
X118556115Y-129379164D01*
X118556115Y-129302036D01*
X118594679Y-129235241D01*
X118661474Y-129196677D01*
X118700038Y-129191600D01*
X123887525Y-129191600D01*
X123962025Y-129211562D01*
X123992884Y-129235241D01*
X127301757Y-132544114D01*
X127416489Y-132620775D01*
X127416493Y-132620776D01*
X127416497Y-132620779D01*
X127550734Y-132676381D01*
X127550248Y-132677553D01*
X127609247Y-132714239D01*
X127645607Y-132782259D01*
X127649500Y-132816095D01*
X127649500Y-132897862D01*
X127649502Y-132897888D01*
X127655908Y-132957478D01*
X127655909Y-132957484D01*
X127706202Y-133092329D01*
X127706204Y-133092333D01*
X127792452Y-133207544D01*
X127792455Y-133207547D01*
X127907666Y-133293795D01*
X127907670Y-133293797D01*
X128042517Y-133344091D01*
X128102114Y-133350499D01*
X128102118Y-133350499D01*
X128102127Y-133350500D01*
X129897872Y-133350499D01*
X129957483Y-133344091D01*
X130053447Y-133308298D01*
X130092329Y-133293797D01*
X130092333Y-133293795D01*
X130149938Y-133250671D01*
X130207546Y-133207546D01*
X130293796Y-133092331D01*
X130293797Y-133092329D01*
X130293798Y-133092327D01*
X130329215Y-132997367D01*
X130373953Y-132934540D01*
X130444110Y-132902498D01*
X130520889Y-132909829D01*
X130574180Y-132944076D01*
X130660208Y-133030104D01*
X130832184Y-133155051D01*
X131021588Y-133251557D01*
X131223757Y-133317246D01*
X131433713Y-133350500D01*
X131433718Y-133350500D01*
X131646282Y-133350500D01*
X131646287Y-133350500D01*
X131856243Y-133317246D01*
X132058412Y-133251557D01*
X132247816Y-133155051D01*
X132419792Y-133030104D01*
X132570104Y-132879792D01*
X132689767Y-132715089D01*
X132749704Y-132666552D01*
X132825883Y-132654486D01*
X132897888Y-132682126D01*
X132930852Y-132715089D01*
X132964729Y-132761716D01*
X133597037Y-132129408D01*
X133614075Y-132192993D01*
X133679901Y-132307007D01*
X133772993Y-132400099D01*
X133887007Y-132465925D01*
X133950590Y-132482962D01*
X133318281Y-133115270D01*
X133372444Y-133154621D01*
X133372444Y-133154622D01*
X133561779Y-133251093D01*
X133763871Y-133316757D01*
X133973758Y-133350000D01*
X134186242Y-133350000D01*
X134396128Y-133316757D01*
X134598220Y-133251093D01*
X134787555Y-133154622D01*
X134787557Y-133154620D01*
X134841716Y-133115270D01*
X134841716Y-133115269D01*
X134209409Y-132482962D01*
X134272993Y-132465925D01*
X134387007Y-132400099D01*
X134480099Y-132307007D01*
X134545925Y-132192993D01*
X134562962Y-132129409D01*
X135195269Y-132761716D01*
X135195270Y-132761716D01*
X135234620Y-132707557D01*
X135234622Y-132707555D01*
X135331093Y-132518220D01*
X135396757Y-132316128D01*
X135430000Y-132106242D01*
X135430000Y-131893757D01*
X135396757Y-131683871D01*
X135331093Y-131481779D01*
X135234621Y-131292444D01*
X135195270Y-131238282D01*
X134562962Y-131870589D01*
X134545925Y-131807007D01*
X134480099Y-131692993D01*
X134387007Y-131599901D01*
X134272993Y-131534075D01*
X134209407Y-131517037D01*
X134841716Y-130884729D01*
X134841716Y-130884728D01*
X134787555Y-130845378D01*
X134787555Y-130845377D01*
X134598220Y-130748906D01*
X134396128Y-130683242D01*
X134186242Y-130650000D01*
X133973758Y-130650000D01*
X133763871Y-130683242D01*
X133561779Y-130748906D01*
X133372444Y-130845378D01*
X133318282Y-130884728D01*
X133318282Y-130884729D01*
X133950590Y-131517037D01*
X133887007Y-131534075D01*
X133772993Y-131599901D01*
X133679901Y-131692993D01*
X133614075Y-131807007D01*
X133597037Y-131870590D01*
X132964729Y-131238282D01*
X132964727Y-131238282D01*
X132930852Y-131284908D01*
X132870912Y-131333446D01*
X132794734Y-131345512D01*
X132722729Y-131317871D01*
X132689765Y-131284908D01*
X132655889Y-131238282D01*
X132570104Y-131120208D01*
X132419792Y-130969896D01*
X132247816Y-130844949D01*
X132058412Y-130748443D01*
X131973804Y-130720952D01*
X131853573Y-130681886D01*
X131794258Y-130645538D01*
X112410941Y-111262221D01*
X112410939Y-111262218D01*
X112271582Y-111122861D01*
X112238719Y-111100902D01*
X112107719Y-111013370D01*
X112107709Y-111013365D01*
X112018668Y-110976483D01*
X111978965Y-110960038D01*
X111952300Y-110948993D01*
X111925637Y-110937949D01*
X111828988Y-110918724D01*
X111828988Y-110918723D01*
X111732341Y-110899500D01*
X111086297Y-110899500D01*
X111011797Y-110879538D01*
X110968088Y-110841206D01*
X110816937Y-110644223D01*
X110640777Y-110468063D01*
X110640776Y-110468062D01*
X110443127Y-110316401D01*
X110371209Y-110274879D01*
X110227377Y-110191838D01*
X110227375Y-110191837D01*
X110227373Y-110191836D01*
X110092548Y-110135989D01*
X109997210Y-110096499D01*
X109997208Y-110096498D01*
X109997207Y-110096498D01*
X109756565Y-110032018D01*
X109756563Y-110032017D01*
X109756557Y-110032016D01*
X109509570Y-109999500D01*
X109509565Y-109999500D01*
X109260435Y-109999500D01*
X109260429Y-109999500D01*
X109013442Y-110032016D01*
X108772789Y-110096499D01*
X108542622Y-110191838D01*
X108326874Y-110316400D01*
X108129222Y-110468063D01*
X107953063Y-110644222D01*
X107801400Y-110841874D01*
X107676838Y-111057622D01*
X107581499Y-111287789D01*
X107517016Y-111528442D01*
X107484500Y-111775429D01*
X107484500Y-112024570D01*
X107517016Y-112271557D01*
X107517017Y-112271563D01*
X107517018Y-112271565D01*
X107581498Y-112512207D01*
X107676836Y-112742373D01*
X107801401Y-112958127D01*
X107953062Y-113155776D01*
X108129224Y-113331938D01*
X108326873Y-113483599D01*
X108542627Y-113608164D01*
X108772793Y-113703502D01*
X109013435Y-113767982D01*
X109013441Y-113767982D01*
X109013442Y-113767983D01*
X109080586Y-113776822D01*
X109260435Y-113800500D01*
X109509565Y-113800500D01*
X109756565Y-113767982D01*
X109997207Y-113703502D01*
X110227373Y-113608164D01*
X110443127Y-113483599D01*
X110640776Y-113331938D01*
X110816938Y-113155776D01*
X110900644Y-113046687D01*
X110968088Y-112958794D01*
X111029277Y-112911842D01*
X111086297Y-112900500D01*
X111157662Y-112900500D01*
X111232162Y-112920462D01*
X111263021Y-112944141D01*
X128714021Y-130395141D01*
X128752585Y-130461936D01*
X128752585Y-130539064D01*
X128714021Y-130605859D01*
X128647226Y-130644423D01*
X128608662Y-130649500D01*
X128102136Y-130649500D01*
X128102111Y-130649502D01*
X128042521Y-130655908D01*
X128042515Y-130655909D01*
X127907670Y-130706202D01*
X127907666Y-130706204D01*
X127792455Y-130792452D01*
X127792452Y-130792455D01*
X127783742Y-130804090D01*
X127723113Y-130851764D01*
X127646769Y-130862736D01*
X127575167Y-130834067D01*
X127559107Y-130820150D01*
X124685946Y-127946989D01*
X124685943Y-127946986D01*
X124571211Y-127870325D01*
X124571208Y-127870323D01*
X124571202Y-127870320D01*
X124443729Y-127817520D01*
X124443727Y-127817519D01*
X124308397Y-127790600D01*
X124308394Y-127790600D01*
X124308393Y-127790600D01*
X91640189Y-127790600D01*
X91583170Y-127779258D01*
X91443398Y-127721363D01*
X91443394Y-127721362D01*
X91288742Y-127690600D01*
X91131058Y-127690600D01*
X90976405Y-127721362D01*
X90976401Y-127721363D01*
X90830723Y-127781704D01*
X90699607Y-127869314D01*
X90588114Y-127980807D01*
X90500504Y-128111923D01*
X90440163Y-128257601D01*
X90440162Y-128257605D01*
X90409400Y-128412257D01*
X85524499Y-128412257D01*
X85637177Y-128299579D01*
X86246156Y-127690600D01*
X94167471Y-119769284D01*
X94215801Y-119736991D01*
X94355579Y-119679094D01*
X94486689Y-119591489D01*
X94598189Y-119479989D01*
X94685794Y-119348879D01*
X94746137Y-119203197D01*
X94776900Y-119048542D01*
X94776900Y-118890858D01*
X94774698Y-118879790D01*
X94751212Y-118761716D01*
X94746137Y-118736203D01*
X94685794Y-118590521D01*
X94598189Y-118459411D01*
X94486689Y-118347911D01*
X94355579Y-118260306D01*
X94355578Y-118260305D01*
X94355576Y-118260304D01*
X94209898Y-118199963D01*
X94209894Y-118199962D01*
X94055242Y-118169200D01*
X93897558Y-118169200D01*
X93742905Y-118199962D01*
X93742901Y-118199963D01*
X93597223Y-118260304D01*
X93466107Y-118347914D01*
X93354614Y-118459407D01*
X93354611Y-118459410D01*
X93354611Y-118459411D01*
X93333011Y-118491737D01*
X93267005Y-118590521D01*
X93209112Y-118730289D01*
X93176813Y-118778628D01*
X81951284Y-130004159D01*
X81884489Y-130042723D01*
X81845925Y-130047800D01*
X80931007Y-130047800D01*
X80795674Y-130074719D01*
X80795670Y-130074720D01*
X80668190Y-130127524D01*
X80668184Y-130127527D01*
X80553461Y-130204183D01*
X80553454Y-130204189D01*
X80455889Y-130301754D01*
X80455883Y-130301761D01*
X80379227Y-130416484D01*
X80379224Y-130416490D01*
X80323619Y-130550734D01*
X80322449Y-130550249D01*
X80285746Y-130609261D01*
X80217721Y-130645611D01*
X80183904Y-130649500D01*
X80102137Y-130649500D01*
X80102111Y-130649502D01*
X80042521Y-130655908D01*
X80042515Y-130655909D01*
X79907670Y-130706202D01*
X79907666Y-130706204D01*
X79792455Y-130792452D01*
X79792452Y-130792455D01*
X79706204Y-130907666D01*
X79706202Y-130907670D01*
X79655908Y-131042517D01*
X79649500Y-131102114D01*
X74624331Y-131102114D01*
X74841716Y-130884729D01*
X74841716Y-130884728D01*
X74787555Y-130845378D01*
X74787555Y-130845377D01*
X74598220Y-130748906D01*
X74396128Y-130683242D01*
X74186242Y-130650000D01*
X73973758Y-130650000D01*
X73763871Y-130683242D01*
X73561779Y-130748906D01*
X73372444Y-130845378D01*
X73318282Y-130884728D01*
X73318282Y-130884729D01*
X73950590Y-131517037D01*
X73887007Y-131534075D01*
X73772993Y-131599901D01*
X73679901Y-131692993D01*
X73614075Y-131807007D01*
X73597037Y-131870590D01*
X72964729Y-131238282D01*
X72964727Y-131238282D01*
X72930852Y-131284908D01*
X72870912Y-131333446D01*
X72794734Y-131345512D01*
X72722729Y-131317871D01*
X72689765Y-131284908D01*
X72655889Y-131238282D01*
X72570104Y-131120208D01*
X72419792Y-130969896D01*
X72247816Y-130844949D01*
X72058412Y-130748443D01*
X71856243Y-130682754D01*
X71646287Y-130649500D01*
X71433713Y-130649500D01*
X71259701Y-130677061D01*
X71223756Y-130682754D01*
X71106196Y-130720952D01*
X71021588Y-130748443D01*
X71021582Y-130748445D01*
X71021582Y-130748446D01*
X70832182Y-130844950D01*
X70832181Y-130844950D01*
X70660209Y-130969895D01*
X70660198Y-130969904D01*
X70574179Y-131055923D01*
X70507384Y-131094487D01*
X70430256Y-131094487D01*
X70363462Y-131055922D01*
X70329215Y-131002633D01*
X70317008Y-130969904D01*
X70293796Y-130907669D01*
X70293795Y-130907668D01*
X70293795Y-130907666D01*
X70207547Y-130792455D01*
X70207544Y-130792452D01*
X70092333Y-130706204D01*
X70092329Y-130706202D01*
X69957482Y-130655908D01*
X69897876Y-130649500D01*
X68102136Y-130649500D01*
X68102111Y-130649502D01*
X68042521Y-130655908D01*
X68042515Y-130655909D01*
X67907670Y-130706202D01*
X67907666Y-130706204D01*
X67792455Y-130792452D01*
X67792452Y-130792455D01*
X67706204Y-130907666D01*
X67706202Y-130907670D01*
X67655908Y-131042517D01*
X67649500Y-131102114D01*
X62624331Y-131102114D01*
X62841716Y-130884729D01*
X62841716Y-130884728D01*
X62787555Y-130845378D01*
X62787555Y-130845377D01*
X62598220Y-130748906D01*
X62396128Y-130683242D01*
X62186242Y-130650000D01*
X61973758Y-130650000D01*
X61763871Y-130683242D01*
X61561779Y-130748906D01*
X61372444Y-130845378D01*
X61318282Y-130884728D01*
X61318282Y-130884729D01*
X61950590Y-131517037D01*
X61887007Y-131534075D01*
X61772993Y-131599901D01*
X61679901Y-131692993D01*
X61614075Y-131807007D01*
X61597037Y-131870590D01*
X60964729Y-131238282D01*
X60964727Y-131238282D01*
X60930852Y-131284908D01*
X60870912Y-131333446D01*
X60794734Y-131345512D01*
X60722729Y-131317871D01*
X60689765Y-131284908D01*
X60655889Y-131238282D01*
X60570104Y-131120208D01*
X60419792Y-130969896D01*
X60247816Y-130844949D01*
X60058412Y-130748443D01*
X59856243Y-130682754D01*
X59646287Y-130649500D01*
X59433713Y-130649500D01*
X59259701Y-130677061D01*
X59223756Y-130682754D01*
X59106196Y-130720952D01*
X59021588Y-130748443D01*
X59021582Y-130748445D01*
X59021582Y-130748446D01*
X58832182Y-130844950D01*
X58832181Y-130844950D01*
X58660209Y-130969895D01*
X58660198Y-130969904D01*
X58574179Y-131055923D01*
X58507384Y-131094487D01*
X58430256Y-131094487D01*
X58363462Y-131055922D01*
X58329215Y-131002633D01*
X58317008Y-130969904D01*
X58293796Y-130907669D01*
X58293795Y-130907668D01*
X58293795Y-130907666D01*
X58207547Y-130792455D01*
X58207544Y-130792452D01*
X58092333Y-130706204D01*
X58092329Y-130706202D01*
X57957482Y-130655908D01*
X57897876Y-130649500D01*
X56102136Y-130649500D01*
X56102111Y-130649502D01*
X56042521Y-130655908D01*
X56042515Y-130655909D01*
X55907670Y-130706202D01*
X55907666Y-130706204D01*
X55792455Y-130792452D01*
X55792452Y-130792455D01*
X55706204Y-130907666D01*
X55706202Y-130907670D01*
X55655908Y-131042517D01*
X55649500Y-131102114D01*
X50624331Y-131102114D01*
X50841716Y-130884729D01*
X50841716Y-130884728D01*
X50787555Y-130845378D01*
X50787555Y-130845377D01*
X50598220Y-130748906D01*
X50396128Y-130683242D01*
X50186242Y-130650000D01*
X49973758Y-130650000D01*
X49763871Y-130683242D01*
X49561779Y-130748906D01*
X49372444Y-130845378D01*
X49318282Y-130884728D01*
X49318282Y-130884729D01*
X49950590Y-131517037D01*
X49887007Y-131534075D01*
X49772993Y-131599901D01*
X49679901Y-131692993D01*
X49614075Y-131807007D01*
X49597037Y-131870590D01*
X48964729Y-131238282D01*
X48964727Y-131238282D01*
X48930852Y-131284908D01*
X48870912Y-131333446D01*
X48794734Y-131345512D01*
X48722729Y-131317871D01*
X48689765Y-131284908D01*
X48655889Y-131238282D01*
X48570104Y-131120208D01*
X48419792Y-130969896D01*
X48247816Y-130844949D01*
X48058412Y-130748443D01*
X47856243Y-130682754D01*
X47646287Y-130649500D01*
X47433713Y-130649500D01*
X47259701Y-130677061D01*
X47223756Y-130682754D01*
X47106196Y-130720952D01*
X47021588Y-130748443D01*
X47021582Y-130748445D01*
X47021582Y-130748446D01*
X46832182Y-130844950D01*
X46832181Y-130844950D01*
X46660209Y-130969895D01*
X46660198Y-130969904D01*
X46574179Y-131055923D01*
X46507384Y-131094487D01*
X46430256Y-131094487D01*
X46363462Y-131055922D01*
X46329215Y-131002633D01*
X46317008Y-130969904D01*
X46293796Y-130907669D01*
X46293795Y-130907668D01*
X46293795Y-130907666D01*
X46207547Y-130792455D01*
X46207544Y-130792452D01*
X46092333Y-130706204D01*
X46092329Y-130706202D01*
X45957482Y-130655908D01*
X45897876Y-130649500D01*
X44102136Y-130649500D01*
X44102111Y-130649502D01*
X44042521Y-130655908D01*
X44042515Y-130655909D01*
X43907670Y-130706202D01*
X43907666Y-130706204D01*
X43792455Y-130792452D01*
X43792452Y-130792455D01*
X43706204Y-130907666D01*
X43706202Y-130907670D01*
X43655908Y-131042517D01*
X43649500Y-131102114D01*
X38624331Y-131102114D01*
X38841716Y-130884729D01*
X38841716Y-130884728D01*
X38787555Y-130845378D01*
X38787555Y-130845377D01*
X38598220Y-130748906D01*
X38396128Y-130683242D01*
X38186242Y-130650000D01*
X37973758Y-130650000D01*
X37763871Y-130683242D01*
X37561779Y-130748906D01*
X37372444Y-130845378D01*
X37318282Y-130884728D01*
X37318282Y-130884729D01*
X37950590Y-131517037D01*
X37887007Y-131534075D01*
X37772993Y-131599901D01*
X37679901Y-131692993D01*
X37614075Y-131807007D01*
X37597037Y-131870590D01*
X36964729Y-131238282D01*
X36964727Y-131238282D01*
X36930852Y-131284908D01*
X36870912Y-131333446D01*
X36794734Y-131345512D01*
X36722729Y-131317871D01*
X36689765Y-131284908D01*
X36655889Y-131238282D01*
X36570104Y-131120208D01*
X36419792Y-130969896D01*
X36302569Y-130884729D01*
X36247818Y-130844950D01*
X36247812Y-130844947D01*
X36166878Y-130803708D01*
X36109561Y-130752099D01*
X36085728Y-130678746D01*
X36101765Y-130603303D01*
X36129162Y-130565593D01*
X49592642Y-117102114D01*
X67649500Y-117102114D01*
X67649500Y-118897863D01*
X67649502Y-118897888D01*
X67655908Y-118957478D01*
X67655909Y-118957484D01*
X67706202Y-119092329D01*
X67706204Y-119092333D01*
X67792452Y-119207544D01*
X67792455Y-119207547D01*
X67907666Y-119293795D01*
X67907670Y-119293797D01*
X68042517Y-119344091D01*
X68102114Y-119350499D01*
X68102118Y-119350499D01*
X68102127Y-119350500D01*
X69897872Y-119350499D01*
X69957483Y-119344091D01*
X70053447Y-119308298D01*
X70092329Y-119293797D01*
X70092333Y-119293795D01*
X70149938Y-119250671D01*
X70207546Y-119207546D01*
X70293796Y-119092331D01*
X70293797Y-119092329D01*
X70293798Y-119092327D01*
X70329215Y-118997367D01*
X70373953Y-118934540D01*
X70444110Y-118902498D01*
X70520889Y-118909829D01*
X70574180Y-118944076D01*
X70660208Y-119030104D01*
X70832184Y-119155051D01*
X71021588Y-119251557D01*
X71223757Y-119317246D01*
X71433713Y-119350500D01*
X71433718Y-119350500D01*
X71646282Y-119350500D01*
X71646287Y-119350500D01*
X71856243Y-119317246D01*
X72058412Y-119251557D01*
X72247816Y-119155051D01*
X72419792Y-119030104D01*
X72570104Y-118879792D01*
X72689767Y-118715089D01*
X72749704Y-118666552D01*
X72825883Y-118654486D01*
X72897888Y-118682126D01*
X72930852Y-118715089D01*
X72964729Y-118761716D01*
X73597037Y-118129408D01*
X73614075Y-118192993D01*
X73679901Y-118307007D01*
X73772993Y-118400099D01*
X73887007Y-118465925D01*
X73950590Y-118482962D01*
X73318282Y-119115270D01*
X73372444Y-119154621D01*
X73372444Y-119154622D01*
X73561779Y-119251093D01*
X73763871Y-119316757D01*
X73973758Y-119350000D01*
X74186242Y-119350000D01*
X74396128Y-119316757D01*
X74598220Y-119251093D01*
X74787555Y-119154622D01*
X74787557Y-119154620D01*
X74841716Y-119115270D01*
X74841716Y-119115269D01*
X74209409Y-118482962D01*
X74272993Y-118465925D01*
X74387007Y-118400099D01*
X74480099Y-118307007D01*
X74545925Y-118192993D01*
X74562962Y-118129409D01*
X75195269Y-118761716D01*
X75195270Y-118761716D01*
X75234620Y-118707557D01*
X75234622Y-118707555D01*
X75331093Y-118518220D01*
X75396757Y-118316128D01*
X75420698Y-118164973D01*
X75430000Y-118106242D01*
X75430000Y-117893757D01*
X75396757Y-117683871D01*
X75331093Y-117481779D01*
X75234621Y-117292444D01*
X75195270Y-117238282D01*
X74562962Y-117870589D01*
X74545925Y-117807007D01*
X74480099Y-117692993D01*
X74387007Y-117599901D01*
X74272993Y-117534075D01*
X74209407Y-117517037D01*
X74841716Y-116884729D01*
X74841716Y-116884728D01*
X74787555Y-116845378D01*
X74787555Y-116845377D01*
X74598220Y-116748906D01*
X74396128Y-116683242D01*
X74186242Y-116650000D01*
X73973758Y-116650000D01*
X73763871Y-116683242D01*
X73561779Y-116748906D01*
X73372444Y-116845378D01*
X73318282Y-116884728D01*
X73318282Y-116884729D01*
X73950590Y-117517037D01*
X73887007Y-117534075D01*
X73772993Y-117599901D01*
X73679901Y-117692993D01*
X73614075Y-117807007D01*
X73597037Y-117870590D01*
X72964729Y-117238282D01*
X72964727Y-117238282D01*
X72930852Y-117284908D01*
X72870912Y-117333446D01*
X72794734Y-117345512D01*
X72722729Y-117317871D01*
X72689765Y-117284908D01*
X72655889Y-117238282D01*
X72570104Y-117120208D01*
X72419792Y-116969896D01*
X72247816Y-116844949D01*
X72058412Y-116748443D01*
X71856243Y-116682754D01*
X71646287Y-116649500D01*
X71433713Y-116649500D01*
X71258749Y-116677211D01*
X71223756Y-116682754D01*
X71078349Y-116730000D01*
X71021588Y-116748443D01*
X71021582Y-116748445D01*
X71021582Y-116748446D01*
X70832182Y-116844950D01*
X70832181Y-116844950D01*
X70660209Y-116969895D01*
X70660198Y-116969904D01*
X70574179Y-117055923D01*
X70507384Y-117094487D01*
X70430256Y-117094487D01*
X70363462Y-117055922D01*
X70329215Y-117002633D01*
X70317008Y-116969904D01*
X70293796Y-116907669D01*
X70293795Y-116907668D01*
X70293795Y-116907666D01*
X70207547Y-116792455D01*
X70207544Y-116792452D01*
X70092333Y-116706204D01*
X70092329Y-116706202D01*
X69957482Y-116655908D01*
X69897876Y-116649500D01*
X68102136Y-116649500D01*
X68102111Y-116649502D01*
X68042521Y-116655908D01*
X68042515Y-116655909D01*
X67907670Y-116706202D01*
X67907666Y-116706204D01*
X67792455Y-116792452D01*
X67792452Y-116792455D01*
X67706204Y-116907666D01*
X67706202Y-116907670D01*
X67655908Y-117042517D01*
X67649500Y-117102114D01*
X49592642Y-117102114D01*
X51341043Y-115353713D01*
X79649500Y-115353713D01*
X79649500Y-115566287D01*
X79682754Y-115776243D01*
X79748443Y-115978412D01*
X79841357Y-116160767D01*
X79844950Y-116167817D01*
X79844950Y-116167818D01*
X79969895Y-116339790D01*
X79969897Y-116339793D01*
X80056311Y-116426207D01*
X80094875Y-116493002D01*
X80094875Y-116570130D01*
X80056311Y-116636925D01*
X80003024Y-116671171D01*
X79907911Y-116706647D01*
X79907905Y-116706650D01*
X79792812Y-116792809D01*
X79792809Y-116792812D01*
X79706650Y-116907905D01*
X79706645Y-116907915D01*
X79656401Y-117042622D01*
X79650001Y-117102157D01*
X79650000Y-117102177D01*
X79650000Y-117750000D01*
X80566988Y-117750000D01*
X80534075Y-117807007D01*
X80500000Y-117934174D01*
X80500000Y-118065826D01*
X80534075Y-118192993D01*
X80566988Y-118250000D01*
X79650000Y-118250000D01*
X79650000Y-118897822D01*
X79650001Y-118897842D01*
X79656401Y-118957377D01*
X79706645Y-119092084D01*
X79706650Y-119092094D01*
X79792809Y-119207187D01*
X79792812Y-119207190D01*
X79907905Y-119293349D01*
X79907915Y-119293354D01*
X80042623Y-119343598D01*
X80042621Y-119343598D01*
X80102157Y-119349998D01*
X80102177Y-119350000D01*
X80750000Y-119350000D01*
X80750000Y-118433012D01*
X80807007Y-118465925D01*
X80934174Y-118500000D01*
X81065826Y-118500000D01*
X81192993Y-118465925D01*
X81250000Y-118433012D01*
X81250000Y-119350000D01*
X81897823Y-119350000D01*
X81897842Y-119349998D01*
X81957377Y-119343598D01*
X82092084Y-119293354D01*
X82092094Y-119293349D01*
X82207187Y-119207190D01*
X82207190Y-119207187D01*
X82293349Y-119092094D01*
X82293351Y-119092090D01*
X82328827Y-118996977D01*
X82373566Y-118934150D01*
X82443724Y-118902110D01*
X82520503Y-118909441D01*
X82573792Y-118943688D01*
X82660208Y-119030104D01*
X82832184Y-119155051D01*
X83021588Y-119251557D01*
X83223757Y-119317246D01*
X83433713Y-119350500D01*
X83433718Y-119350500D01*
X83646282Y-119350500D01*
X83646287Y-119350500D01*
X83856243Y-119317246D01*
X84058412Y-119251557D01*
X84247816Y-119155051D01*
X84419792Y-119030104D01*
X84570104Y-118879792D01*
X84689456Y-118715517D01*
X84749396Y-118666979D01*
X84825574Y-118654913D01*
X84897580Y-118682553D01*
X84930544Y-118715517D01*
X85049896Y-118879792D01*
X85200208Y-119030104D01*
X85372184Y-119155051D01*
X85561588Y-119251557D01*
X85763757Y-119317246D01*
X85973713Y-119350500D01*
X85973718Y-119350500D01*
X86186282Y-119350500D01*
X86186287Y-119350500D01*
X86396243Y-119317246D01*
X86598412Y-119251557D01*
X86787816Y-119155051D01*
X86959792Y-119030104D01*
X87110104Y-118879792D01*
X87229456Y-118715517D01*
X87289396Y-118666979D01*
X87365574Y-118654913D01*
X87437580Y-118682553D01*
X87470544Y-118715517D01*
X87589896Y-118879792D01*
X87740208Y-119030104D01*
X87912184Y-119155051D01*
X88101588Y-119251557D01*
X88303757Y-119317246D01*
X88513713Y-119350500D01*
X88513718Y-119350500D01*
X88726282Y-119350500D01*
X88726287Y-119350500D01*
X88936243Y-119317246D01*
X89138412Y-119251557D01*
X89327816Y-119155051D01*
X89499792Y-119030104D01*
X89650104Y-118879792D01*
X89775051Y-118707816D01*
X89871557Y-118518412D01*
X89937246Y-118316243D01*
X89970500Y-118106287D01*
X89970500Y-117893713D01*
X89937246Y-117683757D01*
X89871557Y-117481588D01*
X89775051Y-117292184D01*
X89650104Y-117120208D01*
X89499792Y-116969896D01*
X89335517Y-116850544D01*
X89286979Y-116790604D01*
X89274913Y-116714426D01*
X89302553Y-116642420D01*
X89335517Y-116609456D01*
X89342519Y-116604368D01*
X89499792Y-116490104D01*
X89650104Y-116339792D01*
X89775051Y-116167816D01*
X89871557Y-115978412D01*
X89937246Y-115776243D01*
X89970500Y-115566287D01*
X89970500Y-115353713D01*
X89937246Y-115143757D01*
X89871557Y-114941588D01*
X89775051Y-114752184D01*
X89650104Y-114580208D01*
X89499792Y-114429896D01*
X89327816Y-114304949D01*
X89138412Y-114208443D01*
X88936243Y-114142754D01*
X88726287Y-114109500D01*
X88513713Y-114109500D01*
X88338749Y-114137211D01*
X88303756Y-114142754D01*
X88101594Y-114208441D01*
X88101588Y-114208443D01*
X88101582Y-114208445D01*
X88101582Y-114208446D01*
X87912182Y-114304950D01*
X87912181Y-114304950D01*
X87740209Y-114429895D01*
X87740206Y-114429897D01*
X87589897Y-114580206D01*
X87589895Y-114580209D01*
X87470544Y-114744482D01*
X87410604Y-114793020D01*
X87334425Y-114805086D01*
X87262420Y-114777446D01*
X87229456Y-114744482D01*
X87167236Y-114658844D01*
X87110104Y-114580208D01*
X86959792Y-114429896D01*
X86787816Y-114304949D01*
X86598412Y-114208443D01*
X86396243Y-114142754D01*
X86186287Y-114109500D01*
X85973713Y-114109500D01*
X85798749Y-114137211D01*
X85763756Y-114142754D01*
X85561594Y-114208441D01*
X85561588Y-114208443D01*
X85561582Y-114208445D01*
X85561582Y-114208446D01*
X85372182Y-114304950D01*
X85372181Y-114304950D01*
X85200209Y-114429895D01*
X85200206Y-114429897D01*
X85049897Y-114580206D01*
X85049895Y-114580209D01*
X84930544Y-114744482D01*
X84870604Y-114793020D01*
X84794425Y-114805086D01*
X84722420Y-114777446D01*
X84689456Y-114744482D01*
X84627236Y-114658844D01*
X84570104Y-114580208D01*
X84419792Y-114429896D01*
X84247816Y-114304949D01*
X84058412Y-114208443D01*
X83856243Y-114142754D01*
X83646287Y-114109500D01*
X83433713Y-114109500D01*
X83258749Y-114137211D01*
X83223756Y-114142754D01*
X83021594Y-114208441D01*
X83021588Y-114208443D01*
X83021582Y-114208445D01*
X83021582Y-114208446D01*
X82832182Y-114304950D01*
X82832181Y-114304950D01*
X82660209Y-114429895D01*
X82660206Y-114429897D01*
X82509897Y-114580206D01*
X82509895Y-114580209D01*
X82390544Y-114744482D01*
X82330604Y-114793020D01*
X82254425Y-114805086D01*
X82182420Y-114777446D01*
X82149456Y-114744482D01*
X82087236Y-114658844D01*
X82030104Y-114580208D01*
X81879792Y-114429896D01*
X81707816Y-114304949D01*
X81518412Y-114208443D01*
X81316243Y-114142754D01*
X81106287Y-114109500D01*
X80893713Y-114109500D01*
X80718749Y-114137211D01*
X80683756Y-114142754D01*
X80481594Y-114208441D01*
X80481588Y-114208443D01*
X80481582Y-114208445D01*
X80481582Y-114208446D01*
X80292182Y-114304950D01*
X80292181Y-114304950D01*
X80120209Y-114429895D01*
X80120206Y-114429897D01*
X79969897Y-114580206D01*
X79969895Y-114580209D01*
X79844950Y-114752181D01*
X79844950Y-114752182D01*
X79844949Y-114752184D01*
X79748443Y-114941588D01*
X79682754Y-115143757D01*
X79649500Y-115353713D01*
X51341043Y-115353713D01*
X54919328Y-111775429D01*
X62984500Y-111775429D01*
X62984500Y-112024570D01*
X63017016Y-112271557D01*
X63017017Y-112271563D01*
X63017018Y-112271565D01*
X63081498Y-112512207D01*
X63176836Y-112742373D01*
X63301401Y-112958127D01*
X63453062Y-113155776D01*
X63629224Y-113331938D01*
X63826873Y-113483599D01*
X64042627Y-113608164D01*
X64272793Y-113703502D01*
X64513435Y-113767982D01*
X64513441Y-113767982D01*
X64513442Y-113767983D01*
X64580586Y-113776822D01*
X64760435Y-113800500D01*
X65009565Y-113800500D01*
X65256565Y-113767982D01*
X65497207Y-113703502D01*
X65727373Y-113608164D01*
X65943127Y-113483599D01*
X66140776Y-113331938D01*
X66316938Y-113155776D01*
X66468599Y-112958127D01*
X66593164Y-112742373D01*
X66688502Y-112512207D01*
X66752982Y-112271565D01*
X66785500Y-112024565D01*
X66785500Y-111775435D01*
X66785499Y-111775429D01*
X85284500Y-111775429D01*
X85284500Y-112024570D01*
X85317016Y-112271557D01*
X85317017Y-112271563D01*
X85317018Y-112271565D01*
X85381498Y-112512207D01*
X85476836Y-112742373D01*
X85601401Y-112958127D01*
X85753062Y-113155776D01*
X85929224Y-113331938D01*
X86126873Y-113483599D01*
X86342627Y-113608164D01*
X86572793Y-113703502D01*
X86813435Y-113767982D01*
X86813441Y-113767982D01*
X86813442Y-113767983D01*
X86880586Y-113776822D01*
X87060435Y-113800500D01*
X87309565Y-113800500D01*
X87556565Y-113767982D01*
X87797207Y-113703502D01*
X88027373Y-113608164D01*
X88243127Y-113483599D01*
X88440776Y-113331938D01*
X88616938Y-113155776D01*
X88768599Y-112958127D01*
X88893164Y-112742373D01*
X88988502Y-112512207D01*
X89052982Y-112271565D01*
X89085500Y-112024565D01*
X89085500Y-111775435D01*
X89052982Y-111528435D01*
X88988502Y-111287793D01*
X88893164Y-111057627D01*
X88768599Y-110841873D01*
X88616938Y-110644224D01*
X88440776Y-110468062D01*
X88243127Y-110316401D01*
X88171209Y-110274879D01*
X88027377Y-110191838D01*
X88027375Y-110191837D01*
X88027373Y-110191836D01*
X87892548Y-110135989D01*
X87797210Y-110096499D01*
X87797208Y-110096498D01*
X87797207Y-110096498D01*
X87556565Y-110032018D01*
X87556563Y-110032017D01*
X87556557Y-110032016D01*
X87309570Y-109999500D01*
X87309565Y-109999500D01*
X87060435Y-109999500D01*
X87060429Y-109999500D01*
X86813442Y-110032016D01*
X86572789Y-110096499D01*
X86342622Y-110191838D01*
X86126874Y-110316400D01*
X85929222Y-110468063D01*
X85753063Y-110644222D01*
X85601400Y-110841874D01*
X85476838Y-111057622D01*
X85381499Y-111287789D01*
X85317016Y-111528442D01*
X85284500Y-111775429D01*
X66785499Y-111775429D01*
X66752982Y-111528435D01*
X66688502Y-111287793D01*
X66593164Y-111057627D01*
X66468599Y-110841873D01*
X66316938Y-110644224D01*
X66140776Y-110468062D01*
X65943127Y-110316401D01*
X65871209Y-110274879D01*
X65727377Y-110191838D01*
X65727375Y-110191837D01*
X65727373Y-110191836D01*
X65592548Y-110135989D01*
X65497210Y-110096499D01*
X65497208Y-110096498D01*
X65497207Y-110096498D01*
X65256565Y-110032018D01*
X65256563Y-110032017D01*
X65256557Y-110032016D01*
X65009570Y-109999500D01*
X65009565Y-109999500D01*
X64760435Y-109999500D01*
X64760429Y-109999500D01*
X64513442Y-110032016D01*
X64272789Y-110096499D01*
X64042622Y-110191838D01*
X63826874Y-110316400D01*
X63629222Y-110468063D01*
X63453063Y-110644222D01*
X63301400Y-110841874D01*
X63176838Y-111057622D01*
X63081499Y-111287789D01*
X63017016Y-111528442D01*
X62984500Y-111775429D01*
X54919328Y-111775429D01*
X59414216Y-107280541D01*
X59481011Y-107241977D01*
X59519575Y-107236900D01*
X79949711Y-107236900D01*
X80006730Y-107248242D01*
X80079568Y-107278412D01*
X80146503Y-107306137D01*
X80301158Y-107336900D01*
X80458842Y-107336900D01*
X80613497Y-107306137D01*
X80759179Y-107245794D01*
X80890289Y-107158189D01*
X81001789Y-107046689D01*
X81089394Y-106915579D01*
X81149737Y-106769897D01*
X81180500Y-106615242D01*
X81180500Y-106457558D01*
X81173820Y-106423978D01*
X81149737Y-106302905D01*
X81149736Y-106302901D01*
X81089395Y-106157223D01*
X81089394Y-106157221D01*
X81001789Y-106026111D01*
X80890289Y-105914611D01*
X80759179Y-105827006D01*
X80744199Y-105820801D01*
X80732875Y-105813493D01*
X80720665Y-105800011D01*
X129000000Y-105800011D01*
X129000000Y-106750000D01*
X130299999Y-106750000D01*
X130274979Y-106810402D01*
X130250000Y-106935981D01*
X130250000Y-107064019D01*
X130274979Y-107189598D01*
X130299999Y-107250000D01*
X129000000Y-107250000D01*
X129000000Y-108199988D01*
X129010492Y-108302687D01*
X129010494Y-108302696D01*
X129065642Y-108469120D01*
X129157680Y-108618339D01*
X129281660Y-108742319D01*
X129430879Y-108834357D01*
X129597303Y-108889505D01*
X129597312Y-108889507D01*
X129700011Y-108899999D01*
X129700022Y-108900000D01*
X130650000Y-108900000D01*
X130650000Y-107600001D01*
X130710402Y-107625021D01*
X130835981Y-107650000D01*
X130964019Y-107650000D01*
X131089598Y-107625021D01*
X131150000Y-107600001D01*
X131150000Y-108900000D01*
X132099978Y-108900000D01*
X132099988Y-108899999D01*
X132202687Y-108889507D01*
X132202696Y-108889505D01*
X132369120Y-108834357D01*
X132518339Y-108742319D01*
X132642319Y-108618339D01*
X132734357Y-108469120D01*
X132789505Y-108302696D01*
X132789507Y-108302687D01*
X132799999Y-108199988D01*
X132800000Y-108199978D01*
X132800000Y-107250000D01*
X131500001Y-107250000D01*
X131525021Y-107189598D01*
X131550000Y-107064019D01*
X131550000Y-106935981D01*
X131525021Y-106810402D01*
X131500001Y-106750000D01*
X132800000Y-106750000D01*
X132800000Y-105800021D01*
X132799999Y-105800011D01*
X132789507Y-105697312D01*
X132789505Y-105697303D01*
X132734357Y-105530879D01*
X132642319Y-105381660D01*
X132518339Y-105257680D01*
X132369120Y-105165642D01*
X132202696Y-105110494D01*
X132202687Y-105110492D01*
X132099988Y-105100000D01*
X131150000Y-105100000D01*
X131150000Y-106399998D01*
X131089598Y-106374979D01*
X130964019Y-106350000D01*
X130835981Y-106350000D01*
X130710402Y-106374979D01*
X130650000Y-106399998D01*
X130650000Y-105100000D01*
X129700011Y-105100000D01*
X129597312Y-105110492D01*
X129597303Y-105110494D01*
X129430879Y-105165642D01*
X129281660Y-105257680D01*
X129157680Y-105381660D01*
X129065642Y-105530879D01*
X129010494Y-105697303D01*
X129010492Y-105697312D01*
X129000000Y-105800011D01*
X80720665Y-105800011D01*
X80715725Y-105794556D01*
X80695458Y-105779004D01*
X80690245Y-105766419D01*
X80681103Y-105756324D01*
X80675720Y-105731353D01*
X80665943Y-105707747D01*
X80667721Y-105694240D01*
X80664852Y-105680927D01*
X80672676Y-105656608D01*
X80676012Y-105631279D01*
X80684303Y-105620473D01*
X80688476Y-105607506D01*
X80707412Y-105590356D01*
X80722965Y-105570089D01*
X80735549Y-105564876D01*
X80745645Y-105555734D01*
X80774188Y-105548871D01*
X80794222Y-105540574D01*
X80813669Y-105539300D01*
X82489711Y-105539300D01*
X82508854Y-105543107D01*
X82533289Y-105543161D01*
X82540821Y-105548194D01*
X82686503Y-105608537D01*
X82841158Y-105639300D01*
X82998842Y-105639300D01*
X83153497Y-105608537D01*
X83299179Y-105548194D01*
X83430289Y-105460589D01*
X83541789Y-105349089D01*
X83629394Y-105217979D01*
X83689737Y-105072297D01*
X83720500Y-104917642D01*
X83720500Y-104759958D01*
X83689737Y-104605303D01*
X83629394Y-104459621D01*
X83541789Y-104328511D01*
X83430289Y-104217011D01*
X83299179Y-104129406D01*
X83299178Y-104129405D01*
X83299176Y-104129404D01*
X83153498Y-104069063D01*
X83153494Y-104069062D01*
X82998842Y-104038300D01*
X82841158Y-104038300D01*
X82686505Y-104069062D01*
X82686501Y-104069063D01*
X82546730Y-104126958D01*
X82489711Y-104138300D01*
X57113902Y-104138300D01*
X56978572Y-104165219D01*
X56978570Y-104165220D01*
X56851097Y-104218020D01*
X56851084Y-104218028D01*
X56736358Y-104294685D01*
X56736353Y-104294689D01*
X31142384Y-129888659D01*
X31075589Y-129927223D01*
X31037025Y-129932300D01*
X23002202Y-129932300D01*
X22866872Y-129959219D01*
X22866870Y-129959220D01*
X22739397Y-130012020D01*
X22739384Y-130012028D01*
X22624658Y-130088685D01*
X22624653Y-130088689D01*
X22097085Y-130616256D01*
X22030290Y-130654820D01*
X21966872Y-130655763D01*
X21966750Y-130656905D01*
X21897876Y-130649500D01*
X20102136Y-130649500D01*
X20102111Y-130649502D01*
X20042521Y-130655908D01*
X20042515Y-130655909D01*
X19907670Y-130706202D01*
X19907666Y-130706204D01*
X19792455Y-130792452D01*
X19792452Y-130792455D01*
X19706204Y-130907666D01*
X19706202Y-130907670D01*
X19655908Y-131042517D01*
X19649500Y-131102114D01*
X5500000Y-131102114D01*
X5500000Y-111775429D01*
X40784500Y-111775429D01*
X40784500Y-112024570D01*
X40817016Y-112271557D01*
X40817017Y-112271563D01*
X40817018Y-112271565D01*
X40881498Y-112512207D01*
X40976836Y-112742373D01*
X41101401Y-112958127D01*
X41253062Y-113155776D01*
X41429224Y-113331938D01*
X41626873Y-113483599D01*
X41842627Y-113608164D01*
X42072793Y-113703502D01*
X42313435Y-113767982D01*
X42313441Y-113767982D01*
X42313442Y-113767983D01*
X42380586Y-113776822D01*
X42560435Y-113800500D01*
X42809565Y-113800500D01*
X43056565Y-113767982D01*
X43297207Y-113703502D01*
X43527373Y-113608164D01*
X43743127Y-113483599D01*
X43940776Y-113331938D01*
X44116938Y-113155776D01*
X44268599Y-112958127D01*
X44393164Y-112742373D01*
X44488502Y-112512207D01*
X44552982Y-112271565D01*
X44585500Y-112024565D01*
X44585500Y-111775435D01*
X44552982Y-111528435D01*
X44488502Y-111287793D01*
X44393164Y-111057627D01*
X44268599Y-110841873D01*
X44116938Y-110644224D01*
X43940776Y-110468062D01*
X43743127Y-110316401D01*
X43671209Y-110274879D01*
X43527377Y-110191838D01*
X43527375Y-110191837D01*
X43527373Y-110191836D01*
X43392548Y-110135989D01*
X43297210Y-110096499D01*
X43297208Y-110096498D01*
X43297207Y-110096498D01*
X43056565Y-110032018D01*
X43056563Y-110032017D01*
X43056557Y-110032016D01*
X42809570Y-109999500D01*
X42809565Y-109999500D01*
X42560435Y-109999500D01*
X42560429Y-109999500D01*
X42313442Y-110032016D01*
X42072789Y-110096499D01*
X41842622Y-110191838D01*
X41626874Y-110316400D01*
X41429222Y-110468063D01*
X41253063Y-110644222D01*
X41101400Y-110841874D01*
X40976838Y-111057622D01*
X40881499Y-111287789D01*
X40817016Y-111528442D01*
X40784500Y-111775429D01*
X5500000Y-111775429D01*
X5500000Y-106499992D01*
X11099500Y-106499992D01*
X11099500Y-108900008D01*
X11110001Y-109002797D01*
X11165186Y-109169334D01*
X11257289Y-109318655D01*
X11381345Y-109442711D01*
X11530666Y-109534814D01*
X11697203Y-109589999D01*
X11799992Y-109600500D01*
X11799996Y-109600500D01*
X14200004Y-109600500D01*
X14200008Y-109600500D01*
X14302797Y-109589999D01*
X14469334Y-109534814D01*
X14618655Y-109442711D01*
X14742711Y-109318655D01*
X14834814Y-109169334D01*
X14889999Y-109002797D01*
X14900500Y-108900008D01*
X14900500Y-107709500D01*
X14920462Y-107635000D01*
X14975000Y-107580462D01*
X15049500Y-107560500D01*
X22836367Y-107560500D01*
X22910867Y-107580462D01*
X22956910Y-107621919D01*
X22959164Y-107625021D01*
X22969896Y-107639792D01*
X23120208Y-107790104D01*
X23198844Y-107847236D01*
X23284482Y-107909456D01*
X23333020Y-107969396D01*
X23345086Y-108045575D01*
X23317446Y-108117580D01*
X23284482Y-108150544D01*
X23120209Y-108269895D01*
X23120206Y-108269897D01*
X22969897Y-108420206D01*
X22969895Y-108420209D01*
X22844950Y-108592181D01*
X22844950Y-108592182D01*
X22768452Y-108742319D01*
X22748443Y-108781588D01*
X22682754Y-108983757D01*
X22649500Y-109193713D01*
X22649500Y-109406287D01*
X22682754Y-109616243D01*
X22748443Y-109818412D01*
X22748446Y-109818417D01*
X22844950Y-110007817D01*
X22844950Y-110007818D01*
X22907422Y-110093804D01*
X22969896Y-110179792D01*
X23120208Y-110330104D01*
X23292184Y-110455051D01*
X23481588Y-110551557D01*
X23683757Y-110617246D01*
X23893713Y-110650500D01*
X23893718Y-110650500D01*
X24106282Y-110650500D01*
X24106287Y-110650500D01*
X24316243Y-110617246D01*
X24518412Y-110551557D01*
X24707816Y-110455051D01*
X24879792Y-110330104D01*
X25030104Y-110179792D01*
X25155051Y-110007816D01*
X25251557Y-109818412D01*
X25317246Y-109616243D01*
X25350500Y-109406287D01*
X25350500Y-109193713D01*
X25317246Y-108983757D01*
X25251557Y-108781588D01*
X25155051Y-108592184D01*
X25030104Y-108420208D01*
X24879792Y-108269896D01*
X24715517Y-108150544D01*
X24666979Y-108090604D01*
X24654913Y-108014426D01*
X24682553Y-107942420D01*
X24715517Y-107909456D01*
X24722519Y-107904368D01*
X24879792Y-107790104D01*
X25030104Y-107639792D01*
X25155051Y-107467816D01*
X25251557Y-107278412D01*
X25317246Y-107076243D01*
X25350500Y-106866287D01*
X25350500Y-106653713D01*
X25317246Y-106443757D01*
X25251557Y-106241588D01*
X25155051Y-106052184D01*
X25030104Y-105880208D01*
X24879792Y-105729896D01*
X24729183Y-105620473D01*
X24715517Y-105610544D01*
X24666979Y-105550604D01*
X24654913Y-105474426D01*
X24682553Y-105402420D01*
X24715517Y-105369456D01*
X24722519Y-105364368D01*
X24879792Y-105250104D01*
X25030104Y-105099792D01*
X25155051Y-104927816D01*
X25251557Y-104738412D01*
X25317246Y-104536243D01*
X25350500Y-104326287D01*
X25350500Y-104113713D01*
X25317246Y-103903757D01*
X25251557Y-103701588D01*
X25155051Y-103512184D01*
X25152446Y-103508599D01*
X25130283Y-103478093D01*
X25030104Y-103340208D01*
X24944075Y-103254179D01*
X24905512Y-103187385D01*
X24905512Y-103110257D01*
X24944076Y-103043462D01*
X24997366Y-103009215D01*
X25028278Y-102997685D01*
X25092327Y-102973798D01*
X25092333Y-102973795D01*
X25149938Y-102930671D01*
X25207546Y-102887546D01*
X25293796Y-102772331D01*
X25344091Y-102637483D01*
X25346826Y-102612048D01*
X25350499Y-102577885D01*
X25350500Y-102577867D01*
X25350500Y-101875461D01*
X129000000Y-101875461D01*
X129000000Y-102124538D01*
X129032507Y-102371459D01*
X129096973Y-102612048D01*
X129192287Y-102842156D01*
X129316819Y-103057851D01*
X129316820Y-103057853D01*
X129391399Y-103155045D01*
X130298957Y-102247486D01*
X130323978Y-102307890D01*
X130395112Y-102414351D01*
X130485649Y-102504888D01*
X130592110Y-102576022D01*
X130652511Y-102601041D01*
X129744952Y-103508599D01*
X129842146Y-103583179D01*
X129842148Y-103583180D01*
X130057843Y-103707712D01*
X130287951Y-103803026D01*
X130528540Y-103867492D01*
X130775461Y-103899999D01*
X130775467Y-103900000D01*
X131024533Y-103900000D01*
X131024538Y-103899999D01*
X131271459Y-103867492D01*
X131512048Y-103803026D01*
X131742157Y-103707712D01*
X131957849Y-103583182D01*
X132055045Y-103508599D01*
X132055046Y-103508599D01*
X131147488Y-102601041D01*
X131207890Y-102576022D01*
X131314351Y-102504888D01*
X131404888Y-102414351D01*
X131476022Y-102307890D01*
X131501041Y-102247488D01*
X132408599Y-103155046D01*
X132408599Y-103155045D01*
X132483182Y-103057849D01*
X132607712Y-102842157D01*
X132703026Y-102612048D01*
X132767492Y-102371459D01*
X132799999Y-102124538D01*
X132800000Y-102124533D01*
X132800000Y-101875467D01*
X132799999Y-101875461D01*
X132767492Y-101628540D01*
X132703026Y-101387951D01*
X132607712Y-101157843D01*
X132483180Y-100942148D01*
X132483179Y-100942146D01*
X132408599Y-100844952D01*
X131501041Y-101752510D01*
X131476022Y-101692110D01*
X131404888Y-101585649D01*
X131314351Y-101495112D01*
X131207890Y-101423978D01*
X131147487Y-101398957D01*
X132055046Y-100491399D01*
X131957853Y-100416820D01*
X131957851Y-100416819D01*
X131742156Y-100292287D01*
X131512048Y-100196973D01*
X131271459Y-100132507D01*
X131024538Y-100100000D01*
X130775461Y-100100000D01*
X130528540Y-100132507D01*
X130287951Y-100196973D01*
X130057843Y-100292287D01*
X129842152Y-100416817D01*
X129744953Y-100491400D01*
X130652511Y-101398958D01*
X130592110Y-101423978D01*
X130485649Y-101495112D01*
X130395112Y-101585649D01*
X130323978Y-101692110D01*
X130298958Y-101752511D01*
X129391399Y-100844953D01*
X129316817Y-100942152D01*
X129192287Y-101157843D01*
X129096973Y-101387951D01*
X129032507Y-101628540D01*
X129000000Y-101875461D01*
X25350500Y-101875461D01*
X25350500Y-101870589D01*
X25350499Y-100782136D01*
X25350499Y-100782128D01*
X25344091Y-100722517D01*
X25298801Y-100601088D01*
X25293798Y-100587672D01*
X25293795Y-100587666D01*
X25207547Y-100472455D01*
X25207544Y-100472452D01*
X25092333Y-100386204D01*
X25092329Y-100386202D01*
X24957482Y-100335908D01*
X24897876Y-100329500D01*
X23102136Y-100329500D01*
X23102111Y-100329502D01*
X23042521Y-100335908D01*
X23042515Y-100335909D01*
X22907670Y-100386202D01*
X22907666Y-100386204D01*
X22792455Y-100472452D01*
X22792452Y-100472455D01*
X22706204Y-100587666D01*
X22706202Y-100587670D01*
X22655908Y-100722517D01*
X22649500Y-100782114D01*
X22649500Y-102577863D01*
X22649502Y-102577888D01*
X22655908Y-102637478D01*
X22655909Y-102637484D01*
X22706202Y-102772329D01*
X22706204Y-102772333D01*
X22792452Y-102887544D01*
X22792455Y-102887547D01*
X22907666Y-102973795D01*
X22907668Y-102973795D01*
X22907669Y-102973796D01*
X23002633Y-103009215D01*
X23065460Y-103053953D01*
X23097501Y-103124111D01*
X23090170Y-103200890D01*
X23055923Y-103254179D01*
X22969904Y-103340198D01*
X22969895Y-103340209D01*
X22844950Y-103512181D01*
X22844950Y-103512182D01*
X22748446Y-103701582D01*
X22748441Y-103701594D01*
X22683975Y-103900000D01*
X22682754Y-103903757D01*
X22649500Y-104113713D01*
X22649500Y-104326287D01*
X22682754Y-104536243D01*
X22748443Y-104738412D01*
X22844949Y-104927816D01*
X22969896Y-105099792D01*
X23120208Y-105250104D01*
X23130636Y-105257680D01*
X23284482Y-105369456D01*
X23333020Y-105429396D01*
X23345086Y-105505575D01*
X23317446Y-105577580D01*
X23284482Y-105610544D01*
X23120209Y-105729895D01*
X23120206Y-105729897D01*
X22969892Y-105880212D01*
X22956910Y-105898081D01*
X22896969Y-105946619D01*
X22836367Y-105959500D01*
X14664496Y-105959500D01*
X14589996Y-105939538D01*
X14586274Y-105937316D01*
X14469336Y-105865187D01*
X14469335Y-105865186D01*
X14469334Y-105865186D01*
X14380955Y-105835900D01*
X14302798Y-105810001D01*
X14302799Y-105810001D01*
X14268534Y-105806500D01*
X14200008Y-105799500D01*
X11799992Y-105799500D01*
X11731466Y-105806500D01*
X11697201Y-105810001D01*
X11530663Y-105865187D01*
X11381344Y-105957289D01*
X11257289Y-106081344D01*
X11165187Y-106230663D01*
X11110001Y-106397201D01*
X11110001Y-106397203D01*
X11099500Y-106499992D01*
X5500000Y-106499992D01*
X5500000Y-102575429D01*
X11099500Y-102575429D01*
X11099500Y-102824570D01*
X11132016Y-103071557D01*
X11132017Y-103071563D01*
X11132018Y-103071565D01*
X11180949Y-103254179D01*
X11196499Y-103312210D01*
X11208096Y-103340208D01*
X11291836Y-103542373D01*
X11416401Y-103758127D01*
X11568062Y-103955776D01*
X11744224Y-104131938D01*
X11941873Y-104283599D01*
X12157627Y-104408164D01*
X12387793Y-104503502D01*
X12628435Y-104567982D01*
X12628441Y-104567982D01*
X12628442Y-104567983D01*
X12695586Y-104576822D01*
X12875435Y-104600500D01*
X13124565Y-104600500D01*
X13371565Y-104567982D01*
X13612207Y-104503502D01*
X13842373Y-104408164D01*
X14058127Y-104283599D01*
X14255776Y-104131938D01*
X14431938Y-103955776D01*
X14583599Y-103758127D01*
X14708164Y-103542373D01*
X14803502Y-103312207D01*
X14867982Y-103071565D01*
X14900500Y-102824565D01*
X14900500Y-102575435D01*
X14867982Y-102328435D01*
X14803502Y-102087793D01*
X14708164Y-101857627D01*
X14583599Y-101641873D01*
X14431938Y-101444224D01*
X14255776Y-101268062D01*
X14058127Y-101116401D01*
X13986209Y-101074879D01*
X13842377Y-100991838D01*
X13842375Y-100991837D01*
X13842373Y-100991836D01*
X13707548Y-100935989D01*
X13612210Y-100896499D01*
X13612208Y-100896498D01*
X13612207Y-100896498D01*
X13371565Y-100832018D01*
X13371563Y-100832017D01*
X13371557Y-100832016D01*
X13124570Y-100799500D01*
X13124565Y-100799500D01*
X12875435Y-100799500D01*
X12875429Y-100799500D01*
X12628442Y-100832016D01*
X12387789Y-100896499D01*
X12157622Y-100991838D01*
X11941874Y-101116400D01*
X11744222Y-101268063D01*
X11568063Y-101444222D01*
X11416400Y-101641874D01*
X11291838Y-101857622D01*
X11196499Y-102087789D01*
X11132016Y-102328442D01*
X11099500Y-102575429D01*
X5500000Y-102575429D01*
X5500000Y-94499992D01*
X11099500Y-94499992D01*
X11099500Y-96900008D01*
X11110001Y-97002797D01*
X11165186Y-97169334D01*
X11257289Y-97318655D01*
X11381345Y-97442711D01*
X11530666Y-97534814D01*
X11697203Y-97589999D01*
X11799992Y-97600500D01*
X11799996Y-97600500D01*
X14200004Y-97600500D01*
X14200008Y-97600500D01*
X14302797Y-97589999D01*
X14469334Y-97534814D01*
X14618655Y-97442711D01*
X14742711Y-97318655D01*
X14834814Y-97169334D01*
X14889999Y-97002797D01*
X14900500Y-96900008D01*
X14900500Y-95709500D01*
X14920462Y-95635000D01*
X14975000Y-95580462D01*
X15049500Y-95560500D01*
X22836367Y-95560500D01*
X22910867Y-95580462D01*
X22956910Y-95621919D01*
X22959164Y-95625021D01*
X22969896Y-95639792D01*
X23120208Y-95790104D01*
X23198844Y-95847236D01*
X23284482Y-95909456D01*
X23333020Y-95969396D01*
X23345086Y-96045575D01*
X23317446Y-96117580D01*
X23284482Y-96150544D01*
X23120209Y-96269895D01*
X23120206Y-96269897D01*
X22969897Y-96420206D01*
X22969895Y-96420209D01*
X22844950Y-96592181D01*
X22844950Y-96592182D01*
X22768452Y-96742319D01*
X22748443Y-96781588D01*
X22682754Y-96983757D01*
X22649500Y-97193713D01*
X22649500Y-97406287D01*
X22682754Y-97616243D01*
X22748443Y-97818412D01*
X22844949Y-98007816D01*
X22969896Y-98179792D01*
X23120208Y-98330104D01*
X23292184Y-98455051D01*
X23481588Y-98551557D01*
X23683757Y-98617246D01*
X23893713Y-98650500D01*
X23893718Y-98650500D01*
X24106282Y-98650500D01*
X24106287Y-98650500D01*
X24316243Y-98617246D01*
X24518412Y-98551557D01*
X24707816Y-98455051D01*
X24879792Y-98330104D01*
X25030104Y-98179792D01*
X25155051Y-98007816D01*
X25251557Y-97818412D01*
X25317246Y-97616243D01*
X25350500Y-97406287D01*
X25350500Y-97193713D01*
X25317246Y-96983757D01*
X25251557Y-96781588D01*
X25155051Y-96592184D01*
X25030104Y-96420208D01*
X24879792Y-96269896D01*
X24715517Y-96150544D01*
X24666979Y-96090604D01*
X24654913Y-96014426D01*
X24682553Y-95942420D01*
X24715517Y-95909456D01*
X24722519Y-95904368D01*
X24879792Y-95790104D01*
X25030104Y-95639792D01*
X25155051Y-95467816D01*
X25251557Y-95278412D01*
X25317246Y-95076243D01*
X25350500Y-94866287D01*
X25350500Y-94775429D01*
X40784500Y-94775429D01*
X40784500Y-95024570D01*
X40817016Y-95271557D01*
X40817017Y-95271563D01*
X40817018Y-95271565D01*
X40881498Y-95512207D01*
X40976836Y-95742373D01*
X41101401Y-95958127D01*
X41253062Y-96155776D01*
X41429224Y-96331938D01*
X41626873Y-96483599D01*
X41842627Y-96608164D01*
X42072793Y-96703502D01*
X42313435Y-96767982D01*
X42313441Y-96767982D01*
X42313442Y-96767983D01*
X42380586Y-96776822D01*
X42560435Y-96800500D01*
X42809565Y-96800500D01*
X43056565Y-96767982D01*
X43297207Y-96703502D01*
X43527373Y-96608164D01*
X43743127Y-96483599D01*
X43940776Y-96331938D01*
X44116938Y-96155776D01*
X44268599Y-95958127D01*
X44393164Y-95742373D01*
X44488502Y-95512207D01*
X44552982Y-95271565D01*
X44585500Y-95024565D01*
X44585500Y-94829691D01*
X44605462Y-94755191D01*
X44629141Y-94724332D01*
X45577133Y-93776341D01*
X45643928Y-93737777D01*
X45682492Y-93732700D01*
X63106357Y-93732700D01*
X63180857Y-93752662D01*
X63235395Y-93807200D01*
X63255357Y-93881700D01*
X63235395Y-93956198D01*
X63217494Y-93987203D01*
X63176838Y-94057622D01*
X63081499Y-94287789D01*
X63017016Y-94528442D01*
X62984500Y-94775429D01*
X62984500Y-95024570D01*
X63017016Y-95271557D01*
X63017017Y-95271563D01*
X63017018Y-95271565D01*
X63081498Y-95512207D01*
X63176836Y-95742373D01*
X63301401Y-95958127D01*
X63453062Y-96155776D01*
X63629224Y-96331938D01*
X63826873Y-96483599D01*
X64042627Y-96608164D01*
X64272793Y-96703502D01*
X64513435Y-96767982D01*
X64513441Y-96767982D01*
X64513442Y-96767983D01*
X64580586Y-96776822D01*
X64760435Y-96800500D01*
X65009565Y-96800500D01*
X65256565Y-96767982D01*
X65497207Y-96703502D01*
X65727373Y-96608164D01*
X65943127Y-96483599D01*
X66140776Y-96331938D01*
X66316938Y-96155776D01*
X66468599Y-95958127D01*
X66593164Y-95742373D01*
X66688502Y-95512207D01*
X66752982Y-95271565D01*
X66785500Y-95024565D01*
X66785500Y-94775435D01*
X66752982Y-94528435D01*
X66688502Y-94287793D01*
X66593164Y-94057627D01*
X66534604Y-93956198D01*
X66514643Y-93881700D01*
X66534605Y-93807200D01*
X66589143Y-93752662D01*
X66663643Y-93732700D01*
X84187508Y-93732700D01*
X84262008Y-93752662D01*
X84292867Y-93776341D01*
X85240859Y-94724333D01*
X85279423Y-94791128D01*
X85284500Y-94829692D01*
X85284500Y-95024570D01*
X85317016Y-95271557D01*
X85317017Y-95271563D01*
X85317018Y-95271565D01*
X85381498Y-95512207D01*
X85476836Y-95742373D01*
X85601401Y-95958127D01*
X85753062Y-96155776D01*
X85929224Y-96331938D01*
X86126873Y-96483599D01*
X86342627Y-96608164D01*
X86572793Y-96703502D01*
X86813435Y-96767982D01*
X86813441Y-96767982D01*
X86813442Y-96767983D01*
X86880586Y-96776822D01*
X87060435Y-96800500D01*
X87309565Y-96800500D01*
X87556565Y-96767982D01*
X87797207Y-96703502D01*
X88027373Y-96608164D01*
X88243127Y-96483599D01*
X88440776Y-96331938D01*
X88616938Y-96155776D01*
X88768599Y-95958127D01*
X88893164Y-95742373D01*
X88988502Y-95512207D01*
X89052982Y-95271565D01*
X89085500Y-95024565D01*
X89085500Y-94829691D01*
X89100039Y-94775429D01*
X107484500Y-94775429D01*
X107484500Y-95024570D01*
X107517016Y-95271557D01*
X107517017Y-95271563D01*
X107517018Y-95271565D01*
X107581498Y-95512207D01*
X107676836Y-95742373D01*
X107801401Y-95958127D01*
X107953062Y-96155776D01*
X108129224Y-96331938D01*
X108326873Y-96483599D01*
X108542627Y-96608164D01*
X108772793Y-96703502D01*
X109013435Y-96767982D01*
X109013441Y-96767982D01*
X109013442Y-96767983D01*
X109080586Y-96776822D01*
X109260435Y-96800500D01*
X109509565Y-96800500D01*
X109756565Y-96767982D01*
X109997207Y-96703502D01*
X110227373Y-96608164D01*
X110443127Y-96483599D01*
X110640776Y-96331938D01*
X110816938Y-96155776D01*
X110968599Y-95958127D01*
X111093164Y-95742373D01*
X111188502Y-95512207D01*
X111252982Y-95271565D01*
X111285500Y-95024565D01*
X111285500Y-94775435D01*
X111252982Y-94528435D01*
X111188502Y-94287793D01*
X111093164Y-94057627D01*
X111090021Y-94052184D01*
X110985259Y-93870729D01*
X110985258Y-93870727D01*
X110968601Y-93841876D01*
X110968599Y-93841874D01*
X110968599Y-93841873D01*
X110936477Y-93800011D01*
X129000000Y-93800011D01*
X129000000Y-94750000D01*
X130299999Y-94750000D01*
X130274979Y-94810402D01*
X130250000Y-94935981D01*
X130250000Y-95064019D01*
X130274979Y-95189598D01*
X130299999Y-95250000D01*
X129000000Y-95250000D01*
X129000000Y-96199988D01*
X129010492Y-96302687D01*
X129010494Y-96302696D01*
X129065642Y-96469120D01*
X129157680Y-96618339D01*
X129281660Y-96742319D01*
X129430879Y-96834357D01*
X129597303Y-96889505D01*
X129597312Y-96889507D01*
X129700011Y-96899999D01*
X129700022Y-96900000D01*
X130650000Y-96900000D01*
X130650000Y-95600001D01*
X130710402Y-95625021D01*
X130835981Y-95650000D01*
X130964019Y-95650000D01*
X131089598Y-95625021D01*
X131150000Y-95600001D01*
X131150000Y-96900000D01*
X132099978Y-96900000D01*
X132099988Y-96899999D01*
X132202687Y-96889507D01*
X132202696Y-96889505D01*
X132369120Y-96834357D01*
X132518339Y-96742319D01*
X132642319Y-96618339D01*
X132734357Y-96469120D01*
X132789505Y-96302696D01*
X132789507Y-96302687D01*
X132799999Y-96199988D01*
X132800000Y-96199978D01*
X132800000Y-95250000D01*
X131500001Y-95250000D01*
X131525021Y-95189598D01*
X131550000Y-95064019D01*
X131550000Y-94935981D01*
X131525021Y-94810402D01*
X131500001Y-94750000D01*
X132800000Y-94750000D01*
X132800000Y-93800021D01*
X132799999Y-93800011D01*
X132789507Y-93697312D01*
X132789505Y-93697303D01*
X132734357Y-93530879D01*
X132642319Y-93381660D01*
X132518339Y-93257680D01*
X132369120Y-93165642D01*
X132202696Y-93110494D01*
X132202687Y-93110492D01*
X132099988Y-93100000D01*
X131150000Y-93100000D01*
X131150000Y-94399998D01*
X131089598Y-94374979D01*
X130964019Y-94350000D01*
X130835981Y-94350000D01*
X130710402Y-94374979D01*
X130650000Y-94399998D01*
X130650000Y-93100000D01*
X129700011Y-93100000D01*
X129597312Y-93110492D01*
X129597303Y-93110494D01*
X129430879Y-93165642D01*
X129281660Y-93257680D01*
X129157680Y-93381660D01*
X129065642Y-93530879D01*
X129010494Y-93697303D01*
X129010492Y-93697312D01*
X129000000Y-93800011D01*
X110936477Y-93800011D01*
X110816938Y-93644224D01*
X110640776Y-93468062D01*
X110443127Y-93316401D01*
X110328293Y-93250102D01*
X110227377Y-93191838D01*
X110227375Y-93191837D01*
X110227373Y-93191836D01*
X110092548Y-93135989D01*
X109997210Y-93096499D01*
X109997208Y-93096498D01*
X109997207Y-93096498D01*
X109756565Y-93032018D01*
X109756563Y-93032017D01*
X109756557Y-93032016D01*
X109509570Y-92999500D01*
X109509565Y-92999500D01*
X109260435Y-92999500D01*
X109260429Y-92999500D01*
X109013442Y-93032016D01*
X108772789Y-93096499D01*
X108542622Y-93191838D01*
X108326874Y-93316400D01*
X108129222Y-93468063D01*
X107953063Y-93644222D01*
X107801400Y-93841874D01*
X107676838Y-94057622D01*
X107581499Y-94287789D01*
X107517016Y-94528442D01*
X107484500Y-94775429D01*
X89100039Y-94775429D01*
X89105462Y-94755191D01*
X89129141Y-94724332D01*
X93978012Y-89875461D01*
X129000000Y-89875461D01*
X129000000Y-90124538D01*
X129032507Y-90371459D01*
X129096973Y-90612048D01*
X129192287Y-90842156D01*
X129316819Y-91057851D01*
X129316820Y-91057853D01*
X129391399Y-91155045D01*
X130298957Y-90247486D01*
X130323978Y-90307890D01*
X130395112Y-90414351D01*
X130485649Y-90504888D01*
X130592110Y-90576022D01*
X130652511Y-90601041D01*
X129744952Y-91508599D01*
X129842146Y-91583179D01*
X129842148Y-91583180D01*
X130057843Y-91707712D01*
X130287951Y-91803026D01*
X130528540Y-91867492D01*
X130775461Y-91899999D01*
X130775467Y-91900000D01*
X131024533Y-91900000D01*
X131024538Y-91899999D01*
X131271459Y-91867492D01*
X131512048Y-91803026D01*
X131742157Y-91707712D01*
X131957849Y-91583182D01*
X132055045Y-91508599D01*
X132055046Y-91508599D01*
X131147488Y-90601041D01*
X131207890Y-90576022D01*
X131314351Y-90504888D01*
X131404888Y-90414351D01*
X131476022Y-90307890D01*
X131501041Y-90247488D01*
X132408599Y-91155046D01*
X132408599Y-91155045D01*
X132483182Y-91057849D01*
X132607712Y-90842157D01*
X132703026Y-90612048D01*
X132767492Y-90371459D01*
X132799999Y-90124538D01*
X132800000Y-90124533D01*
X132800000Y-89875467D01*
X132799999Y-89875461D01*
X132767492Y-89628540D01*
X132703026Y-89387951D01*
X132607712Y-89157843D01*
X132483180Y-88942148D01*
X132483179Y-88942146D01*
X132408599Y-88844952D01*
X131501041Y-89752510D01*
X131476022Y-89692110D01*
X131404888Y-89585649D01*
X131314351Y-89495112D01*
X131207890Y-89423978D01*
X131147487Y-89398957D01*
X132055046Y-88491399D01*
X131957853Y-88416820D01*
X131957851Y-88416819D01*
X131742156Y-88292287D01*
X131512048Y-88196973D01*
X131271459Y-88132507D01*
X131024538Y-88100000D01*
X130775461Y-88100000D01*
X130528540Y-88132507D01*
X130287951Y-88196973D01*
X130057843Y-88292287D01*
X129842152Y-88416817D01*
X129744953Y-88491400D01*
X130652511Y-89398958D01*
X130592110Y-89423978D01*
X130485649Y-89495112D01*
X130395112Y-89585649D01*
X130323978Y-89692110D01*
X130298958Y-89752511D01*
X129391399Y-88844953D01*
X129316817Y-88942152D01*
X129192287Y-89157843D01*
X129096973Y-89387951D01*
X129032507Y-89628540D01*
X129000000Y-89875461D01*
X93978012Y-89875461D01*
X94267824Y-89585649D01*
X99559333Y-84294141D01*
X99626128Y-84255577D01*
X99664692Y-84250500D01*
X128885078Y-84250500D01*
X128959578Y-84270462D01*
X129014116Y-84325000D01*
X129026513Y-84352629D01*
X129048907Y-84420208D01*
X129065187Y-84469336D01*
X129140960Y-84592182D01*
X129157289Y-84618655D01*
X129281345Y-84742711D01*
X129430666Y-84834814D01*
X129597203Y-84889999D01*
X129699992Y-84900500D01*
X129699996Y-84900500D01*
X132100004Y-84900500D01*
X132100008Y-84900500D01*
X132202797Y-84889999D01*
X132369334Y-84834814D01*
X132518655Y-84742711D01*
X132642711Y-84618655D01*
X132734814Y-84469334D01*
X132789999Y-84302797D01*
X132800500Y-84200008D01*
X132800500Y-81799992D01*
X132789999Y-81697203D01*
X132734814Y-81530666D01*
X132642711Y-81381345D01*
X132518655Y-81257289D01*
X132369334Y-81165186D01*
X132285332Y-81137350D01*
X132202798Y-81110001D01*
X132202799Y-81110001D01*
X132168534Y-81106500D01*
X132100008Y-81099500D01*
X129699992Y-81099500D01*
X129631466Y-81106500D01*
X129597201Y-81110001D01*
X129430663Y-81165187D01*
X129281344Y-81257289D01*
X129157289Y-81381344D01*
X129065187Y-81530663D01*
X129026515Y-81647368D01*
X128984132Y-81711807D01*
X128915208Y-81746422D01*
X128885078Y-81749500D01*
X99183416Y-81749500D01*
X98986583Y-81749500D01*
X98792173Y-81780291D01*
X98733055Y-81799500D01*
X98604975Y-81841116D01*
X98604972Y-81841117D01*
X98604963Y-81841121D01*
X98429598Y-81930474D01*
X98429593Y-81930477D01*
X98270363Y-82046165D01*
X98270352Y-82046174D01*
X87360666Y-92955859D01*
X87293871Y-92994423D01*
X87255307Y-92999500D01*
X87114692Y-92999500D01*
X87040192Y-92979538D01*
X87009333Y-92955859D01*
X86337073Y-92283599D01*
X85581846Y-91528372D01*
X85422605Y-91412676D01*
X85247226Y-91323316D01*
X85060026Y-91262491D01*
X84865617Y-91231700D01*
X45004383Y-91231700D01*
X44809974Y-91262491D01*
X44656956Y-91312210D01*
X44622775Y-91323316D01*
X44622772Y-91323317D01*
X44622763Y-91323321D01*
X44447398Y-91412674D01*
X44447391Y-91412678D01*
X44288158Y-91528368D01*
X44288153Y-91528373D01*
X42860666Y-92955859D01*
X42793871Y-92994423D01*
X42755307Y-92999500D01*
X42560429Y-92999500D01*
X42313442Y-93032016D01*
X42072789Y-93096499D01*
X41842622Y-93191838D01*
X41626874Y-93316400D01*
X41429222Y-93468063D01*
X41253063Y-93644222D01*
X41101400Y-93841874D01*
X40976838Y-94057622D01*
X40881499Y-94287789D01*
X40817016Y-94528442D01*
X40784500Y-94775429D01*
X25350500Y-94775429D01*
X25350500Y-94653713D01*
X25317246Y-94443757D01*
X25251557Y-94241588D01*
X25155051Y-94052184D01*
X25030104Y-93880208D01*
X24879792Y-93729896D01*
X24715517Y-93610544D01*
X24666979Y-93550604D01*
X24654913Y-93474426D01*
X24682553Y-93402420D01*
X24715517Y-93369456D01*
X24788541Y-93316401D01*
X24879792Y-93250104D01*
X25030104Y-93099792D01*
X25155051Y-92927816D01*
X25251557Y-92738412D01*
X25317246Y-92536243D01*
X25350500Y-92326287D01*
X25350500Y-92113713D01*
X25317246Y-91903757D01*
X25251557Y-91701588D01*
X25155051Y-91512184D01*
X25152446Y-91508599D01*
X25082755Y-91412677D01*
X25030104Y-91340208D01*
X24944075Y-91254179D01*
X24905512Y-91187385D01*
X24905512Y-91110257D01*
X24944076Y-91043462D01*
X24997366Y-91009215D01*
X25028278Y-90997685D01*
X25092327Y-90973798D01*
X25092333Y-90973795D01*
X25149938Y-90930671D01*
X25207546Y-90887546D01*
X25293796Y-90772331D01*
X25344091Y-90637483D01*
X25346826Y-90612048D01*
X25350499Y-90577885D01*
X25350499Y-90577882D01*
X25350500Y-90577873D01*
X25350499Y-88782128D01*
X25344091Y-88722517D01*
X25329588Y-88683633D01*
X25293797Y-88587670D01*
X25293795Y-88587666D01*
X25207547Y-88472455D01*
X25207544Y-88472452D01*
X25092333Y-88386204D01*
X25092329Y-88386202D01*
X24957482Y-88335908D01*
X24897876Y-88329500D01*
X23102136Y-88329500D01*
X23102111Y-88329502D01*
X23042521Y-88335908D01*
X23042515Y-88335909D01*
X22907670Y-88386202D01*
X22907666Y-88386204D01*
X22792455Y-88472452D01*
X22792452Y-88472455D01*
X22706204Y-88587666D01*
X22706202Y-88587670D01*
X22655908Y-88722517D01*
X22649500Y-88782114D01*
X22649500Y-90577863D01*
X22649502Y-90577888D01*
X22655908Y-90637478D01*
X22655909Y-90637484D01*
X22706202Y-90772329D01*
X22706204Y-90772333D01*
X22792452Y-90887544D01*
X22792455Y-90887547D01*
X22907666Y-90973795D01*
X22907668Y-90973795D01*
X22907669Y-90973796D01*
X23002633Y-91009215D01*
X23065460Y-91053953D01*
X23097501Y-91124111D01*
X23090170Y-91200890D01*
X23055923Y-91254179D01*
X22969904Y-91340198D01*
X22969895Y-91340209D01*
X22844950Y-91512181D01*
X22844950Y-91512182D01*
X22748446Y-91701582D01*
X22748441Y-91701594D01*
X22683975Y-91900000D01*
X22682754Y-91903757D01*
X22649500Y-92113713D01*
X22649500Y-92326287D01*
X22682754Y-92536243D01*
X22748443Y-92738412D01*
X22844949Y-92927816D01*
X22969896Y-93099792D01*
X23120208Y-93250104D01*
X23130636Y-93257680D01*
X23284482Y-93369456D01*
X23333020Y-93429396D01*
X23345086Y-93505575D01*
X23317446Y-93577580D01*
X23284482Y-93610544D01*
X23120209Y-93729895D01*
X23120206Y-93729897D01*
X22969892Y-93880212D01*
X22956910Y-93898081D01*
X22896969Y-93946619D01*
X22836367Y-93959500D01*
X14664496Y-93959500D01*
X14589996Y-93939538D01*
X14586274Y-93937316D01*
X14469336Y-93865187D01*
X14469335Y-93865186D01*
X14469334Y-93865186D01*
X14385332Y-93837350D01*
X14302798Y-93810001D01*
X14302799Y-93810001D01*
X14268534Y-93806500D01*
X14200008Y-93799500D01*
X11799992Y-93799500D01*
X11731466Y-93806500D01*
X11697201Y-93810001D01*
X11530663Y-93865187D01*
X11381344Y-93957289D01*
X11257289Y-94081344D01*
X11165187Y-94230663D01*
X11110001Y-94397201D01*
X11110001Y-94397203D01*
X11099500Y-94499992D01*
X5500000Y-94499992D01*
X5500000Y-90575429D01*
X11099500Y-90575429D01*
X11099500Y-90824570D01*
X11132016Y-91071557D01*
X11132017Y-91071563D01*
X11132018Y-91071565D01*
X11180949Y-91254179D01*
X11196499Y-91312210D01*
X11208096Y-91340208D01*
X11291836Y-91542373D01*
X11416401Y-91758127D01*
X11568062Y-91955776D01*
X11744224Y-92131938D01*
X11941873Y-92283599D01*
X12157627Y-92408164D01*
X12387793Y-92503502D01*
X12628435Y-92567982D01*
X12628441Y-92567982D01*
X12628442Y-92567983D01*
X12695586Y-92576822D01*
X12875435Y-92600500D01*
X13124565Y-92600500D01*
X13371565Y-92567982D01*
X13612207Y-92503502D01*
X13842373Y-92408164D01*
X14058127Y-92283599D01*
X14255776Y-92131938D01*
X14431938Y-91955776D01*
X14583599Y-91758127D01*
X14708164Y-91542373D01*
X14803502Y-91312207D01*
X14867982Y-91071565D01*
X14900500Y-90824565D01*
X14900500Y-90575435D01*
X14867982Y-90328435D01*
X14803502Y-90087793D01*
X14708164Y-89857627D01*
X14583599Y-89641873D01*
X14431938Y-89444224D01*
X14255776Y-89268062D01*
X14058127Y-89116401D01*
X13986209Y-89074879D01*
X13842377Y-88991838D01*
X13842375Y-88991837D01*
X13842373Y-88991836D01*
X13707548Y-88935989D01*
X13612210Y-88896499D01*
X13612208Y-88896498D01*
X13612207Y-88896498D01*
X13371565Y-88832018D01*
X13371563Y-88832017D01*
X13371557Y-88832016D01*
X13124570Y-88799500D01*
X13124565Y-88799500D01*
X12875435Y-88799500D01*
X12875429Y-88799500D01*
X12628442Y-88832016D01*
X12387789Y-88896499D01*
X12157622Y-88991838D01*
X11941874Y-89116400D01*
X11744222Y-89268063D01*
X11568063Y-89444222D01*
X11416400Y-89641874D01*
X11291838Y-89857622D01*
X11196499Y-90087789D01*
X11132016Y-90328442D01*
X11099500Y-90575429D01*
X5500000Y-90575429D01*
X5500000Y-82499992D01*
X11099500Y-82499992D01*
X11099500Y-84900008D01*
X11110001Y-85002797D01*
X11165186Y-85169334D01*
X11257289Y-85318655D01*
X11381345Y-85442711D01*
X11530666Y-85534814D01*
X11697203Y-85589999D01*
X11799992Y-85600500D01*
X11799996Y-85600500D01*
X14200004Y-85600500D01*
X14200008Y-85600500D01*
X14302797Y-85589999D01*
X14469334Y-85534814D01*
X14618655Y-85442711D01*
X14742711Y-85318655D01*
X14834814Y-85169334D01*
X14889999Y-85002797D01*
X14900500Y-84900008D01*
X14900500Y-83709500D01*
X14920462Y-83635000D01*
X14975000Y-83580462D01*
X15049500Y-83560500D01*
X22836367Y-83560500D01*
X22910867Y-83580462D01*
X22956910Y-83621919D01*
X22966414Y-83635000D01*
X22969896Y-83639792D01*
X23120208Y-83790104D01*
X23198844Y-83847236D01*
X23284482Y-83909456D01*
X23333020Y-83969396D01*
X23345086Y-84045575D01*
X23317446Y-84117580D01*
X23284482Y-84150544D01*
X23120209Y-84269895D01*
X23120206Y-84269897D01*
X22969897Y-84420206D01*
X22969895Y-84420209D01*
X22844950Y-84592181D01*
X22844950Y-84592182D01*
X22844949Y-84592184D01*
X22748443Y-84781588D01*
X22682754Y-84983757D01*
X22649500Y-85193713D01*
X22649500Y-85406287D01*
X22682754Y-85616243D01*
X22748443Y-85818412D01*
X22844949Y-86007816D01*
X22969896Y-86179792D01*
X23120208Y-86330104D01*
X23292184Y-86455051D01*
X23481588Y-86551557D01*
X23683757Y-86617246D01*
X23893713Y-86650500D01*
X23893718Y-86650500D01*
X24106282Y-86650500D01*
X24106287Y-86650500D01*
X24316243Y-86617246D01*
X24518412Y-86551557D01*
X24707816Y-86455051D01*
X24879792Y-86330104D01*
X25030104Y-86179792D01*
X25155051Y-86007816D01*
X25251557Y-85818412D01*
X25317246Y-85616243D01*
X25350500Y-85406287D01*
X25350500Y-85193713D01*
X25317246Y-84983757D01*
X25251557Y-84781588D01*
X25155051Y-84592184D01*
X25030104Y-84420208D01*
X24879792Y-84269896D01*
X24715517Y-84150544D01*
X24666979Y-84090604D01*
X24654913Y-84014426D01*
X24682553Y-83942420D01*
X24715517Y-83909456D01*
X24722519Y-83904368D01*
X24879792Y-83790104D01*
X25030104Y-83639792D01*
X25155051Y-83467816D01*
X25251557Y-83278412D01*
X25317246Y-83076243D01*
X25350500Y-82866287D01*
X25350500Y-82653713D01*
X25317246Y-82443757D01*
X25251557Y-82241588D01*
X25155051Y-82052184D01*
X25030104Y-81880208D01*
X24879792Y-81729896D01*
X24715517Y-81610544D01*
X24666979Y-81550604D01*
X24654913Y-81474426D01*
X24682553Y-81402420D01*
X24715517Y-81369456D01*
X24722519Y-81364368D01*
X24879792Y-81250104D01*
X25030104Y-81099792D01*
X25155051Y-80927816D01*
X25251557Y-80738412D01*
X25317246Y-80536243D01*
X25350500Y-80326287D01*
X25350500Y-80113713D01*
X25317246Y-79903757D01*
X25251557Y-79701588D01*
X25155051Y-79512184D01*
X25030104Y-79340208D01*
X24944075Y-79254179D01*
X24905512Y-79187385D01*
X24905512Y-79110257D01*
X24944076Y-79043462D01*
X24997366Y-79009215D01*
X25028278Y-78997685D01*
X25092327Y-78973798D01*
X25092333Y-78973795D01*
X25149938Y-78930671D01*
X25207546Y-78887546D01*
X25293796Y-78772331D01*
X25344091Y-78637483D01*
X25346809Y-78612207D01*
X25350499Y-78577885D01*
X25350500Y-78577867D01*
X25350500Y-77775429D01*
X40784500Y-77775429D01*
X40784500Y-78024570D01*
X40817016Y-78271557D01*
X40817017Y-78271563D01*
X40817018Y-78271565D01*
X40881498Y-78512207D01*
X40976836Y-78742373D01*
X41101401Y-78958127D01*
X41253062Y-79155776D01*
X41429224Y-79331938D01*
X41626873Y-79483599D01*
X41842627Y-79608164D01*
X42072793Y-79703502D01*
X42313435Y-79767982D01*
X42313441Y-79767982D01*
X42313442Y-79767983D01*
X42380586Y-79776822D01*
X42560435Y-79800500D01*
X42809565Y-79800500D01*
X43056565Y-79767982D01*
X43297207Y-79703502D01*
X43527373Y-79608164D01*
X43743127Y-79483599D01*
X43940776Y-79331938D01*
X44116938Y-79155776D01*
X44268599Y-78958127D01*
X44393164Y-78742373D01*
X44488502Y-78512207D01*
X44552982Y-78271565D01*
X44564197Y-78186371D01*
X44593711Y-78115117D01*
X44606555Y-78100470D01*
X45864586Y-76842441D01*
X45931381Y-76803877D01*
X45969945Y-76798800D01*
X63068194Y-76798800D01*
X63142694Y-76818762D01*
X63197232Y-76873300D01*
X63217194Y-76947800D01*
X63197232Y-77022300D01*
X63197231Y-77022301D01*
X63176839Y-77057619D01*
X63081499Y-77287789D01*
X63017016Y-77528442D01*
X62984500Y-77775429D01*
X62984500Y-78024570D01*
X63017016Y-78271557D01*
X63017017Y-78271563D01*
X63017018Y-78271565D01*
X63081498Y-78512207D01*
X63176836Y-78742373D01*
X63301401Y-78958127D01*
X63453062Y-79155776D01*
X63629224Y-79331938D01*
X63826873Y-79483599D01*
X64042627Y-79608164D01*
X64272793Y-79703502D01*
X64513435Y-79767982D01*
X64513441Y-79767982D01*
X64513442Y-79767983D01*
X64580586Y-79776822D01*
X64760435Y-79800500D01*
X65009565Y-79800500D01*
X65256565Y-79767982D01*
X65497207Y-79703502D01*
X65727373Y-79608164D01*
X65943127Y-79483599D01*
X66140776Y-79331938D01*
X66316938Y-79155776D01*
X66468599Y-78958127D01*
X66593164Y-78742373D01*
X66688502Y-78512207D01*
X66752982Y-78271565D01*
X66785500Y-78024565D01*
X66785500Y-77775435D01*
X66752982Y-77528435D01*
X66688502Y-77287793D01*
X66593164Y-77057627D01*
X66593161Y-77057622D01*
X66593160Y-77057619D01*
X66572769Y-77022301D01*
X66552806Y-76947801D01*
X66572768Y-76873301D01*
X66627305Y-76818763D01*
X66701805Y-76798800D01*
X83900055Y-76798800D01*
X83974555Y-76818762D01*
X84005414Y-76842441D01*
X85263435Y-78100462D01*
X85301999Y-78167257D01*
X85305801Y-78186372D01*
X85317015Y-78271551D01*
X85317017Y-78271563D01*
X85317018Y-78271565D01*
X85381498Y-78512207D01*
X85476836Y-78742373D01*
X85601401Y-78958127D01*
X85753062Y-79155776D01*
X85929224Y-79331938D01*
X86126873Y-79483599D01*
X86342627Y-79608164D01*
X86572793Y-79703502D01*
X86813435Y-79767982D01*
X86813441Y-79767982D01*
X86813442Y-79767983D01*
X86880586Y-79776822D01*
X87060435Y-79800500D01*
X87309565Y-79800500D01*
X87556565Y-79767982D01*
X87797207Y-79703502D01*
X88027373Y-79608164D01*
X88243127Y-79483599D01*
X88440776Y-79331938D01*
X88616938Y-79155776D01*
X88768599Y-78958127D01*
X88893164Y-78742373D01*
X88988502Y-78512207D01*
X89052982Y-78271565D01*
X89064197Y-78186371D01*
X89093711Y-78115117D01*
X89106555Y-78100470D01*
X89431596Y-77775429D01*
X107484500Y-77775429D01*
X107484500Y-78024570D01*
X107517016Y-78271557D01*
X107517017Y-78271563D01*
X107517018Y-78271565D01*
X107581498Y-78512207D01*
X107676836Y-78742373D01*
X107801401Y-78958127D01*
X107953062Y-79155776D01*
X108129224Y-79331938D01*
X108326873Y-79483599D01*
X108542627Y-79608164D01*
X108772793Y-79703502D01*
X109013435Y-79767982D01*
X109013441Y-79767982D01*
X109013442Y-79767983D01*
X109080586Y-79776822D01*
X109260435Y-79800500D01*
X109509565Y-79800500D01*
X109756565Y-79767982D01*
X109997207Y-79703502D01*
X110227373Y-79608164D01*
X110443127Y-79483599D01*
X110640776Y-79331938D01*
X110816938Y-79155776D01*
X110968599Y-78958127D01*
X111093164Y-78742373D01*
X111188502Y-78512207D01*
X111252982Y-78271565D01*
X111285500Y-78024565D01*
X111285500Y-77875429D01*
X128999500Y-77875429D01*
X128999500Y-78124570D01*
X129032016Y-78371557D01*
X129032017Y-78371563D01*
X129032018Y-78371565D01*
X129087301Y-78577885D01*
X129096499Y-78612210D01*
X129106968Y-78637484D01*
X129162824Y-78772333D01*
X129191838Y-78842377D01*
X129217917Y-78887547D01*
X129316401Y-79058127D01*
X129468062Y-79255776D01*
X129644224Y-79431938D01*
X129841873Y-79583599D01*
X130057627Y-79708164D01*
X130287793Y-79803502D01*
X130528435Y-79867982D01*
X130528441Y-79867982D01*
X130528442Y-79867983D01*
X130595586Y-79876822D01*
X130775435Y-79900500D01*
X131024565Y-79900500D01*
X131271565Y-79867982D01*
X131512207Y-79803502D01*
X131742373Y-79708164D01*
X131958127Y-79583599D01*
X132155776Y-79431938D01*
X132331938Y-79255776D01*
X132483599Y-79058127D01*
X132608164Y-78842373D01*
X132703502Y-78612207D01*
X132767982Y-78371565D01*
X132800500Y-78124565D01*
X132800500Y-77875435D01*
X132767982Y-77628435D01*
X132703502Y-77387793D01*
X132608164Y-77157627D01*
X132483599Y-76941873D01*
X132331938Y-76744224D01*
X132155776Y-76568062D01*
X131958127Y-76416401D01*
X131818710Y-76335909D01*
X131742377Y-76291838D01*
X131742375Y-76291837D01*
X131742373Y-76291836D01*
X131607548Y-76235989D01*
X131512210Y-76196499D01*
X131512208Y-76196498D01*
X131512207Y-76196498D01*
X131271565Y-76132018D01*
X131271563Y-76132017D01*
X131271557Y-76132016D01*
X131024570Y-76099500D01*
X131024565Y-76099500D01*
X130775435Y-76099500D01*
X130775429Y-76099500D01*
X130528442Y-76132016D01*
X130287789Y-76196499D01*
X130057622Y-76291838D01*
X129841874Y-76416400D01*
X129644222Y-76568063D01*
X129468063Y-76744222D01*
X129316400Y-76941874D01*
X129191838Y-77157622D01*
X129096499Y-77387789D01*
X129032016Y-77628442D01*
X128999500Y-77875429D01*
X111285500Y-77875429D01*
X111285500Y-77775435D01*
X111252982Y-77528435D01*
X111188502Y-77287793D01*
X111093164Y-77057627D01*
X110968599Y-76841873D01*
X110816938Y-76644224D01*
X110640776Y-76468062D01*
X110443127Y-76316401D01*
X110235448Y-76196498D01*
X110227377Y-76191838D01*
X110227375Y-76191837D01*
X110227373Y-76191836D01*
X110082955Y-76132016D01*
X109997210Y-76096499D01*
X109997208Y-76096498D01*
X109997207Y-76096498D01*
X109756565Y-76032018D01*
X109756563Y-76032017D01*
X109756557Y-76032016D01*
X109509570Y-75999500D01*
X109509565Y-75999500D01*
X109260435Y-75999500D01*
X109260429Y-75999500D01*
X109013442Y-76032016D01*
X108772789Y-76096499D01*
X108542622Y-76191838D01*
X108326874Y-76316400D01*
X108129222Y-76468063D01*
X107953063Y-76644222D01*
X107801400Y-76841874D01*
X107676838Y-77057622D01*
X107581499Y-77287789D01*
X107517016Y-77528442D01*
X107484500Y-77775429D01*
X89431596Y-77775429D01*
X94662887Y-72544141D01*
X94729682Y-72505577D01*
X94768246Y-72500500D01*
X129001250Y-72500500D01*
X129075750Y-72520462D01*
X129128067Y-72571279D01*
X129157286Y-72618651D01*
X129157287Y-72618652D01*
X129157289Y-72618655D01*
X129281345Y-72742711D01*
X129430666Y-72834814D01*
X129597203Y-72889999D01*
X129699992Y-72900500D01*
X129699996Y-72900500D01*
X132100004Y-72900500D01*
X132100008Y-72900500D01*
X132202797Y-72889999D01*
X132369334Y-72834814D01*
X132518655Y-72742711D01*
X132642711Y-72618655D01*
X132734814Y-72469334D01*
X132789999Y-72302797D01*
X132800500Y-72200008D01*
X132800500Y-69799992D01*
X132789999Y-69697203D01*
X132734814Y-69530666D01*
X132642711Y-69381345D01*
X132518655Y-69257289D01*
X132369334Y-69165186D01*
X132285332Y-69137350D01*
X132202798Y-69110001D01*
X132202799Y-69110001D01*
X132168534Y-69106500D01*
X132100008Y-69099500D01*
X129699992Y-69099500D01*
X129631466Y-69106500D01*
X129597201Y-69110001D01*
X129430663Y-69165187D01*
X129281344Y-69257289D01*
X129157286Y-69381348D01*
X129128067Y-69428721D01*
X129071966Y-69481650D01*
X129001250Y-69499500D01*
X93966908Y-69499500D01*
X93954784Y-69501420D01*
X93910443Y-69508442D01*
X93910444Y-69508443D01*
X93733631Y-69536447D01*
X93690061Y-69550604D01*
X93509008Y-69609432D01*
X93509002Y-69609434D01*
X93509002Y-69609435D01*
X93298565Y-69716658D01*
X93298564Y-69716658D01*
X93107491Y-69855481D01*
X93107488Y-69855483D01*
X87290357Y-75672613D01*
X87223562Y-75711177D01*
X87146434Y-75711177D01*
X87079641Y-75672614D01*
X85560810Y-74153783D01*
X85560806Y-74153780D01*
X85560803Y-74153777D01*
X85369735Y-74014958D01*
X85369734Y-74014957D01*
X85159292Y-73907732D01*
X84934668Y-73834747D01*
X84701392Y-73797800D01*
X45168608Y-73797800D01*
X44935332Y-73834747D01*
X44783692Y-73884017D01*
X44783690Y-73884017D01*
X44710712Y-73907729D01*
X44710700Y-73907734D01*
X44500264Y-74014958D01*
X44309195Y-74153777D01*
X42484536Y-75978435D01*
X42417741Y-76016999D01*
X42398627Y-76020801D01*
X42313446Y-76032015D01*
X42313436Y-76032017D01*
X42072789Y-76096499D01*
X41842622Y-76191838D01*
X41626874Y-76316400D01*
X41429222Y-76468063D01*
X41253063Y-76644222D01*
X41101400Y-76841874D01*
X40976838Y-77057622D01*
X40881499Y-77287789D01*
X40817016Y-77528442D01*
X40784500Y-77775429D01*
X25350500Y-77775429D01*
X25350500Y-77770557D01*
X25350499Y-76782136D01*
X25350499Y-76782128D01*
X25344091Y-76722517D01*
X25314889Y-76644222D01*
X25293797Y-76587670D01*
X25293795Y-76587666D01*
X25207547Y-76472455D01*
X25207544Y-76472452D01*
X25092333Y-76386204D01*
X25092329Y-76386202D01*
X24957482Y-76335908D01*
X24897876Y-76329500D01*
X23102136Y-76329500D01*
X23102111Y-76329502D01*
X23042521Y-76335908D01*
X23042515Y-76335909D01*
X22907670Y-76386202D01*
X22907666Y-76386204D01*
X22792455Y-76472452D01*
X22792452Y-76472455D01*
X22706204Y-76587666D01*
X22706202Y-76587670D01*
X22655908Y-76722517D01*
X22649500Y-76782114D01*
X22649500Y-78577863D01*
X22649502Y-78577888D01*
X22655908Y-78637478D01*
X22655909Y-78637484D01*
X22706202Y-78772329D01*
X22706204Y-78772333D01*
X22792452Y-78887544D01*
X22792455Y-78887547D01*
X22907666Y-78973795D01*
X22907668Y-78973795D01*
X22907669Y-78973796D01*
X23002633Y-79009215D01*
X23065460Y-79053953D01*
X23097501Y-79124111D01*
X23090170Y-79200890D01*
X23055923Y-79254179D01*
X22969904Y-79340198D01*
X22969895Y-79340209D01*
X22844950Y-79512181D01*
X22844950Y-79512182D01*
X22748446Y-79701582D01*
X22748441Y-79701594D01*
X22683813Y-79900499D01*
X22682754Y-79903757D01*
X22649500Y-80113713D01*
X22649500Y-80326287D01*
X22682754Y-80536243D01*
X22748443Y-80738412D01*
X22844949Y-80927816D01*
X22969896Y-81099792D01*
X23120208Y-81250104D01*
X23198844Y-81307236D01*
X23284482Y-81369456D01*
X23333020Y-81429396D01*
X23345086Y-81505575D01*
X23317446Y-81577580D01*
X23284482Y-81610544D01*
X23120209Y-81729895D01*
X23120206Y-81729897D01*
X22969892Y-81880212D01*
X22956910Y-81898081D01*
X22896969Y-81946619D01*
X22836367Y-81959500D01*
X14664496Y-81959500D01*
X14589996Y-81939538D01*
X14586274Y-81937316D01*
X14469336Y-81865187D01*
X14469335Y-81865186D01*
X14469334Y-81865186D01*
X14385332Y-81837350D01*
X14302798Y-81810001D01*
X14302799Y-81810001D01*
X14268534Y-81806500D01*
X14200008Y-81799500D01*
X11799992Y-81799500D01*
X11731466Y-81806500D01*
X11697201Y-81810001D01*
X11530663Y-81865187D01*
X11381344Y-81957289D01*
X11257289Y-82081344D01*
X11165187Y-82230663D01*
X11110001Y-82397201D01*
X11110001Y-82397203D01*
X11099500Y-82499992D01*
X5500000Y-82499992D01*
X5500000Y-78575429D01*
X11099500Y-78575429D01*
X11099500Y-78824570D01*
X11132016Y-79071557D01*
X11132017Y-79071563D01*
X11132018Y-79071565D01*
X11181377Y-79255776D01*
X11196499Y-79312210D01*
X11208096Y-79340208D01*
X11279331Y-79512184D01*
X11291838Y-79542377D01*
X11329820Y-79608164D01*
X11416401Y-79758127D01*
X11568062Y-79955776D01*
X11744224Y-80131938D01*
X11941873Y-80283599D01*
X12157627Y-80408164D01*
X12387793Y-80503502D01*
X12628435Y-80567982D01*
X12628441Y-80567982D01*
X12628442Y-80567983D01*
X12695586Y-80576822D01*
X12875435Y-80600500D01*
X13124565Y-80600500D01*
X13371565Y-80567982D01*
X13612207Y-80503502D01*
X13842373Y-80408164D01*
X14058127Y-80283599D01*
X14255776Y-80131938D01*
X14431938Y-79955776D01*
X14583599Y-79758127D01*
X14708164Y-79542373D01*
X14803502Y-79312207D01*
X14867982Y-79071565D01*
X14900500Y-78824565D01*
X14900500Y-78575435D01*
X14867982Y-78328435D01*
X14803502Y-78087793D01*
X14708164Y-77857627D01*
X14583599Y-77641873D01*
X14431938Y-77444224D01*
X14255776Y-77268062D01*
X14058127Y-77116401D01*
X13956313Y-77057619D01*
X13842377Y-76991838D01*
X13842375Y-76991837D01*
X13842373Y-76991836D01*
X13707548Y-76935989D01*
X13612210Y-76896499D01*
X13612208Y-76896498D01*
X13612207Y-76896498D01*
X13371565Y-76832018D01*
X13371563Y-76832017D01*
X13371557Y-76832016D01*
X13124570Y-76799500D01*
X13124565Y-76799500D01*
X12875435Y-76799500D01*
X12875429Y-76799500D01*
X12628442Y-76832016D01*
X12387789Y-76896499D01*
X12157622Y-76991838D01*
X11941874Y-77116400D01*
X11744222Y-77268063D01*
X11568063Y-77444222D01*
X11416400Y-77641874D01*
X11291838Y-77857622D01*
X11196499Y-78087789D01*
X11132016Y-78328442D01*
X11099500Y-78575429D01*
X5500000Y-78575429D01*
X5500000Y-70499992D01*
X11099500Y-70499992D01*
X11099500Y-72900008D01*
X11110001Y-73002797D01*
X11165186Y-73169334D01*
X11257289Y-73318655D01*
X11381345Y-73442711D01*
X11530666Y-73534814D01*
X11697203Y-73589999D01*
X11799992Y-73600500D01*
X11799996Y-73600500D01*
X14200004Y-73600500D01*
X14200008Y-73600500D01*
X14302797Y-73589999D01*
X14469334Y-73534814D01*
X14618655Y-73442711D01*
X14742711Y-73318655D01*
X14834814Y-73169334D01*
X14889999Y-73002797D01*
X14900500Y-72900008D01*
X14900500Y-70499992D01*
X14889999Y-70397203D01*
X14834814Y-70230666D01*
X14742711Y-70081345D01*
X14618655Y-69957289D01*
X14493690Y-69880209D01*
X14469336Y-69865187D01*
X14469335Y-69865186D01*
X14469334Y-69865186D01*
X14385332Y-69837350D01*
X14302798Y-69810001D01*
X14302799Y-69810001D01*
X14268534Y-69806500D01*
X14200008Y-69799500D01*
X11799992Y-69799500D01*
X11731466Y-69806500D01*
X11697201Y-69810001D01*
X11530663Y-69865187D01*
X11381344Y-69957289D01*
X11257289Y-70081344D01*
X11165187Y-70230663D01*
X11110001Y-70397201D01*
X11110001Y-70397203D01*
X11099500Y-70499992D01*
X5500000Y-70499992D01*
X5500000Y-66575429D01*
X11099500Y-66575429D01*
X11099500Y-66824570D01*
X11132016Y-67071557D01*
X11132017Y-67071563D01*
X11132018Y-67071565D01*
X11181377Y-67255776D01*
X11196499Y-67312210D01*
X11208096Y-67340208D01*
X11291836Y-67542373D01*
X11416401Y-67758127D01*
X11568062Y-67955776D01*
X11744224Y-68131938D01*
X11941873Y-68283599D01*
X12157627Y-68408164D01*
X12387793Y-68503502D01*
X12628435Y-68567982D01*
X12628441Y-68567982D01*
X12628442Y-68567983D01*
X12695586Y-68576822D01*
X12875435Y-68600500D01*
X13124565Y-68600500D01*
X13371565Y-68567982D01*
X13612207Y-68503502D01*
X13842373Y-68408164D01*
X14058127Y-68283599D01*
X14255776Y-68131938D01*
X14431938Y-67955776D01*
X14583599Y-67758127D01*
X14708164Y-67542373D01*
X14803502Y-67312207D01*
X14867982Y-67071565D01*
X14900500Y-66824565D01*
X14900500Y-66575435D01*
X14897013Y-66548949D01*
X14907079Y-66472482D01*
X14954031Y-66411291D01*
X15025288Y-66381775D01*
X15044738Y-66380500D01*
X22500501Y-66380500D01*
X22575001Y-66400462D01*
X22629539Y-66455000D01*
X22649501Y-66529500D01*
X22649501Y-66577863D01*
X22649502Y-66577888D01*
X22655908Y-66637478D01*
X22655909Y-66637484D01*
X22706202Y-66772329D01*
X22706204Y-66772333D01*
X22792452Y-66887544D01*
X22792455Y-66887547D01*
X22907666Y-66973795D01*
X22907668Y-66973795D01*
X22907669Y-66973796D01*
X23002633Y-67009215D01*
X23065460Y-67053953D01*
X23097501Y-67124111D01*
X23090170Y-67200890D01*
X23055923Y-67254179D01*
X22969904Y-67340198D01*
X22969895Y-67340209D01*
X22844950Y-67512181D01*
X22844950Y-67512182D01*
X22748446Y-67701582D01*
X22748441Y-67701594D01*
X22683813Y-67900499D01*
X22682754Y-67903757D01*
X22649500Y-68113713D01*
X22649500Y-68326287D01*
X22682754Y-68536243D01*
X22748443Y-68738412D01*
X22844949Y-68927816D01*
X22969896Y-69099792D01*
X23120208Y-69250104D01*
X23198844Y-69307236D01*
X23284482Y-69369456D01*
X23333020Y-69429396D01*
X23345086Y-69505575D01*
X23317446Y-69577580D01*
X23284482Y-69610544D01*
X23120209Y-69729895D01*
X23120206Y-69729897D01*
X22969897Y-69880206D01*
X22969895Y-69880209D01*
X22844950Y-70052181D01*
X22844950Y-70052182D01*
X22844949Y-70052184D01*
X22748443Y-70241588D01*
X22682754Y-70443757D01*
X22649500Y-70653713D01*
X22649500Y-70866287D01*
X22682754Y-71076243D01*
X22748443Y-71278412D01*
X22844949Y-71467816D01*
X22969896Y-71639792D01*
X23120208Y-71790104D01*
X23198844Y-71847236D01*
X23284482Y-71909456D01*
X23333020Y-71969396D01*
X23345086Y-72045575D01*
X23317446Y-72117580D01*
X23284482Y-72150544D01*
X23120209Y-72269895D01*
X23120206Y-72269897D01*
X22969897Y-72420206D01*
X22969895Y-72420209D01*
X22844950Y-72592181D01*
X22844950Y-72592182D01*
X22844949Y-72592184D01*
X22748443Y-72781588D01*
X22682754Y-72983757D01*
X22649500Y-73193713D01*
X22649500Y-73406287D01*
X22682754Y-73616243D01*
X22748443Y-73818412D01*
X22793956Y-73907737D01*
X22844950Y-74007817D01*
X22844950Y-74007818D01*
X22850137Y-74014957D01*
X22969896Y-74179792D01*
X23120208Y-74330104D01*
X23292184Y-74455051D01*
X23481588Y-74551557D01*
X23683757Y-74617246D01*
X23893713Y-74650500D01*
X23893718Y-74650500D01*
X24106282Y-74650500D01*
X24106287Y-74650500D01*
X24316243Y-74617246D01*
X24518412Y-74551557D01*
X24707816Y-74455051D01*
X24879792Y-74330104D01*
X25030104Y-74179792D01*
X25155051Y-74007816D01*
X25251557Y-73818412D01*
X25317246Y-73616243D01*
X25350500Y-73406287D01*
X25350500Y-73193713D01*
X25317246Y-72983757D01*
X25251557Y-72781588D01*
X25155051Y-72592184D01*
X25030104Y-72420208D01*
X24879792Y-72269896D01*
X24715517Y-72150544D01*
X24666979Y-72090604D01*
X24654913Y-72014426D01*
X24682553Y-71942420D01*
X24715517Y-71909456D01*
X24722519Y-71904368D01*
X24879792Y-71790104D01*
X25030104Y-71639792D01*
X25155051Y-71467816D01*
X25251557Y-71278412D01*
X25317246Y-71076243D01*
X25350500Y-70866287D01*
X25350500Y-70653713D01*
X25317246Y-70443757D01*
X25251557Y-70241588D01*
X25155051Y-70052184D01*
X25030104Y-69880208D01*
X24879792Y-69729896D01*
X24715517Y-69610544D01*
X24666979Y-69550604D01*
X24654913Y-69474426D01*
X24682553Y-69402420D01*
X24715517Y-69369456D01*
X24722519Y-69364368D01*
X24879792Y-69250104D01*
X25030104Y-69099792D01*
X25155051Y-68927816D01*
X25251557Y-68738412D01*
X25317246Y-68536243D01*
X25350500Y-68326287D01*
X25350500Y-68113713D01*
X25317246Y-67903757D01*
X25251557Y-67701588D01*
X25155051Y-67512184D01*
X25030104Y-67340208D01*
X24944075Y-67254179D01*
X24905512Y-67187385D01*
X24905512Y-67110257D01*
X24944076Y-67043462D01*
X24997366Y-67009215D01*
X25028278Y-66997685D01*
X25092327Y-66973798D01*
X25092333Y-66973795D01*
X25149938Y-66930671D01*
X25207546Y-66887546D01*
X25293796Y-66772331D01*
X25344091Y-66637483D01*
X25346809Y-66612207D01*
X25350499Y-66577885D01*
X25350500Y-66577867D01*
X25350500Y-65875429D01*
X128999500Y-65875429D01*
X128999500Y-66124570D01*
X129032016Y-66371557D01*
X129032017Y-66371563D01*
X129032018Y-66371565D01*
X129087301Y-66577885D01*
X129096499Y-66612210D01*
X129106968Y-66637484D01*
X129162824Y-66772333D01*
X129191838Y-66842377D01*
X129217917Y-66887547D01*
X129316401Y-67058127D01*
X129468062Y-67255776D01*
X129644224Y-67431938D01*
X129841873Y-67583599D01*
X130057627Y-67708164D01*
X130287793Y-67803502D01*
X130528435Y-67867982D01*
X130528441Y-67867982D01*
X130528442Y-67867983D01*
X130595586Y-67876822D01*
X130775435Y-67900500D01*
X131024565Y-67900500D01*
X131271565Y-67867982D01*
X131512207Y-67803502D01*
X131742373Y-67708164D01*
X131958127Y-67583599D01*
X132155776Y-67431938D01*
X132331938Y-67255776D01*
X132483599Y-67058127D01*
X132608164Y-66842373D01*
X132703502Y-66612207D01*
X132767982Y-66371565D01*
X132800500Y-66124565D01*
X132800500Y-65875435D01*
X132767982Y-65628435D01*
X132703502Y-65387793D01*
X132608164Y-65157627D01*
X132483599Y-64941873D01*
X132331938Y-64744224D01*
X132155776Y-64568062D01*
X131958127Y-64416401D01*
X131818710Y-64335909D01*
X131742377Y-64291838D01*
X131742375Y-64291837D01*
X131742373Y-64291836D01*
X131607548Y-64235989D01*
X131512210Y-64196499D01*
X131512208Y-64196498D01*
X131512207Y-64196498D01*
X131271565Y-64132018D01*
X131271563Y-64132017D01*
X131271557Y-64132016D01*
X131024570Y-64099500D01*
X131024565Y-64099500D01*
X130775435Y-64099500D01*
X130775429Y-64099500D01*
X130528442Y-64132016D01*
X130287789Y-64196499D01*
X130057622Y-64291838D01*
X129841874Y-64416400D01*
X129644222Y-64568063D01*
X129468063Y-64744222D01*
X129316400Y-64941874D01*
X129191838Y-65157622D01*
X129096499Y-65387789D01*
X129032016Y-65628442D01*
X128999500Y-65875429D01*
X25350500Y-65875429D01*
X25350500Y-65870557D01*
X25350499Y-64782136D01*
X25350499Y-64782128D01*
X25344091Y-64722517D01*
X25329588Y-64683633D01*
X25293797Y-64587670D01*
X25293795Y-64587666D01*
X25207547Y-64472455D01*
X25207544Y-64472452D01*
X25092333Y-64386204D01*
X25092329Y-64386202D01*
X24957482Y-64335908D01*
X24897876Y-64329500D01*
X23102136Y-64329500D01*
X23102111Y-64329502D01*
X23042521Y-64335908D01*
X23042515Y-64335909D01*
X22907670Y-64386202D01*
X22907666Y-64386204D01*
X22792455Y-64472452D01*
X22792452Y-64472455D01*
X22706204Y-64587666D01*
X22706202Y-64587670D01*
X22655908Y-64722517D01*
X22649500Y-64782114D01*
X22649500Y-64830500D01*
X22629538Y-64905000D01*
X22575000Y-64959538D01*
X22500500Y-64979500D01*
X13951005Y-64979500D01*
X13901824Y-64989282D01*
X13824861Y-64984237D01*
X13815737Y-64980803D01*
X13612210Y-64896499D01*
X13612208Y-64896498D01*
X13612207Y-64896498D01*
X13371565Y-64832018D01*
X13371563Y-64832017D01*
X13371557Y-64832016D01*
X13124570Y-64799500D01*
X13124565Y-64799500D01*
X12875435Y-64799500D01*
X12875429Y-64799500D01*
X12628442Y-64832016D01*
X12387789Y-64896499D01*
X12157622Y-64991838D01*
X11941874Y-65116400D01*
X11744222Y-65268063D01*
X11568063Y-65444222D01*
X11416400Y-65641874D01*
X11291838Y-65857622D01*
X11196499Y-66087789D01*
X11132016Y-66328442D01*
X11099500Y-66575429D01*
X5500000Y-66575429D01*
X5500000Y-58499992D01*
X11099500Y-58499992D01*
X11099500Y-60900008D01*
X11110001Y-61002797D01*
X11165186Y-61169334D01*
X11257289Y-61318655D01*
X11381345Y-61442711D01*
X11530666Y-61534814D01*
X11697203Y-61589999D01*
X11799992Y-61600500D01*
X11799996Y-61600500D01*
X14200004Y-61600500D01*
X14200008Y-61600500D01*
X14302797Y-61589999D01*
X14469334Y-61534814D01*
X14618655Y-61442711D01*
X14742711Y-61318655D01*
X14834814Y-61169334D01*
X14889999Y-61002797D01*
X14900500Y-60900008D01*
X14900500Y-58499992D01*
X14889999Y-58397203D01*
X14834814Y-58230666D01*
X14742711Y-58081345D01*
X14618655Y-57957289D01*
X14499478Y-57883779D01*
X14469336Y-57865187D01*
X14469335Y-57865186D01*
X14469334Y-57865186D01*
X14385332Y-57837350D01*
X14302798Y-57810001D01*
X14302799Y-57810001D01*
X14268534Y-57806500D01*
X14200008Y-57799500D01*
X11799992Y-57799500D01*
X11731466Y-57806500D01*
X11697201Y-57810001D01*
X11530663Y-57865187D01*
X11381344Y-57957289D01*
X11257289Y-58081344D01*
X11165187Y-58230663D01*
X11110001Y-58397201D01*
X11110001Y-58397203D01*
X11099500Y-58499992D01*
X5500000Y-58499992D01*
X5500000Y-54575429D01*
X11099500Y-54575429D01*
X11099500Y-54824570D01*
X11132016Y-55071557D01*
X11132017Y-55071563D01*
X11132018Y-55071565D01*
X11181377Y-55255776D01*
X11196499Y-55312210D01*
X11208096Y-55340208D01*
X11291836Y-55542373D01*
X11416401Y-55758127D01*
X11568062Y-55955776D01*
X11744224Y-56131938D01*
X11941873Y-56283599D01*
X12157627Y-56408164D01*
X12387793Y-56503502D01*
X12628435Y-56567982D01*
X12628441Y-56567982D01*
X12628442Y-56567983D01*
X12695586Y-56576822D01*
X12875435Y-56600500D01*
X13124565Y-56600500D01*
X13371565Y-56567982D01*
X13612207Y-56503502D01*
X13842373Y-56408164D01*
X14058127Y-56283599D01*
X14255776Y-56131938D01*
X14431938Y-55955776D01*
X14583599Y-55758127D01*
X14708164Y-55542373D01*
X14803502Y-55312207D01*
X14867982Y-55071565D01*
X14900500Y-54824565D01*
X14900500Y-54575435D01*
X14897013Y-54548949D01*
X14907079Y-54472482D01*
X14954031Y-54411291D01*
X15025288Y-54381775D01*
X15044738Y-54380500D01*
X22500501Y-54380500D01*
X22575001Y-54400462D01*
X22629539Y-54455000D01*
X22649501Y-54529500D01*
X22649501Y-54577863D01*
X22649502Y-54577888D01*
X22655908Y-54637478D01*
X22655909Y-54637484D01*
X22706202Y-54772329D01*
X22706204Y-54772333D01*
X22792452Y-54887544D01*
X22792455Y-54887547D01*
X22907666Y-54973795D01*
X22907668Y-54973795D01*
X22907669Y-54973796D01*
X23002633Y-55009215D01*
X23065460Y-55053953D01*
X23097501Y-55124111D01*
X23090170Y-55200890D01*
X23055923Y-55254179D01*
X22969904Y-55340198D01*
X22969895Y-55340209D01*
X22844950Y-55512181D01*
X22844950Y-55512182D01*
X22748446Y-55701582D01*
X22748441Y-55701594D01*
X22683813Y-55900499D01*
X22682754Y-55903757D01*
X22649500Y-56113713D01*
X22649500Y-56326287D01*
X22682754Y-56536243D01*
X22748443Y-56738412D01*
X22844949Y-56927816D01*
X22969896Y-57099792D01*
X23120208Y-57250104D01*
X23198844Y-57307236D01*
X23284482Y-57369456D01*
X23333020Y-57429396D01*
X23345086Y-57505575D01*
X23317446Y-57577580D01*
X23284482Y-57610544D01*
X23120209Y-57729895D01*
X23120206Y-57729897D01*
X22969897Y-57880206D01*
X22969895Y-57880209D01*
X22844950Y-58052181D01*
X22844950Y-58052182D01*
X22844949Y-58052184D01*
X22748443Y-58241588D01*
X22682754Y-58443757D01*
X22649500Y-58653713D01*
X22649500Y-58866287D01*
X22682754Y-59076243D01*
X22748443Y-59278412D01*
X22767799Y-59316401D01*
X22844950Y-59467817D01*
X22844950Y-59467818D01*
X22845128Y-59468063D01*
X22969896Y-59639792D01*
X23120208Y-59790104D01*
X23191464Y-59841874D01*
X23284482Y-59909456D01*
X23333020Y-59969396D01*
X23345086Y-60045575D01*
X23317446Y-60117580D01*
X23284482Y-60150544D01*
X23120209Y-60269895D01*
X23120206Y-60269897D01*
X22969897Y-60420206D01*
X22969895Y-60420209D01*
X22844950Y-60592181D01*
X22844950Y-60592182D01*
X22844949Y-60592184D01*
X22748443Y-60781588D01*
X22682754Y-60983757D01*
X22649500Y-61193713D01*
X22649500Y-61406287D01*
X22682754Y-61616243D01*
X22748443Y-61818412D01*
X22844949Y-62007816D01*
X22969896Y-62179792D01*
X23120208Y-62330104D01*
X23292184Y-62455051D01*
X23481588Y-62551557D01*
X23683757Y-62617246D01*
X23893713Y-62650500D01*
X23893718Y-62650500D01*
X24106282Y-62650500D01*
X24106287Y-62650500D01*
X24316243Y-62617246D01*
X24518412Y-62551557D01*
X24707816Y-62455051D01*
X24879792Y-62330104D01*
X25030104Y-62179792D01*
X25155051Y-62007816D01*
X25251557Y-61818412D01*
X25317246Y-61616243D01*
X25350500Y-61406287D01*
X25350500Y-61193713D01*
X25317246Y-60983757D01*
X25251557Y-60781588D01*
X25248419Y-60775429D01*
X40784500Y-60775429D01*
X40784500Y-61024570D01*
X40817016Y-61271557D01*
X40817017Y-61271563D01*
X40817018Y-61271565D01*
X40853115Y-61406282D01*
X40881499Y-61512210D01*
X40918070Y-61600500D01*
X40976836Y-61742373D01*
X41101401Y-61958127D01*
X41253062Y-62155776D01*
X41429224Y-62331938D01*
X41626873Y-62483599D01*
X41842627Y-62608164D01*
X42072793Y-62703502D01*
X42313435Y-62767982D01*
X42313441Y-62767982D01*
X42313442Y-62767983D01*
X42380586Y-62776822D01*
X42560435Y-62800500D01*
X42809565Y-62800500D01*
X43056565Y-62767982D01*
X43297207Y-62703502D01*
X43527373Y-62608164D01*
X43743127Y-62483599D01*
X43940776Y-62331938D01*
X44116938Y-62155776D01*
X44268599Y-61958127D01*
X44393164Y-61742373D01*
X44488502Y-61512207D01*
X44552982Y-61271565D01*
X44585500Y-61024565D01*
X44585500Y-60775435D01*
X44585499Y-60775429D01*
X62984500Y-60775429D01*
X62984500Y-61024570D01*
X63017016Y-61271557D01*
X63017017Y-61271563D01*
X63017018Y-61271565D01*
X63053115Y-61406282D01*
X63081499Y-61512210D01*
X63118070Y-61600500D01*
X63176836Y-61742373D01*
X63301401Y-61958127D01*
X63453062Y-62155776D01*
X63629224Y-62331938D01*
X63826873Y-62483599D01*
X64042627Y-62608164D01*
X64272793Y-62703502D01*
X64513435Y-62767982D01*
X64513441Y-62767982D01*
X64513442Y-62767983D01*
X64580586Y-62776822D01*
X64760435Y-62800500D01*
X65009565Y-62800500D01*
X65256565Y-62767982D01*
X65497207Y-62703502D01*
X65727373Y-62608164D01*
X65943127Y-62483599D01*
X66140776Y-62331938D01*
X66316938Y-62155776D01*
X66468599Y-61958127D01*
X66593164Y-61742373D01*
X66688502Y-61512207D01*
X66752982Y-61271565D01*
X66785500Y-61024565D01*
X66785500Y-60775435D01*
X66785499Y-60775429D01*
X85284500Y-60775429D01*
X85284500Y-61024570D01*
X85317016Y-61271557D01*
X85317017Y-61271563D01*
X85317018Y-61271565D01*
X85353115Y-61406282D01*
X85381499Y-61512210D01*
X85418070Y-61600500D01*
X85476836Y-61742373D01*
X85601401Y-61958127D01*
X85753062Y-62155776D01*
X85929224Y-62331938D01*
X86126873Y-62483599D01*
X86342627Y-62608164D01*
X86572793Y-62703502D01*
X86813435Y-62767982D01*
X86813441Y-62767982D01*
X86813442Y-62767983D01*
X86880586Y-62776822D01*
X87060435Y-62800500D01*
X87309565Y-62800500D01*
X87556565Y-62767982D01*
X87797207Y-62703502D01*
X88027373Y-62608164D01*
X88243127Y-62483599D01*
X88440776Y-62331938D01*
X88616938Y-62155776D01*
X88768599Y-61958127D01*
X88893164Y-61742373D01*
X88988502Y-61512207D01*
X89052982Y-61271565D01*
X89085500Y-61024565D01*
X89085500Y-60775435D01*
X89085499Y-60775429D01*
X107484500Y-60775429D01*
X107484500Y-61024570D01*
X107517016Y-61271557D01*
X107517017Y-61271563D01*
X107517018Y-61271565D01*
X107553115Y-61406282D01*
X107581499Y-61512210D01*
X107618070Y-61600500D01*
X107676836Y-61742373D01*
X107801401Y-61958127D01*
X107953062Y-62155776D01*
X108129224Y-62331938D01*
X108326873Y-62483599D01*
X108542627Y-62608164D01*
X108772793Y-62703502D01*
X109013435Y-62767982D01*
X109013441Y-62767982D01*
X109013442Y-62767983D01*
X109080586Y-62776822D01*
X109260435Y-62800500D01*
X109509565Y-62800500D01*
X109756565Y-62767982D01*
X109997207Y-62703502D01*
X110227373Y-62608164D01*
X110443127Y-62483599D01*
X110640776Y-62331938D01*
X110816938Y-62155776D01*
X110968599Y-61958127D01*
X111093164Y-61742373D01*
X111188502Y-61512207D01*
X111252982Y-61271565D01*
X111285500Y-61024565D01*
X111285500Y-60775435D01*
X111252982Y-60528435D01*
X111188502Y-60287793D01*
X111093164Y-60057627D01*
X110968599Y-59841873D01*
X110816938Y-59644224D01*
X110640776Y-59468062D01*
X110443127Y-59316401D01*
X110371209Y-59274879D01*
X110227377Y-59191838D01*
X110227375Y-59191837D01*
X110227373Y-59191836D01*
X110092548Y-59135989D01*
X109997210Y-59096499D01*
X109997208Y-59096498D01*
X109997207Y-59096498D01*
X109756565Y-59032018D01*
X109756563Y-59032017D01*
X109756557Y-59032016D01*
X109509570Y-58999500D01*
X109509565Y-58999500D01*
X109260435Y-58999500D01*
X109260429Y-58999500D01*
X109013442Y-59032016D01*
X108772789Y-59096499D01*
X108542622Y-59191838D01*
X108326874Y-59316400D01*
X108129222Y-59468063D01*
X107953063Y-59644222D01*
X107801400Y-59841874D01*
X107676838Y-60057622D01*
X107581499Y-60287789D01*
X107517016Y-60528442D01*
X107484500Y-60775429D01*
X89085499Y-60775429D01*
X89052982Y-60528435D01*
X88988502Y-60287793D01*
X88893164Y-60057627D01*
X88768599Y-59841873D01*
X88616938Y-59644224D01*
X88440776Y-59468062D01*
X88243127Y-59316401D01*
X88171209Y-59274879D01*
X88027377Y-59191838D01*
X88027375Y-59191837D01*
X88027373Y-59191836D01*
X87892548Y-59135989D01*
X87797210Y-59096499D01*
X87797208Y-59096498D01*
X87797207Y-59096498D01*
X87556565Y-59032018D01*
X87556563Y-59032017D01*
X87556557Y-59032016D01*
X87309570Y-58999500D01*
X87309565Y-58999500D01*
X87060435Y-58999500D01*
X87060429Y-58999500D01*
X86813442Y-59032016D01*
X86572789Y-59096499D01*
X86342622Y-59191838D01*
X86126874Y-59316400D01*
X85929222Y-59468063D01*
X85753063Y-59644222D01*
X85601400Y-59841874D01*
X85476838Y-60057622D01*
X85381499Y-60287789D01*
X85317016Y-60528442D01*
X85284500Y-60775429D01*
X66785499Y-60775429D01*
X66752982Y-60528435D01*
X66688502Y-60287793D01*
X66593164Y-60057627D01*
X66468599Y-59841873D01*
X66316938Y-59644224D01*
X66140776Y-59468062D01*
X65943127Y-59316401D01*
X65871209Y-59274879D01*
X65727377Y-59191838D01*
X65727375Y-59191837D01*
X65727373Y-59191836D01*
X65592548Y-59135989D01*
X65497210Y-59096499D01*
X65497208Y-59096498D01*
X65497207Y-59096498D01*
X65256565Y-59032018D01*
X65256563Y-59032017D01*
X65256557Y-59032016D01*
X65009570Y-58999500D01*
X65009565Y-58999500D01*
X64760435Y-58999500D01*
X64760429Y-58999500D01*
X64513442Y-59032016D01*
X64272789Y-59096499D01*
X64042622Y-59191838D01*
X63826874Y-59316400D01*
X63629222Y-59468063D01*
X63453063Y-59644222D01*
X63301400Y-59841874D01*
X63176838Y-60057622D01*
X63081499Y-60287789D01*
X63017016Y-60528442D01*
X62984500Y-60775429D01*
X44585499Y-60775429D01*
X44552982Y-60528435D01*
X44488502Y-60287793D01*
X44393164Y-60057627D01*
X44268599Y-59841873D01*
X44116938Y-59644224D01*
X43940776Y-59468062D01*
X43743127Y-59316401D01*
X43671209Y-59274879D01*
X43527377Y-59191838D01*
X43527375Y-59191837D01*
X43527373Y-59191836D01*
X43392548Y-59135989D01*
X43297210Y-59096499D01*
X43297208Y-59096498D01*
X43297207Y-59096498D01*
X43056565Y-59032018D01*
X43056563Y-59032017D01*
X43056557Y-59032016D01*
X42809570Y-58999500D01*
X42809565Y-58999500D01*
X42560435Y-58999500D01*
X42560429Y-58999500D01*
X42313442Y-59032016D01*
X42072789Y-59096499D01*
X41842622Y-59191838D01*
X41626874Y-59316400D01*
X41429222Y-59468063D01*
X41253063Y-59644222D01*
X41101400Y-59841874D01*
X40976838Y-60057622D01*
X40881499Y-60287789D01*
X40817016Y-60528442D01*
X40784500Y-60775429D01*
X25248419Y-60775429D01*
X25155051Y-60592184D01*
X25030104Y-60420208D01*
X24879792Y-60269896D01*
X24715517Y-60150544D01*
X24666979Y-60090604D01*
X24654913Y-60014426D01*
X24682553Y-59942420D01*
X24715517Y-59909456D01*
X24722519Y-59904368D01*
X24879792Y-59790104D01*
X25030104Y-59639792D01*
X25155051Y-59467816D01*
X25251557Y-59278412D01*
X25317246Y-59076243D01*
X25350500Y-58866287D01*
X25350500Y-58653713D01*
X25317246Y-58443757D01*
X25251557Y-58241588D01*
X25155051Y-58052184D01*
X25032696Y-57883775D01*
X25030109Y-57880214D01*
X25030102Y-57880206D01*
X24949888Y-57799992D01*
X128999500Y-57799992D01*
X128999500Y-60200008D01*
X129006640Y-60269895D01*
X129010001Y-60302798D01*
X129065187Y-60469336D01*
X129140960Y-60592182D01*
X129157289Y-60618655D01*
X129281345Y-60742711D01*
X129430666Y-60834814D01*
X129597203Y-60889999D01*
X129699992Y-60900500D01*
X129699996Y-60900500D01*
X132100004Y-60900500D01*
X132100008Y-60900500D01*
X132202797Y-60889999D01*
X132369334Y-60834814D01*
X132518655Y-60742711D01*
X132642711Y-60618655D01*
X132734814Y-60469334D01*
X132789999Y-60302797D01*
X132800500Y-60200008D01*
X132800500Y-57799992D01*
X132789999Y-57697203D01*
X132734814Y-57530666D01*
X132642711Y-57381345D01*
X132518655Y-57257289D01*
X132369334Y-57165186D01*
X132285332Y-57137350D01*
X132202798Y-57110001D01*
X132202799Y-57110001D01*
X132168534Y-57106500D01*
X132100008Y-57099500D01*
X129699992Y-57099500D01*
X129631466Y-57106500D01*
X129597201Y-57110001D01*
X129430663Y-57165187D01*
X129281344Y-57257289D01*
X129157289Y-57381344D01*
X129065187Y-57530663D01*
X129010001Y-57697201D01*
X129010001Y-57697203D01*
X128999500Y-57799992D01*
X24949888Y-57799992D01*
X24879793Y-57729897D01*
X24879792Y-57729896D01*
X24715517Y-57610544D01*
X24666979Y-57550604D01*
X24654913Y-57474426D01*
X24682553Y-57402420D01*
X24715517Y-57369456D01*
X24722519Y-57364368D01*
X24879792Y-57250104D01*
X25030104Y-57099792D01*
X25155051Y-56927816D01*
X25251557Y-56738412D01*
X25317246Y-56536243D01*
X25350500Y-56326287D01*
X25350500Y-56113713D01*
X25317246Y-55903757D01*
X25251557Y-55701588D01*
X25155051Y-55512184D01*
X25030104Y-55340208D01*
X24944075Y-55254179D01*
X24905512Y-55187385D01*
X24905512Y-55110257D01*
X24944076Y-55043462D01*
X24997366Y-55009215D01*
X25028278Y-54997685D01*
X25092327Y-54973798D01*
X25092333Y-54973795D01*
X25149938Y-54930671D01*
X25207546Y-54887546D01*
X25293796Y-54772331D01*
X25344091Y-54637483D01*
X25346809Y-54612207D01*
X25350499Y-54577885D01*
X25350500Y-54577867D01*
X25350500Y-53875429D01*
X128999500Y-53875429D01*
X128999500Y-54124570D01*
X129032016Y-54371557D01*
X129032017Y-54371563D01*
X129032018Y-54371565D01*
X129087301Y-54577885D01*
X129096499Y-54612210D01*
X129106968Y-54637484D01*
X129162824Y-54772333D01*
X129191838Y-54842377D01*
X129217917Y-54887547D01*
X129316401Y-55058127D01*
X129468062Y-55255776D01*
X129644224Y-55431938D01*
X129841873Y-55583599D01*
X130057627Y-55708164D01*
X130287793Y-55803502D01*
X130528435Y-55867982D01*
X130528441Y-55867982D01*
X130528442Y-55867983D01*
X130595586Y-55876822D01*
X130775435Y-55900500D01*
X131024565Y-55900500D01*
X131271565Y-55867982D01*
X131512207Y-55803502D01*
X131742373Y-55708164D01*
X131958127Y-55583599D01*
X132155776Y-55431938D01*
X132331938Y-55255776D01*
X132483599Y-55058127D01*
X132608164Y-54842373D01*
X132703502Y-54612207D01*
X132767982Y-54371565D01*
X132800500Y-54124565D01*
X132800500Y-53875435D01*
X132767982Y-53628435D01*
X132703502Y-53387793D01*
X132608164Y-53157627D01*
X132483599Y-52941873D01*
X132331938Y-52744224D01*
X132155776Y-52568062D01*
X131958127Y-52416401D01*
X131818710Y-52335909D01*
X131742377Y-52291838D01*
X131742375Y-52291837D01*
X131742373Y-52291836D01*
X131607548Y-52235989D01*
X131512210Y-52196499D01*
X131512208Y-52196498D01*
X131512207Y-52196498D01*
X131271565Y-52132018D01*
X131271563Y-52132017D01*
X131271557Y-52132016D01*
X131024570Y-52099500D01*
X131024565Y-52099500D01*
X130775435Y-52099500D01*
X130775429Y-52099500D01*
X130528442Y-52132016D01*
X130287789Y-52196499D01*
X130057622Y-52291838D01*
X129841874Y-52416400D01*
X129644222Y-52568063D01*
X129468063Y-52744222D01*
X129316400Y-52941874D01*
X129191838Y-53157622D01*
X129096499Y-53387789D01*
X129032016Y-53628442D01*
X128999500Y-53875429D01*
X25350500Y-53875429D01*
X25350500Y-53870557D01*
X25350499Y-52782136D01*
X25350499Y-52782128D01*
X25344091Y-52722517D01*
X25329588Y-52683633D01*
X25293797Y-52587670D01*
X25293795Y-52587666D01*
X25207547Y-52472455D01*
X25207544Y-52472452D01*
X25092333Y-52386204D01*
X25092329Y-52386202D01*
X24957482Y-52335908D01*
X24897876Y-52329500D01*
X23102136Y-52329500D01*
X23102111Y-52329502D01*
X23042521Y-52335908D01*
X23042515Y-52335909D01*
X22907670Y-52386202D01*
X22907666Y-52386204D01*
X22792455Y-52472452D01*
X22792452Y-52472455D01*
X22706204Y-52587666D01*
X22706202Y-52587670D01*
X22655908Y-52722517D01*
X22649500Y-52782114D01*
X22649500Y-52830500D01*
X22629538Y-52905000D01*
X22575000Y-52959538D01*
X22500500Y-52979500D01*
X13951005Y-52979500D01*
X13901824Y-52989282D01*
X13824861Y-52984237D01*
X13815737Y-52980803D01*
X13612210Y-52896499D01*
X13612208Y-52896498D01*
X13612207Y-52896498D01*
X13371565Y-52832018D01*
X13371563Y-52832017D01*
X13371557Y-52832016D01*
X13124570Y-52799500D01*
X13124565Y-52799500D01*
X12875435Y-52799500D01*
X12875429Y-52799500D01*
X12628442Y-52832016D01*
X12387789Y-52896499D01*
X12157622Y-52991838D01*
X11941874Y-53116400D01*
X11744222Y-53268063D01*
X11568063Y-53444222D01*
X11416400Y-53641874D01*
X11291838Y-53857622D01*
X11196499Y-54087789D01*
X11132016Y-54328442D01*
X11099500Y-54575429D01*
X5500000Y-54575429D01*
X5500000Y-43768874D01*
X40684501Y-43768874D01*
X40684501Y-44031125D01*
X40718727Y-44291108D01*
X40786603Y-44544423D01*
X40786604Y-44544427D01*
X40866175Y-44736524D01*
X40886957Y-44786697D01*
X41018076Y-45013802D01*
X41177717Y-45221851D01*
X41363149Y-45407283D01*
X41571198Y-45566924D01*
X41798303Y-45698043D01*
X41934130Y-45754304D01*
X42040572Y-45798395D01*
X42040576Y-45798396D01*
X42040581Y-45798398D01*
X42293884Y-45866271D01*
X42293890Y-45866271D01*
X42293891Y-45866272D01*
X42364579Y-45875577D01*
X42553880Y-45900499D01*
X42816120Y-45900499D01*
X43076116Y-45866271D01*
X43329419Y-45798398D01*
X43329425Y-45798395D01*
X43329427Y-45798395D01*
X43402847Y-45767983D01*
X43571697Y-45698043D01*
X43798802Y-45566924D01*
X44006851Y-45407283D01*
X46571693Y-42842441D01*
X46638488Y-42803877D01*
X46677052Y-42798800D01*
X63068194Y-42798800D01*
X63142694Y-42818762D01*
X63197232Y-42873300D01*
X63217194Y-42947800D01*
X63197232Y-43022300D01*
X63197231Y-43022301D01*
X63176839Y-43057619D01*
X63081499Y-43287789D01*
X63017016Y-43528442D01*
X62984500Y-43775429D01*
X62984500Y-44024570D01*
X63017016Y-44271557D01*
X63081499Y-44512210D01*
X63176838Y-44742377D01*
X63259879Y-44886209D01*
X63301401Y-44958127D01*
X63453062Y-45155776D01*
X63629224Y-45331938D01*
X63826873Y-45483599D01*
X64042627Y-45608164D01*
X64272793Y-45703502D01*
X64513435Y-45767982D01*
X64513441Y-45767982D01*
X64513442Y-45767983D01*
X64580586Y-45776822D01*
X64760435Y-45800500D01*
X65009565Y-45800500D01*
X65256565Y-45767982D01*
X65497207Y-45703502D01*
X65727373Y-45608164D01*
X65943127Y-45483599D01*
X66140776Y-45331938D01*
X66316938Y-45155776D01*
X66468599Y-44958127D01*
X66593164Y-44742373D01*
X66688502Y-44512207D01*
X66752982Y-44271565D01*
X66785500Y-44024565D01*
X66785500Y-43775435D01*
X66752982Y-43528435D01*
X66688502Y-43287793D01*
X66593164Y-43057627D01*
X66593161Y-43057622D01*
X66593160Y-43057619D01*
X66572769Y-43022301D01*
X66552806Y-42947801D01*
X66572768Y-42873301D01*
X66627305Y-42818763D01*
X66701805Y-42798800D01*
X83192948Y-42798800D01*
X83267448Y-42818762D01*
X83298307Y-42842441D01*
X85677717Y-45221851D01*
X85863149Y-45407283D01*
X86071198Y-45566924D01*
X86296848Y-45697203D01*
X86296850Y-45697204D01*
X86296849Y-45697204D01*
X86298303Y-45698043D01*
X86298304Y-45698044D01*
X86540572Y-45798395D01*
X86540576Y-45798396D01*
X86540581Y-45798398D01*
X86793884Y-45866271D01*
X86793890Y-45866271D01*
X86793891Y-45866272D01*
X86864579Y-45875577D01*
X87053880Y-45900499D01*
X87316120Y-45900499D01*
X87576116Y-45866271D01*
X87829419Y-45798398D01*
X87829425Y-45798395D01*
X87829427Y-45798395D01*
X87902847Y-45767983D01*
X88071697Y-45698043D01*
X88298802Y-45566924D01*
X88506851Y-45407283D01*
X91100393Y-42813741D01*
X91167188Y-42775177D01*
X91205752Y-42770100D01*
X107584764Y-42770100D01*
X107659264Y-42790062D01*
X107713802Y-42844600D01*
X107733764Y-42919100D01*
X107713802Y-42993600D01*
X107676838Y-43057622D01*
X107581499Y-43287789D01*
X107517016Y-43528442D01*
X107484500Y-43775429D01*
X107484500Y-44024570D01*
X107517016Y-44271557D01*
X107581499Y-44512210D01*
X107676838Y-44742377D01*
X107759879Y-44886209D01*
X107801401Y-44958127D01*
X107953062Y-45155776D01*
X108129224Y-45331938D01*
X108326873Y-45483599D01*
X108542627Y-45608164D01*
X108772793Y-45703502D01*
X109013435Y-45767982D01*
X109013441Y-45767982D01*
X109013442Y-45767983D01*
X109080586Y-45776822D01*
X109260435Y-45800500D01*
X109509565Y-45800500D01*
X109513424Y-45799992D01*
X128999500Y-45799992D01*
X128999500Y-48200008D01*
X129010001Y-48302797D01*
X129065186Y-48469334D01*
X129157289Y-48618655D01*
X129281345Y-48742711D01*
X129430666Y-48834814D01*
X129597203Y-48889999D01*
X129699992Y-48900500D01*
X129699996Y-48900500D01*
X132100004Y-48900500D01*
X132100008Y-48900500D01*
X132202797Y-48889999D01*
X132369334Y-48834814D01*
X132518655Y-48742711D01*
X132642711Y-48618655D01*
X132734814Y-48469334D01*
X132789999Y-48302797D01*
X132800500Y-48200008D01*
X132800500Y-45799992D01*
X132789999Y-45697203D01*
X132734814Y-45530666D01*
X132642711Y-45381345D01*
X132518655Y-45257289D01*
X132369334Y-45165186D01*
X132285332Y-45137350D01*
X132202798Y-45110001D01*
X132202799Y-45110001D01*
X132168534Y-45106500D01*
X132100008Y-45099500D01*
X129699992Y-45099500D01*
X129631466Y-45106500D01*
X129597201Y-45110001D01*
X129430663Y-45165187D01*
X129281344Y-45257289D01*
X129157289Y-45381344D01*
X129065187Y-45530663D01*
X129010001Y-45697201D01*
X129010001Y-45697203D01*
X128999500Y-45799992D01*
X109513424Y-45799992D01*
X109756565Y-45767982D01*
X109997207Y-45703502D01*
X110227373Y-45608164D01*
X110443127Y-45483599D01*
X110640776Y-45331938D01*
X110816938Y-45155776D01*
X110968599Y-44958127D01*
X111093164Y-44742373D01*
X111188502Y-44512207D01*
X111252982Y-44271565D01*
X111285500Y-44024565D01*
X111285500Y-43775435D01*
X111252982Y-43528435D01*
X111188502Y-43287793D01*
X111093164Y-43057627D01*
X111056197Y-42993599D01*
X111036236Y-42919100D01*
X111056198Y-42844600D01*
X111110736Y-42790062D01*
X111185236Y-42770100D01*
X128779248Y-42770100D01*
X128853748Y-42790062D01*
X128884607Y-42813741D01*
X129578149Y-43507284D01*
X129605714Y-43528435D01*
X129786198Y-43666923D01*
X129861899Y-43710629D01*
X130013295Y-43798039D01*
X130013298Y-43798040D01*
X130013303Y-43798043D01*
X130130866Y-43846739D01*
X130255572Y-43898395D01*
X130255576Y-43898396D01*
X130255581Y-43898398D01*
X130508884Y-43966271D01*
X130508890Y-43966271D01*
X130508891Y-43966272D01*
X130508899Y-43966273D01*
X130768880Y-44000499D01*
X131031119Y-44000499D01*
X131291115Y-43966271D01*
X131544419Y-43898398D01*
X131786697Y-43798043D01*
X132013802Y-43666923D01*
X132221851Y-43507283D01*
X132407283Y-43321851D01*
X132566923Y-43113802D01*
X132698043Y-42886697D01*
X132798398Y-42644419D01*
X132866271Y-42391115D01*
X132900499Y-42131119D01*
X132900499Y-41868880D01*
X132866271Y-41608884D01*
X132798398Y-41355581D01*
X132798396Y-41355576D01*
X132798395Y-41355572D01*
X132746739Y-41230866D01*
X132698043Y-41113303D01*
X132698040Y-41113298D01*
X132698039Y-41113295D01*
X132566925Y-40886202D01*
X132566923Y-40886198D01*
X132407283Y-40678148D01*
X130991451Y-39262317D01*
X130991448Y-39262314D01*
X130873731Y-39171988D01*
X130873730Y-39171987D01*
X130783406Y-39102678D01*
X130556301Y-38971559D01*
X130556299Y-38971558D01*
X130556297Y-38971557D01*
X130506124Y-38950775D01*
X130314027Y-38871204D01*
X130314023Y-38871203D01*
X130103951Y-38814914D01*
X130060716Y-38803329D01*
X130060714Y-38803328D01*
X130060708Y-38803327D01*
X129930719Y-38786215D01*
X129930718Y-38786214D01*
X129930718Y-38786215D01*
X129800723Y-38769100D01*
X129800720Y-38769100D01*
X90184280Y-38769100D01*
X90184276Y-38769100D01*
X90054282Y-38786215D01*
X90054280Y-38786215D01*
X89924291Y-38803327D01*
X89670976Y-38871203D01*
X89670972Y-38871204D01*
X89428698Y-38971559D01*
X89201594Y-39102677D01*
X89111267Y-39171988D01*
X88993549Y-39262317D01*
X88993547Y-39262318D01*
X87290359Y-40965507D01*
X87223564Y-41004071D01*
X87146436Y-41004071D01*
X87079641Y-40965507D01*
X85405148Y-39291014D01*
X85287431Y-39200688D01*
X85287430Y-39200687D01*
X85197106Y-39131378D01*
X85147394Y-39102677D01*
X85091701Y-39070523D01*
X84970001Y-39000259D01*
X84969999Y-39000258D01*
X84969997Y-39000257D01*
X84900714Y-38971559D01*
X84727727Y-38899904D01*
X84727723Y-38899903D01*
X84620610Y-38871202D01*
X84474416Y-38832029D01*
X84474414Y-38832028D01*
X84474408Y-38832027D01*
X84344419Y-38814915D01*
X84344418Y-38814914D01*
X84344418Y-38814915D01*
X84214423Y-38797800D01*
X84214420Y-38797800D01*
X45655580Y-38797800D01*
X45655576Y-38797800D01*
X45525582Y-38814915D01*
X45525580Y-38814915D01*
X45395591Y-38832027D01*
X45142276Y-38899903D01*
X45142272Y-38899904D01*
X44899998Y-39000259D01*
X44672894Y-39131377D01*
X44540029Y-39233327D01*
X44540030Y-39233328D01*
X44464845Y-39291020D01*
X41177718Y-42578147D01*
X41018075Y-42786199D01*
X40886959Y-43013298D01*
X40786604Y-43255572D01*
X40786603Y-43255576D01*
X40718727Y-43508891D01*
X40684501Y-43768874D01*
X5500000Y-43768874D01*
X5500000Y-31878706D01*
X47149500Y-31878706D01*
X47149500Y-32121293D01*
X47181160Y-32361781D01*
X47181161Y-32361787D01*
X47181162Y-32361789D01*
X47243946Y-32596100D01*
X47336776Y-32820212D01*
X47458064Y-33030289D01*
X47605735Y-33222738D01*
X47777262Y-33394265D01*
X47969711Y-33541936D01*
X48179788Y-33663224D01*
X48403900Y-33756054D01*
X48638211Y-33818838D01*
X48638217Y-33818838D01*
X48638218Y-33818839D01*
X48688891Y-33825510D01*
X48878712Y-33850500D01*
X49121288Y-33850500D01*
X49361789Y-33818838D01*
X49596100Y-33756054D01*
X49820212Y-33663224D01*
X50030289Y-33541936D01*
X50222738Y-33394265D01*
X50394265Y-33222738D01*
X50541936Y-33030289D01*
X50663224Y-32820212D01*
X50756054Y-32596100D01*
X50818838Y-32361789D01*
X50850500Y-32121288D01*
X50850500Y-31878712D01*
X50818838Y-31638211D01*
X50756054Y-31403900D01*
X50663224Y-31179788D01*
X50541936Y-30969711D01*
X50394265Y-30777262D01*
X50222738Y-30605735D01*
X50030289Y-30458064D01*
X49960263Y-30417634D01*
X49820216Y-30336778D01*
X49820214Y-30336777D01*
X49820212Y-30336776D01*
X49688932Y-30282398D01*
X49596103Y-30243947D01*
X49596101Y-30243946D01*
X49596100Y-30243946D01*
X49361789Y-30181162D01*
X49361787Y-30181161D01*
X49361781Y-30181160D01*
X49121293Y-30149500D01*
X49121288Y-30149500D01*
X48878712Y-30149500D01*
X48878706Y-30149500D01*
X48638218Y-30181160D01*
X48403896Y-30243947D01*
X48179783Y-30336778D01*
X47969712Y-30458063D01*
X47969711Y-30458064D01*
X47777262Y-30605735D01*
X47777260Y-30605736D01*
X47777256Y-30605740D01*
X47605740Y-30777256D01*
X47458063Y-30969712D01*
X47336778Y-31179783D01*
X47243947Y-31403896D01*
X47181160Y-31638218D01*
X47149500Y-31878706D01*
X5500000Y-31878706D01*
X5500000Y-23893713D01*
X51089500Y-23893713D01*
X51089500Y-24106287D01*
X51122754Y-24316243D01*
X51188443Y-24518412D01*
X51284949Y-24707816D01*
X51409896Y-24879792D01*
X51560208Y-25030104D01*
X51732184Y-25155051D01*
X51921588Y-25251557D01*
X52123757Y-25317246D01*
X52333713Y-25350500D01*
X52333718Y-25350500D01*
X52546282Y-25350500D01*
X52546287Y-25350500D01*
X52756243Y-25317246D01*
X52958412Y-25251557D01*
X53147816Y-25155051D01*
X53319792Y-25030104D01*
X53470104Y-24879792D01*
X53589456Y-24715517D01*
X53649396Y-24666979D01*
X53725574Y-24654913D01*
X53797580Y-24682553D01*
X53830544Y-24715517D01*
X53949896Y-24879792D01*
X54100208Y-25030104D01*
X54272184Y-25155051D01*
X54461588Y-25251557D01*
X54663757Y-25317246D01*
X54873713Y-25350500D01*
X54873718Y-25350500D01*
X55086282Y-25350500D01*
X55086287Y-25350500D01*
X55296243Y-25317246D01*
X55498412Y-25251557D01*
X55687816Y-25155051D01*
X55859792Y-25030104D01*
X56010104Y-24879792D01*
X56129456Y-24715517D01*
X56189396Y-24666979D01*
X56265574Y-24654913D01*
X56337580Y-24682553D01*
X56370544Y-24715517D01*
X56489896Y-24879792D01*
X56640208Y-25030104D01*
X56812184Y-25155051D01*
X57001588Y-25251557D01*
X57203757Y-25317246D01*
X57413713Y-25350500D01*
X57413718Y-25350500D01*
X57626282Y-25350500D01*
X57626287Y-25350500D01*
X57836243Y-25317246D01*
X58038412Y-25251557D01*
X58227816Y-25155051D01*
X58399792Y-25030104D01*
X58550104Y-24879792D01*
X58669456Y-24715517D01*
X58729396Y-24666979D01*
X58805574Y-24654913D01*
X58877580Y-24682553D01*
X58910544Y-24715517D01*
X59029896Y-24879792D01*
X59180208Y-25030104D01*
X59352184Y-25155051D01*
X59541588Y-25251557D01*
X59743757Y-25317246D01*
X59953713Y-25350500D01*
X59953718Y-25350500D01*
X60166282Y-25350500D01*
X60166287Y-25350500D01*
X60376243Y-25317246D01*
X60578412Y-25251557D01*
X60767816Y-25155051D01*
X60939792Y-25030104D01*
X61090104Y-24879792D01*
X61209456Y-24715517D01*
X61269396Y-24666979D01*
X61345574Y-24654913D01*
X61417580Y-24682553D01*
X61450544Y-24715517D01*
X61569896Y-24879792D01*
X61720208Y-25030104D01*
X61892184Y-25155051D01*
X62081588Y-25251557D01*
X62283757Y-25317246D01*
X62493713Y-25350500D01*
X62493718Y-25350500D01*
X62706282Y-25350500D01*
X62706287Y-25350500D01*
X62916243Y-25317246D01*
X63118412Y-25251557D01*
X63307816Y-25155051D01*
X63479792Y-25030104D01*
X63630104Y-24879792D01*
X63749456Y-24715517D01*
X63809396Y-24666979D01*
X63885574Y-24654913D01*
X63957580Y-24682553D01*
X63990544Y-24715517D01*
X64109896Y-24879792D01*
X64260208Y-25030104D01*
X64432184Y-25155051D01*
X64621588Y-25251557D01*
X64823757Y-25317246D01*
X65033713Y-25350500D01*
X65033718Y-25350500D01*
X65246282Y-25350500D01*
X65246287Y-25350500D01*
X65456243Y-25317246D01*
X65658412Y-25251557D01*
X65847816Y-25155051D01*
X66019792Y-25030104D01*
X66170104Y-24879792D01*
X66289456Y-24715517D01*
X66349396Y-24666979D01*
X66425574Y-24654913D01*
X66497580Y-24682553D01*
X66530544Y-24715517D01*
X66649896Y-24879792D01*
X66800208Y-25030104D01*
X66972184Y-25155051D01*
X67161588Y-25251557D01*
X67363757Y-25317246D01*
X67573713Y-25350500D01*
X67573718Y-25350500D01*
X67786282Y-25350500D01*
X67786287Y-25350500D01*
X67996243Y-25317246D01*
X68198412Y-25251557D01*
X68387816Y-25155051D01*
X68559792Y-25030104D01*
X68710104Y-24879792D01*
X68829456Y-24715517D01*
X68889396Y-24666979D01*
X68965574Y-24654913D01*
X69037580Y-24682553D01*
X69070544Y-24715517D01*
X69189896Y-24879792D01*
X69340208Y-25030104D01*
X69512184Y-25155051D01*
X69701588Y-25251557D01*
X69903757Y-25317246D01*
X70088295Y-25346474D01*
X70158753Y-25377844D01*
X70204088Y-25440242D01*
X70212151Y-25516947D01*
X70180780Y-25587407D01*
X70170344Y-25598998D01*
X68200184Y-27569159D01*
X68133389Y-27607723D01*
X68094825Y-27612800D01*
X67958889Y-27612800D01*
X67901870Y-27601458D01*
X67762098Y-27543563D01*
X67762094Y-27543562D01*
X67607442Y-27512800D01*
X67449758Y-27512800D01*
X67295105Y-27543562D01*
X67295101Y-27543563D01*
X67149423Y-27603904D01*
X67018307Y-27691514D01*
X66906814Y-27803007D01*
X66819204Y-27934123D01*
X66758863Y-28079801D01*
X66758862Y-28079805D01*
X66728100Y-28234457D01*
X66728100Y-28392142D01*
X66758862Y-28546794D01*
X66758863Y-28546798D01*
X66819204Y-28692476D01*
X66819205Y-28692478D01*
X66819206Y-28692479D01*
X66906811Y-28823589D01*
X67018311Y-28935089D01*
X67149421Y-29022694D01*
X67295103Y-29083037D01*
X67449758Y-29113800D01*
X67607442Y-29113800D01*
X67762097Y-29083037D01*
X67842644Y-29049673D01*
X67901870Y-29025142D01*
X67958889Y-29013800D01*
X68515690Y-29013800D01*
X68515694Y-29013800D01*
X68651028Y-28986880D01*
X68738071Y-28950825D01*
X68778502Y-28934079D01*
X68778503Y-28934078D01*
X68778511Y-28934075D01*
X68893243Y-28857414D01*
X72381143Y-25369511D01*
X72447936Y-25330949D01*
X72509806Y-25327707D01*
X72653713Y-25350500D01*
X72866282Y-25350500D01*
X72866287Y-25350500D01*
X73076243Y-25317246D01*
X73278412Y-25251557D01*
X73467816Y-25155051D01*
X73639792Y-25030104D01*
X73790104Y-24879792D01*
X73909456Y-24715517D01*
X73969396Y-24666979D01*
X74045574Y-24654913D01*
X74117580Y-24682553D01*
X74150544Y-24715517D01*
X74269896Y-24879792D01*
X74420208Y-25030104D01*
X74592184Y-25155051D01*
X74781588Y-25251557D01*
X74983757Y-25317246D01*
X75168294Y-25346474D01*
X75238752Y-25377844D01*
X75284087Y-25440242D01*
X75292150Y-25516947D01*
X75260779Y-25587407D01*
X75250343Y-25598998D01*
X68312084Y-32537259D01*
X68245289Y-32575823D01*
X68206725Y-32580900D01*
X67182889Y-32580900D01*
X67125870Y-32569558D01*
X66986098Y-32511663D01*
X66986094Y-32511662D01*
X66831442Y-32480900D01*
X66673758Y-32480900D01*
X66519105Y-32511662D01*
X66519101Y-32511663D01*
X66373423Y-32572004D01*
X66242307Y-32659614D01*
X66130814Y-32771107D01*
X66043204Y-32902223D01*
X65982863Y-33047901D01*
X65982862Y-33047905D01*
X65952100Y-33202557D01*
X65952100Y-33360242D01*
X65982862Y-33514894D01*
X65982863Y-33514898D01*
X66043204Y-33660576D01*
X66043205Y-33660578D01*
X66043206Y-33660579D01*
X66130811Y-33791689D01*
X66242311Y-33903189D01*
X66373421Y-33990794D01*
X66519103Y-34051137D01*
X66673758Y-34081900D01*
X66831442Y-34081900D01*
X66986097Y-34051137D01*
X67066644Y-34017773D01*
X67125870Y-33993242D01*
X67182889Y-33981900D01*
X68627590Y-33981900D01*
X68627594Y-33981900D01*
X68762928Y-33954980D01*
X68849971Y-33918925D01*
X68890402Y-33902179D01*
X68890403Y-33902178D01*
X68890411Y-33902175D01*
X69005143Y-33825514D01*
X70951951Y-31878706D01*
X97149500Y-31878706D01*
X97149500Y-32121293D01*
X97181160Y-32361781D01*
X97181161Y-32361787D01*
X97181162Y-32361789D01*
X97243946Y-32596100D01*
X97336776Y-32820212D01*
X97458064Y-33030289D01*
X97605735Y-33222738D01*
X97777262Y-33394265D01*
X97969711Y-33541936D01*
X98179788Y-33663224D01*
X98403900Y-33756054D01*
X98638211Y-33818838D01*
X98638217Y-33818838D01*
X98638218Y-33818839D01*
X98688891Y-33825510D01*
X98878712Y-33850500D01*
X99121288Y-33850500D01*
X99361789Y-33818838D01*
X99596100Y-33756054D01*
X99820212Y-33663224D01*
X100030289Y-33541936D01*
X100222738Y-33394265D01*
X100394265Y-33222738D01*
X100541936Y-33030289D01*
X100663224Y-32820212D01*
X100756054Y-32596100D01*
X100818838Y-32361789D01*
X100850500Y-32121288D01*
X100850500Y-31878712D01*
X100818838Y-31638211D01*
X100756054Y-31403900D01*
X100663224Y-31179788D01*
X100541936Y-30969711D01*
X100394265Y-30777262D01*
X100222738Y-30605735D01*
X100030289Y-30458064D01*
X99960263Y-30417634D01*
X99820216Y-30336778D01*
X99820214Y-30336777D01*
X99820212Y-30336776D01*
X99688932Y-30282398D01*
X99596103Y-30243947D01*
X99596101Y-30243946D01*
X99596100Y-30243946D01*
X99361789Y-30181162D01*
X99361787Y-30181161D01*
X99361781Y-30181160D01*
X99121293Y-30149500D01*
X99121288Y-30149500D01*
X98878712Y-30149500D01*
X98878706Y-30149500D01*
X98638218Y-30181160D01*
X98403896Y-30243947D01*
X98179783Y-30336778D01*
X97969712Y-30458063D01*
X97969711Y-30458064D01*
X97777262Y-30605735D01*
X97777260Y-30605736D01*
X97777256Y-30605740D01*
X97605740Y-30777256D01*
X97458063Y-30969712D01*
X97336778Y-31179783D01*
X97243947Y-31403896D01*
X97181160Y-31638218D01*
X97149500Y-31878706D01*
X70951951Y-31878706D01*
X77461143Y-25369512D01*
X77527936Y-25330950D01*
X77589805Y-25327707D01*
X77733713Y-25350500D01*
X77733718Y-25350500D01*
X77946282Y-25350500D01*
X77946287Y-25350500D01*
X78156243Y-25317246D01*
X78358412Y-25251557D01*
X78547816Y-25155051D01*
X78719792Y-25030104D01*
X78870104Y-24879792D01*
X78989456Y-24715517D01*
X79049396Y-24666979D01*
X79125574Y-24654913D01*
X79197580Y-24682553D01*
X79230544Y-24715517D01*
X79349896Y-24879792D01*
X79500208Y-25030104D01*
X79672184Y-25155051D01*
X79861588Y-25251557D01*
X80063757Y-25317246D01*
X80273713Y-25350500D01*
X80273718Y-25350500D01*
X80486282Y-25350500D01*
X80486287Y-25350500D01*
X80696243Y-25317246D01*
X80898412Y-25251557D01*
X81087816Y-25155051D01*
X81259792Y-25030104D01*
X81410104Y-24879792D01*
X81529456Y-24715517D01*
X81589396Y-24666979D01*
X81665574Y-24654913D01*
X81737580Y-24682553D01*
X81770544Y-24715517D01*
X81889896Y-24879792D01*
X82040208Y-25030104D01*
X82212184Y-25155051D01*
X82401588Y-25251557D01*
X82603757Y-25317246D01*
X82813713Y-25350500D01*
X82813718Y-25350500D01*
X83026282Y-25350500D01*
X83026287Y-25350500D01*
X83236243Y-25317246D01*
X83438412Y-25251557D01*
X83627816Y-25155051D01*
X83799792Y-25030104D01*
X83950104Y-24879792D01*
X84069456Y-24715517D01*
X84129396Y-24666979D01*
X84205574Y-24654913D01*
X84277580Y-24682553D01*
X84310544Y-24715517D01*
X84429896Y-24879792D01*
X84580208Y-25030104D01*
X84752184Y-25155051D01*
X84941588Y-25251557D01*
X85143757Y-25317246D01*
X85353713Y-25350500D01*
X85353718Y-25350500D01*
X85566282Y-25350500D01*
X85566287Y-25350500D01*
X85776243Y-25317246D01*
X85978412Y-25251557D01*
X86167816Y-25155051D01*
X86339792Y-25030104D01*
X86490104Y-24879792D01*
X86609456Y-24715517D01*
X86669396Y-24666979D01*
X86745574Y-24654913D01*
X86817580Y-24682553D01*
X86850544Y-24715517D01*
X86969896Y-24879792D01*
X87120208Y-25030104D01*
X87292184Y-25155051D01*
X87481588Y-25251557D01*
X87683757Y-25317246D01*
X87893713Y-25350500D01*
X87893718Y-25350500D01*
X88106282Y-25350500D01*
X88106287Y-25350500D01*
X88316243Y-25317246D01*
X88518412Y-25251557D01*
X88707816Y-25155051D01*
X88879792Y-25030104D01*
X89030104Y-24879792D01*
X89149456Y-24715517D01*
X89209396Y-24666979D01*
X89285574Y-24654913D01*
X89357580Y-24682553D01*
X89390544Y-24715517D01*
X89509896Y-24879792D01*
X89660208Y-25030104D01*
X89832184Y-25155051D01*
X90021588Y-25251557D01*
X90223757Y-25317246D01*
X90433713Y-25350500D01*
X90433718Y-25350500D01*
X90646282Y-25350500D01*
X90646287Y-25350500D01*
X90856243Y-25317246D01*
X91058412Y-25251557D01*
X91247816Y-25155051D01*
X91419792Y-25030104D01*
X91570104Y-24879792D01*
X91689456Y-24715517D01*
X91749396Y-24666979D01*
X91825574Y-24654913D01*
X91897580Y-24682553D01*
X91930544Y-24715517D01*
X92049896Y-24879792D01*
X92200208Y-25030104D01*
X92372184Y-25155051D01*
X92561588Y-25251557D01*
X92763757Y-25317246D01*
X92973713Y-25350500D01*
X92973718Y-25350500D01*
X93186282Y-25350500D01*
X93186287Y-25350500D01*
X93396243Y-25317246D01*
X93598412Y-25251557D01*
X93787816Y-25155051D01*
X93959792Y-25030104D01*
X94110104Y-24879792D01*
X94229456Y-24715517D01*
X94289396Y-24666979D01*
X94365574Y-24654913D01*
X94437580Y-24682553D01*
X94470544Y-24715517D01*
X94589896Y-24879792D01*
X94740208Y-25030104D01*
X94912184Y-25155051D01*
X95101588Y-25251557D01*
X95303757Y-25317246D01*
X95513713Y-25350500D01*
X95513718Y-25350500D01*
X95726282Y-25350500D01*
X95726287Y-25350500D01*
X95936243Y-25317246D01*
X96138412Y-25251557D01*
X96327816Y-25155051D01*
X96499792Y-25030104D01*
X96585819Y-24944077D01*
X96652613Y-24905512D01*
X96729741Y-24905512D01*
X96796536Y-24944076D01*
X96830784Y-24997366D01*
X96866202Y-25092329D01*
X96866204Y-25092333D01*
X96952452Y-25207544D01*
X96952455Y-25207547D01*
X97067666Y-25293795D01*
X97067670Y-25293797D01*
X97202517Y-25344091D01*
X97262114Y-25350499D01*
X97262118Y-25350499D01*
X97262127Y-25350500D01*
X99057872Y-25350499D01*
X99117483Y-25344091D01*
X99213447Y-25308298D01*
X99252329Y-25293797D01*
X99252333Y-25293795D01*
X99309938Y-25250671D01*
X99367546Y-25207546D01*
X99453796Y-25092331D01*
X99504091Y-24957483D01*
X99510500Y-24897873D01*
X99510499Y-23102128D01*
X99504091Y-23042517D01*
X99477005Y-22969895D01*
X99453797Y-22907670D01*
X99453795Y-22907666D01*
X99367547Y-22792455D01*
X99367544Y-22792452D01*
X99252333Y-22706204D01*
X99252329Y-22706202D01*
X99117482Y-22655908D01*
X99057876Y-22649500D01*
X97262136Y-22649500D01*
X97262111Y-22649502D01*
X97202521Y-22655908D01*
X97202515Y-22655909D01*
X97067670Y-22706202D01*
X97067666Y-22706204D01*
X96952455Y-22792452D01*
X96952452Y-22792455D01*
X96866204Y-22907666D01*
X96866203Y-22907668D01*
X96830784Y-23002634D01*
X96786045Y-23065461D01*
X96715887Y-23097501D01*
X96639108Y-23090170D01*
X96585819Y-23055923D01*
X96499793Y-22969897D01*
X96499792Y-22969896D01*
X96327816Y-22844949D01*
X96138412Y-22748443D01*
X95936243Y-22682754D01*
X95726287Y-22649500D01*
X95513713Y-22649500D01*
X95338749Y-22677211D01*
X95303756Y-22682754D01*
X95101594Y-22748441D01*
X95101588Y-22748443D01*
X95101582Y-22748445D01*
X95101582Y-22748446D01*
X94912182Y-22844950D01*
X94912181Y-22844950D01*
X94740209Y-22969895D01*
X94740206Y-22969897D01*
X94589897Y-23120206D01*
X94589895Y-23120209D01*
X94470544Y-23284482D01*
X94410604Y-23333020D01*
X94334425Y-23345086D01*
X94262420Y-23317446D01*
X94229456Y-23284482D01*
X94167236Y-23198844D01*
X94110104Y-23120208D01*
X93959792Y-22969896D01*
X93787816Y-22844949D01*
X93598412Y-22748443D01*
X93396243Y-22682754D01*
X93186287Y-22649500D01*
X92973713Y-22649500D01*
X92798749Y-22677211D01*
X92763756Y-22682754D01*
X92561594Y-22748441D01*
X92561588Y-22748443D01*
X92561582Y-22748445D01*
X92561582Y-22748446D01*
X92372182Y-22844950D01*
X92372181Y-22844950D01*
X92200209Y-22969895D01*
X92200206Y-22969897D01*
X92049897Y-23120206D01*
X92049895Y-23120209D01*
X91930544Y-23284482D01*
X91870604Y-23333020D01*
X91794425Y-23345086D01*
X91722420Y-23317446D01*
X91689456Y-23284482D01*
X91627236Y-23198844D01*
X91570104Y-23120208D01*
X91419792Y-22969896D01*
X91247816Y-22844949D01*
X91058412Y-22748443D01*
X90856243Y-22682754D01*
X90646287Y-22649500D01*
X90433713Y-22649500D01*
X90258749Y-22677211D01*
X90223756Y-22682754D01*
X90021594Y-22748441D01*
X90021588Y-22748443D01*
X90021582Y-22748445D01*
X90021582Y-22748446D01*
X89832182Y-22844950D01*
X89832181Y-22844950D01*
X89660209Y-22969895D01*
X89660206Y-22969897D01*
X89509897Y-23120206D01*
X89509895Y-23120209D01*
X89390544Y-23284482D01*
X89330604Y-23333020D01*
X89254425Y-23345086D01*
X89182420Y-23317446D01*
X89149456Y-23284482D01*
X89087236Y-23198844D01*
X89030104Y-23120208D01*
X88879792Y-22969896D01*
X88707816Y-22844949D01*
X88518412Y-22748443D01*
X88316243Y-22682754D01*
X88106287Y-22649500D01*
X87893713Y-22649500D01*
X87718749Y-22677211D01*
X87683756Y-22682754D01*
X87481594Y-22748441D01*
X87481588Y-22748443D01*
X87481582Y-22748445D01*
X87481582Y-22748446D01*
X87292182Y-22844950D01*
X87292181Y-22844950D01*
X87120209Y-22969895D01*
X87120206Y-22969897D01*
X86969897Y-23120206D01*
X86969895Y-23120209D01*
X86850544Y-23284482D01*
X86790604Y-23333020D01*
X86714425Y-23345086D01*
X86642420Y-23317446D01*
X86609456Y-23284482D01*
X86547236Y-23198844D01*
X86490104Y-23120208D01*
X86339792Y-22969896D01*
X86167816Y-22844949D01*
X85978412Y-22748443D01*
X85776243Y-22682754D01*
X85566287Y-22649500D01*
X85353713Y-22649500D01*
X85178749Y-22677211D01*
X85143756Y-22682754D01*
X84941594Y-22748441D01*
X84941588Y-22748443D01*
X84941582Y-22748445D01*
X84941582Y-22748446D01*
X84752182Y-22844950D01*
X84752181Y-22844950D01*
X84580209Y-22969895D01*
X84580206Y-22969897D01*
X84429897Y-23120206D01*
X84429895Y-23120209D01*
X84310544Y-23284482D01*
X84250604Y-23333020D01*
X84174425Y-23345086D01*
X84102420Y-23317446D01*
X84069456Y-23284482D01*
X84007236Y-23198844D01*
X83950104Y-23120208D01*
X83799792Y-22969896D01*
X83627816Y-22844949D01*
X83438412Y-22748443D01*
X83236243Y-22682754D01*
X83026287Y-22649500D01*
X82813713Y-22649500D01*
X82638749Y-22677211D01*
X82603756Y-22682754D01*
X82401594Y-22748441D01*
X82401588Y-22748443D01*
X82401582Y-22748445D01*
X82401582Y-22748446D01*
X82212182Y-22844950D01*
X82212181Y-22844950D01*
X82040209Y-22969895D01*
X82040206Y-22969897D01*
X81889897Y-23120206D01*
X81889895Y-23120209D01*
X81770544Y-23284482D01*
X81710604Y-23333020D01*
X81634425Y-23345086D01*
X81562420Y-23317446D01*
X81529456Y-23284482D01*
X81467236Y-23198844D01*
X81410104Y-23120208D01*
X81259792Y-22969896D01*
X81087816Y-22844949D01*
X80898412Y-22748443D01*
X80696243Y-22682754D01*
X80486287Y-22649500D01*
X80273713Y-22649500D01*
X80098749Y-22677211D01*
X80063756Y-22682754D01*
X79861594Y-22748441D01*
X79861588Y-22748443D01*
X79861582Y-22748445D01*
X79861582Y-22748446D01*
X79672182Y-22844950D01*
X79672181Y-22844950D01*
X79500209Y-22969895D01*
X79500206Y-22969897D01*
X79349897Y-23120206D01*
X79349895Y-23120209D01*
X79230544Y-23284482D01*
X79170604Y-23333020D01*
X79094425Y-23345086D01*
X79022420Y-23317446D01*
X78989456Y-23284482D01*
X78927236Y-23198844D01*
X78870104Y-23120208D01*
X78719792Y-22969896D01*
X78547816Y-22844949D01*
X78358412Y-22748443D01*
X78156243Y-22682754D01*
X77946287Y-22649500D01*
X77733713Y-22649500D01*
X77558749Y-22677211D01*
X77523756Y-22682754D01*
X77321594Y-22748441D01*
X77321588Y-22748443D01*
X77321582Y-22748445D01*
X77321582Y-22748446D01*
X77132182Y-22844950D01*
X77132181Y-22844950D01*
X76960209Y-22969895D01*
X76960206Y-22969897D01*
X76809897Y-23120206D01*
X76809895Y-23120209D01*
X76690544Y-23284482D01*
X76630604Y-23333020D01*
X76554425Y-23345086D01*
X76482420Y-23317446D01*
X76449456Y-23284482D01*
X76387236Y-23198844D01*
X76330104Y-23120208D01*
X76179792Y-22969896D01*
X76007816Y-22844949D01*
X75818412Y-22748443D01*
X75616243Y-22682754D01*
X75406287Y-22649500D01*
X75193713Y-22649500D01*
X75018749Y-22677211D01*
X74983756Y-22682754D01*
X74781594Y-22748441D01*
X74781588Y-22748443D01*
X74781582Y-22748445D01*
X74781582Y-22748446D01*
X74592182Y-22844950D01*
X74592181Y-22844950D01*
X74420209Y-22969895D01*
X74420206Y-22969897D01*
X74269897Y-23120206D01*
X74269895Y-23120209D01*
X74150544Y-23284482D01*
X74090604Y-23333020D01*
X74014425Y-23345086D01*
X73942420Y-23317446D01*
X73909456Y-23284482D01*
X73847236Y-23198844D01*
X73790104Y-23120208D01*
X73639792Y-22969896D01*
X73467816Y-22844949D01*
X73278412Y-22748443D01*
X73076243Y-22682754D01*
X72866287Y-22649500D01*
X72653713Y-22649500D01*
X72478749Y-22677211D01*
X72443756Y-22682754D01*
X72241594Y-22748441D01*
X72241588Y-22748443D01*
X72241582Y-22748445D01*
X72241582Y-22748446D01*
X72052182Y-22844950D01*
X72052181Y-22844950D01*
X71880209Y-22969895D01*
X71880206Y-22969897D01*
X71729897Y-23120206D01*
X71729895Y-23120209D01*
X71610544Y-23284482D01*
X71550604Y-23333020D01*
X71474425Y-23345086D01*
X71402420Y-23317446D01*
X71369456Y-23284482D01*
X71307236Y-23198844D01*
X71250104Y-23120208D01*
X71099792Y-22969896D01*
X70927816Y-22844949D01*
X70738412Y-22748443D01*
X70536243Y-22682754D01*
X70326287Y-22649500D01*
X70113713Y-22649500D01*
X69938749Y-22677211D01*
X69903756Y-22682754D01*
X69701594Y-22748441D01*
X69701588Y-22748443D01*
X69701582Y-22748445D01*
X69701582Y-22748446D01*
X69512182Y-22844950D01*
X69512181Y-22844950D01*
X69340209Y-22969895D01*
X69340206Y-22969897D01*
X69189897Y-23120206D01*
X69189895Y-23120209D01*
X69070544Y-23284482D01*
X69010604Y-23333020D01*
X68934425Y-23345086D01*
X68862420Y-23317446D01*
X68829456Y-23284482D01*
X68767236Y-23198844D01*
X68710104Y-23120208D01*
X68559792Y-22969896D01*
X68387816Y-22844949D01*
X68198412Y-22748443D01*
X67996243Y-22682754D01*
X67786287Y-22649500D01*
X67573713Y-22649500D01*
X67398749Y-22677211D01*
X67363756Y-22682754D01*
X67161594Y-22748441D01*
X67161588Y-22748443D01*
X67161582Y-22748445D01*
X67161582Y-22748446D01*
X66972182Y-22844950D01*
X66972181Y-22844950D01*
X66800209Y-22969895D01*
X66800206Y-22969897D01*
X66649897Y-23120206D01*
X66649895Y-23120209D01*
X66530544Y-23284482D01*
X66470604Y-23333020D01*
X66394425Y-23345086D01*
X66322420Y-23317446D01*
X66289456Y-23284482D01*
X66227236Y-23198844D01*
X66170104Y-23120208D01*
X66019792Y-22969896D01*
X65847816Y-22844949D01*
X65658412Y-22748443D01*
X65456243Y-22682754D01*
X65246287Y-22649500D01*
X65033713Y-22649500D01*
X64858749Y-22677211D01*
X64823756Y-22682754D01*
X64621594Y-22748441D01*
X64621588Y-22748443D01*
X64621582Y-22748445D01*
X64621582Y-22748446D01*
X64432182Y-22844950D01*
X64432181Y-22844950D01*
X64260209Y-22969895D01*
X64260206Y-22969897D01*
X64109897Y-23120206D01*
X64109895Y-23120209D01*
X63990544Y-23284482D01*
X63930604Y-23333020D01*
X63854425Y-23345086D01*
X63782420Y-23317446D01*
X63749456Y-23284482D01*
X63687236Y-23198844D01*
X63630104Y-23120208D01*
X63479792Y-22969896D01*
X63307816Y-22844949D01*
X63118412Y-22748443D01*
X62916243Y-22682754D01*
X62706287Y-22649500D01*
X62493713Y-22649500D01*
X62318749Y-22677211D01*
X62283756Y-22682754D01*
X62081594Y-22748441D01*
X62081588Y-22748443D01*
X62081582Y-22748445D01*
X62081582Y-22748446D01*
X61892182Y-22844950D01*
X61892181Y-22844950D01*
X61720209Y-22969895D01*
X61720206Y-22969897D01*
X61569897Y-23120206D01*
X61569895Y-23120209D01*
X61450544Y-23284482D01*
X61390604Y-23333020D01*
X61314425Y-23345086D01*
X61242420Y-23317446D01*
X61209456Y-23284482D01*
X61147236Y-23198844D01*
X61090104Y-23120208D01*
X60939792Y-22969896D01*
X60767816Y-22844949D01*
X60578412Y-22748443D01*
X60376243Y-22682754D01*
X60166287Y-22649500D01*
X59953713Y-22649500D01*
X59778749Y-22677211D01*
X59743756Y-22682754D01*
X59541594Y-22748441D01*
X59541588Y-22748443D01*
X59541582Y-22748445D01*
X59541582Y-22748446D01*
X59352182Y-22844950D01*
X59352181Y-22844950D01*
X59180209Y-22969895D01*
X59180206Y-22969897D01*
X59029897Y-23120206D01*
X59029895Y-23120209D01*
X58910544Y-23284482D01*
X58850604Y-23333020D01*
X58774425Y-23345086D01*
X58702420Y-23317446D01*
X58669456Y-23284482D01*
X58607236Y-23198844D01*
X58550104Y-23120208D01*
X58399792Y-22969896D01*
X58227816Y-22844949D01*
X58038412Y-22748443D01*
X57836243Y-22682754D01*
X57626287Y-22649500D01*
X57413713Y-22649500D01*
X57238749Y-22677211D01*
X57203756Y-22682754D01*
X57001594Y-22748441D01*
X57001588Y-22748443D01*
X57001582Y-22748445D01*
X57001582Y-22748446D01*
X56812182Y-22844950D01*
X56812181Y-22844950D01*
X56640209Y-22969895D01*
X56640206Y-22969897D01*
X56489897Y-23120206D01*
X56489895Y-23120209D01*
X56370544Y-23284482D01*
X56310604Y-23333020D01*
X56234425Y-23345086D01*
X56162420Y-23317446D01*
X56129456Y-23284482D01*
X56067236Y-23198844D01*
X56010104Y-23120208D01*
X55859792Y-22969896D01*
X55687816Y-22844949D01*
X55498412Y-22748443D01*
X55296243Y-22682754D01*
X55086287Y-22649500D01*
X54873713Y-22649500D01*
X54698749Y-22677211D01*
X54663756Y-22682754D01*
X54461594Y-22748441D01*
X54461588Y-22748443D01*
X54461582Y-22748445D01*
X54461582Y-22748446D01*
X54272182Y-22844950D01*
X54272181Y-22844950D01*
X54100209Y-22969895D01*
X54100206Y-22969897D01*
X53949897Y-23120206D01*
X53949895Y-23120209D01*
X53830544Y-23284482D01*
X53770604Y-23333020D01*
X53694425Y-23345086D01*
X53622420Y-23317446D01*
X53589456Y-23284482D01*
X53527236Y-23198844D01*
X53470104Y-23120208D01*
X53319792Y-22969896D01*
X53147816Y-22844949D01*
X52958412Y-22748443D01*
X52756243Y-22682754D01*
X52546287Y-22649500D01*
X52333713Y-22649500D01*
X52158749Y-22677211D01*
X52123756Y-22682754D01*
X51921594Y-22748441D01*
X51921588Y-22748443D01*
X51921582Y-22748445D01*
X51921582Y-22748446D01*
X51732182Y-22844950D01*
X51732181Y-22844950D01*
X51560209Y-22969895D01*
X51560206Y-22969897D01*
X51409897Y-23120206D01*
X51409895Y-23120209D01*
X51284950Y-23292181D01*
X51284950Y-23292182D01*
X51284949Y-23292184D01*
X51188443Y-23481588D01*
X51122754Y-23683757D01*
X51089500Y-23893713D01*
X5500000Y-23893713D01*
X5500000Y-18548699D01*
X5504465Y-18512495D01*
X5544485Y-18352726D01*
X5548730Y-18338733D01*
X5600407Y-18194305D01*
X5732219Y-17825915D01*
X5737803Y-17812432D01*
X5970692Y-17320029D01*
X5977557Y-17307187D01*
X6257585Y-16839991D01*
X6265687Y-16827865D01*
X6590144Y-16390385D01*
X6599419Y-16379084D01*
X6965203Y-15975502D01*
X6975502Y-15965203D01*
X7379085Y-15599417D01*
X7390387Y-15590143D01*
X7412408Y-15573811D01*
X7827855Y-15265694D01*
X7840007Y-15257575D01*
X8307184Y-14977560D01*
X8320047Y-14970685D01*
X8812423Y-14737808D01*
X8825916Y-14732219D01*
X9338734Y-14548729D01*
X9352726Y-14544485D01*
X9512497Y-14504465D01*
X9548701Y-14500000D01*
X140451297Y-14500000D01*
X140487501Y-14504465D01*
G37*
%TD.AperFunction*%
%TD*%
M02*
