M48
; DRILL file KiCad 10.0.0 date 2026-03-30T21:08:37
; FORMAT={-:-/ absolute / metric / decimal}
; #@! TF.CreationDate,2026-03-30T21:08:37-04:00
; #@! TF.GenerationSoftware,Kicad,Pcbnew,10.0.0
; #@! TF.FileFunction,MixedPlating,1,2
FMAT,2
METRIC
; #@! TA.AperFunction,Plated,PTH,ViaDrill
T1C0.300
; #@! TA.AperFunction,Plated,PTH,ComponentDrill
T2C1.000
; #@! TA.AperFunction,Plated,PTH,ComponentDrill
T3C1.300
; #@! TA.AperFunction,Plated,PTH,ComponentDrill
T4C1.500
%
G90
G05
T1
X30.281Y-92.927
X135.165Y-127.568
T2
X15.0Y-60.0
X15.0Y-62.54
X15.0Y-65.08
X15.0Y-67.62
X15.0Y-70.16
X15.0Y-72.7
X15.0Y-75.24
X15.0Y-77.78
X15.0Y-80.0
X15.0Y-80.32
X15.0Y-82.54
X15.0Y-82.86
X15.0Y-85.08
X15.0Y-85.4
X24.0Y-53.68
X24.0Y-56.22
X24.0Y-58.76
X24.0Y-61.3
X24.0Y-65.68
X24.0Y-68.22
X24.0Y-70.76
X24.0Y-73.3
X24.0Y-77.68
X24.0Y-80.22
X24.0Y-82.76
X24.0Y-85.3
X24.0Y-89.68
X24.0Y-92.22
X24.0Y-94.76
X24.0Y-97.3
X24.0Y-101.68
X24.0Y-104.22
X24.0Y-106.76
X24.0Y-109.3
X28.61Y-32.582
X28.61Y-35.122
X28.61Y-37.663
X28.61Y-40.203
X28.61Y-42.742
X28.61Y-45.282
X28.61Y-47.822
X28.61Y-50.362
X28.61Y-52.902
X28.61Y-55.442
X28.61Y-57.982
X28.61Y-60.522
X28.61Y-63.062
X28.61Y-65.602
X28.61Y-68.142
X28.61Y-70.682
X28.61Y-73.222
X28.61Y-75.763
X28.61Y-78.302
X28.61Y-80.843
X31.0Y-132.0
X33.54Y-132.0
X36.08Y-132.0
X43.0Y-132.0
X45.54Y-132.0
X46.39Y-32.582
X46.39Y-35.122
X46.39Y-37.663
X46.39Y-40.203
X46.39Y-42.742
X46.39Y-45.282
X46.39Y-47.822
X46.39Y-50.362
X46.39Y-52.902
X46.39Y-55.442
X46.39Y-57.982
X46.39Y-60.522
X46.39Y-63.062
X46.39Y-65.602
X46.39Y-68.142
X46.39Y-70.682
X46.39Y-73.222
X46.39Y-75.763
X46.39Y-78.302
X46.39Y-80.843
X48.08Y-132.0
X51.9Y-89.58
X51.9Y-92.12
X51.9Y-94.66
X51.9Y-97.2
X55.0Y-132.0
X57.54Y-132.0
X60.08Y-132.0
X60.7Y-20.86
X60.7Y-23.4
X60.7Y-25.94
X60.7Y-28.48
X62.3Y-59.94
X62.3Y-62.48
X62.3Y-65.02
X62.3Y-67.56
X62.3Y-70.1
X62.3Y-72.64
X62.3Y-75.18
X62.3Y-77.72
X62.3Y-80.26
X67.0Y-132.0
X69.54Y-132.0
X72.08Y-132.0
X79.0Y-132.0
X81.54Y-132.0
X84.08Y-132.0
X90.0Y-140.8
X90.0Y-143.34
X91.0Y-132.0
X92.54Y-140.8
X92.54Y-143.34
X93.54Y-132.0
X95.08Y-140.8
X95.08Y-143.34
X96.08Y-132.0
X97.62Y-140.8
X97.62Y-143.34
X101.54Y-21.4
X103.0Y-132.0
X104.08Y-21.4
X104.08Y-21.4
X105.54Y-132.0
X106.62Y-21.4
X106.62Y-21.4
X106.62Y-21.4
X108.08Y-132.0
X109.16Y-21.4
X109.16Y-21.4
X109.16Y-21.4
X111.7Y-21.4
X111.7Y-21.4
X111.7Y-21.4
X114.24Y-21.4
X114.24Y-21.4
X114.24Y-21.4
X115.0Y-132.0
X116.78Y-21.4
X116.78Y-21.4
X116.78Y-21.4
X117.54Y-132.0
X119.32Y-21.4
X119.32Y-21.4
X119.32Y-21.4
X120.08Y-132.0
X121.86Y-21.4
X121.86Y-21.4
X121.86Y-21.4
X124.4Y-21.4
X124.4Y-21.4
X124.4Y-21.4
X126.94Y-21.4
X126.94Y-21.4
X126.94Y-21.4
X127.0Y-132.0
X129.48Y-21.4
X129.48Y-21.4
X129.48Y-21.4
X129.54Y-132.0
X132.02Y-21.4
X132.02Y-21.4
X132.02Y-21.4
X132.08Y-132.0
X134.56Y-21.4
X134.56Y-21.4
X134.56Y-21.4
X137.1Y-21.4
X137.1Y-21.4
X137.1Y-21.4
X139.0Y-132.0
X139.64Y-21.4
X139.64Y-21.4
X139.64Y-21.4
X141.54Y-132.0
X142.18Y-21.4
X142.18Y-21.4
X142.18Y-21.4
X144.08Y-132.0
X144.72Y-21.4
X144.72Y-21.4
X144.72Y-21.4
X147.26Y-21.4
X147.26Y-21.4
X147.26Y-21.4
X149.8Y-21.4
X149.8Y-21.4
X152.34Y-21.4
T3
X13.0Y-54.7
X13.0Y-59.7
X13.0Y-66.7
X13.0Y-71.7
X13.0Y-78.7
X13.0Y-83.7
X13.0Y-90.7
X13.0Y-95.7
X13.0Y-102.7
X13.0Y-107.7
X160.0Y-42.0
X160.0Y-47.0
X160.0Y-54.0
X160.0Y-59.0
X160.0Y-66.0
X160.0Y-71.0
X160.0Y-78.0
X160.0Y-83.0
X160.0Y-90.0
X160.0Y-95.0
X160.0Y-102.0
X160.0Y-107.0
T4
X76.9Y-42.6
X76.9Y-59.6
X76.9Y-76.6
X76.9Y-93.6
X76.9Y-110.6
X99.1Y-42.6
X99.1Y-59.6
X99.1Y-76.6
X99.1Y-93.6
X99.1Y-110.6
X121.4Y-42.6
X121.4Y-59.6
X121.4Y-76.6
X121.4Y-93.6
X121.4Y-110.6
X143.6Y-42.6
X143.6Y-59.6
X143.6Y-76.6
X143.6Y-93.6
X143.6Y-110.6
M30
