%TF.GenerationSoftware,KiCad,Pcbnew,10.0.0*%
%TF.CreationDate,2026-03-30T20:06:58-04:00*%
%TF.ProjectId,geodude-carrier,67656f64-7564-4652-9d63-617272696572,rev?*%
%TF.SameCoordinates,Original*%
%TF.FileFunction,Copper,L1,Top*%
%TF.FilePolarity,Positive*%
%FSLAX46Y46*%
G04 Gerber Fmt 4.6, Leading zero omitted, Abs format (unit mm)*
G04 Created by KiCad (PCBNEW 10.0.0) date 2026-03-30 20:06:58*
%MOMM*%
%LPD*%
G01*
G04 APERTURE LIST*
G04 Aperture macros list*
%AMRoundRect*
0 Rectangle with rounded corners*
0 $1 Rounding radius*
0 $2 $3 $4 $5 $6 $7 $8 $9 X,Y pos of 4 corners*
0 Add a 4 corners polygon primitive as box body*
4,1,4,$2,$3,$4,$5,$6,$7,$8,$9,$2,$3,0*
0 Add four circle primitives for the rounded corners*
1,1,$1+$1,$2,$3*
1,1,$1+$1,$4,$5*
1,1,$1+$1,$6,$7*
1,1,$1+$1,$8,$9*
0 Add four rect primitives between the rounded corners*
20,1,$1+$1,$2,$3,$4,$5,0*
20,1,$1+$1,$4,$5,$6,$7,0*
20,1,$1+$1,$6,$7,$8,$9,0*
20,1,$1+$1,$8,$9,$2,$3,0*%
G04 Aperture macros list end*
%TA.AperFunction,ComponentPad*%
%ADD10C,2.800000*%
%TD*%
%TA.AperFunction,ComponentPad*%
%ADD11R,1.700000X1.700000*%
%TD*%
%TA.AperFunction,ComponentPad*%
%ADD12C,1.700000*%
%TD*%
%TA.AperFunction,ComponentPad*%
%ADD13RoundRect,0.250001X1.149999X-1.149999X1.149999X1.149999X-1.149999X1.149999X-1.149999X-1.149999X0*%
%TD*%
%TA.AperFunction,ViaPad*%
%ADD14C,0.600000*%
%TD*%
%TA.AperFunction,Conductor*%
%ADD15C,3.000000*%
%TD*%
%TA.AperFunction,Conductor*%
%ADD16C,0.400000*%
%TD*%
%TA.AperFunction,Conductor*%
%ADD17C,1.000000*%
%TD*%
%TA.AperFunction,Conductor*%
%ADD18C,1.699800*%
%TD*%
%TA.AperFunction,Conductor*%
%ADD19C,2.000000*%
%TD*%
%TA.AperFunction,Conductor*%
%ADD20C,0.600000*%
%TD*%
%TA.AperFunction,Conductor*%
%ADD21C,1.500000*%
%TD*%
G04 APERTURE END LIST*
D10*
%TO.P,F2,1*%
%TO.N,+12V*%
X87185000Y-60900000D03*
%TO.P,F2,2*%
%TO.N,SV2_PWR*%
X109385000Y-60900000D03*
%TD*%
D11*
%TO.P,SV4,1*%
%TO.N,PWM_CH3*%
X91000000Y-124300000D03*
D12*
%TO.P,SV4,2*%
%TO.N,SV4_PWR*%
X93540000Y-124300000D03*
%TO.P,SV4,3*%
%TO.N,GND*%
X96080000Y-124300000D03*
%TD*%
D11*
%TO.P,J_FAN,1*%
%TO.N,GND*%
X117080000Y-124500000D03*
D12*
%TO.P,J_FAN,2*%
%TO.N,N/C*%
X117080000Y-121960000D03*
%TO.P,J_FAN,3*%
%TO.N,+12V_FAN*%
X119620000Y-124500000D03*
%TO.P,J_FAN,4*%
%TO.N,N/C*%
X119620000Y-121960000D03*
%TO.P,J_FAN,5*%
%TO.N,TACH*%
X122160000Y-124500000D03*
%TO.P,J_FAN,6*%
X122160000Y-121960000D03*
%TO.P,J_FAN,7*%
%TO.N,PWM_CH12*%
X124700000Y-124500000D03*
%TO.P,J_FAN,8*%
X124700000Y-121960000D03*
%TD*%
D10*
%TO.P,F6,1*%
%TO.N,+12V*%
X42685000Y-43900000D03*
%TO.P,F6,2*%
%TO.N,SV6_PWR*%
X64885000Y-43900000D03*
%TD*%
D11*
%TO.P,SV2,1*%
%TO.N,PWM_CH1*%
X63000000Y-124300000D03*
D12*
%TO.P,SV2,2*%
%TO.N,SV2_PWR*%
X65540000Y-124300000D03*
%TO.P,SV2,3*%
%TO.N,GND*%
X68080000Y-124300000D03*
%TD*%
D13*
%TO.P,J4,1*%
%TO.N,GND*%
X130900000Y-107000000D03*
D10*
%TO.P,J4,2*%
X130900000Y-102000000D03*
%TD*%
D11*
%TO.P,SV6,1*%
%TO.N,PWM_CH5*%
X48960000Y-132500000D03*
D12*
%TO.P,SV6,2*%
%TO.N,SV6_PWR*%
X51500000Y-132500000D03*
%TO.P,SV6,3*%
%TO.N,GND*%
X54040000Y-132500000D03*
%TD*%
D11*
%TO.P,J41,1*%
%TO.N,SDA*%
X24000000Y-65680000D03*
D12*
%TO.P,J41,2*%
X24000000Y-68220000D03*
%TO.P,J41,3*%
X24000000Y-70760000D03*
%TO.P,J41,4*%
X24000000Y-73300000D03*
%TD*%
D13*
%TO.P,J2,1*%
%TO.N,+12V*%
X130900000Y-59000000D03*
D10*
%TO.P,J2,2*%
X130900000Y-54000000D03*
%TD*%
D13*
%TO.P,J34,1*%
%TO.N,+3V3*%
X13000000Y-83700000D03*
D10*
%TO.P,J34,2*%
X13000000Y-78700000D03*
%TD*%
D13*
%TO.P,J32,1*%
%TO.N,SDA*%
X13000000Y-71700000D03*
D10*
%TO.P,J32,2*%
X13000000Y-66700000D03*
%TD*%
D11*
%TO.P,SV1,1*%
%TO.N,PWM_CH0*%
X49000000Y-124300000D03*
D12*
%TO.P,SV1,2*%
%TO.N,SV1_PWR*%
X51540000Y-124300000D03*
%TO.P,SV1,3*%
%TO.N,GND*%
X54080000Y-124300000D03*
%TD*%
D11*
%TO.P,J_ESC,1*%
%TO.N,PWM_CH11*%
X116460000Y-132500000D03*
D12*
%TO.P,J_ESC,2*%
%TO.N,N/C*%
X119000000Y-132500000D03*
%TO.P,J_ESC,3*%
%TO.N,GND*%
X121540000Y-132500000D03*
%TD*%
D11*
%TO.P,SV3,1*%
%TO.N,PWM_CH2*%
X77000000Y-124300000D03*
D12*
%TO.P,SV3,2*%
%TO.N,SV3_PWR*%
X79540000Y-124300000D03*
%TO.P,SV3,3*%
%TO.N,GND*%
X82080000Y-124300000D03*
%TD*%
D13*
%TO.P,J37,1*%
%TO.N,+5V_LOGIC*%
X13000000Y-95700000D03*
D10*
%TO.P,J37,2*%
X13000000Y-90700000D03*
%TD*%
D11*
%TO.P,J44,1*%
%TO.N,GND_LOGIC*%
X24000000Y-101680000D03*
D12*
%TO.P,J44,2*%
X24000000Y-104220000D03*
%TO.P,J44,3*%
X24000000Y-106760000D03*
%TO.P,J44,4*%
X24000000Y-109300000D03*
%TD*%
D11*
%TO.P,SV10,1*%
%TO.N,PWM_CH9*%
X104960000Y-132500000D03*
D12*
%TO.P,SV10,2*%
%TO.N,SV10_PWR*%
X107500000Y-132500000D03*
%TO.P,SV10,3*%
%TO.N,GND*%
X110040000Y-132500000D03*
%TD*%
D11*
%TO.P,SV7,1*%
%TO.N,PWM_CH6*%
X62960000Y-132500000D03*
D12*
%TO.P,SV7,2*%
%TO.N,SV7_PWR*%
X65500000Y-132500000D03*
%TO.P,SV7,3*%
%TO.N,GND*%
X68040000Y-132500000D03*
%TD*%
D10*
%TO.P,F7,1*%
%TO.N,+12V*%
X42685000Y-60900000D03*
%TO.P,F7,2*%
%TO.N,SV7_PWR*%
X64885000Y-60900000D03*
%TD*%
D13*
%TO.P,J1,1*%
%TO.N,+12V*%
X130900000Y-47000000D03*
D10*
%TO.P,J1,2*%
X130900000Y-42000000D03*
%TD*%
D11*
%TO.P,SV9,1*%
%TO.N,PWM_CH8*%
X90960000Y-132500000D03*
D12*
%TO.P,SV9,2*%
%TO.N,SV9_PWR*%
X93500000Y-132500000D03*
%TO.P,SV9,3*%
%TO.N,GND*%
X96040000Y-132500000D03*
%TD*%
D11*
%TO.P,SV5,1*%
%TO.N,PWM_CH4*%
X105000000Y-124300000D03*
D12*
%TO.P,SV5,2*%
%TO.N,SV5_PWR*%
X107540000Y-124300000D03*
%TO.P,SV5,3*%
%TO.N,GND*%
X110080000Y-124300000D03*
%TD*%
D11*
%TO.P,J43,1*%
%TO.N,+5V_LOGIC*%
X24000000Y-89680000D03*
D12*
%TO.P,J43,2*%
X24000000Y-92220000D03*
%TO.P,J43,3*%
X24000000Y-94760000D03*
%TO.P,J43,4*%
X24000000Y-97300000D03*
%TD*%
D13*
%TO.P,J39,1*%
%TO.N,GND_LOGIC*%
X13000000Y-107700000D03*
D10*
%TO.P,J39,2*%
X13000000Y-102700000D03*
%TD*%
D11*
%TO.P,SV8,1*%
%TO.N,PWM_CH7*%
X76960000Y-132500000D03*
D12*
%TO.P,SV8,2*%
%TO.N,SV8_PWR*%
X79500000Y-132500000D03*
%TO.P,SV8,3*%
%TO.N,GND*%
X82040000Y-132500000D03*
%TD*%
D11*
%TO.P,J40,1*%
%TO.N,SCL*%
X24000000Y-53680000D03*
D12*
%TO.P,J40,2*%
X24000000Y-56220000D03*
%TO.P,J40,3*%
X24000000Y-58760000D03*
%TO.P,J40,4*%
X24000000Y-61300000D03*
%TD*%
D13*
%TO.P,J6,1*%
%TO.N,+5V_SERVO*%
X130900000Y-83000000D03*
D10*
%TO.P,J6,2*%
X130900000Y-78000000D03*
%TD*%
%TO.P,F4,1*%
%TO.N,+5V_SERVO*%
X87185000Y-94900000D03*
%TO.P,F4,2*%
%TO.N,SV4_PWR*%
X109385000Y-94900000D03*
%TD*%
%TO.P,F3,1*%
%TO.N,+7V4*%
X87185000Y-77900000D03*
%TO.P,F3,2*%
%TO.N,SV3_PWR*%
X109385000Y-77900000D03*
%TD*%
D13*
%TO.P,J5,1*%
%TO.N,+7V4*%
X130900000Y-71000000D03*
D10*
%TO.P,J5,2*%
X130900000Y-66000000D03*
%TD*%
D13*
%TO.P,J31,1*%
%TO.N,SCL*%
X13000000Y-59700000D03*
D10*
%TO.P,J31,2*%
X13000000Y-54700000D03*
%TD*%
%TO.P,F5,1*%
%TO.N,+5V_SERVO*%
X87185000Y-111900000D03*
%TO.P,F5,2*%
%TO.N,SV5_PWR*%
X109385000Y-111900000D03*
%TD*%
%TO.P,F9,1*%
%TO.N,+5V_SERVO*%
X42685000Y-94900000D03*
%TO.P,F9,2*%
%TO.N,SV9_PWR*%
X64885000Y-94900000D03*
%TD*%
D11*
%TO.P,J42,1*%
%TO.N,+3V3*%
X24000000Y-77680000D03*
D12*
%TO.P,J42,2*%
X24000000Y-80220000D03*
%TO.P,J42,3*%
X24000000Y-82760000D03*
%TO.P,J42,4*%
X24000000Y-85300000D03*
%TD*%
D13*
%TO.P,J3,1*%
%TO.N,GND*%
X130900000Y-95000000D03*
D10*
%TO.P,J3,2*%
X130900000Y-90000000D03*
%TD*%
%TO.P,F8,1*%
%TO.N,+7V4*%
X42685000Y-77900000D03*
%TO.P,F8,2*%
%TO.N,SV8_PWR*%
X64885000Y-77900000D03*
%TD*%
D11*
%TO.P,J_PCA,1*%
%TO.N,PWM_CH0*%
X98160000Y-24000000D03*
D12*
%TO.P,J_PCA,2*%
%TO.N,PWM_CH1*%
X95620000Y-24000000D03*
%TO.P,J_PCA,3*%
%TO.N,PWM_CH2*%
X93080000Y-24000000D03*
%TO.P,J_PCA,4*%
%TO.N,PWM_CH3*%
X90540000Y-24000000D03*
%TO.P,J_PCA,5*%
%TO.N,N/C*%
X88000000Y-24000000D03*
%TO.P,J_PCA,6*%
%TO.N,PWM_CH4*%
X85460000Y-24000000D03*
%TO.P,J_PCA,7*%
%TO.N,PWM_CH5*%
X82920000Y-24000000D03*
%TO.P,J_PCA,8*%
%TO.N,PWM_CH6*%
X80380000Y-24000000D03*
%TO.P,J_PCA,9*%
%TO.N,PWM_CH7*%
X77840000Y-24000000D03*
%TO.P,J_PCA,10*%
%TO.N,N/C*%
X75300000Y-24000000D03*
%TO.P,J_PCA,11*%
%TO.N,PWM_CH8*%
X72760000Y-24000000D03*
%TO.P,J_PCA,12*%
%TO.N,PWM_CH9*%
X70220000Y-24000000D03*
%TO.P,J_PCA,13*%
%TO.N,PWM_CH10*%
X67680000Y-24000000D03*
%TO.P,J_PCA,14*%
%TO.N,PWM_CH11*%
X65140000Y-24000000D03*
%TO.P,J_PCA,15*%
%TO.N,N/C*%
X62600000Y-24000000D03*
%TO.P,J_PCA,16*%
%TO.N,PWM_CH12*%
X60060000Y-24000000D03*
%TO.P,J_PCA,17*%
%TO.N,PWM_CH13*%
X57520000Y-24000000D03*
%TO.P,J_PCA,18*%
%TO.N,PWM_CH14*%
X54980000Y-24000000D03*
%TO.P,J_PCA,19*%
%TO.N,PWM_CH15*%
X52440000Y-24000000D03*
%TD*%
D10*
%TO.P,F1,1*%
%TO.N,+12V*%
X87185000Y-43900000D03*
%TO.P,F1,2*%
%TO.N,SV1_PWR*%
X109385000Y-43900000D03*
%TD*%
%TO.P,F10,1*%
%TO.N,+5V_SERVO*%
X42685000Y-111900000D03*
%TO.P,F10,2*%
%TO.N,SV10_PWR*%
X64885000Y-111900000D03*
%TD*%
D14*
%TO.N,PWM_CH12*%
X119745500Y-21470000D03*
%TO.N,SV6_PWR*%
X57353600Y-134551700D03*
%TO.N,PWM_CH1*%
X77341800Y-119989900D03*
%TO.N,PWM_CH0*%
X65342700Y-28316300D03*
%TO.N,PWM_CH11*%
X115208300Y-34671000D03*
%TO.N,PWM_CH9*%
X74759600Y-110590300D03*
%TO.N,PWM_CH8*%
X74034300Y-107838900D03*
X88335200Y-114212300D03*
%TO.N,PWM_CH4*%
X111854900Y-31384700D03*
%TO.N,+7V4*%
X78577700Y-72562300D03*
%TD*%
%TO.N,+12V*%
D15*
X130900000Y-47000000D02*
X130900000Y-54000000D01*
X87185000Y-43900000D02*
X87185000Y-60900000D01*
X130900000Y-54000000D02*
X130900000Y-59000000D01*
X42685000Y-60900000D02*
X42685000Y-43900000D01*
X130900000Y-42000000D02*
X130900000Y-47000000D01*
%TO.N,PWM_CH3*%
D16*
X96890000Y-23498100D02*
X96890000Y-26687300D01*
X96115900Y-22724000D02*
X96890000Y-23498100D01*
X91000000Y-99285000D02*
X91000000Y-124300000D01*
X111215600Y-41012900D02*
X111215600Y-79069400D01*
X111215600Y-79069400D02*
X91000000Y-99285000D01*
X90540000Y-24000000D02*
X91816000Y-22724000D01*
X91816000Y-22724000D02*
X96115900Y-22724000D01*
X96890000Y-26687300D02*
X111215600Y-41012900D01*
%TO.N,SV4_PWR*%
D17*
X93540000Y-124300000D02*
X93540000Y-110745000D01*
X93540000Y-110745000D02*
X109385000Y-94900000D01*
%TO.N,GND*%
D18*
X122074500Y-131965500D02*
X121540000Y-132500000D01*
D15*
X96573300Y-131966700D02*
X96573300Y-124793300D01*
D18*
X82051900Y-132500000D02*
X82040000Y-132500000D01*
D15*
X130900000Y-90000000D02*
X130900000Y-95000000D01*
D18*
X54574500Y-131965500D02*
X54040000Y-132500000D01*
D15*
X130900000Y-107000000D02*
X130900000Y-123140000D01*
X82051900Y-132500000D02*
X82080000Y-132500000D01*
X110573300Y-131966700D02*
X110573300Y-124793300D01*
D18*
X110573100Y-131966900D02*
X110040000Y-132500000D01*
D15*
X54613100Y-124833100D02*
X54613100Y-131926900D01*
D18*
X82080000Y-132500000D02*
X82080000Y-124300000D01*
X96573100Y-131966900D02*
X96040000Y-132500000D01*
D15*
X130900000Y-102000000D02*
X130900000Y-107000000D01*
D18*
X54613100Y-124833100D02*
X54080000Y-124300000D01*
D15*
X54613100Y-131926900D02*
X54574500Y-131965500D01*
D18*
X68080000Y-132500000D02*
X68080000Y-124300000D01*
X110573300Y-124793300D02*
X110080000Y-124300000D01*
X96573300Y-124793300D02*
X96080000Y-124300000D01*
D15*
X110573100Y-131966900D02*
X110573300Y-131966700D01*
X68051900Y-132500000D02*
X68080000Y-132500000D01*
X130900000Y-123140000D02*
X122074500Y-131965500D01*
X130900000Y-95000000D02*
X130900000Y-102000000D01*
D18*
X68051900Y-132500000D02*
X68040000Y-132500000D01*
D15*
X96573100Y-131966900D02*
X96573300Y-131966700D01*
%TO.N,TACH*%
D16*
X122160000Y-121960000D02*
X122160000Y-124500000D01*
%TO.N,PWM_CH12*%
X119745500Y-117005500D02*
X119745500Y-21470000D01*
X124700000Y-121960000D02*
X124700000Y-124500000D01*
X124700000Y-121960000D02*
X119745500Y-117005500D01*
%TO.N,SV6_PWR*%
D19*
X57353600Y-134551700D02*
X57353600Y-51431400D01*
X57353600Y-51431400D02*
X64885000Y-43900000D01*
%TO.N,PWM_CH1*%
D16*
X95620000Y-24000000D02*
X77176000Y-42444000D01*
X77176000Y-119824100D02*
X77341800Y-119989900D01*
X77176000Y-42444000D02*
X77176000Y-119824100D01*
%TO.N,SDA*%
X13000000Y-66700000D02*
X13000000Y-71700000D01*
X24000000Y-70760000D02*
X24000000Y-68220000D01*
X24000000Y-73300000D02*
X24000000Y-70760000D01*
X24000000Y-68220000D02*
X24000000Y-65680000D01*
%TO.N,+3V3*%
D20*
X24000000Y-85300000D02*
X24000000Y-82760000D01*
X24000000Y-80220000D02*
X24000000Y-77680000D01*
X13000000Y-78700000D02*
X13000000Y-83700000D01*
X24000000Y-82760000D02*
X24000000Y-80220000D01*
%TO.N,PWM_CH0*%
D16*
X49000000Y-44659000D02*
X49000000Y-124300000D01*
X65342700Y-28316300D02*
X49000000Y-44659000D01*
%TO.N,PWM_CH11*%
X115208300Y-34671000D02*
X115208300Y-129996600D01*
X116460000Y-132500000D02*
X116460000Y-131248300D01*
X115208300Y-129996600D02*
X116460000Y-131248300D01*
%TO.N,PWM_CH2*%
X76574300Y-122622600D02*
X77000000Y-123048300D01*
X76574300Y-40505700D02*
X76574300Y-122622600D01*
X93080000Y-24000000D02*
X76574300Y-40505700D01*
X77000000Y-124300000D02*
X77000000Y-123048300D01*
%TO.N,SV3_PWR*%
D21*
X79540000Y-124300000D02*
X79540000Y-107745000D01*
X79540000Y-107745000D02*
X109385000Y-77900000D01*
%TO.N,+5V_LOGIC*%
D20*
X24000000Y-92220000D02*
X24000000Y-89680000D01*
X24000000Y-94760000D02*
X24000000Y-92220000D01*
X13000000Y-90700000D02*
X13000000Y-95700000D01*
X24000000Y-97300000D02*
X24000000Y-94760000D01*
%TO.N,GND_LOGIC*%
X24000000Y-106760000D02*
X24000000Y-104220000D01*
X24000000Y-109300000D02*
X24000000Y-106760000D01*
X13000000Y-102700000D02*
X13000000Y-107700000D01*
X24000000Y-104220000D02*
X24000000Y-101680000D01*
%TO.N,PWM_CH9*%
D16*
X70220000Y-24000000D02*
X74759600Y-28539600D01*
X74759600Y-28539600D02*
X74759600Y-110590300D01*
%TO.N,PWM_CH6*%
X62960000Y-131248300D02*
X61732000Y-130020300D01*
X66410000Y-23481100D02*
X67870700Y-22020400D01*
X61732000Y-130020300D02*
X61732000Y-66601000D01*
X66410000Y-33988800D02*
X66410000Y-23481100D01*
X66686700Y-34265500D02*
X66410000Y-33988800D01*
X67870700Y-22020400D02*
X78400400Y-22020400D01*
X62960000Y-132500000D02*
X62960000Y-131248300D01*
X61732000Y-66601000D02*
X66686700Y-61646300D01*
X66686700Y-61646300D02*
X66686700Y-34265500D01*
X78400400Y-22020400D02*
X80380000Y-24000000D01*
%TO.N,SV7_PWR*%
D19*
X60318300Y-65466700D02*
X60318300Y-133294800D01*
X64885000Y-60900000D02*
X60318300Y-65466700D01*
X60318300Y-133294800D02*
X61575200Y-134551700D01*
X65008700Y-134551700D02*
X65010200Y-134550200D01*
D18*
X65010200Y-132989800D02*
X65500000Y-132500000D01*
D19*
X61575200Y-134551700D02*
X65008700Y-134551700D01*
D18*
X65010200Y-134550200D02*
X65010200Y-132989800D01*
%TO.N,PWM_CH8*%
D16*
X74034300Y-73845200D02*
X74034300Y-107838900D01*
X69657500Y-22686400D02*
X68931700Y-23412200D01*
X88335200Y-128623500D02*
X88335200Y-114212300D01*
X90960000Y-131248300D02*
X88335200Y-128623500D01*
X90960000Y-132500000D02*
X90960000Y-131248300D01*
X71446400Y-22686400D02*
X69657500Y-22686400D01*
X72760000Y-24000000D02*
X71446400Y-22686400D01*
X68931700Y-23412200D02*
X68931700Y-68742600D01*
X68931700Y-68742600D02*
X74034300Y-73845200D01*
%TO.N,PWM_CH4*%
X111854900Y-31384700D02*
X111854900Y-106430100D01*
X111854900Y-106430100D02*
X105000000Y-113285000D01*
X105000000Y-113285000D02*
X105000000Y-124300000D01*
%TO.N,SV5_PWR*%
D17*
X107540000Y-124300000D02*
X107540000Y-113745000D01*
X107540000Y-113745000D02*
X109385000Y-111900000D01*
%TO.N,PWM_CH7*%
D16*
X76960000Y-131248300D02*
X75748300Y-130036600D01*
X75748300Y-26091700D02*
X77840000Y-24000000D01*
X76960000Y-132500000D02*
X76960000Y-131248300D01*
X75748300Y-130036600D02*
X75748300Y-26091700D01*
%TO.N,SV8_PWR*%
D21*
X79500000Y-132500000D02*
X79500000Y-133062600D01*
X70956800Y-83971800D02*
X64885000Y-77900000D01*
X70956800Y-129572600D02*
X70956800Y-83971800D01*
X79500000Y-133062600D02*
X78260900Y-134301700D01*
X78260900Y-134301700D02*
X75685900Y-134301700D01*
X75685900Y-134301700D02*
X70956800Y-129572600D01*
%TO.N,SCL*%
D16*
X24000000Y-56220000D02*
X24000000Y-53680000D01*
X24000000Y-61300000D02*
X24000000Y-58760000D01*
X13000000Y-54700000D02*
X13000000Y-59700000D01*
X24000000Y-58760000D02*
X24000000Y-56220000D01*
%TO.N,+5V_SERVO*%
D21*
X130900000Y-78000000D02*
X130900000Y-83000000D01*
X87185000Y-111900000D02*
X86927800Y-112157200D01*
X42685000Y-111900000D02*
X42685000Y-94900000D01*
X86927800Y-131146000D02*
X81566900Y-136506900D01*
X49890300Y-136506900D02*
X42685000Y-129301600D01*
X42685000Y-129301600D02*
X42685000Y-111900000D01*
X86927800Y-112157200D02*
X86927800Y-131146000D01*
X81566900Y-136506900D02*
X49890300Y-136506900D01*
%TO.N,+7V4*%
D19*
X130900000Y-66000000D02*
X130900000Y-71000000D01*
X81847300Y-72562300D02*
X78577700Y-72562300D01*
X87185000Y-77900000D02*
X81847300Y-72562300D01*
%TD*%
%TA.AperFunction,Conductor*%
%TO.N,+12V*%
G36*
X140487501Y-14504465D02*
G01*
X140647271Y-14544485D01*
X140661264Y-14548730D01*
X141174074Y-14732216D01*
X141187572Y-14737807D01*
X141679959Y-14970688D01*
X141692818Y-14977562D01*
X142159997Y-15257579D01*
X142172141Y-15265694D01*
X142343989Y-15393145D01*
X142609610Y-15590143D01*
X142620913Y-15599419D01*
X142801395Y-15762997D01*
X143024484Y-15965193D01*
X143034804Y-15975513D01*
X143217696Y-16177303D01*
X143400578Y-16379084D01*
X143409854Y-16390387D01*
X143734299Y-16827850D01*
X143742423Y-16840008D01*
X144022428Y-17307168D01*
X144029320Y-17320063D01*
X144262185Y-17812415D01*
X144267781Y-17825924D01*
X144451268Y-18338733D01*
X144455513Y-18352726D01*
X144495535Y-18512503D01*
X144500000Y-18548707D01*
X144500000Y-143451289D01*
X144495535Y-143487494D01*
X144455512Y-143647272D01*
X144451267Y-143661264D01*
X144267781Y-144174073D01*
X144262185Y-144187582D01*
X144029320Y-144679934D01*
X144022428Y-144692829D01*
X143742423Y-145159989D01*
X143734299Y-145172147D01*
X143409854Y-145609610D01*
X143400578Y-145620913D01*
X143034814Y-146024474D01*
X143024474Y-146034814D01*
X142620913Y-146400578D01*
X142609610Y-146409854D01*
X142172147Y-146734299D01*
X142159990Y-146742422D01*
X141692833Y-147022427D01*
X141679943Y-147029317D01*
X141433759Y-147145753D01*
X141187582Y-147262186D01*
X141174074Y-147267781D01*
X140661264Y-147451267D01*
X140647272Y-147455512D01*
X140487494Y-147495535D01*
X140451289Y-147500000D01*
X75149000Y-147500000D01*
X75074500Y-147480038D01*
X75019962Y-147425500D01*
X75000000Y-147351000D01*
X75000000Y-140378706D01*
X97149500Y-140378706D01*
X97149500Y-140621293D01*
X97181160Y-140861781D01*
X97181161Y-140861787D01*
X97181162Y-140861789D01*
X97243946Y-141096100D01*
X97336776Y-141320212D01*
X97458064Y-141530289D01*
X97605735Y-141722738D01*
X97777262Y-141894265D01*
X97969711Y-142041936D01*
X98179788Y-142163224D01*
X98403900Y-142256054D01*
X98638211Y-142318838D01*
X98638217Y-142318838D01*
X98638218Y-142318839D01*
X98703600Y-142327446D01*
X98878712Y-142350500D01*
X99121288Y-142350500D01*
X99361789Y-142318838D01*
X99596100Y-142256054D01*
X99820212Y-142163224D01*
X100030289Y-142041936D01*
X100222738Y-141894265D01*
X100394265Y-141722738D01*
X100541936Y-141530289D01*
X100663224Y-141320212D01*
X100756054Y-141096100D01*
X100818838Y-140861789D01*
X100850500Y-140621288D01*
X100850500Y-140378712D01*
X100818838Y-140138211D01*
X100756054Y-139903900D01*
X100663224Y-139679788D01*
X100541936Y-139469711D01*
X100394265Y-139277262D01*
X100222738Y-139105735D01*
X100030289Y-138958064D01*
X99960263Y-138917634D01*
X99820216Y-138836778D01*
X99820214Y-138836777D01*
X99820212Y-138836776D01*
X99688932Y-138782398D01*
X99596103Y-138743947D01*
X99596101Y-138743946D01*
X99596100Y-138743946D01*
X99361789Y-138681162D01*
X99361787Y-138681161D01*
X99361781Y-138681160D01*
X99121293Y-138649500D01*
X99121288Y-138649500D01*
X98878712Y-138649500D01*
X98878706Y-138649500D01*
X98638218Y-138681160D01*
X98403896Y-138743947D01*
X98179783Y-138836778D01*
X97969712Y-138958063D01*
X97969711Y-138958064D01*
X97777262Y-139105735D01*
X97777260Y-139105736D01*
X97777256Y-139105740D01*
X97605740Y-139277256D01*
X97458063Y-139469712D01*
X97336778Y-139679783D01*
X97243947Y-139903896D01*
X97181160Y-140138218D01*
X97149500Y-140378706D01*
X75000000Y-140378706D01*
X75000000Y-137906400D01*
X75019962Y-137831900D01*
X75074500Y-137777362D01*
X75149000Y-137757400D01*
X81665312Y-137757400D01*
X81665317Y-137757400D01*
X81859726Y-137726609D01*
X82046926Y-137665784D01*
X82222305Y-137576424D01*
X82381546Y-137460728D01*
X87881628Y-131960646D01*
X87922990Y-131903716D01*
X87997324Y-131801405D01*
X88086684Y-131626025D01*
X88143024Y-131452629D01*
X88144589Y-131447815D01*
X88147508Y-131438830D01*
X88147507Y-131438830D01*
X88147509Y-131438827D01*
X88178300Y-131244417D01*
X88178300Y-131047584D01*
X88178300Y-129816975D01*
X88198262Y-129742475D01*
X88252800Y-129687937D01*
X88327300Y-129667975D01*
X88401800Y-129687937D01*
X88432659Y-129711616D01*
X89780150Y-131059107D01*
X89818714Y-131125902D01*
X89818714Y-131203030D01*
X89780150Y-131269825D01*
X89764090Y-131283742D01*
X89752455Y-131292452D01*
X89752452Y-131292455D01*
X89666204Y-131407666D01*
X89666202Y-131407670D01*
X89615908Y-131542517D01*
X89609500Y-131602114D01*
X89609500Y-133397863D01*
X89609502Y-133397888D01*
X89615908Y-133457478D01*
X89615909Y-133457484D01*
X89666202Y-133592329D01*
X89666204Y-133592333D01*
X89752452Y-133707544D01*
X89752455Y-133707547D01*
X89867666Y-133793795D01*
X89867670Y-133793797D01*
X90002517Y-133844091D01*
X90062114Y-133850499D01*
X90062118Y-133850499D01*
X90062127Y-133850500D01*
X91857872Y-133850499D01*
X91917483Y-133844091D01*
X92013447Y-133808298D01*
X92052329Y-133793797D01*
X92052333Y-133793795D01*
X92109938Y-133750671D01*
X92167546Y-133707546D01*
X92222734Y-133633824D01*
X92253795Y-133592333D01*
X92253798Y-133592327D01*
X92289215Y-133497367D01*
X92333953Y-133434540D01*
X92404110Y-133402498D01*
X92480889Y-133409829D01*
X92534180Y-133444076D01*
X92620208Y-133530104D01*
X92792184Y-133655051D01*
X92981588Y-133751557D01*
X93183757Y-133817246D01*
X93393713Y-133850500D01*
X93393718Y-133850500D01*
X93606282Y-133850500D01*
X93606287Y-133850500D01*
X93816243Y-133817246D01*
X94018412Y-133751557D01*
X94207816Y-133655051D01*
X94379792Y-133530104D01*
X94530104Y-133379792D01*
X94649456Y-133215517D01*
X94709396Y-133166979D01*
X94785574Y-133154913D01*
X94857580Y-133182553D01*
X94890544Y-133215517D01*
X95009896Y-133379792D01*
X95160208Y-133530104D01*
X95332184Y-133655051D01*
X95521588Y-133751557D01*
X95723757Y-133817246D01*
X95850308Y-133837289D01*
X95884012Y-133846795D01*
X95928681Y-133865298D01*
X96181984Y-133933171D01*
X96181990Y-133933171D01*
X96181991Y-133933172D01*
X96252679Y-133942477D01*
X96441980Y-133967399D01*
X96704220Y-133967399D01*
X96964216Y-133933171D01*
X97217519Y-133865298D01*
X97217525Y-133865295D01*
X97217527Y-133865295D01*
X97268717Y-133844091D01*
X97459797Y-133764943D01*
X97686902Y-133633824D01*
X97894951Y-133474183D01*
X98080583Y-133288551D01*
X98209322Y-133120775D01*
X98240224Y-133080503D01*
X98371343Y-132853397D01*
X98471698Y-132611119D01*
X98505793Y-132483874D01*
X98539571Y-132357815D01*
X98554431Y-132244932D01*
X98573800Y-132097820D01*
X98573800Y-124662180D01*
X98539570Y-124402184D01*
X98471698Y-124148881D01*
X98371343Y-123906603D01*
X98240224Y-123679497D01*
X98240221Y-123679493D01*
X98240221Y-123679492D01*
X98080584Y-123471451D01*
X97895148Y-123286015D01*
X97687106Y-123126378D01*
X97673942Y-123118778D01*
X97552113Y-123048440D01*
X97460001Y-122995259D01*
X97459999Y-122995258D01*
X97459997Y-122995257D01*
X97349535Y-122949502D01*
X97217716Y-122894900D01*
X96991555Y-122834302D01*
X96964416Y-122827030D01*
X96964414Y-122827029D01*
X96964408Y-122827028D01*
X96704423Y-122792800D01*
X96704420Y-122792800D01*
X96442180Y-122792800D01*
X96442176Y-122792800D01*
X96182192Y-122827028D01*
X96182189Y-122827028D01*
X95928884Y-122894900D01*
X95928883Y-122894900D01*
X95686607Y-122995254D01*
X95686606Y-122995255D01*
X95650379Y-123016169D01*
X95621932Y-123028834D01*
X95561595Y-123048440D01*
X95561581Y-123048445D01*
X95372182Y-123144950D01*
X95372181Y-123144950D01*
X95200209Y-123269895D01*
X95200206Y-123269897D01*
X95049897Y-123420206D01*
X95049895Y-123420209D01*
X94930544Y-123584482D01*
X94870604Y-123633020D01*
X94794425Y-123645086D01*
X94722420Y-123617446D01*
X94689456Y-123584482D01*
X94568956Y-123418628D01*
X94541316Y-123346623D01*
X94540500Y-123331048D01*
X94540500Y-111221137D01*
X94560462Y-111146637D01*
X94584137Y-111115782D01*
X108889462Y-96810456D01*
X108956255Y-96771894D01*
X109014267Y-96768092D01*
X109183900Y-96790424D01*
X109260435Y-96800500D01*
X109509565Y-96800500D01*
X109756565Y-96767982D01*
X109997207Y-96703502D01*
X110227373Y-96608164D01*
X110443127Y-96483599D01*
X110640776Y-96331938D01*
X110816938Y-96155776D01*
X110887192Y-96064217D01*
X110948379Y-96017267D01*
X111024847Y-96007200D01*
X111096105Y-96036715D01*
X111143058Y-96097904D01*
X111154400Y-96154925D01*
X111154400Y-106078225D01*
X111134438Y-106152725D01*
X111110759Y-106183584D01*
X104455889Y-112838453D01*
X104455885Y-112838458D01*
X104379228Y-112953184D01*
X104379220Y-112953197D01*
X104326420Y-113080670D01*
X104326419Y-113080674D01*
X104299500Y-113216006D01*
X104299500Y-122800500D01*
X104279538Y-122875000D01*
X104225000Y-122929538D01*
X104150503Y-122949500D01*
X104102137Y-122949500D01*
X104102111Y-122949502D01*
X104042521Y-122955908D01*
X104042515Y-122955909D01*
X103907670Y-123006202D01*
X103907666Y-123006204D01*
X103792455Y-123092452D01*
X103792452Y-123092455D01*
X103706204Y-123207666D01*
X103706202Y-123207670D01*
X103655908Y-123342517D01*
X103649500Y-123402114D01*
X103649500Y-125197863D01*
X103649502Y-125197888D01*
X103655908Y-125257478D01*
X103655909Y-125257484D01*
X103706202Y-125392329D01*
X103706204Y-125392333D01*
X103792452Y-125507544D01*
X103792455Y-125507547D01*
X103907666Y-125593795D01*
X103907670Y-125593797D01*
X104042517Y-125644091D01*
X104102114Y-125650499D01*
X104102118Y-125650499D01*
X104102127Y-125650500D01*
X105897872Y-125650499D01*
X105957483Y-125644091D01*
X106053447Y-125608298D01*
X106092329Y-125593797D01*
X106092333Y-125593795D01*
X106202443Y-125511366D01*
X106207546Y-125507546D01*
X106286185Y-125402498D01*
X106293795Y-125392333D01*
X106293798Y-125392327D01*
X106329215Y-125297367D01*
X106373953Y-125234540D01*
X106444110Y-125202498D01*
X106520889Y-125209829D01*
X106574180Y-125244076D01*
X106660208Y-125330104D01*
X106832184Y-125455051D01*
X107021588Y-125551557D01*
X107223757Y-125617246D01*
X107433713Y-125650500D01*
X107433718Y-125650500D01*
X107646282Y-125650500D01*
X107646287Y-125650500D01*
X107856243Y-125617246D01*
X108058412Y-125551557D01*
X108247816Y-125455051D01*
X108336220Y-125390821D01*
X108408225Y-125363182D01*
X108484404Y-125375248D01*
X108544344Y-125423786D01*
X108571984Y-125495791D01*
X108572800Y-125511366D01*
X108572800Y-131317695D01*
X108552838Y-131392195D01*
X108498300Y-131446733D01*
X108423800Y-131466695D01*
X108349300Y-131446733D01*
X108336221Y-131438239D01*
X108207824Y-131344954D01*
X108207817Y-131344950D01*
X108207818Y-131344950D01*
X108207816Y-131344949D01*
X108018412Y-131248443D01*
X107816243Y-131182754D01*
X107606287Y-131149500D01*
X107393713Y-131149500D01*
X107218749Y-131177211D01*
X107183756Y-131182754D01*
X106981594Y-131248441D01*
X106981588Y-131248443D01*
X106981582Y-131248445D01*
X106981582Y-131248446D01*
X106792182Y-131344950D01*
X106792181Y-131344950D01*
X106620209Y-131469895D01*
X106620198Y-131469904D01*
X106534179Y-131555923D01*
X106467384Y-131594487D01*
X106390256Y-131594487D01*
X106323462Y-131555922D01*
X106289215Y-131502633D01*
X106277008Y-131469904D01*
X106253796Y-131407669D01*
X106253795Y-131407668D01*
X106253795Y-131407666D01*
X106167547Y-131292455D01*
X106167544Y-131292452D01*
X106052333Y-131206204D01*
X106052329Y-131206202D01*
X105917482Y-131155908D01*
X105857876Y-131149500D01*
X104062136Y-131149500D01*
X104062111Y-131149502D01*
X104002521Y-131155908D01*
X104002515Y-131155909D01*
X103867670Y-131206202D01*
X103867666Y-131206204D01*
X103752455Y-131292452D01*
X103752452Y-131292455D01*
X103666204Y-131407666D01*
X103666202Y-131407670D01*
X103615908Y-131542517D01*
X103609500Y-131602114D01*
X103609500Y-133397863D01*
X103609502Y-133397888D01*
X103615908Y-133457478D01*
X103615909Y-133457484D01*
X103666202Y-133592329D01*
X103666204Y-133592333D01*
X103752452Y-133707544D01*
X103752455Y-133707547D01*
X103867666Y-133793795D01*
X103867670Y-133793797D01*
X104002517Y-133844091D01*
X104062114Y-133850499D01*
X104062118Y-133850499D01*
X104062127Y-133850500D01*
X105857872Y-133850499D01*
X105917483Y-133844091D01*
X106013447Y-133808298D01*
X106052329Y-133793797D01*
X106052333Y-133793795D01*
X106109938Y-133750671D01*
X106167546Y-133707546D01*
X106222734Y-133633824D01*
X106253795Y-133592333D01*
X106253798Y-133592327D01*
X106289215Y-133497367D01*
X106333953Y-133434540D01*
X106404110Y-133402498D01*
X106480889Y-133409829D01*
X106534180Y-133444076D01*
X106620208Y-133530104D01*
X106792184Y-133655051D01*
X106981588Y-133751557D01*
X107183757Y-133817246D01*
X107393713Y-133850500D01*
X107393718Y-133850500D01*
X107606282Y-133850500D01*
X107606287Y-133850500D01*
X107816243Y-133817246D01*
X108018412Y-133751557D01*
X108207816Y-133655051D01*
X108379792Y-133530104D01*
X108530104Y-133379792D01*
X108649456Y-133215517D01*
X108709396Y-133166979D01*
X108785574Y-133154913D01*
X108857580Y-133182553D01*
X108890544Y-133215517D01*
X109009896Y-133379792D01*
X109160208Y-133530104D01*
X109332184Y-133655051D01*
X109521588Y-133751557D01*
X109723757Y-133817246D01*
X109850308Y-133837289D01*
X109884012Y-133846795D01*
X109928681Y-133865298D01*
X110181984Y-133933171D01*
X110181990Y-133933171D01*
X110181991Y-133933172D01*
X110252679Y-133942477D01*
X110441980Y-133967399D01*
X110704220Y-133967399D01*
X110964216Y-133933171D01*
X111217519Y-133865298D01*
X111217525Y-133865295D01*
X111217527Y-133865295D01*
X111268717Y-133844091D01*
X111459797Y-133764943D01*
X111686902Y-133633824D01*
X111894951Y-133474183D01*
X112080583Y-133288551D01*
X112209322Y-133120775D01*
X112240224Y-133080503D01*
X112371343Y-132853397D01*
X112471698Y-132611119D01*
X112505793Y-132483874D01*
X112539571Y-132357815D01*
X112554431Y-132244932D01*
X112573800Y-132097820D01*
X112573800Y-124662180D01*
X112539570Y-124402184D01*
X112471698Y-124148881D01*
X112371343Y-123906603D01*
X112240224Y-123679497D01*
X112240221Y-123679493D01*
X112240221Y-123679492D01*
X112080584Y-123471451D01*
X111895148Y-123286015D01*
X111687106Y-123126378D01*
X111673942Y-123118778D01*
X111552113Y-123048440D01*
X111460001Y-122995259D01*
X111459999Y-122995258D01*
X111459997Y-122995257D01*
X111349535Y-122949502D01*
X111217716Y-122894900D01*
X110991555Y-122834302D01*
X110964416Y-122827030D01*
X110964414Y-122827029D01*
X110964408Y-122827028D01*
X110704423Y-122792800D01*
X110704420Y-122792800D01*
X110442180Y-122792800D01*
X110442176Y-122792800D01*
X110182192Y-122827028D01*
X110182189Y-122827028D01*
X109928884Y-122894900D01*
X109928883Y-122894900D01*
X109686607Y-122995254D01*
X109686606Y-122995255D01*
X109650379Y-123016169D01*
X109621932Y-123028834D01*
X109561595Y-123048440D01*
X109561581Y-123048445D01*
X109372182Y-123144950D01*
X109372181Y-123144950D01*
X109200209Y-123269895D01*
X109200206Y-123269897D01*
X109049897Y-123420206D01*
X109049895Y-123420209D01*
X108930544Y-123584482D01*
X108870604Y-123633020D01*
X108794425Y-123645086D01*
X108722420Y-123617446D01*
X108689456Y-123584482D01*
X108568956Y-123418628D01*
X108541316Y-123346623D01*
X108540500Y-123331048D01*
X108540500Y-114221137D01*
X108560462Y-114146637D01*
X108584138Y-114115781D01*
X108889462Y-113810456D01*
X108956255Y-113771894D01*
X109014267Y-113768092D01*
X109183900Y-113790424D01*
X109260435Y-113800500D01*
X109509565Y-113800500D01*
X109756565Y-113767982D01*
X109997207Y-113703502D01*
X110227373Y-113608164D01*
X110443127Y-113483599D01*
X110640776Y-113331938D01*
X110816938Y-113155776D01*
X110968599Y-112958127D01*
X111093164Y-112742373D01*
X111188502Y-112512207D01*
X111252982Y-112271565D01*
X111285500Y-112024565D01*
X111285500Y-111775435D01*
X111252982Y-111528435D01*
X111188502Y-111287793D01*
X111093164Y-111057627D01*
X110968599Y-110841873D01*
X110816938Y-110644224D01*
X110640776Y-110468062D01*
X110443127Y-110316401D01*
X110260776Y-110211121D01*
X110227377Y-110191838D01*
X110227375Y-110191837D01*
X110227373Y-110191836D01*
X110023090Y-110107219D01*
X109997210Y-110096499D01*
X109997208Y-110096498D01*
X109997207Y-110096498D01*
X109756565Y-110032018D01*
X109756563Y-110032017D01*
X109756557Y-110032016D01*
X109602868Y-110011783D01*
X109531611Y-109982268D01*
X109484658Y-109921078D01*
X109474591Y-109844610D01*
X109504106Y-109773353D01*
X109516949Y-109758707D01*
X112399014Y-106876643D01*
X112475675Y-106761911D01*
X112528480Y-106634428D01*
X112555400Y-106499094D01*
X112555400Y-106361106D01*
X112555400Y-34592157D01*
X114407800Y-34592157D01*
X114407800Y-34749842D01*
X114438562Y-34904494D01*
X114438563Y-34904498D01*
X114496458Y-35044270D01*
X114507800Y-35101289D01*
X114507800Y-130065597D01*
X114534719Y-130200927D01*
X114534720Y-130200929D01*
X114587520Y-130328402D01*
X114587523Y-130328408D01*
X114587525Y-130328411D01*
X114664186Y-130443143D01*
X114664189Y-130443146D01*
X115280150Y-131059107D01*
X115318714Y-131125902D01*
X115318714Y-131203030D01*
X115280150Y-131269825D01*
X115264090Y-131283742D01*
X115252455Y-131292452D01*
X115252452Y-131292455D01*
X115166204Y-131407666D01*
X115166202Y-131407670D01*
X115115908Y-131542517D01*
X115109500Y-131602114D01*
X115109500Y-133397863D01*
X115109502Y-133397888D01*
X115115908Y-133457478D01*
X115115909Y-133457484D01*
X115166202Y-133592329D01*
X115166204Y-133592333D01*
X115252452Y-133707544D01*
X115252455Y-133707547D01*
X115367666Y-133793795D01*
X115367670Y-133793797D01*
X115502517Y-133844091D01*
X115562114Y-133850499D01*
X115562118Y-133850499D01*
X115562127Y-133850500D01*
X117357872Y-133850499D01*
X117417483Y-133844091D01*
X117513447Y-133808298D01*
X117552329Y-133793797D01*
X117552333Y-133793795D01*
X117609938Y-133750671D01*
X117667546Y-133707546D01*
X117722734Y-133633824D01*
X117753795Y-133592333D01*
X117753798Y-133592327D01*
X117789215Y-133497367D01*
X117833953Y-133434540D01*
X117904110Y-133402498D01*
X117980889Y-133409829D01*
X118034180Y-133444076D01*
X118120208Y-133530104D01*
X118292184Y-133655051D01*
X118481588Y-133751557D01*
X118683757Y-133817246D01*
X118893713Y-133850500D01*
X118893718Y-133850500D01*
X119106282Y-133850500D01*
X119106287Y-133850500D01*
X119316243Y-133817246D01*
X119518412Y-133751557D01*
X119707816Y-133655051D01*
X119879792Y-133530104D01*
X120030104Y-133379792D01*
X120149456Y-133215517D01*
X120209396Y-133166979D01*
X120285574Y-133154913D01*
X120357580Y-133182553D01*
X120390544Y-133215517D01*
X120509896Y-133379792D01*
X120660208Y-133530104D01*
X120832184Y-133655051D01*
X121021588Y-133751557D01*
X121223757Y-133817246D01*
X121358047Y-133838515D01*
X121391751Y-133848020D01*
X121430081Y-133863898D01*
X121683384Y-133931771D01*
X121683390Y-133931771D01*
X121683391Y-133931772D01*
X121754079Y-133941077D01*
X121943380Y-133965999D01*
X122205620Y-133965999D01*
X122465616Y-133931771D01*
X122718919Y-133863898D01*
X122718925Y-133863895D01*
X122718927Y-133863895D01*
X122780201Y-133838514D01*
X122961197Y-133763543D01*
X123188302Y-133632424D01*
X123396351Y-133472783D01*
X132407283Y-124461851D01*
X132497611Y-124344131D01*
X132566924Y-124253803D01*
X132698043Y-124026697D01*
X132798398Y-123784419D01*
X132807942Y-123748800D01*
X132866271Y-123531115D01*
X132874330Y-123469896D01*
X132881772Y-123413370D01*
X132881772Y-123413368D01*
X132891100Y-123342517D01*
X132900500Y-123271120D01*
X132900500Y-106868880D01*
X132900500Y-101868880D01*
X132900500Y-94868880D01*
X132900500Y-89868880D01*
X132866270Y-89608884D01*
X132798398Y-89355581D01*
X132698043Y-89113303D01*
X132566924Y-88886197D01*
X132566921Y-88886193D01*
X132566921Y-88886192D01*
X132407284Y-88678151D01*
X132221848Y-88492715D01*
X132013806Y-88333078D01*
X131786701Y-88201959D01*
X131786699Y-88201958D01*
X131786697Y-88201957D01*
X131711154Y-88170666D01*
X131544416Y-88101600D01*
X131318255Y-88041002D01*
X131291116Y-88033730D01*
X131291114Y-88033729D01*
X131291108Y-88033728D01*
X131031123Y-87999500D01*
X131031120Y-87999500D01*
X130768880Y-87999500D01*
X130768876Y-87999500D01*
X130508892Y-88033728D01*
X130508889Y-88033728D01*
X130255584Y-88101600D01*
X130255583Y-88101600D01*
X130013298Y-88201959D01*
X129786193Y-88333078D01*
X129786192Y-88333078D01*
X129578151Y-88492715D01*
X129578151Y-88492716D01*
X129578149Y-88492718D01*
X129392718Y-88678149D01*
X129392716Y-88678151D01*
X129392715Y-88678151D01*
X129233078Y-88886192D01*
X129233078Y-88886193D01*
X129101959Y-89113298D01*
X129001600Y-89355583D01*
X129001600Y-89355584D01*
X128933728Y-89608889D01*
X128933728Y-89608892D01*
X128899500Y-89868876D01*
X128899500Y-122249648D01*
X128879538Y-122324148D01*
X128855859Y-122355007D01*
X126270488Y-124940377D01*
X126203693Y-124978941D01*
X126126565Y-124978941D01*
X126059770Y-124940377D01*
X126021206Y-124873582D01*
X126017963Y-124811714D01*
X126050500Y-124606287D01*
X126050500Y-124393713D01*
X126017246Y-124183757D01*
X125951557Y-123981588D01*
X125855051Y-123792184D01*
X125849409Y-123784419D01*
X125823531Y-123748800D01*
X125730104Y-123620208D01*
X125579792Y-123469896D01*
X125579790Y-123469894D01*
X125579782Y-123469888D01*
X125461920Y-123384256D01*
X125413382Y-123324317D01*
X125400500Y-123263713D01*
X125400500Y-123196285D01*
X125420462Y-123121785D01*
X125461919Y-123075743D01*
X125579792Y-122990104D01*
X125730104Y-122839792D01*
X125855051Y-122667816D01*
X125951557Y-122478412D01*
X126017246Y-122276243D01*
X126050500Y-122066287D01*
X126050500Y-121853713D01*
X126017246Y-121643757D01*
X125951557Y-121441588D01*
X125855051Y-121252184D01*
X125730104Y-121080208D01*
X125579792Y-120929896D01*
X125407816Y-120804949D01*
X125218412Y-120708443D01*
X125016243Y-120642754D01*
X124806287Y-120609500D01*
X124593713Y-120609500D01*
X124497757Y-120624698D01*
X124449809Y-120632292D01*
X124373103Y-120624229D01*
X124321142Y-120590485D01*
X120489641Y-116758984D01*
X120451077Y-116692189D01*
X120446000Y-116653625D01*
X120446000Y-77875429D01*
X128999500Y-77875429D01*
X128999500Y-78124570D01*
X129032016Y-78371557D01*
X129032017Y-78371563D01*
X129032018Y-78371565D01*
X129096498Y-78612207D01*
X129191836Y-78842373D01*
X129316401Y-79058127D01*
X129468062Y-79255776D01*
X129468063Y-79255777D01*
X129605859Y-79393573D01*
X129644423Y-79460368D01*
X129649500Y-79498932D01*
X129649500Y-80985077D01*
X129629538Y-81059577D01*
X129575000Y-81114115D01*
X129547369Y-81126514D01*
X129430662Y-81165187D01*
X129281344Y-81257289D01*
X129157289Y-81381344D01*
X129065187Y-81530663D01*
X129010001Y-81697201D01*
X129010001Y-81697203D01*
X128999500Y-81799992D01*
X128999500Y-84200008D01*
X129010001Y-84302797D01*
X129065186Y-84469334D01*
X129157289Y-84618655D01*
X129281345Y-84742711D01*
X129430666Y-84834814D01*
X129597203Y-84889999D01*
X129699992Y-84900500D01*
X129699996Y-84900500D01*
X132100004Y-84900500D01*
X132100008Y-84900500D01*
X132202797Y-84889999D01*
X132369334Y-84834814D01*
X132518655Y-84742711D01*
X132642711Y-84618655D01*
X132734814Y-84469334D01*
X132789999Y-84302797D01*
X132800500Y-84200008D01*
X132800500Y-81799992D01*
X132789999Y-81697203D01*
X132734814Y-81530666D01*
X132642711Y-81381345D01*
X132518655Y-81257289D01*
X132369337Y-81165187D01*
X132252631Y-81126514D01*
X132188192Y-81084130D01*
X132153578Y-81015206D01*
X132150500Y-80985077D01*
X132150500Y-79498932D01*
X132170462Y-79424432D01*
X132194141Y-79393573D01*
X132255778Y-79331936D01*
X132331938Y-79255776D01*
X132483599Y-79058127D01*
X132608164Y-78842373D01*
X132703502Y-78612207D01*
X132767982Y-78371565D01*
X132800500Y-78124565D01*
X132800500Y-77875435D01*
X132767982Y-77628435D01*
X132703502Y-77387793D01*
X132608164Y-77157627D01*
X132483599Y-76941873D01*
X132331938Y-76744224D01*
X132155776Y-76568062D01*
X131958127Y-76416401D01*
X131784921Y-76316401D01*
X131742377Y-76291838D01*
X131742375Y-76291837D01*
X131742373Y-76291836D01*
X131590473Y-76228917D01*
X131512210Y-76196499D01*
X131512208Y-76196498D01*
X131512207Y-76196498D01*
X131271565Y-76132018D01*
X131271563Y-76132017D01*
X131271557Y-76132016D01*
X131024570Y-76099500D01*
X131024565Y-76099500D01*
X130775435Y-76099500D01*
X130775429Y-76099500D01*
X130528442Y-76132016D01*
X130287789Y-76196499D01*
X130057622Y-76291838D01*
X129841874Y-76416400D01*
X129644222Y-76568063D01*
X129468063Y-76744222D01*
X129316400Y-76941874D01*
X129191838Y-77157622D01*
X129096499Y-77387789D01*
X129032016Y-77628442D01*
X128999500Y-77875429D01*
X120446000Y-77875429D01*
X120446000Y-65875429D01*
X128999500Y-65875429D01*
X128999500Y-66124570D01*
X129032016Y-66371557D01*
X129032017Y-66371563D01*
X129032018Y-66371565D01*
X129096498Y-66612207D01*
X129191836Y-66842373D01*
X129316401Y-67058127D01*
X129368710Y-67126297D01*
X129398225Y-67197554D01*
X129399500Y-67217002D01*
X129399500Y-69101250D01*
X129379538Y-69175750D01*
X129328724Y-69228064D01*
X129281345Y-69257289D01*
X129281342Y-69257291D01*
X129157289Y-69381344D01*
X129065187Y-69530663D01*
X129010001Y-69697201D01*
X129010001Y-69697203D01*
X128999500Y-69799992D01*
X128999500Y-72200008D01*
X129010001Y-72302797D01*
X129065186Y-72469334D01*
X129157289Y-72618655D01*
X129281345Y-72742711D01*
X129430666Y-72834814D01*
X129597203Y-72889999D01*
X129699992Y-72900500D01*
X129699996Y-72900500D01*
X132100004Y-72900500D01*
X132100008Y-72900500D01*
X132202797Y-72889999D01*
X132369334Y-72834814D01*
X132518655Y-72742711D01*
X132642711Y-72618655D01*
X132734814Y-72469334D01*
X132789999Y-72302797D01*
X132800500Y-72200008D01*
X132800500Y-69799992D01*
X132789999Y-69697203D01*
X132734814Y-69530666D01*
X132642711Y-69381345D01*
X132518655Y-69257289D01*
X132471275Y-69228064D01*
X132418349Y-69171964D01*
X132400500Y-69101250D01*
X132400500Y-67217002D01*
X132420462Y-67142502D01*
X132431290Y-67126297D01*
X132483599Y-67058127D01*
X132608164Y-66842373D01*
X132703502Y-66612207D01*
X132767982Y-66371565D01*
X132800500Y-66124565D01*
X132800500Y-65875435D01*
X132767982Y-65628435D01*
X132703502Y-65387793D01*
X132608164Y-65157627D01*
X132483599Y-64941873D01*
X132331938Y-64744224D01*
X132155776Y-64568062D01*
X131958127Y-64416401D01*
X131886209Y-64374879D01*
X131742377Y-64291838D01*
X131742375Y-64291837D01*
X131742373Y-64291836D01*
X131607548Y-64235989D01*
X131512210Y-64196499D01*
X131512208Y-64196498D01*
X131512207Y-64196498D01*
X131271565Y-64132018D01*
X131271563Y-64132017D01*
X131271557Y-64132016D01*
X131024570Y-64099500D01*
X131024565Y-64099500D01*
X130775435Y-64099500D01*
X130775429Y-64099500D01*
X130528442Y-64132016D01*
X130287789Y-64196499D01*
X130057622Y-64291838D01*
X129841874Y-64416400D01*
X129644222Y-64568063D01*
X129468063Y-64744222D01*
X129316400Y-64941874D01*
X129191838Y-65157622D01*
X129096499Y-65387789D01*
X129032016Y-65628442D01*
X128999500Y-65875429D01*
X120446000Y-65875429D01*
X120446000Y-57800011D01*
X129000000Y-57800011D01*
X129000000Y-58600000D01*
X130385523Y-58600000D01*
X130323978Y-58692110D01*
X130274979Y-58810402D01*
X130250000Y-58935981D01*
X130250000Y-59064019D01*
X130274979Y-59189598D01*
X130323978Y-59307890D01*
X130385523Y-59400000D01*
X129000000Y-59400000D01*
X129000000Y-60199988D01*
X129010492Y-60302687D01*
X129010494Y-60302696D01*
X129065642Y-60469120D01*
X129157680Y-60618339D01*
X129281660Y-60742319D01*
X129430879Y-60834357D01*
X129597303Y-60889505D01*
X129597312Y-60889507D01*
X129700011Y-60899999D01*
X129700022Y-60900000D01*
X130500000Y-60900000D01*
X130500000Y-59514476D01*
X130592110Y-59576022D01*
X130710402Y-59625021D01*
X130835981Y-59650000D01*
X130964019Y-59650000D01*
X131089598Y-59625021D01*
X131207890Y-59576022D01*
X131300000Y-59514476D01*
X131300000Y-60900000D01*
X132099978Y-60900000D01*
X132099988Y-60899999D01*
X132202687Y-60889507D01*
X132202696Y-60889505D01*
X132369120Y-60834357D01*
X132518339Y-60742319D01*
X132642319Y-60618339D01*
X132734357Y-60469120D01*
X132789505Y-60302696D01*
X132789507Y-60302687D01*
X132799999Y-60199988D01*
X132800000Y-60199978D01*
X132800000Y-59400000D01*
X131414477Y-59400000D01*
X131476022Y-59307890D01*
X131525021Y-59189598D01*
X131550000Y-59064019D01*
X131550000Y-58935981D01*
X131525021Y-58810402D01*
X131476022Y-58692110D01*
X131414477Y-58600000D01*
X132800000Y-58600000D01*
X132800000Y-57800021D01*
X132799999Y-57800011D01*
X132789507Y-57697312D01*
X132789505Y-57697303D01*
X132734357Y-57530879D01*
X132642319Y-57381660D01*
X132518339Y-57257680D01*
X132369120Y-57165642D01*
X132202696Y-57110494D01*
X132202687Y-57110492D01*
X132099988Y-57100000D01*
X131300000Y-57100000D01*
X131300000Y-58485523D01*
X131207890Y-58423978D01*
X131089598Y-58374979D01*
X130964019Y-58350000D01*
X130835981Y-58350000D01*
X130710402Y-58374979D01*
X130592110Y-58423978D01*
X130500000Y-58485523D01*
X130500000Y-57100000D01*
X129700011Y-57100000D01*
X129597312Y-57110492D01*
X129597303Y-57110494D01*
X129430879Y-57165642D01*
X129281660Y-57257680D01*
X129157680Y-57381660D01*
X129065642Y-57530879D01*
X129010494Y-57697303D01*
X129010492Y-57697312D01*
X129000000Y-57800011D01*
X120446000Y-57800011D01*
X120446000Y-53875461D01*
X129000000Y-53875461D01*
X129000000Y-54124538D01*
X129032507Y-54371459D01*
X129096973Y-54612048D01*
X129192287Y-54842156D01*
X129302048Y-55032265D01*
X130253367Y-54080946D01*
X130274979Y-54189598D01*
X130323978Y-54307890D01*
X130395112Y-54414351D01*
X130485649Y-54504888D01*
X130592110Y-54576022D01*
X130710402Y-54625021D01*
X130819052Y-54646632D01*
X129867733Y-55597950D01*
X130057849Y-55707714D01*
X130287951Y-55803026D01*
X130528540Y-55867492D01*
X130775461Y-55899999D01*
X130775467Y-55900000D01*
X131024533Y-55900000D01*
X131024538Y-55899999D01*
X131271459Y-55867492D01*
X131512048Y-55803026D01*
X131742150Y-55707714D01*
X131932265Y-55597950D01*
X130980947Y-54646632D01*
X131089598Y-54625021D01*
X131207890Y-54576022D01*
X131314351Y-54504888D01*
X131404888Y-54414351D01*
X131476022Y-54307890D01*
X131525021Y-54189598D01*
X131546632Y-54080947D01*
X132497950Y-55032265D01*
X132607714Y-54842150D01*
X132703026Y-54612048D01*
X132767492Y-54371459D01*
X132799999Y-54124538D01*
X132800000Y-54124533D01*
X132800000Y-53875467D01*
X132799999Y-53875461D01*
X132767492Y-53628540D01*
X132703026Y-53387951D01*
X132607714Y-53157849D01*
X132497950Y-52967733D01*
X131546632Y-53919051D01*
X131525021Y-53810402D01*
X131476022Y-53692110D01*
X131404888Y-53585649D01*
X131314351Y-53495112D01*
X131207890Y-53423978D01*
X131089598Y-53374979D01*
X130980946Y-53353366D01*
X131932265Y-52402048D01*
X131742156Y-52292287D01*
X131512048Y-52196973D01*
X131271459Y-52132507D01*
X131024538Y-52100000D01*
X130775461Y-52100000D01*
X130528540Y-52132507D01*
X130287951Y-52196973D01*
X130057843Y-52292287D01*
X129867733Y-52402048D01*
X130819052Y-53353367D01*
X130710402Y-53374979D01*
X130592110Y-53423978D01*
X130485649Y-53495112D01*
X130395112Y-53585649D01*
X130323978Y-53692110D01*
X130274979Y-53810402D01*
X130253367Y-53919052D01*
X129302048Y-52967733D01*
X129192287Y-53157843D01*
X129096973Y-53387951D01*
X129032507Y-53628540D01*
X129000000Y-53875461D01*
X120446000Y-53875461D01*
X120446000Y-45800011D01*
X129000000Y-45800011D01*
X129000000Y-46600000D01*
X130385523Y-46600000D01*
X130323978Y-46692110D01*
X130274979Y-46810402D01*
X130250000Y-46935981D01*
X130250000Y-47064019D01*
X130274979Y-47189598D01*
X130323978Y-47307890D01*
X130385523Y-47400000D01*
X129000000Y-47400000D01*
X129000000Y-48199988D01*
X129010492Y-48302687D01*
X129010494Y-48302696D01*
X129065642Y-48469120D01*
X129157680Y-48618339D01*
X129281660Y-48742319D01*
X129430879Y-48834357D01*
X129597303Y-48889505D01*
X129597312Y-48889507D01*
X129700011Y-48899999D01*
X129700022Y-48900000D01*
X130500000Y-48900000D01*
X130500000Y-47514476D01*
X130592110Y-47576022D01*
X130710402Y-47625021D01*
X130835981Y-47650000D01*
X130964019Y-47650000D01*
X131089598Y-47625021D01*
X131207890Y-47576022D01*
X131300000Y-47514476D01*
X131300000Y-48900000D01*
X132099978Y-48900000D01*
X132099988Y-48899999D01*
X132202687Y-48889507D01*
X132202696Y-48889505D01*
X132369120Y-48834357D01*
X132518339Y-48742319D01*
X132642319Y-48618339D01*
X132734357Y-48469120D01*
X132789505Y-48302696D01*
X132789507Y-48302687D01*
X132799999Y-48199988D01*
X132800000Y-48199978D01*
X132800000Y-47400000D01*
X131414477Y-47400000D01*
X131476022Y-47307890D01*
X131525021Y-47189598D01*
X131550000Y-47064019D01*
X131550000Y-46935981D01*
X131525021Y-46810402D01*
X131476022Y-46692110D01*
X131414477Y-46600000D01*
X132800000Y-46600000D01*
X132800000Y-45800021D01*
X132799999Y-45800011D01*
X132789507Y-45697312D01*
X132789505Y-45697303D01*
X132734357Y-45530879D01*
X132642319Y-45381660D01*
X132518339Y-45257680D01*
X132369120Y-45165642D01*
X132202696Y-45110494D01*
X132202687Y-45110492D01*
X132099988Y-45100000D01*
X131300000Y-45100000D01*
X131300000Y-46485523D01*
X131207890Y-46423978D01*
X131089598Y-46374979D01*
X130964019Y-46350000D01*
X130835981Y-46350000D01*
X130710402Y-46374979D01*
X130592110Y-46423978D01*
X130500000Y-46485523D01*
X130500000Y-45100000D01*
X129700011Y-45100000D01*
X129597312Y-45110492D01*
X129597303Y-45110494D01*
X129430879Y-45165642D01*
X129281660Y-45257680D01*
X129157680Y-45381660D01*
X129065642Y-45530879D01*
X129010494Y-45697303D01*
X129010492Y-45697312D01*
X129000000Y-45800011D01*
X120446000Y-45800011D01*
X120446000Y-41875461D01*
X129000000Y-41875461D01*
X129000000Y-42124538D01*
X129032507Y-42371459D01*
X129096973Y-42612048D01*
X129192287Y-42842156D01*
X129302048Y-43032265D01*
X130253367Y-42080946D01*
X130274979Y-42189598D01*
X130323978Y-42307890D01*
X130395112Y-42414351D01*
X130485649Y-42504888D01*
X130592110Y-42576022D01*
X130710402Y-42625021D01*
X130819052Y-42646632D01*
X129867733Y-43597950D01*
X130057849Y-43707714D01*
X130287951Y-43803026D01*
X130528540Y-43867492D01*
X130775461Y-43899999D01*
X130775467Y-43900000D01*
X131024533Y-43900000D01*
X131024538Y-43899999D01*
X131271459Y-43867492D01*
X131512048Y-43803026D01*
X131742150Y-43707714D01*
X131932265Y-43597950D01*
X130980947Y-42646632D01*
X131089598Y-42625021D01*
X131207890Y-42576022D01*
X131314351Y-42504888D01*
X131404888Y-42414351D01*
X131476022Y-42307890D01*
X131525021Y-42189598D01*
X131546632Y-42080947D01*
X132497950Y-43032265D01*
X132607714Y-42842150D01*
X132703026Y-42612048D01*
X132767492Y-42371459D01*
X132799999Y-42124538D01*
X132800000Y-42124533D01*
X132800000Y-41875467D01*
X132799999Y-41875461D01*
X132767492Y-41628540D01*
X132703026Y-41387951D01*
X132607714Y-41157849D01*
X132497950Y-40967733D01*
X131546632Y-41919051D01*
X131525021Y-41810402D01*
X131476022Y-41692110D01*
X131404888Y-41585649D01*
X131314351Y-41495112D01*
X131207890Y-41423978D01*
X131089598Y-41374979D01*
X130980946Y-41353366D01*
X131932265Y-40402048D01*
X131742156Y-40292287D01*
X131512048Y-40196973D01*
X131271459Y-40132507D01*
X131024538Y-40100000D01*
X130775461Y-40100000D01*
X130528540Y-40132507D01*
X130287951Y-40196973D01*
X130057843Y-40292287D01*
X129867733Y-40402048D01*
X130819052Y-41353367D01*
X130710402Y-41374979D01*
X130592110Y-41423978D01*
X130485649Y-41495112D01*
X130395112Y-41585649D01*
X130323978Y-41692110D01*
X130274979Y-41810402D01*
X130253367Y-41919052D01*
X129302048Y-40967733D01*
X129192287Y-41157843D01*
X129096973Y-41387951D01*
X129032507Y-41628540D01*
X129000000Y-41875461D01*
X120446000Y-41875461D01*
X120446000Y-21900289D01*
X120457342Y-21843270D01*
X120481873Y-21784044D01*
X120515237Y-21703497D01*
X120546000Y-21548842D01*
X120546000Y-21391158D01*
X120515237Y-21236503D01*
X120454894Y-21090821D01*
X120367289Y-20959711D01*
X120255789Y-20848211D01*
X120124679Y-20760606D01*
X120124678Y-20760605D01*
X120124676Y-20760604D01*
X119978998Y-20700263D01*
X119978994Y-20700262D01*
X119824342Y-20669500D01*
X119666658Y-20669500D01*
X119512005Y-20700262D01*
X119512001Y-20700263D01*
X119366323Y-20760604D01*
X119235207Y-20848214D01*
X119123714Y-20959707D01*
X119036104Y-21090823D01*
X118975763Y-21236501D01*
X118975762Y-21236505D01*
X118945000Y-21391157D01*
X118945000Y-21548842D01*
X118975762Y-21703494D01*
X118975763Y-21703498D01*
X119033658Y-21843270D01*
X119045000Y-21900289D01*
X119045000Y-117074497D01*
X119071919Y-117209827D01*
X119071920Y-117209829D01*
X119124720Y-117337302D01*
X119124723Y-117337308D01*
X119124725Y-117337311D01*
X119201386Y-117452043D01*
X119201389Y-117452046D01*
X122110344Y-120361001D01*
X122148908Y-120427796D01*
X122148908Y-120504924D01*
X122110344Y-120571719D01*
X122043549Y-120610283D01*
X122028294Y-120613526D01*
X121843756Y-120642754D01*
X121641594Y-120708441D01*
X121641588Y-120708443D01*
X121641582Y-120708445D01*
X121641582Y-120708446D01*
X121452182Y-120804950D01*
X121452181Y-120804950D01*
X121280209Y-120929895D01*
X121280206Y-120929897D01*
X121129897Y-121080206D01*
X121129895Y-121080209D01*
X121010544Y-121244482D01*
X120950604Y-121293020D01*
X120874425Y-121305086D01*
X120802420Y-121277446D01*
X120769456Y-121244482D01*
X120707236Y-121158844D01*
X120650104Y-121080208D01*
X120499792Y-120929896D01*
X120327816Y-120804949D01*
X120138412Y-120708443D01*
X119936243Y-120642754D01*
X119726287Y-120609500D01*
X119513713Y-120609500D01*
X119338749Y-120637211D01*
X119303756Y-120642754D01*
X119101594Y-120708441D01*
X119101588Y-120708443D01*
X119101582Y-120708445D01*
X119101582Y-120708446D01*
X118912182Y-120804950D01*
X118912181Y-120804950D01*
X118740209Y-120929895D01*
X118740206Y-120929897D01*
X118589897Y-121080206D01*
X118589895Y-121080209D01*
X118470544Y-121244482D01*
X118410604Y-121293020D01*
X118334425Y-121305086D01*
X118262420Y-121277446D01*
X118229456Y-121244482D01*
X118167236Y-121158844D01*
X118110104Y-121080208D01*
X117959792Y-120929896D01*
X117787816Y-120804949D01*
X117598412Y-120708443D01*
X117396243Y-120642754D01*
X117186287Y-120609500D01*
X116973713Y-120609500D01*
X116798749Y-120637211D01*
X116763756Y-120642754D01*
X116561594Y-120708441D01*
X116561588Y-120708443D01*
X116561582Y-120708445D01*
X116561582Y-120708446D01*
X116372182Y-120804950D01*
X116372181Y-120804950D01*
X116200209Y-120929895D01*
X116200206Y-120929897D01*
X116163159Y-120966945D01*
X116096364Y-121005509D01*
X116019236Y-121005509D01*
X115952441Y-120966945D01*
X115913877Y-120900150D01*
X115908800Y-120861586D01*
X115908800Y-35101289D01*
X115920142Y-35044270D01*
X115944673Y-34985044D01*
X115978037Y-34904497D01*
X116008800Y-34749842D01*
X116008800Y-34592158D01*
X115978037Y-34437503D01*
X115917694Y-34291821D01*
X115830089Y-34160711D01*
X115718589Y-34049211D01*
X115587479Y-33961606D01*
X115587478Y-33961605D01*
X115587476Y-33961604D01*
X115441798Y-33901263D01*
X115441794Y-33901262D01*
X115287142Y-33870500D01*
X115129458Y-33870500D01*
X114974805Y-33901262D01*
X114974801Y-33901263D01*
X114829123Y-33961604D01*
X114698007Y-34049214D01*
X114586514Y-34160707D01*
X114498904Y-34291823D01*
X114438563Y-34437501D01*
X114438562Y-34437505D01*
X114407800Y-34592157D01*
X112555400Y-34592157D01*
X112555400Y-31814989D01*
X112566742Y-31757970D01*
X112616347Y-31638211D01*
X112624637Y-31618197D01*
X112655400Y-31463542D01*
X112655400Y-31305858D01*
X112624637Y-31151203D01*
X112564294Y-31005521D01*
X112476689Y-30874411D01*
X112365189Y-30762911D01*
X112234079Y-30675306D01*
X112234078Y-30675305D01*
X112234076Y-30675304D01*
X112088398Y-30614963D01*
X112088394Y-30614962D01*
X111933742Y-30584200D01*
X111776058Y-30584200D01*
X111621405Y-30614962D01*
X111621401Y-30614963D01*
X111475723Y-30675304D01*
X111344607Y-30762914D01*
X111233114Y-30874407D01*
X111145504Y-31005523D01*
X111085163Y-31151201D01*
X111085162Y-31151205D01*
X111054400Y-31305857D01*
X111054400Y-31463542D01*
X111085162Y-31618194D01*
X111085163Y-31618198D01*
X111143058Y-31757970D01*
X111154400Y-31814989D01*
X111154400Y-39601325D01*
X111134438Y-39675825D01*
X111079900Y-39730363D01*
X111005400Y-39750325D01*
X110930900Y-39730363D01*
X110900041Y-39706684D01*
X97634141Y-26440784D01*
X97595577Y-26373989D01*
X97590500Y-26335425D01*
X97590500Y-25499499D01*
X97610462Y-25424999D01*
X97665000Y-25370461D01*
X97739500Y-25350499D01*
X99057864Y-25350499D01*
X99057872Y-25350499D01*
X99117483Y-25344091D01*
X99250996Y-25294294D01*
X99252329Y-25293797D01*
X99252333Y-25293795D01*
X99309938Y-25250671D01*
X99367546Y-25207546D01*
X99453796Y-25092331D01*
X99504091Y-24957483D01*
X99510500Y-24897873D01*
X99510499Y-23102128D01*
X99504091Y-23042517D01*
X99489588Y-23003633D01*
X99453797Y-22907670D01*
X99453795Y-22907666D01*
X99367547Y-22792455D01*
X99367544Y-22792452D01*
X99252333Y-22706204D01*
X99252329Y-22706202D01*
X99117482Y-22655908D01*
X99057876Y-22649500D01*
X97262136Y-22649500D01*
X97262111Y-22649502D01*
X97202521Y-22655908D01*
X97202515Y-22655909D01*
X97172747Y-22667012D01*
X97095968Y-22674341D01*
X97025810Y-22642299D01*
X97015321Y-22632764D01*
X96562446Y-22179889D01*
X96562443Y-22179886D01*
X96447711Y-22103225D01*
X96447708Y-22103223D01*
X96447702Y-22103220D01*
X96320229Y-22050420D01*
X96320227Y-22050419D01*
X96184897Y-22023500D01*
X96184894Y-22023500D01*
X96184893Y-22023500D01*
X91884994Y-22023500D01*
X91747007Y-22023500D01*
X91611674Y-22050419D01*
X91611670Y-22050420D01*
X91484197Y-22103220D01*
X91484184Y-22103228D01*
X91369458Y-22179885D01*
X91369453Y-22179889D01*
X90918856Y-22630485D01*
X90852061Y-22669049D01*
X90790189Y-22672292D01*
X90646287Y-22649500D01*
X90433713Y-22649500D01*
X90258749Y-22677211D01*
X90223756Y-22682754D01*
X90044920Y-22740862D01*
X90021588Y-22748443D01*
X90021582Y-22748445D01*
X90021582Y-22748446D01*
X89832182Y-22844950D01*
X89832181Y-22844950D01*
X89660209Y-22969895D01*
X89660206Y-22969897D01*
X89509897Y-23120206D01*
X89509895Y-23120209D01*
X89390544Y-23284482D01*
X89330604Y-23333020D01*
X89254425Y-23345086D01*
X89182420Y-23317446D01*
X89149456Y-23284482D01*
X89087236Y-23198844D01*
X89030104Y-23120208D01*
X88879792Y-22969896D01*
X88707816Y-22844949D01*
X88518412Y-22748443D01*
X88316243Y-22682754D01*
X88106287Y-22649500D01*
X87893713Y-22649500D01*
X87718749Y-22677211D01*
X87683756Y-22682754D01*
X87504920Y-22740862D01*
X87481588Y-22748443D01*
X87481582Y-22748445D01*
X87481582Y-22748446D01*
X87292182Y-22844950D01*
X87292181Y-22844950D01*
X87120209Y-22969895D01*
X87120206Y-22969897D01*
X86969897Y-23120206D01*
X86969895Y-23120209D01*
X86850544Y-23284482D01*
X86790604Y-23333020D01*
X86714425Y-23345086D01*
X86642420Y-23317446D01*
X86609456Y-23284482D01*
X86547236Y-23198844D01*
X86490104Y-23120208D01*
X86339792Y-22969896D01*
X86167816Y-22844949D01*
X85978412Y-22748443D01*
X85776243Y-22682754D01*
X85566287Y-22649500D01*
X85353713Y-22649500D01*
X85178749Y-22677211D01*
X85143756Y-22682754D01*
X84964920Y-22740862D01*
X84941588Y-22748443D01*
X84941582Y-22748445D01*
X84941582Y-22748446D01*
X84752182Y-22844950D01*
X84752181Y-22844950D01*
X84580209Y-22969895D01*
X84580206Y-22969897D01*
X84429897Y-23120206D01*
X84429895Y-23120209D01*
X84310544Y-23284482D01*
X84250604Y-23333020D01*
X84174425Y-23345086D01*
X84102420Y-23317446D01*
X84069456Y-23284482D01*
X84007236Y-23198844D01*
X83950104Y-23120208D01*
X83799792Y-22969896D01*
X83627816Y-22844949D01*
X83438412Y-22748443D01*
X83236243Y-22682754D01*
X83026287Y-22649500D01*
X82813713Y-22649500D01*
X82638749Y-22677211D01*
X82603756Y-22682754D01*
X82424920Y-22740862D01*
X82401588Y-22748443D01*
X82401582Y-22748445D01*
X82401582Y-22748446D01*
X82212182Y-22844950D01*
X82212181Y-22844950D01*
X82040209Y-22969895D01*
X82040206Y-22969897D01*
X81889897Y-23120206D01*
X81889895Y-23120209D01*
X81770544Y-23284482D01*
X81710604Y-23333020D01*
X81634425Y-23345086D01*
X81562420Y-23317446D01*
X81529456Y-23284482D01*
X81467236Y-23198844D01*
X81410104Y-23120208D01*
X81259792Y-22969896D01*
X81087816Y-22844949D01*
X80898412Y-22748443D01*
X80696243Y-22682754D01*
X80486287Y-22649500D01*
X80273713Y-22649500D01*
X80177757Y-22664698D01*
X80129809Y-22672292D01*
X80053103Y-22664229D01*
X80001142Y-22630485D01*
X78846946Y-21476289D01*
X78846943Y-21476286D01*
X78732211Y-21399625D01*
X78732208Y-21399623D01*
X78732202Y-21399620D01*
X78604729Y-21346820D01*
X78604727Y-21346819D01*
X78469397Y-21319900D01*
X78469394Y-21319900D01*
X78469393Y-21319900D01*
X75149000Y-21319900D01*
X75074500Y-21299938D01*
X75019962Y-21245400D01*
X75000000Y-21170900D01*
X75000000Y-14649000D01*
X75019962Y-14574500D01*
X75074500Y-14519962D01*
X75149000Y-14500000D01*
X140451297Y-14500000D01*
X140487501Y-14504465D01*
G37*
%TD.AperFunction*%
%TA.AperFunction,Conductor*%
G36*
X96140200Y-25329309D02*
G01*
X96182207Y-25393994D01*
X96189500Y-25440038D01*
X96189500Y-26756297D01*
X96216419Y-26891627D01*
X96216420Y-26891629D01*
X96269220Y-27019102D01*
X96269223Y-27019108D01*
X96269225Y-27019111D01*
X96345886Y-27133843D01*
X96345889Y-27133846D01*
X99107184Y-29895141D01*
X99145748Y-29961936D01*
X99145748Y-30039064D01*
X99107184Y-30105859D01*
X99040389Y-30144423D01*
X99001825Y-30149500D01*
X98878706Y-30149500D01*
X98638218Y-30181160D01*
X98403896Y-30243947D01*
X98179783Y-30336778D01*
X97969712Y-30458063D01*
X97969711Y-30458064D01*
X97777262Y-30605735D01*
X97777260Y-30605736D01*
X97777256Y-30605740D01*
X97605740Y-30777256D01*
X97458063Y-30969712D01*
X97336778Y-31179783D01*
X97243947Y-31403896D01*
X97181160Y-31638218D01*
X97149500Y-31878706D01*
X97149500Y-32121293D01*
X97181160Y-32361781D01*
X97181161Y-32361787D01*
X97181162Y-32361789D01*
X97243946Y-32596100D01*
X97336776Y-32820212D01*
X97458064Y-33030289D01*
X97605735Y-33222738D01*
X97777262Y-33394265D01*
X97969711Y-33541936D01*
X98179788Y-33663224D01*
X98403900Y-33756054D01*
X98638211Y-33818838D01*
X98638217Y-33818838D01*
X98638218Y-33818839D01*
X98703600Y-33827446D01*
X98878712Y-33850500D01*
X99121288Y-33850500D01*
X99361789Y-33818838D01*
X99596100Y-33756054D01*
X99820212Y-33663224D01*
X100030289Y-33541936D01*
X100222738Y-33394265D01*
X100394265Y-33222738D01*
X100541936Y-33030289D01*
X100663224Y-32820212D01*
X100756054Y-32596100D01*
X100818838Y-32361789D01*
X100850500Y-32121288D01*
X100850500Y-31998175D01*
X100870462Y-31923675D01*
X100925000Y-31869137D01*
X100999500Y-31849175D01*
X101074000Y-31869137D01*
X101104859Y-31892816D01*
X110471459Y-41259416D01*
X110510023Y-41326211D01*
X110515100Y-41364775D01*
X110515100Y-42099879D01*
X110495138Y-42174379D01*
X110440600Y-42228917D01*
X110366100Y-42248879D01*
X110291600Y-42228917D01*
X110227378Y-42191838D01*
X109997210Y-42096499D01*
X109997208Y-42096498D01*
X109997207Y-42096498D01*
X109756565Y-42032018D01*
X109756563Y-42032017D01*
X109756557Y-42032016D01*
X109509570Y-41999500D01*
X109509565Y-41999500D01*
X109260435Y-41999500D01*
X109260429Y-41999500D01*
X109013442Y-42032016D01*
X108772789Y-42096499D01*
X108542622Y-42191838D01*
X108326874Y-42316400D01*
X108129222Y-42468063D01*
X107953063Y-42644222D01*
X107801400Y-42841874D01*
X107676838Y-43057622D01*
X107581499Y-43287789D01*
X107517016Y-43528442D01*
X107484500Y-43775429D01*
X107484500Y-44024570D01*
X107517016Y-44271557D01*
X107517017Y-44271563D01*
X107517018Y-44271565D01*
X107581498Y-44512207D01*
X107676836Y-44742373D01*
X107801401Y-44958127D01*
X107953062Y-45155776D01*
X108129224Y-45331938D01*
X108326873Y-45483599D01*
X108542627Y-45608164D01*
X108772793Y-45703502D01*
X109013435Y-45767982D01*
X109013441Y-45767982D01*
X109013442Y-45767983D01*
X109080586Y-45776822D01*
X109260435Y-45800500D01*
X109509565Y-45800500D01*
X109756565Y-45767982D01*
X109997207Y-45703502D01*
X110227373Y-45608164D01*
X110291599Y-45571082D01*
X110366099Y-45551120D01*
X110440599Y-45571082D01*
X110495137Y-45625619D01*
X110515100Y-45700119D01*
X110515100Y-59099879D01*
X110495138Y-59174379D01*
X110440600Y-59228917D01*
X110366100Y-59248879D01*
X110291600Y-59228917D01*
X110227378Y-59191838D01*
X109997210Y-59096499D01*
X109997208Y-59096498D01*
X109997207Y-59096498D01*
X109756565Y-59032018D01*
X109756563Y-59032017D01*
X109756557Y-59032016D01*
X109509570Y-58999500D01*
X109509565Y-58999500D01*
X109260435Y-58999500D01*
X109260429Y-58999500D01*
X109013442Y-59032016D01*
X108772789Y-59096499D01*
X108542622Y-59191838D01*
X108326874Y-59316400D01*
X108129222Y-59468063D01*
X107953063Y-59644222D01*
X107801400Y-59841874D01*
X107676838Y-60057622D01*
X107581499Y-60287789D01*
X107517016Y-60528442D01*
X107484500Y-60775429D01*
X107484500Y-61024570D01*
X107517016Y-61271557D01*
X107517017Y-61271563D01*
X107517018Y-61271565D01*
X107581498Y-61512207D01*
X107676836Y-61742373D01*
X107801401Y-61958127D01*
X107953062Y-62155776D01*
X108129224Y-62331938D01*
X108326873Y-62483599D01*
X108542627Y-62608164D01*
X108772793Y-62703502D01*
X109013435Y-62767982D01*
X109013441Y-62767982D01*
X109013442Y-62767983D01*
X109080586Y-62776822D01*
X109260435Y-62800500D01*
X109509565Y-62800500D01*
X109756565Y-62767982D01*
X109997207Y-62703502D01*
X110227373Y-62608164D01*
X110291599Y-62571082D01*
X110366099Y-62551120D01*
X110440599Y-62571082D01*
X110495137Y-62625619D01*
X110515100Y-62700119D01*
X110515100Y-76099879D01*
X110495138Y-76174379D01*
X110440600Y-76228917D01*
X110366100Y-76248879D01*
X110291600Y-76228917D01*
X110227378Y-76191838D01*
X109997210Y-76096499D01*
X109997208Y-76096498D01*
X109997207Y-76096498D01*
X109756565Y-76032018D01*
X109756563Y-76032017D01*
X109756557Y-76032016D01*
X109509570Y-75999500D01*
X109509565Y-75999500D01*
X109260435Y-75999500D01*
X109260429Y-75999500D01*
X109013442Y-76032016D01*
X108772789Y-76096499D01*
X108542622Y-76191838D01*
X108326874Y-76316400D01*
X108129222Y-76468063D01*
X107953063Y-76644222D01*
X107801400Y-76841874D01*
X107676838Y-77057622D01*
X107581499Y-77287789D01*
X107517016Y-77528442D01*
X107484500Y-77775429D01*
X107484500Y-77970306D01*
X107464538Y-78044806D01*
X107440859Y-78075665D01*
X78586174Y-106930352D01*
X78586165Y-106930363D01*
X78470477Y-107089593D01*
X78470474Y-107089598D01*
X78380580Y-107266024D01*
X78379306Y-107270545D01*
X78320290Y-107452178D01*
X78309006Y-107523423D01*
X78289500Y-107646583D01*
X78289500Y-107646587D01*
X78289500Y-119476183D01*
X78269538Y-119550683D01*
X78215000Y-119605221D01*
X78140500Y-119625183D01*
X78066000Y-119605221D01*
X78023641Y-119568622D01*
X78019927Y-119563928D01*
X77963589Y-119479611D01*
X77914016Y-119430038D01*
X77908641Y-119423243D01*
X77896675Y-119395519D01*
X77881577Y-119369368D01*
X77879904Y-119356661D01*
X77878078Y-119352430D01*
X77878674Y-119347319D01*
X77876500Y-119330804D01*
X77876500Y-94775429D01*
X85284500Y-94775429D01*
X85284500Y-95024570D01*
X85317016Y-95271557D01*
X85317017Y-95271563D01*
X85317018Y-95271565D01*
X85381498Y-95512207D01*
X85476836Y-95742373D01*
X85601401Y-95958127D01*
X85753062Y-96155776D01*
X85929224Y-96331938D01*
X86126873Y-96483599D01*
X86342627Y-96608164D01*
X86572793Y-96703502D01*
X86813435Y-96767982D01*
X86813441Y-96767982D01*
X86813442Y-96767983D01*
X86880586Y-96776822D01*
X87060435Y-96800500D01*
X87309565Y-96800500D01*
X87556565Y-96767982D01*
X87797207Y-96703502D01*
X88027373Y-96608164D01*
X88243127Y-96483599D01*
X88440776Y-96331938D01*
X88616938Y-96155776D01*
X88768599Y-95958127D01*
X88893164Y-95742373D01*
X88988502Y-95512207D01*
X89052982Y-95271565D01*
X89085500Y-95024565D01*
X89085500Y-94775435D01*
X89052982Y-94528435D01*
X88988502Y-94287793D01*
X88893164Y-94057627D01*
X88768599Y-93841873D01*
X88616938Y-93644224D01*
X88440776Y-93468062D01*
X88243127Y-93316401D01*
X88171209Y-93274879D01*
X88027377Y-93191838D01*
X88027375Y-93191837D01*
X88027373Y-93191836D01*
X87892548Y-93135989D01*
X87797210Y-93096499D01*
X87797208Y-93096498D01*
X87797207Y-93096498D01*
X87556565Y-93032018D01*
X87556563Y-93032017D01*
X87556557Y-93032016D01*
X87309570Y-92999500D01*
X87309565Y-92999500D01*
X87060435Y-92999500D01*
X87060429Y-92999500D01*
X86813442Y-93032016D01*
X86572789Y-93096499D01*
X86342622Y-93191838D01*
X86126874Y-93316400D01*
X85929222Y-93468063D01*
X85753063Y-93644222D01*
X85601400Y-93841874D01*
X85476838Y-94057622D01*
X85381499Y-94287789D01*
X85317016Y-94528442D01*
X85284500Y-94775429D01*
X77876500Y-94775429D01*
X77876500Y-74117266D01*
X77896462Y-74042766D01*
X77951000Y-73988228D01*
X78025500Y-73968266D01*
X78071543Y-73975558D01*
X78226332Y-74025853D01*
X78459608Y-74062800D01*
X81164055Y-74062800D01*
X81238555Y-74082762D01*
X81269413Y-74106440D01*
X83294988Y-76132016D01*
X85263435Y-78100463D01*
X85301999Y-78167258D01*
X85305801Y-78186373D01*
X85317015Y-78271551D01*
X85317017Y-78271563D01*
X85317018Y-78271565D01*
X85381498Y-78512207D01*
X85476836Y-78742373D01*
X85601401Y-78958127D01*
X85753062Y-79155776D01*
X85929224Y-79331938D01*
X86126873Y-79483599D01*
X86342627Y-79608164D01*
X86572793Y-79703502D01*
X86813435Y-79767982D01*
X86813441Y-79767982D01*
X86813442Y-79767983D01*
X86880586Y-79776822D01*
X87060435Y-79800500D01*
X87309565Y-79800500D01*
X87556565Y-79767982D01*
X87797207Y-79703502D01*
X88027373Y-79608164D01*
X88243127Y-79483599D01*
X88440776Y-79331938D01*
X88616938Y-79155776D01*
X88768599Y-78958127D01*
X88893164Y-78742373D01*
X88988502Y-78512207D01*
X89052982Y-78271565D01*
X89085500Y-78024565D01*
X89085500Y-77775435D01*
X89052982Y-77528435D01*
X88988502Y-77287793D01*
X88893164Y-77057627D01*
X88768599Y-76841873D01*
X88616938Y-76644224D01*
X88440776Y-76468062D01*
X88243127Y-76316401D01*
X88035448Y-76196498D01*
X88027377Y-76191838D01*
X88027375Y-76191837D01*
X88027373Y-76191836D01*
X87882955Y-76132016D01*
X87797210Y-76096499D01*
X87797208Y-76096498D01*
X87797207Y-76096498D01*
X87725717Y-76077342D01*
X87556563Y-76032017D01*
X87556551Y-76032015D01*
X87471373Y-76020801D01*
X87400116Y-75991285D01*
X87385463Y-75978435D01*
X87350250Y-75943222D01*
X82824810Y-71417783D01*
X82824806Y-71417780D01*
X82824803Y-71417777D01*
X82633735Y-71278958D01*
X82633734Y-71278957D01*
X82423292Y-71171732D01*
X82198668Y-71098747D01*
X81965392Y-71061800D01*
X78459608Y-71061800D01*
X78300135Y-71087057D01*
X78226336Y-71098746D01*
X78226333Y-71098746D01*
X78226332Y-71098747D01*
X78166890Y-71118061D01*
X78071543Y-71149041D01*
X77994520Y-71153077D01*
X77925799Y-71118061D01*
X77883792Y-71053376D01*
X77876500Y-71007333D01*
X77876500Y-60775461D01*
X85285000Y-60775461D01*
X85285000Y-61024538D01*
X85317507Y-61271459D01*
X85381973Y-61512048D01*
X85477287Y-61742156D01*
X85587048Y-61932265D01*
X86453323Y-61065989D01*
X86463822Y-61118767D01*
X86520359Y-61255258D01*
X86602437Y-61378097D01*
X86706903Y-61482563D01*
X86829742Y-61564641D01*
X86966233Y-61621178D01*
X87019008Y-61631675D01*
X86152733Y-62497950D01*
X86342849Y-62607714D01*
X86572951Y-62703026D01*
X86813540Y-62767492D01*
X87060461Y-62799999D01*
X87060467Y-62800000D01*
X87309533Y-62800000D01*
X87309538Y-62799999D01*
X87556459Y-62767492D01*
X87797048Y-62703026D01*
X88027150Y-62607714D01*
X88217265Y-62497950D01*
X87350990Y-61631675D01*
X87403767Y-61621178D01*
X87540258Y-61564641D01*
X87663097Y-61482563D01*
X87767563Y-61378097D01*
X87849641Y-61255258D01*
X87906178Y-61118767D01*
X87916675Y-61065990D01*
X88782950Y-61932265D01*
X88892714Y-61742150D01*
X88988026Y-61512048D01*
X89052492Y-61271459D01*
X89084999Y-61024538D01*
X89085000Y-61024533D01*
X89085000Y-60775467D01*
X89084999Y-60775461D01*
X89052492Y-60528540D01*
X88988026Y-60287951D01*
X88892714Y-60057849D01*
X88782950Y-59867733D01*
X87916675Y-60734008D01*
X87906178Y-60681233D01*
X87849641Y-60544742D01*
X87767563Y-60421903D01*
X87663097Y-60317437D01*
X87540258Y-60235359D01*
X87403767Y-60178822D01*
X87350989Y-60168323D01*
X88217265Y-59302048D01*
X88027156Y-59192287D01*
X87797048Y-59096973D01*
X87556459Y-59032507D01*
X87309538Y-59000000D01*
X87060461Y-59000000D01*
X86813540Y-59032507D01*
X86572951Y-59096973D01*
X86342843Y-59192287D01*
X86152733Y-59302048D01*
X87019009Y-60168324D01*
X86966233Y-60178822D01*
X86829742Y-60235359D01*
X86706903Y-60317437D01*
X86602437Y-60421903D01*
X86520359Y-60544742D01*
X86463822Y-60681233D01*
X86453324Y-60734009D01*
X85587048Y-59867733D01*
X85477287Y-60057843D01*
X85381973Y-60287951D01*
X85317507Y-60528540D01*
X85285000Y-60775461D01*
X77876500Y-60775461D01*
X77876500Y-43775461D01*
X85285000Y-43775461D01*
X85285000Y-44024538D01*
X85317507Y-44271459D01*
X85381973Y-44512048D01*
X85477287Y-44742156D01*
X85587048Y-44932265D01*
X86453323Y-44065989D01*
X86463822Y-44118767D01*
X86520359Y-44255258D01*
X86602437Y-44378097D01*
X86706903Y-44482563D01*
X86829742Y-44564641D01*
X86966233Y-44621178D01*
X87019008Y-44631675D01*
X86152733Y-45497950D01*
X86342849Y-45607714D01*
X86572951Y-45703026D01*
X86813540Y-45767492D01*
X87060461Y-45799999D01*
X87060467Y-45800000D01*
X87309533Y-45800000D01*
X87309538Y-45799999D01*
X87556459Y-45767492D01*
X87797048Y-45703026D01*
X88027150Y-45607714D01*
X88217265Y-45497950D01*
X87350990Y-44631675D01*
X87403767Y-44621178D01*
X87540258Y-44564641D01*
X87663097Y-44482563D01*
X87767563Y-44378097D01*
X87849641Y-44255258D01*
X87906178Y-44118767D01*
X87916675Y-44065990D01*
X88782950Y-44932265D01*
X88892714Y-44742150D01*
X88988026Y-44512048D01*
X89052492Y-44271459D01*
X89084999Y-44024538D01*
X89085000Y-44024533D01*
X89085000Y-43775467D01*
X89084999Y-43775461D01*
X89052492Y-43528540D01*
X88988026Y-43287951D01*
X88892714Y-43057849D01*
X88782950Y-42867733D01*
X87916675Y-43734008D01*
X87906178Y-43681233D01*
X87849641Y-43544742D01*
X87767563Y-43421903D01*
X87663097Y-43317437D01*
X87540258Y-43235359D01*
X87403767Y-43178822D01*
X87350989Y-43168323D01*
X88217265Y-42302048D01*
X88027156Y-42192287D01*
X87797048Y-42096973D01*
X87556459Y-42032507D01*
X87309538Y-42000000D01*
X87060461Y-42000000D01*
X86813540Y-42032507D01*
X86572951Y-42096973D01*
X86342843Y-42192287D01*
X86152733Y-42302048D01*
X87019009Y-43168324D01*
X86966233Y-43178822D01*
X86829742Y-43235359D01*
X86706903Y-43317437D01*
X86602437Y-43421903D01*
X86520359Y-43544742D01*
X86463822Y-43681233D01*
X86453324Y-43734009D01*
X85587048Y-42867733D01*
X85477287Y-43057843D01*
X85381973Y-43287951D01*
X85317507Y-43528540D01*
X85285000Y-43775461D01*
X77876500Y-43775461D01*
X77876500Y-42795874D01*
X77896462Y-42721374D01*
X77920137Y-42690519D01*
X95241143Y-25369512D01*
X95307936Y-25330950D01*
X95369805Y-25327707D01*
X95513713Y-25350500D01*
X95513718Y-25350500D01*
X95726282Y-25350500D01*
X95726287Y-25350500D01*
X95936243Y-25317246D01*
X95994457Y-25298330D01*
X96071478Y-25294294D01*
X96140200Y-25329309D01*
G37*
%TD.AperFunction*%
%TD*%
M02*
