M48
; DRILL file KiCad 10.0.0 date 2026-03-30T19:01:34
; FORMAT={-:-/ absolute / metric / decimal}
; #@! TF.CreationDate,2026-03-30T19:01:34-04:00
; #@! TF.GenerationSoftware,Kicad,Pcbnew,10.0.0
; #@! TF.FileFunction,MixedPlating,1,2
FMAT,2
METRIC
; #@! TA.AperFunction,Plated,PTH,ViaDrill
T1C0.300
; #@! TA.AperFunction,Plated,PTH,ComponentDrill
T2C1.000
; #@! TA.AperFunction,Plated,PTH,ComponentDrill
T3C1.300
; #@! TA.AperFunction,Plated,PTH,ComponentDrill
T4C1.500
; #@! TA.AperFunction,NonPlated,NPTH,ComponentDrill
T5C3.200
%
G90
G05
T1
X45.697Y-38.011
X57.102Y-124.752
X59.076Y-127.753
X63.003Y-106.782
X64.75Y-28.491
X64.856Y-36.403
X69.844Y-56.073
X70.612Y-32.248
X73.173Y-123.596
X73.217Y-76.991
X73.234Y-27.776
X79.006Y-121.236
X84.377Y-124.421
X90.082Y-120.018
X93.2Y-56.073
X96.596Y-36.403
X97.496Y-111.372
X98.679Y-117.96
X113.779Y-26.28
T2
X24.0Y-53.68
X24.0Y-56.22
X24.0Y-58.76
X24.0Y-61.3
X24.0Y-65.68
X24.0Y-68.22
X24.0Y-70.76
X24.0Y-73.3
X24.0Y-77.68
X24.0Y-80.22
X24.0Y-82.76
X24.0Y-85.3
X24.0Y-89.68
X24.0Y-92.22
X24.0Y-94.76
X24.0Y-97.3
X24.0Y-101.68
X24.0Y-104.22
X24.0Y-106.76
X24.0Y-109.3
X48.96Y-132.5
X49.22Y-124.3
X51.5Y-132.5
X51.76Y-124.3
X52.44Y-24.0
X54.04Y-132.5
X54.3Y-124.3
X54.98Y-24.0
X57.52Y-24.0
X60.06Y-24.0
X62.6Y-24.0
X62.96Y-132.5
X63.22Y-124.3
X65.14Y-24.0
X65.5Y-132.5
X65.76Y-124.3
X67.68Y-24.0
X68.04Y-132.5
X68.3Y-124.3
X70.22Y-24.0
X72.76Y-24.0
X75.3Y-24.0
X76.96Y-132.5
X77.22Y-124.3
X77.84Y-24.0
X79.5Y-132.5
X79.76Y-124.3
X80.38Y-24.0
X82.04Y-132.5
X82.3Y-124.3
X82.92Y-24.0
X85.46Y-24.0
X88.0Y-24.0
X90.54Y-24.0
X90.96Y-132.5
X91.22Y-124.3
X93.08Y-24.0
X93.5Y-132.5
X93.76Y-124.3
X95.62Y-24.0
X96.04Y-132.5
X96.3Y-124.3
X98.16Y-24.0
X104.96Y-132.5
X105.22Y-124.3
X107.5Y-132.5
X107.76Y-124.3
X110.04Y-132.5
X110.3Y-124.3
X116.46Y-117.96
X116.46Y-120.5
X116.46Y-132.5
X119.0Y-117.96
X119.0Y-120.5
X119.0Y-132.5
X121.54Y-117.96
X121.54Y-120.5
X121.54Y-132.5
X124.08Y-117.96
X124.08Y-120.5
T3
X13.0Y-54.7
X13.0Y-59.7
X13.0Y-66.7
X13.0Y-71.7
X13.0Y-78.7
X13.0Y-83.7
X13.0Y-90.7
X13.0Y-95.7
X13.0Y-102.7
X13.0Y-107.7
X130.9Y-42.0
X130.9Y-47.0
X130.9Y-54.0
X130.9Y-59.0
X130.9Y-66.0
X130.9Y-71.0
X130.9Y-78.0
X130.9Y-83.0
X130.9Y-90.0
X130.9Y-95.0
X130.9Y-102.0
X130.9Y-107.0
T4
X42.685Y-43.9
X42.685Y-60.9
X42.685Y-77.9
X42.685Y-94.9
X42.685Y-111.9
X64.885Y-43.9
X64.885Y-60.9
X64.885Y-77.9
X64.885Y-94.9
X64.885Y-111.9
X87.185Y-43.9
X87.185Y-60.9
X87.185Y-77.9
X87.185Y-94.9
X87.185Y-111.9
X109.385Y-43.9
X109.385Y-60.9
X109.385Y-77.9
X109.385Y-94.9
X109.385Y-111.9
T5
X48.3Y-31.8
X49.3Y-140.5
X99.3Y-140.5
X99.8Y-31.6
M30
