%TF.GenerationSoftware,KiCad,Pcbnew,10.0.0*%
%TF.CreationDate,2026-03-30T17:29:40-04:00*%
%TF.ProjectId,geodude-carrier,67656f64-7564-4652-9d63-617272696572,rev?*%
%TF.SameCoordinates,Original*%
%TF.FileFunction,Copper,L2,Bot*%
%TF.FilePolarity,Positive*%
%FSLAX46Y46*%
G04 Gerber Fmt 4.6, Leading zero omitted, Abs format (unit mm)*
G04 Created by KiCad (PCBNEW 10.0.0) date 2026-03-30 17:29:40*
%MOMM*%
%LPD*%
G01*
G04 APERTURE LIST*
G04 Aperture macros list*
%AMRoundRect*
0 Rectangle with rounded corners*
0 $1 Rounding radius*
0 $2 $3 $4 $5 $6 $7 $8 $9 X,Y pos of 4 corners*
0 Add a 4 corners polygon primitive as box body*
4,1,4,$2,$3,$4,$5,$6,$7,$8,$9,$2,$3,0*
0 Add four circle primitives for the rounded corners*
1,1,$1+$1,$2,$3*
1,1,$1+$1,$4,$5*
1,1,$1+$1,$6,$7*
1,1,$1+$1,$8,$9*
0 Add four rect primitives between the rounded corners*
20,1,$1+$1,$2,$3,$4,$5,0*
20,1,$1+$1,$4,$5,$6,$7,0*
20,1,$1+$1,$6,$7,$8,$9,0*
20,1,$1+$1,$8,$9,$2,$3,0*%
G04 Aperture macros list end*
%TA.AperFunction,ComponentPad*%
%ADD10C,2.800000*%
%TD*%
%TA.AperFunction,ComponentPad*%
%ADD11R,1.700000X1.700000*%
%TD*%
%TA.AperFunction,ComponentPad*%
%ADD12C,1.700000*%
%TD*%
%TA.AperFunction,ComponentPad*%
%ADD13RoundRect,0.250001X1.149999X-1.149999X1.149999X1.149999X-1.149999X1.149999X-1.149999X-1.149999X0*%
%TD*%
%TA.AperFunction,ViaPad*%
%ADD14C,0.600000*%
%TD*%
%TA.AperFunction,Conductor*%
%ADD15C,3.000000*%
%TD*%
%TA.AperFunction,Conductor*%
%ADD16C,0.400000*%
%TD*%
%TA.AperFunction,Conductor*%
%ADD17C,1.000000*%
%TD*%
%TA.AperFunction,Conductor*%
%ADD18C,1.699800*%
%TD*%
%TA.AperFunction,Conductor*%
%ADD19C,0.600000*%
%TD*%
%TA.AperFunction,Conductor*%
%ADD20C,1.500000*%
%TD*%
%TA.AperFunction,Conductor*%
%ADD21C,2.000000*%
%TD*%
G04 APERTURE END LIST*
D10*
%TO.P,F2,1*%
%TO.N,+12V*%
X83185000Y-63000000D03*
%TO.P,F2,2*%
%TO.N,SV2_PWR*%
X105815000Y-63000000D03*
%TD*%
D11*
%TO.P,SV4,1*%
%TO.N,PWM_CH3*%
X137000000Y-135000000D03*
D12*
%TO.P,SV4,2*%
%TO.N,SV4_PWR*%
X139540000Y-135000000D03*
%TO.P,SV4,3*%
%TO.N,GND*%
X142080000Y-135000000D03*
%TD*%
D10*
%TO.P,F6,1*%
%TO.N,+12V*%
X46685000Y-48000000D03*
%TO.P,F6,2*%
%TO.N,SV6_PWR*%
X69315000Y-48000000D03*
%TD*%
D11*
%TO.P,SV2,1*%
%TO.N,PWM_CH1*%
X113000000Y-135000000D03*
D12*
%TO.P,SV2,2*%
%TO.N,SV2_PWR*%
X115540000Y-135000000D03*
%TO.P,SV2,3*%
%TO.N,GND*%
X118080000Y-135000000D03*
%TD*%
D13*
%TO.P,J4,1*%
%TO.N,GND*%
X151600000Y-114200000D03*
D10*
%TO.P,J4,2*%
X151600000Y-109200000D03*
%TD*%
D11*
%TO.P,SV6,1*%
%TO.N,PWM_CH5*%
X41000000Y-150000000D03*
D12*
%TO.P,SV6,2*%
%TO.N,SV6_PWR*%
X43540000Y-150000000D03*
%TO.P,SV6,3*%
%TO.N,GND*%
X46080000Y-150000000D03*
%TD*%
D11*
%TO.P,J41,1*%
%TO.N,SDA*%
X33700000Y-51400000D03*
D12*
%TO.P,J41,2*%
X33700000Y-53940000D03*
%TO.P,J41,3*%
X33700000Y-56480000D03*
%TO.P,J41,4*%
X33700000Y-59020000D03*
%TD*%
D13*
%TO.P,J2,1*%
%TO.N,+12V*%
X151600000Y-58200000D03*
D10*
%TO.P,J2,2*%
X151600000Y-53200000D03*
%TD*%
D13*
%TO.P,J34,1*%
%TO.N,+3V3*%
X23200000Y-79400000D03*
D10*
%TO.P,J34,2*%
X23200000Y-74400000D03*
%TD*%
D13*
%TO.P,J35,1*%
%TO.N,+3V3*%
X23200000Y-91400000D03*
D10*
%TO.P,J35,2*%
X23200000Y-86400000D03*
%TD*%
D13*
%TO.P,J32,1*%
%TO.N,SDA*%
X23200000Y-49400000D03*
D10*
%TO.P,J32,2*%
X23200000Y-44400000D03*
%TD*%
D11*
%TO.P,SV1,1*%
%TO.N,PWM_CH0*%
X101000000Y-135000000D03*
D12*
%TO.P,SV1,2*%
%TO.N,SV1_PWR*%
X103540000Y-135000000D03*
%TO.P,SV1,3*%
%TO.N,GND*%
X106080000Y-135000000D03*
%TD*%
D11*
%TO.P,J_ESC,1*%
%TO.N,PWM_CH11*%
X89000000Y-138000000D03*
D12*
%TO.P,J_ESC,2*%
%TO.N,N/C*%
X91540000Y-138000000D03*
%TO.P,J_ESC,3*%
%TO.N,GND*%
X94080000Y-138000000D03*
%TD*%
D11*
%TO.P,SV3,1*%
%TO.N,PWM_CH2*%
X125000000Y-135000000D03*
D12*
%TO.P,SV3,2*%
%TO.N,SV3_PWR*%
X127540000Y-135000000D03*
%TO.P,SV3,3*%
%TO.N,GND*%
X130080000Y-135000000D03*
%TD*%
D13*
%TO.P,J37,1*%
%TO.N,+5V_LOGIC*%
X23200000Y-109400000D03*
D10*
%TO.P,J37,2*%
X23200000Y-104400000D03*
%TD*%
D11*
%TO.P,J44,1*%
%TO.N,GND_LOGIC*%
X33700000Y-141400000D03*
D12*
%TO.P,J44,2*%
X33700000Y-143940000D03*
%TO.P,J44,3*%
X33700000Y-146480000D03*
%TO.P,J44,4*%
X33700000Y-149020000D03*
%TD*%
D11*
%TO.P,SV10,1*%
%TO.N,PWM_CH9*%
X89000000Y-150000000D03*
D12*
%TO.P,SV10,2*%
%TO.N,SV10_PWR*%
X91540000Y-150000000D03*
%TO.P,SV10,3*%
%TO.N,GND*%
X94080000Y-150000000D03*
%TD*%
D11*
%TO.P,SV7,1*%
%TO.N,PWM_CH6*%
X53000000Y-150000000D03*
D12*
%TO.P,SV7,2*%
%TO.N,SV7_PWR*%
X55540000Y-150000000D03*
%TO.P,SV7,3*%
%TO.N,GND*%
X58080000Y-150000000D03*
%TD*%
D10*
%TO.P,F7,1*%
%TO.N,+12V*%
X46685000Y-63000000D03*
%TO.P,F7,2*%
%TO.N,SV7_PWR*%
X69315000Y-63000000D03*
%TD*%
D13*
%TO.P,J1,1*%
%TO.N,+12V*%
X151600000Y-46200000D03*
D10*
%TO.P,J1,2*%
X151600000Y-41200000D03*
%TD*%
D13*
%TO.P,J36,1*%
%TO.N,+5V_LOGIC*%
X23200000Y-121400000D03*
D10*
%TO.P,J36,2*%
X23200000Y-116400000D03*
%TD*%
D11*
%TO.P,SV9,1*%
%TO.N,PWM_CH8*%
X77000000Y-150000000D03*
D12*
%TO.P,SV9,2*%
%TO.N,SV9_PWR*%
X79540000Y-150000000D03*
%TO.P,SV9,3*%
%TO.N,GND*%
X82080000Y-150000000D03*
%TD*%
D11*
%TO.P,SV5,1*%
%TO.N,PWM_CH4*%
X149000000Y-135000000D03*
D12*
%TO.P,SV5,2*%
%TO.N,SV5_PWR*%
X151540000Y-135000000D03*
%TO.P,SV5,3*%
%TO.N,GND*%
X154080000Y-135000000D03*
%TD*%
D11*
%TO.P,J43,1*%
%TO.N,+5V_LOGIC*%
X33700000Y-111400000D03*
D12*
%TO.P,J43,2*%
X33700000Y-113940000D03*
%TO.P,J43,3*%
X33700000Y-116480000D03*
%TO.P,J43,4*%
X33700000Y-119020000D03*
%TD*%
D13*
%TO.P,J39,1*%
%TO.N,GND_LOGIC*%
X23200000Y-139400000D03*
D10*
%TO.P,J39,2*%
X23200000Y-134400000D03*
%TD*%
D11*
%TO.P,SV8,1*%
%TO.N,PWM_CH7*%
X65000000Y-150000000D03*
D12*
%TO.P,SV8,2*%
%TO.N,SV8_PWR*%
X67540000Y-150000000D03*
%TO.P,SV8,3*%
%TO.N,GND*%
X70080000Y-150000000D03*
%TD*%
D11*
%TO.P,J40,1*%
%TO.N,SCL*%
X33700000Y-21400000D03*
D12*
%TO.P,J40,2*%
X33700000Y-23940000D03*
%TO.P,J40,3*%
X33700000Y-26480000D03*
%TO.P,J40,4*%
X33700000Y-29020000D03*
%TD*%
D13*
%TO.P,J6,1*%
%TO.N,+5V_SERVO*%
X151600000Y-86200000D03*
D10*
%TO.P,J6,2*%
X151600000Y-81200000D03*
%TD*%
%TO.P,F4,1*%
%TO.N,+5V_SERVO*%
X83185000Y-93000000D03*
%TO.P,F4,2*%
%TO.N,SV4_PWR*%
X105815000Y-93000000D03*
%TD*%
%TO.P,F3,1*%
%TO.N,+7V4*%
X83185000Y-78000000D03*
%TO.P,F3,2*%
%TO.N,SV3_PWR*%
X105815000Y-78000000D03*
%TD*%
D13*
%TO.P,J5,1*%
%TO.N,+7V4*%
X151600000Y-74200000D03*
D10*
%TO.P,J5,2*%
X151600000Y-69200000D03*
%TD*%
D13*
%TO.P,J31,1*%
%TO.N,SCL*%
X23200000Y-19400000D03*
D10*
%TO.P,J31,2*%
X23200000Y-14400000D03*
%TD*%
%TO.P,F5,1*%
%TO.N,+5V_SERVO*%
X83185000Y-108000000D03*
%TO.P,F5,2*%
%TO.N,SV5_PWR*%
X105815000Y-108000000D03*
%TD*%
%TO.P,F9,1*%
%TO.N,+5V_SERVO*%
X46685000Y-93000000D03*
%TO.P,F9,2*%
%TO.N,SV9_PWR*%
X69315000Y-93000000D03*
%TD*%
D11*
%TO.P,J42,1*%
%TO.N,+3V3*%
X33700000Y-81400000D03*
D12*
%TO.P,J42,2*%
X33700000Y-83940000D03*
%TO.P,J42,3*%
X33700000Y-86480000D03*
%TO.P,J42,4*%
X33700000Y-89020000D03*
%TD*%
D13*
%TO.P,J38,1*%
%TO.N,GND_LOGIC*%
X23200000Y-151400000D03*
D10*
%TO.P,J38,2*%
X23200000Y-146400000D03*
%TD*%
D13*
%TO.P,J33,1*%
%TO.N,SDA*%
X23200000Y-61400000D03*
D10*
%TO.P,J33,2*%
X23200000Y-56400000D03*
%TD*%
D13*
%TO.P,J3,1*%
%TO.N,GND*%
X151600000Y-102200000D03*
D10*
%TO.P,J3,2*%
X151600000Y-97200000D03*
%TD*%
%TO.P,F8,1*%
%TO.N,+7V4*%
X46685000Y-78000000D03*
%TO.P,F8,2*%
%TO.N,SV8_PWR*%
X69315000Y-78000000D03*
%TD*%
D11*
%TO.P,J_FAN,1*%
%TO.N,PWM_CH12*%
X101000000Y-138000000D03*
D12*
%TO.P,J_FAN,2*%
%TO.N,+12V*%
X103540000Y-138000000D03*
%TO.P,J_FAN,3*%
%TO.N,GND*%
X106080000Y-138000000D03*
%TD*%
D11*
%TO.P,J_PCA,1*%
%TO.N,PWM_CH0*%
X117860000Y-10000000D03*
D12*
%TO.P,J_PCA,2*%
%TO.N,PWM_CH1*%
X115320000Y-10000000D03*
%TO.P,J_PCA,3*%
%TO.N,PWM_CH2*%
X112780000Y-10000000D03*
%TO.P,J_PCA,4*%
%TO.N,PWM_CH3*%
X110240000Y-10000000D03*
%TO.P,J_PCA,5*%
%TO.N,N/C*%
X107700000Y-10000000D03*
%TO.P,J_PCA,6*%
%TO.N,PWM_CH4*%
X105160000Y-10000000D03*
%TO.P,J_PCA,7*%
%TO.N,PWM_CH5*%
X102620000Y-10000000D03*
%TO.P,J_PCA,8*%
%TO.N,PWM_CH6*%
X100080000Y-10000000D03*
%TO.P,J_PCA,9*%
%TO.N,PWM_CH7*%
X97540000Y-10000000D03*
%TO.P,J_PCA,10*%
%TO.N,N/C*%
X95000000Y-10000000D03*
%TO.P,J_PCA,11*%
%TO.N,PWM_CH8*%
X92460000Y-10000000D03*
%TO.P,J_PCA,12*%
%TO.N,PWM_CH9*%
X89920000Y-10000000D03*
%TO.P,J_PCA,13*%
%TO.N,PWM_CH10*%
X87380000Y-10000000D03*
%TO.P,J_PCA,14*%
%TO.N,PWM_CH11*%
X84840000Y-10000000D03*
%TO.P,J_PCA,15*%
%TO.N,N/C*%
X82300000Y-10000000D03*
%TO.P,J_PCA,16*%
%TO.N,PWM_CH12*%
X79760000Y-10000000D03*
%TO.P,J_PCA,17*%
%TO.N,PWM_CH13*%
X77220000Y-10000000D03*
%TO.P,J_PCA,18*%
%TO.N,PWM_CH14*%
X74680000Y-10000000D03*
%TO.P,J_PCA,19*%
%TO.N,PWM_CH15*%
X72140000Y-10000000D03*
%TD*%
D13*
%TO.P,J30,1*%
%TO.N,SCL*%
X23200000Y-31400000D03*
D10*
%TO.P,J30,2*%
X23200000Y-26400000D03*
%TD*%
%TO.P,F1,1*%
%TO.N,+12V*%
X83185000Y-48000000D03*
%TO.P,F1,2*%
%TO.N,SV1_PWR*%
X105815000Y-48000000D03*
%TD*%
%TO.P,F10,1*%
%TO.N,+5V_SERVO*%
X46685000Y-108000000D03*
%TO.P,F10,2*%
%TO.N,SV10_PWR*%
X69315000Y-108000000D03*
%TD*%
D14*
%TO.N,PWM_CH3*%
X131490400Y-131065700D03*
%TO.N,PWM_CH1*%
X117848300Y-132069600D03*
X113599300Y-19468800D03*
%TO.N,PWM_CH5*%
X41000000Y-8083400D03*
%TO.N,PWM_CH11*%
X89000000Y-14160000D03*
%TO.N,PWM_CH2*%
X110892000Y-16189100D03*
%TO.N,PWM_CH6*%
X100080000Y-132069600D03*
%TO.N,PWM_CH4*%
X110175100Y-14201500D03*
X130744400Y-124987600D03*
%TO.N,PWM_CH7*%
X72290900Y-12390800D03*
%TO.N,PWM_CH12*%
X91374000Y-22075100D03*
%TD*%
%TO.N,+12V*%
D15*
X46685000Y-48000000D02*
X49786700Y-51101700D01*
X151600000Y-53200000D02*
X88385000Y-53200000D01*
X88385000Y-53200000D02*
X83185000Y-48000000D01*
X49786700Y-51101700D02*
X80083300Y-51101700D01*
X80083300Y-51101700D02*
X83185000Y-48000000D01*
%TO.N,PWM_CH3*%
D16*
X135424700Y-135000000D02*
X131490400Y-131065700D01*
X137000000Y-135000000D02*
X135424700Y-135000000D01*
%TO.N,SV4_PWR*%
D17*
X131183400Y-126397600D02*
X139540000Y-134754200D01*
X103687000Y-95128000D02*
X103687000Y-108854700D01*
X103687000Y-108854700D02*
X121229900Y-126397600D01*
X139540000Y-134754200D02*
X139540000Y-135000000D01*
X121229900Y-126397600D02*
X131183400Y-126397600D01*
X105815000Y-93000000D02*
X103687000Y-95128000D01*
%TO.N,GND*%
D15*
X94091900Y-150000000D02*
X94091900Y-151068800D01*
X94091900Y-151068800D02*
X92609000Y-152551700D01*
D18*
X82090200Y-152055400D02*
X82090200Y-150010200D01*
X94496200Y-138416200D02*
X94080000Y-138000000D01*
D15*
X94496300Y-140613500D02*
X105532100Y-140613500D01*
D18*
X58614500Y-150534500D02*
X58080000Y-150000000D01*
X46614500Y-150534500D02*
X46080000Y-150000000D01*
X94496300Y-149583700D02*
X94080000Y-150000000D01*
D15*
X120679900Y-137599900D02*
X118614500Y-135534500D01*
D18*
X130080000Y-137065600D02*
X130080000Y-135000000D01*
X106090200Y-138010200D02*
X106080000Y-138000000D01*
X82090200Y-150010200D02*
X82080000Y-150000000D01*
D15*
X94496200Y-138416200D02*
X94496200Y-140613500D01*
X81591200Y-152554400D02*
X70091900Y-152554400D01*
X70091900Y-150000000D02*
X70091900Y-152554400D01*
X70091900Y-152554400D02*
X58614500Y-152554400D01*
X94496200Y-140613500D02*
X94496300Y-140613500D01*
D18*
X106090200Y-140055400D02*
X106090200Y-138010200D01*
D15*
X105532100Y-140613500D02*
X106090200Y-140055400D01*
D18*
X94091900Y-150000000D02*
X94080000Y-150000000D01*
X70091900Y-150000000D02*
X70080000Y-150000000D01*
D15*
X116149000Y-138000000D02*
X118614500Y-135534500D01*
X48634400Y-152554400D02*
X46614500Y-150534500D01*
X92609000Y-152551700D02*
X82586500Y-152551700D01*
X82586500Y-152551700D02*
X82090200Y-152055400D01*
X129545700Y-137599900D02*
X120679900Y-137599900D01*
X130080000Y-137065600D02*
X129545700Y-137599900D01*
D18*
X106091900Y-138000000D02*
X106080000Y-138000000D01*
D15*
X94496300Y-140613500D02*
X94496300Y-149583700D01*
X106091900Y-138000000D02*
X116149000Y-138000000D01*
X58614500Y-152554400D02*
X48634400Y-152554400D01*
X82090200Y-152055400D02*
X81591200Y-152554400D01*
X58614500Y-152554400D02*
X58614500Y-150534500D01*
D18*
X118614500Y-135534500D02*
X118080000Y-135000000D01*
%TO.N,PWM_CH1*%
D16*
X114251700Y-134452400D02*
X114251700Y-135000000D01*
X115320000Y-10000000D02*
X115320000Y-17748100D01*
X115320000Y-17748100D02*
X113599300Y-19468800D01*
X113000000Y-135000000D02*
X114251700Y-135000000D01*
X116634500Y-132069600D02*
X114251700Y-134452400D01*
X117848300Y-132069600D02*
X116634500Y-132069600D01*
%TO.N,PWM_CH5*%
X100703400Y-8083400D02*
X41000000Y-8083400D01*
X102620000Y-10000000D02*
X100703400Y-8083400D01*
%TO.N,SDA*%
X23280000Y-56480000D02*
X23200000Y-56400000D01*
X33700000Y-56480000D02*
X23280000Y-56480000D01*
%TO.N,+3V3*%
D19*
X23280000Y-86480000D02*
X23200000Y-86400000D01*
X33700000Y-86480000D02*
X23280000Y-86480000D01*
%TO.N,PWM_CH11*%
D16*
X84840000Y-10000000D02*
X89000000Y-14160000D01*
%TO.N,PWM_CH2*%
X112780000Y-10000000D02*
X112780000Y-14301100D01*
X112780000Y-14301100D02*
X110892000Y-16189100D01*
%TO.N,+5V_LOGIC*%
D19*
X23280000Y-116480000D02*
X23200000Y-116400000D01*
X33700000Y-116480000D02*
X23280000Y-116480000D01*
%TO.N,GND_LOGIC*%
X33700000Y-146480000D02*
X23280000Y-146480000D01*
X23280000Y-146480000D02*
X23200000Y-146400000D01*
%TO.N,PWM_CH6*%
D16*
X54251700Y-149452400D02*
X71634500Y-132069600D01*
X71634500Y-132069600D02*
X100080000Y-132069600D01*
X53000000Y-150000000D02*
X54251700Y-150000000D01*
X54251700Y-150000000D02*
X54251700Y-149452400D01*
%TO.N,PWM_CH4*%
X130744400Y-124987600D02*
X137735900Y-124987600D01*
X137735900Y-124987600D02*
X147748300Y-135000000D01*
X105160000Y-10000000D02*
X109361500Y-14201500D01*
X149000000Y-135000000D02*
X147748300Y-135000000D01*
X109361500Y-14201500D02*
X110175100Y-14201500D01*
%TO.N,SV5_PWR*%
D17*
X151540000Y-135000000D02*
X151540000Y-134744800D01*
X151540000Y-134744800D02*
X124795200Y-108000000D01*
X124795200Y-108000000D02*
X105815000Y-108000000D01*
%TO.N,PWM_CH7*%
D16*
X76610000Y-12390800D02*
X78490100Y-10510700D01*
X78490100Y-10510700D02*
X78490100Y-9494700D01*
X72290900Y-12390800D02*
X76610000Y-12390800D01*
X79274400Y-8710400D02*
X96250400Y-8710400D01*
X78490100Y-9494700D02*
X79274400Y-8710400D01*
X96250400Y-8710400D02*
X97540000Y-10000000D01*
%TO.N,SCL*%
X33700000Y-26480000D02*
X23280000Y-26480000D01*
X23280000Y-26480000D02*
X23200000Y-26400000D01*
%TO.N,+5V_SERVO*%
D20*
X46685000Y-93000000D02*
X49036700Y-90648300D01*
X49036700Y-90648300D02*
X80833300Y-90648300D01*
X151600000Y-86200000D02*
X89985000Y-86200000D01*
X89985000Y-86200000D02*
X83185000Y-93000000D01*
X80833300Y-90648300D02*
X83185000Y-93000000D01*
%TO.N,+7V4*%
D21*
X151600000Y-74200000D02*
X86985000Y-74200000D01*
X46685000Y-78000000D02*
X49286700Y-75398300D01*
X49286700Y-75398300D02*
X80583300Y-75398300D01*
X80583300Y-75398300D02*
X83185000Y-78000000D01*
X86985000Y-74200000D02*
X83185000Y-78000000D01*
%TO.N,PWM_CH12*%
D16*
X79760000Y-10000000D02*
X91374000Y-21614000D01*
X91374000Y-21614000D02*
X91374000Y-22075100D01*
%TD*%
%TA.AperFunction,Conductor*%
%TO.N,GND*%
G36*
X157425500Y-5569962D02*
G01*
X157480038Y-5624500D01*
X157500000Y-5699000D01*
X157500000Y-156744796D01*
X157480038Y-156819296D01*
X157425500Y-156873834D01*
X157351000Y-156893796D01*
X15049000Y-156893796D01*
X14974500Y-156873834D01*
X14919962Y-156819296D01*
X14900000Y-156744796D01*
X14900000Y-150199992D01*
X21299500Y-150199992D01*
X21299500Y-152600008D01*
X21310001Y-152702797D01*
X21365186Y-152869334D01*
X21457289Y-153018655D01*
X21581345Y-153142711D01*
X21730666Y-153234814D01*
X21897203Y-153289999D01*
X21999992Y-153300500D01*
X21999996Y-153300500D01*
X24400004Y-153300500D01*
X24400008Y-153300500D01*
X24502797Y-153289999D01*
X24669334Y-153234814D01*
X24818655Y-153142711D01*
X24942711Y-153018655D01*
X25034814Y-152869334D01*
X25089999Y-152702797D01*
X25100500Y-152600008D01*
X25100500Y-150199992D01*
X25089999Y-150097203D01*
X25034814Y-149930666D01*
X24942711Y-149781345D01*
X24818655Y-149657289D01*
X24801076Y-149646446D01*
X24669336Y-149565187D01*
X24669335Y-149565186D01*
X24669334Y-149565186D01*
X24585332Y-149537350D01*
X24502798Y-149510001D01*
X24502799Y-149510001D01*
X24468534Y-149506500D01*
X24400008Y-149499500D01*
X21999992Y-149499500D01*
X21931466Y-149506500D01*
X21897201Y-149510001D01*
X21730663Y-149565187D01*
X21581344Y-149657289D01*
X21457289Y-149781344D01*
X21365187Y-149930663D01*
X21310001Y-150097201D01*
X21309073Y-150106287D01*
X21299500Y-150199992D01*
X14900000Y-150199992D01*
X14900000Y-146275429D01*
X21299500Y-146275429D01*
X21299500Y-146524570D01*
X21332016Y-146771557D01*
X21332017Y-146771563D01*
X21332018Y-146771565D01*
X21338630Y-146796243D01*
X21396499Y-147012210D01*
X21491838Y-147242377D01*
X21559628Y-147359793D01*
X21616401Y-147458127D01*
X21768062Y-147655776D01*
X21944224Y-147831938D01*
X22141873Y-147983599D01*
X22357627Y-148108164D01*
X22587793Y-148203502D01*
X22828435Y-148267982D01*
X22828441Y-148267982D01*
X22828442Y-148267983D01*
X22895586Y-148276822D01*
X23075435Y-148300500D01*
X23324565Y-148300500D01*
X23571565Y-148267982D01*
X23812207Y-148203502D01*
X24042373Y-148108164D01*
X24258127Y-147983599D01*
X24455776Y-147831938D01*
X24631938Y-147655776D01*
X24783599Y-147458127D01*
X24843138Y-147355000D01*
X24897675Y-147300463D01*
X24972175Y-147280500D01*
X32536367Y-147280500D01*
X32610867Y-147300462D01*
X32656910Y-147341919D01*
X32666415Y-147355001D01*
X32669896Y-147359792D01*
X32820208Y-147510104D01*
X32898844Y-147567236D01*
X32984482Y-147629456D01*
X33033020Y-147689396D01*
X33045086Y-147765575D01*
X33017446Y-147837580D01*
X32984482Y-147870544D01*
X32820209Y-147989895D01*
X32820206Y-147989897D01*
X32669897Y-148140206D01*
X32669895Y-148140209D01*
X32544950Y-148312181D01*
X32544950Y-148312182D01*
X32448446Y-148501582D01*
X32448441Y-148501594D01*
X32382754Y-148703756D01*
X32376103Y-148745748D01*
X32349500Y-148913713D01*
X32349500Y-149126287D01*
X32382754Y-149336243D01*
X32448443Y-149538412D01*
X32544949Y-149727816D01*
X32669896Y-149899792D01*
X32820208Y-150050104D01*
X32992184Y-150175051D01*
X33181588Y-150271557D01*
X33383757Y-150337246D01*
X33593713Y-150370500D01*
X33593718Y-150370500D01*
X33806282Y-150370500D01*
X33806287Y-150370500D01*
X34016243Y-150337246D01*
X34218412Y-150271557D01*
X34407816Y-150175051D01*
X34579792Y-150050104D01*
X34730104Y-149899792D01*
X34855051Y-149727816D01*
X34951557Y-149538412D01*
X35017246Y-149336243D01*
X35050500Y-149126287D01*
X35050500Y-149102114D01*
X39649500Y-149102114D01*
X39649500Y-150897863D01*
X39649502Y-150897888D01*
X39655908Y-150957478D01*
X39655909Y-150957484D01*
X39706202Y-151092329D01*
X39706204Y-151092333D01*
X39792452Y-151207544D01*
X39792455Y-151207547D01*
X39907666Y-151293795D01*
X39907670Y-151293797D01*
X40042517Y-151344091D01*
X40102114Y-151350499D01*
X40102118Y-151350499D01*
X40102127Y-151350500D01*
X41897872Y-151350499D01*
X41957483Y-151344091D01*
X42053447Y-151308298D01*
X42092329Y-151293797D01*
X42092333Y-151293795D01*
X42149938Y-151250671D01*
X42207546Y-151207546D01*
X42293796Y-151092331D01*
X42293797Y-151092329D01*
X42293798Y-151092327D01*
X42329215Y-150997367D01*
X42373953Y-150934540D01*
X42444110Y-150902498D01*
X42520889Y-150909829D01*
X42574180Y-150944076D01*
X42660208Y-151030104D01*
X42832184Y-151155051D01*
X43021588Y-151251557D01*
X43223757Y-151317246D01*
X43433713Y-151350500D01*
X43433718Y-151350500D01*
X43646282Y-151350500D01*
X43646287Y-151350500D01*
X43856243Y-151317246D01*
X44058412Y-151251557D01*
X44247816Y-151155051D01*
X44419792Y-151030104D01*
X44570104Y-150879792D01*
X44689767Y-150715089D01*
X44749704Y-150666552D01*
X44825883Y-150654486D01*
X44897888Y-150682126D01*
X44930852Y-150715089D01*
X44964729Y-150761716D01*
X45597037Y-150129408D01*
X45614075Y-150192993D01*
X45679901Y-150307007D01*
X45772993Y-150400099D01*
X45887007Y-150465925D01*
X45950590Y-150482962D01*
X45318281Y-151115270D01*
X45372444Y-151154621D01*
X45372444Y-151154622D01*
X45561779Y-151251093D01*
X45763871Y-151316757D01*
X45973758Y-151350000D01*
X46186242Y-151350000D01*
X46396128Y-151316757D01*
X46598220Y-151251093D01*
X46787555Y-151154622D01*
X46787557Y-151154620D01*
X46841716Y-151115270D01*
X46841716Y-151115269D01*
X46209409Y-150482962D01*
X46272993Y-150465925D01*
X46387007Y-150400099D01*
X46480099Y-150307007D01*
X46545925Y-150192993D01*
X46562962Y-150129409D01*
X47195269Y-150761716D01*
X47195270Y-150761716D01*
X47234620Y-150707557D01*
X47234622Y-150707555D01*
X47331093Y-150518220D01*
X47396757Y-150316128D01*
X47430000Y-150106242D01*
X47430000Y-149893757D01*
X47396757Y-149683871D01*
X47331093Y-149481779D01*
X47234621Y-149292444D01*
X47195270Y-149238282D01*
X46562962Y-149870589D01*
X46545925Y-149807007D01*
X46480099Y-149692993D01*
X46387007Y-149599901D01*
X46272993Y-149534075D01*
X46209407Y-149517037D01*
X46624331Y-149102114D01*
X51649500Y-149102114D01*
X51649500Y-150897863D01*
X51649502Y-150897888D01*
X51655908Y-150957478D01*
X51655909Y-150957484D01*
X51706202Y-151092329D01*
X51706204Y-151092333D01*
X51792452Y-151207544D01*
X51792455Y-151207547D01*
X51907666Y-151293795D01*
X51907670Y-151293797D01*
X52042517Y-151344091D01*
X52102114Y-151350499D01*
X52102118Y-151350499D01*
X52102127Y-151350500D01*
X53897872Y-151350499D01*
X53957483Y-151344091D01*
X54053447Y-151308298D01*
X54092329Y-151293797D01*
X54092333Y-151293795D01*
X54149938Y-151250671D01*
X54207546Y-151207546D01*
X54293796Y-151092331D01*
X54293797Y-151092329D01*
X54293798Y-151092327D01*
X54329215Y-150997367D01*
X54373953Y-150934540D01*
X54444110Y-150902498D01*
X54520889Y-150909829D01*
X54574180Y-150944076D01*
X54660208Y-151030104D01*
X54832184Y-151155051D01*
X55021588Y-151251557D01*
X55223757Y-151317246D01*
X55433713Y-151350500D01*
X55433718Y-151350500D01*
X55646282Y-151350500D01*
X55646287Y-151350500D01*
X55856243Y-151317246D01*
X56058412Y-151251557D01*
X56247816Y-151155051D01*
X56419792Y-151030104D01*
X56570104Y-150879792D01*
X56689767Y-150715089D01*
X56749704Y-150666552D01*
X56825883Y-150654486D01*
X56897888Y-150682126D01*
X56930852Y-150715089D01*
X56964729Y-150761716D01*
X57597037Y-150129408D01*
X57614075Y-150192993D01*
X57679901Y-150307007D01*
X57772993Y-150400099D01*
X57887007Y-150465925D01*
X57950590Y-150482962D01*
X57318281Y-151115270D01*
X57372444Y-151154621D01*
X57372444Y-151154622D01*
X57561779Y-151251093D01*
X57763871Y-151316757D01*
X57973758Y-151350000D01*
X58186242Y-151350000D01*
X58396128Y-151316757D01*
X58598220Y-151251093D01*
X58787555Y-151154622D01*
X58787557Y-151154620D01*
X58841716Y-151115270D01*
X58841716Y-151115269D01*
X58209409Y-150482962D01*
X58272993Y-150465925D01*
X58387007Y-150400099D01*
X58480099Y-150307007D01*
X58545925Y-150192993D01*
X58562962Y-150129409D01*
X59195269Y-150761716D01*
X59195270Y-150761716D01*
X59234620Y-150707557D01*
X59234622Y-150707555D01*
X59331093Y-150518220D01*
X59396757Y-150316128D01*
X59430000Y-150106242D01*
X59430000Y-149893757D01*
X59396757Y-149683871D01*
X59331093Y-149481779D01*
X59234621Y-149292444D01*
X59195270Y-149238282D01*
X58562962Y-149870589D01*
X58545925Y-149807007D01*
X58480099Y-149692993D01*
X58387007Y-149599901D01*
X58272993Y-149534075D01*
X58209407Y-149517037D01*
X58624331Y-149102114D01*
X63649500Y-149102114D01*
X63649500Y-150897863D01*
X63649502Y-150897888D01*
X63655908Y-150957478D01*
X63655909Y-150957484D01*
X63706202Y-151092329D01*
X63706204Y-151092333D01*
X63792452Y-151207544D01*
X63792455Y-151207547D01*
X63907666Y-151293795D01*
X63907670Y-151293797D01*
X64042517Y-151344091D01*
X64102114Y-151350499D01*
X64102118Y-151350499D01*
X64102127Y-151350500D01*
X65897872Y-151350499D01*
X65957483Y-151344091D01*
X66053447Y-151308298D01*
X66092329Y-151293797D01*
X66092333Y-151293795D01*
X66149938Y-151250671D01*
X66207546Y-151207546D01*
X66293796Y-151092331D01*
X66293797Y-151092329D01*
X66293798Y-151092327D01*
X66329215Y-150997367D01*
X66373953Y-150934540D01*
X66444110Y-150902498D01*
X66520889Y-150909829D01*
X66574180Y-150944076D01*
X66660208Y-151030104D01*
X66832184Y-151155051D01*
X67021588Y-151251557D01*
X67223757Y-151317246D01*
X67433713Y-151350500D01*
X67433718Y-151350500D01*
X67646282Y-151350500D01*
X67646287Y-151350500D01*
X67856243Y-151317246D01*
X68058412Y-151251557D01*
X68247816Y-151155051D01*
X68419792Y-151030104D01*
X68570104Y-150879792D01*
X68689767Y-150715089D01*
X68749704Y-150666552D01*
X68825883Y-150654486D01*
X68897888Y-150682126D01*
X68930852Y-150715089D01*
X68964729Y-150761716D01*
X69597037Y-150129408D01*
X69614075Y-150192993D01*
X69679901Y-150307007D01*
X69772993Y-150400099D01*
X69887007Y-150465925D01*
X69950590Y-150482962D01*
X69318282Y-151115270D01*
X69372444Y-151154621D01*
X69372444Y-151154622D01*
X69561779Y-151251093D01*
X69763871Y-151316757D01*
X69973758Y-151350000D01*
X70186242Y-151350000D01*
X70396128Y-151316757D01*
X70598220Y-151251093D01*
X70787555Y-151154622D01*
X70787557Y-151154620D01*
X70841716Y-151115270D01*
X70841716Y-151115269D01*
X70209409Y-150482962D01*
X70272993Y-150465925D01*
X70387007Y-150400099D01*
X70480099Y-150307007D01*
X70545925Y-150192993D01*
X70562962Y-150129409D01*
X71195269Y-150761716D01*
X71195270Y-150761716D01*
X71234620Y-150707557D01*
X71234622Y-150707555D01*
X71331093Y-150518220D01*
X71396757Y-150316128D01*
X71430000Y-150106242D01*
X71430000Y-149893757D01*
X71396757Y-149683871D01*
X71331093Y-149481779D01*
X71234621Y-149292444D01*
X71195270Y-149238282D01*
X70562962Y-149870589D01*
X70545925Y-149807007D01*
X70480099Y-149692993D01*
X70387007Y-149599901D01*
X70272993Y-149534075D01*
X70209407Y-149517037D01*
X70624331Y-149102114D01*
X75649500Y-149102114D01*
X75649500Y-150897863D01*
X75649502Y-150897888D01*
X75655908Y-150957478D01*
X75655909Y-150957484D01*
X75706202Y-151092329D01*
X75706204Y-151092333D01*
X75792452Y-151207544D01*
X75792455Y-151207547D01*
X75907666Y-151293795D01*
X75907670Y-151293797D01*
X76042517Y-151344091D01*
X76102114Y-151350499D01*
X76102118Y-151350499D01*
X76102127Y-151350500D01*
X77897872Y-151350499D01*
X77957483Y-151344091D01*
X78053447Y-151308298D01*
X78092329Y-151293797D01*
X78092333Y-151293795D01*
X78149938Y-151250671D01*
X78207546Y-151207546D01*
X78293796Y-151092331D01*
X78293797Y-151092329D01*
X78293798Y-151092327D01*
X78329215Y-150997367D01*
X78373953Y-150934540D01*
X78444110Y-150902498D01*
X78520889Y-150909829D01*
X78574180Y-150944076D01*
X78660208Y-151030104D01*
X78832184Y-151155051D01*
X79021588Y-151251557D01*
X79223757Y-151317246D01*
X79433713Y-151350500D01*
X79433718Y-151350500D01*
X79646282Y-151350500D01*
X79646287Y-151350500D01*
X79856243Y-151317246D01*
X80058412Y-151251557D01*
X80247816Y-151155051D01*
X80419792Y-151030104D01*
X80570104Y-150879792D01*
X80689767Y-150715089D01*
X80749704Y-150666552D01*
X80825883Y-150654486D01*
X80897888Y-150682126D01*
X80930852Y-150715089D01*
X80964729Y-150761716D01*
X81597037Y-150129408D01*
X81614075Y-150192993D01*
X81679901Y-150307007D01*
X81772993Y-150400099D01*
X81887007Y-150465925D01*
X81950590Y-150482962D01*
X81318281Y-151115270D01*
X81372444Y-151154621D01*
X81372444Y-151154622D01*
X81561779Y-151251093D01*
X81763871Y-151316757D01*
X81973758Y-151350000D01*
X82186242Y-151350000D01*
X82396128Y-151316757D01*
X82598220Y-151251093D01*
X82787555Y-151154622D01*
X82787557Y-151154620D01*
X82841716Y-151115270D01*
X82841716Y-151115269D01*
X82209409Y-150482962D01*
X82272993Y-150465925D01*
X82387007Y-150400099D01*
X82480099Y-150307007D01*
X82545925Y-150192993D01*
X82562962Y-150129409D01*
X83195269Y-150761716D01*
X83195270Y-150761716D01*
X83234620Y-150707557D01*
X83234622Y-150707555D01*
X83331093Y-150518220D01*
X83396757Y-150316128D01*
X83430000Y-150106242D01*
X83430000Y-149893757D01*
X83396757Y-149683871D01*
X83331093Y-149481779D01*
X83234621Y-149292444D01*
X83195270Y-149238282D01*
X82562962Y-149870589D01*
X82545925Y-149807007D01*
X82480099Y-149692993D01*
X82387007Y-149599901D01*
X82272993Y-149534075D01*
X82209407Y-149517037D01*
X82624331Y-149102114D01*
X87649500Y-149102114D01*
X87649500Y-150897863D01*
X87649502Y-150897888D01*
X87655908Y-150957478D01*
X87655909Y-150957484D01*
X87706202Y-151092329D01*
X87706204Y-151092333D01*
X87792452Y-151207544D01*
X87792455Y-151207547D01*
X87907666Y-151293795D01*
X87907670Y-151293797D01*
X88042517Y-151344091D01*
X88102114Y-151350499D01*
X88102118Y-151350499D01*
X88102127Y-151350500D01*
X89897872Y-151350499D01*
X89957483Y-151344091D01*
X90053447Y-151308298D01*
X90092329Y-151293797D01*
X90092333Y-151293795D01*
X90149938Y-151250671D01*
X90207546Y-151207546D01*
X90293796Y-151092331D01*
X90293797Y-151092329D01*
X90293798Y-151092327D01*
X90329215Y-150997367D01*
X90373953Y-150934540D01*
X90444110Y-150902498D01*
X90520889Y-150909829D01*
X90574180Y-150944076D01*
X90660208Y-151030104D01*
X90832184Y-151155051D01*
X91021588Y-151251557D01*
X91223757Y-151317246D01*
X91433713Y-151350500D01*
X91433718Y-151350500D01*
X91646282Y-151350500D01*
X91646287Y-151350500D01*
X91856243Y-151317246D01*
X92058412Y-151251557D01*
X92247816Y-151155051D01*
X92419792Y-151030104D01*
X92570104Y-150879792D01*
X92689767Y-150715089D01*
X92749704Y-150666552D01*
X92825883Y-150654486D01*
X92897888Y-150682126D01*
X92930852Y-150715089D01*
X92964729Y-150761716D01*
X93597037Y-150129408D01*
X93614075Y-150192993D01*
X93679901Y-150307007D01*
X93772993Y-150400099D01*
X93887007Y-150465925D01*
X93950590Y-150482962D01*
X93318281Y-151115270D01*
X93372444Y-151154621D01*
X93372444Y-151154622D01*
X93561779Y-151251093D01*
X93763871Y-151316757D01*
X93973758Y-151350000D01*
X94186242Y-151350000D01*
X94396128Y-151316757D01*
X94598220Y-151251093D01*
X94787555Y-151154622D01*
X94787557Y-151154620D01*
X94841716Y-151115270D01*
X94841716Y-151115269D01*
X94209409Y-150482962D01*
X94272993Y-150465925D01*
X94387007Y-150400099D01*
X94480099Y-150307007D01*
X94545925Y-150192993D01*
X94562962Y-150129409D01*
X95195269Y-150761716D01*
X95195270Y-150761716D01*
X95234620Y-150707557D01*
X95234622Y-150707555D01*
X95331093Y-150518220D01*
X95396757Y-150316128D01*
X95430000Y-150106242D01*
X95430000Y-149893757D01*
X95396757Y-149683871D01*
X95331093Y-149481779D01*
X95234621Y-149292444D01*
X95195270Y-149238282D01*
X94562962Y-149870589D01*
X94545925Y-149807007D01*
X94480099Y-149692993D01*
X94387007Y-149599901D01*
X94272993Y-149534075D01*
X94209407Y-149517037D01*
X94841716Y-148884729D01*
X94841716Y-148884728D01*
X94787555Y-148845378D01*
X94787555Y-148845377D01*
X94598220Y-148748906D01*
X94396128Y-148683242D01*
X94186242Y-148650000D01*
X93973758Y-148650000D01*
X93763871Y-148683242D01*
X93561779Y-148748906D01*
X93372444Y-148845378D01*
X93318282Y-148884728D01*
X93318282Y-148884729D01*
X93950590Y-149517037D01*
X93887007Y-149534075D01*
X93772993Y-149599901D01*
X93679901Y-149692993D01*
X93614075Y-149807007D01*
X93597037Y-149870590D01*
X92964729Y-149238282D01*
X92964727Y-149238282D01*
X92930852Y-149284908D01*
X92870912Y-149333446D01*
X92794734Y-149345512D01*
X92722729Y-149317871D01*
X92689765Y-149284908D01*
X92655889Y-149238282D01*
X92570104Y-149120208D01*
X92419792Y-148969896D01*
X92247816Y-148844949D01*
X92058412Y-148748443D01*
X91856243Y-148682754D01*
X91646287Y-148649500D01*
X91433713Y-148649500D01*
X91258749Y-148677211D01*
X91223756Y-148682754D01*
X91106196Y-148720952D01*
X91021588Y-148748443D01*
X91021582Y-148748445D01*
X91021582Y-148748446D01*
X90832182Y-148844950D01*
X90832181Y-148844950D01*
X90660209Y-148969895D01*
X90660198Y-148969904D01*
X90574179Y-149055923D01*
X90507384Y-149094487D01*
X90430256Y-149094487D01*
X90363462Y-149055922D01*
X90329215Y-149002633D01*
X90317008Y-148969904D01*
X90293796Y-148907669D01*
X90293795Y-148907668D01*
X90293795Y-148907666D01*
X90207547Y-148792455D01*
X90207544Y-148792452D01*
X90092333Y-148706204D01*
X90092329Y-148706202D01*
X89957482Y-148655908D01*
X89897876Y-148649500D01*
X88102136Y-148649500D01*
X88102111Y-148649502D01*
X88042521Y-148655908D01*
X88042515Y-148655909D01*
X87907670Y-148706202D01*
X87907666Y-148706204D01*
X87792455Y-148792452D01*
X87792452Y-148792455D01*
X87706204Y-148907666D01*
X87706202Y-148907670D01*
X87655908Y-149042517D01*
X87649500Y-149102114D01*
X82624331Y-149102114D01*
X82841716Y-148884729D01*
X82841716Y-148884728D01*
X82787555Y-148845378D01*
X82787555Y-148845377D01*
X82598220Y-148748906D01*
X82396128Y-148683242D01*
X82186242Y-148650000D01*
X81973758Y-148650000D01*
X81763871Y-148683242D01*
X81561779Y-148748906D01*
X81372444Y-148845378D01*
X81318282Y-148884728D01*
X81318282Y-148884729D01*
X81950590Y-149517037D01*
X81887007Y-149534075D01*
X81772993Y-149599901D01*
X81679901Y-149692993D01*
X81614075Y-149807007D01*
X81597037Y-149870590D01*
X80964729Y-149238282D01*
X80964727Y-149238282D01*
X80930852Y-149284908D01*
X80870912Y-149333446D01*
X80794734Y-149345512D01*
X80722729Y-149317871D01*
X80689765Y-149284908D01*
X80655889Y-149238282D01*
X80570104Y-149120208D01*
X80419792Y-148969896D01*
X80247816Y-148844949D01*
X80058412Y-148748443D01*
X79856243Y-148682754D01*
X79646287Y-148649500D01*
X79433713Y-148649500D01*
X79258749Y-148677211D01*
X79223756Y-148682754D01*
X79106196Y-148720952D01*
X79021588Y-148748443D01*
X79021582Y-148748445D01*
X79021582Y-148748446D01*
X78832182Y-148844950D01*
X78832181Y-148844950D01*
X78660209Y-148969895D01*
X78660198Y-148969904D01*
X78574179Y-149055923D01*
X78507384Y-149094487D01*
X78430256Y-149094487D01*
X78363462Y-149055922D01*
X78329215Y-149002633D01*
X78317008Y-148969904D01*
X78293796Y-148907669D01*
X78293795Y-148907668D01*
X78293795Y-148907666D01*
X78207547Y-148792455D01*
X78207544Y-148792452D01*
X78092333Y-148706204D01*
X78092329Y-148706202D01*
X77957482Y-148655908D01*
X77897876Y-148649500D01*
X76102136Y-148649500D01*
X76102111Y-148649502D01*
X76042521Y-148655908D01*
X76042515Y-148655909D01*
X75907670Y-148706202D01*
X75907666Y-148706204D01*
X75792455Y-148792452D01*
X75792452Y-148792455D01*
X75706204Y-148907666D01*
X75706202Y-148907670D01*
X75655908Y-149042517D01*
X75649500Y-149102114D01*
X70624331Y-149102114D01*
X70841716Y-148884729D01*
X70841716Y-148884728D01*
X70787555Y-148845378D01*
X70787555Y-148845377D01*
X70598220Y-148748906D01*
X70396128Y-148683242D01*
X70186242Y-148650000D01*
X69973758Y-148650000D01*
X69763871Y-148683242D01*
X69561779Y-148748906D01*
X69372444Y-148845378D01*
X69318282Y-148884728D01*
X69318282Y-148884729D01*
X69950590Y-149517037D01*
X69887007Y-149534075D01*
X69772993Y-149599901D01*
X69679901Y-149692993D01*
X69614075Y-149807007D01*
X69597037Y-149870590D01*
X68964729Y-149238282D01*
X68964727Y-149238282D01*
X68930852Y-149284908D01*
X68870912Y-149333446D01*
X68794734Y-149345512D01*
X68722729Y-149317871D01*
X68689765Y-149284908D01*
X68655889Y-149238282D01*
X68570104Y-149120208D01*
X68419792Y-148969896D01*
X68247816Y-148844949D01*
X68058412Y-148748443D01*
X67856243Y-148682754D01*
X67646287Y-148649500D01*
X67433713Y-148649500D01*
X67258749Y-148677211D01*
X67223756Y-148682754D01*
X67106196Y-148720952D01*
X67021588Y-148748443D01*
X67021582Y-148748445D01*
X67021582Y-148748446D01*
X66832182Y-148844950D01*
X66832181Y-148844950D01*
X66660209Y-148969895D01*
X66660198Y-148969904D01*
X66574179Y-149055923D01*
X66507384Y-149094487D01*
X66430256Y-149094487D01*
X66363462Y-149055922D01*
X66329215Y-149002633D01*
X66317008Y-148969904D01*
X66293796Y-148907669D01*
X66293795Y-148907668D01*
X66293795Y-148907666D01*
X66207547Y-148792455D01*
X66207544Y-148792452D01*
X66092333Y-148706204D01*
X66092329Y-148706202D01*
X65957482Y-148655908D01*
X65897876Y-148649500D01*
X64102136Y-148649500D01*
X64102111Y-148649502D01*
X64042521Y-148655908D01*
X64042515Y-148655909D01*
X63907670Y-148706202D01*
X63907666Y-148706204D01*
X63792455Y-148792452D01*
X63792452Y-148792455D01*
X63706204Y-148907666D01*
X63706202Y-148907670D01*
X63655908Y-149042517D01*
X63649500Y-149102114D01*
X58624331Y-149102114D01*
X58841716Y-148884729D01*
X58841716Y-148884728D01*
X58787555Y-148845378D01*
X58787555Y-148845377D01*
X58598220Y-148748906D01*
X58396128Y-148683242D01*
X58186242Y-148650000D01*
X57973758Y-148650000D01*
X57763871Y-148683242D01*
X57561779Y-148748906D01*
X57372444Y-148845378D01*
X57318282Y-148884728D01*
X57318282Y-148884729D01*
X57950590Y-149517037D01*
X57887007Y-149534075D01*
X57772993Y-149599901D01*
X57679901Y-149692993D01*
X57614075Y-149807007D01*
X57597037Y-149870590D01*
X56964729Y-149238282D01*
X56964727Y-149238282D01*
X56930852Y-149284908D01*
X56870912Y-149333446D01*
X56794734Y-149345512D01*
X56722729Y-149317871D01*
X56689765Y-149284908D01*
X56655889Y-149238282D01*
X56570104Y-149120208D01*
X56419792Y-148969896D01*
X56302569Y-148884729D01*
X56247818Y-148844950D01*
X56247812Y-148844947D01*
X56166878Y-148803708D01*
X56109561Y-148752099D01*
X56085728Y-148678746D01*
X56101765Y-148603303D01*
X56129162Y-148565593D01*
X67592642Y-137102114D01*
X87649500Y-137102114D01*
X87649500Y-138897863D01*
X87649502Y-138897888D01*
X87655908Y-138957478D01*
X87655909Y-138957484D01*
X87706202Y-139092329D01*
X87706204Y-139092333D01*
X87792452Y-139207544D01*
X87792455Y-139207547D01*
X87907666Y-139293795D01*
X87907670Y-139293797D01*
X88042517Y-139344091D01*
X88102114Y-139350499D01*
X88102118Y-139350499D01*
X88102127Y-139350500D01*
X89897872Y-139350499D01*
X89957483Y-139344091D01*
X90053447Y-139308298D01*
X90092329Y-139293797D01*
X90092333Y-139293795D01*
X90149938Y-139250671D01*
X90207546Y-139207546D01*
X90293796Y-139092331D01*
X90293797Y-139092329D01*
X90293798Y-139092327D01*
X90329215Y-138997367D01*
X90373953Y-138934540D01*
X90444110Y-138902498D01*
X90520889Y-138909829D01*
X90574180Y-138944076D01*
X90660208Y-139030104D01*
X90832184Y-139155051D01*
X91021588Y-139251557D01*
X91223757Y-139317246D01*
X91433713Y-139350500D01*
X91433718Y-139350500D01*
X91646282Y-139350500D01*
X91646287Y-139350500D01*
X91856243Y-139317246D01*
X92058412Y-139251557D01*
X92247816Y-139155051D01*
X92419792Y-139030104D01*
X92570104Y-138879792D01*
X92689767Y-138715089D01*
X92749704Y-138666552D01*
X92825883Y-138654486D01*
X92897888Y-138682126D01*
X92930852Y-138715089D01*
X92964729Y-138761716D01*
X93597037Y-138129408D01*
X93614075Y-138192993D01*
X93679901Y-138307007D01*
X93772993Y-138400099D01*
X93887007Y-138465925D01*
X93950590Y-138482962D01*
X93318282Y-139115270D01*
X93372444Y-139154621D01*
X93372444Y-139154622D01*
X93561779Y-139251093D01*
X93763871Y-139316757D01*
X93973758Y-139350000D01*
X94186242Y-139350000D01*
X94396128Y-139316757D01*
X94598220Y-139251093D01*
X94787555Y-139154622D01*
X94787557Y-139154620D01*
X94841716Y-139115270D01*
X94841716Y-139115269D01*
X94209409Y-138482962D01*
X94272993Y-138465925D01*
X94387007Y-138400099D01*
X94480099Y-138307007D01*
X94545925Y-138192993D01*
X94562962Y-138129409D01*
X95195269Y-138761716D01*
X95195270Y-138761716D01*
X95234620Y-138707557D01*
X95234622Y-138707555D01*
X95331093Y-138518220D01*
X95396757Y-138316128D01*
X95430000Y-138106242D01*
X95430000Y-137893757D01*
X95396757Y-137683871D01*
X95331093Y-137481779D01*
X95234621Y-137292444D01*
X95195270Y-137238282D01*
X94562962Y-137870589D01*
X94545925Y-137807007D01*
X94480099Y-137692993D01*
X94387007Y-137599901D01*
X94272993Y-137534075D01*
X94209407Y-137517037D01*
X94624331Y-137102114D01*
X99649500Y-137102114D01*
X99649500Y-138897863D01*
X99649502Y-138897888D01*
X99655908Y-138957478D01*
X99655909Y-138957484D01*
X99706202Y-139092329D01*
X99706204Y-139092333D01*
X99792452Y-139207544D01*
X99792455Y-139207547D01*
X99907666Y-139293795D01*
X99907670Y-139293797D01*
X100042517Y-139344091D01*
X100102114Y-139350499D01*
X100102118Y-139350499D01*
X100102127Y-139350500D01*
X101897872Y-139350499D01*
X101957483Y-139344091D01*
X102053447Y-139308298D01*
X102092329Y-139293797D01*
X102092333Y-139293795D01*
X102149938Y-139250671D01*
X102207546Y-139207546D01*
X102293796Y-139092331D01*
X102293797Y-139092329D01*
X102293798Y-139092327D01*
X102329215Y-138997367D01*
X102373953Y-138934540D01*
X102444110Y-138902498D01*
X102520889Y-138909829D01*
X102574180Y-138944076D01*
X102660208Y-139030104D01*
X102832184Y-139155051D01*
X103021588Y-139251557D01*
X103223757Y-139317246D01*
X103433713Y-139350500D01*
X103433718Y-139350500D01*
X103646282Y-139350500D01*
X103646287Y-139350500D01*
X103856243Y-139317246D01*
X104058412Y-139251557D01*
X104247816Y-139155051D01*
X104419792Y-139030104D01*
X104570104Y-138879792D01*
X104689767Y-138715089D01*
X104749704Y-138666552D01*
X104825883Y-138654486D01*
X104897888Y-138682126D01*
X104930852Y-138715089D01*
X104964729Y-138761716D01*
X105597037Y-138129408D01*
X105614075Y-138192993D01*
X105679901Y-138307007D01*
X105772993Y-138400099D01*
X105887007Y-138465925D01*
X105950590Y-138482962D01*
X105318282Y-139115270D01*
X105372444Y-139154621D01*
X105372444Y-139154622D01*
X105561779Y-139251093D01*
X105763871Y-139316757D01*
X105973758Y-139350000D01*
X106186242Y-139350000D01*
X106396128Y-139316757D01*
X106598220Y-139251093D01*
X106787555Y-139154622D01*
X106787557Y-139154620D01*
X106841716Y-139115270D01*
X106841716Y-139115269D01*
X106209409Y-138482962D01*
X106272993Y-138465925D01*
X106387007Y-138400099D01*
X106480099Y-138307007D01*
X106545925Y-138192993D01*
X106562962Y-138129409D01*
X107195269Y-138761716D01*
X107195270Y-138761716D01*
X107234620Y-138707557D01*
X107234622Y-138707555D01*
X107331093Y-138518220D01*
X107396757Y-138316128D01*
X107430000Y-138106242D01*
X107430000Y-137893757D01*
X107396757Y-137683871D01*
X107331093Y-137481779D01*
X107234621Y-137292444D01*
X107195270Y-137238282D01*
X106562962Y-137870589D01*
X106545925Y-137807007D01*
X106480099Y-137692993D01*
X106387007Y-137599901D01*
X106272993Y-137534075D01*
X106209407Y-137517037D01*
X106841716Y-136884729D01*
X106841716Y-136884728D01*
X106787555Y-136845378D01*
X106787555Y-136845377D01*
X106598220Y-136748906D01*
X106396128Y-136683242D01*
X106186242Y-136650000D01*
X105973758Y-136650000D01*
X105763871Y-136683242D01*
X105561779Y-136748906D01*
X105372444Y-136845378D01*
X105318282Y-136884728D01*
X105318282Y-136884729D01*
X105950590Y-137517037D01*
X105887007Y-137534075D01*
X105772993Y-137599901D01*
X105679901Y-137692993D01*
X105614075Y-137807007D01*
X105597037Y-137870590D01*
X104964729Y-137238282D01*
X104964727Y-137238282D01*
X104930852Y-137284908D01*
X104870912Y-137333446D01*
X104794734Y-137345512D01*
X104722729Y-137317871D01*
X104689765Y-137284908D01*
X104655889Y-137238282D01*
X104570104Y-137120208D01*
X104419792Y-136969896D01*
X104247816Y-136844949D01*
X104058412Y-136748443D01*
X103856243Y-136682754D01*
X103646287Y-136649500D01*
X103433713Y-136649500D01*
X103258749Y-136677211D01*
X103223756Y-136682754D01*
X103021594Y-136748441D01*
X103021588Y-136748443D01*
X103021582Y-136748445D01*
X103021582Y-136748446D01*
X102832182Y-136844950D01*
X102832181Y-136844950D01*
X102660209Y-136969895D01*
X102660198Y-136969904D01*
X102574179Y-137055923D01*
X102507384Y-137094487D01*
X102430256Y-137094487D01*
X102363462Y-137055922D01*
X102329215Y-137002633D01*
X102317008Y-136969904D01*
X102293796Y-136907669D01*
X102293795Y-136907668D01*
X102293795Y-136907666D01*
X102207547Y-136792455D01*
X102207544Y-136792452D01*
X102092333Y-136706204D01*
X102092329Y-136706202D01*
X101957482Y-136655908D01*
X101897876Y-136649500D01*
X100102136Y-136649500D01*
X100102111Y-136649502D01*
X100042521Y-136655908D01*
X100042515Y-136655909D01*
X99907670Y-136706202D01*
X99907666Y-136706204D01*
X99792455Y-136792452D01*
X99792452Y-136792455D01*
X99706204Y-136907666D01*
X99706202Y-136907670D01*
X99655908Y-137042517D01*
X99649500Y-137102114D01*
X94624331Y-137102114D01*
X94841716Y-136884729D01*
X94841716Y-136884728D01*
X94787555Y-136845378D01*
X94787555Y-136845377D01*
X94598220Y-136748906D01*
X94396128Y-136683242D01*
X94186242Y-136650000D01*
X93973758Y-136650000D01*
X93763871Y-136683242D01*
X93561779Y-136748906D01*
X93372444Y-136845378D01*
X93318282Y-136884728D01*
X93318282Y-136884729D01*
X93950590Y-137517037D01*
X93887007Y-137534075D01*
X93772993Y-137599901D01*
X93679901Y-137692993D01*
X93614075Y-137807007D01*
X93597037Y-137870590D01*
X92964729Y-137238282D01*
X92964727Y-137238282D01*
X92930852Y-137284908D01*
X92870912Y-137333446D01*
X92794734Y-137345512D01*
X92722729Y-137317871D01*
X92689765Y-137284908D01*
X92655889Y-137238282D01*
X92570104Y-137120208D01*
X92419792Y-136969896D01*
X92247816Y-136844949D01*
X92058412Y-136748443D01*
X91856243Y-136682754D01*
X91646287Y-136649500D01*
X91433713Y-136649500D01*
X91258749Y-136677211D01*
X91223756Y-136682754D01*
X91021594Y-136748441D01*
X91021588Y-136748443D01*
X91021582Y-136748445D01*
X91021582Y-136748446D01*
X90832182Y-136844950D01*
X90832181Y-136844950D01*
X90660209Y-136969895D01*
X90660198Y-136969904D01*
X90574179Y-137055923D01*
X90507384Y-137094487D01*
X90430256Y-137094487D01*
X90363462Y-137055922D01*
X90329215Y-137002633D01*
X90317008Y-136969904D01*
X90293796Y-136907669D01*
X90293795Y-136907668D01*
X90293795Y-136907666D01*
X90207547Y-136792455D01*
X90207544Y-136792452D01*
X90092333Y-136706204D01*
X90092329Y-136706202D01*
X89957482Y-136655908D01*
X89897876Y-136649500D01*
X88102136Y-136649500D01*
X88102111Y-136649502D01*
X88042521Y-136655908D01*
X88042515Y-136655909D01*
X87907670Y-136706202D01*
X87907666Y-136706204D01*
X87792455Y-136792452D01*
X87792452Y-136792455D01*
X87706204Y-136907666D01*
X87706202Y-136907670D01*
X87655908Y-137042517D01*
X87649500Y-137102114D01*
X67592642Y-137102114D01*
X70592643Y-134102114D01*
X99649500Y-134102114D01*
X99649500Y-135897863D01*
X99649502Y-135897888D01*
X99655908Y-135957478D01*
X99655909Y-135957484D01*
X99706202Y-136092329D01*
X99706204Y-136092333D01*
X99792452Y-136207544D01*
X99792455Y-136207547D01*
X99907666Y-136293795D01*
X99907670Y-136293797D01*
X100042517Y-136344091D01*
X100102114Y-136350499D01*
X100102118Y-136350499D01*
X100102127Y-136350500D01*
X101897872Y-136350499D01*
X101957483Y-136344091D01*
X102074357Y-136300500D01*
X102092329Y-136293797D01*
X102092333Y-136293795D01*
X102149938Y-136250671D01*
X102207546Y-136207546D01*
X102276625Y-136115269D01*
X102293795Y-136092333D01*
X102293798Y-136092327D01*
X102329215Y-135997367D01*
X102373953Y-135934540D01*
X102444110Y-135902498D01*
X102520889Y-135909829D01*
X102574180Y-135944076D01*
X102660208Y-136030104D01*
X102832184Y-136155051D01*
X103021588Y-136251557D01*
X103223757Y-136317246D01*
X103433713Y-136350500D01*
X103433718Y-136350500D01*
X103646282Y-136350500D01*
X103646287Y-136350500D01*
X103856243Y-136317246D01*
X104058412Y-136251557D01*
X104247816Y-136155051D01*
X104419792Y-136030104D01*
X104570104Y-135879792D01*
X104689767Y-135715089D01*
X104749704Y-135666552D01*
X104825883Y-135654486D01*
X104897888Y-135682126D01*
X104930852Y-135715089D01*
X104964729Y-135761716D01*
X105597037Y-135129408D01*
X105614075Y-135192993D01*
X105679901Y-135307007D01*
X105772993Y-135400099D01*
X105887007Y-135465925D01*
X105950590Y-135482962D01*
X105318281Y-136115270D01*
X105372444Y-136154621D01*
X105372444Y-136154622D01*
X105561779Y-136251093D01*
X105763871Y-136316757D01*
X105973758Y-136350000D01*
X106186242Y-136350000D01*
X106396128Y-136316757D01*
X106598220Y-136251093D01*
X106787555Y-136154622D01*
X106787557Y-136154620D01*
X106841716Y-136115270D01*
X106841716Y-136115269D01*
X106209409Y-135482962D01*
X106272993Y-135465925D01*
X106387007Y-135400099D01*
X106480099Y-135307007D01*
X106545925Y-135192993D01*
X106562962Y-135129409D01*
X107195269Y-135761716D01*
X107195270Y-135761716D01*
X107234620Y-135707557D01*
X107234622Y-135707555D01*
X107331093Y-135518220D01*
X107396757Y-135316128D01*
X107430000Y-135106242D01*
X107430000Y-134893757D01*
X107396757Y-134683871D01*
X107331093Y-134481779D01*
X107234621Y-134292444D01*
X107195270Y-134238282D01*
X106562962Y-134870589D01*
X106545925Y-134807007D01*
X106480099Y-134692993D01*
X106387007Y-134599901D01*
X106272993Y-134534075D01*
X106209407Y-134517037D01*
X106624331Y-134102114D01*
X111649500Y-134102114D01*
X111649500Y-135897863D01*
X111649502Y-135897888D01*
X111655908Y-135957478D01*
X111655909Y-135957484D01*
X111706202Y-136092329D01*
X111706204Y-136092333D01*
X111792452Y-136207544D01*
X111792455Y-136207547D01*
X111907666Y-136293795D01*
X111907670Y-136293797D01*
X112042517Y-136344091D01*
X112102114Y-136350499D01*
X112102118Y-136350499D01*
X112102127Y-136350500D01*
X113897872Y-136350499D01*
X113957483Y-136344091D01*
X114074357Y-136300500D01*
X114092329Y-136293797D01*
X114092333Y-136293795D01*
X114149938Y-136250671D01*
X114207546Y-136207546D01*
X114276625Y-136115269D01*
X114293795Y-136092333D01*
X114293798Y-136092327D01*
X114329215Y-135997367D01*
X114373953Y-135934540D01*
X114444110Y-135902498D01*
X114520889Y-135909829D01*
X114574180Y-135944076D01*
X114660208Y-136030104D01*
X114832184Y-136155051D01*
X115021588Y-136251557D01*
X115223757Y-136317246D01*
X115433713Y-136350500D01*
X115433718Y-136350500D01*
X115646282Y-136350500D01*
X115646287Y-136350500D01*
X115856243Y-136317246D01*
X116058412Y-136251557D01*
X116247816Y-136155051D01*
X116419792Y-136030104D01*
X116570104Y-135879792D01*
X116689767Y-135715089D01*
X116749704Y-135666552D01*
X116825883Y-135654486D01*
X116897888Y-135682126D01*
X116930852Y-135715089D01*
X116964729Y-135761716D01*
X117597037Y-135129408D01*
X117614075Y-135192993D01*
X117679901Y-135307007D01*
X117772993Y-135400099D01*
X117887007Y-135465925D01*
X117950590Y-135482962D01*
X117318282Y-136115270D01*
X117372444Y-136154621D01*
X117372444Y-136154622D01*
X117561779Y-136251093D01*
X117763871Y-136316757D01*
X117973758Y-136350000D01*
X118186242Y-136350000D01*
X118396128Y-136316757D01*
X118598220Y-136251093D01*
X118787555Y-136154622D01*
X118787557Y-136154620D01*
X118841716Y-136115270D01*
X118841716Y-136115269D01*
X118209409Y-135482962D01*
X118272993Y-135465925D01*
X118387007Y-135400099D01*
X118480099Y-135307007D01*
X118545925Y-135192993D01*
X118562962Y-135129409D01*
X119195269Y-135761716D01*
X119195270Y-135761716D01*
X119234620Y-135707557D01*
X119234622Y-135707555D01*
X119331093Y-135518220D01*
X119396757Y-135316128D01*
X119430000Y-135106242D01*
X119430000Y-134893757D01*
X119396757Y-134683871D01*
X119331093Y-134481779D01*
X119234621Y-134292444D01*
X119195270Y-134238282D01*
X118562962Y-134870589D01*
X118545925Y-134807007D01*
X118480099Y-134692993D01*
X118387007Y-134599901D01*
X118272993Y-134534075D01*
X118209407Y-134517037D01*
X118624331Y-134102114D01*
X123649500Y-134102114D01*
X123649500Y-135897863D01*
X123649502Y-135897888D01*
X123655908Y-135957478D01*
X123655909Y-135957484D01*
X123706202Y-136092329D01*
X123706204Y-136092333D01*
X123792452Y-136207544D01*
X123792455Y-136207547D01*
X123907666Y-136293795D01*
X123907670Y-136293797D01*
X124042517Y-136344091D01*
X124102114Y-136350499D01*
X124102118Y-136350499D01*
X124102127Y-136350500D01*
X125897872Y-136350499D01*
X125957483Y-136344091D01*
X126074357Y-136300500D01*
X126092329Y-136293797D01*
X126092333Y-136293795D01*
X126149938Y-136250671D01*
X126207546Y-136207546D01*
X126276625Y-136115269D01*
X126293795Y-136092333D01*
X126293798Y-136092327D01*
X126329215Y-135997367D01*
X126373953Y-135934540D01*
X126444110Y-135902498D01*
X126520889Y-135909829D01*
X126574180Y-135944076D01*
X126660208Y-136030104D01*
X126832184Y-136155051D01*
X127021588Y-136251557D01*
X127223757Y-136317246D01*
X127433713Y-136350500D01*
X127433718Y-136350500D01*
X127646282Y-136350500D01*
X127646287Y-136350500D01*
X127856243Y-136317246D01*
X128058412Y-136251557D01*
X128247816Y-136155051D01*
X128419792Y-136030104D01*
X128570104Y-135879792D01*
X128689767Y-135715089D01*
X128749704Y-135666552D01*
X128825883Y-135654486D01*
X128897888Y-135682126D01*
X128930852Y-135715089D01*
X128964729Y-135761716D01*
X129597037Y-135129408D01*
X129614075Y-135192993D01*
X129679901Y-135307007D01*
X129772993Y-135400099D01*
X129887007Y-135465925D01*
X129950590Y-135482962D01*
X129318282Y-136115270D01*
X129372444Y-136154621D01*
X129372444Y-136154622D01*
X129561779Y-136251093D01*
X129763871Y-136316757D01*
X129973758Y-136350000D01*
X130186242Y-136350000D01*
X130396128Y-136316757D01*
X130598220Y-136251093D01*
X130787555Y-136154622D01*
X130787557Y-136154620D01*
X130841716Y-136115270D01*
X130841716Y-136115269D01*
X130209409Y-135482962D01*
X130272993Y-135465925D01*
X130387007Y-135400099D01*
X130480099Y-135307007D01*
X130545925Y-135192993D01*
X130562962Y-135129409D01*
X131195269Y-135761716D01*
X131195270Y-135761716D01*
X131234620Y-135707557D01*
X131234622Y-135707555D01*
X131331093Y-135518220D01*
X131396757Y-135316128D01*
X131430000Y-135106242D01*
X131430000Y-134893757D01*
X131396757Y-134683871D01*
X131331093Y-134481779D01*
X131234621Y-134292444D01*
X131195270Y-134238282D01*
X130562962Y-134870589D01*
X130545925Y-134807007D01*
X130480099Y-134692993D01*
X130387007Y-134599901D01*
X130272993Y-134534075D01*
X130209407Y-134517037D01*
X130841716Y-133884729D01*
X130841716Y-133884728D01*
X130787555Y-133845378D01*
X130787555Y-133845377D01*
X130598220Y-133748906D01*
X130396128Y-133683242D01*
X130186242Y-133650000D01*
X129973758Y-133650000D01*
X129763871Y-133683242D01*
X129561779Y-133748906D01*
X129372444Y-133845378D01*
X129318282Y-133884728D01*
X129318282Y-133884729D01*
X129950590Y-134517037D01*
X129887007Y-134534075D01*
X129772993Y-134599901D01*
X129679901Y-134692993D01*
X129614075Y-134807007D01*
X129597037Y-134870590D01*
X128964729Y-134238282D01*
X128964727Y-134238282D01*
X128930852Y-134284908D01*
X128870912Y-134333446D01*
X128794734Y-134345512D01*
X128722729Y-134317871D01*
X128689765Y-134284908D01*
X128652882Y-134234143D01*
X128570104Y-134120208D01*
X128419792Y-133969896D01*
X128247816Y-133844949D01*
X128058412Y-133748443D01*
X127856243Y-133682754D01*
X127646287Y-133649500D01*
X127433713Y-133649500D01*
X127258749Y-133677211D01*
X127223756Y-133682754D01*
X127135477Y-133711438D01*
X127021588Y-133748443D01*
X127021582Y-133748445D01*
X127021582Y-133748446D01*
X126832182Y-133844950D01*
X126832181Y-133844950D01*
X126660209Y-133969895D01*
X126660198Y-133969904D01*
X126574179Y-134055923D01*
X126507384Y-134094487D01*
X126430256Y-134094487D01*
X126363462Y-134055922D01*
X126329215Y-134002633D01*
X126317008Y-133969904D01*
X126293796Y-133907669D01*
X126293795Y-133907668D01*
X126293795Y-133907666D01*
X126207547Y-133792455D01*
X126207544Y-133792452D01*
X126092333Y-133706204D01*
X126092329Y-133706202D01*
X125957482Y-133655908D01*
X125897876Y-133649500D01*
X124102136Y-133649500D01*
X124102111Y-133649502D01*
X124042521Y-133655908D01*
X124042515Y-133655909D01*
X123907670Y-133706202D01*
X123907666Y-133706204D01*
X123792455Y-133792452D01*
X123792452Y-133792455D01*
X123706204Y-133907666D01*
X123706202Y-133907670D01*
X123655908Y-134042517D01*
X123649500Y-134102114D01*
X118624331Y-134102114D01*
X118841716Y-133884729D01*
X118841716Y-133884728D01*
X118787555Y-133845378D01*
X118787555Y-133845377D01*
X118598220Y-133748906D01*
X118396128Y-133683242D01*
X118186242Y-133650000D01*
X117973758Y-133650000D01*
X117763871Y-133683242D01*
X117561779Y-133748906D01*
X117372444Y-133845378D01*
X117318282Y-133884728D01*
X117318282Y-133884729D01*
X117950590Y-134517037D01*
X117887007Y-134534075D01*
X117772993Y-134599901D01*
X117679901Y-134692993D01*
X117614075Y-134807007D01*
X117597037Y-134870590D01*
X116964729Y-134238282D01*
X116964727Y-134238282D01*
X116930852Y-134284908D01*
X116870912Y-134333446D01*
X116794734Y-134345512D01*
X116722729Y-134317871D01*
X116689765Y-134284908D01*
X116652882Y-134234143D01*
X116570104Y-134120208D01*
X116419792Y-133969896D01*
X116302569Y-133884729D01*
X116247818Y-133844950D01*
X116247812Y-133844947D01*
X116166878Y-133803708D01*
X116109561Y-133752099D01*
X116085728Y-133678746D01*
X116101765Y-133603303D01*
X116129161Y-133565594D01*
X116881016Y-132813741D01*
X116947811Y-132775177D01*
X116986375Y-132770100D01*
X117418011Y-132770100D01*
X117475030Y-132781442D01*
X117553008Y-132813741D01*
X117614803Y-132839337D01*
X117769458Y-132870100D01*
X117927142Y-132870100D01*
X118081797Y-132839337D01*
X118227479Y-132778994D01*
X118358589Y-132691389D01*
X118470089Y-132579889D01*
X118557694Y-132448779D01*
X118618037Y-132303097D01*
X118648800Y-132148442D01*
X118648800Y-131990758D01*
X118618037Y-131836103D01*
X118557694Y-131690421D01*
X118470089Y-131559311D01*
X118358589Y-131447811D01*
X118227479Y-131360206D01*
X118227478Y-131360205D01*
X118227476Y-131360204D01*
X118081798Y-131299863D01*
X118081794Y-131299862D01*
X117927142Y-131269100D01*
X117769458Y-131269100D01*
X117614805Y-131299862D01*
X117614801Y-131299863D01*
X117475030Y-131357758D01*
X117418011Y-131369100D01*
X116565502Y-131369100D01*
X116430172Y-131396019D01*
X116430170Y-131396020D01*
X116302697Y-131448820D01*
X116302684Y-131448828D01*
X116187958Y-131525485D01*
X116187953Y-131525489D01*
X114097166Y-133616275D01*
X114030371Y-133654839D01*
X113966870Y-133655784D01*
X113966750Y-133656905D01*
X113957607Y-133655922D01*
X113957545Y-133655923D01*
X113957485Y-133655908D01*
X113897876Y-133649500D01*
X112102136Y-133649500D01*
X112102111Y-133649502D01*
X112042521Y-133655908D01*
X112042515Y-133655909D01*
X111907670Y-133706202D01*
X111907666Y-133706204D01*
X111792455Y-133792452D01*
X111792452Y-133792455D01*
X111706204Y-133907666D01*
X111706202Y-133907670D01*
X111655908Y-134042517D01*
X111649500Y-134102114D01*
X106624331Y-134102114D01*
X106841716Y-133884729D01*
X106841716Y-133884728D01*
X106787555Y-133845378D01*
X106787555Y-133845377D01*
X106598220Y-133748906D01*
X106396128Y-133683242D01*
X106186242Y-133650000D01*
X105973758Y-133650000D01*
X105763871Y-133683242D01*
X105561779Y-133748906D01*
X105372444Y-133845378D01*
X105318282Y-133884728D01*
X105318282Y-133884729D01*
X105950590Y-134517037D01*
X105887007Y-134534075D01*
X105772993Y-134599901D01*
X105679901Y-134692993D01*
X105614075Y-134807007D01*
X105597037Y-134870590D01*
X104964729Y-134238282D01*
X104964727Y-134238282D01*
X104930852Y-134284908D01*
X104870912Y-134333446D01*
X104794734Y-134345512D01*
X104722729Y-134317871D01*
X104689765Y-134284908D01*
X104652882Y-134234143D01*
X104570104Y-134120208D01*
X104419792Y-133969896D01*
X104247816Y-133844949D01*
X104058412Y-133748443D01*
X103856243Y-133682754D01*
X103646287Y-133649500D01*
X103433713Y-133649500D01*
X103258749Y-133677211D01*
X103223756Y-133682754D01*
X103135477Y-133711438D01*
X103021588Y-133748443D01*
X103021582Y-133748445D01*
X103021582Y-133748446D01*
X102832182Y-133844950D01*
X102832181Y-133844950D01*
X102660209Y-133969895D01*
X102660198Y-133969904D01*
X102574179Y-134055923D01*
X102507384Y-134094487D01*
X102430256Y-134094487D01*
X102363462Y-134055922D01*
X102329215Y-134002633D01*
X102317008Y-133969904D01*
X102293796Y-133907669D01*
X102293795Y-133907668D01*
X102293795Y-133907666D01*
X102207547Y-133792455D01*
X102207544Y-133792452D01*
X102092333Y-133706204D01*
X102092329Y-133706202D01*
X101957482Y-133655908D01*
X101897876Y-133649500D01*
X100102136Y-133649500D01*
X100102111Y-133649502D01*
X100042521Y-133655908D01*
X100042515Y-133655909D01*
X99907670Y-133706202D01*
X99907666Y-133706204D01*
X99792455Y-133792452D01*
X99792452Y-133792455D01*
X99706204Y-133907666D01*
X99706202Y-133907670D01*
X99655908Y-134042517D01*
X99649500Y-134102114D01*
X70592643Y-134102114D01*
X71881016Y-132813741D01*
X71947811Y-132775177D01*
X71986375Y-132770100D01*
X99649711Y-132770100D01*
X99706730Y-132781442D01*
X99784708Y-132813741D01*
X99846503Y-132839337D01*
X100001158Y-132870100D01*
X100158842Y-132870100D01*
X100313497Y-132839337D01*
X100459179Y-132778994D01*
X100590289Y-132691389D01*
X100701789Y-132579889D01*
X100789394Y-132448779D01*
X100849737Y-132303097D01*
X100880500Y-132148442D01*
X100880500Y-131990758D01*
X100849737Y-131836103D01*
X100789394Y-131690421D01*
X100701789Y-131559311D01*
X100590289Y-131447811D01*
X100459179Y-131360206D01*
X100459178Y-131360205D01*
X100459176Y-131360204D01*
X100313498Y-131299863D01*
X100313494Y-131299862D01*
X100158842Y-131269100D01*
X100001158Y-131269100D01*
X99846505Y-131299862D01*
X99846501Y-131299863D01*
X99706730Y-131357758D01*
X99649711Y-131369100D01*
X71565507Y-131369100D01*
X71430174Y-131396019D01*
X71430170Y-131396020D01*
X71302697Y-131448820D01*
X71302684Y-131448828D01*
X71187958Y-131525485D01*
X71187953Y-131525489D01*
X54097166Y-148616275D01*
X54030371Y-148654839D01*
X53966870Y-148655784D01*
X53966750Y-148656905D01*
X53957607Y-148655922D01*
X53957545Y-148655923D01*
X53957485Y-148655908D01*
X53897876Y-148649500D01*
X52102136Y-148649500D01*
X52102111Y-148649502D01*
X52042521Y-148655908D01*
X52042515Y-148655909D01*
X51907670Y-148706202D01*
X51907666Y-148706204D01*
X51792455Y-148792452D01*
X51792452Y-148792455D01*
X51706204Y-148907666D01*
X51706202Y-148907670D01*
X51655908Y-149042517D01*
X51649500Y-149102114D01*
X46624331Y-149102114D01*
X46841716Y-148884729D01*
X46841716Y-148884728D01*
X46787555Y-148845378D01*
X46787555Y-148845377D01*
X46598220Y-148748906D01*
X46396128Y-148683242D01*
X46186242Y-148650000D01*
X45973758Y-148650000D01*
X45763871Y-148683242D01*
X45561779Y-148748906D01*
X45372444Y-148845378D01*
X45318282Y-148884728D01*
X45318282Y-148884729D01*
X45950590Y-149517037D01*
X45887007Y-149534075D01*
X45772993Y-149599901D01*
X45679901Y-149692993D01*
X45614075Y-149807007D01*
X45597037Y-149870590D01*
X44964729Y-149238282D01*
X44964727Y-149238282D01*
X44930852Y-149284908D01*
X44870912Y-149333446D01*
X44794734Y-149345512D01*
X44722729Y-149317871D01*
X44689765Y-149284908D01*
X44655889Y-149238282D01*
X44570104Y-149120208D01*
X44419792Y-148969896D01*
X44247816Y-148844949D01*
X44058412Y-148748443D01*
X43856243Y-148682754D01*
X43646287Y-148649500D01*
X43433713Y-148649500D01*
X43258749Y-148677211D01*
X43223756Y-148682754D01*
X43106196Y-148720952D01*
X43021588Y-148748443D01*
X43021582Y-148748445D01*
X43021582Y-148748446D01*
X42832182Y-148844950D01*
X42832181Y-148844950D01*
X42660209Y-148969895D01*
X42660198Y-148969904D01*
X42574179Y-149055923D01*
X42507384Y-149094487D01*
X42430256Y-149094487D01*
X42363462Y-149055922D01*
X42329215Y-149002633D01*
X42317008Y-148969904D01*
X42293796Y-148907669D01*
X42293795Y-148907668D01*
X42293795Y-148907666D01*
X42207547Y-148792455D01*
X42207544Y-148792452D01*
X42092333Y-148706204D01*
X42092329Y-148706202D01*
X41957482Y-148655908D01*
X41897876Y-148649500D01*
X40102136Y-148649500D01*
X40102111Y-148649502D01*
X40042521Y-148655908D01*
X40042515Y-148655909D01*
X39907670Y-148706202D01*
X39907666Y-148706204D01*
X39792455Y-148792452D01*
X39792452Y-148792455D01*
X39706204Y-148907666D01*
X39706202Y-148907670D01*
X39655908Y-149042517D01*
X39649500Y-149102114D01*
X35050500Y-149102114D01*
X35050500Y-148913713D01*
X35017246Y-148703757D01*
X34951557Y-148501588D01*
X34855051Y-148312184D01*
X34846561Y-148300499D01*
X34776088Y-148203500D01*
X34730104Y-148140208D01*
X34579792Y-147989896D01*
X34415517Y-147870544D01*
X34366979Y-147810604D01*
X34354913Y-147734426D01*
X34382553Y-147662420D01*
X34415517Y-147629456D01*
X34422519Y-147624368D01*
X34579792Y-147510104D01*
X34730104Y-147359792D01*
X34855051Y-147187816D01*
X34951557Y-146998412D01*
X35017246Y-146796243D01*
X35050500Y-146586287D01*
X35050500Y-146373713D01*
X35017246Y-146163757D01*
X34951557Y-145961588D01*
X34855051Y-145772184D01*
X34730104Y-145600208D01*
X34579792Y-145449896D01*
X34415517Y-145330544D01*
X34366979Y-145270604D01*
X34354913Y-145194426D01*
X34382553Y-145122420D01*
X34415517Y-145089456D01*
X34422519Y-145084368D01*
X34579792Y-144970104D01*
X34730104Y-144819792D01*
X34855051Y-144647816D01*
X34951557Y-144458412D01*
X35017246Y-144256243D01*
X35050500Y-144046287D01*
X35050500Y-143833713D01*
X35017246Y-143623757D01*
X34951557Y-143421588D01*
X34855051Y-143232184D01*
X34730104Y-143060208D01*
X34644075Y-142974179D01*
X34605512Y-142907385D01*
X34605512Y-142830257D01*
X34644076Y-142763462D01*
X34697366Y-142729215D01*
X34728278Y-142717685D01*
X34792327Y-142693798D01*
X34792333Y-142693795D01*
X34849938Y-142650671D01*
X34907546Y-142607546D01*
X34993796Y-142492331D01*
X35044091Y-142357483D01*
X35045823Y-142341370D01*
X35050499Y-142297885D01*
X35050499Y-142297882D01*
X35050500Y-142297873D01*
X35050499Y-140502128D01*
X35044091Y-140442517D01*
X35029588Y-140403633D01*
X34993797Y-140307670D01*
X34993795Y-140307666D01*
X34907547Y-140192455D01*
X34907544Y-140192452D01*
X34792333Y-140106204D01*
X34792329Y-140106202D01*
X34657482Y-140055908D01*
X34597876Y-140049500D01*
X32802136Y-140049500D01*
X32802111Y-140049502D01*
X32742521Y-140055908D01*
X32742515Y-140055909D01*
X32607670Y-140106202D01*
X32607666Y-140106204D01*
X32492455Y-140192452D01*
X32492452Y-140192455D01*
X32406204Y-140307666D01*
X32406202Y-140307670D01*
X32355908Y-140442517D01*
X32349500Y-140502114D01*
X32349500Y-142297863D01*
X32349502Y-142297888D01*
X32355908Y-142357478D01*
X32355909Y-142357484D01*
X32406202Y-142492329D01*
X32406204Y-142492333D01*
X32492452Y-142607544D01*
X32492455Y-142607547D01*
X32607666Y-142693795D01*
X32607668Y-142693795D01*
X32607669Y-142693796D01*
X32702633Y-142729215D01*
X32765460Y-142773953D01*
X32797501Y-142844111D01*
X32790170Y-142920890D01*
X32755923Y-142974179D01*
X32669904Y-143060198D01*
X32669895Y-143060209D01*
X32544950Y-143232181D01*
X32544950Y-143232182D01*
X32544949Y-143232184D01*
X32448443Y-143421588D01*
X32382754Y-143623757D01*
X32349500Y-143833713D01*
X32349500Y-144046287D01*
X32382754Y-144256243D01*
X32448443Y-144458412D01*
X32518801Y-144596498D01*
X32544950Y-144647817D01*
X32544950Y-144647818D01*
X32607422Y-144733804D01*
X32669896Y-144819792D01*
X32820208Y-144970104D01*
X32898844Y-145027236D01*
X32984482Y-145089456D01*
X33033020Y-145149396D01*
X33045086Y-145225575D01*
X33017446Y-145297580D01*
X32984482Y-145330544D01*
X32820209Y-145449895D01*
X32820206Y-145449897D01*
X32669892Y-145600212D01*
X32656910Y-145618081D01*
X32596969Y-145666619D01*
X32536367Y-145679500D01*
X25058204Y-145679500D01*
X24983704Y-145659538D01*
X24929166Y-145605000D01*
X24920546Y-145587520D01*
X24908164Y-145557627D01*
X24783599Y-145341873D01*
X24631938Y-145144224D01*
X24455776Y-144968062D01*
X24258127Y-144816401D01*
X24186209Y-144774879D01*
X24042377Y-144691838D01*
X24042375Y-144691837D01*
X24042373Y-144691836D01*
X23907548Y-144635989D01*
X23812210Y-144596499D01*
X23812208Y-144596498D01*
X23812207Y-144596498D01*
X23571565Y-144532018D01*
X23571563Y-144532017D01*
X23571557Y-144532016D01*
X23324570Y-144499500D01*
X23324565Y-144499500D01*
X23075435Y-144499500D01*
X23075429Y-144499500D01*
X22828442Y-144532016D01*
X22587789Y-144596499D01*
X22357622Y-144691838D01*
X22141874Y-144816400D01*
X21944222Y-144968063D01*
X21768063Y-145144222D01*
X21616400Y-145341874D01*
X21491838Y-145557622D01*
X21396499Y-145787789D01*
X21332016Y-146028442D01*
X21299500Y-146275429D01*
X14900000Y-146275429D01*
X14900000Y-138199992D01*
X21299500Y-138199992D01*
X21299500Y-140600008D01*
X21310001Y-140702797D01*
X21365186Y-140869334D01*
X21457289Y-141018655D01*
X21581345Y-141142711D01*
X21730666Y-141234814D01*
X21897203Y-141289999D01*
X21999992Y-141300500D01*
X21999996Y-141300500D01*
X24400004Y-141300500D01*
X24400008Y-141300500D01*
X24502797Y-141289999D01*
X24669334Y-141234814D01*
X24818655Y-141142711D01*
X24942711Y-141018655D01*
X25034814Y-140869334D01*
X25089999Y-140702797D01*
X25100500Y-140600008D01*
X25100500Y-138199992D01*
X25089999Y-138097203D01*
X25034814Y-137930666D01*
X24942711Y-137781345D01*
X24818655Y-137657289D01*
X24801076Y-137646446D01*
X24669336Y-137565187D01*
X24669335Y-137565186D01*
X24669334Y-137565186D01*
X24585332Y-137537350D01*
X24502798Y-137510001D01*
X24502799Y-137510001D01*
X24468534Y-137506500D01*
X24400008Y-137499500D01*
X21999992Y-137499500D01*
X21931466Y-137506500D01*
X21897201Y-137510001D01*
X21730663Y-137565187D01*
X21581344Y-137657289D01*
X21457289Y-137781344D01*
X21365187Y-137930663D01*
X21310001Y-138097201D01*
X21309073Y-138106287D01*
X21299500Y-138199992D01*
X14900000Y-138199992D01*
X14900000Y-134275429D01*
X21299500Y-134275429D01*
X21299500Y-134524570D01*
X21332016Y-134771557D01*
X21332017Y-134771563D01*
X21332018Y-134771565D01*
X21364759Y-134893757D01*
X21396499Y-135012210D01*
X21491838Y-135242377D01*
X21556025Y-135353553D01*
X21616401Y-135458127D01*
X21768062Y-135655776D01*
X21944224Y-135831938D01*
X22141873Y-135983599D01*
X22357627Y-136108164D01*
X22587793Y-136203502D01*
X22828435Y-136267982D01*
X22828441Y-136267982D01*
X22828442Y-136267983D01*
X22895586Y-136276822D01*
X23075435Y-136300500D01*
X23324565Y-136300500D01*
X23571565Y-136267982D01*
X23812207Y-136203502D01*
X24042373Y-136108164D01*
X24258127Y-135983599D01*
X24455776Y-135831938D01*
X24631938Y-135655776D01*
X24783599Y-135458127D01*
X24908164Y-135242373D01*
X25003502Y-135012207D01*
X25067982Y-134771565D01*
X25100500Y-134524565D01*
X25100500Y-134275435D01*
X25067982Y-134028435D01*
X25003502Y-133787793D01*
X24908164Y-133557627D01*
X24783599Y-133341873D01*
X24631938Y-133144224D01*
X24455776Y-132968062D01*
X24258127Y-132816401D01*
X24177931Y-132770100D01*
X24042377Y-132691838D01*
X24042375Y-132691837D01*
X24042373Y-132691836D01*
X23907548Y-132635989D01*
X23812210Y-132596499D01*
X23812208Y-132596498D01*
X23812207Y-132596498D01*
X23571565Y-132532018D01*
X23571563Y-132532017D01*
X23571557Y-132532016D01*
X23324570Y-132499500D01*
X23324565Y-132499500D01*
X23075435Y-132499500D01*
X23075429Y-132499500D01*
X22828442Y-132532016D01*
X22587789Y-132596499D01*
X22357622Y-132691838D01*
X22141874Y-132816400D01*
X21944222Y-132968063D01*
X21768063Y-133144222D01*
X21616400Y-133341874D01*
X21491838Y-133557622D01*
X21396499Y-133787789D01*
X21332016Y-134028442D01*
X21299500Y-134275429D01*
X14900000Y-134275429D01*
X14900000Y-120199992D01*
X21299500Y-120199992D01*
X21299500Y-122600008D01*
X21310001Y-122702797D01*
X21365186Y-122869334D01*
X21457289Y-123018655D01*
X21581345Y-123142711D01*
X21730666Y-123234814D01*
X21897203Y-123289999D01*
X21999992Y-123300500D01*
X21999996Y-123300500D01*
X24400004Y-123300500D01*
X24400008Y-123300500D01*
X24502797Y-123289999D01*
X24669334Y-123234814D01*
X24818655Y-123142711D01*
X24942711Y-123018655D01*
X25034814Y-122869334D01*
X25089999Y-122702797D01*
X25100500Y-122600008D01*
X25100500Y-120199992D01*
X25089999Y-120097203D01*
X25034814Y-119930666D01*
X24942711Y-119781345D01*
X24818655Y-119657289D01*
X24669334Y-119565186D01*
X24585332Y-119537350D01*
X24502798Y-119510001D01*
X24502799Y-119510001D01*
X24468534Y-119506500D01*
X24400008Y-119499500D01*
X21999992Y-119499500D01*
X21931466Y-119506500D01*
X21897201Y-119510001D01*
X21730663Y-119565187D01*
X21581344Y-119657289D01*
X21457289Y-119781344D01*
X21365187Y-119930663D01*
X21310001Y-120097201D01*
X21310001Y-120097203D01*
X21299500Y-120199992D01*
X14900000Y-120199992D01*
X14900000Y-116275429D01*
X21299500Y-116275429D01*
X21299500Y-116524570D01*
X21332016Y-116771557D01*
X21332017Y-116771563D01*
X21332018Y-116771565D01*
X21338630Y-116796243D01*
X21396499Y-117012210D01*
X21491838Y-117242377D01*
X21559628Y-117359793D01*
X21616401Y-117458127D01*
X21768062Y-117655776D01*
X21944224Y-117831938D01*
X22141873Y-117983599D01*
X22357627Y-118108164D01*
X22587793Y-118203502D01*
X22828435Y-118267982D01*
X22828441Y-118267982D01*
X22828442Y-118267983D01*
X22895586Y-118276822D01*
X23075435Y-118300500D01*
X23324565Y-118300500D01*
X23571565Y-118267982D01*
X23812207Y-118203502D01*
X24042373Y-118108164D01*
X24258127Y-117983599D01*
X24455776Y-117831938D01*
X24631938Y-117655776D01*
X24783599Y-117458127D01*
X24843138Y-117355000D01*
X24897675Y-117300463D01*
X24972175Y-117280500D01*
X32536367Y-117280500D01*
X32610867Y-117300462D01*
X32656910Y-117341919D01*
X32666415Y-117355001D01*
X32669896Y-117359792D01*
X32820208Y-117510104D01*
X32898844Y-117567236D01*
X32984482Y-117629456D01*
X33033020Y-117689396D01*
X33045086Y-117765575D01*
X33017446Y-117837580D01*
X32984482Y-117870544D01*
X32820209Y-117989895D01*
X32820206Y-117989897D01*
X32669897Y-118140206D01*
X32669895Y-118140209D01*
X32544950Y-118312181D01*
X32544950Y-118312182D01*
X32544949Y-118312184D01*
X32448443Y-118501588D01*
X32382754Y-118703757D01*
X32349500Y-118913713D01*
X32349500Y-119126287D01*
X32382754Y-119336243D01*
X32448443Y-119538412D01*
X32544949Y-119727816D01*
X32669896Y-119899792D01*
X32820208Y-120050104D01*
X32992184Y-120175051D01*
X33181588Y-120271557D01*
X33383757Y-120337246D01*
X33593713Y-120370500D01*
X33593718Y-120370500D01*
X33806282Y-120370500D01*
X33806287Y-120370500D01*
X34016243Y-120337246D01*
X34218412Y-120271557D01*
X34407816Y-120175051D01*
X34579792Y-120050104D01*
X34730104Y-119899792D01*
X34855051Y-119727816D01*
X34951557Y-119538412D01*
X35017246Y-119336243D01*
X35050500Y-119126287D01*
X35050500Y-118913713D01*
X35017246Y-118703757D01*
X34951557Y-118501588D01*
X34855051Y-118312184D01*
X34846561Y-118300499D01*
X34776088Y-118203500D01*
X34730104Y-118140208D01*
X34579792Y-117989896D01*
X34415517Y-117870544D01*
X34366979Y-117810604D01*
X34354913Y-117734426D01*
X34382553Y-117662420D01*
X34415517Y-117629456D01*
X34422519Y-117624368D01*
X34579792Y-117510104D01*
X34730104Y-117359792D01*
X34855051Y-117187816D01*
X34951557Y-116998412D01*
X35017246Y-116796243D01*
X35050500Y-116586287D01*
X35050500Y-116373713D01*
X35017246Y-116163757D01*
X34951557Y-115961588D01*
X34855051Y-115772184D01*
X34730104Y-115600208D01*
X34579792Y-115449896D01*
X34415517Y-115330544D01*
X34366979Y-115270604D01*
X34354913Y-115194426D01*
X34382553Y-115122420D01*
X34415517Y-115089456D01*
X34422519Y-115084368D01*
X34579792Y-114970104D01*
X34730104Y-114819792D01*
X34855051Y-114647816D01*
X34951557Y-114458412D01*
X35017246Y-114256243D01*
X35050500Y-114046287D01*
X35050500Y-113833713D01*
X35017246Y-113623757D01*
X34951557Y-113421588D01*
X34855051Y-113232184D01*
X34730104Y-113060208D01*
X34644075Y-112974179D01*
X34605512Y-112907385D01*
X34605512Y-112830257D01*
X34644076Y-112763462D01*
X34697366Y-112729215D01*
X34728278Y-112717685D01*
X34792327Y-112693798D01*
X34792333Y-112693795D01*
X34849938Y-112650671D01*
X34907546Y-112607546D01*
X34993796Y-112492331D01*
X35044091Y-112357483D01*
X35049143Y-112310492D01*
X35050499Y-112297885D01*
X35050499Y-112297882D01*
X35050500Y-112297873D01*
X35050499Y-110502128D01*
X35044091Y-110442517D01*
X35029588Y-110403633D01*
X34993797Y-110307670D01*
X34993795Y-110307666D01*
X34907547Y-110192455D01*
X34907544Y-110192452D01*
X34792333Y-110106204D01*
X34792329Y-110106202D01*
X34657482Y-110055908D01*
X34597876Y-110049500D01*
X32802136Y-110049500D01*
X32802111Y-110049502D01*
X32742521Y-110055908D01*
X32742515Y-110055909D01*
X32607670Y-110106202D01*
X32607666Y-110106204D01*
X32492455Y-110192452D01*
X32492452Y-110192455D01*
X32406204Y-110307666D01*
X32406202Y-110307670D01*
X32355908Y-110442517D01*
X32349500Y-110502114D01*
X32349500Y-112297863D01*
X32349502Y-112297888D01*
X32355908Y-112357478D01*
X32355909Y-112357484D01*
X32406202Y-112492329D01*
X32406204Y-112492333D01*
X32492452Y-112607544D01*
X32492455Y-112607547D01*
X32607666Y-112693795D01*
X32607668Y-112693795D01*
X32607669Y-112693796D01*
X32702633Y-112729215D01*
X32765460Y-112773953D01*
X32797501Y-112844111D01*
X32790170Y-112920890D01*
X32755923Y-112974179D01*
X32669904Y-113060198D01*
X32669895Y-113060209D01*
X32544950Y-113232181D01*
X32544950Y-113232182D01*
X32544949Y-113232184D01*
X32448443Y-113421588D01*
X32382754Y-113623757D01*
X32349500Y-113833713D01*
X32349500Y-114046287D01*
X32382754Y-114256243D01*
X32448443Y-114458412D01*
X32518801Y-114596498D01*
X32544950Y-114647817D01*
X32544950Y-114647818D01*
X32586414Y-114704888D01*
X32669896Y-114819792D01*
X32820208Y-114970104D01*
X32898844Y-115027236D01*
X32984482Y-115089456D01*
X33033020Y-115149396D01*
X33045086Y-115225575D01*
X33017446Y-115297580D01*
X32984482Y-115330544D01*
X32820209Y-115449895D01*
X32820206Y-115449897D01*
X32669892Y-115600212D01*
X32656910Y-115618081D01*
X32596969Y-115666619D01*
X32536367Y-115679500D01*
X25058204Y-115679500D01*
X24983704Y-115659538D01*
X24929166Y-115605000D01*
X24920546Y-115587520D01*
X24908164Y-115557627D01*
X24783599Y-115341873D01*
X24631938Y-115144224D01*
X24455776Y-114968062D01*
X24258127Y-114816401D01*
X24064980Y-114704888D01*
X24042377Y-114691838D01*
X24042375Y-114691837D01*
X24042373Y-114691836D01*
X23855308Y-114614351D01*
X23812210Y-114596499D01*
X23812208Y-114596498D01*
X23812207Y-114596498D01*
X23571565Y-114532018D01*
X23571563Y-114532017D01*
X23571557Y-114532016D01*
X23324570Y-114499500D01*
X23324565Y-114499500D01*
X23075435Y-114499500D01*
X23075429Y-114499500D01*
X22828442Y-114532016D01*
X22587789Y-114596499D01*
X22357622Y-114691838D01*
X22141874Y-114816400D01*
X21944222Y-114968063D01*
X21768063Y-115144222D01*
X21616400Y-115341874D01*
X21491838Y-115557622D01*
X21396499Y-115787789D01*
X21332016Y-116028442D01*
X21299500Y-116275429D01*
X14900000Y-116275429D01*
X14900000Y-108199992D01*
X21299500Y-108199992D01*
X21299500Y-110600008D01*
X21308250Y-110685665D01*
X21310001Y-110702798D01*
X21336637Y-110783179D01*
X21365186Y-110869334D01*
X21457289Y-111018655D01*
X21581345Y-111142711D01*
X21730666Y-111234814D01*
X21897203Y-111289999D01*
X21999992Y-111300500D01*
X21999996Y-111300500D01*
X24400004Y-111300500D01*
X24400008Y-111300500D01*
X24502797Y-111289999D01*
X24669334Y-111234814D01*
X24818655Y-111142711D01*
X24942711Y-111018655D01*
X25034814Y-110869334D01*
X25089999Y-110702797D01*
X25100500Y-110600008D01*
X25100500Y-108199992D01*
X25089999Y-108097203D01*
X25034814Y-107930666D01*
X25000743Y-107875429D01*
X44784500Y-107875429D01*
X44784500Y-108124570D01*
X44817016Y-108371557D01*
X44881499Y-108612210D01*
X44976838Y-108842377D01*
X45040845Y-108953241D01*
X45101401Y-109058127D01*
X45253062Y-109255776D01*
X45429224Y-109431938D01*
X45626873Y-109583599D01*
X45842627Y-109708164D01*
X46072793Y-109803502D01*
X46313435Y-109867982D01*
X46313441Y-109867982D01*
X46313442Y-109867983D01*
X46376495Y-109876284D01*
X46560435Y-109900500D01*
X46809565Y-109900500D01*
X47056565Y-109867982D01*
X47297207Y-109803502D01*
X47527373Y-109708164D01*
X47743127Y-109583599D01*
X47940776Y-109431938D01*
X48116938Y-109255776D01*
X48268599Y-109058127D01*
X48393164Y-108842373D01*
X48488502Y-108612207D01*
X48552982Y-108371565D01*
X48585500Y-108124565D01*
X48585500Y-107875435D01*
X48585499Y-107875429D01*
X67414500Y-107875429D01*
X67414500Y-108124570D01*
X67447016Y-108371557D01*
X67511499Y-108612210D01*
X67606838Y-108842377D01*
X67670845Y-108953241D01*
X67731401Y-109058127D01*
X67883062Y-109255776D01*
X68059224Y-109431938D01*
X68256873Y-109583599D01*
X68472627Y-109708164D01*
X68702793Y-109803502D01*
X68943435Y-109867982D01*
X68943441Y-109867982D01*
X68943442Y-109867983D01*
X69006495Y-109876284D01*
X69190435Y-109900500D01*
X69439565Y-109900500D01*
X69686565Y-109867982D01*
X69927207Y-109803502D01*
X70157373Y-109708164D01*
X70373127Y-109583599D01*
X70570776Y-109431938D01*
X70746938Y-109255776D01*
X70898599Y-109058127D01*
X71023164Y-108842373D01*
X71118502Y-108612207D01*
X71182982Y-108371565D01*
X71215500Y-108124565D01*
X71215500Y-107875435D01*
X71215499Y-107875429D01*
X81284500Y-107875429D01*
X81284500Y-108124570D01*
X81317016Y-108371557D01*
X81381499Y-108612210D01*
X81476838Y-108842377D01*
X81540845Y-108953241D01*
X81601401Y-109058127D01*
X81753062Y-109255776D01*
X81929224Y-109431938D01*
X82126873Y-109583599D01*
X82342627Y-109708164D01*
X82572793Y-109803502D01*
X82813435Y-109867982D01*
X82813441Y-109867982D01*
X82813442Y-109867983D01*
X82876495Y-109876284D01*
X83060435Y-109900500D01*
X83309565Y-109900500D01*
X83556565Y-109867982D01*
X83797207Y-109803502D01*
X84027373Y-109708164D01*
X84243127Y-109583599D01*
X84440776Y-109431938D01*
X84616938Y-109255776D01*
X84768599Y-109058127D01*
X84893164Y-108842373D01*
X84988502Y-108612207D01*
X85052982Y-108371565D01*
X85085500Y-108124565D01*
X85085500Y-107875435D01*
X85052982Y-107628435D01*
X84988502Y-107387793D01*
X84893164Y-107157627D01*
X84768599Y-106941873D01*
X84616938Y-106744224D01*
X84440776Y-106568062D01*
X84243127Y-106416401D01*
X84042378Y-106300499D01*
X84027377Y-106291838D01*
X84027375Y-106291837D01*
X84027373Y-106291836D01*
X83892548Y-106235989D01*
X83797210Y-106196499D01*
X83797208Y-106196498D01*
X83797207Y-106196498D01*
X83556565Y-106132018D01*
X83556563Y-106132017D01*
X83556557Y-106132016D01*
X83309570Y-106099500D01*
X83309565Y-106099500D01*
X83060435Y-106099500D01*
X83060429Y-106099500D01*
X82813442Y-106132016D01*
X82572789Y-106196499D01*
X82342622Y-106291838D01*
X82126874Y-106416400D01*
X81929222Y-106568063D01*
X81753063Y-106744222D01*
X81601400Y-106941874D01*
X81476838Y-107157622D01*
X81381499Y-107387789D01*
X81317016Y-107628442D01*
X81284500Y-107875429D01*
X71215499Y-107875429D01*
X71182982Y-107628435D01*
X71118502Y-107387793D01*
X71023164Y-107157627D01*
X70898599Y-106941873D01*
X70746938Y-106744224D01*
X70570776Y-106568062D01*
X70373127Y-106416401D01*
X70172378Y-106300499D01*
X70157377Y-106291838D01*
X70157375Y-106291837D01*
X70157373Y-106291836D01*
X70022548Y-106235989D01*
X69927210Y-106196499D01*
X69927208Y-106196498D01*
X69927207Y-106196498D01*
X69686565Y-106132018D01*
X69686563Y-106132017D01*
X69686557Y-106132016D01*
X69439570Y-106099500D01*
X69439565Y-106099500D01*
X69190435Y-106099500D01*
X69190429Y-106099500D01*
X68943442Y-106132016D01*
X68702789Y-106196499D01*
X68472622Y-106291838D01*
X68256874Y-106416400D01*
X68059222Y-106568063D01*
X67883063Y-106744222D01*
X67731400Y-106941874D01*
X67606838Y-107157622D01*
X67511499Y-107387789D01*
X67447016Y-107628442D01*
X67414500Y-107875429D01*
X48585499Y-107875429D01*
X48552982Y-107628435D01*
X48488502Y-107387793D01*
X48393164Y-107157627D01*
X48268599Y-106941873D01*
X48116938Y-106744224D01*
X47940776Y-106568062D01*
X47743127Y-106416401D01*
X47542378Y-106300499D01*
X47527377Y-106291838D01*
X47527375Y-106291837D01*
X47527373Y-106291836D01*
X47392548Y-106235989D01*
X47297210Y-106196499D01*
X47297208Y-106196498D01*
X47297207Y-106196498D01*
X47056565Y-106132018D01*
X47056563Y-106132017D01*
X47056557Y-106132016D01*
X46809570Y-106099500D01*
X46809565Y-106099500D01*
X46560435Y-106099500D01*
X46560429Y-106099500D01*
X46313442Y-106132016D01*
X46072789Y-106196499D01*
X45842622Y-106291838D01*
X45626874Y-106416400D01*
X45429222Y-106568063D01*
X45253063Y-106744222D01*
X45101400Y-106941874D01*
X44976838Y-107157622D01*
X44881499Y-107387789D01*
X44817016Y-107628442D01*
X44784500Y-107875429D01*
X25000743Y-107875429D01*
X24942711Y-107781345D01*
X24818655Y-107657289D01*
X24753045Y-107616820D01*
X24669336Y-107565187D01*
X24669335Y-107565186D01*
X24669334Y-107565186D01*
X24585332Y-107537350D01*
X24502798Y-107510001D01*
X24502799Y-107510001D01*
X24468534Y-107506500D01*
X24400008Y-107499500D01*
X21999992Y-107499500D01*
X21931466Y-107506500D01*
X21897201Y-107510001D01*
X21730663Y-107565187D01*
X21581344Y-107657289D01*
X21457289Y-107781344D01*
X21365187Y-107930663D01*
X21310001Y-108097201D01*
X21310001Y-108097203D01*
X21299500Y-108199992D01*
X14900000Y-108199992D01*
X14900000Y-104275429D01*
X21299500Y-104275429D01*
X21299500Y-104524570D01*
X21332016Y-104771557D01*
X21332017Y-104771563D01*
X21332018Y-104771565D01*
X21396498Y-105012207D01*
X21491836Y-105242373D01*
X21616401Y-105458127D01*
X21768062Y-105655776D01*
X21944224Y-105831938D01*
X22141873Y-105983599D01*
X22357627Y-106108164D01*
X22587793Y-106203502D01*
X22828435Y-106267982D01*
X22828441Y-106267982D01*
X22828442Y-106267983D01*
X22865624Y-106272878D01*
X23075435Y-106300500D01*
X23324565Y-106300500D01*
X23571565Y-106267982D01*
X23812207Y-106203502D01*
X24042373Y-106108164D01*
X24258127Y-105983599D01*
X24455776Y-105831938D01*
X24631938Y-105655776D01*
X24783599Y-105458127D01*
X24908164Y-105242373D01*
X25003502Y-105012207D01*
X25067982Y-104771565D01*
X25100500Y-104524565D01*
X25100500Y-104275435D01*
X25067982Y-104028435D01*
X25003502Y-103787793D01*
X24908164Y-103557627D01*
X24783599Y-103341873D01*
X24631938Y-103144224D01*
X24455776Y-102968062D01*
X24258127Y-102816401D01*
X24064980Y-102704888D01*
X24042377Y-102691838D01*
X24042375Y-102691837D01*
X24042373Y-102691836D01*
X23855308Y-102614351D01*
X23812210Y-102596499D01*
X23812208Y-102596498D01*
X23812207Y-102596498D01*
X23571565Y-102532018D01*
X23571563Y-102532017D01*
X23571557Y-102532016D01*
X23324570Y-102499500D01*
X23324565Y-102499500D01*
X23075435Y-102499500D01*
X23075429Y-102499500D01*
X22828442Y-102532016D01*
X22587789Y-102596499D01*
X22357622Y-102691838D01*
X22141874Y-102816400D01*
X21944222Y-102968063D01*
X21768063Y-103144222D01*
X21616400Y-103341874D01*
X21491838Y-103557622D01*
X21396499Y-103787789D01*
X21332016Y-104028442D01*
X21299500Y-104275429D01*
X14900000Y-104275429D01*
X14900000Y-95029460D01*
X102686500Y-95029460D01*
X102686500Y-108953242D01*
X102695901Y-109000500D01*
X102695901Y-109000502D01*
X102721776Y-109130586D01*
X102724949Y-109146536D01*
X102800368Y-109328616D01*
X102869405Y-109431936D01*
X102909861Y-109492482D01*
X103049218Y-109631839D01*
X103049221Y-109631841D01*
X120449015Y-127031635D01*
X120449022Y-127031643D01*
X120452761Y-127035382D01*
X120592118Y-127174739D01*
X120657575Y-127218476D01*
X120755983Y-127284231D01*
X120884734Y-127337561D01*
X120884733Y-127337561D01*
X120913898Y-127349641D01*
X120938064Y-127359651D01*
X121034710Y-127378874D01*
X121034711Y-127378875D01*
X121082385Y-127388358D01*
X121131359Y-127398100D01*
X121131360Y-127398100D01*
X121328440Y-127398100D01*
X130707262Y-127398100D01*
X130781762Y-127418062D01*
X130812621Y-127441741D01*
X136766021Y-133395141D01*
X136804585Y-133461936D01*
X136804585Y-133539064D01*
X136766021Y-133605859D01*
X136699226Y-133644423D01*
X136660662Y-133649500D01*
X136102136Y-133649500D01*
X136102111Y-133649502D01*
X136042521Y-133655908D01*
X136042515Y-133655909D01*
X135907670Y-133706202D01*
X135907666Y-133706204D01*
X135792455Y-133792452D01*
X135792452Y-133792455D01*
X135706204Y-133907666D01*
X135706201Y-133907672D01*
X135683132Y-133969524D01*
X135638393Y-134032350D01*
X135568235Y-134064390D01*
X135491456Y-134057058D01*
X135438170Y-134022813D01*
X132289986Y-130874630D01*
X132257688Y-130826291D01*
X132199795Y-130686523D01*
X132199794Y-130686521D01*
X132112189Y-130555411D01*
X132000689Y-130443911D01*
X131869579Y-130356306D01*
X131869578Y-130356305D01*
X131869576Y-130356304D01*
X131723898Y-130295963D01*
X131723894Y-130295962D01*
X131569242Y-130265200D01*
X131411558Y-130265200D01*
X131256905Y-130295962D01*
X131256901Y-130295963D01*
X131111223Y-130356304D01*
X130980107Y-130443914D01*
X130868614Y-130555407D01*
X130781004Y-130686523D01*
X130720663Y-130832201D01*
X130720662Y-130832205D01*
X130689900Y-130986857D01*
X130689900Y-131144542D01*
X130720662Y-131299194D01*
X130720663Y-131299198D01*
X130781004Y-131444876D01*
X130781005Y-131444878D01*
X130781006Y-131444879D01*
X130868611Y-131575989D01*
X130980111Y-131687489D01*
X131111221Y-131775094D01*
X131111222Y-131775094D01*
X131111223Y-131775095D01*
X131250991Y-131832988D01*
X131299331Y-131865287D01*
X134880586Y-135446542D01*
X134978158Y-135544114D01*
X134978161Y-135544116D01*
X135092884Y-135620772D01*
X135092887Y-135620774D01*
X135092888Y-135620774D01*
X135092889Y-135620775D01*
X135133948Y-135637782D01*
X135220371Y-135673580D01*
X135247291Y-135678934D01*
X135355707Y-135700500D01*
X135500501Y-135700500D01*
X135575001Y-135720462D01*
X135629539Y-135775000D01*
X135649501Y-135849500D01*
X135649501Y-135897863D01*
X135649502Y-135897888D01*
X135655908Y-135957478D01*
X135655909Y-135957484D01*
X135706202Y-136092329D01*
X135706204Y-136092333D01*
X135792452Y-136207544D01*
X135792455Y-136207547D01*
X135907666Y-136293795D01*
X135907670Y-136293797D01*
X136042517Y-136344091D01*
X136102114Y-136350499D01*
X136102118Y-136350499D01*
X136102127Y-136350500D01*
X137897872Y-136350499D01*
X137957483Y-136344091D01*
X138074357Y-136300500D01*
X138092329Y-136293797D01*
X138092333Y-136293795D01*
X138149938Y-136250671D01*
X138207546Y-136207546D01*
X138276625Y-136115269D01*
X138293795Y-136092333D01*
X138293798Y-136092327D01*
X138329215Y-135997367D01*
X138373953Y-135934540D01*
X138444110Y-135902498D01*
X138520889Y-135909829D01*
X138574180Y-135944076D01*
X138660208Y-136030104D01*
X138832184Y-136155051D01*
X139021588Y-136251557D01*
X139223757Y-136317246D01*
X139433713Y-136350500D01*
X139433718Y-136350500D01*
X139646282Y-136350500D01*
X139646287Y-136350500D01*
X139856243Y-136317246D01*
X140058412Y-136251557D01*
X140247816Y-136155051D01*
X140419792Y-136030104D01*
X140570104Y-135879792D01*
X140689767Y-135715089D01*
X140749704Y-135666552D01*
X140825883Y-135654486D01*
X140897888Y-135682126D01*
X140930852Y-135715089D01*
X140964729Y-135761716D01*
X141597037Y-135129408D01*
X141614075Y-135192993D01*
X141679901Y-135307007D01*
X141772993Y-135400099D01*
X141887007Y-135465925D01*
X141950590Y-135482962D01*
X141318281Y-136115270D01*
X141372444Y-136154621D01*
X141372444Y-136154622D01*
X141561779Y-136251093D01*
X141763871Y-136316757D01*
X141973758Y-136350000D01*
X142186242Y-136350000D01*
X142396128Y-136316757D01*
X142598220Y-136251093D01*
X142787555Y-136154622D01*
X142787557Y-136154620D01*
X142841716Y-136115270D01*
X142841716Y-136115269D01*
X142209409Y-135482962D01*
X142272993Y-135465925D01*
X142387007Y-135400099D01*
X142480099Y-135307007D01*
X142545925Y-135192993D01*
X142562962Y-135129409D01*
X143195269Y-135761716D01*
X143195270Y-135761716D01*
X143234620Y-135707557D01*
X143234622Y-135707555D01*
X143331093Y-135518220D01*
X143396757Y-135316128D01*
X143430000Y-135106242D01*
X143430000Y-134893757D01*
X143396757Y-134683871D01*
X143331093Y-134481779D01*
X143234621Y-134292444D01*
X143195270Y-134238282D01*
X142562962Y-134870589D01*
X142545925Y-134807007D01*
X142480099Y-134692993D01*
X142387007Y-134599901D01*
X142272993Y-134534075D01*
X142209407Y-134517037D01*
X142841716Y-133884729D01*
X142841716Y-133884728D01*
X142787555Y-133845378D01*
X142787555Y-133845377D01*
X142598220Y-133748906D01*
X142396128Y-133683242D01*
X142186242Y-133650000D01*
X141973758Y-133650000D01*
X141763871Y-133683242D01*
X141561779Y-133748906D01*
X141372444Y-133845378D01*
X141318282Y-133884728D01*
X141318282Y-133884729D01*
X141950590Y-134517037D01*
X141887007Y-134534075D01*
X141772993Y-134599901D01*
X141679901Y-134692993D01*
X141614075Y-134807007D01*
X141597037Y-134870590D01*
X140964729Y-134238282D01*
X140964727Y-134238282D01*
X140930852Y-134284908D01*
X140870912Y-134333446D01*
X140794734Y-134345512D01*
X140722729Y-134317871D01*
X140689765Y-134284908D01*
X140652882Y-134234143D01*
X140570104Y-134120208D01*
X140419792Y-133969896D01*
X140247816Y-133844949D01*
X140058412Y-133748443D01*
X140058410Y-133748442D01*
X140058408Y-133748441D01*
X139930601Y-133706914D01*
X139871286Y-133670566D01*
X132143179Y-125942459D01*
X132104615Y-125875664D01*
X132104615Y-125798536D01*
X132143179Y-125731741D01*
X132209974Y-125693177D01*
X132248538Y-125688100D01*
X137384025Y-125688100D01*
X137458525Y-125708062D01*
X137489384Y-125731741D01*
X147301757Y-135544114D01*
X147416489Y-135620775D01*
X147416493Y-135620776D01*
X147416497Y-135620779D01*
X147550734Y-135676381D01*
X147550248Y-135677553D01*
X147609247Y-135714239D01*
X147645607Y-135782259D01*
X147649500Y-135816095D01*
X147649500Y-135897862D01*
X147649502Y-135897888D01*
X147655908Y-135957478D01*
X147655909Y-135957484D01*
X147706202Y-136092329D01*
X147706204Y-136092333D01*
X147792452Y-136207544D01*
X147792455Y-136207547D01*
X147907666Y-136293795D01*
X147907670Y-136293797D01*
X148042517Y-136344091D01*
X148102114Y-136350499D01*
X148102118Y-136350499D01*
X148102127Y-136350500D01*
X149897872Y-136350499D01*
X149957483Y-136344091D01*
X150074357Y-136300500D01*
X150092329Y-136293797D01*
X150092333Y-136293795D01*
X150149938Y-136250671D01*
X150207546Y-136207546D01*
X150276625Y-136115269D01*
X150293795Y-136092333D01*
X150293798Y-136092327D01*
X150329215Y-135997367D01*
X150373953Y-135934540D01*
X150444110Y-135902498D01*
X150520889Y-135909829D01*
X150574180Y-135944076D01*
X150660208Y-136030104D01*
X150832184Y-136155051D01*
X151021588Y-136251557D01*
X151223757Y-136317246D01*
X151433713Y-136350500D01*
X151433718Y-136350500D01*
X151646282Y-136350500D01*
X151646287Y-136350500D01*
X151856243Y-136317246D01*
X152058412Y-136251557D01*
X152247816Y-136155051D01*
X152419792Y-136030104D01*
X152570104Y-135879792D01*
X152689767Y-135715089D01*
X152749704Y-135666552D01*
X152825883Y-135654486D01*
X152897888Y-135682126D01*
X152930852Y-135715089D01*
X152964729Y-135761716D01*
X153597037Y-135129408D01*
X153614075Y-135192993D01*
X153679901Y-135307007D01*
X153772993Y-135400099D01*
X153887007Y-135465925D01*
X153950590Y-135482962D01*
X153318282Y-136115270D01*
X153372444Y-136154621D01*
X153372444Y-136154622D01*
X153561779Y-136251093D01*
X153763871Y-136316757D01*
X153973758Y-136350000D01*
X154186242Y-136350000D01*
X154396128Y-136316757D01*
X154598220Y-136251093D01*
X154787555Y-136154622D01*
X154787557Y-136154620D01*
X154841716Y-136115270D01*
X154841716Y-136115269D01*
X154209409Y-135482962D01*
X154272993Y-135465925D01*
X154387007Y-135400099D01*
X154480099Y-135307007D01*
X154545925Y-135192993D01*
X154562962Y-135129409D01*
X155195269Y-135761716D01*
X155195270Y-135761716D01*
X155234620Y-135707557D01*
X155234622Y-135707555D01*
X155331093Y-135518220D01*
X155396757Y-135316128D01*
X155430000Y-135106242D01*
X155430000Y-134893757D01*
X155396757Y-134683871D01*
X155331093Y-134481779D01*
X155234621Y-134292444D01*
X155195270Y-134238282D01*
X154562962Y-134870589D01*
X154545925Y-134807007D01*
X154480099Y-134692993D01*
X154387007Y-134599901D01*
X154272993Y-134534075D01*
X154209407Y-134517037D01*
X154841716Y-133884729D01*
X154841716Y-133884728D01*
X154787555Y-133845378D01*
X154787555Y-133845377D01*
X154598220Y-133748906D01*
X154396128Y-133683242D01*
X154186242Y-133650000D01*
X153973758Y-133650000D01*
X153763871Y-133683242D01*
X153561779Y-133748906D01*
X153372444Y-133845378D01*
X153318282Y-133884728D01*
X153318282Y-133884729D01*
X153950590Y-134517037D01*
X153887007Y-134534075D01*
X153772993Y-134599901D01*
X153679901Y-134692993D01*
X153614075Y-134807007D01*
X153597037Y-134870590D01*
X152964729Y-134238282D01*
X152964727Y-134238282D01*
X152930852Y-134284908D01*
X152870912Y-134333446D01*
X152794734Y-134345512D01*
X152722729Y-134317871D01*
X152689765Y-134284908D01*
X152652882Y-134234143D01*
X152570104Y-134120208D01*
X152419792Y-133969896D01*
X152247816Y-133844949D01*
X152144785Y-133792452D01*
X152058418Y-133748445D01*
X152058406Y-133748441D01*
X151944525Y-133711438D01*
X151885210Y-133675090D01*
X131210131Y-113000011D01*
X149700000Y-113000011D01*
X149700000Y-113950000D01*
X150999999Y-113950000D01*
X150974979Y-114010402D01*
X150950000Y-114135981D01*
X150950000Y-114264019D01*
X150974979Y-114389598D01*
X150999999Y-114450000D01*
X149700000Y-114450000D01*
X149700000Y-115399988D01*
X149710492Y-115502687D01*
X149710494Y-115502696D01*
X149765642Y-115669120D01*
X149857680Y-115818339D01*
X149981660Y-115942319D01*
X150130879Y-116034357D01*
X150297303Y-116089505D01*
X150297312Y-116089507D01*
X150400011Y-116099999D01*
X150400022Y-116100000D01*
X151350000Y-116100000D01*
X151350000Y-114800001D01*
X151410402Y-114825021D01*
X151535981Y-114850000D01*
X151664019Y-114850000D01*
X151789598Y-114825021D01*
X151850000Y-114800001D01*
X151850000Y-116100000D01*
X152799978Y-116100000D01*
X152799988Y-116099999D01*
X152902687Y-116089507D01*
X152902696Y-116089505D01*
X153069120Y-116034357D01*
X153218339Y-115942319D01*
X153342319Y-115818339D01*
X153434357Y-115669120D01*
X153489505Y-115502696D01*
X153489507Y-115502687D01*
X153499999Y-115399988D01*
X153500000Y-115399978D01*
X153500000Y-114450000D01*
X152200001Y-114450000D01*
X152225021Y-114389598D01*
X152250000Y-114264019D01*
X152250000Y-114135981D01*
X152225021Y-114010402D01*
X152200001Y-113950000D01*
X153500000Y-113950000D01*
X153500000Y-113000021D01*
X153499999Y-113000011D01*
X153489507Y-112897312D01*
X153489505Y-112897303D01*
X153434357Y-112730879D01*
X153342319Y-112581660D01*
X153218339Y-112457680D01*
X153069120Y-112365642D01*
X152902696Y-112310494D01*
X152902687Y-112310492D01*
X152799988Y-112300000D01*
X151850000Y-112300000D01*
X151850000Y-113599998D01*
X151789598Y-113574979D01*
X151664019Y-113550000D01*
X151535981Y-113550000D01*
X151410402Y-113574979D01*
X151350000Y-113599998D01*
X151350000Y-112300000D01*
X150400011Y-112300000D01*
X150297312Y-112310492D01*
X150297303Y-112310494D01*
X150130879Y-112365642D01*
X149981660Y-112457680D01*
X149857680Y-112581660D01*
X149765642Y-112730879D01*
X149710494Y-112897303D01*
X149710492Y-112897312D01*
X149700000Y-113000011D01*
X131210131Y-113000011D01*
X127285581Y-109075461D01*
X149700000Y-109075461D01*
X149700000Y-109324538D01*
X149732507Y-109571459D01*
X149796973Y-109812048D01*
X149892287Y-110042156D01*
X150016819Y-110257851D01*
X150016820Y-110257853D01*
X150091399Y-110355045D01*
X150998957Y-109447486D01*
X151023978Y-109507890D01*
X151095112Y-109614351D01*
X151185649Y-109704888D01*
X151292110Y-109776022D01*
X151352511Y-109801041D01*
X150444952Y-110708599D01*
X150542146Y-110783179D01*
X150542148Y-110783180D01*
X150757843Y-110907712D01*
X150987951Y-111003026D01*
X151228540Y-111067492D01*
X151475461Y-111099999D01*
X151475467Y-111100000D01*
X151724533Y-111100000D01*
X151724538Y-111099999D01*
X151971459Y-111067492D01*
X152212048Y-111003026D01*
X152442157Y-110907712D01*
X152657849Y-110783182D01*
X152755045Y-110708599D01*
X152755046Y-110708599D01*
X151847488Y-109801041D01*
X151907890Y-109776022D01*
X152014351Y-109704888D01*
X152104888Y-109614351D01*
X152176022Y-109507890D01*
X152201041Y-109447488D01*
X153108599Y-110355046D01*
X153108599Y-110355045D01*
X153183182Y-110257849D01*
X153307712Y-110042157D01*
X153403026Y-109812048D01*
X153467492Y-109571459D01*
X153499999Y-109324538D01*
X153500000Y-109324533D01*
X153500000Y-109075467D01*
X153499999Y-109075461D01*
X153467492Y-108828540D01*
X153403026Y-108587951D01*
X153307712Y-108357843D01*
X153183180Y-108142148D01*
X153183179Y-108142146D01*
X153108599Y-108044952D01*
X152201041Y-108952510D01*
X152176022Y-108892110D01*
X152104888Y-108785649D01*
X152014351Y-108695112D01*
X151907890Y-108623978D01*
X151847487Y-108598957D01*
X152755046Y-107691399D01*
X152657853Y-107616820D01*
X152657851Y-107616819D01*
X152442156Y-107492287D01*
X152212048Y-107396973D01*
X151971459Y-107332507D01*
X151724538Y-107300000D01*
X151475461Y-107300000D01*
X151228540Y-107332507D01*
X150987951Y-107396973D01*
X150757843Y-107492287D01*
X150542152Y-107616817D01*
X150444953Y-107691400D01*
X151352511Y-108598958D01*
X151292110Y-108623978D01*
X151185649Y-108695112D01*
X151095112Y-108785649D01*
X151023978Y-108892110D01*
X150998958Y-108952511D01*
X150091399Y-108044953D01*
X150016817Y-108142152D01*
X149892287Y-108357843D01*
X149796973Y-108587951D01*
X149732507Y-108828540D01*
X149700000Y-109075461D01*
X127285581Y-109075461D01*
X125572341Y-107362221D01*
X125572339Y-107362218D01*
X125432982Y-107222861D01*
X125400119Y-107200902D01*
X125269119Y-107113370D01*
X125269109Y-107113365D01*
X125180068Y-107076483D01*
X125140365Y-107060038D01*
X125113700Y-107048993D01*
X125087037Y-107037949D01*
X124990388Y-107018724D01*
X124990388Y-107018723D01*
X124893741Y-106999500D01*
X107516297Y-106999500D01*
X107441797Y-106979538D01*
X107398088Y-106941206D01*
X107246937Y-106744223D01*
X107070777Y-106568063D01*
X106942499Y-106469632D01*
X106873127Y-106416401D01*
X106672378Y-106300499D01*
X106657377Y-106291838D01*
X106657375Y-106291837D01*
X106657373Y-106291836D01*
X106522548Y-106235989D01*
X106427210Y-106196499D01*
X106427208Y-106196498D01*
X106427207Y-106196498D01*
X106186565Y-106132018D01*
X106186563Y-106132017D01*
X106186557Y-106132016D01*
X105939570Y-106099500D01*
X105939565Y-106099500D01*
X105690435Y-106099500D01*
X105690429Y-106099500D01*
X105443442Y-106132016D01*
X105202789Y-106196499D01*
X104972621Y-106291838D01*
X104911000Y-106327416D01*
X104836500Y-106347378D01*
X104762000Y-106327416D01*
X104707462Y-106272878D01*
X104687500Y-106198378D01*
X104687500Y-101000011D01*
X149700000Y-101000011D01*
X149700000Y-101950000D01*
X150999999Y-101950000D01*
X150974979Y-102010402D01*
X150950000Y-102135981D01*
X150950000Y-102264019D01*
X150974979Y-102389598D01*
X150999999Y-102450000D01*
X149700000Y-102450000D01*
X149700000Y-103399988D01*
X149710492Y-103502687D01*
X149710494Y-103502696D01*
X149765642Y-103669120D01*
X149857680Y-103818339D01*
X149981660Y-103942319D01*
X150130879Y-104034357D01*
X150297303Y-104089505D01*
X150297312Y-104089507D01*
X150400011Y-104099999D01*
X150400022Y-104100000D01*
X151350000Y-104100000D01*
X151350000Y-102800001D01*
X151410402Y-102825021D01*
X151535981Y-102850000D01*
X151664019Y-102850000D01*
X151789598Y-102825021D01*
X151850000Y-102800001D01*
X151850000Y-104100000D01*
X152799978Y-104100000D01*
X152799988Y-104099999D01*
X152902687Y-104089507D01*
X152902696Y-104089505D01*
X153069120Y-104034357D01*
X153218339Y-103942319D01*
X153342319Y-103818339D01*
X153434357Y-103669120D01*
X153489505Y-103502696D01*
X153489507Y-103502687D01*
X153499999Y-103399988D01*
X153500000Y-103399978D01*
X153500000Y-102450000D01*
X152200001Y-102450000D01*
X152225021Y-102389598D01*
X152250000Y-102264019D01*
X152250000Y-102135981D01*
X152225021Y-102010402D01*
X152200001Y-101950000D01*
X153500000Y-101950000D01*
X153500000Y-101000021D01*
X153499999Y-101000011D01*
X153489507Y-100897312D01*
X153489505Y-100897303D01*
X153434357Y-100730879D01*
X153342319Y-100581660D01*
X153218339Y-100457680D01*
X153069120Y-100365642D01*
X152902696Y-100310494D01*
X152902687Y-100310492D01*
X152799988Y-100300000D01*
X151850000Y-100300000D01*
X151850000Y-101599998D01*
X151789598Y-101574979D01*
X151664019Y-101550000D01*
X151535981Y-101550000D01*
X151410402Y-101574979D01*
X151350000Y-101599998D01*
X151350000Y-100300000D01*
X150400011Y-100300000D01*
X150297312Y-100310492D01*
X150297303Y-100310494D01*
X150130879Y-100365642D01*
X149981660Y-100457680D01*
X149857680Y-100581660D01*
X149765642Y-100730879D01*
X149710494Y-100897303D01*
X149710492Y-100897312D01*
X149700000Y-101000011D01*
X104687500Y-101000011D01*
X104687500Y-97075461D01*
X149700000Y-97075461D01*
X149700000Y-97324538D01*
X149732507Y-97571459D01*
X149796973Y-97812048D01*
X149892287Y-98042156D01*
X150016819Y-98257851D01*
X150016820Y-98257853D01*
X150091399Y-98355045D01*
X150998957Y-97447486D01*
X151023978Y-97507890D01*
X151095112Y-97614351D01*
X151185649Y-97704888D01*
X151292110Y-97776022D01*
X151352511Y-97801041D01*
X150444952Y-98708599D01*
X150542146Y-98783179D01*
X150542148Y-98783180D01*
X150757843Y-98907712D01*
X150987951Y-99003026D01*
X151228540Y-99067492D01*
X151475461Y-99099999D01*
X151475467Y-99100000D01*
X151724533Y-99100000D01*
X151724538Y-99099999D01*
X151971459Y-99067492D01*
X152212048Y-99003026D01*
X152442157Y-98907712D01*
X152657849Y-98783182D01*
X152755045Y-98708599D01*
X152755046Y-98708599D01*
X151847488Y-97801041D01*
X151907890Y-97776022D01*
X152014351Y-97704888D01*
X152104888Y-97614351D01*
X152176022Y-97507890D01*
X152201041Y-97447488D01*
X153108599Y-98355046D01*
X153108599Y-98355045D01*
X153183182Y-98257849D01*
X153307712Y-98042157D01*
X153403026Y-97812048D01*
X153467492Y-97571459D01*
X153499999Y-97324538D01*
X153500000Y-97324533D01*
X153500000Y-97075467D01*
X153499999Y-97075461D01*
X153467492Y-96828540D01*
X153403026Y-96587951D01*
X153307712Y-96357843D01*
X153183180Y-96142148D01*
X153183179Y-96142146D01*
X153108599Y-96044952D01*
X152201041Y-96952510D01*
X152176022Y-96892110D01*
X152104888Y-96785649D01*
X152014351Y-96695112D01*
X151907890Y-96623978D01*
X151847487Y-96598957D01*
X152755046Y-95691399D01*
X152657853Y-95616820D01*
X152657851Y-95616819D01*
X152442156Y-95492287D01*
X152212048Y-95396973D01*
X151971459Y-95332507D01*
X151724538Y-95300000D01*
X151475461Y-95300000D01*
X151228540Y-95332507D01*
X150987951Y-95396973D01*
X150757843Y-95492287D01*
X150542152Y-95616817D01*
X150444953Y-95691400D01*
X151352511Y-96598958D01*
X151292110Y-96623978D01*
X151185649Y-96695112D01*
X151095112Y-96785649D01*
X151023978Y-96892110D01*
X150998958Y-96952511D01*
X150091399Y-96044953D01*
X150016817Y-96142152D01*
X149892287Y-96357843D01*
X149796973Y-96587951D01*
X149732507Y-96828540D01*
X149700000Y-97075461D01*
X104687500Y-97075461D01*
X104687500Y-95604137D01*
X104707462Y-95529637D01*
X104731137Y-95498782D01*
X105319462Y-94910456D01*
X105386255Y-94871894D01*
X105444267Y-94868092D01*
X105613900Y-94890424D01*
X105690435Y-94900500D01*
X105939565Y-94900500D01*
X106186565Y-94867982D01*
X106427207Y-94803502D01*
X106657373Y-94708164D01*
X106873127Y-94583599D01*
X107070776Y-94431938D01*
X107246938Y-94255776D01*
X107398599Y-94058127D01*
X107523164Y-93842373D01*
X107618502Y-93612207D01*
X107682982Y-93371565D01*
X107715500Y-93124565D01*
X107715500Y-92875435D01*
X107682982Y-92628435D01*
X107618502Y-92387793D01*
X107523164Y-92157627D01*
X107398599Y-91941873D01*
X107246938Y-91744224D01*
X107070776Y-91568062D01*
X106873127Y-91416401D01*
X106801209Y-91374879D01*
X106657377Y-91291838D01*
X106657375Y-91291837D01*
X106657373Y-91291836D01*
X106522548Y-91235989D01*
X106427210Y-91196499D01*
X106427208Y-91196498D01*
X106427207Y-91196498D01*
X106186565Y-91132018D01*
X106186563Y-91132017D01*
X106186557Y-91132016D01*
X105939570Y-91099500D01*
X105939565Y-91099500D01*
X105690435Y-91099500D01*
X105690429Y-91099500D01*
X105443442Y-91132016D01*
X105202789Y-91196499D01*
X104972622Y-91291838D01*
X104756874Y-91416400D01*
X104559222Y-91568063D01*
X104383063Y-91744222D01*
X104231400Y-91941874D01*
X104106838Y-92157622D01*
X104011499Y-92387789D01*
X103947016Y-92628442D01*
X103914500Y-92875429D01*
X103914500Y-93124570D01*
X103946907Y-93370730D01*
X103936840Y-93447198D01*
X103904541Y-93495537D01*
X103049220Y-94350859D01*
X102909864Y-94490214D01*
X102909860Y-94490219D01*
X102800368Y-94654084D01*
X102800367Y-94654087D01*
X102724949Y-94836163D01*
X102724948Y-94836165D01*
X102686500Y-95029460D01*
X14900000Y-95029460D01*
X14900000Y-90199992D01*
X21299500Y-90199992D01*
X21299500Y-92600008D01*
X21310001Y-92702797D01*
X21360499Y-92855191D01*
X21365187Y-92869336D01*
X21457289Y-93018655D01*
X21581345Y-93142711D01*
X21730666Y-93234814D01*
X21897203Y-93289999D01*
X21999992Y-93300500D01*
X21999996Y-93300500D01*
X24400004Y-93300500D01*
X24400008Y-93300500D01*
X24502797Y-93289999D01*
X24669334Y-93234814D01*
X24818655Y-93142711D01*
X24942711Y-93018655D01*
X25031055Y-92875429D01*
X44784500Y-92875429D01*
X44784500Y-93124570D01*
X44817016Y-93371557D01*
X44817017Y-93371563D01*
X44817018Y-93371565D01*
X44881498Y-93612207D01*
X44976836Y-93842373D01*
X45101401Y-94058127D01*
X45253062Y-94255776D01*
X45429224Y-94431938D01*
X45626873Y-94583599D01*
X45842627Y-94708164D01*
X46072793Y-94803502D01*
X46313435Y-94867982D01*
X46313441Y-94867982D01*
X46313442Y-94867983D01*
X46362291Y-94874414D01*
X46560435Y-94900500D01*
X46809565Y-94900500D01*
X47056565Y-94867982D01*
X47297207Y-94803502D01*
X47527373Y-94708164D01*
X47743127Y-94583599D01*
X47940776Y-94431938D01*
X48116938Y-94255776D01*
X48268599Y-94058127D01*
X48393164Y-93842373D01*
X48488502Y-93612207D01*
X48552982Y-93371565D01*
X48585500Y-93124565D01*
X48585500Y-92929691D01*
X48605462Y-92855191D01*
X48629141Y-92824332D01*
X49511033Y-91942441D01*
X49577828Y-91903877D01*
X49616392Y-91898800D01*
X67498194Y-91898800D01*
X67572694Y-91918762D01*
X67627232Y-91973300D01*
X67647194Y-92047800D01*
X67627232Y-92122300D01*
X67627231Y-92122301D01*
X67606839Y-92157619D01*
X67511499Y-92387789D01*
X67447016Y-92628442D01*
X67414500Y-92875429D01*
X67414500Y-93124570D01*
X67447016Y-93371557D01*
X67447017Y-93371563D01*
X67447018Y-93371565D01*
X67511498Y-93612207D01*
X67606836Y-93842373D01*
X67731401Y-94058127D01*
X67883062Y-94255776D01*
X68059224Y-94431938D01*
X68256873Y-94583599D01*
X68472627Y-94708164D01*
X68702793Y-94803502D01*
X68943435Y-94867982D01*
X68943441Y-94867982D01*
X68943442Y-94867983D01*
X68992291Y-94874414D01*
X69190435Y-94900500D01*
X69439565Y-94900500D01*
X69686565Y-94867982D01*
X69927207Y-94803502D01*
X70157373Y-94708164D01*
X70373127Y-94583599D01*
X70570776Y-94431938D01*
X70746938Y-94255776D01*
X70898599Y-94058127D01*
X71023164Y-93842373D01*
X71118502Y-93612207D01*
X71182982Y-93371565D01*
X71215500Y-93124565D01*
X71215500Y-92875435D01*
X71182982Y-92628435D01*
X71118502Y-92387793D01*
X71023164Y-92157627D01*
X71023161Y-92157622D01*
X71023160Y-92157619D01*
X71002769Y-92122301D01*
X70982806Y-92047801D01*
X71002768Y-91973301D01*
X71057305Y-91918763D01*
X71131805Y-91898800D01*
X80253608Y-91898800D01*
X80328108Y-91918762D01*
X80358967Y-91942441D01*
X81240859Y-92824333D01*
X81279423Y-92891128D01*
X81284500Y-92929692D01*
X81284500Y-93124570D01*
X81317016Y-93371557D01*
X81317017Y-93371563D01*
X81317018Y-93371565D01*
X81381498Y-93612207D01*
X81476836Y-93842373D01*
X81601401Y-94058127D01*
X81753062Y-94255776D01*
X81929224Y-94431938D01*
X82126873Y-94583599D01*
X82342627Y-94708164D01*
X82572793Y-94803502D01*
X82813435Y-94867982D01*
X82813441Y-94867982D01*
X82813442Y-94867983D01*
X82862291Y-94874414D01*
X83060435Y-94900500D01*
X83309565Y-94900500D01*
X83385915Y-94890448D01*
X83507713Y-94874414D01*
X83556557Y-94867983D01*
X83556556Y-94867983D01*
X83556565Y-94867982D01*
X83797207Y-94803502D01*
X84027373Y-94708164D01*
X84243127Y-94583599D01*
X84440776Y-94431938D01*
X84616938Y-94255776D01*
X84768599Y-94058127D01*
X84893164Y-93842373D01*
X84988502Y-93612207D01*
X85052982Y-93371565D01*
X85085500Y-93124565D01*
X85085500Y-92929691D01*
X85105462Y-92855191D01*
X85129141Y-92824332D01*
X90459333Y-87494141D01*
X90526128Y-87455577D01*
X90564692Y-87450500D01*
X149585078Y-87450500D01*
X149659578Y-87470462D01*
X149714116Y-87525000D01*
X149726513Y-87552629D01*
X149760693Y-87655776D01*
X149765187Y-87669336D01*
X149814942Y-87750000D01*
X149857289Y-87818655D01*
X149981345Y-87942711D01*
X150130666Y-88034814D01*
X150297203Y-88089999D01*
X150399992Y-88100500D01*
X150399996Y-88100500D01*
X152800004Y-88100500D01*
X152800008Y-88100500D01*
X152902797Y-88089999D01*
X153069334Y-88034814D01*
X153218655Y-87942711D01*
X153342711Y-87818655D01*
X153434814Y-87669334D01*
X153489999Y-87502797D01*
X153500500Y-87400008D01*
X153500500Y-84999992D01*
X153489999Y-84897203D01*
X153434814Y-84730666D01*
X153434811Y-84730661D01*
X153434811Y-84730660D01*
X153352058Y-84596499D01*
X153342711Y-84581345D01*
X153218655Y-84457289D01*
X153069334Y-84365186D01*
X152985332Y-84337350D01*
X152902798Y-84310001D01*
X152902799Y-84310001D01*
X152868534Y-84306500D01*
X152800008Y-84299500D01*
X150399992Y-84299500D01*
X150331466Y-84306500D01*
X150297201Y-84310001D01*
X150130663Y-84365187D01*
X149981344Y-84457289D01*
X149857289Y-84581344D01*
X149765189Y-84730660D01*
X149765188Y-84730661D01*
X149726515Y-84847368D01*
X149684132Y-84911807D01*
X149615208Y-84946422D01*
X149585078Y-84949500D01*
X90083416Y-84949500D01*
X89886583Y-84949500D01*
X89692173Y-84980291D01*
X89504974Y-85041116D01*
X89504968Y-85041118D01*
X89504968Y-85041119D01*
X89329593Y-85130477D01*
X89170363Y-85246165D01*
X89170352Y-85246174D01*
X83360666Y-91055859D01*
X83293871Y-91094423D01*
X83255307Y-91099500D01*
X83114692Y-91099500D01*
X83040192Y-91079538D01*
X83009333Y-91055859D01*
X81647946Y-89694472D01*
X81488705Y-89578776D01*
X81313326Y-89489416D01*
X81126126Y-89428591D01*
X80931717Y-89397800D01*
X49135117Y-89397800D01*
X48938283Y-89397800D01*
X48743874Y-89428591D01*
X48556674Y-89489416D01*
X48556668Y-89489418D01*
X48556668Y-89489419D01*
X48381293Y-89578777D01*
X48222063Y-89694465D01*
X48222052Y-89694474D01*
X46860666Y-91055859D01*
X46793871Y-91094423D01*
X46755307Y-91099500D01*
X46560429Y-91099500D01*
X46313442Y-91132016D01*
X46072789Y-91196499D01*
X45842622Y-91291838D01*
X45626874Y-91416400D01*
X45429222Y-91568063D01*
X45253063Y-91744222D01*
X45101400Y-91941874D01*
X44976838Y-92157622D01*
X44881499Y-92387789D01*
X44817016Y-92628442D01*
X44784500Y-92875429D01*
X25031055Y-92875429D01*
X25034814Y-92869334D01*
X25089999Y-92702797D01*
X25100500Y-92600008D01*
X25100500Y-90199992D01*
X25089999Y-90097203D01*
X25034814Y-89930666D01*
X24942711Y-89781345D01*
X24818655Y-89657289D01*
X24669336Y-89565187D01*
X24669335Y-89565186D01*
X24669334Y-89565186D01*
X24585332Y-89537350D01*
X24502798Y-89510001D01*
X24502799Y-89510001D01*
X24468534Y-89506500D01*
X24400008Y-89499500D01*
X21999992Y-89499500D01*
X21931466Y-89506500D01*
X21897201Y-89510001D01*
X21730663Y-89565187D01*
X21581344Y-89657289D01*
X21457289Y-89781344D01*
X21365187Y-89930663D01*
X21310001Y-90097201D01*
X21310001Y-90097203D01*
X21299500Y-90199992D01*
X14900000Y-90199992D01*
X14900000Y-86275429D01*
X21299500Y-86275429D01*
X21299500Y-86524570D01*
X21332016Y-86771557D01*
X21332017Y-86771563D01*
X21332018Y-86771565D01*
X21338630Y-86796243D01*
X21396499Y-87012210D01*
X21491838Y-87242377D01*
X21559628Y-87359793D01*
X21616401Y-87458127D01*
X21768062Y-87655776D01*
X21944224Y-87831938D01*
X22141873Y-87983599D01*
X22357627Y-88108164D01*
X22587793Y-88203502D01*
X22828435Y-88267982D01*
X22828441Y-88267982D01*
X22828442Y-88267983D01*
X22895586Y-88276822D01*
X23075435Y-88300500D01*
X23324565Y-88300500D01*
X23571565Y-88267982D01*
X23812207Y-88203502D01*
X24042373Y-88108164D01*
X24258127Y-87983599D01*
X24455776Y-87831938D01*
X24631938Y-87655776D01*
X24783599Y-87458127D01*
X24843138Y-87355000D01*
X24897675Y-87300463D01*
X24972175Y-87280500D01*
X32536367Y-87280500D01*
X32610867Y-87300462D01*
X32656910Y-87341919D01*
X32666415Y-87355001D01*
X32669896Y-87359792D01*
X32820208Y-87510104D01*
X32840711Y-87525000D01*
X32984482Y-87629456D01*
X33033020Y-87689396D01*
X33045086Y-87765575D01*
X33017446Y-87837580D01*
X32984482Y-87870544D01*
X32820209Y-87989895D01*
X32820206Y-87989897D01*
X32669897Y-88140206D01*
X32669895Y-88140209D01*
X32544950Y-88312181D01*
X32544950Y-88312182D01*
X32544949Y-88312184D01*
X32448443Y-88501588D01*
X32382754Y-88703757D01*
X32349500Y-88913713D01*
X32349500Y-89126287D01*
X32382754Y-89336243D01*
X32448443Y-89538412D01*
X32544949Y-89727816D01*
X32669896Y-89899792D01*
X32820208Y-90050104D01*
X32992184Y-90175051D01*
X33181588Y-90271557D01*
X33383757Y-90337246D01*
X33593713Y-90370500D01*
X33593718Y-90370500D01*
X33806282Y-90370500D01*
X33806287Y-90370500D01*
X34016243Y-90337246D01*
X34218412Y-90271557D01*
X34407816Y-90175051D01*
X34579792Y-90050104D01*
X34730104Y-89899792D01*
X34855051Y-89727816D01*
X34951557Y-89538412D01*
X35017246Y-89336243D01*
X35050500Y-89126287D01*
X35050500Y-88913713D01*
X35017246Y-88703757D01*
X34951557Y-88501588D01*
X34855051Y-88312184D01*
X34846561Y-88300499D01*
X34776088Y-88203500D01*
X34730104Y-88140208D01*
X34579792Y-87989896D01*
X34415517Y-87870544D01*
X34366979Y-87810604D01*
X34354913Y-87734426D01*
X34382553Y-87662420D01*
X34415517Y-87629456D01*
X34422519Y-87624368D01*
X34579792Y-87510104D01*
X34730104Y-87359792D01*
X34855051Y-87187816D01*
X34951557Y-86998412D01*
X35017246Y-86796243D01*
X35050500Y-86586287D01*
X35050500Y-86373713D01*
X35017246Y-86163757D01*
X34951557Y-85961588D01*
X34855051Y-85772184D01*
X34730104Y-85600208D01*
X34579792Y-85449896D01*
X34415517Y-85330544D01*
X34366979Y-85270604D01*
X34354913Y-85194426D01*
X34382553Y-85122420D01*
X34415517Y-85089456D01*
X34422519Y-85084368D01*
X34579792Y-84970104D01*
X34730104Y-84819792D01*
X34855051Y-84647816D01*
X34951557Y-84458412D01*
X35017246Y-84256243D01*
X35050500Y-84046287D01*
X35050500Y-83833713D01*
X35017246Y-83623757D01*
X34951557Y-83421588D01*
X34855051Y-83232184D01*
X34730104Y-83060208D01*
X34644075Y-82974179D01*
X34605512Y-82907385D01*
X34605512Y-82830257D01*
X34644076Y-82763462D01*
X34697366Y-82729215D01*
X34728278Y-82717685D01*
X34792327Y-82693798D01*
X34792333Y-82693795D01*
X34849938Y-82650671D01*
X34907546Y-82607546D01*
X34993796Y-82492331D01*
X35044091Y-82357483D01*
X35045823Y-82341370D01*
X35050499Y-82297885D01*
X35050499Y-82297882D01*
X35050500Y-82297873D01*
X35050499Y-81075429D01*
X149699500Y-81075429D01*
X149699500Y-81324570D01*
X149732016Y-81571557D01*
X149732017Y-81571563D01*
X149732018Y-81571565D01*
X149796498Y-81812207D01*
X149891836Y-82042373D01*
X150016401Y-82258127D01*
X150168062Y-82455776D01*
X150344224Y-82631938D01*
X150541873Y-82783599D01*
X150757627Y-82908164D01*
X150987793Y-83003502D01*
X151228435Y-83067982D01*
X151228441Y-83067982D01*
X151228442Y-83067983D01*
X151295586Y-83076822D01*
X151475435Y-83100500D01*
X151724565Y-83100500D01*
X151971565Y-83067982D01*
X152212207Y-83003502D01*
X152442373Y-82908164D01*
X152658127Y-82783599D01*
X152855776Y-82631938D01*
X153031938Y-82455776D01*
X153183599Y-82258127D01*
X153308164Y-82042373D01*
X153403502Y-81812207D01*
X153467982Y-81571565D01*
X153500500Y-81324565D01*
X153500500Y-81075435D01*
X153467982Y-80828435D01*
X153403502Y-80587793D01*
X153308164Y-80357627D01*
X153183599Y-80141873D01*
X153031938Y-79944224D01*
X152855776Y-79768062D01*
X152658127Y-79616401D01*
X152586209Y-79574879D01*
X152442377Y-79491838D01*
X152442375Y-79491837D01*
X152442373Y-79491836D01*
X152297762Y-79431936D01*
X152212210Y-79396499D01*
X152212208Y-79396498D01*
X152212207Y-79396498D01*
X151971565Y-79332018D01*
X151971563Y-79332017D01*
X151971557Y-79332016D01*
X151724570Y-79299500D01*
X151724565Y-79299500D01*
X151475435Y-79299500D01*
X151475429Y-79299500D01*
X151228442Y-79332016D01*
X150987789Y-79396499D01*
X150757622Y-79491838D01*
X150541874Y-79616400D01*
X150344222Y-79768063D01*
X150168063Y-79944222D01*
X150016400Y-80141874D01*
X149891838Y-80357622D01*
X149796499Y-80587789D01*
X149732016Y-80828442D01*
X149699500Y-81075429D01*
X35050499Y-81075429D01*
X35050499Y-80502128D01*
X35044091Y-80442517D01*
X35012429Y-80357627D01*
X34993797Y-80307670D01*
X34993795Y-80307666D01*
X34907547Y-80192455D01*
X34907544Y-80192452D01*
X34792333Y-80106204D01*
X34792329Y-80106202D01*
X34657482Y-80055908D01*
X34597876Y-80049500D01*
X32802136Y-80049500D01*
X32802111Y-80049502D01*
X32742521Y-80055908D01*
X32742515Y-80055909D01*
X32607670Y-80106202D01*
X32607666Y-80106204D01*
X32492455Y-80192452D01*
X32492452Y-80192455D01*
X32406204Y-80307666D01*
X32406202Y-80307670D01*
X32355908Y-80442517D01*
X32349500Y-80502114D01*
X32349500Y-82297863D01*
X32349502Y-82297888D01*
X32355908Y-82357478D01*
X32355909Y-82357484D01*
X32406202Y-82492329D01*
X32406204Y-82492333D01*
X32492452Y-82607544D01*
X32492455Y-82607547D01*
X32607666Y-82693795D01*
X32607668Y-82693795D01*
X32607669Y-82693796D01*
X32702633Y-82729215D01*
X32765460Y-82773953D01*
X32797501Y-82844111D01*
X32790170Y-82920890D01*
X32755923Y-82974179D01*
X32669904Y-83060198D01*
X32669895Y-83060209D01*
X32544950Y-83232181D01*
X32544950Y-83232182D01*
X32544949Y-83232184D01*
X32448443Y-83421588D01*
X32382754Y-83623757D01*
X32349500Y-83833713D01*
X32349500Y-84046287D01*
X32382754Y-84256243D01*
X32448443Y-84458412D01*
X32518801Y-84596498D01*
X32544950Y-84647817D01*
X32544950Y-84647818D01*
X32605138Y-84730660D01*
X32669896Y-84819792D01*
X32820208Y-84970104D01*
X32898844Y-85027236D01*
X32984482Y-85089456D01*
X33033020Y-85149396D01*
X33045086Y-85225575D01*
X33017446Y-85297580D01*
X32984482Y-85330544D01*
X32820209Y-85449895D01*
X32820206Y-85449897D01*
X32669892Y-85600212D01*
X32656910Y-85618081D01*
X32596969Y-85666619D01*
X32536367Y-85679500D01*
X25058204Y-85679500D01*
X24983704Y-85659538D01*
X24929166Y-85605000D01*
X24920546Y-85587520D01*
X24908164Y-85557627D01*
X24783599Y-85341873D01*
X24631938Y-85144224D01*
X24455776Y-84968062D01*
X24258127Y-84816401D01*
X24109620Y-84730661D01*
X24042377Y-84691838D01*
X24042375Y-84691837D01*
X24042373Y-84691836D01*
X23907548Y-84635989D01*
X23812210Y-84596499D01*
X23812208Y-84596498D01*
X23812207Y-84596498D01*
X23571565Y-84532018D01*
X23571563Y-84532017D01*
X23571557Y-84532016D01*
X23324570Y-84499500D01*
X23324565Y-84499500D01*
X23075435Y-84499500D01*
X23075429Y-84499500D01*
X22828442Y-84532016D01*
X22587789Y-84596499D01*
X22357622Y-84691838D01*
X22141874Y-84816400D01*
X21944222Y-84968063D01*
X21768063Y-85144222D01*
X21616400Y-85341874D01*
X21491838Y-85557622D01*
X21396499Y-85787789D01*
X21332016Y-86028442D01*
X21299500Y-86275429D01*
X14900000Y-86275429D01*
X14900000Y-78199992D01*
X21299500Y-78199992D01*
X21299500Y-80600008D01*
X21310001Y-80702797D01*
X21365186Y-80869334D01*
X21457289Y-81018655D01*
X21581345Y-81142711D01*
X21730666Y-81234814D01*
X21897203Y-81289999D01*
X21999992Y-81300500D01*
X21999996Y-81300500D01*
X24400004Y-81300500D01*
X24400008Y-81300500D01*
X24502797Y-81289999D01*
X24669334Y-81234814D01*
X24818655Y-81142711D01*
X24942711Y-81018655D01*
X25034814Y-80869334D01*
X25089999Y-80702797D01*
X25100500Y-80600008D01*
X25100500Y-78199992D01*
X25089999Y-78097203D01*
X25034814Y-77930666D01*
X25000743Y-77875429D01*
X44784500Y-77875429D01*
X44784500Y-78124570D01*
X44817016Y-78371557D01*
X44817017Y-78371563D01*
X44817018Y-78371565D01*
X44881498Y-78612207D01*
X44976836Y-78842373D01*
X45101401Y-79058127D01*
X45253062Y-79255776D01*
X45429224Y-79431938D01*
X45626873Y-79583599D01*
X45842627Y-79708164D01*
X46072793Y-79803502D01*
X46313435Y-79867982D01*
X46313441Y-79867982D01*
X46313442Y-79867983D01*
X46380586Y-79876822D01*
X46560435Y-79900500D01*
X46809565Y-79900500D01*
X47056565Y-79867982D01*
X47297207Y-79803502D01*
X47527373Y-79708164D01*
X47743127Y-79583599D01*
X47940776Y-79431938D01*
X48116938Y-79255776D01*
X48268599Y-79058127D01*
X48393164Y-78842373D01*
X48488502Y-78612207D01*
X48552982Y-78371565D01*
X48564197Y-78286371D01*
X48593711Y-78215117D01*
X48606555Y-78200470D01*
X49864586Y-76942441D01*
X49931381Y-76903877D01*
X49969945Y-76898800D01*
X67498194Y-76898800D01*
X67572694Y-76918762D01*
X67627232Y-76973300D01*
X67647194Y-77047800D01*
X67627232Y-77122300D01*
X67627231Y-77122301D01*
X67606839Y-77157619D01*
X67511499Y-77387789D01*
X67447016Y-77628442D01*
X67414500Y-77875429D01*
X67414500Y-78124570D01*
X67447016Y-78371557D01*
X67447017Y-78371563D01*
X67447018Y-78371565D01*
X67511498Y-78612207D01*
X67606836Y-78842373D01*
X67731401Y-79058127D01*
X67883062Y-79255776D01*
X68059224Y-79431938D01*
X68256873Y-79583599D01*
X68472627Y-79708164D01*
X68702793Y-79803502D01*
X68943435Y-79867982D01*
X68943441Y-79867982D01*
X68943442Y-79867983D01*
X69010586Y-79876822D01*
X69190435Y-79900500D01*
X69439565Y-79900500D01*
X69686565Y-79867982D01*
X69927207Y-79803502D01*
X70157373Y-79708164D01*
X70373127Y-79583599D01*
X70570776Y-79431938D01*
X70746938Y-79255776D01*
X70898599Y-79058127D01*
X71023164Y-78842373D01*
X71118502Y-78612207D01*
X71182982Y-78371565D01*
X71215500Y-78124565D01*
X71215500Y-77875435D01*
X71182982Y-77628435D01*
X71118502Y-77387793D01*
X71023164Y-77157627D01*
X71023161Y-77157622D01*
X71023160Y-77157619D01*
X71002769Y-77122301D01*
X70982806Y-77047801D01*
X71002768Y-76973301D01*
X71057305Y-76918763D01*
X71131805Y-76898800D01*
X79900055Y-76898800D01*
X79974555Y-76918762D01*
X80005414Y-76942441D01*
X81263435Y-78200462D01*
X81301999Y-78267257D01*
X81305801Y-78286372D01*
X81317015Y-78371551D01*
X81317017Y-78371563D01*
X81317018Y-78371565D01*
X81381498Y-78612207D01*
X81476836Y-78842373D01*
X81601401Y-79058127D01*
X81753062Y-79255776D01*
X81929224Y-79431938D01*
X82126873Y-79583599D01*
X82342627Y-79708164D01*
X82572793Y-79803502D01*
X82813435Y-79867982D01*
X82813441Y-79867982D01*
X82813442Y-79867983D01*
X82880586Y-79876822D01*
X83060435Y-79900500D01*
X83309565Y-79900500D01*
X83556565Y-79867982D01*
X83797207Y-79803502D01*
X84027373Y-79708164D01*
X84243127Y-79583599D01*
X84440776Y-79431938D01*
X84616938Y-79255776D01*
X84768599Y-79058127D01*
X84893164Y-78842373D01*
X84988502Y-78612207D01*
X85052982Y-78371565D01*
X85064197Y-78286371D01*
X85093711Y-78215117D01*
X85106555Y-78200470D01*
X85431596Y-77875429D01*
X103914500Y-77875429D01*
X103914500Y-78124570D01*
X103947016Y-78371557D01*
X103947017Y-78371563D01*
X103947018Y-78371565D01*
X104011498Y-78612207D01*
X104106836Y-78842373D01*
X104231401Y-79058127D01*
X104383062Y-79255776D01*
X104559224Y-79431938D01*
X104756873Y-79583599D01*
X104972627Y-79708164D01*
X105202793Y-79803502D01*
X105443435Y-79867982D01*
X105443441Y-79867982D01*
X105443442Y-79867983D01*
X105510586Y-79876822D01*
X105690435Y-79900500D01*
X105939565Y-79900500D01*
X106186565Y-79867982D01*
X106427207Y-79803502D01*
X106657373Y-79708164D01*
X106873127Y-79583599D01*
X107070776Y-79431938D01*
X107246938Y-79255776D01*
X107398599Y-79058127D01*
X107523164Y-78842373D01*
X107618502Y-78612207D01*
X107682982Y-78371565D01*
X107715500Y-78124565D01*
X107715500Y-77875435D01*
X107682982Y-77628435D01*
X107618502Y-77387793D01*
X107523164Y-77157627D01*
X107398599Y-76941873D01*
X107246938Y-76744224D01*
X107070776Y-76568062D01*
X106873127Y-76416401D01*
X106672378Y-76300499D01*
X106657377Y-76291838D01*
X106657375Y-76291837D01*
X106657373Y-76291836D01*
X106522548Y-76235989D01*
X106427210Y-76196499D01*
X106427208Y-76196498D01*
X106427207Y-76196498D01*
X106186565Y-76132018D01*
X106186563Y-76132017D01*
X106186557Y-76132016D01*
X105939570Y-76099500D01*
X105939565Y-76099500D01*
X105690435Y-76099500D01*
X105690429Y-76099500D01*
X105443442Y-76132016D01*
X105202789Y-76196499D01*
X104972622Y-76291838D01*
X104756874Y-76416400D01*
X104559222Y-76568063D01*
X104383063Y-76744222D01*
X104231400Y-76941874D01*
X104106838Y-77157622D01*
X104011499Y-77387789D01*
X103947016Y-77628442D01*
X103914500Y-77875429D01*
X85431596Y-77875429D01*
X87562887Y-75744141D01*
X87629682Y-75705577D01*
X87668246Y-75700500D01*
X149701250Y-75700500D01*
X149775750Y-75720462D01*
X149828067Y-75771279D01*
X149857286Y-75818651D01*
X149857287Y-75818652D01*
X149857289Y-75818655D01*
X149981345Y-75942711D01*
X150130666Y-76034814D01*
X150297203Y-76089999D01*
X150399992Y-76100500D01*
X150399996Y-76100500D01*
X152800004Y-76100500D01*
X152800008Y-76100500D01*
X152902797Y-76089999D01*
X153069334Y-76034814D01*
X153218655Y-75942711D01*
X153342711Y-75818655D01*
X153434814Y-75669334D01*
X153489999Y-75502797D01*
X153500500Y-75400008D01*
X153500500Y-72999992D01*
X153489999Y-72897203D01*
X153434814Y-72730666D01*
X153342711Y-72581345D01*
X153218655Y-72457289D01*
X153069334Y-72365186D01*
X152985332Y-72337350D01*
X152902798Y-72310001D01*
X152902799Y-72310001D01*
X152868534Y-72306500D01*
X152800008Y-72299500D01*
X150399992Y-72299500D01*
X150331466Y-72306500D01*
X150297201Y-72310001D01*
X150130663Y-72365187D01*
X149981344Y-72457289D01*
X149857286Y-72581348D01*
X149828067Y-72628721D01*
X149771966Y-72681650D01*
X149701250Y-72699500D01*
X86866908Y-72699500D01*
X86702928Y-72725471D01*
X86670131Y-72730666D01*
X86670130Y-72730665D01*
X86633642Y-72736444D01*
X86633633Y-72736446D01*
X86409014Y-72809430D01*
X86409008Y-72809432D01*
X86409002Y-72809434D01*
X86409002Y-72809435D01*
X86198565Y-72916658D01*
X86198564Y-72916658D01*
X86007491Y-73055481D01*
X86007488Y-73055483D01*
X83290357Y-75772613D01*
X83223562Y-75811177D01*
X83146434Y-75811177D01*
X83079641Y-75772614D01*
X81560810Y-74253783D01*
X81560806Y-74253780D01*
X81560803Y-74253777D01*
X81369735Y-74114958D01*
X81369734Y-74114957D01*
X81159292Y-74007732D01*
X80934668Y-73934747D01*
X80701392Y-73897800D01*
X49168608Y-73897800D01*
X48935332Y-73934747D01*
X48783692Y-73984017D01*
X48783690Y-73984017D01*
X48710712Y-74007729D01*
X48710700Y-74007734D01*
X48500264Y-74114958D01*
X48309195Y-74253777D01*
X46484536Y-76078435D01*
X46417741Y-76116999D01*
X46398627Y-76120801D01*
X46313446Y-76132015D01*
X46313436Y-76132017D01*
X46072789Y-76196499D01*
X45842622Y-76291838D01*
X45626874Y-76416400D01*
X45429222Y-76568063D01*
X45253063Y-76744222D01*
X45101400Y-76941874D01*
X44976838Y-77157622D01*
X44881499Y-77387789D01*
X44817016Y-77628442D01*
X44784500Y-77875429D01*
X25000743Y-77875429D01*
X24942711Y-77781345D01*
X24818655Y-77657289D01*
X24669334Y-77565186D01*
X24585332Y-77537350D01*
X24502798Y-77510001D01*
X24502799Y-77510001D01*
X24468534Y-77506500D01*
X24400008Y-77499500D01*
X21999992Y-77499500D01*
X21931466Y-77506500D01*
X21897201Y-77510001D01*
X21730663Y-77565187D01*
X21581344Y-77657289D01*
X21457289Y-77781344D01*
X21365187Y-77930663D01*
X21310001Y-78097201D01*
X21310001Y-78097203D01*
X21299500Y-78199992D01*
X14900000Y-78199992D01*
X14900000Y-74275429D01*
X21299500Y-74275429D01*
X21299500Y-74524570D01*
X21332016Y-74771557D01*
X21332017Y-74771563D01*
X21332018Y-74771565D01*
X21396498Y-75012207D01*
X21491836Y-75242373D01*
X21616401Y-75458127D01*
X21768062Y-75655776D01*
X21944224Y-75831938D01*
X22141873Y-75983599D01*
X22357627Y-76108164D01*
X22587793Y-76203502D01*
X22828435Y-76267982D01*
X22828441Y-76267982D01*
X22828442Y-76267983D01*
X22895586Y-76276822D01*
X23075435Y-76300500D01*
X23324565Y-76300500D01*
X23571565Y-76267982D01*
X23812207Y-76203502D01*
X24042373Y-76108164D01*
X24258127Y-75983599D01*
X24455776Y-75831938D01*
X24631938Y-75655776D01*
X24783599Y-75458127D01*
X24908164Y-75242373D01*
X25003502Y-75012207D01*
X25067982Y-74771565D01*
X25100500Y-74524565D01*
X25100500Y-74275435D01*
X25067982Y-74028435D01*
X25003502Y-73787793D01*
X24908164Y-73557627D01*
X24783599Y-73341873D01*
X24631938Y-73144224D01*
X24455776Y-72968062D01*
X24258127Y-72816401D01*
X24055648Y-72699500D01*
X24042377Y-72691838D01*
X24042375Y-72691837D01*
X24042373Y-72691836D01*
X23890000Y-72628721D01*
X23812210Y-72596499D01*
X23812208Y-72596498D01*
X23812207Y-72596498D01*
X23571565Y-72532018D01*
X23571563Y-72532017D01*
X23571557Y-72532016D01*
X23324570Y-72499500D01*
X23324565Y-72499500D01*
X23075435Y-72499500D01*
X23075429Y-72499500D01*
X22828442Y-72532016D01*
X22587789Y-72596499D01*
X22357622Y-72691838D01*
X22141874Y-72816400D01*
X21944222Y-72968063D01*
X21768063Y-73144222D01*
X21616400Y-73341874D01*
X21491838Y-73557622D01*
X21396499Y-73787789D01*
X21332016Y-74028442D01*
X21299500Y-74275429D01*
X14900000Y-74275429D01*
X14900000Y-69075429D01*
X149699500Y-69075429D01*
X149699500Y-69324570D01*
X149732016Y-69571557D01*
X149732017Y-69571563D01*
X149732018Y-69571565D01*
X149796498Y-69812207D01*
X149891836Y-70042373D01*
X150016401Y-70258127D01*
X150168062Y-70455776D01*
X150344224Y-70631938D01*
X150541873Y-70783599D01*
X150757627Y-70908164D01*
X150987793Y-71003502D01*
X151228435Y-71067982D01*
X151228441Y-71067982D01*
X151228442Y-71067983D01*
X151295586Y-71076822D01*
X151475435Y-71100500D01*
X151724565Y-71100500D01*
X151971565Y-71067982D01*
X152212207Y-71003502D01*
X152442373Y-70908164D01*
X152658127Y-70783599D01*
X152855776Y-70631938D01*
X153031938Y-70455776D01*
X153183599Y-70258127D01*
X153308164Y-70042373D01*
X153403502Y-69812207D01*
X153467982Y-69571565D01*
X153500500Y-69324565D01*
X153500500Y-69075435D01*
X153467982Y-68828435D01*
X153403502Y-68587793D01*
X153308164Y-68357627D01*
X153183599Y-68141873D01*
X153031938Y-67944224D01*
X152855776Y-67768062D01*
X152658127Y-67616401D01*
X152586209Y-67574879D01*
X152442377Y-67491838D01*
X152442375Y-67491837D01*
X152442373Y-67491836D01*
X152307548Y-67435989D01*
X152212210Y-67396499D01*
X152212208Y-67396498D01*
X152212207Y-67396498D01*
X151971565Y-67332018D01*
X151971563Y-67332017D01*
X151971557Y-67332016D01*
X151724570Y-67299500D01*
X151724565Y-67299500D01*
X151475435Y-67299500D01*
X151475429Y-67299500D01*
X151228442Y-67332016D01*
X150987789Y-67396499D01*
X150757622Y-67491838D01*
X150541874Y-67616400D01*
X150344222Y-67768063D01*
X150168063Y-67944222D01*
X150016400Y-68141874D01*
X149891838Y-68357622D01*
X149796499Y-68587789D01*
X149732016Y-68828442D01*
X149699500Y-69075429D01*
X14900000Y-69075429D01*
X14900000Y-60199992D01*
X21299500Y-60199992D01*
X21299500Y-62600008D01*
X21310001Y-62702797D01*
X21365186Y-62869334D01*
X21457289Y-63018655D01*
X21581345Y-63142711D01*
X21730666Y-63234814D01*
X21897203Y-63289999D01*
X21999992Y-63300500D01*
X21999996Y-63300500D01*
X24400004Y-63300500D01*
X24400008Y-63300500D01*
X24502797Y-63289999D01*
X24669334Y-63234814D01*
X24818655Y-63142711D01*
X24942711Y-63018655D01*
X25031055Y-62875429D01*
X44784500Y-62875429D01*
X44784500Y-63124570D01*
X44817016Y-63371557D01*
X44817017Y-63371563D01*
X44817018Y-63371565D01*
X44881498Y-63612207D01*
X44976836Y-63842373D01*
X45101401Y-64058127D01*
X45253062Y-64255776D01*
X45429224Y-64431938D01*
X45626873Y-64583599D01*
X45842627Y-64708164D01*
X46072793Y-64803502D01*
X46313435Y-64867982D01*
X46313441Y-64867982D01*
X46313442Y-64867983D01*
X46380586Y-64876822D01*
X46560435Y-64900500D01*
X46809565Y-64900500D01*
X47056565Y-64867982D01*
X47297207Y-64803502D01*
X47527373Y-64708164D01*
X47743127Y-64583599D01*
X47940776Y-64431938D01*
X48116938Y-64255776D01*
X48268599Y-64058127D01*
X48393164Y-63842373D01*
X48488502Y-63612207D01*
X48552982Y-63371565D01*
X48585500Y-63124565D01*
X48585500Y-62875435D01*
X48585499Y-62875429D01*
X67414500Y-62875429D01*
X67414500Y-63124570D01*
X67447016Y-63371557D01*
X67447017Y-63371563D01*
X67447018Y-63371565D01*
X67511498Y-63612207D01*
X67606836Y-63842373D01*
X67731401Y-64058127D01*
X67883062Y-64255776D01*
X68059224Y-64431938D01*
X68256873Y-64583599D01*
X68472627Y-64708164D01*
X68702793Y-64803502D01*
X68943435Y-64867982D01*
X68943441Y-64867982D01*
X68943442Y-64867983D01*
X69010586Y-64876822D01*
X69190435Y-64900500D01*
X69439565Y-64900500D01*
X69686565Y-64867982D01*
X69927207Y-64803502D01*
X70157373Y-64708164D01*
X70373127Y-64583599D01*
X70570776Y-64431938D01*
X70746938Y-64255776D01*
X70898599Y-64058127D01*
X71023164Y-63842373D01*
X71118502Y-63612207D01*
X71182982Y-63371565D01*
X71215500Y-63124565D01*
X71215500Y-62875435D01*
X71215499Y-62875429D01*
X81284500Y-62875429D01*
X81284500Y-63124570D01*
X81317016Y-63371557D01*
X81317017Y-63371563D01*
X81317018Y-63371565D01*
X81381498Y-63612207D01*
X81476836Y-63842373D01*
X81601401Y-64058127D01*
X81753062Y-64255776D01*
X81929224Y-64431938D01*
X82126873Y-64583599D01*
X82342627Y-64708164D01*
X82572793Y-64803502D01*
X82813435Y-64867982D01*
X82813441Y-64867982D01*
X82813442Y-64867983D01*
X82880586Y-64876822D01*
X83060435Y-64900500D01*
X83309565Y-64900500D01*
X83556565Y-64867982D01*
X83797207Y-64803502D01*
X84027373Y-64708164D01*
X84243127Y-64583599D01*
X84440776Y-64431938D01*
X84616938Y-64255776D01*
X84768599Y-64058127D01*
X84893164Y-63842373D01*
X84988502Y-63612207D01*
X85052982Y-63371565D01*
X85085500Y-63124565D01*
X85085500Y-62875435D01*
X85085499Y-62875429D01*
X103914500Y-62875429D01*
X103914500Y-63124570D01*
X103947016Y-63371557D01*
X103947017Y-63371563D01*
X103947018Y-63371565D01*
X104011498Y-63612207D01*
X104106836Y-63842373D01*
X104231401Y-64058127D01*
X104383062Y-64255776D01*
X104559224Y-64431938D01*
X104756873Y-64583599D01*
X104972627Y-64708164D01*
X105202793Y-64803502D01*
X105443435Y-64867982D01*
X105443441Y-64867982D01*
X105443442Y-64867983D01*
X105510586Y-64876822D01*
X105690435Y-64900500D01*
X105939565Y-64900500D01*
X106186565Y-64867982D01*
X106427207Y-64803502D01*
X106657373Y-64708164D01*
X106873127Y-64583599D01*
X107070776Y-64431938D01*
X107246938Y-64255776D01*
X107398599Y-64058127D01*
X107523164Y-63842373D01*
X107618502Y-63612207D01*
X107682982Y-63371565D01*
X107715500Y-63124565D01*
X107715500Y-62875435D01*
X107682982Y-62628435D01*
X107618502Y-62387793D01*
X107523164Y-62157627D01*
X107398599Y-61941873D01*
X107246938Y-61744224D01*
X107070776Y-61568062D01*
X106873127Y-61416401D01*
X106801209Y-61374879D01*
X106657377Y-61291838D01*
X106657375Y-61291837D01*
X106657373Y-61291836D01*
X106522548Y-61235989D01*
X106427210Y-61196499D01*
X106427208Y-61196498D01*
X106427207Y-61196498D01*
X106186565Y-61132018D01*
X106186563Y-61132017D01*
X106186557Y-61132016D01*
X105939570Y-61099500D01*
X105939565Y-61099500D01*
X105690435Y-61099500D01*
X105690429Y-61099500D01*
X105443442Y-61132016D01*
X105202789Y-61196499D01*
X104972622Y-61291838D01*
X104756874Y-61416400D01*
X104559222Y-61568063D01*
X104383063Y-61744222D01*
X104231400Y-61941874D01*
X104106838Y-62157622D01*
X104011499Y-62387789D01*
X103947016Y-62628442D01*
X103914500Y-62875429D01*
X85085499Y-62875429D01*
X85052982Y-62628435D01*
X84988502Y-62387793D01*
X84893164Y-62157627D01*
X84768599Y-61941873D01*
X84616938Y-61744224D01*
X84440776Y-61568062D01*
X84243127Y-61416401D01*
X84171209Y-61374879D01*
X84027377Y-61291838D01*
X84027375Y-61291837D01*
X84027373Y-61291836D01*
X83892548Y-61235989D01*
X83797210Y-61196499D01*
X83797208Y-61196498D01*
X83797207Y-61196498D01*
X83556565Y-61132018D01*
X83556563Y-61132017D01*
X83556557Y-61132016D01*
X83309570Y-61099500D01*
X83309565Y-61099500D01*
X83060435Y-61099500D01*
X83060429Y-61099500D01*
X82813442Y-61132016D01*
X82572789Y-61196499D01*
X82342622Y-61291838D01*
X82126874Y-61416400D01*
X81929222Y-61568063D01*
X81753063Y-61744222D01*
X81601400Y-61941874D01*
X81476838Y-62157622D01*
X81381499Y-62387789D01*
X81317016Y-62628442D01*
X81284500Y-62875429D01*
X71215499Y-62875429D01*
X71182982Y-62628435D01*
X71118502Y-62387793D01*
X71023164Y-62157627D01*
X70898599Y-61941873D01*
X70746938Y-61744224D01*
X70570776Y-61568062D01*
X70373127Y-61416401D01*
X70301209Y-61374879D01*
X70157377Y-61291838D01*
X70157375Y-61291837D01*
X70157373Y-61291836D01*
X70022548Y-61235989D01*
X69927210Y-61196499D01*
X69927208Y-61196498D01*
X69927207Y-61196498D01*
X69686565Y-61132018D01*
X69686563Y-61132017D01*
X69686557Y-61132016D01*
X69439570Y-61099500D01*
X69439565Y-61099500D01*
X69190435Y-61099500D01*
X69190429Y-61099500D01*
X68943442Y-61132016D01*
X68702789Y-61196499D01*
X68472622Y-61291838D01*
X68256874Y-61416400D01*
X68059222Y-61568063D01*
X67883063Y-61744222D01*
X67731400Y-61941874D01*
X67606838Y-62157622D01*
X67511499Y-62387789D01*
X67447016Y-62628442D01*
X67414500Y-62875429D01*
X48585499Y-62875429D01*
X48552982Y-62628435D01*
X48488502Y-62387793D01*
X48393164Y-62157627D01*
X48268599Y-61941873D01*
X48116938Y-61744224D01*
X47940776Y-61568062D01*
X47743127Y-61416401D01*
X47671209Y-61374879D01*
X47527377Y-61291838D01*
X47527375Y-61291837D01*
X47527373Y-61291836D01*
X47392548Y-61235989D01*
X47297210Y-61196499D01*
X47297208Y-61196498D01*
X47297207Y-61196498D01*
X47056565Y-61132018D01*
X47056563Y-61132017D01*
X47056557Y-61132016D01*
X46809570Y-61099500D01*
X46809565Y-61099500D01*
X46560435Y-61099500D01*
X46560429Y-61099500D01*
X46313442Y-61132016D01*
X46072789Y-61196499D01*
X45842622Y-61291838D01*
X45626874Y-61416400D01*
X45429222Y-61568063D01*
X45253063Y-61744222D01*
X45101400Y-61941874D01*
X44976838Y-62157622D01*
X44881499Y-62387789D01*
X44817016Y-62628442D01*
X44784500Y-62875429D01*
X25031055Y-62875429D01*
X25034814Y-62869334D01*
X25089999Y-62702797D01*
X25100500Y-62600008D01*
X25100500Y-60199992D01*
X25089999Y-60097203D01*
X25034814Y-59930666D01*
X24942711Y-59781345D01*
X24818655Y-59657289D01*
X24669334Y-59565186D01*
X24585332Y-59537350D01*
X24502798Y-59510001D01*
X24502799Y-59510001D01*
X24468534Y-59506500D01*
X24400008Y-59499500D01*
X21999992Y-59499500D01*
X21931466Y-59506500D01*
X21897201Y-59510001D01*
X21730663Y-59565187D01*
X21581344Y-59657289D01*
X21457289Y-59781344D01*
X21365187Y-59930663D01*
X21310001Y-60097201D01*
X21310001Y-60097203D01*
X21299500Y-60199992D01*
X14900000Y-60199992D01*
X14900000Y-56275429D01*
X21299500Y-56275429D01*
X21299500Y-56524570D01*
X21332016Y-56771557D01*
X21332017Y-56771563D01*
X21332018Y-56771565D01*
X21396498Y-57012207D01*
X21466207Y-57180500D01*
X21491838Y-57242377D01*
X21559628Y-57359793D01*
X21616401Y-57458127D01*
X21768062Y-57655776D01*
X21944224Y-57831938D01*
X22141873Y-57983599D01*
X22357627Y-58108164D01*
X22587793Y-58203502D01*
X22828435Y-58267982D01*
X22828441Y-58267982D01*
X22828442Y-58267983D01*
X22895586Y-58276822D01*
X23075435Y-58300500D01*
X23324565Y-58300500D01*
X23571565Y-58267982D01*
X23812207Y-58203502D01*
X24042373Y-58108164D01*
X24258127Y-57983599D01*
X24455776Y-57831938D01*
X24631938Y-57655776D01*
X24783599Y-57458127D01*
X24900874Y-57255000D01*
X24955412Y-57200462D01*
X25029912Y-57180500D01*
X32463714Y-57180500D01*
X32538214Y-57200462D01*
X32584258Y-57241921D01*
X32669890Y-57359785D01*
X32669895Y-57359791D01*
X32669896Y-57359792D01*
X32820208Y-57510104D01*
X32898844Y-57567236D01*
X32984482Y-57629456D01*
X33033020Y-57689396D01*
X33045086Y-57765575D01*
X33017446Y-57837580D01*
X32984482Y-57870544D01*
X32820209Y-57989895D01*
X32820206Y-57989897D01*
X32669897Y-58140206D01*
X32669895Y-58140209D01*
X32544950Y-58312181D01*
X32544950Y-58312182D01*
X32544949Y-58312184D01*
X32448443Y-58501588D01*
X32382754Y-58703757D01*
X32349500Y-58913713D01*
X32349500Y-59126287D01*
X32382754Y-59336243D01*
X32448443Y-59538412D01*
X32544949Y-59727816D01*
X32669896Y-59899792D01*
X32820208Y-60050104D01*
X32992184Y-60175051D01*
X33181588Y-60271557D01*
X33383757Y-60337246D01*
X33593713Y-60370500D01*
X33593718Y-60370500D01*
X33806282Y-60370500D01*
X33806287Y-60370500D01*
X34016243Y-60337246D01*
X34218412Y-60271557D01*
X34407816Y-60175051D01*
X34579792Y-60050104D01*
X34730104Y-59899792D01*
X34855051Y-59727816D01*
X34951557Y-59538412D01*
X35017246Y-59336243D01*
X35050500Y-59126287D01*
X35050500Y-58913713D01*
X35017246Y-58703757D01*
X34951557Y-58501588D01*
X34855051Y-58312184D01*
X34846561Y-58300499D01*
X34776088Y-58203500D01*
X34730104Y-58140208D01*
X34579792Y-57989896D01*
X34415517Y-57870544D01*
X34366979Y-57810604D01*
X34354913Y-57734426D01*
X34382553Y-57662420D01*
X34415517Y-57629456D01*
X34422519Y-57624368D01*
X34579792Y-57510104D01*
X34730104Y-57359792D01*
X34855051Y-57187816D01*
X34950752Y-56999992D01*
X149699500Y-56999992D01*
X149699500Y-59400008D01*
X149708250Y-59485665D01*
X149710001Y-59502798D01*
X149765187Y-59669336D01*
X149834275Y-59781344D01*
X149857289Y-59818655D01*
X149981345Y-59942711D01*
X150130666Y-60034814D01*
X150297203Y-60089999D01*
X150399992Y-60100500D01*
X150399996Y-60100500D01*
X152800004Y-60100500D01*
X152800008Y-60100500D01*
X152902797Y-60089999D01*
X153069334Y-60034814D01*
X153218655Y-59942711D01*
X153342711Y-59818655D01*
X153434814Y-59669334D01*
X153489999Y-59502797D01*
X153500500Y-59400008D01*
X153500500Y-56999992D01*
X153489999Y-56897203D01*
X153434814Y-56730666D01*
X153342711Y-56581345D01*
X153218655Y-56457289D01*
X153083165Y-56373717D01*
X153069336Y-56365187D01*
X153069335Y-56365186D01*
X153069334Y-56365186D01*
X152985332Y-56337350D01*
X152902798Y-56310001D01*
X152902799Y-56310001D01*
X152868534Y-56306500D01*
X152800008Y-56299500D01*
X150399992Y-56299500D01*
X150331466Y-56306500D01*
X150297201Y-56310001D01*
X150130663Y-56365187D01*
X149981344Y-56457289D01*
X149857289Y-56581344D01*
X149765187Y-56730663D01*
X149710001Y-56897201D01*
X149710001Y-56897203D01*
X149699500Y-56999992D01*
X34950752Y-56999992D01*
X34951557Y-56998412D01*
X35017246Y-56796243D01*
X35050500Y-56586287D01*
X35050500Y-56373713D01*
X35017246Y-56163757D01*
X34951557Y-55961588D01*
X34855051Y-55772184D01*
X34730104Y-55600208D01*
X34579792Y-55449896D01*
X34415517Y-55330544D01*
X34366979Y-55270604D01*
X34354913Y-55194426D01*
X34382553Y-55122420D01*
X34415517Y-55089456D01*
X34422519Y-55084368D01*
X34579792Y-54970104D01*
X34730104Y-54819792D01*
X34855051Y-54647816D01*
X34951557Y-54458412D01*
X35017246Y-54256243D01*
X35050500Y-54046287D01*
X35050500Y-53833713D01*
X35017246Y-53623757D01*
X34951557Y-53421588D01*
X34855051Y-53232184D01*
X34730104Y-53060208D01*
X34644075Y-52974179D01*
X34605512Y-52907385D01*
X34605512Y-52830257D01*
X34644076Y-52763462D01*
X34697366Y-52729215D01*
X34728278Y-52717685D01*
X34792327Y-52693798D01*
X34792333Y-52693795D01*
X34849938Y-52650671D01*
X34907546Y-52607546D01*
X34993796Y-52492331D01*
X35044091Y-52357483D01*
X35048842Y-52313298D01*
X35050499Y-52297885D01*
X35050499Y-52297882D01*
X35050500Y-52297873D01*
X35050499Y-50502128D01*
X35044091Y-50442517D01*
X35029588Y-50403633D01*
X34993797Y-50307670D01*
X34993795Y-50307666D01*
X34907547Y-50192455D01*
X34907544Y-50192452D01*
X34792333Y-50106204D01*
X34792329Y-50106202D01*
X34657482Y-50055908D01*
X34597876Y-50049500D01*
X32802136Y-50049500D01*
X32802111Y-50049502D01*
X32742521Y-50055908D01*
X32742515Y-50055909D01*
X32607670Y-50106202D01*
X32607666Y-50106204D01*
X32492455Y-50192452D01*
X32492452Y-50192455D01*
X32406204Y-50307666D01*
X32406202Y-50307670D01*
X32355908Y-50442517D01*
X32349500Y-50502114D01*
X32349500Y-52297863D01*
X32349502Y-52297888D01*
X32355908Y-52357478D01*
X32355909Y-52357484D01*
X32406202Y-52492329D01*
X32406204Y-52492333D01*
X32492452Y-52607544D01*
X32492455Y-52607547D01*
X32607666Y-52693795D01*
X32607668Y-52693795D01*
X32607669Y-52693796D01*
X32702633Y-52729215D01*
X32765460Y-52773953D01*
X32797501Y-52844111D01*
X32790170Y-52920890D01*
X32755923Y-52974179D01*
X32669904Y-53060198D01*
X32669895Y-53060209D01*
X32544950Y-53232181D01*
X32544950Y-53232182D01*
X32448446Y-53421582D01*
X32448441Y-53421594D01*
X32393360Y-53591116D01*
X32382754Y-53623757D01*
X32349500Y-53833713D01*
X32349500Y-54046287D01*
X32382754Y-54256243D01*
X32448443Y-54458412D01*
X32518801Y-54596498D01*
X32544950Y-54647817D01*
X32544950Y-54647818D01*
X32588153Y-54707282D01*
X32669896Y-54819792D01*
X32820208Y-54970104D01*
X32898844Y-55027236D01*
X32984482Y-55089456D01*
X33033020Y-55149396D01*
X33045086Y-55225575D01*
X33017446Y-55297580D01*
X32984482Y-55330544D01*
X32820209Y-55449895D01*
X32820206Y-55449897D01*
X32669897Y-55600206D01*
X32669890Y-55600214D01*
X32584258Y-55718079D01*
X32524318Y-55766618D01*
X32463714Y-55779500D01*
X25099625Y-55779500D01*
X25025125Y-55759538D01*
X24970587Y-55705000D01*
X24961970Y-55687527D01*
X24908164Y-55557627D01*
X24783599Y-55341873D01*
X24631938Y-55144224D01*
X24455776Y-54968062D01*
X24258127Y-54816401D01*
X24069130Y-54707284D01*
X24042377Y-54691838D01*
X24042375Y-54691837D01*
X24042373Y-54691836D01*
X23907548Y-54635989D01*
X23812210Y-54596499D01*
X23812208Y-54596498D01*
X23812207Y-54596498D01*
X23571565Y-54532018D01*
X23571563Y-54532017D01*
X23571557Y-54532016D01*
X23324570Y-54499500D01*
X23324565Y-54499500D01*
X23075435Y-54499500D01*
X23075429Y-54499500D01*
X22828442Y-54532016D01*
X22587789Y-54596499D01*
X22357622Y-54691838D01*
X22141874Y-54816400D01*
X21944222Y-54968063D01*
X21768063Y-55144222D01*
X21616400Y-55341874D01*
X21491838Y-55557622D01*
X21396499Y-55787789D01*
X21332016Y-56028442D01*
X21299500Y-56275429D01*
X14900000Y-56275429D01*
X14900000Y-48199992D01*
X21299500Y-48199992D01*
X21299500Y-50600008D01*
X21310001Y-50702797D01*
X21365186Y-50869334D01*
X21457289Y-51018655D01*
X21581345Y-51142711D01*
X21730666Y-51234814D01*
X21897203Y-51289999D01*
X21999992Y-51300500D01*
X21999996Y-51300500D01*
X24400004Y-51300500D01*
X24400008Y-51300500D01*
X24502797Y-51289999D01*
X24669334Y-51234814D01*
X24818655Y-51142711D01*
X24942711Y-51018655D01*
X25034814Y-50869334D01*
X25089999Y-50702797D01*
X25100500Y-50600008D01*
X25100500Y-48199992D01*
X25089999Y-48097203D01*
X25034814Y-47930666D01*
X24996700Y-47868874D01*
X44684501Y-47868874D01*
X44684501Y-48131125D01*
X44718727Y-48391108D01*
X44786603Y-48644423D01*
X44786604Y-48644427D01*
X44866175Y-48836524D01*
X44883230Y-48877700D01*
X44886959Y-48886701D01*
X44924775Y-48952200D01*
X45018076Y-49113802D01*
X45127016Y-49255776D01*
X45177718Y-49321852D01*
X48464850Y-52608984D01*
X48540028Y-52666669D01*
X48540030Y-52666671D01*
X48666170Y-52763462D01*
X48672897Y-52768624D01*
X48900003Y-52899743D01*
X49035830Y-52956004D01*
X49142272Y-53000095D01*
X49142276Y-53000096D01*
X49142281Y-53000098D01*
X49395584Y-53067971D01*
X49525582Y-53085085D01*
X49655577Y-53102199D01*
X49655578Y-53102200D01*
X49655580Y-53102200D01*
X80214422Y-53102200D01*
X80214422Y-53102199D01*
X80344418Y-53085085D01*
X80474416Y-53067971D01*
X80727719Y-53000098D01*
X80727725Y-53000095D01*
X80727727Y-53000095D01*
X80790293Y-52974179D01*
X80969997Y-52899743D01*
X81197103Y-52768624D01*
X81203830Y-52763462D01*
X81301595Y-52688444D01*
X81301596Y-52688443D01*
X81329971Y-52666670D01*
X81405151Y-52608983D01*
X83079641Y-50934493D01*
X83146436Y-50895929D01*
X83223564Y-50895929D01*
X83290359Y-50934493D01*
X87063151Y-54707285D01*
X87180868Y-54797611D01*
X87271197Y-54866924D01*
X87398635Y-54940500D01*
X87498303Y-54998043D01*
X87740581Y-55098398D01*
X87993885Y-55166271D01*
X87993893Y-55166272D01*
X88106749Y-55181129D01*
X88106761Y-55181130D01*
X88106768Y-55181131D01*
X88207747Y-55194426D01*
X88253879Y-55200500D01*
X88253880Y-55200500D01*
X151731122Y-55200500D01*
X151731122Y-55200499D01*
X151991108Y-55166271D01*
X151991110Y-55166271D01*
X151991111Y-55166270D01*
X151991116Y-55166270D01*
X152244415Y-55098399D01*
X152244416Y-55098399D01*
X152244417Y-55098398D01*
X152244419Y-55098398D01*
X152486697Y-54998043D01*
X152713803Y-54866924D01*
X152921848Y-54707284D01*
X152921849Y-54707284D01*
X153107284Y-54521849D01*
X153107284Y-54521848D01*
X153124433Y-54499500D01*
X153266924Y-54313803D01*
X153398043Y-54086697D01*
X153498398Y-53844419D01*
X153566270Y-53591116D01*
X153600500Y-53331120D01*
X153600500Y-53068880D01*
X153566270Y-52808884D01*
X153498398Y-52555581D01*
X153398043Y-52313303D01*
X153266924Y-52086197D01*
X153266921Y-52086193D01*
X153266921Y-52086192D01*
X153107284Y-51878151D01*
X152921848Y-51692715D01*
X152713806Y-51533078D01*
X152486701Y-51401959D01*
X152486699Y-51401958D01*
X152486697Y-51401957D01*
X152411154Y-51370666D01*
X152244416Y-51301600D01*
X152018255Y-51241002D01*
X151991116Y-51233730D01*
X151991114Y-51233729D01*
X151991108Y-51233728D01*
X151731123Y-51199500D01*
X151731120Y-51199500D01*
X89275352Y-51199500D01*
X89200852Y-51179538D01*
X89169993Y-51155859D01*
X85889563Y-47875429D01*
X103914500Y-47875429D01*
X103914500Y-48124570D01*
X103947016Y-48371557D01*
X104011499Y-48612210D01*
X104106838Y-48842377D01*
X104170244Y-48952199D01*
X104231401Y-49058127D01*
X104383062Y-49255776D01*
X104559224Y-49431938D01*
X104756873Y-49583599D01*
X104972627Y-49708164D01*
X105202793Y-49803502D01*
X105443435Y-49867982D01*
X105443441Y-49867982D01*
X105443442Y-49867983D01*
X105510586Y-49876822D01*
X105690435Y-49900500D01*
X105939565Y-49900500D01*
X106186565Y-49867982D01*
X106427207Y-49803502D01*
X106657373Y-49708164D01*
X106873127Y-49583599D01*
X107070776Y-49431938D01*
X107246938Y-49255776D01*
X107398599Y-49058127D01*
X107523164Y-48842373D01*
X107618502Y-48612207D01*
X107682982Y-48371565D01*
X107715500Y-48124565D01*
X107715500Y-47875435D01*
X107682982Y-47628435D01*
X107618502Y-47387793D01*
X107523164Y-47157627D01*
X107398599Y-46941873D01*
X107246938Y-46744224D01*
X107070776Y-46568062D01*
X106873127Y-46416401D01*
X106728803Y-46333076D01*
X106657377Y-46291838D01*
X106657375Y-46291837D01*
X106657373Y-46291836D01*
X106522548Y-46235989D01*
X106427210Y-46196499D01*
X106427208Y-46196498D01*
X106427207Y-46196498D01*
X106186565Y-46132018D01*
X106186563Y-46132017D01*
X106186557Y-46132016D01*
X105939570Y-46099500D01*
X105939565Y-46099500D01*
X105690435Y-46099500D01*
X105690429Y-46099500D01*
X105443442Y-46132016D01*
X105202789Y-46196499D01*
X104972622Y-46291838D01*
X104756874Y-46416400D01*
X104559222Y-46568063D01*
X104383063Y-46744222D01*
X104231400Y-46941874D01*
X104106838Y-47157622D01*
X104011499Y-47387789D01*
X103947016Y-47628442D01*
X103914500Y-47875429D01*
X85889563Y-47875429D01*
X84506852Y-46492718D01*
X84506851Y-46492717D01*
X84298802Y-46333076D01*
X84186056Y-46267982D01*
X84071701Y-46201959D01*
X84071699Y-46201958D01*
X84071697Y-46201957D01*
X84021524Y-46181175D01*
X83829427Y-46101604D01*
X83829423Y-46101603D01*
X83744984Y-46078977D01*
X83576116Y-46033729D01*
X83576114Y-46033728D01*
X83576108Y-46033727D01*
X83316125Y-45999501D01*
X83316120Y-45999501D01*
X83053880Y-45999501D01*
X83053874Y-45999501D01*
X82793891Y-46033727D01*
X82540576Y-46101603D01*
X82540572Y-46101604D01*
X82298298Y-46201959D01*
X82071195Y-46333077D01*
X81893525Y-46469409D01*
X81893524Y-46469410D01*
X81863149Y-46492716D01*
X79298307Y-49057559D01*
X79231512Y-49096123D01*
X79192948Y-49101200D01*
X71131806Y-49101200D01*
X71057306Y-49081238D01*
X71002768Y-49026700D01*
X70982806Y-48952200D01*
X71002768Y-48877700D01*
X71002769Y-48877699D01*
X71023160Y-48842380D01*
X71023160Y-48842379D01*
X71023164Y-48842373D01*
X71118502Y-48612207D01*
X71182982Y-48371565D01*
X71215500Y-48124565D01*
X71215500Y-47875435D01*
X71182982Y-47628435D01*
X71118502Y-47387793D01*
X71023164Y-47157627D01*
X70898599Y-46941873D01*
X70746938Y-46744224D01*
X70570776Y-46568062D01*
X70373127Y-46416401D01*
X70228803Y-46333076D01*
X70157377Y-46291838D01*
X70157375Y-46291837D01*
X70157373Y-46291836D01*
X70022548Y-46235989D01*
X69927210Y-46196499D01*
X69927208Y-46196498D01*
X69927207Y-46196498D01*
X69686565Y-46132018D01*
X69686563Y-46132017D01*
X69686557Y-46132016D01*
X69439570Y-46099500D01*
X69439565Y-46099500D01*
X69190435Y-46099500D01*
X69190429Y-46099500D01*
X68943442Y-46132016D01*
X68702789Y-46196499D01*
X68472622Y-46291838D01*
X68256874Y-46416400D01*
X68059222Y-46568063D01*
X67883063Y-46744222D01*
X67731400Y-46941874D01*
X67606838Y-47157622D01*
X67511499Y-47387789D01*
X67447016Y-47628442D01*
X67414500Y-47875429D01*
X67414500Y-48124570D01*
X67447016Y-48371557D01*
X67511499Y-48612210D01*
X67606839Y-48842380D01*
X67627231Y-48877699D01*
X67647194Y-48952199D01*
X67627232Y-49026699D01*
X67572695Y-49081237D01*
X67498195Y-49101200D01*
X50677052Y-49101200D01*
X50602552Y-49081238D01*
X50571693Y-49057559D01*
X48006852Y-46492718D01*
X48006851Y-46492717D01*
X47798802Y-46333076D01*
X47686056Y-46267982D01*
X47571701Y-46201959D01*
X47571699Y-46201958D01*
X47571697Y-46201957D01*
X47521524Y-46181175D01*
X47329427Y-46101604D01*
X47329423Y-46101603D01*
X47244984Y-46078977D01*
X47076116Y-46033729D01*
X47076114Y-46033728D01*
X47076108Y-46033727D01*
X46816125Y-45999501D01*
X46816120Y-45999501D01*
X46553880Y-45999501D01*
X46553874Y-45999501D01*
X46293891Y-46033727D01*
X46040576Y-46101603D01*
X46040572Y-46101604D01*
X45798298Y-46201959D01*
X45571199Y-46333075D01*
X45363147Y-46492718D01*
X45177718Y-46678147D01*
X45018075Y-46886199D01*
X44886959Y-47113298D01*
X44786604Y-47355572D01*
X44786603Y-47355576D01*
X44718727Y-47608891D01*
X44684501Y-47868874D01*
X24996700Y-47868874D01*
X24942711Y-47781345D01*
X24818655Y-47657289D01*
X24669334Y-47565186D01*
X24585332Y-47537350D01*
X24502798Y-47510001D01*
X24502799Y-47510001D01*
X24468534Y-47506500D01*
X24400008Y-47499500D01*
X21999992Y-47499500D01*
X21931466Y-47506500D01*
X21897201Y-47510001D01*
X21730663Y-47565187D01*
X21581344Y-47657289D01*
X21457289Y-47781344D01*
X21365187Y-47930663D01*
X21310001Y-48097201D01*
X21310001Y-48097203D01*
X21299500Y-48199992D01*
X14900000Y-48199992D01*
X14900000Y-44275429D01*
X21299500Y-44275429D01*
X21299500Y-44524570D01*
X21332016Y-44771557D01*
X21332017Y-44771563D01*
X21332018Y-44771565D01*
X21396498Y-45012207D01*
X21491836Y-45242373D01*
X21616401Y-45458127D01*
X21768062Y-45655776D01*
X21944224Y-45831938D01*
X22141873Y-45983599D01*
X22357627Y-46108164D01*
X22587793Y-46203502D01*
X22828435Y-46267982D01*
X22828441Y-46267982D01*
X22828442Y-46267983D01*
X22895586Y-46276822D01*
X23075435Y-46300500D01*
X23324565Y-46300500D01*
X23571565Y-46267982D01*
X23812207Y-46203502D01*
X24042373Y-46108164D01*
X24258127Y-45983599D01*
X24455776Y-45831938D01*
X24631938Y-45655776D01*
X24783599Y-45458127D01*
X24908164Y-45242373D01*
X25003502Y-45012207D01*
X25006775Y-44999992D01*
X149699500Y-44999992D01*
X149699500Y-47400008D01*
X149710001Y-47502797D01*
X149765186Y-47669334D01*
X149857289Y-47818655D01*
X149981345Y-47942711D01*
X150130666Y-48034814D01*
X150297203Y-48089999D01*
X150399992Y-48100500D01*
X150399996Y-48100500D01*
X152800004Y-48100500D01*
X152800008Y-48100500D01*
X152902797Y-48089999D01*
X153069334Y-48034814D01*
X153218655Y-47942711D01*
X153342711Y-47818655D01*
X153434814Y-47669334D01*
X153489999Y-47502797D01*
X153500500Y-47400008D01*
X153500500Y-44999992D01*
X153489999Y-44897203D01*
X153434814Y-44730666D01*
X153342711Y-44581345D01*
X153218655Y-44457289D01*
X153069334Y-44365186D01*
X152985332Y-44337350D01*
X152902798Y-44310001D01*
X152902799Y-44310001D01*
X152868534Y-44306500D01*
X152800008Y-44299500D01*
X150399992Y-44299500D01*
X150331466Y-44306500D01*
X150297201Y-44310001D01*
X150130663Y-44365187D01*
X149981344Y-44457289D01*
X149857289Y-44581344D01*
X149765187Y-44730663D01*
X149710001Y-44897201D01*
X149710001Y-44897203D01*
X149699500Y-44999992D01*
X25006775Y-44999992D01*
X25067982Y-44771565D01*
X25100500Y-44524565D01*
X25100500Y-44275435D01*
X25067982Y-44028435D01*
X25003502Y-43787793D01*
X24908164Y-43557627D01*
X24783599Y-43341873D01*
X24631938Y-43144224D01*
X24455776Y-42968062D01*
X24258127Y-42816401D01*
X24186209Y-42774879D01*
X24042377Y-42691838D01*
X24042375Y-42691837D01*
X24042373Y-42691836D01*
X23897762Y-42631936D01*
X23812210Y-42596499D01*
X23812208Y-42596498D01*
X23812207Y-42596498D01*
X23571565Y-42532018D01*
X23571563Y-42532017D01*
X23571557Y-42532016D01*
X23324570Y-42499500D01*
X23324565Y-42499500D01*
X23075435Y-42499500D01*
X23075429Y-42499500D01*
X22828442Y-42532016D01*
X22587789Y-42596499D01*
X22357622Y-42691838D01*
X22141874Y-42816400D01*
X21944222Y-42968063D01*
X21768063Y-43144222D01*
X21616400Y-43341874D01*
X21491838Y-43557622D01*
X21396499Y-43787789D01*
X21332016Y-44028442D01*
X21299500Y-44275429D01*
X14900000Y-44275429D01*
X14900000Y-41075429D01*
X149699500Y-41075429D01*
X149699500Y-41324570D01*
X149732016Y-41571557D01*
X149732017Y-41571563D01*
X149732018Y-41571565D01*
X149796498Y-41812207D01*
X149891836Y-42042373D01*
X150016401Y-42258127D01*
X150168062Y-42455776D01*
X150344224Y-42631938D01*
X150541873Y-42783599D01*
X150757627Y-42908164D01*
X150987793Y-43003502D01*
X151228435Y-43067982D01*
X151228441Y-43067982D01*
X151228442Y-43067983D01*
X151295586Y-43076822D01*
X151475435Y-43100500D01*
X151724565Y-43100500D01*
X151971565Y-43067982D01*
X152212207Y-43003502D01*
X152442373Y-42908164D01*
X152658127Y-42783599D01*
X152855776Y-42631938D01*
X153031938Y-42455776D01*
X153183599Y-42258127D01*
X153308164Y-42042373D01*
X153403502Y-41812207D01*
X153467982Y-41571565D01*
X153500500Y-41324565D01*
X153500500Y-41075435D01*
X153467982Y-40828435D01*
X153403502Y-40587793D01*
X153308164Y-40357627D01*
X153183599Y-40141873D01*
X153031938Y-39944224D01*
X152855776Y-39768062D01*
X152658127Y-39616401D01*
X152586209Y-39574879D01*
X152442377Y-39491838D01*
X152442375Y-39491837D01*
X152442373Y-39491836D01*
X152307548Y-39435989D01*
X152212210Y-39396499D01*
X152212208Y-39396498D01*
X152212207Y-39396498D01*
X151971565Y-39332018D01*
X151971563Y-39332017D01*
X151971557Y-39332016D01*
X151724570Y-39299500D01*
X151724565Y-39299500D01*
X151475435Y-39299500D01*
X151475429Y-39299500D01*
X151228442Y-39332016D01*
X150987789Y-39396499D01*
X150757622Y-39491838D01*
X150541874Y-39616400D01*
X150344222Y-39768063D01*
X150168063Y-39944222D01*
X150016400Y-40141874D01*
X149891838Y-40357622D01*
X149796499Y-40587789D01*
X149732016Y-40828442D01*
X149699500Y-41075429D01*
X14900000Y-41075429D01*
X14900000Y-30199992D01*
X21299500Y-30199992D01*
X21299500Y-32600008D01*
X21310001Y-32702797D01*
X21365186Y-32869334D01*
X21457289Y-33018655D01*
X21581345Y-33142711D01*
X21730666Y-33234814D01*
X21897203Y-33289999D01*
X21999992Y-33300500D01*
X21999996Y-33300500D01*
X24400004Y-33300500D01*
X24400008Y-33300500D01*
X24502797Y-33289999D01*
X24669334Y-33234814D01*
X24818655Y-33142711D01*
X24942711Y-33018655D01*
X25034814Y-32869334D01*
X25089999Y-32702797D01*
X25100500Y-32600008D01*
X25100500Y-30199992D01*
X25089999Y-30097203D01*
X25034814Y-29930666D01*
X24942711Y-29781345D01*
X24818655Y-29657289D01*
X24669334Y-29565186D01*
X24585332Y-29537350D01*
X24502798Y-29510001D01*
X24502799Y-29510001D01*
X24468534Y-29506500D01*
X24400008Y-29499500D01*
X21999992Y-29499500D01*
X21931466Y-29506500D01*
X21897201Y-29510001D01*
X21730663Y-29565187D01*
X21581344Y-29657289D01*
X21457289Y-29781344D01*
X21365187Y-29930663D01*
X21310001Y-30097201D01*
X21310001Y-30097203D01*
X21299500Y-30199992D01*
X14900000Y-30199992D01*
X14900000Y-26275429D01*
X21299500Y-26275429D01*
X21299500Y-26524570D01*
X21332016Y-26771557D01*
X21332017Y-26771563D01*
X21332018Y-26771565D01*
X21396498Y-27012207D01*
X21466207Y-27180500D01*
X21491838Y-27242377D01*
X21559628Y-27359793D01*
X21616401Y-27458127D01*
X21768062Y-27655776D01*
X21944224Y-27831938D01*
X22141873Y-27983599D01*
X22357627Y-28108164D01*
X22587793Y-28203502D01*
X22828435Y-28267982D01*
X22828441Y-28267982D01*
X22828442Y-28267983D01*
X22895586Y-28276822D01*
X23075435Y-28300500D01*
X23324565Y-28300500D01*
X23571565Y-28267982D01*
X23812207Y-28203502D01*
X24042373Y-28108164D01*
X24258127Y-27983599D01*
X24455776Y-27831938D01*
X24631938Y-27655776D01*
X24783599Y-27458127D01*
X24900874Y-27255000D01*
X24955412Y-27200462D01*
X25029912Y-27180500D01*
X32463714Y-27180500D01*
X32538214Y-27200462D01*
X32584258Y-27241921D01*
X32669890Y-27359785D01*
X32669895Y-27359791D01*
X32669896Y-27359792D01*
X32820208Y-27510104D01*
X32898844Y-27567236D01*
X32984482Y-27629456D01*
X33033020Y-27689396D01*
X33045086Y-27765575D01*
X33017446Y-27837580D01*
X32984482Y-27870544D01*
X32820209Y-27989895D01*
X32820206Y-27989897D01*
X32669897Y-28140206D01*
X32669895Y-28140209D01*
X32544950Y-28312181D01*
X32544950Y-28312182D01*
X32544949Y-28312184D01*
X32448443Y-28501588D01*
X32382754Y-28703757D01*
X32349500Y-28913713D01*
X32349500Y-29126287D01*
X32382754Y-29336243D01*
X32448443Y-29538412D01*
X32544949Y-29727816D01*
X32669896Y-29899792D01*
X32820208Y-30050104D01*
X32992184Y-30175051D01*
X33181588Y-30271557D01*
X33383757Y-30337246D01*
X33593713Y-30370500D01*
X33593718Y-30370500D01*
X33806282Y-30370500D01*
X33806287Y-30370500D01*
X34016243Y-30337246D01*
X34218412Y-30271557D01*
X34407816Y-30175051D01*
X34579792Y-30050104D01*
X34730104Y-29899792D01*
X34855051Y-29727816D01*
X34951557Y-29538412D01*
X35017246Y-29336243D01*
X35050500Y-29126287D01*
X35050500Y-28913713D01*
X35017246Y-28703757D01*
X34951557Y-28501588D01*
X34855051Y-28312184D01*
X34846561Y-28300499D01*
X34776088Y-28203500D01*
X34730104Y-28140208D01*
X34579792Y-27989896D01*
X34415517Y-27870544D01*
X34366979Y-27810604D01*
X34354913Y-27734426D01*
X34382553Y-27662420D01*
X34415517Y-27629456D01*
X34422519Y-27624368D01*
X34579792Y-27510104D01*
X34730104Y-27359792D01*
X34855051Y-27187816D01*
X34951557Y-26998412D01*
X35017246Y-26796243D01*
X35050500Y-26586287D01*
X35050500Y-26373713D01*
X35017246Y-26163757D01*
X34951557Y-25961588D01*
X34855051Y-25772184D01*
X34730104Y-25600208D01*
X34579792Y-25449896D01*
X34415517Y-25330544D01*
X34366979Y-25270604D01*
X34354913Y-25194426D01*
X34382553Y-25122420D01*
X34415517Y-25089456D01*
X34422519Y-25084368D01*
X34579792Y-24970104D01*
X34730104Y-24819792D01*
X34855051Y-24647816D01*
X34951557Y-24458412D01*
X35017246Y-24256243D01*
X35050500Y-24046287D01*
X35050500Y-23833713D01*
X35017246Y-23623757D01*
X34951557Y-23421588D01*
X34855051Y-23232184D01*
X34730104Y-23060208D01*
X34644075Y-22974179D01*
X34605512Y-22907385D01*
X34605512Y-22830257D01*
X34644076Y-22763462D01*
X34697366Y-22729215D01*
X34728278Y-22717685D01*
X34792327Y-22693798D01*
X34792333Y-22693795D01*
X34849938Y-22650671D01*
X34907546Y-22607546D01*
X34993796Y-22492331D01*
X35007989Y-22454279D01*
X35014174Y-22437693D01*
X35044091Y-22357483D01*
X35049347Y-22308597D01*
X35050499Y-22297885D01*
X35050499Y-22297882D01*
X35050500Y-22297873D01*
X35050499Y-20502128D01*
X35044091Y-20442517D01*
X35029588Y-20403633D01*
X34993797Y-20307670D01*
X34993795Y-20307666D01*
X34907547Y-20192455D01*
X34907544Y-20192452D01*
X34792333Y-20106204D01*
X34792329Y-20106202D01*
X34657482Y-20055908D01*
X34597876Y-20049500D01*
X32802136Y-20049500D01*
X32802111Y-20049502D01*
X32742521Y-20055908D01*
X32742515Y-20055909D01*
X32607670Y-20106202D01*
X32607666Y-20106204D01*
X32492455Y-20192452D01*
X32492452Y-20192455D01*
X32406204Y-20307666D01*
X32406202Y-20307670D01*
X32355908Y-20442517D01*
X32349500Y-20502114D01*
X32349500Y-22297863D01*
X32349502Y-22297888D01*
X32355908Y-22357478D01*
X32355909Y-22357484D01*
X32406202Y-22492329D01*
X32406204Y-22492333D01*
X32492452Y-22607544D01*
X32492455Y-22607547D01*
X32607666Y-22693795D01*
X32607668Y-22693795D01*
X32607669Y-22693796D01*
X32702633Y-22729215D01*
X32765460Y-22773953D01*
X32797501Y-22844111D01*
X32790170Y-22920890D01*
X32755923Y-22974179D01*
X32669904Y-23060198D01*
X32669895Y-23060209D01*
X32544950Y-23232181D01*
X32544950Y-23232182D01*
X32544949Y-23232184D01*
X32448443Y-23421588D01*
X32382754Y-23623757D01*
X32349500Y-23833713D01*
X32349500Y-24046287D01*
X32382754Y-24256243D01*
X32448443Y-24458412D01*
X32518801Y-24596498D01*
X32544950Y-24647817D01*
X32544950Y-24647818D01*
X32607422Y-24733804D01*
X32669896Y-24819792D01*
X32820208Y-24970104D01*
X32898844Y-25027236D01*
X32984482Y-25089456D01*
X33033020Y-25149396D01*
X33045086Y-25225575D01*
X33017446Y-25297580D01*
X32984482Y-25330544D01*
X32820209Y-25449895D01*
X32820206Y-25449897D01*
X32669897Y-25600206D01*
X32669890Y-25600214D01*
X32584258Y-25718079D01*
X32524318Y-25766618D01*
X32463714Y-25779500D01*
X25099625Y-25779500D01*
X25025125Y-25759538D01*
X24970587Y-25705000D01*
X24961970Y-25687527D01*
X24908164Y-25557627D01*
X24783599Y-25341873D01*
X24631938Y-25144224D01*
X24455776Y-24968062D01*
X24258127Y-24816401D01*
X24186209Y-24774879D01*
X24042377Y-24691838D01*
X24042375Y-24691837D01*
X24042373Y-24691836D01*
X23907548Y-24635989D01*
X23812210Y-24596499D01*
X23812208Y-24596498D01*
X23812207Y-24596498D01*
X23571565Y-24532018D01*
X23571563Y-24532017D01*
X23571557Y-24532016D01*
X23324570Y-24499500D01*
X23324565Y-24499500D01*
X23075435Y-24499500D01*
X23075429Y-24499500D01*
X22828442Y-24532016D01*
X22587789Y-24596499D01*
X22357622Y-24691838D01*
X22141874Y-24816400D01*
X21944222Y-24968063D01*
X21768063Y-25144222D01*
X21616400Y-25341874D01*
X21491838Y-25557622D01*
X21396499Y-25787789D01*
X21332016Y-26028442D01*
X21299500Y-26275429D01*
X14900000Y-26275429D01*
X14900000Y-18199992D01*
X21299500Y-18199992D01*
X21299500Y-20600008D01*
X21310001Y-20702797D01*
X21365186Y-20869334D01*
X21457289Y-21018655D01*
X21581345Y-21142711D01*
X21730666Y-21234814D01*
X21897203Y-21289999D01*
X21999992Y-21300500D01*
X21999996Y-21300500D01*
X24400004Y-21300500D01*
X24400008Y-21300500D01*
X24502797Y-21289999D01*
X24669334Y-21234814D01*
X24818655Y-21142711D01*
X24942711Y-21018655D01*
X25034814Y-20869334D01*
X25089999Y-20702797D01*
X25100500Y-20600008D01*
X25100500Y-18199992D01*
X25089999Y-18097203D01*
X25034814Y-17930666D01*
X24942711Y-17781345D01*
X24818655Y-17657289D01*
X24669334Y-17565186D01*
X24585332Y-17537350D01*
X24502798Y-17510001D01*
X24502799Y-17510001D01*
X24468534Y-17506500D01*
X24400008Y-17499500D01*
X21999992Y-17499500D01*
X21931466Y-17506500D01*
X21897201Y-17510001D01*
X21730663Y-17565187D01*
X21581344Y-17657289D01*
X21457289Y-17781344D01*
X21365187Y-17930663D01*
X21310001Y-18097201D01*
X21310001Y-18097203D01*
X21299500Y-18199992D01*
X14900000Y-18199992D01*
X14900000Y-14275429D01*
X21299500Y-14275429D01*
X21299500Y-14524570D01*
X21332016Y-14771557D01*
X21332017Y-14771563D01*
X21332018Y-14771565D01*
X21396498Y-15012207D01*
X21491836Y-15242373D01*
X21616401Y-15458127D01*
X21768062Y-15655776D01*
X21944224Y-15831938D01*
X22141873Y-15983599D01*
X22357627Y-16108164D01*
X22587793Y-16203502D01*
X22828435Y-16267982D01*
X22828441Y-16267982D01*
X22828442Y-16267983D01*
X22895586Y-16276822D01*
X23075435Y-16300500D01*
X23324565Y-16300500D01*
X23571565Y-16267982D01*
X23812207Y-16203502D01*
X24042373Y-16108164D01*
X24258127Y-15983599D01*
X24455776Y-15831938D01*
X24631938Y-15655776D01*
X24783599Y-15458127D01*
X24908164Y-15242373D01*
X25003502Y-15012207D01*
X25067982Y-14771565D01*
X25100500Y-14524565D01*
X25100500Y-14275435D01*
X25067982Y-14028435D01*
X25003502Y-13787793D01*
X24908164Y-13557627D01*
X24783599Y-13341873D01*
X24631938Y-13144224D01*
X24455776Y-12968062D01*
X24258127Y-12816401D01*
X24177716Y-12769976D01*
X24042377Y-12691838D01*
X24042375Y-12691837D01*
X24042373Y-12691836D01*
X23879320Y-12624297D01*
X23812210Y-12596499D01*
X23812208Y-12596498D01*
X23812207Y-12596498D01*
X23571565Y-12532018D01*
X23571563Y-12532017D01*
X23571557Y-12532016D01*
X23324570Y-12499500D01*
X23324565Y-12499500D01*
X23075435Y-12499500D01*
X23075429Y-12499500D01*
X22828442Y-12532016D01*
X22587789Y-12596499D01*
X22357622Y-12691838D01*
X22141874Y-12816400D01*
X21944222Y-12968063D01*
X21768063Y-13144222D01*
X21616400Y-13341874D01*
X21491838Y-13557622D01*
X21396499Y-13787789D01*
X21332016Y-14028442D01*
X21299500Y-14275429D01*
X14900000Y-14275429D01*
X14900000Y-8004557D01*
X40199500Y-8004557D01*
X40199500Y-8162242D01*
X40230262Y-8316894D01*
X40230263Y-8316898D01*
X40290604Y-8462576D01*
X40290605Y-8462578D01*
X40290606Y-8462579D01*
X40378211Y-8593689D01*
X40489711Y-8705189D01*
X40620821Y-8792794D01*
X40620822Y-8792794D01*
X40620823Y-8792795D01*
X40693662Y-8822965D01*
X40766503Y-8853137D01*
X40921158Y-8883900D01*
X41078842Y-8883900D01*
X41233497Y-8853137D01*
X41314044Y-8819773D01*
X41373270Y-8795242D01*
X41430289Y-8783900D01*
X71086486Y-8783900D01*
X71160986Y-8803862D01*
X71215524Y-8858400D01*
X71235486Y-8932900D01*
X71215524Y-9007400D01*
X71191845Y-9038259D01*
X71109897Y-9120206D01*
X71109895Y-9120209D01*
X70984950Y-9292181D01*
X70984950Y-9292182D01*
X70984949Y-9292184D01*
X70888443Y-9481588D01*
X70822754Y-9683757D01*
X70789500Y-9893713D01*
X70789500Y-10106287D01*
X70822754Y-10316243D01*
X70888443Y-10518412D01*
X70984949Y-10707816D01*
X71109896Y-10879792D01*
X71260208Y-11030104D01*
X71432184Y-11155051D01*
X71621588Y-11251557D01*
X71823757Y-11317246D01*
X72001561Y-11345407D01*
X72072018Y-11376777D01*
X72117353Y-11439175D01*
X72125416Y-11515880D01*
X72094045Y-11586340D01*
X72035270Y-11630230D01*
X71911721Y-11681405D01*
X71780607Y-11769014D01*
X71669114Y-11880507D01*
X71581504Y-12011623D01*
X71521163Y-12157301D01*
X71521162Y-12157305D01*
X71490400Y-12311957D01*
X71490400Y-12469642D01*
X71521162Y-12624294D01*
X71521163Y-12624298D01*
X71581504Y-12769976D01*
X71581505Y-12769978D01*
X71581506Y-12769979D01*
X71669111Y-12901089D01*
X71780611Y-13012589D01*
X71911721Y-13100194D01*
X72057403Y-13160537D01*
X72212058Y-13191300D01*
X72369742Y-13191300D01*
X72524397Y-13160537D01*
X72604944Y-13127173D01*
X72664170Y-13102642D01*
X72721189Y-13091300D01*
X76678990Y-13091300D01*
X76678994Y-13091300D01*
X76814328Y-13064380D01*
X76901371Y-13028325D01*
X76941802Y-13011579D01*
X76941803Y-13011578D01*
X76941811Y-13011575D01*
X77056543Y-12934914D01*
X78837223Y-11154232D01*
X78904016Y-11115670D01*
X78981144Y-11115670D01*
X79030156Y-11139047D01*
X79052184Y-11155051D01*
X79241588Y-11251557D01*
X79443757Y-11317246D01*
X79653713Y-11350500D01*
X79653718Y-11350500D01*
X79866282Y-11350500D01*
X79866287Y-11350500D01*
X80010192Y-11327707D01*
X80086894Y-11335769D01*
X80138857Y-11369514D01*
X90549056Y-21779712D01*
X90587620Y-21846507D01*
X90589834Y-21914139D01*
X90573500Y-21996257D01*
X90573500Y-22153942D01*
X90604262Y-22308594D01*
X90604263Y-22308598D01*
X90664604Y-22454276D01*
X90664605Y-22454278D01*
X90664606Y-22454279D01*
X90752211Y-22585389D01*
X90863711Y-22696889D01*
X90994821Y-22784494D01*
X91140503Y-22844837D01*
X91295158Y-22875600D01*
X91452842Y-22875600D01*
X91607497Y-22844837D01*
X91753179Y-22784494D01*
X91884289Y-22696889D01*
X91995789Y-22585389D01*
X92083394Y-22454279D01*
X92143737Y-22308597D01*
X92174500Y-22153942D01*
X92174500Y-21996258D01*
X92143737Y-21841603D01*
X92085842Y-21701830D01*
X92074500Y-21644811D01*
X92074500Y-21545006D01*
X92047580Y-21409674D01*
X92047579Y-21409670D01*
X91994775Y-21282189D01*
X91918114Y-21167458D01*
X91820542Y-21069886D01*
X87130824Y-16380168D01*
X82349655Y-11598998D01*
X82311091Y-11532203D01*
X82311091Y-11455075D01*
X82349655Y-11388280D01*
X82416450Y-11349716D01*
X82431687Y-11346476D01*
X82616243Y-11317246D01*
X82818412Y-11251557D01*
X83007816Y-11155051D01*
X83179792Y-11030104D01*
X83330104Y-10879792D01*
X83449456Y-10715517D01*
X83509396Y-10666979D01*
X83585574Y-10654913D01*
X83657580Y-10682553D01*
X83690544Y-10715517D01*
X83809896Y-10879792D01*
X83960208Y-11030104D01*
X84132184Y-11155051D01*
X84321588Y-11251557D01*
X84523757Y-11317246D01*
X84733713Y-11350500D01*
X84733718Y-11350500D01*
X84946282Y-11350500D01*
X84946287Y-11350500D01*
X85090192Y-11327707D01*
X85166894Y-11335769D01*
X85218857Y-11369514D01*
X88200411Y-14351067D01*
X88232710Y-14399406D01*
X88276626Y-14505428D01*
X88290606Y-14539179D01*
X88378211Y-14670289D01*
X88489711Y-14781789D01*
X88620821Y-14869394D01*
X88620822Y-14869394D01*
X88620823Y-14869395D01*
X88647474Y-14880434D01*
X88766503Y-14929737D01*
X88921158Y-14960500D01*
X89078842Y-14960500D01*
X89233497Y-14929737D01*
X89379179Y-14869394D01*
X89510289Y-14781789D01*
X89621789Y-14670289D01*
X89709394Y-14539179D01*
X89769737Y-14393497D01*
X89800500Y-14238842D01*
X89800500Y-14081158D01*
X89769737Y-13926503D01*
X89709394Y-13780821D01*
X89621789Y-13649711D01*
X89510289Y-13538211D01*
X89379179Y-13450606D01*
X89379180Y-13450606D01*
X89379178Y-13450605D01*
X89239406Y-13392710D01*
X89191067Y-13360411D01*
X87429655Y-11598998D01*
X87391091Y-11532203D01*
X87391091Y-11455075D01*
X87429655Y-11388280D01*
X87496450Y-11349716D01*
X87511687Y-11346476D01*
X87696243Y-11317246D01*
X87898412Y-11251557D01*
X88087816Y-11155051D01*
X88259792Y-11030104D01*
X88410104Y-10879792D01*
X88529456Y-10715517D01*
X88589396Y-10666979D01*
X88665574Y-10654913D01*
X88737580Y-10682553D01*
X88770544Y-10715517D01*
X88889896Y-10879792D01*
X89040208Y-11030104D01*
X89212184Y-11155051D01*
X89401588Y-11251557D01*
X89603757Y-11317246D01*
X89813713Y-11350500D01*
X89813718Y-11350500D01*
X90026282Y-11350500D01*
X90026287Y-11350500D01*
X90236243Y-11317246D01*
X90438412Y-11251557D01*
X90627816Y-11155051D01*
X90799792Y-11030104D01*
X90950104Y-10879792D01*
X91069456Y-10715517D01*
X91129396Y-10666979D01*
X91205574Y-10654913D01*
X91277580Y-10682553D01*
X91310544Y-10715517D01*
X91429896Y-10879792D01*
X91580208Y-11030104D01*
X91752184Y-11155051D01*
X91941588Y-11251557D01*
X92143757Y-11317246D01*
X92353713Y-11350500D01*
X92353718Y-11350500D01*
X92566282Y-11350500D01*
X92566287Y-11350500D01*
X92776243Y-11317246D01*
X92978412Y-11251557D01*
X93167816Y-11155051D01*
X93339792Y-11030104D01*
X93490104Y-10879792D01*
X93609456Y-10715517D01*
X93669396Y-10666979D01*
X93745574Y-10654913D01*
X93817580Y-10682553D01*
X93850544Y-10715517D01*
X93969896Y-10879792D01*
X94120208Y-11030104D01*
X94292184Y-11155051D01*
X94481588Y-11251557D01*
X94683757Y-11317246D01*
X94893713Y-11350500D01*
X94893718Y-11350500D01*
X95106282Y-11350500D01*
X95106287Y-11350500D01*
X95316243Y-11317246D01*
X95518412Y-11251557D01*
X95707816Y-11155051D01*
X95879792Y-11030104D01*
X96030104Y-10879792D01*
X96149456Y-10715517D01*
X96209396Y-10666979D01*
X96285574Y-10654913D01*
X96357580Y-10682553D01*
X96390544Y-10715517D01*
X96509896Y-10879792D01*
X96660208Y-11030104D01*
X96832184Y-11155051D01*
X97021588Y-11251557D01*
X97223757Y-11317246D01*
X97433713Y-11350500D01*
X97433718Y-11350500D01*
X97646282Y-11350500D01*
X97646287Y-11350500D01*
X97856243Y-11317246D01*
X98058412Y-11251557D01*
X98247816Y-11155051D01*
X98419792Y-11030104D01*
X98570104Y-10879792D01*
X98689456Y-10715517D01*
X98749396Y-10666979D01*
X98825574Y-10654913D01*
X98897580Y-10682553D01*
X98930544Y-10715517D01*
X99049896Y-10879792D01*
X99200208Y-11030104D01*
X99372184Y-11155051D01*
X99561588Y-11251557D01*
X99763757Y-11317246D01*
X99973713Y-11350500D01*
X99973718Y-11350500D01*
X100186282Y-11350500D01*
X100186287Y-11350500D01*
X100396243Y-11317246D01*
X100598412Y-11251557D01*
X100787816Y-11155051D01*
X100959792Y-11030104D01*
X101110104Y-10879792D01*
X101229456Y-10715517D01*
X101289396Y-10666979D01*
X101365574Y-10654913D01*
X101437580Y-10682553D01*
X101470544Y-10715517D01*
X101589896Y-10879792D01*
X101740208Y-11030104D01*
X101912184Y-11155051D01*
X102101588Y-11251557D01*
X102303757Y-11317246D01*
X102513713Y-11350500D01*
X102513718Y-11350500D01*
X102726282Y-11350500D01*
X102726287Y-11350500D01*
X102936243Y-11317246D01*
X103138412Y-11251557D01*
X103327816Y-11155051D01*
X103499792Y-11030104D01*
X103650104Y-10879792D01*
X103769456Y-10715517D01*
X103829396Y-10666979D01*
X103905574Y-10654913D01*
X103977580Y-10682553D01*
X104010544Y-10715517D01*
X104129896Y-10879792D01*
X104280208Y-11030104D01*
X104452184Y-11155051D01*
X104641588Y-11251557D01*
X104843757Y-11317246D01*
X105053713Y-11350500D01*
X105053718Y-11350500D01*
X105266282Y-11350500D01*
X105266287Y-11350500D01*
X105410192Y-11327707D01*
X105486894Y-11335769D01*
X105538857Y-11369514D01*
X108914957Y-14745614D01*
X109029689Y-14822275D01*
X109157171Y-14875080D01*
X109184091Y-14880434D01*
X109292507Y-14902000D01*
X109744811Y-14902000D01*
X109801830Y-14913342D01*
X109841412Y-14929737D01*
X109941603Y-14971237D01*
X110096258Y-15002000D01*
X110253942Y-15002000D01*
X110408597Y-14971237D01*
X110554279Y-14910894D01*
X110685389Y-14823289D01*
X110796889Y-14711789D01*
X110884494Y-14580679D01*
X110944837Y-14434997D01*
X110975600Y-14280342D01*
X110975600Y-14122658D01*
X110944837Y-13968003D01*
X110884494Y-13822321D01*
X110796889Y-13691211D01*
X110685389Y-13579711D01*
X110554279Y-13492106D01*
X110554278Y-13492105D01*
X110554276Y-13492104D01*
X110408598Y-13431763D01*
X110408594Y-13431762D01*
X110253942Y-13401000D01*
X110096258Y-13401000D01*
X109941605Y-13431762D01*
X109941601Y-13431763D01*
X109801830Y-13489658D01*
X109744811Y-13501000D01*
X109713375Y-13501000D01*
X109638875Y-13481038D01*
X109608016Y-13457359D01*
X107749655Y-11598998D01*
X107711091Y-11532203D01*
X107711091Y-11455075D01*
X107749655Y-11388280D01*
X107816450Y-11349716D01*
X107831687Y-11346476D01*
X108016243Y-11317246D01*
X108218412Y-11251557D01*
X108407816Y-11155051D01*
X108579792Y-11030104D01*
X108730104Y-10879792D01*
X108849456Y-10715517D01*
X108909396Y-10666979D01*
X108985574Y-10654913D01*
X109057580Y-10682553D01*
X109090544Y-10715517D01*
X109209896Y-10879792D01*
X109360208Y-11030104D01*
X109532184Y-11155051D01*
X109721588Y-11251557D01*
X109923757Y-11317246D01*
X110133713Y-11350500D01*
X110133718Y-11350500D01*
X110346282Y-11350500D01*
X110346287Y-11350500D01*
X110556243Y-11317246D01*
X110758412Y-11251557D01*
X110947816Y-11155051D01*
X111119792Y-11030104D01*
X111270104Y-10879792D01*
X111389456Y-10715517D01*
X111449396Y-10666979D01*
X111525574Y-10654913D01*
X111597580Y-10682553D01*
X111630544Y-10715517D01*
X111749895Y-10879790D01*
X111749897Y-10879793D01*
X111900206Y-11030102D01*
X111900214Y-11030109D01*
X111947206Y-11064250D01*
X112018080Y-11115742D01*
X112066618Y-11175680D01*
X112079500Y-11236285D01*
X112079500Y-13949224D01*
X112059538Y-14023724D01*
X112035859Y-14054583D01*
X110700928Y-15389513D01*
X110652589Y-15421812D01*
X110512821Y-15479705D01*
X110381707Y-15567314D01*
X110270214Y-15678807D01*
X110182604Y-15809923D01*
X110122263Y-15955601D01*
X110122262Y-15955605D01*
X110091500Y-16110257D01*
X110091500Y-16267942D01*
X110122262Y-16422594D01*
X110122263Y-16422598D01*
X110182604Y-16568276D01*
X110182605Y-16568278D01*
X110182606Y-16568279D01*
X110270211Y-16699389D01*
X110381711Y-16810889D01*
X110512821Y-16898494D01*
X110658503Y-16958837D01*
X110813158Y-16989600D01*
X110970842Y-16989600D01*
X111125497Y-16958837D01*
X111271179Y-16898494D01*
X111402289Y-16810889D01*
X111513789Y-16699389D01*
X111601394Y-16568279D01*
X111659291Y-16428501D01*
X111691584Y-16380171D01*
X113324114Y-14747643D01*
X113400775Y-14632911D01*
X113453580Y-14505429D01*
X113461000Y-14468127D01*
X113480500Y-14370093D01*
X113480500Y-11236285D01*
X113500462Y-11161785D01*
X113541919Y-11115743D01*
X113659792Y-11030104D01*
X113810104Y-10879792D01*
X113929456Y-10715517D01*
X113989396Y-10666979D01*
X114065574Y-10654913D01*
X114137580Y-10682553D01*
X114170544Y-10715517D01*
X114289895Y-10879790D01*
X114289897Y-10879793D01*
X114440206Y-11030102D01*
X114440214Y-11030109D01*
X114487206Y-11064250D01*
X114558080Y-11115742D01*
X114606618Y-11175680D01*
X114619500Y-11236285D01*
X114619500Y-17396224D01*
X114599538Y-17470724D01*
X114575859Y-17501583D01*
X113408228Y-18669213D01*
X113359889Y-18701512D01*
X113220121Y-18759405D01*
X113089007Y-18847014D01*
X112977514Y-18958507D01*
X112889904Y-19089623D01*
X112829563Y-19235301D01*
X112829562Y-19235305D01*
X112798800Y-19389957D01*
X112798800Y-19547642D01*
X112829562Y-19702294D01*
X112829563Y-19702298D01*
X112889904Y-19847976D01*
X112889905Y-19847978D01*
X112889906Y-19847979D01*
X112977511Y-19979089D01*
X113089011Y-20090589D01*
X113220121Y-20178194D01*
X113365803Y-20238537D01*
X113520458Y-20269300D01*
X113678142Y-20269300D01*
X113832797Y-20238537D01*
X113978479Y-20178194D01*
X114109589Y-20090589D01*
X114221089Y-19979089D01*
X114308694Y-19847979D01*
X114366591Y-19708201D01*
X114398884Y-19659871D01*
X115864114Y-18194643D01*
X115940775Y-18079911D01*
X115993580Y-17952429D01*
X115998934Y-17925509D01*
X116020500Y-17817093D01*
X116020500Y-11236285D01*
X116040462Y-11161785D01*
X116073472Y-11122357D01*
X116077569Y-11118902D01*
X116199792Y-11030104D01*
X116290306Y-10939589D01*
X116295150Y-10935507D01*
X116324521Y-10921731D01*
X116352613Y-10905512D01*
X116359103Y-10905512D01*
X116364979Y-10902756D01*
X116397304Y-10905512D01*
X116429741Y-10905512D01*
X116435360Y-10908756D01*
X116441828Y-10909308D01*
X116468445Y-10927858D01*
X116496536Y-10944076D01*
X116500445Y-10950158D01*
X116505106Y-10953407D01*
X116512055Y-10968225D01*
X116530784Y-10997366D01*
X116566202Y-11092329D01*
X116566204Y-11092333D01*
X116652452Y-11207544D01*
X116652455Y-11207547D01*
X116767666Y-11293795D01*
X116767670Y-11293797D01*
X116902517Y-11344091D01*
X116962114Y-11350499D01*
X116962118Y-11350499D01*
X116962127Y-11350500D01*
X118757872Y-11350499D01*
X118817483Y-11344091D01*
X118928584Y-11302653D01*
X118952329Y-11293797D01*
X118952333Y-11293795D01*
X119009938Y-11250671D01*
X119067546Y-11207546D01*
X119131319Y-11122357D01*
X119153795Y-11092333D01*
X119153797Y-11092329D01*
X119177006Y-11030102D01*
X119204091Y-10957483D01*
X119210500Y-10897873D01*
X119210499Y-9102128D01*
X119204091Y-9042517D01*
X119177005Y-8969895D01*
X119153797Y-8907670D01*
X119153795Y-8907666D01*
X119067547Y-8792455D01*
X119067544Y-8792452D01*
X118952333Y-8706204D01*
X118952329Y-8706202D01*
X118817482Y-8655908D01*
X118757876Y-8649500D01*
X116962136Y-8649500D01*
X116962111Y-8649502D01*
X116902521Y-8655908D01*
X116902515Y-8655909D01*
X116767670Y-8706202D01*
X116767666Y-8706204D01*
X116652455Y-8792452D01*
X116652452Y-8792455D01*
X116566204Y-8907666D01*
X116566203Y-8907668D01*
X116530784Y-9002634D01*
X116486045Y-9065461D01*
X116415887Y-9097501D01*
X116339108Y-9090170D01*
X116285819Y-9055923D01*
X116199793Y-8969897D01*
X116199792Y-8969896D01*
X116027816Y-8844949D01*
X115838412Y-8748443D01*
X115636243Y-8682754D01*
X115426287Y-8649500D01*
X115213713Y-8649500D01*
X115038749Y-8677211D01*
X115003756Y-8682754D01*
X114801594Y-8748441D01*
X114801588Y-8748443D01*
X114801582Y-8748445D01*
X114801582Y-8748446D01*
X114612182Y-8844950D01*
X114612181Y-8844950D01*
X114440209Y-8969895D01*
X114440206Y-8969897D01*
X114289897Y-9120206D01*
X114289895Y-9120209D01*
X114170544Y-9284482D01*
X114110604Y-9333020D01*
X114034425Y-9345086D01*
X113962420Y-9317446D01*
X113929456Y-9284482D01*
X113813251Y-9124540D01*
X113810104Y-9120208D01*
X113659792Y-8969896D01*
X113487816Y-8844949D01*
X113298412Y-8748443D01*
X113096243Y-8682754D01*
X112886287Y-8649500D01*
X112673713Y-8649500D01*
X112498749Y-8677211D01*
X112463756Y-8682754D01*
X112261594Y-8748441D01*
X112261588Y-8748443D01*
X112261582Y-8748445D01*
X112261582Y-8748446D01*
X112072182Y-8844950D01*
X112072181Y-8844950D01*
X111900209Y-8969895D01*
X111900206Y-8969897D01*
X111749897Y-9120206D01*
X111749895Y-9120209D01*
X111630544Y-9284482D01*
X111570604Y-9333020D01*
X111494425Y-9345086D01*
X111422420Y-9317446D01*
X111389456Y-9284482D01*
X111273251Y-9124540D01*
X111270104Y-9120208D01*
X111119792Y-8969896D01*
X110947816Y-8844949D01*
X110758412Y-8748443D01*
X110556243Y-8682754D01*
X110346287Y-8649500D01*
X110133713Y-8649500D01*
X109958749Y-8677211D01*
X109923756Y-8682754D01*
X109721594Y-8748441D01*
X109721588Y-8748443D01*
X109721582Y-8748445D01*
X109721582Y-8748446D01*
X109532182Y-8844950D01*
X109532181Y-8844950D01*
X109360209Y-8969895D01*
X109360206Y-8969897D01*
X109209897Y-9120206D01*
X109209895Y-9120209D01*
X109090544Y-9284482D01*
X109030604Y-9333020D01*
X108954425Y-9345086D01*
X108882420Y-9317446D01*
X108849456Y-9284482D01*
X108733251Y-9124540D01*
X108730104Y-9120208D01*
X108579792Y-8969896D01*
X108407816Y-8844949D01*
X108218412Y-8748443D01*
X108016243Y-8682754D01*
X107806287Y-8649500D01*
X107593713Y-8649500D01*
X107418749Y-8677211D01*
X107383756Y-8682754D01*
X107181594Y-8748441D01*
X107181588Y-8748443D01*
X107181582Y-8748445D01*
X107181582Y-8748446D01*
X106992182Y-8844950D01*
X106992181Y-8844950D01*
X106820209Y-8969895D01*
X106820206Y-8969897D01*
X106669897Y-9120206D01*
X106669895Y-9120209D01*
X106550544Y-9284482D01*
X106490604Y-9333020D01*
X106414425Y-9345086D01*
X106342420Y-9317446D01*
X106309456Y-9284482D01*
X106193251Y-9124540D01*
X106190104Y-9120208D01*
X106039792Y-8969896D01*
X105867816Y-8844949D01*
X105678412Y-8748443D01*
X105476243Y-8682754D01*
X105266287Y-8649500D01*
X105053713Y-8649500D01*
X104878749Y-8677211D01*
X104843756Y-8682754D01*
X104641594Y-8748441D01*
X104641588Y-8748443D01*
X104641582Y-8748445D01*
X104641582Y-8748446D01*
X104452182Y-8844950D01*
X104452181Y-8844950D01*
X104280209Y-8969895D01*
X104280206Y-8969897D01*
X104129897Y-9120206D01*
X104129895Y-9120209D01*
X104010544Y-9284482D01*
X103950604Y-9333020D01*
X103874425Y-9345086D01*
X103802420Y-9317446D01*
X103769456Y-9284482D01*
X103653251Y-9124540D01*
X103650104Y-9120208D01*
X103499792Y-8969896D01*
X103327816Y-8844949D01*
X103138412Y-8748443D01*
X102936243Y-8682754D01*
X102726287Y-8649500D01*
X102513713Y-8649500D01*
X102417757Y-8664698D01*
X102369809Y-8672292D01*
X102293103Y-8664229D01*
X102241142Y-8630485D01*
X101149946Y-7539289D01*
X101149943Y-7539286D01*
X101035211Y-7462625D01*
X101035208Y-7462623D01*
X101035202Y-7462620D01*
X100907729Y-7409820D01*
X100907727Y-7409819D01*
X100772397Y-7382900D01*
X100772394Y-7382900D01*
X100772393Y-7382900D01*
X41430289Y-7382900D01*
X41373270Y-7371558D01*
X41233498Y-7313663D01*
X41233494Y-7313662D01*
X41078842Y-7282900D01*
X40921158Y-7282900D01*
X40766505Y-7313662D01*
X40766501Y-7313663D01*
X40620823Y-7374004D01*
X40489707Y-7461614D01*
X40378214Y-7573107D01*
X40290604Y-7704223D01*
X40230263Y-7849901D01*
X40230262Y-7849905D01*
X40199500Y-8004557D01*
X14900000Y-8004557D01*
X14900000Y-5699000D01*
X14919962Y-5624500D01*
X14974500Y-5569962D01*
X15049000Y-5550000D01*
X157351000Y-5550000D01*
X157425500Y-5569962D01*
G37*
%TD.AperFunction*%
%TD*%
M02*
