%TF.GenerationSoftware,KiCad,Pcbnew,10.0.0*%
%TF.CreationDate,2026-03-30T19:01:33-04:00*%
%TF.ProjectId,geodude-carrier,67656f64-7564-4652-9d63-617272696572,rev?*%
%TF.SameCoordinates,Original*%
%TF.FileFunction,Copper,L1,Top*%
%TF.FilePolarity,Positive*%
%FSLAX46Y46*%
G04 Gerber Fmt 4.6, Leading zero omitted, Abs format (unit mm)*
G04 Created by KiCad (PCBNEW 10.0.0) date 2026-03-30 19:01:33*
%MOMM*%
%LPD*%
G01*
G04 APERTURE LIST*
G04 Aperture macros list*
%AMRoundRect*
0 Rectangle with rounded corners*
0 $1 Rounding radius*
0 $2 $3 $4 $5 $6 $7 $8 $9 X,Y pos of 4 corners*
0 Add a 4 corners polygon primitive as box body*
4,1,4,$2,$3,$4,$5,$6,$7,$8,$9,$2,$3,0*
0 Add four circle primitives for the rounded corners*
1,1,$1+$1,$2,$3*
1,1,$1+$1,$4,$5*
1,1,$1+$1,$6,$7*
1,1,$1+$1,$8,$9*
0 Add four rect primitives between the rounded corners*
20,1,$1+$1,$2,$3,$4,$5,0*
20,1,$1+$1,$4,$5,$6,$7,0*
20,1,$1+$1,$6,$7,$8,$9,0*
20,1,$1+$1,$8,$9,$2,$3,0*%
G04 Aperture macros list end*
%TA.AperFunction,ComponentPad*%
%ADD10C,2.800000*%
%TD*%
%TA.AperFunction,ComponentPad*%
%ADD11R,1.700000X1.700000*%
%TD*%
%TA.AperFunction,ComponentPad*%
%ADD12C,1.700000*%
%TD*%
%TA.AperFunction,ComponentPad*%
%ADD13RoundRect,0.250001X1.149999X-1.149999X1.149999X1.149999X-1.149999X1.149999X-1.149999X-1.149999X0*%
%TD*%
%TA.AperFunction,ViaPad*%
%ADD14C,0.600000*%
%TD*%
%TA.AperFunction,Conductor*%
%ADD15C,3.000000*%
%TD*%
%TA.AperFunction,Conductor*%
%ADD16C,0.400000*%
%TD*%
%TA.AperFunction,Conductor*%
%ADD17C,1.000000*%
%TD*%
%TA.AperFunction,Conductor*%
%ADD18C,1.699800*%
%TD*%
%TA.AperFunction,Conductor*%
%ADD19C,2.000000*%
%TD*%
%TA.AperFunction,Conductor*%
%ADD20C,0.600000*%
%TD*%
%TA.AperFunction,Conductor*%
%ADD21C,1.500000*%
%TD*%
G04 APERTURE END LIST*
D10*
%TO.P,F2,1*%
%TO.N,+12V*%
X87185000Y-60900000D03*
%TO.P,F2,2*%
%TO.N,SV2_PWR*%
X109385000Y-60900000D03*
%TD*%
D11*
%TO.P,SV4,1*%
%TO.N,PWM_CH3*%
X91220000Y-124300000D03*
D12*
%TO.P,SV4,2*%
%TO.N,SV4_PWR*%
X93760000Y-124300000D03*
%TO.P,SV4,3*%
%TO.N,GND*%
X96300000Y-124300000D03*
%TD*%
D11*
%TO.P,J_FAN,1*%
%TO.N,GND*%
X116460000Y-120500000D03*
D12*
%TO.P,J_FAN,2*%
%TO.N,N/C*%
X116460000Y-117960000D03*
%TO.P,J_FAN,3*%
%TO.N,+12V*%
X119000000Y-120500000D03*
%TO.P,J_FAN,4*%
%TO.N,N/C*%
X119000000Y-117960000D03*
%TO.P,J_FAN,5*%
%TO.N,TACH*%
X121540000Y-120500000D03*
%TO.P,J_FAN,6*%
X121540000Y-117960000D03*
%TO.P,J_FAN,7*%
%TO.N,PWM_CH12*%
X124080000Y-120500000D03*
%TO.P,J_FAN,8*%
X124080000Y-117960000D03*
%TD*%
D10*
%TO.P,F6,1*%
%TO.N,+12V*%
X42685000Y-43900000D03*
%TO.P,F6,2*%
%TO.N,SV6_PWR*%
X64885000Y-43900000D03*
%TD*%
D11*
%TO.P,SV2,1*%
%TO.N,PWM_CH1*%
X63220000Y-124300000D03*
D12*
%TO.P,SV2,2*%
%TO.N,SV2_PWR*%
X65760000Y-124300000D03*
%TO.P,SV2,3*%
%TO.N,GND*%
X68300000Y-124300000D03*
%TD*%
D13*
%TO.P,J4,1*%
%TO.N,GND*%
X130900000Y-107000000D03*
D10*
%TO.P,J4,2*%
X130900000Y-102000000D03*
%TD*%
D11*
%TO.P,SV6,1*%
%TO.N,PWM_CH5*%
X48960000Y-132500000D03*
D12*
%TO.P,SV6,2*%
%TO.N,SV6_PWR*%
X51500000Y-132500000D03*
%TO.P,SV6,3*%
%TO.N,GND*%
X54040000Y-132500000D03*
%TD*%
D11*
%TO.P,J41,1*%
%TO.N,SDA*%
X24000000Y-65680000D03*
D12*
%TO.P,J41,2*%
X24000000Y-68220000D03*
%TO.P,J41,3*%
X24000000Y-70760000D03*
%TO.P,J41,4*%
X24000000Y-73300000D03*
%TD*%
D13*
%TO.P,J2,1*%
%TO.N,+12V*%
X130900000Y-59000000D03*
D10*
%TO.P,J2,2*%
X130900000Y-54000000D03*
%TD*%
D13*
%TO.P,J34,1*%
%TO.N,+3V3*%
X13000000Y-83700000D03*
D10*
%TO.P,J34,2*%
X13000000Y-78700000D03*
%TD*%
D13*
%TO.P,J32,1*%
%TO.N,SDA*%
X13000000Y-71700000D03*
D10*
%TO.P,J32,2*%
X13000000Y-66700000D03*
%TD*%
D11*
%TO.P,SV1,1*%
%TO.N,PWM_CH0*%
X49220000Y-124300000D03*
D12*
%TO.P,SV1,2*%
%TO.N,SV1_PWR*%
X51760000Y-124300000D03*
%TO.P,SV1,3*%
%TO.N,GND*%
X54300000Y-124300000D03*
%TD*%
D11*
%TO.P,J_ESC,1*%
%TO.N,PWM_CH11*%
X116460000Y-132500000D03*
D12*
%TO.P,J_ESC,2*%
%TO.N,N/C*%
X119000000Y-132500000D03*
%TO.P,J_ESC,3*%
%TO.N,GND*%
X121540000Y-132500000D03*
%TD*%
D11*
%TO.P,SV3,1*%
%TO.N,PWM_CH2*%
X77220000Y-124300000D03*
D12*
%TO.P,SV3,2*%
%TO.N,SV3_PWR*%
X79760000Y-124300000D03*
%TO.P,SV3,3*%
%TO.N,GND*%
X82300000Y-124300000D03*
%TD*%
D13*
%TO.P,J37,1*%
%TO.N,+5V_LOGIC*%
X13000000Y-95700000D03*
D10*
%TO.P,J37,2*%
X13000000Y-90700000D03*
%TD*%
D11*
%TO.P,J44,1*%
%TO.N,GND_LOGIC*%
X24000000Y-101680000D03*
D12*
%TO.P,J44,2*%
X24000000Y-104220000D03*
%TO.P,J44,3*%
X24000000Y-106760000D03*
%TO.P,J44,4*%
X24000000Y-109300000D03*
%TD*%
D11*
%TO.P,SV10,1*%
%TO.N,PWM_CH9*%
X104960000Y-132500000D03*
D12*
%TO.P,SV10,2*%
%TO.N,SV10_PWR*%
X107500000Y-132500000D03*
%TO.P,SV10,3*%
%TO.N,GND*%
X110040000Y-132500000D03*
%TD*%
D11*
%TO.P,SV7,1*%
%TO.N,PWM_CH6*%
X62960000Y-132500000D03*
D12*
%TO.P,SV7,2*%
%TO.N,SV7_PWR*%
X65500000Y-132500000D03*
%TO.P,SV7,3*%
%TO.N,GND*%
X68040000Y-132500000D03*
%TD*%
D10*
%TO.P,F7,1*%
%TO.N,+12V*%
X42685000Y-60900000D03*
%TO.P,F7,2*%
%TO.N,SV7_PWR*%
X64885000Y-60900000D03*
%TD*%
D13*
%TO.P,J1,1*%
%TO.N,+12V*%
X130900000Y-47000000D03*
D10*
%TO.P,J1,2*%
X130900000Y-42000000D03*
%TD*%
D11*
%TO.P,SV9,1*%
%TO.N,PWM_CH8*%
X90960000Y-132500000D03*
D12*
%TO.P,SV9,2*%
%TO.N,SV9_PWR*%
X93500000Y-132500000D03*
%TO.P,SV9,3*%
%TO.N,GND*%
X96040000Y-132500000D03*
%TD*%
D11*
%TO.P,SV5,1*%
%TO.N,PWM_CH4*%
X105220000Y-124300000D03*
D12*
%TO.P,SV5,2*%
%TO.N,SV5_PWR*%
X107760000Y-124300000D03*
%TO.P,SV5,3*%
%TO.N,GND*%
X110300000Y-124300000D03*
%TD*%
D11*
%TO.P,J43,1*%
%TO.N,+5V_LOGIC*%
X24000000Y-89680000D03*
D12*
%TO.P,J43,2*%
X24000000Y-92220000D03*
%TO.P,J43,3*%
X24000000Y-94760000D03*
%TO.P,J43,4*%
X24000000Y-97300000D03*
%TD*%
D13*
%TO.P,J39,1*%
%TO.N,GND_LOGIC*%
X13000000Y-107700000D03*
D10*
%TO.P,J39,2*%
X13000000Y-102700000D03*
%TD*%
D11*
%TO.P,SV8,1*%
%TO.N,PWM_CH7*%
X76960000Y-132500000D03*
D12*
%TO.P,SV8,2*%
%TO.N,SV8_PWR*%
X79500000Y-132500000D03*
%TO.P,SV8,3*%
%TO.N,GND*%
X82040000Y-132500000D03*
%TD*%
D11*
%TO.P,J40,1*%
%TO.N,SCL*%
X24000000Y-53680000D03*
D12*
%TO.P,J40,2*%
X24000000Y-56220000D03*
%TO.P,J40,3*%
X24000000Y-58760000D03*
%TO.P,J40,4*%
X24000000Y-61300000D03*
%TD*%
D13*
%TO.P,J6,1*%
%TO.N,+5V_SERVO*%
X130900000Y-83000000D03*
D10*
%TO.P,J6,2*%
X130900000Y-78000000D03*
%TD*%
%TO.P,F4,1*%
%TO.N,+5V_SERVO*%
X87185000Y-94900000D03*
%TO.P,F4,2*%
%TO.N,SV4_PWR*%
X109385000Y-94900000D03*
%TD*%
%TO.P,F3,1*%
%TO.N,+7V4*%
X87185000Y-77900000D03*
%TO.P,F3,2*%
%TO.N,SV3_PWR*%
X109385000Y-77900000D03*
%TD*%
D13*
%TO.P,J5,1*%
%TO.N,+7V4*%
X130900000Y-71000000D03*
D10*
%TO.P,J5,2*%
X130900000Y-66000000D03*
%TD*%
D13*
%TO.P,J31,1*%
%TO.N,SCL*%
X13000000Y-59700000D03*
D10*
%TO.P,J31,2*%
X13000000Y-54700000D03*
%TD*%
%TO.P,F5,1*%
%TO.N,+5V_SERVO*%
X87185000Y-111900000D03*
%TO.P,F5,2*%
%TO.N,SV5_PWR*%
X109385000Y-111900000D03*
%TD*%
%TO.P,F9,1*%
%TO.N,+5V_SERVO*%
X42685000Y-94900000D03*
%TO.P,F9,2*%
%TO.N,SV9_PWR*%
X64885000Y-94900000D03*
%TD*%
D11*
%TO.P,J42,1*%
%TO.N,+3V3*%
X24000000Y-77680000D03*
D12*
%TO.P,J42,2*%
X24000000Y-80220000D03*
%TO.P,J42,3*%
X24000000Y-82760000D03*
%TO.P,J42,4*%
X24000000Y-85300000D03*
%TD*%
D13*
%TO.P,J3,1*%
%TO.N,GND*%
X130900000Y-95000000D03*
D10*
%TO.P,J3,2*%
X130900000Y-90000000D03*
%TD*%
%TO.P,F8,1*%
%TO.N,+7V4*%
X42685000Y-77900000D03*
%TO.P,F8,2*%
%TO.N,SV8_PWR*%
X64885000Y-77900000D03*
%TD*%
D11*
%TO.P,J_PCA,1*%
%TO.N,PWM_CH0*%
X98160000Y-24000000D03*
D12*
%TO.P,J_PCA,2*%
%TO.N,PWM_CH1*%
X95620000Y-24000000D03*
%TO.P,J_PCA,3*%
%TO.N,PWM_CH2*%
X93080000Y-24000000D03*
%TO.P,J_PCA,4*%
%TO.N,PWM_CH3*%
X90540000Y-24000000D03*
%TO.P,J_PCA,5*%
%TO.N,N/C*%
X88000000Y-24000000D03*
%TO.P,J_PCA,6*%
%TO.N,PWM_CH4*%
X85460000Y-24000000D03*
%TO.P,J_PCA,7*%
%TO.N,PWM_CH5*%
X82920000Y-24000000D03*
%TO.P,J_PCA,8*%
%TO.N,PWM_CH6*%
X80380000Y-24000000D03*
%TO.P,J_PCA,9*%
%TO.N,PWM_CH7*%
X77840000Y-24000000D03*
%TO.P,J_PCA,10*%
%TO.N,N/C*%
X75300000Y-24000000D03*
%TO.P,J_PCA,11*%
%TO.N,PWM_CH8*%
X72760000Y-24000000D03*
%TO.P,J_PCA,12*%
%TO.N,PWM_CH9*%
X70220000Y-24000000D03*
%TO.P,J_PCA,13*%
%TO.N,PWM_CH10*%
X67680000Y-24000000D03*
%TO.P,J_PCA,14*%
%TO.N,PWM_CH11*%
X65140000Y-24000000D03*
%TO.P,J_PCA,15*%
%TO.N,N/C*%
X62600000Y-24000000D03*
%TO.P,J_PCA,16*%
%TO.N,PWM_CH12*%
X60060000Y-24000000D03*
%TO.P,J_PCA,17*%
%TO.N,PWM_CH13*%
X57520000Y-24000000D03*
%TO.P,J_PCA,18*%
%TO.N,PWM_CH14*%
X54980000Y-24000000D03*
%TO.P,J_PCA,19*%
%TO.N,PWM_CH15*%
X52440000Y-24000000D03*
%TD*%
D10*
%TO.P,F1,1*%
%TO.N,+12V*%
X87185000Y-43900000D03*
%TO.P,F1,2*%
%TO.N,SV1_PWR*%
X109385000Y-43900000D03*
%TD*%
%TO.P,F10,1*%
%TO.N,+5V_SERVO*%
X42685000Y-111900000D03*
%TO.P,F10,2*%
%TO.N,SV10_PWR*%
X64885000Y-111900000D03*
%TD*%
D14*
%TO.N,PWM_CH12*%
X113779500Y-26280000D03*
%TO.N,PWM_CH1*%
X69844500Y-56072700D03*
X93200000Y-56072700D03*
X73173300Y-123595700D03*
%TO.N,PWM_CH5*%
X45696600Y-38011100D03*
%TO.N,PWM_CH0*%
X96596500Y-36402600D03*
X64855900Y-36402600D03*
%TO.N,PWM_CH11*%
X73234500Y-27775700D03*
X90082200Y-120018200D03*
%TO.N,PWM_CH2*%
X70612100Y-32248000D03*
%TO.N,SV3_PWR*%
X79005600Y-121235800D03*
X97496100Y-111371700D03*
%TO.N,PWM_CH9*%
X84376800Y-124420900D03*
%TO.N,PWM_CH6*%
X64750000Y-28491200D03*
%TO.N,SV7_PWR*%
X57102500Y-124752000D03*
%TO.N,PWM_CH4*%
X98678900Y-117960300D03*
%TO.N,SV8_PWR*%
X59075600Y-127752700D03*
%TO.N,+5V_SERVO*%
X63003000Y-106782500D03*
%TO.N,+7V4*%
X73217200Y-76990700D03*
%TD*%
%TO.N,+12V*%
D15*
X42685000Y-60900000D02*
X42685000Y-43900000D01*
X130900000Y-42000000D02*
X130900000Y-47000000D01*
X130900000Y-54000000D02*
X130900000Y-59000000D01*
X130900000Y-47000000D02*
X130900000Y-54000000D01*
X87185000Y-43900000D02*
X87185000Y-60900000D01*
%TO.N,PWM_CH3*%
D16*
X90540000Y-106859000D02*
X90540000Y-24000000D01*
X91220000Y-124300000D02*
X91220000Y-123048300D01*
X91220000Y-107539000D02*
X90540000Y-106859000D01*
X91220000Y-123048300D02*
X91220000Y-107539000D01*
%TO.N,SV4_PWR*%
D17*
X109385000Y-108675000D02*
X109385000Y-94900000D01*
X93760000Y-124300000D02*
X109385000Y-108675000D01*
%TO.N,GND*%
D18*
X54300000Y-124300000D02*
X54300000Y-132240000D01*
D15*
X130900000Y-107000000D02*
X130900000Y-118519500D01*
D18*
X82051900Y-132500000D02*
X82040000Y-132500000D01*
X68300000Y-132500000D02*
X68300000Y-124300000D01*
X96300000Y-132500000D02*
X96300000Y-124300000D01*
D15*
X121239500Y-127345000D02*
X116460000Y-122565500D01*
D18*
X110574500Y-131965500D02*
X110040000Y-132500000D01*
D15*
X130900000Y-118519500D02*
X122074500Y-127345000D01*
X96051900Y-132500000D02*
X96300000Y-132500000D01*
D18*
X82300000Y-132500000D02*
X82300000Y-124300000D01*
X96051900Y-132500000D02*
X96040000Y-132500000D01*
D15*
X122074500Y-127345000D02*
X121239500Y-127345000D01*
X68051900Y-132500000D02*
X68300000Y-132500000D01*
X122074500Y-127345000D02*
X122074500Y-131965500D01*
X82051900Y-132500000D02*
X82300000Y-132500000D01*
X110833100Y-131706900D02*
X110574500Y-131965500D01*
X130900000Y-95000000D02*
X130900000Y-102000000D01*
D18*
X116460000Y-122565500D02*
X116460000Y-120500000D01*
D15*
X130900000Y-90000000D02*
X130900000Y-95000000D01*
X130900000Y-102000000D02*
X130900000Y-107000000D01*
D18*
X68051900Y-132500000D02*
X68040000Y-132500000D01*
X122074500Y-131965500D02*
X121540000Y-132500000D01*
X110833100Y-124833100D02*
X110300000Y-124300000D01*
X54300000Y-132240000D02*
X54040000Y-132500000D01*
D15*
X110833100Y-124833100D02*
X110833100Y-131706900D01*
%TO.N,TACH*%
D16*
X121540000Y-117960000D02*
X121540000Y-120500000D01*
%TO.N,PWM_CH12*%
X124080000Y-117960000D02*
X124080000Y-120500000D01*
X113779500Y-26280000D02*
X113779500Y-107659500D01*
X113779500Y-107659500D02*
X124080000Y-117960000D01*
%TO.N,SV6_PWR*%
D19*
X47130300Y-125648900D02*
X47130300Y-61654700D01*
X47130300Y-61654700D02*
X64885000Y-43900000D01*
X51500000Y-130018600D02*
X47130300Y-125648900D01*
X51500000Y-132500000D02*
X51500000Y-130018600D01*
%TO.N,PWM_CH1*%
D16*
X73173300Y-123595700D02*
X69844500Y-120266900D01*
X93200000Y-26420000D02*
X95620000Y-24000000D01*
X69844500Y-120266900D02*
X69844500Y-56072700D01*
X93200000Y-56072700D02*
X93200000Y-26420000D01*
%TO.N,PWM_CH5*%
X48960000Y-131248300D02*
X45696600Y-127984900D01*
X48960000Y-132500000D02*
X48960000Y-131248300D01*
X45696600Y-127984900D02*
X45696600Y-38011100D01*
%TO.N,SDA*%
X24000000Y-70760000D02*
X24000000Y-68220000D01*
X24000000Y-73300000D02*
X24000000Y-70760000D01*
X13000000Y-66700000D02*
X13000000Y-71700000D01*
X24000000Y-68220000D02*
X24000000Y-65680000D01*
%TO.N,+3V3*%
D20*
X24000000Y-82760000D02*
X24000000Y-80220000D01*
X24000000Y-85300000D02*
X24000000Y-82760000D01*
X13000000Y-78700000D02*
X13000000Y-83700000D01*
X24000000Y-80220000D02*
X24000000Y-77680000D01*
%TO.N,PWM_CH0*%
D16*
X66686700Y-54284600D02*
X49220000Y-71751300D01*
X64855900Y-41323000D02*
X64856000Y-41323000D01*
X49220000Y-71751300D02*
X49220000Y-124300000D01*
X98160000Y-24000000D02*
X98160000Y-25251700D01*
X64856000Y-41323000D02*
X66686700Y-43153700D01*
X98160000Y-25251700D02*
X96596500Y-26815200D01*
X64855900Y-36402600D02*
X64855900Y-41323000D01*
X96596500Y-26815200D02*
X96596500Y-36402600D01*
X66686700Y-43153700D02*
X66686700Y-54284600D01*
%TO.N,PWM_CH11*%
X88986700Y-118922700D02*
X88986700Y-77153700D01*
X73234500Y-61401500D02*
X73234500Y-27775700D01*
X90082200Y-120018200D02*
X88986700Y-118922700D01*
X88986700Y-77153700D02*
X73234500Y-61401500D01*
%TO.N,PWM_CH2*%
X70612100Y-116440400D02*
X70612100Y-32248000D01*
X77220000Y-123048300D02*
X70612100Y-116440400D01*
X77220000Y-124300000D02*
X77220000Y-123048300D01*
%TO.N,SV3_PWR*%
D21*
X79760000Y-124300000D02*
X79760000Y-121990200D01*
X97496100Y-89788900D02*
X97496100Y-111371700D01*
X109385000Y-77900000D02*
X97496100Y-89788900D01*
X79760000Y-121990200D02*
X79005600Y-121235800D01*
%TO.N,+5V_LOGIC*%
D20*
X24000000Y-97300000D02*
X24000000Y-94760000D01*
X24000000Y-92220000D02*
X24000000Y-89680000D01*
X13000000Y-90700000D02*
X13000000Y-95700000D01*
X24000000Y-94760000D02*
X24000000Y-92220000D01*
%TO.N,GND_LOGIC*%
X24000000Y-109300000D02*
X24000000Y-106760000D01*
X24000000Y-104220000D02*
X24000000Y-101680000D01*
X13000000Y-102700000D02*
X13000000Y-107700000D01*
X24000000Y-106760000D02*
X24000000Y-104220000D01*
%TO.N,PWM_CH9*%
D16*
X71213800Y-111257900D02*
X84376800Y-124420900D01*
X71389900Y-74731200D02*
X71213800Y-74907300D01*
X70220000Y-24000000D02*
X71389900Y-25169900D01*
X71213800Y-74907300D02*
X71213800Y-111257900D01*
X71389900Y-25169900D02*
X71389900Y-74731200D01*
%TO.N,PWM_CH6*%
X62960000Y-131248300D02*
X64490000Y-129718300D01*
X63074700Y-102973500D02*
X63074700Y-83122600D01*
X67289900Y-37760900D02*
X64750000Y-35221000D01*
X64750000Y-35221000D02*
X64750000Y-28491200D01*
X64202600Y-108192600D02*
X64202600Y-104101400D01*
X63026100Y-116919100D02*
X63026100Y-109369100D01*
X62960000Y-132500000D02*
X62960000Y-131248300D01*
X64202600Y-104101400D02*
X63074700Y-102973500D01*
X63026100Y-109369100D02*
X64202600Y-108192600D01*
X64490000Y-129718300D02*
X64490000Y-118383000D01*
X63074700Y-83122600D02*
X67289900Y-78907400D01*
X64490000Y-118383000D02*
X63026100Y-116919100D01*
X67289900Y-78907400D02*
X67289900Y-37760900D01*
%TO.N,SV7_PWR*%
D19*
X57102500Y-68682500D02*
X57102500Y-124752000D01*
X64885000Y-60900000D02*
X57102500Y-68682500D01*
%TO.N,PWM_CH8*%
D16*
X72532800Y-24227200D02*
X72532800Y-75527500D01*
X90960000Y-126365300D02*
X90960000Y-132500000D01*
X72532800Y-75527500D02*
X71815500Y-76244800D01*
X71815500Y-107220800D02*
X90960000Y-126365300D01*
X71815500Y-76244800D02*
X71815500Y-107220800D01*
X72760000Y-24000000D02*
X72532800Y-24227200D01*
%TO.N,SV9_PWR*%
D17*
X93500000Y-132737700D02*
X93500000Y-132500000D01*
X73309400Y-126036000D02*
X73309400Y-131608500D01*
X67032100Y-119758700D02*
X73309400Y-126036000D01*
X64885000Y-94900000D02*
X67032100Y-97047100D01*
X73309400Y-131608500D02*
X76443200Y-134742300D01*
X76443200Y-134742300D02*
X91495400Y-134742300D01*
X91495400Y-134742300D02*
X93500000Y-132737700D01*
X67032100Y-97047100D02*
X67032100Y-119758700D01*
%TO.N,PWM_CH4*%
D16*
X98678900Y-95936500D02*
X98678900Y-117960300D01*
X86740400Y-22719600D02*
X91112400Y-22719600D01*
X91810000Y-23417200D02*
X91810000Y-57777000D01*
X111186700Y-77153700D02*
X111186700Y-83428700D01*
X85460000Y-24000000D02*
X86740400Y-22719600D01*
X91112400Y-22719600D02*
X91810000Y-23417200D01*
X91810000Y-57777000D02*
X111186700Y-77153700D01*
X111186700Y-83428700D02*
X98678900Y-95936500D01*
%TO.N,SV5_PWR*%
D17*
X109385000Y-122675000D02*
X109385000Y-111900000D01*
X107760000Y-124300000D02*
X109385000Y-122675000D01*
%TO.N,PWM_CH7*%
D16*
X77840000Y-24000000D02*
X76561900Y-22721900D01*
X76561900Y-22721900D02*
X67186700Y-22721900D01*
X66410000Y-23498600D02*
X66410000Y-34928800D01*
X67186700Y-22721900D02*
X66410000Y-23498600D01*
X66410000Y-34928800D02*
X69076900Y-37595700D01*
X76960000Y-128374600D02*
X76960000Y-132500000D01*
X69076900Y-37595700D02*
X69076900Y-120491500D01*
X69076900Y-120491500D02*
X76960000Y-128374600D01*
%TO.N,SV8_PWR*%
D21*
X64885000Y-77900000D02*
X59075600Y-83709400D01*
X59075600Y-83709400D02*
X59075600Y-127752700D01*
%TO.N,SCL*%
D16*
X24000000Y-56220000D02*
X24000000Y-53680000D01*
X13000000Y-54700000D02*
X13000000Y-59700000D01*
X24000000Y-58760000D02*
X24000000Y-56220000D01*
X24000000Y-61300000D02*
X24000000Y-58760000D01*
%TO.N,+5V_SERVO*%
D21*
X61159800Y-108625700D02*
X63003000Y-106782500D01*
X54753000Y-134482000D02*
X61159800Y-128075200D01*
X87185000Y-111900000D02*
X87185000Y-94900000D01*
X47854100Y-134482000D02*
X54753000Y-134482000D01*
X42685000Y-129312900D02*
X47854100Y-134482000D01*
X130900000Y-78000000D02*
X130900000Y-83000000D01*
X61159800Y-128075200D02*
X61159800Y-108625700D01*
X42685000Y-111900000D02*
X42685000Y-94900000D01*
X42685000Y-111900000D02*
X42685000Y-129312900D01*
%TO.N,+7V4*%
D19*
X130900000Y-66000000D02*
X130900000Y-71000000D01*
X73217200Y-76990700D02*
X86275700Y-76990700D01*
X86275700Y-76990700D02*
X87185000Y-77900000D01*
%TD*%
%TA.AperFunction,Conductor*%
%TO.N,+12V*%
G36*
X120357580Y-118642553D02*
G01*
X120390544Y-118675517D01*
X120509895Y-118839790D01*
X120509897Y-118839793D01*
X120660206Y-118990102D01*
X120660214Y-118990109D01*
X120716852Y-119031258D01*
X120778080Y-119075742D01*
X120826618Y-119135680D01*
X120839500Y-119196285D01*
X120839500Y-119263713D01*
X120819538Y-119338213D01*
X120778080Y-119384256D01*
X120660217Y-119469888D01*
X120660206Y-119469897D01*
X120509897Y-119620206D01*
X120509895Y-119620209D01*
X120384950Y-119792181D01*
X120384950Y-119792182D01*
X120382715Y-119796569D01*
X120331106Y-119853886D01*
X120257752Y-119877720D01*
X120226647Y-119876090D01*
X120194660Y-119871023D01*
X119565685Y-120499999D01*
X119565685Y-120500000D01*
X120194659Y-121128974D01*
X120226644Y-121123909D01*
X120303350Y-121131970D01*
X120365748Y-121177305D01*
X120382714Y-121203429D01*
X120384950Y-121207817D01*
X120384950Y-121207818D01*
X120410981Y-121243646D01*
X120509896Y-121379792D01*
X120660208Y-121530104D01*
X120832184Y-121655051D01*
X121021588Y-121751557D01*
X121223757Y-121817246D01*
X121433713Y-121850500D01*
X121433718Y-121850500D01*
X121646282Y-121850500D01*
X121646287Y-121850500D01*
X121856243Y-121817246D01*
X122058412Y-121751557D01*
X122247816Y-121655051D01*
X122419792Y-121530104D01*
X122570104Y-121379792D01*
X122689456Y-121215517D01*
X122749396Y-121166979D01*
X122825574Y-121154913D01*
X122897580Y-121182553D01*
X122930544Y-121215517D01*
X123049896Y-121379792D01*
X123200208Y-121530104D01*
X123372184Y-121655051D01*
X123561588Y-121751557D01*
X123763757Y-121817246D01*
X123973713Y-121850500D01*
X123973718Y-121850500D01*
X124186288Y-121850500D01*
X124340221Y-121826119D01*
X124391115Y-121818058D01*
X124467820Y-121826119D01*
X124530218Y-121871454D01*
X124561589Y-121941914D01*
X124553528Y-122018619D01*
X124519783Y-122070582D01*
X121762359Y-124828007D01*
X121695564Y-124866571D01*
X121618436Y-124866571D01*
X121551641Y-124828007D01*
X118827993Y-122104359D01*
X118789429Y-122037564D01*
X118789429Y-121960436D01*
X118827993Y-121893641D01*
X118894788Y-121855077D01*
X118933352Y-121850000D01*
X119106242Y-121850000D01*
X119316128Y-121816757D01*
X119518212Y-121751096D01*
X119518222Y-121751092D01*
X119628974Y-121694660D01*
X118934314Y-121000000D01*
X119065826Y-121000000D01*
X119192993Y-120965925D01*
X119307007Y-120900099D01*
X119400099Y-120807007D01*
X119465925Y-120692993D01*
X119500000Y-120565826D01*
X119500000Y-120434174D01*
X119465925Y-120307007D01*
X119400099Y-120192993D01*
X119307007Y-120099901D01*
X119192993Y-120034075D01*
X119065826Y-120000000D01*
X118934174Y-120000000D01*
X118807007Y-120034075D01*
X118692993Y-120099901D01*
X118599901Y-120192993D01*
X118534075Y-120307007D01*
X118500000Y-120434174D01*
X118500000Y-120565685D01*
X117854140Y-119919825D01*
X117815576Y-119853030D01*
X117810499Y-119814466D01*
X117810499Y-119602136D01*
X117810499Y-119602128D01*
X117804091Y-119542517D01*
X117777002Y-119469888D01*
X117753797Y-119407670D01*
X117753795Y-119407666D01*
X117667547Y-119292455D01*
X117667544Y-119292452D01*
X117552333Y-119206204D01*
X117552329Y-119206202D01*
X117457366Y-119170784D01*
X117394539Y-119126046D01*
X117362498Y-119055888D01*
X117369829Y-118979109D01*
X117404077Y-118925819D01*
X117490096Y-118839800D01*
X117490104Y-118839792D01*
X117609456Y-118675517D01*
X117669396Y-118626979D01*
X117745574Y-118614913D01*
X117817580Y-118642553D01*
X117850544Y-118675517D01*
X117969896Y-118839792D01*
X118120208Y-118990104D01*
X118292184Y-119115051D01*
X118296569Y-119117285D01*
X118353886Y-119168894D01*
X118377720Y-119242248D01*
X118376090Y-119273353D01*
X118371024Y-119305338D01*
X118999999Y-119934314D01*
X119628974Y-119305339D01*
X119623909Y-119273355D01*
X119631970Y-119196649D01*
X119677305Y-119134251D01*
X119703435Y-119117283D01*
X119707816Y-119115051D01*
X119879792Y-118990104D01*
X120030104Y-118839792D01*
X120149456Y-118675517D01*
X120209396Y-118626979D01*
X120285574Y-118614913D01*
X120357580Y-118642553D01*
G37*
%TD.AperFunction*%
%TA.AperFunction,Conductor*%
G36*
X140487501Y-4504465D02*
G01*
X140647271Y-4544485D01*
X140661264Y-4548730D01*
X141174074Y-4732216D01*
X141187572Y-4737807D01*
X141679959Y-4970688D01*
X141692818Y-4977562D01*
X142159997Y-5257579D01*
X142172141Y-5265694D01*
X142343989Y-5393145D01*
X142609610Y-5590143D01*
X142620913Y-5599419D01*
X142801395Y-5762997D01*
X143024484Y-5965193D01*
X143034804Y-5975513D01*
X143217696Y-6177303D01*
X143400578Y-6379084D01*
X143409854Y-6390387D01*
X143734299Y-6827850D01*
X143742423Y-6840008D01*
X144022428Y-7307168D01*
X144029320Y-7320063D01*
X144262185Y-7812415D01*
X144267781Y-7825924D01*
X144451268Y-8338733D01*
X144455513Y-8352726D01*
X144495535Y-8512503D01*
X144500000Y-8548707D01*
X144500000Y-148451289D01*
X144495535Y-148487494D01*
X144455512Y-148647272D01*
X144451267Y-148661264D01*
X144267781Y-149174073D01*
X144262185Y-149187582D01*
X144029320Y-149679934D01*
X144022428Y-149692829D01*
X143742423Y-150159989D01*
X143734299Y-150172147D01*
X143409854Y-150609610D01*
X143400578Y-150620913D01*
X143034814Y-151024474D01*
X143024474Y-151034814D01*
X142620913Y-151400578D01*
X142609610Y-151409854D01*
X142172147Y-151734299D01*
X142159990Y-151742422D01*
X141692833Y-152022427D01*
X141679943Y-152029317D01*
X141433759Y-152145753D01*
X141187582Y-152262186D01*
X141174074Y-152267781D01*
X140661264Y-152451267D01*
X140647272Y-152455512D01*
X140487494Y-152495535D01*
X140451289Y-152500000D01*
X75149000Y-152500000D01*
X75074500Y-152480038D01*
X75019962Y-152425500D01*
X75000000Y-152351000D01*
X75000000Y-140378706D01*
X97449500Y-140378706D01*
X97449500Y-140621293D01*
X97481160Y-140861781D01*
X97481161Y-140861787D01*
X97481162Y-140861789D01*
X97543946Y-141096100D01*
X97636776Y-141320212D01*
X97758064Y-141530289D01*
X97905735Y-141722738D01*
X98077262Y-141894265D01*
X98269711Y-142041936D01*
X98479788Y-142163224D01*
X98703900Y-142256054D01*
X98938211Y-142318838D01*
X98938217Y-142318838D01*
X98938218Y-142318839D01*
X99003600Y-142327446D01*
X99178712Y-142350500D01*
X99421288Y-142350500D01*
X99661789Y-142318838D01*
X99896100Y-142256054D01*
X100120212Y-142163224D01*
X100330289Y-142041936D01*
X100522738Y-141894265D01*
X100694265Y-141722738D01*
X100841936Y-141530289D01*
X100963224Y-141320212D01*
X101056054Y-141096100D01*
X101118838Y-140861789D01*
X101150500Y-140621288D01*
X101150500Y-140378712D01*
X101118838Y-140138211D01*
X101056054Y-139903900D01*
X100963224Y-139679788D01*
X100841936Y-139469711D01*
X100694265Y-139277262D01*
X100522738Y-139105735D01*
X100330289Y-138958064D01*
X100260263Y-138917634D01*
X100120216Y-138836778D01*
X100120214Y-138836777D01*
X100120212Y-138836776D01*
X99988932Y-138782398D01*
X99896103Y-138743947D01*
X99896101Y-138743946D01*
X99896100Y-138743946D01*
X99661789Y-138681162D01*
X99661787Y-138681161D01*
X99661781Y-138681160D01*
X99421293Y-138649500D01*
X99421288Y-138649500D01*
X99178712Y-138649500D01*
X99178706Y-138649500D01*
X98938218Y-138681160D01*
X98703896Y-138743947D01*
X98479783Y-138836778D01*
X98269712Y-138958063D01*
X98269711Y-138958064D01*
X98077262Y-139105735D01*
X98077260Y-139105736D01*
X98077256Y-139105740D01*
X97905740Y-139277256D01*
X97758063Y-139469712D01*
X97636778Y-139679783D01*
X97543947Y-139903896D01*
X97481160Y-140138218D01*
X97449500Y-140378706D01*
X75000000Y-140378706D01*
X75000000Y-135073738D01*
X75019962Y-134999238D01*
X75074500Y-134944700D01*
X75149000Y-134924738D01*
X75223500Y-134944700D01*
X75254355Y-134968376D01*
X75666060Y-135380081D01*
X75666061Y-135380082D01*
X75805418Y-135519439D01*
X75913924Y-135591940D01*
X75969281Y-135628929D01*
X75969283Y-135628930D01*
X75969286Y-135628932D01*
X76075945Y-135673111D01*
X76151364Y-135704351D01*
X76344659Y-135742800D01*
X91593937Y-135742800D01*
X91593940Y-135742800D01*
X91593941Y-135742800D01*
X91690588Y-135723575D01*
X91787236Y-135704351D01*
X91840565Y-135682261D01*
X91969314Y-135628932D01*
X92133182Y-135519439D01*
X92272539Y-135380082D01*
X92272539Y-135380080D01*
X92284801Y-135367819D01*
X92284804Y-135367814D01*
X93819290Y-133833329D01*
X93878600Y-133796984D01*
X94018412Y-133751557D01*
X94207816Y-133655051D01*
X94224454Y-133642963D01*
X94296459Y-133615321D01*
X94372638Y-133627386D01*
X94430245Y-133672799D01*
X94544615Y-133821847D01*
X94544616Y-133821849D01*
X94730051Y-134007284D01*
X94938093Y-134166921D01*
X94938097Y-134166924D01*
X95165203Y-134298043D01*
X95369709Y-134382752D01*
X95407483Y-134398399D01*
X95495232Y-134421910D01*
X95660784Y-134466270D01*
X95660790Y-134466270D01*
X95660791Y-134466271D01*
X95697734Y-134471134D01*
X95920777Y-134500499D01*
X95920778Y-134500500D01*
X95920780Y-134500500D01*
X96431122Y-134500500D01*
X96431122Y-134500499D01*
X96691108Y-134466271D01*
X96691110Y-134466271D01*
X96691111Y-134466270D01*
X96691116Y-134466270D01*
X96944415Y-134398399D01*
X96944416Y-134398399D01*
X96944417Y-134398398D01*
X96944419Y-134398398D01*
X97186697Y-134298043D01*
X97413803Y-134166924D01*
X97621848Y-134007284D01*
X97621849Y-134007284D01*
X97807284Y-133821849D01*
X97807284Y-133821848D01*
X97810816Y-133817246D01*
X97956501Y-133627386D01*
X97966921Y-133613807D01*
X97966921Y-133613806D01*
X97966924Y-133613803D01*
X98098043Y-133386697D01*
X98198398Y-133144419D01*
X98266270Y-132891116D01*
X98300500Y-132631120D01*
X98300500Y-132368880D01*
X98266270Y-132108884D01*
X98198398Y-131855581D01*
X98098043Y-131613303D01*
X97966924Y-131386197D01*
X97966921Y-131386193D01*
X97966921Y-131386192D01*
X97807284Y-131178151D01*
X97694041Y-131064908D01*
X97655477Y-130998113D01*
X97650400Y-130959549D01*
X97650400Y-124413414D01*
X97650500Y-124410869D01*
X97650500Y-124193717D01*
X97650500Y-124193713D01*
X97617246Y-123983757D01*
X97551557Y-123781588D01*
X97455051Y-123592184D01*
X97330104Y-123420208D01*
X97179792Y-123269896D01*
X97007816Y-123144949D01*
X96818412Y-123048443D01*
X96779513Y-123035804D01*
X96753837Y-123027461D01*
X96689152Y-122985453D01*
X96654138Y-122916731D01*
X96658175Y-122839709D01*
X96694521Y-122780397D01*
X107268248Y-112206671D01*
X107335041Y-112168109D01*
X107412169Y-112168109D01*
X107478964Y-112206673D01*
X107517527Y-112273467D01*
X107562478Y-112441225D01*
X107581499Y-112512210D01*
X107589110Y-112530584D01*
X107676836Y-112742373D01*
X107801401Y-112958127D01*
X107953062Y-113155776D01*
X108129224Y-113331938D01*
X108326207Y-113483088D01*
X108373158Y-113544275D01*
X108384500Y-113601295D01*
X108384500Y-122198862D01*
X108364538Y-122273362D01*
X108340859Y-122304221D01*
X107737691Y-122907388D01*
X107670896Y-122945952D01*
X107655641Y-122949195D01*
X107653715Y-122949500D01*
X107653713Y-122949500D01*
X107530539Y-122969009D01*
X107443756Y-122982754D01*
X107241594Y-123048441D01*
X107241588Y-123048443D01*
X107241582Y-123048445D01*
X107241582Y-123048446D01*
X107052182Y-123144950D01*
X107052181Y-123144950D01*
X106880209Y-123269895D01*
X106880198Y-123269904D01*
X106794179Y-123355923D01*
X106727384Y-123394487D01*
X106650256Y-123394487D01*
X106583462Y-123355922D01*
X106549215Y-123302633D01*
X106537008Y-123269904D01*
X106513796Y-123207669D01*
X106513795Y-123207668D01*
X106513795Y-123207666D01*
X106427547Y-123092455D01*
X106427544Y-123092452D01*
X106312333Y-123006204D01*
X106312329Y-123006202D01*
X106177482Y-122955908D01*
X106117876Y-122949500D01*
X104322136Y-122949500D01*
X104322111Y-122949502D01*
X104262521Y-122955908D01*
X104262515Y-122955909D01*
X104127670Y-123006202D01*
X104127666Y-123006204D01*
X104012455Y-123092452D01*
X104012452Y-123092455D01*
X103926204Y-123207666D01*
X103926202Y-123207670D01*
X103875908Y-123342517D01*
X103869500Y-123402114D01*
X103869500Y-125197863D01*
X103869502Y-125197888D01*
X103875908Y-125257478D01*
X103875909Y-125257484D01*
X103926202Y-125392329D01*
X103926204Y-125392333D01*
X104012452Y-125507544D01*
X104012455Y-125507547D01*
X104127666Y-125593795D01*
X104127670Y-125593797D01*
X104262517Y-125644091D01*
X104322114Y-125650499D01*
X104322118Y-125650499D01*
X104322127Y-125650500D01*
X106117872Y-125650499D01*
X106177483Y-125644091D01*
X106273447Y-125608298D01*
X106312329Y-125593797D01*
X106312333Y-125593795D01*
X106369938Y-125550671D01*
X106427546Y-125507546D01*
X106470671Y-125449938D01*
X106513795Y-125392333D01*
X106513798Y-125392327D01*
X106549215Y-125297367D01*
X106593953Y-125234540D01*
X106664110Y-125202498D01*
X106740889Y-125209829D01*
X106794180Y-125244076D01*
X106880208Y-125330104D01*
X107052184Y-125455051D01*
X107241588Y-125551557D01*
X107443757Y-125617246D01*
X107653713Y-125650500D01*
X107653718Y-125650500D01*
X107866282Y-125650500D01*
X107866287Y-125650500D01*
X108076243Y-125617246D01*
X108278412Y-125551557D01*
X108467816Y-125455051D01*
X108596020Y-125361906D01*
X108668025Y-125334265D01*
X108744203Y-125346331D01*
X108804143Y-125394869D01*
X108831784Y-125466874D01*
X108832600Y-125482449D01*
X108832600Y-130941635D01*
X108812638Y-131016135D01*
X108776459Y-131078798D01*
X108676104Y-131321072D01*
X108676103Y-131321076D01*
X108669706Y-131344950D01*
X108652901Y-131407670D01*
X108648831Y-131422858D01*
X108610267Y-131489653D01*
X108543472Y-131528217D01*
X108466344Y-131528217D01*
X108399549Y-131489653D01*
X108379793Y-131469897D01*
X108379792Y-131469896D01*
X108207816Y-131344949D01*
X108018412Y-131248443D01*
X107816243Y-131182754D01*
X107606287Y-131149500D01*
X107393713Y-131149500D01*
X107218749Y-131177211D01*
X107183756Y-131182754D01*
X106981594Y-131248441D01*
X106981588Y-131248443D01*
X106981582Y-131248445D01*
X106981582Y-131248446D01*
X106792182Y-131344950D01*
X106792181Y-131344950D01*
X106620209Y-131469895D01*
X106620198Y-131469904D01*
X106534179Y-131555923D01*
X106467384Y-131594487D01*
X106390256Y-131594487D01*
X106323462Y-131555922D01*
X106289215Y-131502633D01*
X106277008Y-131469904D01*
X106253796Y-131407669D01*
X106253795Y-131407668D01*
X106253795Y-131407666D01*
X106167547Y-131292455D01*
X106167544Y-131292452D01*
X106052333Y-131206204D01*
X106052329Y-131206202D01*
X105917482Y-131155908D01*
X105857876Y-131149500D01*
X104062136Y-131149500D01*
X104062111Y-131149502D01*
X104002521Y-131155908D01*
X104002515Y-131155909D01*
X103867670Y-131206202D01*
X103867666Y-131206204D01*
X103752455Y-131292452D01*
X103752452Y-131292455D01*
X103666204Y-131407666D01*
X103666202Y-131407670D01*
X103615908Y-131542517D01*
X103609500Y-131602114D01*
X103609500Y-133397863D01*
X103609502Y-133397888D01*
X103615908Y-133457478D01*
X103615909Y-133457484D01*
X103666202Y-133592329D01*
X103666204Y-133592333D01*
X103752452Y-133707544D01*
X103752455Y-133707547D01*
X103867666Y-133793795D01*
X103867670Y-133793797D01*
X104002517Y-133844091D01*
X104062114Y-133850499D01*
X104062118Y-133850499D01*
X104062127Y-133850500D01*
X105857872Y-133850499D01*
X105917483Y-133844091D01*
X106043789Y-133796982D01*
X106052329Y-133793797D01*
X106052333Y-133793795D01*
X106109938Y-133750671D01*
X106167546Y-133707546D01*
X106215893Y-133642963D01*
X106253795Y-133592333D01*
X106253798Y-133592327D01*
X106289215Y-133497367D01*
X106333953Y-133434540D01*
X106404110Y-133402498D01*
X106480889Y-133409829D01*
X106534180Y-133444076D01*
X106620208Y-133530104D01*
X106792184Y-133655051D01*
X106981588Y-133751557D01*
X107183757Y-133817246D01*
X107393713Y-133850500D01*
X107393718Y-133850500D01*
X107606282Y-133850500D01*
X107606287Y-133850500D01*
X107816243Y-133817246D01*
X108018412Y-133751557D01*
X108207816Y-133655051D01*
X108379792Y-133530104D01*
X108530104Y-133379792D01*
X108649456Y-133215517D01*
X108709396Y-133166979D01*
X108785574Y-133154913D01*
X108857580Y-133182553D01*
X108890544Y-133215517D01*
X109009896Y-133379792D01*
X109160208Y-133530104D01*
X109332184Y-133655051D01*
X109521588Y-133751557D01*
X109723757Y-133817246D01*
X109858047Y-133838515D01*
X109891751Y-133848020D01*
X109930081Y-133863898D01*
X110183384Y-133931771D01*
X110183390Y-133931771D01*
X110183391Y-133931772D01*
X110254079Y-133941077D01*
X110443380Y-133965999D01*
X110705620Y-133965999D01*
X110965616Y-133931771D01*
X111218919Y-133863898D01*
X111218925Y-133863895D01*
X111218927Y-133863895D01*
X111292714Y-133833331D01*
X111461197Y-133763543D01*
X111688302Y-133632424D01*
X111896351Y-133472783D01*
X112340383Y-133028751D01*
X112445994Y-132891116D01*
X112500024Y-132820703D01*
X112631143Y-132593597D01*
X112731498Y-132351319D01*
X112769856Y-132208165D01*
X112799371Y-132098015D01*
X112817467Y-131960560D01*
X112833600Y-131838020D01*
X112833600Y-124701980D01*
X112799370Y-124441984D01*
X112756342Y-124281402D01*
X112731499Y-124188684D01*
X112731499Y-124188683D01*
X112683757Y-124073425D01*
X112631143Y-123946403D01*
X112500024Y-123719297D01*
X112500021Y-123719293D01*
X112500021Y-123719292D01*
X112340384Y-123511251D01*
X112154948Y-123325815D01*
X111946906Y-123166178D01*
X111910136Y-123144949D01*
X111819209Y-123092452D01*
X111719801Y-123035059D01*
X111719799Y-123035058D01*
X111719797Y-123035057D01*
X111642477Y-123003030D01*
X111477516Y-122934700D01*
X111251355Y-122874102D01*
X111224216Y-122866830D01*
X111224214Y-122866829D01*
X111224208Y-122866828D01*
X110964223Y-122832600D01*
X110964220Y-122832600D01*
X110701980Y-122832600D01*
X110701974Y-122832600D01*
X110553948Y-122852088D01*
X110477480Y-122842021D01*
X110416290Y-122795068D01*
X110386775Y-122723811D01*
X110385500Y-122704363D01*
X110385500Y-113601295D01*
X110405462Y-113526795D01*
X110443791Y-113483089D01*
X110640776Y-113331938D01*
X110816938Y-113155776D01*
X110968599Y-112958127D01*
X111093164Y-112742373D01*
X111188502Y-112512207D01*
X111252982Y-112271565D01*
X111285500Y-112024565D01*
X111285500Y-111775435D01*
X111252982Y-111528435D01*
X111188502Y-111287793D01*
X111093164Y-111057627D01*
X110968599Y-110841873D01*
X110816938Y-110644224D01*
X110640776Y-110468062D01*
X110443127Y-110316401D01*
X110371209Y-110274879D01*
X110227377Y-110191838D01*
X110227375Y-110191837D01*
X110227373Y-110191836D01*
X110092548Y-110135989D01*
X109997210Y-110096499D01*
X109997208Y-110096498D01*
X109997207Y-110096498D01*
X109758467Y-110032527D01*
X109691673Y-109993964D01*
X109653109Y-109927169D01*
X109653109Y-109850041D01*
X109691672Y-109783247D01*
X110014288Y-109460630D01*
X110014295Y-109460625D01*
X110022780Y-109452140D01*
X110022782Y-109452139D01*
X110162139Y-109312782D01*
X110271632Y-109148914D01*
X110347051Y-108966835D01*
X110347164Y-108966270D01*
X110385500Y-108773540D01*
X110385500Y-108576460D01*
X110385500Y-96601295D01*
X110405462Y-96526795D01*
X110443791Y-96483089D01*
X110640776Y-96331938D01*
X110816938Y-96155776D01*
X110968599Y-95958127D01*
X111093164Y-95742373D01*
X111188502Y-95512207D01*
X111252982Y-95271565D01*
X111285500Y-95024565D01*
X111285500Y-94775435D01*
X111252982Y-94528435D01*
X111188502Y-94287793D01*
X111093164Y-94057627D01*
X110968599Y-93841873D01*
X110816938Y-93644224D01*
X110640776Y-93468062D01*
X110443127Y-93316401D01*
X110262700Y-93212232D01*
X110227377Y-93191838D01*
X110227375Y-93191837D01*
X110227373Y-93191836D01*
X110092548Y-93135989D01*
X109997210Y-93096499D01*
X109997208Y-93096498D01*
X109997207Y-93096498D01*
X109756565Y-93032018D01*
X109756563Y-93032017D01*
X109756557Y-93032016D01*
X109509570Y-92999500D01*
X109509565Y-92999500D01*
X109260435Y-92999500D01*
X109260429Y-92999500D01*
X109013442Y-93032016D01*
X108772789Y-93096499D01*
X108542622Y-93191838D01*
X108326874Y-93316400D01*
X108129222Y-93468063D01*
X107953063Y-93644222D01*
X107801400Y-93841874D01*
X107676838Y-94057622D01*
X107581499Y-94287789D01*
X107517016Y-94528442D01*
X107484500Y-94775429D01*
X107484500Y-95024570D01*
X107517016Y-95271557D01*
X107517017Y-95271563D01*
X107517018Y-95271565D01*
X107581498Y-95512207D01*
X107676836Y-95742373D01*
X107801401Y-95958127D01*
X107953062Y-96155776D01*
X108129224Y-96331938D01*
X108326207Y-96483088D01*
X108373158Y-96544275D01*
X108384500Y-96601295D01*
X108384500Y-108198862D01*
X108364538Y-108273362D01*
X108340859Y-108304221D01*
X99633759Y-117011321D01*
X99566964Y-117049885D01*
X99489836Y-117049885D01*
X99423041Y-117011321D01*
X99384477Y-116944526D01*
X99379400Y-116905962D01*
X99379400Y-96288374D01*
X99399362Y-96213874D01*
X99423041Y-96183015D01*
X105342824Y-90263232D01*
X111730813Y-83875243D01*
X111807474Y-83760512D01*
X111807475Y-83760511D01*
X111860280Y-83633028D01*
X111887200Y-83497693D01*
X111887200Y-77084707D01*
X111881813Y-77057627D01*
X111860280Y-76949372D01*
X111842678Y-76906877D01*
X111807479Y-76821897D01*
X111807476Y-76821893D01*
X111807475Y-76821889D01*
X111730814Y-76707157D01*
X95799086Y-60775429D01*
X107484500Y-60775429D01*
X107484500Y-61024570D01*
X107517016Y-61271557D01*
X107517017Y-61271563D01*
X107517018Y-61271565D01*
X107581498Y-61512207D01*
X107676836Y-61742373D01*
X107801401Y-61958127D01*
X107953062Y-62155776D01*
X108129224Y-62331938D01*
X108326873Y-62483599D01*
X108542627Y-62608164D01*
X108772793Y-62703502D01*
X109013435Y-62767982D01*
X109013441Y-62767982D01*
X109013442Y-62767983D01*
X109080586Y-62776822D01*
X109260435Y-62800500D01*
X109509565Y-62800500D01*
X109756565Y-62767982D01*
X109997207Y-62703502D01*
X110227373Y-62608164D01*
X110443127Y-62483599D01*
X110640776Y-62331938D01*
X110816938Y-62155776D01*
X110968599Y-61958127D01*
X111093164Y-61742373D01*
X111188502Y-61512207D01*
X111252982Y-61271565D01*
X111285500Y-61024565D01*
X111285500Y-60775435D01*
X111252982Y-60528435D01*
X111188502Y-60287793D01*
X111093164Y-60057627D01*
X110968599Y-59841873D01*
X110816938Y-59644224D01*
X110640776Y-59468062D01*
X110443127Y-59316401D01*
X110371209Y-59274879D01*
X110227377Y-59191838D01*
X110227375Y-59191837D01*
X110227373Y-59191836D01*
X109998354Y-59096973D01*
X109997210Y-59096499D01*
X109997208Y-59096498D01*
X109997207Y-59096498D01*
X109756565Y-59032018D01*
X109756563Y-59032017D01*
X109756557Y-59032016D01*
X109509570Y-58999500D01*
X109509565Y-58999500D01*
X109260435Y-58999500D01*
X109260429Y-58999500D01*
X109013442Y-59032016D01*
X108772789Y-59096499D01*
X108542622Y-59191838D01*
X108326874Y-59316400D01*
X108129222Y-59468063D01*
X107953063Y-59644222D01*
X107801400Y-59841874D01*
X107676838Y-60057622D01*
X107581499Y-60287789D01*
X107517016Y-60528442D01*
X107484500Y-60775429D01*
X95799086Y-60775429D01*
X92554141Y-57530484D01*
X92515577Y-57463689D01*
X92510500Y-57425125D01*
X92510500Y-56853503D01*
X92530462Y-56779003D01*
X92585000Y-56724465D01*
X92659500Y-56704503D01*
X92734000Y-56724465D01*
X92742281Y-56729615D01*
X92820816Y-56782091D01*
X92820818Y-56782092D01*
X92820821Y-56782094D01*
X92966503Y-56842437D01*
X93121158Y-56873200D01*
X93278842Y-56873200D01*
X93433497Y-56842437D01*
X93579179Y-56782094D01*
X93710289Y-56694489D01*
X93821789Y-56582989D01*
X93909394Y-56451879D01*
X93969737Y-56306197D01*
X94000500Y-56151542D01*
X94000500Y-55993858D01*
X93969737Y-55839203D01*
X93911842Y-55699430D01*
X93900500Y-55642411D01*
X93900500Y-43775429D01*
X107484500Y-43775429D01*
X107484500Y-44024570D01*
X107517016Y-44271557D01*
X107517017Y-44271563D01*
X107517018Y-44271565D01*
X107581498Y-44512207D01*
X107676836Y-44742373D01*
X107801401Y-44958127D01*
X107953062Y-45155776D01*
X108129224Y-45331938D01*
X108326873Y-45483599D01*
X108542627Y-45608164D01*
X108772793Y-45703502D01*
X109013435Y-45767982D01*
X109013441Y-45767982D01*
X109013442Y-45767983D01*
X109080586Y-45776822D01*
X109260435Y-45800500D01*
X109509565Y-45800500D01*
X109756565Y-45767982D01*
X109997207Y-45703502D01*
X110227373Y-45608164D01*
X110443127Y-45483599D01*
X110640776Y-45331938D01*
X110816938Y-45155776D01*
X110968599Y-44958127D01*
X111093164Y-44742373D01*
X111188502Y-44512207D01*
X111252982Y-44271565D01*
X111285500Y-44024565D01*
X111285500Y-43775435D01*
X111252982Y-43528435D01*
X111188502Y-43287793D01*
X111093164Y-43057627D01*
X110968599Y-42841873D01*
X110816938Y-42644224D01*
X110640776Y-42468062D01*
X110443127Y-42316401D01*
X110371209Y-42274879D01*
X110227377Y-42191838D01*
X110227375Y-42191837D01*
X110227373Y-42191836D01*
X110092548Y-42135989D01*
X109997210Y-42096499D01*
X109997208Y-42096498D01*
X109997207Y-42096498D01*
X109756565Y-42032018D01*
X109756563Y-42032017D01*
X109756557Y-42032016D01*
X109509570Y-41999500D01*
X109509565Y-41999500D01*
X109260435Y-41999500D01*
X109260429Y-41999500D01*
X109013442Y-42032016D01*
X108772789Y-42096499D01*
X108542622Y-42191838D01*
X108326874Y-42316400D01*
X108129222Y-42468063D01*
X107953063Y-42644222D01*
X107801400Y-42841874D01*
X107676838Y-43057622D01*
X107581499Y-43287789D01*
X107517016Y-43528442D01*
X107484500Y-43775429D01*
X93900500Y-43775429D01*
X93900500Y-26771874D01*
X93920462Y-26697374D01*
X93944137Y-26666519D01*
X95241143Y-25369512D01*
X95307936Y-25330950D01*
X95369805Y-25327707D01*
X95513713Y-25350500D01*
X95513718Y-25350500D01*
X95726282Y-25350500D01*
X95726287Y-25350500D01*
X95936243Y-25317246D01*
X96138412Y-25251557D01*
X96327816Y-25155051D01*
X96499792Y-25030104D01*
X96585819Y-24944077D01*
X96652613Y-24905512D01*
X96729741Y-24905512D01*
X96796536Y-24944076D01*
X96830784Y-24997366D01*
X96866202Y-25092329D01*
X96866204Y-25092333D01*
X96952452Y-25207544D01*
X96952453Y-25207544D01*
X96952454Y-25207546D01*
X96964083Y-25216251D01*
X97011760Y-25276877D01*
X97022737Y-25353220D01*
X96994073Y-25424823D01*
X96980150Y-25440891D01*
X96052389Y-26368653D01*
X96052385Y-26368658D01*
X95975728Y-26483384D01*
X95975720Y-26483397D01*
X95922921Y-26610868D01*
X95922919Y-26610873D01*
X95906252Y-26694668D01*
X95896000Y-26746203D01*
X95896000Y-35972311D01*
X95884658Y-36029330D01*
X95826763Y-36169101D01*
X95826762Y-36169105D01*
X95796000Y-36323757D01*
X95796000Y-36481442D01*
X95826762Y-36636094D01*
X95826763Y-36636098D01*
X95887104Y-36781776D01*
X95887105Y-36781778D01*
X95887106Y-36781779D01*
X95974711Y-36912889D01*
X96086211Y-37024389D01*
X96217321Y-37111994D01*
X96363003Y-37172337D01*
X96517658Y-37203100D01*
X96675342Y-37203100D01*
X96829997Y-37172337D01*
X96975679Y-37111994D01*
X97106789Y-37024389D01*
X97218289Y-36912889D01*
X97305894Y-36781779D01*
X97366237Y-36636097D01*
X97397000Y-36481442D01*
X97397000Y-36323758D01*
X97366237Y-36169103D01*
X97308342Y-36029330D01*
X97297000Y-35972311D01*
X97297000Y-31478706D01*
X97949500Y-31478706D01*
X97949500Y-31721293D01*
X97981160Y-31961781D01*
X97981161Y-31961787D01*
X97981162Y-31961789D01*
X98043946Y-32196100D01*
X98136776Y-32420212D01*
X98258064Y-32630289D01*
X98405735Y-32822738D01*
X98577262Y-32994265D01*
X98769711Y-33141936D01*
X98979788Y-33263224D01*
X99203900Y-33356054D01*
X99438211Y-33418838D01*
X99438217Y-33418838D01*
X99438218Y-33418839D01*
X99503600Y-33427446D01*
X99678712Y-33450500D01*
X99921288Y-33450500D01*
X100161789Y-33418838D01*
X100396100Y-33356054D01*
X100620212Y-33263224D01*
X100830289Y-33141936D01*
X101022738Y-32994265D01*
X101194265Y-32822738D01*
X101341936Y-32630289D01*
X101463224Y-32420212D01*
X101556054Y-32196100D01*
X101618838Y-31961789D01*
X101650500Y-31721288D01*
X101650500Y-31478712D01*
X101618838Y-31238211D01*
X101556054Y-31003900D01*
X101463224Y-30779788D01*
X101341936Y-30569711D01*
X101194265Y-30377262D01*
X101022738Y-30205735D01*
X100830289Y-30058064D01*
X100760263Y-30017634D01*
X100620216Y-29936778D01*
X100620214Y-29936777D01*
X100620212Y-29936776D01*
X100488932Y-29882398D01*
X100396103Y-29843947D01*
X100396101Y-29843946D01*
X100396100Y-29843946D01*
X100161789Y-29781162D01*
X100161787Y-29781161D01*
X100161781Y-29781160D01*
X99921293Y-29749500D01*
X99921288Y-29749500D01*
X99678712Y-29749500D01*
X99678706Y-29749500D01*
X99438218Y-29781160D01*
X99203896Y-29843947D01*
X98979783Y-29936778D01*
X98769712Y-30058063D01*
X98769711Y-30058064D01*
X98577262Y-30205735D01*
X98577260Y-30205736D01*
X98577256Y-30205740D01*
X98405740Y-30377256D01*
X98258063Y-30569712D01*
X98136778Y-30779783D01*
X98043947Y-31003896D01*
X97981160Y-31238218D01*
X97949500Y-31478706D01*
X97297000Y-31478706D01*
X97297000Y-27167075D01*
X97316962Y-27092575D01*
X97340641Y-27061716D01*
X98201200Y-26201157D01*
X112979000Y-26201157D01*
X112979000Y-26358842D01*
X113009762Y-26513494D01*
X113009763Y-26513498D01*
X113067658Y-26653270D01*
X113079000Y-26710289D01*
X113079000Y-107728497D01*
X113105919Y-107863827D01*
X113105920Y-107863829D01*
X113158720Y-107991302D01*
X113158723Y-107991308D01*
X113158725Y-107991311D01*
X113235386Y-108106043D01*
X113235389Y-108106046D01*
X121490344Y-116361001D01*
X121528908Y-116427796D01*
X121528908Y-116504924D01*
X121490344Y-116571719D01*
X121423549Y-116610283D01*
X121408294Y-116613526D01*
X121223756Y-116642754D01*
X121021594Y-116708441D01*
X121021588Y-116708443D01*
X121021582Y-116708445D01*
X121021582Y-116708446D01*
X120832182Y-116804950D01*
X120832181Y-116804950D01*
X120660209Y-116929895D01*
X120660206Y-116929897D01*
X120509897Y-117080206D01*
X120509895Y-117080209D01*
X120390544Y-117244482D01*
X120330604Y-117293020D01*
X120254425Y-117305086D01*
X120182420Y-117277446D01*
X120149456Y-117244482D01*
X120087236Y-117158844D01*
X120030104Y-117080208D01*
X119879792Y-116929896D01*
X119707816Y-116804949D01*
X119518412Y-116708443D01*
X119316243Y-116642754D01*
X119106287Y-116609500D01*
X118893713Y-116609500D01*
X118718749Y-116637211D01*
X118683756Y-116642754D01*
X118481594Y-116708441D01*
X118481588Y-116708443D01*
X118481582Y-116708445D01*
X118481582Y-116708446D01*
X118292182Y-116804950D01*
X118292181Y-116804950D01*
X118120209Y-116929895D01*
X118120206Y-116929897D01*
X117969897Y-117080206D01*
X117969895Y-117080209D01*
X117850544Y-117244482D01*
X117790604Y-117293020D01*
X117714425Y-117305086D01*
X117642420Y-117277446D01*
X117609456Y-117244482D01*
X117547236Y-117158844D01*
X117490104Y-117080208D01*
X117339792Y-116929896D01*
X117167816Y-116804949D01*
X116978412Y-116708443D01*
X116776243Y-116642754D01*
X116566287Y-116609500D01*
X116353713Y-116609500D01*
X116178749Y-116637211D01*
X116143756Y-116642754D01*
X115941594Y-116708441D01*
X115941588Y-116708443D01*
X115941582Y-116708445D01*
X115941582Y-116708446D01*
X115752182Y-116804950D01*
X115752181Y-116804950D01*
X115580209Y-116929895D01*
X115580206Y-116929897D01*
X115429897Y-117080206D01*
X115429895Y-117080209D01*
X115304950Y-117252181D01*
X115304950Y-117252182D01*
X115208446Y-117441582D01*
X115208441Y-117441594D01*
X115147501Y-117629148D01*
X115142754Y-117643757D01*
X115109500Y-117853713D01*
X115109500Y-118066287D01*
X115142754Y-118276243D01*
X115208443Y-118478412D01*
X115301357Y-118660767D01*
X115304950Y-118667817D01*
X115304950Y-118667818D01*
X115429895Y-118839790D01*
X115429897Y-118839793D01*
X115515923Y-118925819D01*
X115554487Y-118992614D01*
X115554487Y-119069742D01*
X115515923Y-119136537D01*
X115462634Y-119170784D01*
X115367668Y-119206203D01*
X115367666Y-119206204D01*
X115252455Y-119292452D01*
X115252452Y-119292455D01*
X115166204Y-119407666D01*
X115166202Y-119407670D01*
X115115908Y-119542517D01*
X115109500Y-119602114D01*
X115109500Y-121025147D01*
X115089538Y-121099647D01*
X115065859Y-121130505D01*
X114952725Y-121243639D01*
X114952719Y-121243646D01*
X114793075Y-121451699D01*
X114661959Y-121678798D01*
X114561604Y-121921072D01*
X114561603Y-121921076D01*
X114493727Y-122174391D01*
X114459501Y-122434374D01*
X114459501Y-122696625D01*
X114493727Y-122956608D01*
X114493728Y-122956614D01*
X114493729Y-122956616D01*
X114503794Y-122994180D01*
X114561603Y-123209923D01*
X114561604Y-123209927D01*
X114661959Y-123452201D01*
X114696052Y-123511251D01*
X114793076Y-123679302D01*
X114952717Y-123887351D01*
X119917649Y-128852283D01*
X120004224Y-128918714D01*
X120015702Y-128927521D01*
X120062656Y-128988708D01*
X120074000Y-129045733D01*
X120074000Y-131318567D01*
X120054038Y-131393067D01*
X119999500Y-131447605D01*
X119925000Y-131467567D01*
X119850500Y-131447605D01*
X119837420Y-131439111D01*
X119707818Y-131344950D01*
X119700164Y-131341050D01*
X119518412Y-131248443D01*
X119316243Y-131182754D01*
X119106287Y-131149500D01*
X118893713Y-131149500D01*
X118718749Y-131177211D01*
X118683756Y-131182754D01*
X118481594Y-131248441D01*
X118481588Y-131248443D01*
X118481582Y-131248445D01*
X118481582Y-131248446D01*
X118292182Y-131344950D01*
X118292181Y-131344950D01*
X118120209Y-131469895D01*
X118120198Y-131469904D01*
X118034179Y-131555923D01*
X117967384Y-131594487D01*
X117890256Y-131594487D01*
X117823462Y-131555922D01*
X117789215Y-131502633D01*
X117777008Y-131469904D01*
X117753796Y-131407669D01*
X117753795Y-131407668D01*
X117753795Y-131407666D01*
X117667547Y-131292455D01*
X117667544Y-131292452D01*
X117552333Y-131206204D01*
X117552329Y-131206202D01*
X117417482Y-131155908D01*
X117357876Y-131149500D01*
X115562136Y-131149500D01*
X115562111Y-131149502D01*
X115502521Y-131155908D01*
X115502515Y-131155909D01*
X115367670Y-131206202D01*
X115367666Y-131206204D01*
X115252455Y-131292452D01*
X115252452Y-131292455D01*
X115166204Y-131407666D01*
X115166202Y-131407670D01*
X115115908Y-131542517D01*
X115109500Y-131602114D01*
X115109500Y-133397863D01*
X115109502Y-133397888D01*
X115115908Y-133457478D01*
X115115909Y-133457484D01*
X115166202Y-133592329D01*
X115166204Y-133592333D01*
X115252452Y-133707544D01*
X115252455Y-133707547D01*
X115367666Y-133793795D01*
X115367670Y-133793797D01*
X115502517Y-133844091D01*
X115562114Y-133850499D01*
X115562118Y-133850499D01*
X115562127Y-133850500D01*
X117357872Y-133850499D01*
X117417483Y-133844091D01*
X117543789Y-133796982D01*
X117552329Y-133793797D01*
X117552333Y-133793795D01*
X117609938Y-133750671D01*
X117667546Y-133707546D01*
X117715893Y-133642963D01*
X117753795Y-133592333D01*
X117753798Y-133592327D01*
X117789215Y-133497367D01*
X117833953Y-133434540D01*
X117904110Y-133402498D01*
X117980889Y-133409829D01*
X118034180Y-133444076D01*
X118120208Y-133530104D01*
X118292184Y-133655051D01*
X118481588Y-133751557D01*
X118683757Y-133817246D01*
X118893713Y-133850500D01*
X118893718Y-133850500D01*
X119106282Y-133850500D01*
X119106287Y-133850500D01*
X119316243Y-133817246D01*
X119518412Y-133751557D01*
X119707816Y-133655051D01*
X119879792Y-133530104D01*
X120030104Y-133379792D01*
X120149456Y-133215517D01*
X120209396Y-133166979D01*
X120285574Y-133154913D01*
X120357580Y-133182553D01*
X120390544Y-133215517D01*
X120509896Y-133379792D01*
X120660208Y-133530104D01*
X120832184Y-133655051D01*
X121021588Y-133751557D01*
X121223757Y-133817246D01*
X121358047Y-133838515D01*
X121391753Y-133848021D01*
X121430081Y-133863898D01*
X121683384Y-133931770D01*
X121943377Y-133965999D01*
X121943378Y-133966000D01*
X121943380Y-133966000D01*
X122205622Y-133966000D01*
X122205622Y-133965999D01*
X122465608Y-133931771D01*
X122465610Y-133931771D01*
X122465611Y-133931770D01*
X122465616Y-133931770D01*
X122718915Y-133863899D01*
X122718916Y-133863899D01*
X122718917Y-133863898D01*
X122718919Y-133863898D01*
X122961197Y-133763543D01*
X123188303Y-133632424D01*
X123396348Y-133472784D01*
X123396349Y-133472784D01*
X123581784Y-133287349D01*
X123581784Y-133287348D01*
X123636903Y-133215517D01*
X123741424Y-133079303D01*
X123872543Y-132852197D01*
X123972898Y-132609919D01*
X124040770Y-132356616D01*
X124075000Y-132096620D01*
X124075000Y-128235352D01*
X124094962Y-128160852D01*
X124118641Y-128129993D01*
X128249709Y-123998925D01*
X132407283Y-119841351D01*
X132562536Y-119639021D01*
X132562536Y-119639020D01*
X132562538Y-119639022D01*
X132562544Y-119639009D01*
X132566924Y-119633303D01*
X132698043Y-119406197D01*
X132798398Y-119163919D01*
X132805965Y-119135680D01*
X132811492Y-119115052D01*
X132811492Y-119115051D01*
X132822025Y-119075741D01*
X132866271Y-118910615D01*
X132890044Y-118730037D01*
X132900500Y-118650620D01*
X132900500Y-106868880D01*
X132900500Y-101868880D01*
X132900500Y-94868880D01*
X132900500Y-89868880D01*
X132866270Y-89608884D01*
X132798398Y-89355581D01*
X132698043Y-89113303D01*
X132566924Y-88886197D01*
X132566921Y-88886193D01*
X132566921Y-88886192D01*
X132407284Y-88678151D01*
X132221848Y-88492715D01*
X132013806Y-88333078D01*
X131786701Y-88201959D01*
X131786699Y-88201958D01*
X131786697Y-88201957D01*
X131711154Y-88170666D01*
X131544416Y-88101600D01*
X131318255Y-88041002D01*
X131291116Y-88033730D01*
X131291114Y-88033729D01*
X131291108Y-88033728D01*
X131031123Y-87999500D01*
X131031120Y-87999500D01*
X130768880Y-87999500D01*
X130768876Y-87999500D01*
X130508892Y-88033728D01*
X130508889Y-88033728D01*
X130255584Y-88101600D01*
X130255583Y-88101600D01*
X130013298Y-88201959D01*
X129786193Y-88333078D01*
X129786192Y-88333078D01*
X129578151Y-88492715D01*
X129578151Y-88492716D01*
X129578149Y-88492718D01*
X129392718Y-88678149D01*
X129392716Y-88678151D01*
X129392715Y-88678151D01*
X129233078Y-88886192D01*
X129233078Y-88886193D01*
X129101959Y-89113298D01*
X129001600Y-89355583D01*
X129001600Y-89355584D01*
X128933728Y-89608889D01*
X128933728Y-89608892D01*
X128899500Y-89868876D01*
X128899500Y-117629148D01*
X128879538Y-117703648D01*
X128855859Y-117734507D01*
X125650582Y-120939783D01*
X125583787Y-120978347D01*
X125506659Y-120978347D01*
X125439864Y-120939783D01*
X125401300Y-120872988D01*
X125398058Y-120811115D01*
X125430500Y-120606288D01*
X125430500Y-120393717D01*
X125430500Y-120393713D01*
X125397246Y-120183757D01*
X125331557Y-119981588D01*
X125235051Y-119792184D01*
X125110104Y-119620208D01*
X124959792Y-119469896D01*
X124959790Y-119469894D01*
X124959782Y-119469888D01*
X124841920Y-119384256D01*
X124793382Y-119324317D01*
X124780500Y-119263713D01*
X124780500Y-119196285D01*
X124800462Y-119121785D01*
X124841919Y-119075743D01*
X124959792Y-118990104D01*
X125110104Y-118839792D01*
X125235051Y-118667816D01*
X125331557Y-118478412D01*
X125397246Y-118276243D01*
X125430500Y-118066287D01*
X125430500Y-117853713D01*
X125397246Y-117643757D01*
X125331557Y-117441588D01*
X125235051Y-117252184D01*
X125110104Y-117080208D01*
X124959792Y-116929896D01*
X124787816Y-116804949D01*
X124598412Y-116708443D01*
X124396243Y-116642754D01*
X124186287Y-116609500D01*
X123973713Y-116609500D01*
X123877757Y-116624698D01*
X123829809Y-116632292D01*
X123753103Y-116624229D01*
X123701142Y-116590485D01*
X114523641Y-107412984D01*
X114485077Y-107346189D01*
X114480000Y-107307625D01*
X114480000Y-77875429D01*
X128999500Y-77875429D01*
X128999500Y-78124570D01*
X129032016Y-78371557D01*
X129032017Y-78371563D01*
X129032018Y-78371565D01*
X129096498Y-78612207D01*
X129191836Y-78842373D01*
X129316401Y-79058127D01*
X129468062Y-79255776D01*
X129468063Y-79255777D01*
X129605859Y-79393573D01*
X129644423Y-79460368D01*
X129649500Y-79498932D01*
X129649500Y-80985077D01*
X129629538Y-81059577D01*
X129575000Y-81114115D01*
X129547369Y-81126514D01*
X129430662Y-81165187D01*
X129281344Y-81257289D01*
X129157289Y-81381344D01*
X129065187Y-81530663D01*
X129010001Y-81697201D01*
X129010001Y-81697203D01*
X128999500Y-81799992D01*
X128999500Y-84200008D01*
X129010001Y-84302797D01*
X129065186Y-84469334D01*
X129157289Y-84618655D01*
X129281345Y-84742711D01*
X129430666Y-84834814D01*
X129597203Y-84889999D01*
X129699992Y-84900500D01*
X129699996Y-84900500D01*
X132100004Y-84900500D01*
X132100008Y-84900500D01*
X132202797Y-84889999D01*
X132369334Y-84834814D01*
X132518655Y-84742711D01*
X132642711Y-84618655D01*
X132734814Y-84469334D01*
X132789999Y-84302797D01*
X132800500Y-84200008D01*
X132800500Y-81799992D01*
X132789999Y-81697203D01*
X132734814Y-81530666D01*
X132642711Y-81381345D01*
X132518655Y-81257289D01*
X132369337Y-81165187D01*
X132252631Y-81126514D01*
X132188192Y-81084130D01*
X132153578Y-81015206D01*
X132150500Y-80985077D01*
X132150500Y-79498932D01*
X132170462Y-79424432D01*
X132194141Y-79393573D01*
X132255778Y-79331936D01*
X132331938Y-79255776D01*
X132483599Y-79058127D01*
X132608164Y-78842373D01*
X132703502Y-78612207D01*
X132767982Y-78371565D01*
X132800500Y-78124565D01*
X132800500Y-77875435D01*
X132767982Y-77628435D01*
X132703502Y-77387793D01*
X132608164Y-77157627D01*
X132483599Y-76941873D01*
X132331938Y-76744224D01*
X132155776Y-76568062D01*
X131958127Y-76416401D01*
X131784921Y-76316401D01*
X131742377Y-76291838D01*
X131742375Y-76291837D01*
X131742373Y-76291836D01*
X131530963Y-76204267D01*
X131512210Y-76196499D01*
X131512208Y-76196498D01*
X131512207Y-76196498D01*
X131271565Y-76132018D01*
X131271563Y-76132017D01*
X131271557Y-76132016D01*
X131024570Y-76099500D01*
X131024565Y-76099500D01*
X130775435Y-76099500D01*
X130775429Y-76099500D01*
X130528442Y-76132016D01*
X130287789Y-76196499D01*
X130057622Y-76291838D01*
X129841874Y-76416400D01*
X129644222Y-76568063D01*
X129468063Y-76744222D01*
X129316400Y-76941874D01*
X129191838Y-77157622D01*
X129096499Y-77387789D01*
X129032016Y-77628442D01*
X128999500Y-77875429D01*
X114480000Y-77875429D01*
X114480000Y-65875429D01*
X128999500Y-65875429D01*
X128999500Y-66124570D01*
X129032016Y-66371557D01*
X129032017Y-66371563D01*
X129032018Y-66371565D01*
X129096498Y-66612207D01*
X129191836Y-66842373D01*
X129316401Y-67058127D01*
X129368710Y-67126297D01*
X129398225Y-67197554D01*
X129399500Y-67217002D01*
X129399500Y-69101250D01*
X129379538Y-69175750D01*
X129328724Y-69228064D01*
X129281345Y-69257289D01*
X129281342Y-69257291D01*
X129157289Y-69381344D01*
X129065187Y-69530663D01*
X129010001Y-69697201D01*
X129010001Y-69697203D01*
X128999500Y-69799992D01*
X128999500Y-72200008D01*
X129010001Y-72302797D01*
X129065186Y-72469334D01*
X129157289Y-72618655D01*
X129281345Y-72742711D01*
X129430666Y-72834814D01*
X129597203Y-72889999D01*
X129699992Y-72900500D01*
X129699996Y-72900500D01*
X132100004Y-72900500D01*
X132100008Y-72900500D01*
X132202797Y-72889999D01*
X132369334Y-72834814D01*
X132518655Y-72742711D01*
X132642711Y-72618655D01*
X132734814Y-72469334D01*
X132789999Y-72302797D01*
X132800500Y-72200008D01*
X132800500Y-69799992D01*
X132789999Y-69697203D01*
X132734814Y-69530666D01*
X132642711Y-69381345D01*
X132518655Y-69257289D01*
X132471275Y-69228064D01*
X132418349Y-69171964D01*
X132400500Y-69101250D01*
X132400500Y-67217002D01*
X132420462Y-67142502D01*
X132431290Y-67126297D01*
X132483599Y-67058127D01*
X132608164Y-66842373D01*
X132703502Y-66612207D01*
X132767982Y-66371565D01*
X132800500Y-66124565D01*
X132800500Y-65875435D01*
X132767982Y-65628435D01*
X132703502Y-65387793D01*
X132608164Y-65157627D01*
X132483599Y-64941873D01*
X132331938Y-64744224D01*
X132155776Y-64568062D01*
X131958127Y-64416401D01*
X131874941Y-64368374D01*
X131742377Y-64291838D01*
X131742375Y-64291837D01*
X131742373Y-64291836D01*
X131607548Y-64235989D01*
X131512210Y-64196499D01*
X131512208Y-64196498D01*
X131512207Y-64196498D01*
X131271565Y-64132018D01*
X131271563Y-64132017D01*
X131271557Y-64132016D01*
X131024570Y-64099500D01*
X131024565Y-64099500D01*
X130775435Y-64099500D01*
X130775429Y-64099500D01*
X130528442Y-64132016D01*
X130287789Y-64196499D01*
X130057622Y-64291838D01*
X129841874Y-64416400D01*
X129644222Y-64568063D01*
X129468063Y-64744222D01*
X129316400Y-64941874D01*
X129191838Y-65157622D01*
X129096499Y-65387789D01*
X129032016Y-65628442D01*
X128999500Y-65875429D01*
X114480000Y-65875429D01*
X114480000Y-57800011D01*
X129000000Y-57800011D01*
X129000000Y-58600000D01*
X130385523Y-58600000D01*
X130323978Y-58692110D01*
X130274979Y-58810402D01*
X130250000Y-58935981D01*
X130250000Y-59064019D01*
X130274979Y-59189598D01*
X130323978Y-59307890D01*
X130385523Y-59400000D01*
X129000000Y-59400000D01*
X129000000Y-60199988D01*
X129010492Y-60302687D01*
X129010494Y-60302696D01*
X129065642Y-60469120D01*
X129157680Y-60618339D01*
X129281660Y-60742319D01*
X129430879Y-60834357D01*
X129597303Y-60889505D01*
X129597312Y-60889507D01*
X129700011Y-60899999D01*
X129700022Y-60900000D01*
X130500000Y-60900000D01*
X130500000Y-59514476D01*
X130592110Y-59576022D01*
X130710402Y-59625021D01*
X130835981Y-59650000D01*
X130964019Y-59650000D01*
X131089598Y-59625021D01*
X131207890Y-59576022D01*
X131300000Y-59514476D01*
X131300000Y-60900000D01*
X132099978Y-60900000D01*
X132099988Y-60899999D01*
X132202687Y-60889507D01*
X132202696Y-60889505D01*
X132369120Y-60834357D01*
X132518339Y-60742319D01*
X132642319Y-60618339D01*
X132734357Y-60469120D01*
X132789505Y-60302696D01*
X132789507Y-60302687D01*
X132799999Y-60199988D01*
X132800000Y-60199978D01*
X132800000Y-59400000D01*
X131414477Y-59400000D01*
X131476022Y-59307890D01*
X131525021Y-59189598D01*
X131550000Y-59064019D01*
X131550000Y-58935981D01*
X131525021Y-58810402D01*
X131476022Y-58692110D01*
X131414477Y-58600000D01*
X132800000Y-58600000D01*
X132800000Y-57800021D01*
X132799999Y-57800011D01*
X132789507Y-57697312D01*
X132789505Y-57697303D01*
X132734357Y-57530879D01*
X132642319Y-57381660D01*
X132518339Y-57257680D01*
X132369120Y-57165642D01*
X132202696Y-57110494D01*
X132202687Y-57110492D01*
X132099988Y-57100000D01*
X131300000Y-57100000D01*
X131300000Y-58485523D01*
X131207890Y-58423978D01*
X131089598Y-58374979D01*
X130964019Y-58350000D01*
X130835981Y-58350000D01*
X130710402Y-58374979D01*
X130592110Y-58423978D01*
X130500000Y-58485523D01*
X130500000Y-57100000D01*
X129700011Y-57100000D01*
X129597312Y-57110492D01*
X129597303Y-57110494D01*
X129430879Y-57165642D01*
X129281660Y-57257680D01*
X129157680Y-57381660D01*
X129065642Y-57530879D01*
X129010494Y-57697303D01*
X129010492Y-57697312D01*
X129000000Y-57800011D01*
X114480000Y-57800011D01*
X114480000Y-53875461D01*
X129000000Y-53875461D01*
X129000000Y-54124538D01*
X129032507Y-54371459D01*
X129096973Y-54612048D01*
X129192287Y-54842156D01*
X129302048Y-55032265D01*
X130253367Y-54080946D01*
X130274979Y-54189598D01*
X130323978Y-54307890D01*
X130395112Y-54414351D01*
X130485649Y-54504888D01*
X130592110Y-54576022D01*
X130710402Y-54625021D01*
X130819052Y-54646632D01*
X129867733Y-55597950D01*
X130057849Y-55707714D01*
X130287951Y-55803026D01*
X130528540Y-55867492D01*
X130775461Y-55899999D01*
X130775467Y-55900000D01*
X131024533Y-55900000D01*
X131024538Y-55899999D01*
X131271459Y-55867492D01*
X131512048Y-55803026D01*
X131742150Y-55707714D01*
X131932265Y-55597950D01*
X130980947Y-54646632D01*
X131089598Y-54625021D01*
X131207890Y-54576022D01*
X131314351Y-54504888D01*
X131404888Y-54414351D01*
X131476022Y-54307890D01*
X131525021Y-54189598D01*
X131546632Y-54080947D01*
X132497950Y-55032265D01*
X132607714Y-54842150D01*
X132703026Y-54612048D01*
X132767492Y-54371459D01*
X132799999Y-54124538D01*
X132800000Y-54124533D01*
X132800000Y-53875467D01*
X132799999Y-53875461D01*
X132767492Y-53628540D01*
X132703026Y-53387951D01*
X132607714Y-53157849D01*
X132497950Y-52967733D01*
X131546632Y-53919051D01*
X131525021Y-53810402D01*
X131476022Y-53692110D01*
X131404888Y-53585649D01*
X131314351Y-53495112D01*
X131207890Y-53423978D01*
X131089598Y-53374979D01*
X130980946Y-53353366D01*
X131932265Y-52402048D01*
X131742156Y-52292287D01*
X131512048Y-52196973D01*
X131271459Y-52132507D01*
X131024538Y-52100000D01*
X130775461Y-52100000D01*
X130528540Y-52132507D01*
X130287951Y-52196973D01*
X130057843Y-52292287D01*
X129867733Y-52402048D01*
X130819052Y-53353367D01*
X130710402Y-53374979D01*
X130592110Y-53423978D01*
X130485649Y-53495112D01*
X130395112Y-53585649D01*
X130323978Y-53692110D01*
X130274979Y-53810402D01*
X130253367Y-53919052D01*
X129302048Y-52967733D01*
X129192287Y-53157843D01*
X129096973Y-53387951D01*
X129032507Y-53628540D01*
X129000000Y-53875461D01*
X114480000Y-53875461D01*
X114480000Y-45800011D01*
X129000000Y-45800011D01*
X129000000Y-46600000D01*
X130385523Y-46600000D01*
X130323978Y-46692110D01*
X130274979Y-46810402D01*
X130250000Y-46935981D01*
X130250000Y-47064019D01*
X130274979Y-47189598D01*
X130323978Y-47307890D01*
X130385523Y-47400000D01*
X129000000Y-47400000D01*
X129000000Y-48199988D01*
X129010492Y-48302687D01*
X129010494Y-48302696D01*
X129065642Y-48469120D01*
X129157680Y-48618339D01*
X129281660Y-48742319D01*
X129430879Y-48834357D01*
X129597303Y-48889505D01*
X129597312Y-48889507D01*
X129700011Y-48899999D01*
X129700022Y-48900000D01*
X130500000Y-48900000D01*
X130500000Y-47514476D01*
X130592110Y-47576022D01*
X130710402Y-47625021D01*
X130835981Y-47650000D01*
X130964019Y-47650000D01*
X131089598Y-47625021D01*
X131207890Y-47576022D01*
X131300000Y-47514476D01*
X131300000Y-48900000D01*
X132099978Y-48900000D01*
X132099988Y-48899999D01*
X132202687Y-48889507D01*
X132202696Y-48889505D01*
X132369120Y-48834357D01*
X132518339Y-48742319D01*
X132642319Y-48618339D01*
X132734357Y-48469120D01*
X132789505Y-48302696D01*
X132789507Y-48302687D01*
X132799999Y-48199988D01*
X132800000Y-48199978D01*
X132800000Y-47400000D01*
X131414477Y-47400000D01*
X131476022Y-47307890D01*
X131525021Y-47189598D01*
X131550000Y-47064019D01*
X131550000Y-46935981D01*
X131525021Y-46810402D01*
X131476022Y-46692110D01*
X131414477Y-46600000D01*
X132800000Y-46600000D01*
X132800000Y-45800021D01*
X132799999Y-45800011D01*
X132789507Y-45697312D01*
X132789505Y-45697303D01*
X132734357Y-45530879D01*
X132642319Y-45381660D01*
X132518339Y-45257680D01*
X132369120Y-45165642D01*
X132202696Y-45110494D01*
X132202687Y-45110492D01*
X132099988Y-45100000D01*
X131300000Y-45100000D01*
X131300000Y-46485523D01*
X131207890Y-46423978D01*
X131089598Y-46374979D01*
X130964019Y-46350000D01*
X130835981Y-46350000D01*
X130710402Y-46374979D01*
X130592110Y-46423978D01*
X130500000Y-46485523D01*
X130500000Y-45100000D01*
X129700011Y-45100000D01*
X129597312Y-45110492D01*
X129597303Y-45110494D01*
X129430879Y-45165642D01*
X129281660Y-45257680D01*
X129157680Y-45381660D01*
X129065642Y-45530879D01*
X129010494Y-45697303D01*
X129010492Y-45697312D01*
X129000000Y-45800011D01*
X114480000Y-45800011D01*
X114480000Y-41875461D01*
X129000000Y-41875461D01*
X129000000Y-42124538D01*
X129032507Y-42371459D01*
X129096973Y-42612048D01*
X129192287Y-42842156D01*
X129302048Y-43032265D01*
X130253367Y-42080946D01*
X130274979Y-42189598D01*
X130323978Y-42307890D01*
X130395112Y-42414351D01*
X130485649Y-42504888D01*
X130592110Y-42576022D01*
X130710402Y-42625021D01*
X130819052Y-42646632D01*
X129867733Y-43597950D01*
X130057849Y-43707714D01*
X130287951Y-43803026D01*
X130528540Y-43867492D01*
X130775461Y-43899999D01*
X130775467Y-43900000D01*
X131024533Y-43900000D01*
X131024538Y-43899999D01*
X131271459Y-43867492D01*
X131512048Y-43803026D01*
X131742150Y-43707714D01*
X131932265Y-43597950D01*
X130980947Y-42646632D01*
X131089598Y-42625021D01*
X131207890Y-42576022D01*
X131314351Y-42504888D01*
X131404888Y-42414351D01*
X131476022Y-42307890D01*
X131525021Y-42189598D01*
X131546632Y-42080947D01*
X132497950Y-43032265D01*
X132607714Y-42842150D01*
X132703026Y-42612048D01*
X132767492Y-42371459D01*
X132799999Y-42124538D01*
X132800000Y-42124533D01*
X132800000Y-41875467D01*
X132799999Y-41875461D01*
X132767492Y-41628540D01*
X132703026Y-41387951D01*
X132607714Y-41157849D01*
X132497950Y-40967733D01*
X131546632Y-41919051D01*
X131525021Y-41810402D01*
X131476022Y-41692110D01*
X131404888Y-41585649D01*
X131314351Y-41495112D01*
X131207890Y-41423978D01*
X131089598Y-41374979D01*
X130980946Y-41353366D01*
X131932265Y-40402048D01*
X131742156Y-40292287D01*
X131512048Y-40196973D01*
X131271459Y-40132507D01*
X131024538Y-40100000D01*
X130775461Y-40100000D01*
X130528540Y-40132507D01*
X130287951Y-40196973D01*
X130057843Y-40292287D01*
X129867733Y-40402048D01*
X130819052Y-41353367D01*
X130710402Y-41374979D01*
X130592110Y-41423978D01*
X130485649Y-41495112D01*
X130395112Y-41585649D01*
X130323978Y-41692110D01*
X130274979Y-41810402D01*
X130253367Y-41919052D01*
X129302048Y-40967733D01*
X129192287Y-41157843D01*
X129096973Y-41387951D01*
X129032507Y-41628540D01*
X129000000Y-41875461D01*
X114480000Y-41875461D01*
X114480000Y-26710289D01*
X114491342Y-26653270D01*
X114515873Y-26594044D01*
X114549237Y-26513497D01*
X114580000Y-26358842D01*
X114580000Y-26201158D01*
X114549237Y-26046503D01*
X114488894Y-25900821D01*
X114401289Y-25769711D01*
X114289789Y-25658211D01*
X114158679Y-25570606D01*
X114158678Y-25570605D01*
X114158676Y-25570604D01*
X114012998Y-25510263D01*
X114012994Y-25510262D01*
X113858342Y-25479500D01*
X113700658Y-25479500D01*
X113546005Y-25510262D01*
X113546001Y-25510263D01*
X113400323Y-25570604D01*
X113269207Y-25658214D01*
X113157714Y-25769707D01*
X113070104Y-25900823D01*
X113009763Y-26046501D01*
X113009762Y-26046505D01*
X112979000Y-26201157D01*
X98201200Y-26201157D01*
X98313878Y-26088479D01*
X98501536Y-25900821D01*
X98704114Y-25698243D01*
X98780775Y-25583511D01*
X98786121Y-25570606D01*
X98836381Y-25449266D01*
X98837551Y-25449750D01*
X98874250Y-25390743D01*
X98942273Y-25354389D01*
X98976098Y-25350499D01*
X99057864Y-25350499D01*
X99057872Y-25350499D01*
X99117483Y-25344091D01*
X99250996Y-25294294D01*
X99252329Y-25293797D01*
X99252333Y-25293795D01*
X99309938Y-25250671D01*
X99367546Y-25207546D01*
X99410671Y-25149938D01*
X99453795Y-25092333D01*
X99453797Y-25092329D01*
X99477008Y-25030096D01*
X99504091Y-24957483D01*
X99510500Y-24897873D01*
X99510499Y-23102128D01*
X99504091Y-23042517D01*
X99477005Y-22969895D01*
X99453797Y-22907670D01*
X99453795Y-22907666D01*
X99367547Y-22792455D01*
X99367544Y-22792452D01*
X99252333Y-22706204D01*
X99252329Y-22706202D01*
X99117482Y-22655908D01*
X99057876Y-22649500D01*
X97262136Y-22649500D01*
X97262111Y-22649502D01*
X97202521Y-22655908D01*
X97202515Y-22655909D01*
X97067670Y-22706202D01*
X97067666Y-22706204D01*
X96952455Y-22792452D01*
X96952452Y-22792455D01*
X96866204Y-22907666D01*
X96866203Y-22907668D01*
X96830784Y-23002634D01*
X96786045Y-23065461D01*
X96715887Y-23097501D01*
X96639108Y-23090170D01*
X96585819Y-23055923D01*
X96499793Y-22969897D01*
X96499792Y-22969896D01*
X96327816Y-22844949D01*
X96138412Y-22748443D01*
X95936243Y-22682754D01*
X95726287Y-22649500D01*
X95513713Y-22649500D01*
X95338749Y-22677211D01*
X95303756Y-22682754D01*
X95101594Y-22748441D01*
X95101588Y-22748443D01*
X95101582Y-22748445D01*
X95101582Y-22748446D01*
X94912182Y-22844950D01*
X94912181Y-22844950D01*
X94740209Y-22969895D01*
X94740206Y-22969897D01*
X94589897Y-23120206D01*
X94589895Y-23120209D01*
X94470544Y-23284482D01*
X94410604Y-23333020D01*
X94334425Y-23345086D01*
X94262420Y-23317446D01*
X94229456Y-23284482D01*
X94145148Y-23168442D01*
X94110104Y-23120208D01*
X93959792Y-22969896D01*
X93787816Y-22844949D01*
X93598412Y-22748443D01*
X93396243Y-22682754D01*
X93186287Y-22649500D01*
X92973713Y-22649500D01*
X92798749Y-22677211D01*
X92763756Y-22682754D01*
X92561594Y-22748441D01*
X92561588Y-22748443D01*
X92561585Y-22748444D01*
X92561576Y-22748448D01*
X92373391Y-22844333D01*
X92297948Y-22860369D01*
X92224595Y-22836535D01*
X92200388Y-22816932D01*
X91901028Y-22517572D01*
X91558943Y-22175486D01*
X91444211Y-22098825D01*
X91444208Y-22098823D01*
X91444202Y-22098820D01*
X91316729Y-22046020D01*
X91316727Y-22046019D01*
X91181397Y-22019100D01*
X91181394Y-22019100D01*
X91181393Y-22019100D01*
X86809394Y-22019100D01*
X86671406Y-22019100D01*
X86671402Y-22019100D01*
X86536072Y-22046019D01*
X86536070Y-22046020D01*
X86408597Y-22098820D01*
X86408584Y-22098828D01*
X86293858Y-22175485D01*
X86293853Y-22175489D01*
X85838856Y-22630485D01*
X85772061Y-22669049D01*
X85710189Y-22672292D01*
X85566287Y-22649500D01*
X85353713Y-22649500D01*
X85178749Y-22677211D01*
X85143756Y-22682754D01*
X84941594Y-22748441D01*
X84941588Y-22748443D01*
X84941582Y-22748445D01*
X84941582Y-22748446D01*
X84752182Y-22844950D01*
X84752181Y-22844950D01*
X84580209Y-22969895D01*
X84580206Y-22969897D01*
X84429897Y-23120206D01*
X84429895Y-23120209D01*
X84310544Y-23284482D01*
X84250604Y-23333020D01*
X84174425Y-23345086D01*
X84102420Y-23317446D01*
X84069456Y-23284482D01*
X83985148Y-23168442D01*
X83950104Y-23120208D01*
X83799792Y-22969896D01*
X83627816Y-22844949D01*
X83438412Y-22748443D01*
X83236243Y-22682754D01*
X83026287Y-22649500D01*
X82813713Y-22649500D01*
X82638749Y-22677211D01*
X82603756Y-22682754D01*
X82401594Y-22748441D01*
X82401588Y-22748443D01*
X82401582Y-22748445D01*
X82401582Y-22748446D01*
X82212182Y-22844950D01*
X82212181Y-22844950D01*
X82040209Y-22969895D01*
X82040206Y-22969897D01*
X81889897Y-23120206D01*
X81889895Y-23120209D01*
X81770544Y-23284482D01*
X81710604Y-23333020D01*
X81634425Y-23345086D01*
X81562420Y-23317446D01*
X81529456Y-23284482D01*
X81445148Y-23168442D01*
X81410104Y-23120208D01*
X81259792Y-22969896D01*
X81087816Y-22844949D01*
X80898412Y-22748443D01*
X80696243Y-22682754D01*
X80486287Y-22649500D01*
X80273713Y-22649500D01*
X80098749Y-22677211D01*
X80063756Y-22682754D01*
X79861594Y-22748441D01*
X79861588Y-22748443D01*
X79861582Y-22748445D01*
X79861582Y-22748446D01*
X79672182Y-22844950D01*
X79672181Y-22844950D01*
X79500209Y-22969895D01*
X79500206Y-22969897D01*
X79349897Y-23120206D01*
X79349895Y-23120209D01*
X79230544Y-23284482D01*
X79170604Y-23333020D01*
X79094425Y-23345086D01*
X79022420Y-23317446D01*
X78989456Y-23284482D01*
X78905148Y-23168442D01*
X78870104Y-23120208D01*
X78719792Y-22969896D01*
X78547816Y-22844949D01*
X78358412Y-22748443D01*
X78156243Y-22682754D01*
X77946287Y-22649500D01*
X77733713Y-22649500D01*
X77651467Y-22662526D01*
X77589808Y-22672292D01*
X77513102Y-22664229D01*
X77461141Y-22630485D01*
X77008446Y-22177789D01*
X77008445Y-22177788D01*
X77008443Y-22177786D01*
X76893711Y-22101125D01*
X76893708Y-22101123D01*
X76893702Y-22101120D01*
X76766229Y-22048320D01*
X76766227Y-22048319D01*
X76630897Y-22021400D01*
X76630894Y-22021400D01*
X76630893Y-22021400D01*
X75149000Y-22021400D01*
X75074500Y-22001438D01*
X75019962Y-21946900D01*
X75000000Y-21872400D01*
X75000000Y-4649000D01*
X75019962Y-4574500D01*
X75074500Y-4519962D01*
X75149000Y-4500000D01*
X140451297Y-4500000D01*
X140487501Y-4504465D01*
G37*
%TD.AperFunction*%
%TA.AperFunction,Conductor*%
G36*
X89307455Y-24663312D02*
G01*
X89330604Y-24666979D01*
X89342957Y-24676939D01*
X89357580Y-24682553D01*
X89389480Y-24714453D01*
X89390178Y-24715016D01*
X89390415Y-24715340D01*
X89509896Y-24879792D01*
X89513826Y-24883722D01*
X89660206Y-25030102D01*
X89660214Y-25030109D01*
X89716852Y-25071258D01*
X89778080Y-25115742D01*
X89826618Y-25175680D01*
X89839500Y-25236285D01*
X89839500Y-76677951D01*
X89819538Y-76752451D01*
X89765000Y-76806989D01*
X89690500Y-76826951D01*
X89616000Y-76806989D01*
X89566611Y-76760732D01*
X89555581Y-76744224D01*
X89530814Y-76707157D01*
X75043641Y-62219984D01*
X75005077Y-62153189D01*
X75000000Y-62114625D01*
X75000000Y-60775461D01*
X85285000Y-60775461D01*
X85285000Y-61024538D01*
X85317507Y-61271459D01*
X85381973Y-61512048D01*
X85477287Y-61742156D01*
X85587048Y-61932265D01*
X86453323Y-61065989D01*
X86463822Y-61118767D01*
X86520359Y-61255258D01*
X86602437Y-61378097D01*
X86706903Y-61482563D01*
X86829742Y-61564641D01*
X86966233Y-61621178D01*
X87019008Y-61631675D01*
X86152733Y-62497950D01*
X86342849Y-62607714D01*
X86572951Y-62703026D01*
X86813540Y-62767492D01*
X87060461Y-62799999D01*
X87060467Y-62800000D01*
X87309533Y-62800000D01*
X87309538Y-62799999D01*
X87556459Y-62767492D01*
X87797048Y-62703026D01*
X88027150Y-62607714D01*
X88217265Y-62497950D01*
X87350990Y-61631675D01*
X87403767Y-61621178D01*
X87540258Y-61564641D01*
X87663097Y-61482563D01*
X87767563Y-61378097D01*
X87849641Y-61255258D01*
X87906178Y-61118767D01*
X87916675Y-61065990D01*
X88782950Y-61932265D01*
X88892714Y-61742150D01*
X88988026Y-61512048D01*
X89052492Y-61271459D01*
X89084999Y-61024538D01*
X89085000Y-61024533D01*
X89085000Y-60775467D01*
X89084999Y-60775461D01*
X89052492Y-60528540D01*
X88988026Y-60287951D01*
X88892714Y-60057849D01*
X88782950Y-59867733D01*
X87916675Y-60734008D01*
X87906178Y-60681233D01*
X87849641Y-60544742D01*
X87767563Y-60421903D01*
X87663097Y-60317437D01*
X87540258Y-60235359D01*
X87403767Y-60178822D01*
X87350989Y-60168323D01*
X88217265Y-59302048D01*
X88027156Y-59192287D01*
X87797048Y-59096973D01*
X87556459Y-59032507D01*
X87309538Y-59000000D01*
X87060461Y-59000000D01*
X86813540Y-59032507D01*
X86572951Y-59096973D01*
X86342843Y-59192287D01*
X86152733Y-59302048D01*
X87019009Y-60168324D01*
X86966233Y-60178822D01*
X86829742Y-60235359D01*
X86706903Y-60317437D01*
X86602437Y-60421903D01*
X86520359Y-60544742D01*
X86463822Y-60681233D01*
X86453324Y-60734009D01*
X85587048Y-59867733D01*
X85477287Y-60057843D01*
X85381973Y-60287951D01*
X85317507Y-60528540D01*
X85285000Y-60775461D01*
X75000000Y-60775461D01*
X75000000Y-43775461D01*
X85285000Y-43775461D01*
X85285000Y-44024538D01*
X85317507Y-44271459D01*
X85381973Y-44512048D01*
X85477287Y-44742156D01*
X85587048Y-44932265D01*
X86453323Y-44065989D01*
X86463822Y-44118767D01*
X86520359Y-44255258D01*
X86602437Y-44378097D01*
X86706903Y-44482563D01*
X86829742Y-44564641D01*
X86966233Y-44621178D01*
X87019008Y-44631675D01*
X86152733Y-45497950D01*
X86342849Y-45607714D01*
X86572951Y-45703026D01*
X86813540Y-45767492D01*
X87060461Y-45799999D01*
X87060467Y-45800000D01*
X87309533Y-45800000D01*
X87309538Y-45799999D01*
X87556459Y-45767492D01*
X87797048Y-45703026D01*
X88027150Y-45607714D01*
X88217265Y-45497950D01*
X87350990Y-44631675D01*
X87403767Y-44621178D01*
X87540258Y-44564641D01*
X87663097Y-44482563D01*
X87767563Y-44378097D01*
X87849641Y-44255258D01*
X87906178Y-44118767D01*
X87916675Y-44065990D01*
X88782950Y-44932265D01*
X88892714Y-44742150D01*
X88988026Y-44512048D01*
X89052492Y-44271459D01*
X89084999Y-44024538D01*
X89085000Y-44024533D01*
X89085000Y-43775467D01*
X89084999Y-43775461D01*
X89052492Y-43528540D01*
X88988026Y-43287951D01*
X88892714Y-43057849D01*
X88782950Y-42867733D01*
X87916675Y-43734008D01*
X87906178Y-43681233D01*
X87849641Y-43544742D01*
X87767563Y-43421903D01*
X87663097Y-43317437D01*
X87540258Y-43235359D01*
X87403767Y-43178822D01*
X87350989Y-43168323D01*
X88217265Y-42302048D01*
X88027156Y-42192287D01*
X87797048Y-42096973D01*
X87556459Y-42032507D01*
X87309538Y-42000000D01*
X87060461Y-42000000D01*
X86813540Y-42032507D01*
X86572951Y-42096973D01*
X86342843Y-42192287D01*
X86152733Y-42302048D01*
X87019009Y-43168324D01*
X86966233Y-43178822D01*
X86829742Y-43235359D01*
X86706903Y-43317437D01*
X86602437Y-43421903D01*
X86520359Y-43544742D01*
X86463822Y-43681233D01*
X86453324Y-43734009D01*
X85587048Y-42867733D01*
X85477287Y-43057843D01*
X85381973Y-43287951D01*
X85317507Y-43528540D01*
X85285000Y-43775461D01*
X75000000Y-43775461D01*
X75000000Y-25494275D01*
X75019962Y-25419775D01*
X75074500Y-25365237D01*
X75149000Y-25345275D01*
X75172309Y-25347109D01*
X75193713Y-25350500D01*
X75406282Y-25350500D01*
X75406287Y-25350500D01*
X75616243Y-25317246D01*
X75818412Y-25251557D01*
X76007816Y-25155051D01*
X76179792Y-25030104D01*
X76330104Y-24879792D01*
X76449456Y-24715517D01*
X76509396Y-24666979D01*
X76585574Y-24654913D01*
X76657580Y-24682553D01*
X76690544Y-24715517D01*
X76809896Y-24879792D01*
X76960208Y-25030104D01*
X77132184Y-25155051D01*
X77321588Y-25251557D01*
X77523757Y-25317246D01*
X77733713Y-25350500D01*
X77733718Y-25350500D01*
X77946282Y-25350500D01*
X77946287Y-25350500D01*
X78156243Y-25317246D01*
X78358412Y-25251557D01*
X78547816Y-25155051D01*
X78719792Y-25030104D01*
X78870104Y-24879792D01*
X78989456Y-24715517D01*
X79049396Y-24666979D01*
X79125574Y-24654913D01*
X79197580Y-24682553D01*
X79230544Y-24715517D01*
X79349896Y-24879792D01*
X79500208Y-25030104D01*
X79672184Y-25155051D01*
X79861588Y-25251557D01*
X80063757Y-25317246D01*
X80273713Y-25350500D01*
X80273718Y-25350500D01*
X80486282Y-25350500D01*
X80486287Y-25350500D01*
X80696243Y-25317246D01*
X80898412Y-25251557D01*
X81087816Y-25155051D01*
X81259792Y-25030104D01*
X81410104Y-24879792D01*
X81529456Y-24715517D01*
X81589396Y-24666979D01*
X81665574Y-24654913D01*
X81737580Y-24682553D01*
X81770544Y-24715517D01*
X81889896Y-24879792D01*
X82040208Y-25030104D01*
X82212184Y-25155051D01*
X82401588Y-25251557D01*
X82603757Y-25317246D01*
X82813713Y-25350500D01*
X82813718Y-25350500D01*
X83026282Y-25350500D01*
X83026287Y-25350500D01*
X83236243Y-25317246D01*
X83438412Y-25251557D01*
X83627816Y-25155051D01*
X83799792Y-25030104D01*
X83950104Y-24879792D01*
X84069456Y-24715517D01*
X84129396Y-24666979D01*
X84205574Y-24654913D01*
X84277580Y-24682553D01*
X84310544Y-24715517D01*
X84429896Y-24879792D01*
X84580208Y-25030104D01*
X84752184Y-25155051D01*
X84941588Y-25251557D01*
X85143757Y-25317246D01*
X85353713Y-25350500D01*
X85353718Y-25350500D01*
X85566282Y-25350500D01*
X85566287Y-25350500D01*
X85776243Y-25317246D01*
X85978412Y-25251557D01*
X86167816Y-25155051D01*
X86339792Y-25030104D01*
X86490104Y-24879792D01*
X86609456Y-24715517D01*
X86669396Y-24666979D01*
X86745574Y-24654913D01*
X86817580Y-24682553D01*
X86850544Y-24715517D01*
X86969896Y-24879792D01*
X87120208Y-25030104D01*
X87292184Y-25155051D01*
X87481588Y-25251557D01*
X87683757Y-25317246D01*
X87893713Y-25350500D01*
X87893718Y-25350500D01*
X88106282Y-25350500D01*
X88106287Y-25350500D01*
X88316243Y-25317246D01*
X88518412Y-25251557D01*
X88707816Y-25155051D01*
X88879792Y-25030104D01*
X89030104Y-24879792D01*
X89149456Y-24715517D01*
X89167670Y-24700767D01*
X89182420Y-24682553D01*
X89197142Y-24676901D01*
X89209396Y-24666979D01*
X89232544Y-24663312D01*
X89254426Y-24654913D01*
X89270000Y-24657379D01*
X89285574Y-24654913D01*
X89307455Y-24663312D01*
G37*
%TD.AperFunction*%
%TD*%
M02*
