%TF.GenerationSoftware,KiCad,Pcbnew,10.0.0*%
%TF.CreationDate,2026-03-30T21:08:37-04:00*%
%TF.ProjectId,geodude-carrier,67656f64-7564-4652-9d63-617272696572,rev?*%
%TF.SameCoordinates,Original*%
%TF.FileFunction,Soldermask,Bot*%
%TF.FilePolarity,Negative*%
%FSLAX46Y46*%
G04 Gerber Fmt 4.6, Leading zero omitted, Abs format (unit mm)*
G04 Created by KiCad (PCBNEW 10.0.0) date 2026-03-30 21:08:37*
%MOMM*%
%LPD*%
G01*
G04 APERTURE LIST*
G04 Aperture macros list*
%AMRoundRect*
0 Rectangle with rounded corners*
0 $1 Rounding radius*
0 $2 $3 $4 $5 $6 $7 $8 $9 X,Y pos of 4 corners*
0 Add a 4 corners polygon primitive as box body*
4,1,4,$2,$3,$4,$5,$6,$7,$8,$9,$2,$3,0*
0 Add four circle primitives for the rounded corners*
1,1,$1+$1,$2,$3*
1,1,$1+$1,$4,$5*
1,1,$1+$1,$6,$7*
1,1,$1+$1,$8,$9*
0 Add four rect primitives between the rounded corners*
20,1,$1+$1,$2,$3,$4,$5,0*
20,1,$1+$1,$4,$5,$6,$7,0*
20,1,$1+$1,$6,$7,$8,$9,0*
20,1,$1+$1,$8,$9,$2,$3,0*%
%AMFreePoly0*
4,1,37,0.603843,0.796157,0.639018,0.796157,0.711114,0.766294,0.766294,0.711114,0.796157,0.639018,0.796157,0.603843,0.800000,0.600000,0.800000,-0.600000,0.796157,-0.603843,0.796157,-0.639018,0.766294,-0.711114,0.711114,-0.766294,0.639018,-0.796157,0.603843,-0.796157,0.600000,-0.800000,0.000000,-0.800000,0.000000,-0.796148,-0.078414,-0.796148,-0.232228,-0.765552,-0.377117,-0.705537,
-0.507515,-0.618408,-0.618408,-0.507515,-0.705537,-0.377117,-0.765552,-0.232228,-0.796148,-0.078414,-0.796148,0.078414,-0.765552,0.232228,-0.705537,0.377117,-0.618408,0.507515,-0.507515,0.618408,-0.377117,0.705537,-0.232228,0.765552,-0.078414,0.796148,0.000000,0.796148,0.000000,0.800000,0.600000,0.800000,0.603843,0.796157,0.603843,0.796157,$1*%
%AMFreePoly1*
4,1,37,0.000000,0.796148,0.078414,0.796148,0.232228,0.765552,0.377117,0.705537,0.507515,0.618408,0.618408,0.507515,0.705537,0.377117,0.765552,0.232228,0.796148,0.078414,0.796148,-0.078414,0.765552,-0.232228,0.705537,-0.377117,0.618408,-0.507515,0.507515,-0.618408,0.377117,-0.705537,0.232228,-0.765552,0.078414,-0.796148,0.000000,-0.796148,0.000000,-0.800000,-0.600000,-0.800000,
-0.603843,-0.796157,-0.639018,-0.796157,-0.711114,-0.766294,-0.766294,-0.711114,-0.796157,-0.639018,-0.796157,-0.603843,-0.800000,-0.600000,-0.800000,0.600000,-0.796157,0.603843,-0.796157,0.639018,-0.766294,0.711114,-0.711114,0.766294,-0.639018,0.796157,-0.603843,0.796157,-0.600000,0.800000,0.000000,0.800000,0.000000,0.796148,0.000000,0.796148,$1*%
G04 Aperture macros list end*
%ADD10C,2.800000*%
%ADD11R,1.700000X1.700000*%
%ADD12C,1.700000*%
%ADD13RoundRect,0.250001X1.149999X-1.149999X1.149999X1.149999X-1.149999X1.149999X-1.149999X-1.149999X0*%
%ADD14RoundRect,0.200000X-0.600000X-0.600000X0.600000X-0.600000X0.600000X0.600000X-0.600000X0.600000X0*%
%ADD15C,1.600000*%
%ADD16FreePoly0,0.000000*%
%ADD17FreePoly1,0.000000*%
G04 APERTURE END LIST*
D10*
%TO.C,F2*%
X121400000Y-59600000D03*
X143600000Y-59600000D03*
%TD*%
D11*
%TO.C,SV4*%
X127000000Y-132000000D03*
D12*
X129540000Y-132000000D03*
X132080000Y-132000000D03*
%TD*%
D11*
%TO.C,J_SERIAL*%
X60700000Y-20860000D03*
D12*
X60700000Y-23400000D03*
X60700000Y-25940000D03*
X60700000Y-28480000D03*
%TD*%
D11*
%TO.C,J_FAN*%
X90000000Y-143340000D03*
D12*
X90000000Y-140800000D03*
X92540000Y-143340000D03*
X92540000Y-140800000D03*
X95080000Y-143340000D03*
X95080000Y-140800000D03*
X97620000Y-143340000D03*
X97620000Y-140800000D03*
%TD*%
D10*
%TO.C,F6*%
X76900000Y-42600000D03*
X99100000Y-42600000D03*
%TD*%
D11*
%TO.C,J_PCA_V*%
X149800000Y-21400000D03*
D12*
X147260000Y-21400000D03*
X144720000Y-21400000D03*
X142180000Y-21400000D03*
X139640000Y-21400000D03*
X137100000Y-21400000D03*
X134560000Y-21400000D03*
X132020000Y-21400000D03*
X129480000Y-21400000D03*
X126940000Y-21400000D03*
X124400000Y-21400000D03*
X121860000Y-21400000D03*
X119320000Y-21400000D03*
X116780000Y-21400000D03*
X114240000Y-21400000D03*
X111700000Y-21400000D03*
X109160000Y-21400000D03*
X106620000Y-21400000D03*
X104080000Y-21400000D03*
%TD*%
D11*
%TO.C,SV2*%
X103000000Y-132000000D03*
D12*
X105540000Y-132000000D03*
X108080000Y-132000000D03*
%TD*%
D13*
%TO.C,J4*%
X160000000Y-107000000D03*
D10*
X160000000Y-102000000D03*
%TD*%
D11*
%TO.C,SV6*%
X31000000Y-132000000D03*
D12*
X33540000Y-132000000D03*
X36080000Y-132000000D03*
%TD*%
D11*
%TO.C,J41*%
X24000000Y-65680000D03*
D12*
X24000000Y-68220000D03*
X24000000Y-70760000D03*
X24000000Y-73300000D03*
%TD*%
D13*
%TO.C,J2*%
X160000000Y-59000000D03*
D10*
X160000000Y-54000000D03*
%TD*%
D13*
%TO.C,J34*%
X13000000Y-83700000D03*
D10*
X13000000Y-78700000D03*
%TD*%
D13*
%TO.C,J32*%
X13000000Y-71700000D03*
D10*
X13000000Y-66700000D03*
%TD*%
D11*
%TO.C,SV1*%
X91000000Y-132000000D03*
D12*
X93540000Y-132000000D03*
X96080000Y-132000000D03*
%TD*%
D11*
%TO.C,SV3*%
X115000000Y-132000000D03*
D12*
X117540000Y-132000000D03*
X120080000Y-132000000D03*
%TD*%
D13*
%TO.C,J37*%
X13000000Y-95700000D03*
D10*
X13000000Y-90700000D03*
%TD*%
D11*
%TO.C,J44*%
X24000000Y-101680000D03*
D12*
X24000000Y-104220000D03*
X24000000Y-106760000D03*
X24000000Y-109300000D03*
%TD*%
D11*
%TO.C,J_FOC*%
X15000000Y-60000000D03*
D12*
X15000000Y-62540000D03*
X15000000Y-65080000D03*
X15000000Y-67620000D03*
X15000000Y-70160000D03*
X15000000Y-72700000D03*
X15000000Y-75240000D03*
X15000000Y-77780000D03*
X15000000Y-80320000D03*
X15000000Y-82860000D03*
X15000000Y-85400000D03*
%TD*%
D11*
%TO.C,SV10*%
X79000000Y-132000000D03*
D12*
X81540000Y-132000000D03*
X84080000Y-132000000D03*
%TD*%
D11*
%TO.C,J_IMU*%
X62300000Y-59940000D03*
D12*
X62300000Y-62480000D03*
X62300000Y-65020000D03*
X62300000Y-67560000D03*
X62300000Y-70100000D03*
X62300000Y-72640000D03*
X62300000Y-75180000D03*
X62300000Y-77720000D03*
X62300000Y-80260000D03*
%TD*%
D11*
%TO.C,SV7*%
X43000000Y-132000000D03*
D12*
X45540000Y-132000000D03*
X48080000Y-132000000D03*
%TD*%
D11*
%TO.C,J_PCA*%
X147260000Y-21400000D03*
D12*
X144720000Y-21400000D03*
X142180000Y-21400000D03*
X139640000Y-21400000D03*
X137100000Y-21400000D03*
X134560000Y-21400000D03*
X132020000Y-21400000D03*
X129480000Y-21400000D03*
X126940000Y-21400000D03*
X124400000Y-21400000D03*
X121860000Y-21400000D03*
X119320000Y-21400000D03*
X116780000Y-21400000D03*
X114240000Y-21400000D03*
X111700000Y-21400000D03*
X109160000Y-21400000D03*
X106620000Y-21400000D03*
X104080000Y-21400000D03*
X101540000Y-21400000D03*
%TD*%
D11*
%TO.C,J_MOTOR*%
X15000000Y-80000000D03*
D12*
X15000000Y-82540000D03*
X15000000Y-85080000D03*
%TD*%
D10*
%TO.C,F7*%
X76900000Y-59600000D03*
X99100000Y-59600000D03*
%TD*%
D11*
%TO.C,J_PCA_G*%
X152340000Y-21400000D03*
D12*
X149800000Y-21400000D03*
X147260000Y-21400000D03*
X144720000Y-21400000D03*
X142180000Y-21400000D03*
X139640000Y-21400000D03*
X137100000Y-21400000D03*
X134560000Y-21400000D03*
X132020000Y-21400000D03*
X129480000Y-21400000D03*
X126940000Y-21400000D03*
X124400000Y-21400000D03*
X121860000Y-21400000D03*
X119320000Y-21400000D03*
X116780000Y-21400000D03*
X114240000Y-21400000D03*
X111700000Y-21400000D03*
X109160000Y-21400000D03*
X106620000Y-21400000D03*
%TD*%
D13*
%TO.C,J1*%
X160000000Y-47000000D03*
D10*
X160000000Y-42000000D03*
%TD*%
D11*
%TO.C,J_ENC*%
X51900000Y-89580000D03*
D12*
X51900000Y-92120000D03*
X51900000Y-94660000D03*
X51900000Y-97200000D03*
%TD*%
D11*
%TO.C,SV9*%
X67000000Y-132000000D03*
D12*
X69540000Y-132000000D03*
X72080000Y-132000000D03*
%TD*%
D11*
%TO.C,SV5*%
X139000000Y-132000000D03*
D12*
X141540000Y-132000000D03*
X144080000Y-132000000D03*
%TD*%
D11*
%TO.C,J43*%
X24000000Y-89680000D03*
D12*
X24000000Y-92220000D03*
X24000000Y-94760000D03*
X24000000Y-97300000D03*
%TD*%
D14*
%TO.C,J_PICO*%
X28610000Y-32582500D03*
D15*
X28610000Y-35122500D03*
D16*
X28610000Y-37662500D03*
D15*
X28610000Y-40202500D03*
X28610000Y-42742500D03*
X28610000Y-45282500D03*
X28610000Y-47822500D03*
D16*
X28610000Y-50362500D03*
D15*
X28610000Y-52902500D03*
X28610000Y-55442500D03*
X28610000Y-57982500D03*
X28610000Y-60522500D03*
D16*
X28610000Y-63062500D03*
D15*
X28610000Y-65602500D03*
X28610000Y-68142500D03*
X28610000Y-70682500D03*
X28610000Y-73222500D03*
D16*
X28610000Y-75762500D03*
D15*
X28610000Y-78302500D03*
X28610000Y-80842500D03*
X46390000Y-80842500D03*
X46390000Y-78302500D03*
D17*
X46390000Y-75762500D03*
D15*
X46390000Y-73222500D03*
X46390000Y-70682500D03*
X46390000Y-68142500D03*
X46390000Y-65602500D03*
D17*
X46390000Y-63062500D03*
D15*
X46390000Y-60522500D03*
X46390000Y-57982500D03*
X46390000Y-55442500D03*
X46390000Y-52902500D03*
D17*
X46390000Y-50362500D03*
D15*
X46390000Y-47822500D03*
X46390000Y-45282500D03*
X46390000Y-42742500D03*
X46390000Y-40202500D03*
D17*
X46390000Y-37662500D03*
D15*
X46390000Y-35122500D03*
X46390000Y-32582500D03*
%TD*%
D13*
%TO.C,J39*%
X13000000Y-107700000D03*
D10*
X13000000Y-102700000D03*
%TD*%
D11*
%TO.C,SV8*%
X55000000Y-132000000D03*
D12*
X57540000Y-132000000D03*
X60080000Y-132000000D03*
%TD*%
D11*
%TO.C,J40*%
X24000000Y-53680000D03*
D12*
X24000000Y-56220000D03*
X24000000Y-58760000D03*
X24000000Y-61300000D03*
%TD*%
D13*
%TO.C,J6*%
X160000000Y-83000000D03*
D10*
X160000000Y-78000000D03*
%TD*%
%TO.C,F4*%
X121400000Y-93600000D03*
X143600000Y-93600000D03*
%TD*%
%TO.C,F3*%
X121400000Y-76600000D03*
X143600000Y-76600000D03*
%TD*%
D13*
%TO.C,J5*%
X160000000Y-71000000D03*
D10*
X160000000Y-66000000D03*
%TD*%
D13*
%TO.C,J31*%
X13000000Y-59700000D03*
D10*
X13000000Y-54700000D03*
%TD*%
%TO.C,F5*%
X121400000Y-110600000D03*
X143600000Y-110600000D03*
%TD*%
%TO.C,F9*%
X76900000Y-93600000D03*
X99100000Y-93600000D03*
%TD*%
D11*
%TO.C,J42*%
X24000000Y-77680000D03*
D12*
X24000000Y-80220000D03*
X24000000Y-82760000D03*
X24000000Y-85300000D03*
%TD*%
D13*
%TO.C,J3*%
X160000000Y-95000000D03*
D10*
X160000000Y-90000000D03*
%TD*%
%TO.C,F8*%
X76900000Y-76600000D03*
X99100000Y-76600000D03*
%TD*%
%TO.C,F1*%
X121400000Y-42600000D03*
X143600000Y-42600000D03*
%TD*%
%TO.C,F10*%
X76900000Y-110600000D03*
X99100000Y-110600000D03*
%TD*%
M02*
