%TF.GenerationSoftware,KiCad,Pcbnew,10.0.0*%
%TF.CreationDate,2026-03-30T19:48:00-04:00*%
%TF.ProjectId,geodude-carrier,67656f64-7564-4652-9d63-617272696572,rev?*%
%TF.SameCoordinates,Original*%
%TF.FileFunction,Copper,L2,Bot*%
%TF.FilePolarity,Positive*%
%FSLAX46Y46*%
G04 Gerber Fmt 4.6, Leading zero omitted, Abs format (unit mm)*
G04 Created by KiCad (PCBNEW 10.0.0) date 2026-03-30 19:48:00*
%MOMM*%
%LPD*%
G01*
G04 APERTURE LIST*
G04 Aperture macros list*
%AMRoundRect*
0 Rectangle with rounded corners*
0 $1 Rounding radius*
0 $2 $3 $4 $5 $6 $7 $8 $9 X,Y pos of 4 corners*
0 Add a 4 corners polygon primitive as box body*
4,1,4,$2,$3,$4,$5,$6,$7,$8,$9,$2,$3,0*
0 Add four circle primitives for the rounded corners*
1,1,$1+$1,$2,$3*
1,1,$1+$1,$4,$5*
1,1,$1+$1,$6,$7*
1,1,$1+$1,$8,$9*
0 Add four rect primitives between the rounded corners*
20,1,$1+$1,$2,$3,$4,$5,0*
20,1,$1+$1,$4,$5,$6,$7,0*
20,1,$1+$1,$6,$7,$8,$9,0*
20,1,$1+$1,$8,$9,$2,$3,0*%
G04 Aperture macros list end*
%TA.AperFunction,ComponentPad*%
%ADD10C,2.800000*%
%TD*%
%TA.AperFunction,ComponentPad*%
%ADD11R,1.700000X1.700000*%
%TD*%
%TA.AperFunction,ComponentPad*%
%ADD12C,1.700000*%
%TD*%
%TA.AperFunction,ComponentPad*%
%ADD13RoundRect,0.250001X1.149999X-1.149999X1.149999X1.149999X-1.149999X1.149999X-1.149999X-1.149999X0*%
%TD*%
%TA.AperFunction,ViaPad*%
%ADD14C,0.600000*%
%TD*%
%TA.AperFunction,Conductor*%
%ADD15C,3.000000*%
%TD*%
%TA.AperFunction,Conductor*%
%ADD16C,2.000000*%
%TD*%
%TA.AperFunction,Conductor*%
%ADD17C,0.400000*%
%TD*%
%TA.AperFunction,Conductor*%
%ADD18C,1.699800*%
%TD*%
%TA.AperFunction,Conductor*%
%ADD19C,0.600000*%
%TD*%
%TA.AperFunction,Conductor*%
%ADD20C,1.000000*%
%TD*%
%TA.AperFunction,Conductor*%
%ADD21C,1.500000*%
%TD*%
G04 APERTURE END LIST*
D10*
%TO.P,F2,1*%
%TO.N,+12V*%
X87185000Y-60900000D03*
%TO.P,F2,2*%
%TO.N,SV2_PWR*%
X109385000Y-60900000D03*
%TD*%
D11*
%TO.P,SV4,1*%
%TO.N,PWM_CH3*%
X91000000Y-124300000D03*
D12*
%TO.P,SV4,2*%
%TO.N,SV4_PWR*%
X93540000Y-124300000D03*
%TO.P,SV4,3*%
%TO.N,GND*%
X96080000Y-124300000D03*
%TD*%
D11*
%TO.P,J_FAN,1*%
%TO.N,GND*%
X116460000Y-120500000D03*
D12*
%TO.P,J_FAN,2*%
%TO.N,N/C*%
X116460000Y-117960000D03*
%TO.P,J_FAN,3*%
%TO.N,+12V*%
X119000000Y-120500000D03*
%TO.P,J_FAN,4*%
%TO.N,N/C*%
X119000000Y-117960000D03*
%TO.P,J_FAN,5*%
%TO.N,TACH*%
X121540000Y-120500000D03*
%TO.P,J_FAN,6*%
X121540000Y-117960000D03*
%TO.P,J_FAN,7*%
%TO.N,PWM_CH12*%
X124080000Y-120500000D03*
%TO.P,J_FAN,8*%
X124080000Y-117960000D03*
%TD*%
D10*
%TO.P,F6,1*%
%TO.N,+12V*%
X42685000Y-43900000D03*
%TO.P,F6,2*%
%TO.N,SV6_PWR*%
X64885000Y-43900000D03*
%TD*%
D11*
%TO.P,SV2,1*%
%TO.N,PWM_CH1*%
X63000000Y-124300000D03*
D12*
%TO.P,SV2,2*%
%TO.N,SV2_PWR*%
X65540000Y-124300000D03*
%TO.P,SV2,3*%
%TO.N,GND*%
X68080000Y-124300000D03*
%TD*%
D13*
%TO.P,J4,1*%
%TO.N,GND*%
X130900000Y-107000000D03*
D10*
%TO.P,J4,2*%
X130900000Y-102000000D03*
%TD*%
D11*
%TO.P,SV6,1*%
%TO.N,PWM_CH5*%
X48960000Y-132500000D03*
D12*
%TO.P,SV6,2*%
%TO.N,SV6_PWR*%
X51500000Y-132500000D03*
%TO.P,SV6,3*%
%TO.N,GND*%
X54040000Y-132500000D03*
%TD*%
D11*
%TO.P,J41,1*%
%TO.N,SDA*%
X24000000Y-65680000D03*
D12*
%TO.P,J41,2*%
X24000000Y-68220000D03*
%TO.P,J41,3*%
X24000000Y-70760000D03*
%TO.P,J41,4*%
X24000000Y-73300000D03*
%TD*%
D13*
%TO.P,J2,1*%
%TO.N,+12V*%
X130900000Y-59000000D03*
D10*
%TO.P,J2,2*%
X130900000Y-54000000D03*
%TD*%
D13*
%TO.P,J34,1*%
%TO.N,+3V3*%
X13000000Y-83700000D03*
D10*
%TO.P,J34,2*%
X13000000Y-78700000D03*
%TD*%
D13*
%TO.P,J32,1*%
%TO.N,SDA*%
X13000000Y-71700000D03*
D10*
%TO.P,J32,2*%
X13000000Y-66700000D03*
%TD*%
D11*
%TO.P,SV1,1*%
%TO.N,PWM_CH0*%
X49000000Y-124300000D03*
D12*
%TO.P,SV1,2*%
%TO.N,SV1_PWR*%
X51540000Y-124300000D03*
%TO.P,SV1,3*%
%TO.N,GND*%
X54080000Y-124300000D03*
%TD*%
D11*
%TO.P,J_ESC,1*%
%TO.N,PWM_CH11*%
X116460000Y-132500000D03*
D12*
%TO.P,J_ESC,2*%
%TO.N,N/C*%
X119000000Y-132500000D03*
%TO.P,J_ESC,3*%
%TO.N,GND*%
X121540000Y-132500000D03*
%TD*%
D11*
%TO.P,SV3,1*%
%TO.N,PWM_CH2*%
X77000000Y-124300000D03*
D12*
%TO.P,SV3,2*%
%TO.N,SV3_PWR*%
X79540000Y-124300000D03*
%TO.P,SV3,3*%
%TO.N,GND*%
X82080000Y-124300000D03*
%TD*%
D13*
%TO.P,J37,1*%
%TO.N,+5V_LOGIC*%
X13000000Y-95700000D03*
D10*
%TO.P,J37,2*%
X13000000Y-90700000D03*
%TD*%
D11*
%TO.P,J44,1*%
%TO.N,GND_LOGIC*%
X24000000Y-101680000D03*
D12*
%TO.P,J44,2*%
X24000000Y-104220000D03*
%TO.P,J44,3*%
X24000000Y-106760000D03*
%TO.P,J44,4*%
X24000000Y-109300000D03*
%TD*%
D11*
%TO.P,SV10,1*%
%TO.N,PWM_CH9*%
X104960000Y-132500000D03*
D12*
%TO.P,SV10,2*%
%TO.N,SV10_PWR*%
X107500000Y-132500000D03*
%TO.P,SV10,3*%
%TO.N,GND*%
X110040000Y-132500000D03*
%TD*%
D11*
%TO.P,SV7,1*%
%TO.N,PWM_CH6*%
X62960000Y-132500000D03*
D12*
%TO.P,SV7,2*%
%TO.N,SV7_PWR*%
X65500000Y-132500000D03*
%TO.P,SV7,3*%
%TO.N,GND*%
X68040000Y-132500000D03*
%TD*%
D10*
%TO.P,F7,1*%
%TO.N,+12V*%
X42685000Y-60900000D03*
%TO.P,F7,2*%
%TO.N,SV7_PWR*%
X64885000Y-60900000D03*
%TD*%
D13*
%TO.P,J1,1*%
%TO.N,+12V*%
X130900000Y-47000000D03*
D10*
%TO.P,J1,2*%
X130900000Y-42000000D03*
%TD*%
D11*
%TO.P,SV9,1*%
%TO.N,PWM_CH8*%
X90960000Y-132500000D03*
D12*
%TO.P,SV9,2*%
%TO.N,SV9_PWR*%
X93500000Y-132500000D03*
%TO.P,SV9,3*%
%TO.N,GND*%
X96040000Y-132500000D03*
%TD*%
D11*
%TO.P,SV5,1*%
%TO.N,PWM_CH4*%
X105000000Y-124300000D03*
D12*
%TO.P,SV5,2*%
%TO.N,SV5_PWR*%
X107540000Y-124300000D03*
%TO.P,SV5,3*%
%TO.N,GND*%
X110080000Y-124300000D03*
%TD*%
D11*
%TO.P,J43,1*%
%TO.N,+5V_LOGIC*%
X24000000Y-89680000D03*
D12*
%TO.P,J43,2*%
X24000000Y-92220000D03*
%TO.P,J43,3*%
X24000000Y-94760000D03*
%TO.P,J43,4*%
X24000000Y-97300000D03*
%TD*%
D13*
%TO.P,J39,1*%
%TO.N,GND_LOGIC*%
X13000000Y-107700000D03*
D10*
%TO.P,J39,2*%
X13000000Y-102700000D03*
%TD*%
D11*
%TO.P,SV8,1*%
%TO.N,PWM_CH7*%
X76960000Y-132500000D03*
D12*
%TO.P,SV8,2*%
%TO.N,SV8_PWR*%
X79500000Y-132500000D03*
%TO.P,SV8,3*%
%TO.N,GND*%
X82040000Y-132500000D03*
%TD*%
D11*
%TO.P,J40,1*%
%TO.N,SCL*%
X24000000Y-53680000D03*
D12*
%TO.P,J40,2*%
X24000000Y-56220000D03*
%TO.P,J40,3*%
X24000000Y-58760000D03*
%TO.P,J40,4*%
X24000000Y-61300000D03*
%TD*%
D13*
%TO.P,J6,1*%
%TO.N,+5V_SERVO*%
X130900000Y-83000000D03*
D10*
%TO.P,J6,2*%
X130900000Y-78000000D03*
%TD*%
%TO.P,F4,1*%
%TO.N,+5V_SERVO*%
X87185000Y-94900000D03*
%TO.P,F4,2*%
%TO.N,SV4_PWR*%
X109385000Y-94900000D03*
%TD*%
%TO.P,F3,1*%
%TO.N,+7V4*%
X87185000Y-77900000D03*
%TO.P,F3,2*%
%TO.N,SV3_PWR*%
X109385000Y-77900000D03*
%TD*%
D13*
%TO.P,J5,1*%
%TO.N,+7V4*%
X130900000Y-71000000D03*
D10*
%TO.P,J5,2*%
X130900000Y-66000000D03*
%TD*%
D13*
%TO.P,J31,1*%
%TO.N,SCL*%
X13000000Y-59700000D03*
D10*
%TO.P,J31,2*%
X13000000Y-54700000D03*
%TD*%
%TO.P,F5,1*%
%TO.N,+5V_SERVO*%
X87185000Y-111900000D03*
%TO.P,F5,2*%
%TO.N,SV5_PWR*%
X109385000Y-111900000D03*
%TD*%
%TO.P,F9,1*%
%TO.N,+5V_SERVO*%
X42685000Y-94900000D03*
%TO.P,F9,2*%
%TO.N,SV9_PWR*%
X64885000Y-94900000D03*
%TD*%
D11*
%TO.P,J42,1*%
%TO.N,+3V3*%
X24000000Y-77680000D03*
D12*
%TO.P,J42,2*%
X24000000Y-80220000D03*
%TO.P,J42,3*%
X24000000Y-82760000D03*
%TO.P,J42,4*%
X24000000Y-85300000D03*
%TD*%
D13*
%TO.P,J3,1*%
%TO.N,GND*%
X130900000Y-95000000D03*
D10*
%TO.P,J3,2*%
X130900000Y-90000000D03*
%TD*%
%TO.P,F8,1*%
%TO.N,+7V4*%
X42685000Y-77900000D03*
%TO.P,F8,2*%
%TO.N,SV8_PWR*%
X64885000Y-77900000D03*
%TD*%
D11*
%TO.P,J_PCA,1*%
%TO.N,PWM_CH0*%
X98160000Y-24000000D03*
D12*
%TO.P,J_PCA,2*%
%TO.N,PWM_CH1*%
X95620000Y-24000000D03*
%TO.P,J_PCA,3*%
%TO.N,PWM_CH2*%
X93080000Y-24000000D03*
%TO.P,J_PCA,4*%
%TO.N,PWM_CH3*%
X90540000Y-24000000D03*
%TO.P,J_PCA,5*%
%TO.N,N/C*%
X88000000Y-24000000D03*
%TO.P,J_PCA,6*%
%TO.N,PWM_CH4*%
X85460000Y-24000000D03*
%TO.P,J_PCA,7*%
%TO.N,PWM_CH5*%
X82920000Y-24000000D03*
%TO.P,J_PCA,8*%
%TO.N,PWM_CH6*%
X80380000Y-24000000D03*
%TO.P,J_PCA,9*%
%TO.N,PWM_CH7*%
X77840000Y-24000000D03*
%TO.P,J_PCA,10*%
%TO.N,N/C*%
X75300000Y-24000000D03*
%TO.P,J_PCA,11*%
%TO.N,PWM_CH8*%
X72760000Y-24000000D03*
%TO.P,J_PCA,12*%
%TO.N,PWM_CH9*%
X70220000Y-24000000D03*
%TO.P,J_PCA,13*%
%TO.N,PWM_CH10*%
X67680000Y-24000000D03*
%TO.P,J_PCA,14*%
%TO.N,PWM_CH11*%
X65140000Y-24000000D03*
%TO.P,J_PCA,15*%
%TO.N,N/C*%
X62600000Y-24000000D03*
%TO.P,J_PCA,16*%
%TO.N,PWM_CH12*%
X60060000Y-24000000D03*
%TO.P,J_PCA,17*%
%TO.N,PWM_CH13*%
X57520000Y-24000000D03*
%TO.P,J_PCA,18*%
%TO.N,PWM_CH14*%
X54980000Y-24000000D03*
%TO.P,J_PCA,19*%
%TO.N,PWM_CH15*%
X52440000Y-24000000D03*
%TD*%
D10*
%TO.P,F1,1*%
%TO.N,+12V*%
X87185000Y-43900000D03*
%TO.P,F1,2*%
%TO.N,SV1_PWR*%
X109385000Y-43900000D03*
%TD*%
%TO.P,F10,1*%
%TO.N,+5V_SERVO*%
X42685000Y-111900000D03*
%TO.P,F10,2*%
%TO.N,SV10_PWR*%
X64885000Y-111900000D03*
%TD*%
D14*
%TO.N,PWM_CH3*%
X82873700Y-118088500D03*
%TO.N,PWM_CH12*%
X113779500Y-22146600D03*
%TO.N,PWM_CH1*%
X68202300Y-32248000D03*
%TO.N,PWM_CH5*%
X72548900Y-125757300D03*
X77066000Y-29264000D03*
%TO.N,PWM_CH0*%
X67356000Y-33106100D03*
%TO.N,PWM_CH11*%
X65140000Y-37996800D03*
X101847500Y-37996800D03*
%TO.N,PWM_CH9*%
X73900000Y-109403400D03*
%TO.N,PWM_CH6*%
X59620800Y-128079300D03*
X75866300Y-127739800D03*
%TO.N,PWM_CH8*%
X74601800Y-118784000D03*
%TO.N,+5V_SERVO*%
X68535300Y-91928000D03*
X63822100Y-85902100D03*
%TO.N,+7V4*%
X84275400Y-66989800D03*
%TD*%
%TO.N,+12V*%
D15*
X42685000Y-43900000D02*
X45786700Y-40798300D01*
X130900000Y-42000000D02*
X129669600Y-40769600D01*
X84083300Y-40798300D02*
X87185000Y-43900000D01*
X90315400Y-40769600D02*
X87185000Y-43900000D01*
X45786700Y-40798300D02*
X84083300Y-40798300D01*
X129669600Y-40769600D02*
X90315400Y-40769600D01*
%TO.N,SV2_PWR*%
D16*
X65540000Y-122562600D02*
X62239500Y-119262100D01*
X86099300Y-71393200D02*
X96592500Y-60900000D01*
X62239500Y-93865000D02*
X84711300Y-71393200D01*
X96592500Y-60900000D02*
X109385000Y-60900000D01*
X65540000Y-124300000D02*
X65540000Y-122562600D01*
X62239500Y-119262100D02*
X62239500Y-93865000D01*
X84711300Y-71393200D02*
X86099300Y-71393200D01*
%TO.N,PWM_CH3*%
D17*
X83536800Y-118088500D02*
X82873700Y-118088500D01*
X89748300Y-124300000D02*
X83536800Y-118088500D01*
X91000000Y-124300000D02*
X89748300Y-124300000D01*
%TO.N,GND*%
D15*
X115243700Y-121716300D02*
X114871100Y-121716300D01*
X66557300Y-129948300D02*
X68574500Y-131965500D01*
D18*
X121550200Y-130444600D02*
X121550200Y-132489800D01*
X68574500Y-131965500D02*
X68040000Y-132500000D01*
D15*
X60582600Y-129948300D02*
X66557300Y-129948300D01*
X96614500Y-123765500D02*
X98663700Y-121716300D01*
D18*
X96614500Y-123765500D02*
X96080000Y-124300000D01*
D15*
X54051900Y-132500000D02*
X58030900Y-132500000D01*
D18*
X110614500Y-123765500D02*
X110080000Y-124300000D01*
X121550200Y-132489800D02*
X121540000Y-132500000D01*
D15*
X110614500Y-123765500D02*
X114871100Y-123765500D01*
X115927000Y-121033000D02*
X115243700Y-121716300D01*
X80557300Y-129948300D02*
X82574500Y-131965500D01*
X70591700Y-129948300D02*
X80557300Y-129948300D01*
D18*
X115927000Y-121033000D02*
X116460000Y-120500000D01*
D15*
X58030900Y-132500000D02*
X60582600Y-129948300D01*
X68574500Y-131965500D02*
X70591700Y-129948300D01*
X114871100Y-123765500D02*
X121550200Y-130444600D01*
D18*
X54051900Y-132500000D02*
X54040000Y-132500000D01*
D15*
X98663700Y-121716300D02*
X114871100Y-121716300D01*
X114871100Y-121716300D02*
X114871100Y-123765500D01*
D18*
X82574500Y-131965500D02*
X82040000Y-132500000D01*
%TO.N,PWM_CH12*%
D17*
X60060000Y-24000000D02*
X61913400Y-22146600D01*
X61913400Y-22146600D02*
X113779500Y-22146600D01*
%TO.N,PWM_CH1*%
X95620000Y-24000000D02*
X87372000Y-32248000D01*
X87372000Y-32248000D02*
X68202300Y-32248000D01*
%TO.N,PWM_CH5*%
X50211700Y-131952400D02*
X56406800Y-125757300D01*
X50211700Y-132500000D02*
X50211700Y-131952400D01*
X56406800Y-125757300D02*
X72548900Y-125757300D01*
X77656000Y-29264000D02*
X77066000Y-29264000D01*
X48960000Y-132500000D02*
X50211700Y-132500000D01*
X82920000Y-24000000D02*
X77656000Y-29264000D01*
%TO.N,SDA*%
X14020000Y-65680000D02*
X13000000Y-66700000D01*
X24000000Y-65680000D02*
X14020000Y-65680000D01*
%TO.N,+3V3*%
D19*
X24000000Y-82760000D02*
X13940000Y-82760000D01*
X13940000Y-82760000D02*
X13000000Y-83700000D01*
%TO.N,PWM_CH0*%
D17*
X98160000Y-24000000D02*
X96908300Y-24000000D01*
X88349800Y-33106100D02*
X67356000Y-33106100D01*
X96908300Y-24547600D02*
X88349800Y-33106100D01*
X96908300Y-24000000D02*
X96908300Y-24547600D01*
%TO.N,SV1_PWR*%
D16*
X86477100Y-67901800D02*
X86477100Y-66807900D01*
X51540000Y-101423200D02*
X83771700Y-69191500D01*
X85187400Y-69191500D02*
X86477100Y-67901800D01*
X51540000Y-124300000D02*
X51540000Y-101423200D01*
X83771700Y-69191500D02*
X85187400Y-69191500D01*
X86477100Y-66807900D02*
X109385000Y-43900000D01*
%TO.N,PWM_CH11*%
D17*
X101847500Y-37996800D02*
X65140000Y-37996800D01*
%TO.N,+5V_LOGIC*%
D19*
X13940000Y-94760000D02*
X13000000Y-95700000D01*
X24000000Y-94760000D02*
X13940000Y-94760000D01*
%TO.N,GND_LOGIC*%
X14520000Y-104220000D02*
X13000000Y-102700000D01*
X24000000Y-104220000D02*
X14520000Y-104220000D01*
%TO.N,PWM_CH9*%
D17*
X104960000Y-132500000D02*
X99969900Y-132500000D01*
X78424200Y-109403400D02*
X73900000Y-109403400D01*
X92288300Y-124818400D02*
X92288300Y-123267500D01*
X92288300Y-123267500D02*
X78424200Y-109403400D01*
X99969900Y-132500000D02*
X92288300Y-124818400D01*
%TO.N,SV10_PWR*%
D20*
X82828200Y-127556200D02*
X77508700Y-127556200D01*
X107500000Y-132693800D02*
X106090700Y-134103100D01*
X77508700Y-127556200D02*
X64885000Y-114932500D01*
X107500000Y-132500000D02*
X107500000Y-132693800D01*
X64885000Y-114932500D02*
X64885000Y-111900000D01*
X106090700Y-134103100D02*
X89375100Y-134103100D01*
X89375100Y-134103100D02*
X82828200Y-127556200D01*
%TO.N,PWM_CH6*%
D17*
X59620800Y-128079300D02*
X59960300Y-127739800D01*
X59960300Y-127739800D02*
X75866300Y-127739800D01*
%TO.N,PWM_CH8*%
X90960000Y-131248300D02*
X78495700Y-118784000D01*
X90960000Y-132500000D02*
X90960000Y-131248300D01*
X78495700Y-118784000D02*
X74601800Y-118784000D01*
%TO.N,SV9_PWR*%
D20*
X64885000Y-102550000D02*
X64885000Y-94900000D01*
X93500000Y-132500000D02*
X93500000Y-131165000D01*
X93500000Y-131165000D02*
X64885000Y-102550000D01*
%TO.N,SCL*%
D17*
X14020000Y-53680000D02*
X13000000Y-54700000D01*
X24000000Y-53680000D02*
X14020000Y-53680000D01*
%TO.N,+5V_SERVO*%
D21*
X84213000Y-91928000D02*
X87185000Y-94900000D01*
X54824200Y-94900000D02*
X63822100Y-85902100D01*
X42685000Y-94900000D02*
X54824200Y-94900000D01*
X68535300Y-91928000D02*
X84213000Y-91928000D01*
X99085000Y-83000000D02*
X87185000Y-94900000D01*
X130900000Y-83000000D02*
X99085000Y-83000000D01*
%TO.N,+7V4*%
D16*
X94085000Y-71000000D02*
X87185000Y-77900000D01*
X130900000Y-71000000D02*
X94085000Y-71000000D01*
X53595200Y-66989800D02*
X84275400Y-66989800D01*
X42685000Y-77900000D02*
X53595200Y-66989800D01*
%TD*%
%TA.AperFunction,Conductor*%
%TO.N,GND*%
G36*
X83248635Y-118829036D02*
G01*
X83258802Y-118829068D01*
X83283797Y-118843601D01*
X83310501Y-118854662D01*
X83325156Y-118867513D01*
X89301757Y-124844114D01*
X89416489Y-124920775D01*
X89416493Y-124920776D01*
X89416497Y-124920779D01*
X89550734Y-124976381D01*
X89550248Y-124977553D01*
X89609247Y-125014239D01*
X89645607Y-125082259D01*
X89649500Y-125116095D01*
X89649500Y-125197862D01*
X89649501Y-125197872D01*
X89655908Y-125257478D01*
X89655909Y-125257484D01*
X89706202Y-125392329D01*
X89706204Y-125392333D01*
X89792452Y-125507544D01*
X89792455Y-125507547D01*
X89907666Y-125593795D01*
X89907670Y-125593797D01*
X90042517Y-125644091D01*
X90102114Y-125650499D01*
X90102118Y-125650499D01*
X90102127Y-125650500D01*
X91897872Y-125650499D01*
X91957483Y-125644091D01*
X91988559Y-125632499D01*
X92065337Y-125625168D01*
X92135495Y-125657207D01*
X92145989Y-125666746D01*
X99327484Y-132848241D01*
X99366048Y-132915036D01*
X99366048Y-132992164D01*
X99327484Y-133058959D01*
X99260689Y-133097523D01*
X99222125Y-133102600D01*
X97468758Y-133102600D01*
X97394258Y-133082638D01*
X97339720Y-133028100D01*
X97319758Y-132953600D01*
X97327050Y-132907557D01*
X97356758Y-132816122D01*
X97390000Y-132606242D01*
X97390000Y-132393757D01*
X97356757Y-132183871D01*
X97291093Y-131981779D01*
X97194621Y-131792444D01*
X97155270Y-131738282D01*
X96522962Y-132370589D01*
X96505925Y-132307007D01*
X96440099Y-132192993D01*
X96347007Y-132099901D01*
X96232993Y-132034075D01*
X96169407Y-132017037D01*
X96801716Y-131384729D01*
X96801716Y-131384728D01*
X96747555Y-131345378D01*
X96747555Y-131345377D01*
X96558220Y-131248906D01*
X96356128Y-131183242D01*
X96146242Y-131150000D01*
X95933758Y-131150000D01*
X95723871Y-131183242D01*
X95521779Y-131248906D01*
X95332444Y-131345378D01*
X95278282Y-131384728D01*
X95278282Y-131384729D01*
X95910590Y-132017037D01*
X95847007Y-132034075D01*
X95732993Y-132099901D01*
X95639901Y-132192993D01*
X95574075Y-132307007D01*
X95557037Y-132370590D01*
X94924729Y-131738282D01*
X94924727Y-131738282D01*
X94890852Y-131784908D01*
X94830912Y-131833446D01*
X94754734Y-131845512D01*
X94682729Y-131817871D01*
X94649765Y-131784908D01*
X94528956Y-131618628D01*
X94501316Y-131546622D01*
X94500500Y-131531048D01*
X94500500Y-131066460D01*
X94499037Y-131059107D01*
X94462051Y-130873165D01*
X94386632Y-130691086D01*
X94277139Y-130527218D01*
X94137782Y-130387861D01*
X94134050Y-130384129D01*
X94134035Y-130384115D01*
X82888065Y-119138145D01*
X82849501Y-119071350D01*
X82849501Y-118994222D01*
X82888065Y-118927427D01*
X82954860Y-118888863D01*
X82955301Y-118888746D01*
X82959784Y-118887559D01*
X83107197Y-118858237D01*
X83172016Y-118831387D01*
X83181674Y-118828832D01*
X83210581Y-118828920D01*
X83239244Y-118825147D01*
X83248635Y-118829036D01*
G37*
%TD.AperFunction*%
%TA.AperFunction,Conductor*%
G36*
X83195270Y-125061716D02*
G01*
X83234620Y-125007557D01*
X83234624Y-125007550D01*
X83308254Y-124863045D01*
X83359863Y-124805727D01*
X83433216Y-124781893D01*
X83508658Y-124797929D01*
X83546373Y-124825330D01*
X89780150Y-131059107D01*
X89818714Y-131125902D01*
X89818714Y-131203030D01*
X89780150Y-131269825D01*
X89764090Y-131283742D01*
X89752455Y-131292452D01*
X89752452Y-131292455D01*
X89666204Y-131407666D01*
X89666202Y-131407670D01*
X89615908Y-131542517D01*
X89609500Y-131602114D01*
X89609500Y-132562861D01*
X89589538Y-132637361D01*
X89535000Y-132691899D01*
X89460500Y-132711861D01*
X89386000Y-132691899D01*
X89355141Y-132668220D01*
X83613834Y-126926914D01*
X83613832Y-126926911D01*
X83465985Y-126779064D01*
X83465982Y-126779061D01*
X83433119Y-126757102D01*
X83302119Y-126669570D01*
X83302109Y-126669565D01*
X83213068Y-126632683D01*
X83173365Y-126616238D01*
X83146700Y-126605193D01*
X83120037Y-126594149D01*
X83023388Y-126574924D01*
X83023388Y-126574923D01*
X82926741Y-126555700D01*
X77984839Y-126555700D01*
X77910339Y-126535738D01*
X77879480Y-126512059D01*
X77272279Y-125904858D01*
X77233715Y-125838063D01*
X77233715Y-125760935D01*
X77272279Y-125694140D01*
X77339074Y-125655576D01*
X77377638Y-125650499D01*
X77897864Y-125650499D01*
X77897872Y-125650499D01*
X77957483Y-125644091D01*
X78078282Y-125599036D01*
X78092329Y-125593797D01*
X78092333Y-125593795D01*
X78149938Y-125550671D01*
X78207546Y-125507546D01*
X78293796Y-125392331D01*
X78293797Y-125392329D01*
X78293798Y-125392327D01*
X78329215Y-125297367D01*
X78373953Y-125234540D01*
X78444110Y-125202498D01*
X78520889Y-125209829D01*
X78574180Y-125244076D01*
X78660208Y-125330104D01*
X78832184Y-125455051D01*
X79021588Y-125551557D01*
X79223757Y-125617246D01*
X79433713Y-125650500D01*
X79433718Y-125650500D01*
X79646282Y-125650500D01*
X79646287Y-125650500D01*
X79856243Y-125617246D01*
X80058412Y-125551557D01*
X80247816Y-125455051D01*
X80419792Y-125330104D01*
X80570104Y-125179792D01*
X80689767Y-125015089D01*
X80749704Y-124966552D01*
X80825883Y-124954486D01*
X80897888Y-124982126D01*
X80930852Y-125015089D01*
X80964729Y-125061716D01*
X81597037Y-124429408D01*
X81614075Y-124492993D01*
X81679901Y-124607007D01*
X81772993Y-124700099D01*
X81887007Y-124765925D01*
X81950590Y-124782962D01*
X81318282Y-125415270D01*
X81372444Y-125454621D01*
X81372444Y-125454622D01*
X81561779Y-125551093D01*
X81763871Y-125616757D01*
X81973758Y-125650000D01*
X82186242Y-125650000D01*
X82396128Y-125616757D01*
X82598220Y-125551093D01*
X82787555Y-125454622D01*
X82787557Y-125454620D01*
X82841716Y-125415270D01*
X82841716Y-125415269D01*
X82209409Y-124782962D01*
X82272993Y-124765925D01*
X82387007Y-124700099D01*
X82480099Y-124607007D01*
X82545925Y-124492993D01*
X82562962Y-124429408D01*
X83195270Y-125061716D01*
G37*
%TD.AperFunction*%
%TA.AperFunction,Conductor*%
G36*
X63963500Y-102999388D02*
G01*
X64012888Y-103045645D01*
X64107861Y-103187782D01*
X64247218Y-103327139D01*
X64247221Y-103327141D01*
X78765234Y-117845154D01*
X78803798Y-117911949D01*
X78803798Y-117989077D01*
X78765234Y-118055872D01*
X78698439Y-118094436D01*
X78630807Y-118096650D01*
X78564700Y-118083501D01*
X78564698Y-118083500D01*
X78564694Y-118083500D01*
X78564693Y-118083500D01*
X78564690Y-118083500D01*
X75032089Y-118083500D01*
X74975070Y-118072158D01*
X74835298Y-118014263D01*
X74835294Y-118014262D01*
X74680642Y-117983500D01*
X74522958Y-117983500D01*
X74368305Y-118014262D01*
X74368301Y-118014263D01*
X74222623Y-118074604D01*
X74091507Y-118162214D01*
X73980014Y-118273707D01*
X73892404Y-118404823D01*
X73832063Y-118550501D01*
X73832062Y-118550505D01*
X73801300Y-118705157D01*
X73801300Y-118862842D01*
X73832062Y-119017494D01*
X73832063Y-119017498D01*
X73892404Y-119163176D01*
X73892405Y-119163178D01*
X73892406Y-119163179D01*
X73980011Y-119294289D01*
X74091511Y-119405789D01*
X74222621Y-119493394D01*
X74222622Y-119493394D01*
X74222623Y-119493395D01*
X74295462Y-119523565D01*
X74368303Y-119553737D01*
X74522958Y-119584500D01*
X74680642Y-119584500D01*
X74835297Y-119553737D01*
X74915844Y-119520373D01*
X74975070Y-119495842D01*
X75032089Y-119484500D01*
X78143825Y-119484500D01*
X78218325Y-119504462D01*
X78249184Y-119528141D01*
X81554669Y-122833626D01*
X81593233Y-122900421D01*
X81593233Y-122977549D01*
X81554669Y-123044344D01*
X81516956Y-123071745D01*
X81372441Y-123145379D01*
X81318282Y-123184728D01*
X81318282Y-123184729D01*
X81950591Y-123817037D01*
X81887007Y-123834075D01*
X81772993Y-123899901D01*
X81679901Y-123992993D01*
X81614075Y-124107007D01*
X81597037Y-124170590D01*
X80964729Y-123538282D01*
X80964727Y-123538282D01*
X80930852Y-123584908D01*
X80870912Y-123633446D01*
X80794734Y-123645512D01*
X80722729Y-123617871D01*
X80689765Y-123584908D01*
X80655889Y-123538282D01*
X80570104Y-123420208D01*
X80419792Y-123269896D01*
X80247816Y-123144949D01*
X80058412Y-123048443D01*
X79856243Y-122982754D01*
X79646287Y-122949500D01*
X79433713Y-122949500D01*
X79258749Y-122977211D01*
X79223756Y-122982754D01*
X79034203Y-123044344D01*
X79021588Y-123048443D01*
X79021582Y-123048445D01*
X79021582Y-123048446D01*
X78832182Y-123144950D01*
X78832181Y-123144950D01*
X78660209Y-123269895D01*
X78660198Y-123269904D01*
X78574179Y-123355923D01*
X78507384Y-123394487D01*
X78430256Y-123394487D01*
X78363462Y-123355922D01*
X78329215Y-123302633D01*
X78317008Y-123269904D01*
X78293796Y-123207669D01*
X78293795Y-123207668D01*
X78293795Y-123207666D01*
X78207547Y-123092455D01*
X78207544Y-123092452D01*
X78092333Y-123006204D01*
X78092329Y-123006202D01*
X77957482Y-122955908D01*
X77897876Y-122949500D01*
X76102136Y-122949500D01*
X76102111Y-122949502D01*
X76042521Y-122955908D01*
X76042515Y-122955909D01*
X75907670Y-123006202D01*
X75907666Y-123006204D01*
X75792455Y-123092452D01*
X75792452Y-123092455D01*
X75706204Y-123207666D01*
X75706202Y-123207670D01*
X75655908Y-123342517D01*
X75649500Y-123402114D01*
X75649500Y-123922361D01*
X75629538Y-123996861D01*
X75575000Y-124051399D01*
X75500500Y-124071361D01*
X75426000Y-124051399D01*
X75395141Y-124027720D01*
X65929141Y-114561720D01*
X65890577Y-114494925D01*
X65885500Y-114456361D01*
X65885500Y-113601295D01*
X65905462Y-113526795D01*
X65943791Y-113483089D01*
X66140776Y-113331938D01*
X66316938Y-113155776D01*
X66468599Y-112958127D01*
X66593164Y-112742373D01*
X66688502Y-112512207D01*
X66752982Y-112271565D01*
X66785500Y-112024565D01*
X66785500Y-111775435D01*
X66752982Y-111528435D01*
X66688502Y-111287793D01*
X66593164Y-111057627D01*
X66468599Y-110841873D01*
X66316938Y-110644224D01*
X66140776Y-110468062D01*
X65943127Y-110316401D01*
X65727380Y-110191840D01*
X65727377Y-110191838D01*
X65727375Y-110191837D01*
X65727373Y-110191836D01*
X65592548Y-110135989D01*
X65497210Y-110096499D01*
X65497208Y-110096498D01*
X65497207Y-110096498D01*
X65256565Y-110032018D01*
X65256563Y-110032017D01*
X65256557Y-110032016D01*
X65009570Y-109999500D01*
X65009565Y-109999500D01*
X64760435Y-109999500D01*
X64760429Y-109999500D01*
X64513442Y-110032016D01*
X64272789Y-110096499D01*
X64110032Y-110163915D01*
X64042627Y-110191836D01*
X64042625Y-110191836D01*
X64042618Y-110191840D01*
X63963499Y-110237519D01*
X63888999Y-110257481D01*
X63814499Y-110237518D01*
X63759962Y-110182980D01*
X63740000Y-110108481D01*
X63740000Y-103128426D01*
X63759962Y-103053926D01*
X63814500Y-102999388D01*
X63889000Y-102979426D01*
X63963500Y-102999388D01*
G37*
%TD.AperFunction*%
%TA.AperFunction,Conductor*%
G36*
X140487501Y-4504465D02*
G01*
X140647271Y-4544485D01*
X140661264Y-4548730D01*
X141174074Y-4732216D01*
X141187572Y-4737807D01*
X141679959Y-4970688D01*
X141692818Y-4977562D01*
X142159997Y-5257579D01*
X142172141Y-5265694D01*
X142343989Y-5393145D01*
X142609610Y-5590143D01*
X142620913Y-5599419D01*
X142801395Y-5762997D01*
X143024484Y-5965193D01*
X143034804Y-5975513D01*
X143217696Y-6177303D01*
X143400578Y-6379084D01*
X143409854Y-6390387D01*
X143734299Y-6827850D01*
X143742423Y-6840008D01*
X144022428Y-7307168D01*
X144029320Y-7320063D01*
X144262185Y-7812415D01*
X144267781Y-7825924D01*
X144451268Y-8338733D01*
X144455513Y-8352726D01*
X144495535Y-8512503D01*
X144500000Y-8548707D01*
X144500000Y-148451289D01*
X144495535Y-148487494D01*
X144455512Y-148647272D01*
X144451267Y-148661264D01*
X144267781Y-149174073D01*
X144262185Y-149187582D01*
X144029320Y-149679934D01*
X144022428Y-149692829D01*
X143742423Y-150159989D01*
X143734299Y-150172147D01*
X143409854Y-150609610D01*
X143400578Y-150620913D01*
X143034814Y-151024474D01*
X143024474Y-151034814D01*
X142620913Y-151400578D01*
X142609610Y-151409854D01*
X142172147Y-151734299D01*
X142159990Y-151742422D01*
X141692833Y-152022427D01*
X141679943Y-152029317D01*
X141433759Y-152145753D01*
X141187582Y-152262186D01*
X141174074Y-152267781D01*
X140661264Y-152451267D01*
X140647272Y-152455512D01*
X140487494Y-152495535D01*
X140451289Y-152500000D01*
X9548709Y-152500000D01*
X9512505Y-152495535D01*
X9352726Y-152455512D01*
X9338733Y-152451267D01*
X8825924Y-152267781D01*
X8812415Y-152262185D01*
X8320063Y-152029320D01*
X8307168Y-152022428D01*
X7840008Y-151742423D01*
X7827850Y-151734299D01*
X7390387Y-151409854D01*
X7379084Y-151400578D01*
X7177303Y-151217696D01*
X6975513Y-151034804D01*
X6965193Y-151024484D01*
X6762997Y-150801395D01*
X6599419Y-150620913D01*
X6590143Y-150609610D01*
X6265698Y-150172147D01*
X6257575Y-150159990D01*
X5977562Y-149692818D01*
X5970688Y-149679959D01*
X5737807Y-149187572D01*
X5732216Y-149174074D01*
X5548730Y-148661264D01*
X5544485Y-148647271D01*
X5504465Y-148487501D01*
X5500000Y-148451297D01*
X5500000Y-140378706D01*
X47149500Y-140378706D01*
X47149500Y-140621293D01*
X47181160Y-140861781D01*
X47181161Y-140861787D01*
X47181162Y-140861789D01*
X47243946Y-141096100D01*
X47336776Y-141320212D01*
X47458064Y-141530289D01*
X47605735Y-141722738D01*
X47777262Y-141894265D01*
X47969711Y-142041936D01*
X48179788Y-142163224D01*
X48403900Y-142256054D01*
X48638211Y-142318838D01*
X48638217Y-142318838D01*
X48638218Y-142318839D01*
X48703600Y-142327446D01*
X48878712Y-142350500D01*
X49121288Y-142350500D01*
X49361789Y-142318838D01*
X49596100Y-142256054D01*
X49820212Y-142163224D01*
X50030289Y-142041936D01*
X50222738Y-141894265D01*
X50394265Y-141722738D01*
X50541936Y-141530289D01*
X50663224Y-141320212D01*
X50756054Y-141096100D01*
X50818838Y-140861789D01*
X50850500Y-140621288D01*
X50850500Y-140378712D01*
X50850499Y-140378706D01*
X97149500Y-140378706D01*
X97149500Y-140621293D01*
X97181160Y-140861781D01*
X97181161Y-140861787D01*
X97181162Y-140861789D01*
X97243946Y-141096100D01*
X97336776Y-141320212D01*
X97458064Y-141530289D01*
X97605735Y-141722738D01*
X97777262Y-141894265D01*
X97969711Y-142041936D01*
X98179788Y-142163224D01*
X98403900Y-142256054D01*
X98638211Y-142318838D01*
X98638217Y-142318838D01*
X98638218Y-142318839D01*
X98703600Y-142327446D01*
X98878712Y-142350500D01*
X99121288Y-142350500D01*
X99361789Y-142318838D01*
X99596100Y-142256054D01*
X99820212Y-142163224D01*
X100030289Y-142041936D01*
X100222738Y-141894265D01*
X100394265Y-141722738D01*
X100541936Y-141530289D01*
X100663224Y-141320212D01*
X100756054Y-141096100D01*
X100818838Y-140861789D01*
X100850500Y-140621288D01*
X100850500Y-140378712D01*
X100818838Y-140138211D01*
X100756054Y-139903900D01*
X100663224Y-139679788D01*
X100541936Y-139469711D01*
X100394265Y-139277262D01*
X100222738Y-139105735D01*
X100030289Y-138958064D01*
X99960263Y-138917634D01*
X99820216Y-138836778D01*
X99820214Y-138836777D01*
X99820212Y-138836776D01*
X99688932Y-138782398D01*
X99596103Y-138743947D01*
X99596101Y-138743946D01*
X99596100Y-138743946D01*
X99361789Y-138681162D01*
X99361787Y-138681161D01*
X99361781Y-138681160D01*
X99121293Y-138649500D01*
X99121288Y-138649500D01*
X98878712Y-138649500D01*
X98878706Y-138649500D01*
X98638218Y-138681160D01*
X98403896Y-138743947D01*
X98179783Y-138836778D01*
X97969712Y-138958063D01*
X97969711Y-138958064D01*
X97777262Y-139105735D01*
X97777260Y-139105736D01*
X97777256Y-139105740D01*
X97605740Y-139277256D01*
X97458063Y-139469712D01*
X97336778Y-139679783D01*
X97243947Y-139903896D01*
X97181160Y-140138218D01*
X97149500Y-140378706D01*
X50850499Y-140378706D01*
X50818838Y-140138211D01*
X50756054Y-139903900D01*
X50663224Y-139679788D01*
X50541936Y-139469711D01*
X50394265Y-139277262D01*
X50222738Y-139105735D01*
X50030289Y-138958064D01*
X49960263Y-138917634D01*
X49820216Y-138836778D01*
X49820214Y-138836777D01*
X49820212Y-138836776D01*
X49688932Y-138782398D01*
X49596103Y-138743947D01*
X49596101Y-138743946D01*
X49596100Y-138743946D01*
X49361789Y-138681162D01*
X49361787Y-138681161D01*
X49361781Y-138681160D01*
X49121293Y-138649500D01*
X49121288Y-138649500D01*
X48878712Y-138649500D01*
X48878706Y-138649500D01*
X48638218Y-138681160D01*
X48403896Y-138743947D01*
X48179783Y-138836778D01*
X47969712Y-138958063D01*
X47969711Y-138958064D01*
X47777262Y-139105735D01*
X47777260Y-139105736D01*
X47777256Y-139105740D01*
X47605740Y-139277256D01*
X47458063Y-139469712D01*
X47336778Y-139679783D01*
X47243947Y-139903896D01*
X47181160Y-140138218D01*
X47149500Y-140378706D01*
X5500000Y-140378706D01*
X5500000Y-111775429D01*
X40784500Y-111775429D01*
X40784500Y-112024570D01*
X40817016Y-112271557D01*
X40817017Y-112271563D01*
X40817018Y-112271565D01*
X40881498Y-112512207D01*
X40976836Y-112742373D01*
X41101401Y-112958127D01*
X41253062Y-113155776D01*
X41429224Y-113331938D01*
X41626873Y-113483599D01*
X41842627Y-113608164D01*
X42072793Y-113703502D01*
X42313435Y-113767982D01*
X42313441Y-113767982D01*
X42313442Y-113767983D01*
X42380586Y-113776822D01*
X42560435Y-113800500D01*
X42809565Y-113800500D01*
X43056565Y-113767982D01*
X43297207Y-113703502D01*
X43527373Y-113608164D01*
X43743127Y-113483599D01*
X43940776Y-113331938D01*
X44116938Y-113155776D01*
X44268599Y-112958127D01*
X44393164Y-112742373D01*
X44488502Y-112512207D01*
X44552982Y-112271565D01*
X44585500Y-112024565D01*
X44585500Y-111775435D01*
X44552982Y-111528435D01*
X44488502Y-111287793D01*
X44393164Y-111057627D01*
X44268599Y-110841873D01*
X44116938Y-110644224D01*
X43940776Y-110468062D01*
X43743127Y-110316401D01*
X43527380Y-110191840D01*
X43527377Y-110191838D01*
X43527375Y-110191837D01*
X43527373Y-110191836D01*
X43392548Y-110135989D01*
X43297210Y-110096499D01*
X43297208Y-110096498D01*
X43297207Y-110096498D01*
X43056565Y-110032018D01*
X43056563Y-110032017D01*
X43056557Y-110032016D01*
X42809570Y-109999500D01*
X42809565Y-109999500D01*
X42560435Y-109999500D01*
X42560429Y-109999500D01*
X42313442Y-110032016D01*
X42072789Y-110096499D01*
X41842622Y-110191838D01*
X41626874Y-110316400D01*
X41429222Y-110468063D01*
X41253063Y-110644222D01*
X41101400Y-110841874D01*
X40976838Y-111057622D01*
X40881499Y-111287789D01*
X40817016Y-111528442D01*
X40784500Y-111775429D01*
X5500000Y-111775429D01*
X5500000Y-106499992D01*
X11099500Y-106499992D01*
X11099500Y-108900008D01*
X11108056Y-108983756D01*
X11110001Y-109002798D01*
X11165187Y-109169336D01*
X11179983Y-109193324D01*
X11257289Y-109318655D01*
X11381345Y-109442711D01*
X11530666Y-109534814D01*
X11697203Y-109589999D01*
X11799992Y-109600500D01*
X11799996Y-109600500D01*
X14200004Y-109600500D01*
X14200008Y-109600500D01*
X14302797Y-109589999D01*
X14469334Y-109534814D01*
X14618655Y-109442711D01*
X14742711Y-109318655D01*
X14834814Y-109169334D01*
X14889999Y-109002797D01*
X14900500Y-108900008D01*
X14900500Y-106499992D01*
X14889999Y-106397203D01*
X14834814Y-106230666D01*
X14742711Y-106081345D01*
X14618655Y-105957289D01*
X14493690Y-105880209D01*
X14469336Y-105865187D01*
X14469335Y-105865186D01*
X14469334Y-105865186D01*
X14385332Y-105837350D01*
X14302798Y-105810001D01*
X14302799Y-105810001D01*
X14268534Y-105806500D01*
X14200008Y-105799500D01*
X11799992Y-105799500D01*
X11731466Y-105806500D01*
X11697201Y-105810001D01*
X11530663Y-105865187D01*
X11381344Y-105957289D01*
X11257289Y-106081344D01*
X11165187Y-106230663D01*
X11110001Y-106397201D01*
X11110001Y-106397203D01*
X11099500Y-106499992D01*
X5500000Y-106499992D01*
X5500000Y-102575429D01*
X11099500Y-102575429D01*
X11099500Y-102824570D01*
X11132016Y-103071557D01*
X11132017Y-103071563D01*
X11132018Y-103071565D01*
X11174989Y-103231936D01*
X11196499Y-103312210D01*
X11208096Y-103340208D01*
X11291836Y-103542373D01*
X11416401Y-103758127D01*
X11568062Y-103955776D01*
X11744224Y-104131938D01*
X11941873Y-104283599D01*
X12157627Y-104408164D01*
X12387793Y-104503502D01*
X12628435Y-104567982D01*
X12628441Y-104567982D01*
X12628442Y-104567983D01*
X12695586Y-104576822D01*
X12875435Y-104600500D01*
X13124565Y-104600500D01*
X13371565Y-104567982D01*
X13575820Y-104513252D01*
X13652942Y-104513252D01*
X13719737Y-104551816D01*
X13719738Y-104551816D01*
X14009711Y-104841789D01*
X14140821Y-104929394D01*
X14140823Y-104929395D01*
X14140825Y-104929396D01*
X14178041Y-104944811D01*
X14286503Y-104989738D01*
X14441158Y-105020500D01*
X22836367Y-105020500D01*
X22910867Y-105040462D01*
X22956910Y-105081919D01*
X22969892Y-105099787D01*
X22969896Y-105099792D01*
X23120208Y-105250104D01*
X23130636Y-105257680D01*
X23284482Y-105369456D01*
X23333020Y-105429396D01*
X23345086Y-105505575D01*
X23317446Y-105577580D01*
X23284482Y-105610544D01*
X23120209Y-105729895D01*
X23120206Y-105729897D01*
X22969897Y-105880206D01*
X22969895Y-105880209D01*
X22844950Y-106052181D01*
X22844950Y-106052182D01*
X22748446Y-106241582D01*
X22748441Y-106241594D01*
X22689181Y-106423978D01*
X22682754Y-106443757D01*
X22649500Y-106653713D01*
X22649500Y-106866287D01*
X22682754Y-107076243D01*
X22748443Y-107278412D01*
X22844949Y-107467816D01*
X22969896Y-107639792D01*
X23120208Y-107790104D01*
X23198844Y-107847236D01*
X23284482Y-107909456D01*
X23333020Y-107969396D01*
X23345086Y-108045575D01*
X23317446Y-108117580D01*
X23284482Y-108150544D01*
X23120209Y-108269895D01*
X23120206Y-108269897D01*
X22969897Y-108420206D01*
X22969895Y-108420209D01*
X22844950Y-108592181D01*
X22844950Y-108592182D01*
X22748446Y-108781582D01*
X22748441Y-108781594D01*
X22723198Y-108859285D01*
X22682754Y-108983757D01*
X22649500Y-109193713D01*
X22649500Y-109406287D01*
X22682754Y-109616243D01*
X22748443Y-109818412D01*
X22748446Y-109818417D01*
X22844950Y-110007817D01*
X22844950Y-110007818D01*
X22907422Y-110093804D01*
X22969896Y-110179792D01*
X23120208Y-110330104D01*
X23292184Y-110455051D01*
X23481588Y-110551557D01*
X23683757Y-110617246D01*
X23893713Y-110650500D01*
X23893718Y-110650500D01*
X24106282Y-110650500D01*
X24106287Y-110650500D01*
X24316243Y-110617246D01*
X24518412Y-110551557D01*
X24707816Y-110455051D01*
X24879792Y-110330104D01*
X25030104Y-110179792D01*
X25155051Y-110007816D01*
X25251557Y-109818412D01*
X25317246Y-109616243D01*
X25350500Y-109406287D01*
X25350500Y-109193713D01*
X25317246Y-108983757D01*
X25251557Y-108781588D01*
X25155051Y-108592184D01*
X25030104Y-108420208D01*
X24879792Y-108269896D01*
X24715517Y-108150544D01*
X24666979Y-108090604D01*
X24654913Y-108014426D01*
X24682553Y-107942420D01*
X24715517Y-107909456D01*
X24722519Y-107904368D01*
X24879792Y-107790104D01*
X25030104Y-107639792D01*
X25155051Y-107467816D01*
X25251557Y-107278412D01*
X25317246Y-107076243D01*
X25350500Y-106866287D01*
X25350500Y-106653713D01*
X25317246Y-106443757D01*
X25251557Y-106241588D01*
X25155051Y-106052184D01*
X25030104Y-105880208D01*
X24879792Y-105729896D01*
X24715517Y-105610544D01*
X24666979Y-105550604D01*
X24654913Y-105474426D01*
X24682553Y-105402420D01*
X24715517Y-105369456D01*
X24722519Y-105364368D01*
X24879792Y-105250104D01*
X25030104Y-105099792D01*
X25155051Y-104927816D01*
X25251557Y-104738412D01*
X25317246Y-104536243D01*
X25350500Y-104326287D01*
X25350500Y-104113713D01*
X25317246Y-103903757D01*
X25251557Y-103701588D01*
X25155051Y-103512184D01*
X25152446Y-103508599D01*
X25130283Y-103478093D01*
X25030104Y-103340208D01*
X24944076Y-103254180D01*
X24905512Y-103187385D01*
X24905512Y-103110257D01*
X24944076Y-103043462D01*
X24997366Y-103009215D01*
X25028278Y-102997685D01*
X25092327Y-102973798D01*
X25092333Y-102973795D01*
X25149938Y-102930671D01*
X25207546Y-102887546D01*
X25293796Y-102772331D01*
X25344091Y-102637483D01*
X25346826Y-102612048D01*
X25350499Y-102577885D01*
X25350499Y-102577882D01*
X25350500Y-102577873D01*
X25350499Y-100782128D01*
X25344091Y-100722517D01*
X25312108Y-100636766D01*
X25293797Y-100587670D01*
X25293795Y-100587666D01*
X25207547Y-100472455D01*
X25207544Y-100472452D01*
X25092333Y-100386204D01*
X25092329Y-100386202D01*
X24957482Y-100335908D01*
X24897876Y-100329500D01*
X23102136Y-100329500D01*
X23102111Y-100329502D01*
X23042521Y-100335908D01*
X23042515Y-100335909D01*
X22907670Y-100386202D01*
X22907666Y-100386204D01*
X22792455Y-100472452D01*
X22792452Y-100472455D01*
X22706204Y-100587666D01*
X22706202Y-100587670D01*
X22655908Y-100722517D01*
X22649500Y-100782114D01*
X22649500Y-102577863D01*
X22649502Y-102577888D01*
X22655908Y-102637478D01*
X22655909Y-102637484D01*
X22706202Y-102772329D01*
X22706204Y-102772333D01*
X22792452Y-102887544D01*
X22792455Y-102887547D01*
X22907666Y-102973795D01*
X22907668Y-102973795D01*
X22907669Y-102973796D01*
X23002633Y-103009215D01*
X23065460Y-103053953D01*
X23097501Y-103124111D01*
X23090170Y-103200890D01*
X23059210Y-103250787D01*
X23057576Y-103252527D01*
X22969896Y-103340208D01*
X22951416Y-103365643D01*
X22945013Y-103372466D01*
X22919917Y-103388035D01*
X22896969Y-103406619D01*
X22886316Y-103408883D01*
X22879475Y-103413128D01*
X22864043Y-103413617D01*
X22836367Y-103419500D01*
X14968933Y-103419500D01*
X14894433Y-103399538D01*
X14839895Y-103345000D01*
X14819933Y-103270500D01*
X14825009Y-103231940D01*
X14867982Y-103071565D01*
X14900500Y-102824565D01*
X14900500Y-102575435D01*
X14867982Y-102328435D01*
X14803502Y-102087793D01*
X14708164Y-101857627D01*
X14583599Y-101641873D01*
X14431938Y-101444224D01*
X14255776Y-101268062D01*
X14058127Y-101116401D01*
X13980931Y-101071832D01*
X13842377Y-100991838D01*
X13842375Y-100991837D01*
X13842373Y-100991836D01*
X13707548Y-100935989D01*
X13612210Y-100896499D01*
X13612208Y-100896498D01*
X13612207Y-100896498D01*
X13371565Y-100832018D01*
X13371563Y-100832017D01*
X13371557Y-100832016D01*
X13124570Y-100799500D01*
X13124565Y-100799500D01*
X12875435Y-100799500D01*
X12875429Y-100799500D01*
X12628442Y-100832016D01*
X12387789Y-100896499D01*
X12157622Y-100991838D01*
X11941874Y-101116400D01*
X11744222Y-101268063D01*
X11568063Y-101444222D01*
X11416400Y-101641874D01*
X11291838Y-101857622D01*
X11196499Y-102087789D01*
X11132016Y-102328442D01*
X11099500Y-102575429D01*
X5500000Y-102575429D01*
X5500000Y-94499992D01*
X11099500Y-94499992D01*
X11099500Y-96900008D01*
X11110001Y-97002797D01*
X11165186Y-97169334D01*
X11257289Y-97318655D01*
X11381345Y-97442711D01*
X11530666Y-97534814D01*
X11697203Y-97589999D01*
X11799992Y-97600500D01*
X11799996Y-97600500D01*
X14200004Y-97600500D01*
X14200008Y-97600500D01*
X14302797Y-97589999D01*
X14469334Y-97534814D01*
X14618655Y-97442711D01*
X14742711Y-97318655D01*
X14834814Y-97169334D01*
X14889999Y-97002797D01*
X14900500Y-96900008D01*
X14900500Y-95709500D01*
X14920462Y-95635000D01*
X14975000Y-95580462D01*
X15049500Y-95560500D01*
X22836367Y-95560500D01*
X22910867Y-95580462D01*
X22956910Y-95621919D01*
X22959164Y-95625021D01*
X22969896Y-95639792D01*
X23120208Y-95790104D01*
X23198844Y-95847236D01*
X23284482Y-95909456D01*
X23333020Y-95969396D01*
X23345086Y-96045575D01*
X23317446Y-96117580D01*
X23284482Y-96150544D01*
X23120209Y-96269895D01*
X23120206Y-96269897D01*
X22969897Y-96420206D01*
X22969895Y-96420209D01*
X22844950Y-96592181D01*
X22844950Y-96592182D01*
X22768452Y-96742319D01*
X22748443Y-96781588D01*
X22682754Y-96983757D01*
X22649500Y-97193713D01*
X22649500Y-97406287D01*
X22682754Y-97616243D01*
X22748443Y-97818412D01*
X22844949Y-98007816D01*
X22969896Y-98179792D01*
X23120208Y-98330104D01*
X23292184Y-98455051D01*
X23481588Y-98551557D01*
X23683757Y-98617246D01*
X23893713Y-98650500D01*
X23893718Y-98650500D01*
X24106282Y-98650500D01*
X24106287Y-98650500D01*
X24316243Y-98617246D01*
X24518412Y-98551557D01*
X24707816Y-98455051D01*
X24879792Y-98330104D01*
X25030104Y-98179792D01*
X25155051Y-98007816D01*
X25251557Y-97818412D01*
X25317246Y-97616243D01*
X25350500Y-97406287D01*
X25350500Y-97193713D01*
X25317246Y-96983757D01*
X25251557Y-96781588D01*
X25155051Y-96592184D01*
X25030104Y-96420208D01*
X24879792Y-96269896D01*
X24715517Y-96150544D01*
X24666979Y-96090604D01*
X24654913Y-96014426D01*
X24682553Y-95942420D01*
X24715517Y-95909456D01*
X24722519Y-95904368D01*
X24879792Y-95790104D01*
X25030104Y-95639792D01*
X25155051Y-95467816D01*
X25251557Y-95278412D01*
X25317246Y-95076243D01*
X25350500Y-94866287D01*
X25350500Y-94653713D01*
X25317246Y-94443757D01*
X25251557Y-94241588D01*
X25155051Y-94052184D01*
X25030104Y-93880208D01*
X24879792Y-93729896D01*
X24715517Y-93610544D01*
X24666979Y-93550604D01*
X24654913Y-93474426D01*
X24682553Y-93402420D01*
X24715517Y-93369456D01*
X24788541Y-93316401D01*
X24879792Y-93250104D01*
X25030104Y-93099792D01*
X25155051Y-92927816D01*
X25251557Y-92738412D01*
X25317246Y-92536243D01*
X25350500Y-92326287D01*
X25350500Y-92113713D01*
X25317246Y-91903757D01*
X25251557Y-91701588D01*
X25155051Y-91512184D01*
X25152446Y-91508599D01*
X25108392Y-91447963D01*
X25030104Y-91340208D01*
X24944075Y-91254179D01*
X24905512Y-91187385D01*
X24905512Y-91110257D01*
X24944076Y-91043462D01*
X24997366Y-91009215D01*
X25028278Y-90997685D01*
X25092327Y-90973798D01*
X25092333Y-90973795D01*
X25149938Y-90930671D01*
X25207546Y-90887546D01*
X25293796Y-90772331D01*
X25344091Y-90637483D01*
X25346826Y-90612048D01*
X25350499Y-90577885D01*
X25350499Y-90577882D01*
X25350500Y-90577873D01*
X25350499Y-88782128D01*
X25344091Y-88722517D01*
X25329588Y-88683633D01*
X25293797Y-88587670D01*
X25293795Y-88587666D01*
X25207547Y-88472455D01*
X25207544Y-88472452D01*
X25092333Y-88386204D01*
X25092329Y-88386202D01*
X24957482Y-88335908D01*
X24897876Y-88329500D01*
X23102136Y-88329500D01*
X23102111Y-88329502D01*
X23042521Y-88335908D01*
X23042515Y-88335909D01*
X22907670Y-88386202D01*
X22907666Y-88386204D01*
X22792455Y-88472452D01*
X22792452Y-88472455D01*
X22706204Y-88587666D01*
X22706202Y-88587670D01*
X22655908Y-88722517D01*
X22649500Y-88782114D01*
X22649500Y-90577863D01*
X22649502Y-90577888D01*
X22655908Y-90637478D01*
X22655909Y-90637484D01*
X22706202Y-90772329D01*
X22706204Y-90772333D01*
X22792452Y-90887544D01*
X22792455Y-90887547D01*
X22907666Y-90973795D01*
X22907668Y-90973795D01*
X22907669Y-90973796D01*
X23002633Y-91009215D01*
X23065460Y-91053953D01*
X23097501Y-91124111D01*
X23090170Y-91200890D01*
X23055923Y-91254179D01*
X22969904Y-91340198D01*
X22969895Y-91340209D01*
X22844950Y-91512181D01*
X22844950Y-91512182D01*
X22748446Y-91701582D01*
X22748441Y-91701594D01*
X22683975Y-91900000D01*
X22682754Y-91903757D01*
X22649500Y-92113713D01*
X22649500Y-92326287D01*
X22682754Y-92536243D01*
X22748443Y-92738412D01*
X22821520Y-92881834D01*
X22844950Y-92927817D01*
X22844950Y-92927818D01*
X22893341Y-92994423D01*
X22969896Y-93099792D01*
X23120208Y-93250104D01*
X23130636Y-93257680D01*
X23284482Y-93369456D01*
X23333020Y-93429396D01*
X23345086Y-93505575D01*
X23317446Y-93577580D01*
X23284482Y-93610544D01*
X23120209Y-93729895D01*
X23120206Y-93729897D01*
X22969892Y-93880212D01*
X22956910Y-93898081D01*
X22896969Y-93946619D01*
X22836367Y-93959500D01*
X14664496Y-93959500D01*
X14589996Y-93939538D01*
X14586274Y-93937316D01*
X14469336Y-93865187D01*
X14469335Y-93865186D01*
X14469334Y-93865186D01*
X14385332Y-93837350D01*
X14302798Y-93810001D01*
X14302799Y-93810001D01*
X14268534Y-93806500D01*
X14200008Y-93799500D01*
X11799992Y-93799500D01*
X11731466Y-93806500D01*
X11697201Y-93810001D01*
X11530663Y-93865187D01*
X11381344Y-93957289D01*
X11257289Y-94081344D01*
X11165187Y-94230663D01*
X11110001Y-94397201D01*
X11110001Y-94397203D01*
X11099500Y-94499992D01*
X5500000Y-94499992D01*
X5500000Y-90575429D01*
X11099500Y-90575429D01*
X11099500Y-90824570D01*
X11132016Y-91071557D01*
X11132017Y-91071563D01*
X11132018Y-91071565D01*
X11185883Y-91272593D01*
X11196499Y-91312210D01*
X11208096Y-91340208D01*
X11291836Y-91542373D01*
X11416401Y-91758127D01*
X11568062Y-91955776D01*
X11744224Y-92131938D01*
X11941873Y-92283599D01*
X12157627Y-92408164D01*
X12387793Y-92503502D01*
X12628435Y-92567982D01*
X12628441Y-92567982D01*
X12628442Y-92567983D01*
X12695586Y-92576822D01*
X12875435Y-92600500D01*
X13124565Y-92600500D01*
X13371565Y-92567982D01*
X13612207Y-92503502D01*
X13842373Y-92408164D01*
X14058127Y-92283599D01*
X14255776Y-92131938D01*
X14431938Y-91955776D01*
X14583599Y-91758127D01*
X14708164Y-91542373D01*
X14803502Y-91312207D01*
X14867982Y-91071565D01*
X14900500Y-90824565D01*
X14900500Y-90575435D01*
X14867982Y-90328435D01*
X14803502Y-90087793D01*
X14708164Y-89857627D01*
X14583599Y-89641873D01*
X14431938Y-89444224D01*
X14255776Y-89268062D01*
X14058127Y-89116401D01*
X13986209Y-89074879D01*
X13842377Y-88991838D01*
X13842375Y-88991837D01*
X13842373Y-88991836D01*
X13707548Y-88935989D01*
X13612210Y-88896499D01*
X13612208Y-88896498D01*
X13612207Y-88896498D01*
X13371565Y-88832018D01*
X13371563Y-88832017D01*
X13371557Y-88832016D01*
X13124570Y-88799500D01*
X13124565Y-88799500D01*
X12875435Y-88799500D01*
X12875429Y-88799500D01*
X12628442Y-88832016D01*
X12387789Y-88896499D01*
X12157622Y-88991838D01*
X11941874Y-89116400D01*
X11744222Y-89268063D01*
X11568063Y-89444222D01*
X11416400Y-89641874D01*
X11291838Y-89857622D01*
X11196499Y-90087789D01*
X11132016Y-90328442D01*
X11099500Y-90575429D01*
X5500000Y-90575429D01*
X5500000Y-82499992D01*
X11099500Y-82499992D01*
X11099500Y-84900008D01*
X11110001Y-85002797D01*
X11165186Y-85169334D01*
X11257289Y-85318655D01*
X11381345Y-85442711D01*
X11530666Y-85534814D01*
X11697203Y-85589999D01*
X11799992Y-85600500D01*
X11799996Y-85600500D01*
X14200004Y-85600500D01*
X14200008Y-85600500D01*
X14302797Y-85589999D01*
X14469334Y-85534814D01*
X14618655Y-85442711D01*
X14742711Y-85318655D01*
X14834814Y-85169334D01*
X14889999Y-85002797D01*
X14900500Y-84900008D01*
X14900500Y-83709500D01*
X14920462Y-83635000D01*
X14975000Y-83580462D01*
X15049500Y-83560500D01*
X22836367Y-83560500D01*
X22910867Y-83580462D01*
X22956910Y-83621919D01*
X22966414Y-83635000D01*
X22969896Y-83639792D01*
X23120208Y-83790104D01*
X23198844Y-83847236D01*
X23284482Y-83909456D01*
X23333020Y-83969396D01*
X23345086Y-84045575D01*
X23317446Y-84117580D01*
X23284482Y-84150544D01*
X23120209Y-84269895D01*
X23120206Y-84269897D01*
X22969897Y-84420206D01*
X22969895Y-84420209D01*
X22844950Y-84592181D01*
X22844950Y-84592182D01*
X22748446Y-84781582D01*
X22748441Y-84781594D01*
X22731876Y-84832577D01*
X22682754Y-84983757D01*
X22649500Y-85193713D01*
X22649500Y-85406287D01*
X22682754Y-85616243D01*
X22748443Y-85818412D01*
X22844949Y-86007816D01*
X22969896Y-86179792D01*
X23120208Y-86330104D01*
X23292184Y-86455051D01*
X23481588Y-86551557D01*
X23683757Y-86617246D01*
X23893713Y-86650500D01*
X23893718Y-86650500D01*
X24106282Y-86650500D01*
X24106287Y-86650500D01*
X24316243Y-86617246D01*
X24518412Y-86551557D01*
X24707816Y-86455051D01*
X24879792Y-86330104D01*
X25030104Y-86179792D01*
X25155051Y-86007816D01*
X25251557Y-85818412D01*
X25317246Y-85616243D01*
X25350500Y-85406287D01*
X25350500Y-85193713D01*
X25317246Y-84983757D01*
X25251557Y-84781588D01*
X25155051Y-84592184D01*
X25030104Y-84420208D01*
X24879792Y-84269896D01*
X24715517Y-84150544D01*
X24666979Y-84090604D01*
X24654913Y-84014426D01*
X24682553Y-83942420D01*
X24715517Y-83909456D01*
X24722519Y-83904368D01*
X24879792Y-83790104D01*
X25030104Y-83639792D01*
X25155051Y-83467816D01*
X25251557Y-83278412D01*
X25317246Y-83076243D01*
X25350500Y-82866287D01*
X25350500Y-82653713D01*
X25317246Y-82443757D01*
X25251557Y-82241588D01*
X25155051Y-82052184D01*
X25030104Y-81880208D01*
X24879792Y-81729896D01*
X24715517Y-81610544D01*
X24666979Y-81550604D01*
X24654913Y-81474426D01*
X24682553Y-81402420D01*
X24715517Y-81369456D01*
X24722519Y-81364368D01*
X24879792Y-81250104D01*
X25030104Y-81099792D01*
X25155051Y-80927816D01*
X25251557Y-80738412D01*
X25317246Y-80536243D01*
X25350500Y-80326287D01*
X25350500Y-80113713D01*
X25317246Y-79903757D01*
X25251557Y-79701588D01*
X25155051Y-79512184D01*
X25030104Y-79340208D01*
X24944075Y-79254179D01*
X24905512Y-79187385D01*
X24905512Y-79110257D01*
X24944076Y-79043462D01*
X24997366Y-79009215D01*
X25028278Y-78997685D01*
X25092327Y-78973798D01*
X25092333Y-78973795D01*
X25149938Y-78930671D01*
X25207546Y-78887546D01*
X25293796Y-78772331D01*
X25344091Y-78637483D01*
X25346809Y-78612207D01*
X25350499Y-78577885D01*
X25350499Y-78577882D01*
X25350500Y-78577873D01*
X25350499Y-76782128D01*
X25344091Y-76722517D01*
X25314889Y-76644222D01*
X25293797Y-76587670D01*
X25293795Y-76587666D01*
X25207547Y-76472455D01*
X25207544Y-76472452D01*
X25092333Y-76386204D01*
X25092329Y-76386202D01*
X24957482Y-76335908D01*
X24897876Y-76329500D01*
X23102136Y-76329500D01*
X23102111Y-76329502D01*
X23042521Y-76335908D01*
X23042515Y-76335909D01*
X22907670Y-76386202D01*
X22907666Y-76386204D01*
X22792455Y-76472452D01*
X22792452Y-76472455D01*
X22706204Y-76587666D01*
X22706202Y-76587670D01*
X22655908Y-76722517D01*
X22649500Y-76782114D01*
X22649500Y-78577863D01*
X22649502Y-78577888D01*
X22655908Y-78637478D01*
X22655909Y-78637484D01*
X22706202Y-78772329D01*
X22706204Y-78772333D01*
X22792452Y-78887544D01*
X22792455Y-78887547D01*
X22907666Y-78973795D01*
X22907668Y-78973795D01*
X22907669Y-78973796D01*
X23002633Y-79009215D01*
X23065460Y-79053953D01*
X23097501Y-79124111D01*
X23090170Y-79200890D01*
X23055923Y-79254179D01*
X22969904Y-79340198D01*
X22969895Y-79340209D01*
X22844950Y-79512181D01*
X22844950Y-79512182D01*
X22748446Y-79701582D01*
X22748441Y-79701594D01*
X22683813Y-79900499D01*
X22682754Y-79903757D01*
X22649500Y-80113713D01*
X22649500Y-80326287D01*
X22682754Y-80536243D01*
X22748443Y-80738412D01*
X22844949Y-80927816D01*
X22969896Y-81099792D01*
X23120208Y-81250104D01*
X23198844Y-81307236D01*
X23284482Y-81369456D01*
X23333020Y-81429396D01*
X23345086Y-81505575D01*
X23317446Y-81577580D01*
X23284482Y-81610544D01*
X23120209Y-81729895D01*
X23120206Y-81729897D01*
X22969892Y-81880212D01*
X22956910Y-81898081D01*
X22896969Y-81946619D01*
X22836367Y-81959500D01*
X14664496Y-81959500D01*
X14589996Y-81939538D01*
X14586274Y-81937316D01*
X14469336Y-81865187D01*
X14469335Y-81865186D01*
X14469334Y-81865186D01*
X14385332Y-81837350D01*
X14302798Y-81810001D01*
X14302799Y-81810001D01*
X14268534Y-81806500D01*
X14200008Y-81799500D01*
X11799992Y-81799500D01*
X11731466Y-81806500D01*
X11697201Y-81810001D01*
X11530663Y-81865187D01*
X11381344Y-81957289D01*
X11257289Y-82081344D01*
X11165187Y-82230663D01*
X11110001Y-82397201D01*
X11110001Y-82397203D01*
X11099500Y-82499992D01*
X5500000Y-82499992D01*
X5500000Y-78575429D01*
X11099500Y-78575429D01*
X11099500Y-78824570D01*
X11132016Y-79071557D01*
X11132017Y-79071563D01*
X11132018Y-79071565D01*
X11181377Y-79255776D01*
X11196499Y-79312210D01*
X11208096Y-79340208D01*
X11279331Y-79512184D01*
X11291838Y-79542377D01*
X11329820Y-79608164D01*
X11416401Y-79758127D01*
X11568062Y-79955776D01*
X11744224Y-80131938D01*
X11941873Y-80283599D01*
X12157627Y-80408164D01*
X12387793Y-80503502D01*
X12628435Y-80567982D01*
X12628441Y-80567982D01*
X12628442Y-80567983D01*
X12695586Y-80576822D01*
X12875435Y-80600500D01*
X13124565Y-80600500D01*
X13371565Y-80567982D01*
X13612207Y-80503502D01*
X13842373Y-80408164D01*
X14058127Y-80283599D01*
X14255776Y-80131938D01*
X14431938Y-79955776D01*
X14583599Y-79758127D01*
X14708164Y-79542373D01*
X14803502Y-79312207D01*
X14867982Y-79071565D01*
X14900500Y-78824565D01*
X14900500Y-78575435D01*
X14867982Y-78328435D01*
X14803502Y-78087793D01*
X14708164Y-77857627D01*
X14583599Y-77641873D01*
X14431938Y-77444224D01*
X14255776Y-77268062D01*
X14058127Y-77116401D01*
X13956318Y-77057622D01*
X13842377Y-76991838D01*
X13842375Y-76991837D01*
X13842373Y-76991836D01*
X13707548Y-76935989D01*
X13612210Y-76896499D01*
X13612208Y-76896498D01*
X13612207Y-76896498D01*
X13371565Y-76832018D01*
X13371563Y-76832017D01*
X13371557Y-76832016D01*
X13124570Y-76799500D01*
X13124565Y-76799500D01*
X12875435Y-76799500D01*
X12875429Y-76799500D01*
X12628442Y-76832016D01*
X12387789Y-76896499D01*
X12157622Y-76991838D01*
X11941874Y-77116400D01*
X11744222Y-77268063D01*
X11568063Y-77444222D01*
X11416400Y-77641874D01*
X11291838Y-77857622D01*
X11196499Y-78087789D01*
X11132016Y-78328442D01*
X11099500Y-78575429D01*
X5500000Y-78575429D01*
X5500000Y-70499992D01*
X11099500Y-70499992D01*
X11099500Y-72900008D01*
X11110001Y-73002797D01*
X11165186Y-73169334D01*
X11257289Y-73318655D01*
X11381345Y-73442711D01*
X11530666Y-73534814D01*
X11697203Y-73589999D01*
X11799992Y-73600500D01*
X11799996Y-73600500D01*
X14200004Y-73600500D01*
X14200008Y-73600500D01*
X14302797Y-73589999D01*
X14469334Y-73534814D01*
X14618655Y-73442711D01*
X14742711Y-73318655D01*
X14834814Y-73169334D01*
X14889999Y-73002797D01*
X14900500Y-72900008D01*
X14900500Y-70499992D01*
X14889999Y-70397203D01*
X14834814Y-70230666D01*
X14742711Y-70081345D01*
X14618655Y-69957289D01*
X14493690Y-69880209D01*
X14469336Y-69865187D01*
X14469335Y-69865186D01*
X14469334Y-69865186D01*
X14385332Y-69837350D01*
X14302798Y-69810001D01*
X14302799Y-69810001D01*
X14268534Y-69806500D01*
X14200008Y-69799500D01*
X11799992Y-69799500D01*
X11731466Y-69806500D01*
X11697201Y-69810001D01*
X11530663Y-69865187D01*
X11381344Y-69957289D01*
X11257289Y-70081344D01*
X11165187Y-70230663D01*
X11110001Y-70397201D01*
X11110001Y-70397203D01*
X11099500Y-70499992D01*
X5500000Y-70499992D01*
X5500000Y-66575429D01*
X11099500Y-66575429D01*
X11099500Y-66824570D01*
X11132016Y-67071557D01*
X11132017Y-67071563D01*
X11132018Y-67071565D01*
X11181377Y-67255776D01*
X11196499Y-67312210D01*
X11208096Y-67340208D01*
X11291836Y-67542373D01*
X11416401Y-67758127D01*
X11568062Y-67955776D01*
X11744224Y-68131938D01*
X11941873Y-68283599D01*
X12157627Y-68408164D01*
X12387793Y-68503502D01*
X12628435Y-68567982D01*
X12628441Y-68567982D01*
X12628442Y-68567983D01*
X12695586Y-68576822D01*
X12875435Y-68600500D01*
X13124565Y-68600500D01*
X13371565Y-68567982D01*
X13612207Y-68503502D01*
X13842373Y-68408164D01*
X14058127Y-68283599D01*
X14255776Y-68131938D01*
X14431938Y-67955776D01*
X14583599Y-67758127D01*
X14708164Y-67542373D01*
X14803502Y-67312207D01*
X14867982Y-67071565D01*
X14900500Y-66824565D01*
X14900500Y-66575435D01*
X14897013Y-66548949D01*
X14907079Y-66472482D01*
X14954031Y-66411291D01*
X15025288Y-66381775D01*
X15044738Y-66380500D01*
X22500501Y-66380500D01*
X22575001Y-66400462D01*
X22629539Y-66455000D01*
X22649501Y-66529500D01*
X22649501Y-66577863D01*
X22649502Y-66577888D01*
X22655908Y-66637478D01*
X22655909Y-66637484D01*
X22706202Y-66772329D01*
X22706204Y-66772333D01*
X22792452Y-66887544D01*
X22792455Y-66887547D01*
X22907666Y-66973795D01*
X22907668Y-66973795D01*
X22907669Y-66973796D01*
X23002633Y-67009215D01*
X23065460Y-67053953D01*
X23097501Y-67124111D01*
X23090170Y-67200890D01*
X23055923Y-67254179D01*
X22969904Y-67340198D01*
X22969895Y-67340209D01*
X22844950Y-67512181D01*
X22844950Y-67512182D01*
X22748446Y-67701582D01*
X22748441Y-67701594D01*
X22683813Y-67900499D01*
X22682754Y-67903757D01*
X22649500Y-68113713D01*
X22649500Y-68326287D01*
X22682754Y-68536243D01*
X22748443Y-68738412D01*
X22844949Y-68927816D01*
X22969896Y-69099792D01*
X23120208Y-69250104D01*
X23198844Y-69307236D01*
X23284482Y-69369456D01*
X23333020Y-69429396D01*
X23345086Y-69505575D01*
X23317446Y-69577580D01*
X23284482Y-69610544D01*
X23120209Y-69729895D01*
X23120206Y-69729897D01*
X22969897Y-69880206D01*
X22969895Y-69880209D01*
X22844950Y-70052181D01*
X22844950Y-70052182D01*
X22844949Y-70052184D01*
X22748443Y-70241588D01*
X22682754Y-70443757D01*
X22649500Y-70653713D01*
X22649500Y-70866287D01*
X22682754Y-71076243D01*
X22748443Y-71278412D01*
X22844949Y-71467816D01*
X22969896Y-71639792D01*
X23120208Y-71790104D01*
X23198844Y-71847236D01*
X23284482Y-71909456D01*
X23333020Y-71969396D01*
X23345086Y-72045575D01*
X23317446Y-72117580D01*
X23284482Y-72150544D01*
X23120209Y-72269895D01*
X23120206Y-72269897D01*
X22969897Y-72420206D01*
X22969895Y-72420209D01*
X22844950Y-72592181D01*
X22844950Y-72592182D01*
X22748446Y-72781582D01*
X22748441Y-72781594D01*
X22697836Y-72937341D01*
X22682754Y-72983757D01*
X22649500Y-73193713D01*
X22649500Y-73406287D01*
X22682754Y-73616243D01*
X22748443Y-73818412D01*
X22844949Y-74007816D01*
X22969896Y-74179792D01*
X23120208Y-74330104D01*
X23292184Y-74455051D01*
X23481588Y-74551557D01*
X23683757Y-74617246D01*
X23893713Y-74650500D01*
X23893718Y-74650500D01*
X24106282Y-74650500D01*
X24106287Y-74650500D01*
X24316243Y-74617246D01*
X24518412Y-74551557D01*
X24707816Y-74455051D01*
X24879792Y-74330104D01*
X25030104Y-74179792D01*
X25155051Y-74007816D01*
X25251557Y-73818412D01*
X25317246Y-73616243D01*
X25350500Y-73406287D01*
X25350500Y-73193713D01*
X25317246Y-72983757D01*
X25251557Y-72781588D01*
X25155051Y-72592184D01*
X25030104Y-72420208D01*
X24879792Y-72269896D01*
X24715517Y-72150544D01*
X24666979Y-72090604D01*
X24654913Y-72014426D01*
X24682553Y-71942420D01*
X24715517Y-71909456D01*
X24722519Y-71904368D01*
X24879792Y-71790104D01*
X25030104Y-71639792D01*
X25155051Y-71467816D01*
X25251557Y-71278412D01*
X25317246Y-71076243D01*
X25350500Y-70866287D01*
X25350500Y-70653713D01*
X25317246Y-70443757D01*
X25251557Y-70241588D01*
X25155051Y-70052184D01*
X25030104Y-69880208D01*
X24879792Y-69729896D01*
X24715517Y-69610544D01*
X24666979Y-69550604D01*
X24654913Y-69474426D01*
X24682553Y-69402420D01*
X24715517Y-69369456D01*
X24722519Y-69364368D01*
X24879792Y-69250104D01*
X25030104Y-69099792D01*
X25155051Y-68927816D01*
X25251557Y-68738412D01*
X25317246Y-68536243D01*
X25350500Y-68326287D01*
X25350500Y-68113713D01*
X25317246Y-67903757D01*
X25251557Y-67701588D01*
X25155051Y-67512184D01*
X25030104Y-67340208D01*
X24944075Y-67254179D01*
X24905512Y-67187385D01*
X24905512Y-67110257D01*
X24944076Y-67043462D01*
X24997366Y-67009215D01*
X25028278Y-66997685D01*
X25092327Y-66973798D01*
X25092333Y-66973795D01*
X25149938Y-66930671D01*
X25207546Y-66887546D01*
X25293796Y-66772331D01*
X25344091Y-66637483D01*
X25346809Y-66612207D01*
X25350499Y-66577885D01*
X25350499Y-66577882D01*
X25350500Y-66577873D01*
X25350499Y-64782128D01*
X25344091Y-64722517D01*
X25329588Y-64683633D01*
X25293797Y-64587670D01*
X25293795Y-64587666D01*
X25207547Y-64472455D01*
X25207544Y-64472452D01*
X25092333Y-64386204D01*
X25092329Y-64386202D01*
X24957482Y-64335908D01*
X24897876Y-64329500D01*
X23102136Y-64329500D01*
X23102111Y-64329502D01*
X23042521Y-64335908D01*
X23042515Y-64335909D01*
X22907670Y-64386202D01*
X22907666Y-64386204D01*
X22792455Y-64472452D01*
X22792452Y-64472455D01*
X22706204Y-64587666D01*
X22706202Y-64587670D01*
X22655908Y-64722517D01*
X22649500Y-64782114D01*
X22649500Y-64830500D01*
X22629538Y-64905000D01*
X22575000Y-64959538D01*
X22500500Y-64979500D01*
X13951005Y-64979500D01*
X13901824Y-64989282D01*
X13824861Y-64984237D01*
X13815737Y-64980803D01*
X13612210Y-64896499D01*
X13612208Y-64896498D01*
X13612207Y-64896498D01*
X13371565Y-64832018D01*
X13371563Y-64832017D01*
X13371557Y-64832016D01*
X13124570Y-64799500D01*
X13124565Y-64799500D01*
X12875435Y-64799500D01*
X12875429Y-64799500D01*
X12628442Y-64832016D01*
X12387789Y-64896499D01*
X12157622Y-64991838D01*
X11941874Y-65116400D01*
X11744222Y-65268063D01*
X11568063Y-65444222D01*
X11416400Y-65641874D01*
X11291838Y-65857622D01*
X11196499Y-66087789D01*
X11132016Y-66328442D01*
X11099500Y-66575429D01*
X5500000Y-66575429D01*
X5500000Y-58499992D01*
X11099500Y-58499992D01*
X11099500Y-60900008D01*
X11110001Y-61002797D01*
X11165186Y-61169334D01*
X11257289Y-61318655D01*
X11381345Y-61442711D01*
X11530666Y-61534814D01*
X11697203Y-61589999D01*
X11799992Y-61600500D01*
X11799996Y-61600500D01*
X14200004Y-61600500D01*
X14200008Y-61600500D01*
X14302797Y-61589999D01*
X14469334Y-61534814D01*
X14618655Y-61442711D01*
X14742711Y-61318655D01*
X14834814Y-61169334D01*
X14889999Y-61002797D01*
X14900500Y-60900008D01*
X14900500Y-58499992D01*
X14889999Y-58397203D01*
X14834814Y-58230666D01*
X14742711Y-58081345D01*
X14618655Y-57957289D01*
X14493690Y-57880209D01*
X14469336Y-57865187D01*
X14469335Y-57865186D01*
X14469334Y-57865186D01*
X14385332Y-57837350D01*
X14302798Y-57810001D01*
X14302799Y-57810001D01*
X14268534Y-57806500D01*
X14200008Y-57799500D01*
X11799992Y-57799500D01*
X11731466Y-57806500D01*
X11697201Y-57810001D01*
X11530663Y-57865187D01*
X11381344Y-57957289D01*
X11257289Y-58081344D01*
X11165187Y-58230663D01*
X11110001Y-58397201D01*
X11110001Y-58397203D01*
X11099500Y-58499992D01*
X5500000Y-58499992D01*
X5500000Y-54575429D01*
X11099500Y-54575429D01*
X11099500Y-54824570D01*
X11132016Y-55071557D01*
X11132017Y-55071563D01*
X11132018Y-55071565D01*
X11181377Y-55255776D01*
X11196499Y-55312210D01*
X11208096Y-55340208D01*
X11291836Y-55542373D01*
X11416401Y-55758127D01*
X11568062Y-55955776D01*
X11744224Y-56131938D01*
X11941873Y-56283599D01*
X12157627Y-56408164D01*
X12387793Y-56503502D01*
X12628435Y-56567982D01*
X12628441Y-56567982D01*
X12628442Y-56567983D01*
X12695586Y-56576822D01*
X12875435Y-56600500D01*
X13124565Y-56600500D01*
X13371565Y-56567982D01*
X13612207Y-56503502D01*
X13842373Y-56408164D01*
X14058127Y-56283599D01*
X14255776Y-56131938D01*
X14431938Y-55955776D01*
X14583599Y-55758127D01*
X14708164Y-55542373D01*
X14803502Y-55312207D01*
X14867982Y-55071565D01*
X14900500Y-54824565D01*
X14900500Y-54575435D01*
X14897013Y-54548949D01*
X14907079Y-54472482D01*
X14954031Y-54411291D01*
X15025288Y-54381775D01*
X15044738Y-54380500D01*
X22500501Y-54380500D01*
X22575001Y-54400462D01*
X22629539Y-54455000D01*
X22649501Y-54529500D01*
X22649501Y-54577863D01*
X22649502Y-54577888D01*
X22655908Y-54637478D01*
X22655909Y-54637484D01*
X22706202Y-54772329D01*
X22706204Y-54772333D01*
X22792452Y-54887544D01*
X22792455Y-54887547D01*
X22907666Y-54973795D01*
X22907668Y-54973795D01*
X22907669Y-54973796D01*
X23002633Y-55009215D01*
X23065460Y-55053953D01*
X23097501Y-55124111D01*
X23090170Y-55200890D01*
X23055923Y-55254179D01*
X22969904Y-55340198D01*
X22969895Y-55340209D01*
X22844950Y-55512181D01*
X22844950Y-55512182D01*
X22748446Y-55701582D01*
X22748441Y-55701594D01*
X22683813Y-55900499D01*
X22682754Y-55903757D01*
X22649500Y-56113713D01*
X22649500Y-56326287D01*
X22682754Y-56536243D01*
X22748443Y-56738412D01*
X22844949Y-56927816D01*
X22969896Y-57099792D01*
X23120208Y-57250104D01*
X23198844Y-57307236D01*
X23284482Y-57369456D01*
X23333020Y-57429396D01*
X23345086Y-57505575D01*
X23317446Y-57577580D01*
X23284482Y-57610544D01*
X23120209Y-57729895D01*
X23120206Y-57729897D01*
X22969897Y-57880206D01*
X22969895Y-57880209D01*
X22844950Y-58052181D01*
X22844950Y-58052182D01*
X22844949Y-58052184D01*
X22748443Y-58241588D01*
X22682754Y-58443757D01*
X22649500Y-58653713D01*
X22649500Y-58866287D01*
X22682754Y-59076243D01*
X22748443Y-59278412D01*
X22810140Y-59399500D01*
X22844950Y-59467817D01*
X22844950Y-59467818D01*
X22907422Y-59553804D01*
X22969896Y-59639792D01*
X23120208Y-59790104D01*
X23191464Y-59841874D01*
X23284482Y-59909456D01*
X23333020Y-59969396D01*
X23345086Y-60045575D01*
X23317446Y-60117580D01*
X23284482Y-60150544D01*
X23120209Y-60269895D01*
X23120206Y-60269897D01*
X22969897Y-60420206D01*
X22969895Y-60420209D01*
X22844950Y-60592181D01*
X22844950Y-60592182D01*
X22844949Y-60592184D01*
X22748443Y-60781588D01*
X22682754Y-60983757D01*
X22649500Y-61193713D01*
X22649500Y-61406287D01*
X22682754Y-61616243D01*
X22748443Y-61818412D01*
X22819631Y-61958127D01*
X22844950Y-62007817D01*
X22844950Y-62007818D01*
X22898609Y-62081673D01*
X22969896Y-62179792D01*
X23120208Y-62330104D01*
X23292184Y-62455051D01*
X23481588Y-62551557D01*
X23683757Y-62617246D01*
X23893713Y-62650500D01*
X23893718Y-62650500D01*
X24106282Y-62650500D01*
X24106287Y-62650500D01*
X24316243Y-62617246D01*
X24518412Y-62551557D01*
X24707816Y-62455051D01*
X24879792Y-62330104D01*
X25030104Y-62179792D01*
X25155051Y-62007816D01*
X25251557Y-61818412D01*
X25317246Y-61616243D01*
X25350500Y-61406287D01*
X25350500Y-61193713D01*
X25317246Y-60983757D01*
X25251557Y-60781588D01*
X25248419Y-60775429D01*
X40784500Y-60775429D01*
X40784500Y-61024570D01*
X40817016Y-61271557D01*
X40817017Y-61271563D01*
X40817018Y-61271565D01*
X40853115Y-61406282D01*
X40881499Y-61512210D01*
X40918070Y-61600500D01*
X40976836Y-61742373D01*
X41101401Y-61958127D01*
X41253062Y-62155776D01*
X41429224Y-62331938D01*
X41626873Y-62483599D01*
X41842627Y-62608164D01*
X42072793Y-62703502D01*
X42313435Y-62767982D01*
X42313441Y-62767982D01*
X42313442Y-62767983D01*
X42380586Y-62776822D01*
X42560435Y-62800500D01*
X42809565Y-62800500D01*
X43056565Y-62767982D01*
X43297207Y-62703502D01*
X43527373Y-62608164D01*
X43743127Y-62483599D01*
X43940776Y-62331938D01*
X44116938Y-62155776D01*
X44268599Y-61958127D01*
X44393164Y-61742373D01*
X44488502Y-61512207D01*
X44552982Y-61271565D01*
X44585500Y-61024565D01*
X44585500Y-60775435D01*
X44585499Y-60775429D01*
X62984500Y-60775429D01*
X62984500Y-61024570D01*
X63017016Y-61271557D01*
X63017017Y-61271563D01*
X63017018Y-61271565D01*
X63053115Y-61406282D01*
X63081499Y-61512210D01*
X63118070Y-61600500D01*
X63176836Y-61742373D01*
X63301401Y-61958127D01*
X63453062Y-62155776D01*
X63629224Y-62331938D01*
X63826873Y-62483599D01*
X64042627Y-62608164D01*
X64272793Y-62703502D01*
X64513435Y-62767982D01*
X64513441Y-62767982D01*
X64513442Y-62767983D01*
X64580586Y-62776822D01*
X64760435Y-62800500D01*
X65009565Y-62800500D01*
X65256565Y-62767982D01*
X65497207Y-62703502D01*
X65727373Y-62608164D01*
X65943127Y-62483599D01*
X66140776Y-62331938D01*
X66316938Y-62155776D01*
X66468599Y-61958127D01*
X66593164Y-61742373D01*
X66688502Y-61512207D01*
X66752982Y-61271565D01*
X66785500Y-61024565D01*
X66785500Y-60775435D01*
X66752982Y-60528435D01*
X66688502Y-60287793D01*
X66593164Y-60057627D01*
X66468599Y-59841873D01*
X66316938Y-59644224D01*
X66140776Y-59468062D01*
X65943127Y-59316401D01*
X65767602Y-59215062D01*
X65727377Y-59191838D01*
X65727375Y-59191837D01*
X65727373Y-59191836D01*
X65592548Y-59135989D01*
X65497210Y-59096499D01*
X65497208Y-59096498D01*
X65497207Y-59096498D01*
X65256565Y-59032018D01*
X65256563Y-59032017D01*
X65256557Y-59032016D01*
X65009570Y-58999500D01*
X65009565Y-58999500D01*
X64760435Y-58999500D01*
X64760429Y-58999500D01*
X64513442Y-59032016D01*
X64272789Y-59096499D01*
X64042622Y-59191838D01*
X63826874Y-59316400D01*
X63629222Y-59468063D01*
X63453063Y-59644222D01*
X63301400Y-59841874D01*
X63176838Y-60057622D01*
X63081499Y-60287789D01*
X63017016Y-60528442D01*
X62984500Y-60775429D01*
X44585499Y-60775429D01*
X44552982Y-60528435D01*
X44488502Y-60287793D01*
X44393164Y-60057627D01*
X44268599Y-59841873D01*
X44116938Y-59644224D01*
X43940776Y-59468062D01*
X43743127Y-59316401D01*
X43567602Y-59215062D01*
X43527377Y-59191838D01*
X43527375Y-59191837D01*
X43527373Y-59191836D01*
X43392548Y-59135989D01*
X43297210Y-59096499D01*
X43297208Y-59096498D01*
X43297207Y-59096498D01*
X43056565Y-59032018D01*
X43056563Y-59032017D01*
X43056557Y-59032016D01*
X42809570Y-58999500D01*
X42809565Y-58999500D01*
X42560435Y-58999500D01*
X42560429Y-58999500D01*
X42313442Y-59032016D01*
X42072789Y-59096499D01*
X41842622Y-59191838D01*
X41626874Y-59316400D01*
X41429222Y-59468063D01*
X41253063Y-59644222D01*
X41101400Y-59841874D01*
X40976838Y-60057622D01*
X40881499Y-60287789D01*
X40817016Y-60528442D01*
X40784500Y-60775429D01*
X25248419Y-60775429D01*
X25155051Y-60592184D01*
X25030104Y-60420208D01*
X24879792Y-60269896D01*
X24715517Y-60150544D01*
X24666979Y-60090604D01*
X24654913Y-60014426D01*
X24682553Y-59942420D01*
X24715517Y-59909456D01*
X24722519Y-59904368D01*
X24879792Y-59790104D01*
X25030104Y-59639792D01*
X25155051Y-59467816D01*
X25251557Y-59278412D01*
X25317246Y-59076243D01*
X25350500Y-58866287D01*
X25350500Y-58653713D01*
X25317246Y-58443757D01*
X25251557Y-58241588D01*
X25155051Y-58052184D01*
X25030104Y-57880208D01*
X24879792Y-57729896D01*
X24715517Y-57610544D01*
X24666979Y-57550604D01*
X24654913Y-57474426D01*
X24682553Y-57402420D01*
X24715517Y-57369456D01*
X24722519Y-57364368D01*
X24879792Y-57250104D01*
X25030104Y-57099792D01*
X25155051Y-56927816D01*
X25251557Y-56738412D01*
X25317246Y-56536243D01*
X25350500Y-56326287D01*
X25350500Y-56113713D01*
X25317246Y-55903757D01*
X25251557Y-55701588D01*
X25155051Y-55512184D01*
X25030104Y-55340208D01*
X24944075Y-55254179D01*
X24905512Y-55187385D01*
X24905512Y-55110257D01*
X24944076Y-55043462D01*
X24997366Y-55009215D01*
X25028278Y-54997685D01*
X25092327Y-54973798D01*
X25092333Y-54973795D01*
X25149938Y-54930671D01*
X25207546Y-54887546D01*
X25293796Y-54772331D01*
X25344091Y-54637483D01*
X25346809Y-54612207D01*
X25350499Y-54577885D01*
X25350499Y-54577882D01*
X25350500Y-54577873D01*
X25350499Y-52782128D01*
X25344091Y-52722517D01*
X25329588Y-52683633D01*
X25293797Y-52587670D01*
X25293795Y-52587666D01*
X25207547Y-52472455D01*
X25207544Y-52472452D01*
X25092333Y-52386204D01*
X25092329Y-52386202D01*
X24957482Y-52335908D01*
X24897876Y-52329500D01*
X23102136Y-52329500D01*
X23102111Y-52329502D01*
X23042521Y-52335908D01*
X23042515Y-52335909D01*
X22907670Y-52386202D01*
X22907666Y-52386204D01*
X22792455Y-52472452D01*
X22792452Y-52472455D01*
X22706204Y-52587666D01*
X22706202Y-52587670D01*
X22655908Y-52722517D01*
X22649500Y-52782114D01*
X22649500Y-52830500D01*
X22629538Y-52905000D01*
X22575000Y-52959538D01*
X22500500Y-52979500D01*
X13951005Y-52979500D01*
X13901824Y-52989282D01*
X13824861Y-52984237D01*
X13815737Y-52980803D01*
X13612210Y-52896499D01*
X13612208Y-52896498D01*
X13612207Y-52896498D01*
X13371565Y-52832018D01*
X13371563Y-52832017D01*
X13371557Y-52832016D01*
X13124570Y-52799500D01*
X13124565Y-52799500D01*
X12875435Y-52799500D01*
X12875429Y-52799500D01*
X12628442Y-52832016D01*
X12387789Y-52896499D01*
X12157622Y-52991838D01*
X11941874Y-53116400D01*
X11744222Y-53268063D01*
X11568063Y-53444222D01*
X11416400Y-53641874D01*
X11291838Y-53857622D01*
X11196499Y-54087789D01*
X11132016Y-54328442D01*
X11099500Y-54575429D01*
X5500000Y-54575429D01*
X5500000Y-43768874D01*
X40684501Y-43768874D01*
X40684501Y-44031125D01*
X40718727Y-44291108D01*
X40786603Y-44544423D01*
X40786604Y-44544427D01*
X40866175Y-44736524D01*
X40886957Y-44786697D01*
X41018076Y-45013802D01*
X41177717Y-45221851D01*
X41363149Y-45407283D01*
X41571198Y-45566924D01*
X41798303Y-45698043D01*
X41934130Y-45754304D01*
X42040572Y-45798395D01*
X42040576Y-45798396D01*
X42040581Y-45798398D01*
X42293884Y-45866271D01*
X42293890Y-45866271D01*
X42293891Y-45866272D01*
X42364579Y-45875577D01*
X42553880Y-45900499D01*
X42816120Y-45900499D01*
X43076116Y-45866271D01*
X43329419Y-45798398D01*
X43329425Y-45798395D01*
X43329427Y-45798395D01*
X43402847Y-45767983D01*
X43571697Y-45698043D01*
X43798802Y-45566924D01*
X44006851Y-45407283D01*
X46571693Y-42842441D01*
X46638488Y-42803877D01*
X46677052Y-42798800D01*
X63068194Y-42798800D01*
X63142694Y-42818762D01*
X63197232Y-42873300D01*
X63217194Y-42947800D01*
X63197232Y-43022300D01*
X63197231Y-43022301D01*
X63176839Y-43057619D01*
X63081499Y-43287789D01*
X63017016Y-43528442D01*
X62984500Y-43775429D01*
X62984500Y-44024570D01*
X63017016Y-44271557D01*
X63081499Y-44512210D01*
X63176838Y-44742377D01*
X63259879Y-44886209D01*
X63301401Y-44958127D01*
X63453062Y-45155776D01*
X63629224Y-45331938D01*
X63826873Y-45483599D01*
X64042627Y-45608164D01*
X64272793Y-45703502D01*
X64513435Y-45767982D01*
X64513441Y-45767982D01*
X64513442Y-45767983D01*
X64580586Y-45776822D01*
X64760435Y-45800500D01*
X65009565Y-45800500D01*
X65256565Y-45767982D01*
X65497207Y-45703502D01*
X65727373Y-45608164D01*
X65943127Y-45483599D01*
X66140776Y-45331938D01*
X66316938Y-45155776D01*
X66468599Y-44958127D01*
X66593164Y-44742373D01*
X66688502Y-44512207D01*
X66752982Y-44271565D01*
X66785500Y-44024565D01*
X66785500Y-43775435D01*
X66761822Y-43595586D01*
X66752983Y-43528442D01*
X66752982Y-43528441D01*
X66752982Y-43528435D01*
X66688502Y-43287793D01*
X66593164Y-43057627D01*
X66593161Y-43057622D01*
X66593160Y-43057619D01*
X66572769Y-43022301D01*
X66552806Y-42947801D01*
X66572768Y-42873301D01*
X66627305Y-42818763D01*
X66701805Y-42798800D01*
X83192948Y-42798800D01*
X83267448Y-42818762D01*
X83298307Y-42842441D01*
X85677717Y-45221851D01*
X85863149Y-45407283D01*
X86071198Y-45566924D01*
X86296848Y-45697203D01*
X86296850Y-45697204D01*
X86296849Y-45697204D01*
X86298303Y-45698043D01*
X86298304Y-45698044D01*
X86540572Y-45798395D01*
X86540576Y-45798396D01*
X86540581Y-45798398D01*
X86793884Y-45866271D01*
X86793890Y-45866271D01*
X86793891Y-45866272D01*
X86864579Y-45875577D01*
X87053880Y-45900499D01*
X87316120Y-45900499D01*
X87576116Y-45866271D01*
X87829419Y-45798398D01*
X87829425Y-45798395D01*
X87829427Y-45798395D01*
X87902847Y-45767983D01*
X88071697Y-45698043D01*
X88298802Y-45566924D01*
X88506851Y-45407283D01*
X91100393Y-42813741D01*
X91167188Y-42775177D01*
X91205752Y-42770100D01*
X107584764Y-42770100D01*
X107659264Y-42790062D01*
X107713802Y-42844600D01*
X107733764Y-42919100D01*
X107713802Y-42993600D01*
X107676838Y-43057622D01*
X107581499Y-43287789D01*
X107517017Y-43528436D01*
X107517015Y-43528446D01*
X107505801Y-43613627D01*
X107476285Y-43684883D01*
X107463435Y-43699536D01*
X88937376Y-62225596D01*
X88870581Y-62264160D01*
X88793453Y-62264160D01*
X88726658Y-62225596D01*
X88688094Y-62158801D01*
X88688094Y-62081673D01*
X88713806Y-62029534D01*
X88768599Y-61958127D01*
X88893164Y-61742373D01*
X88988502Y-61512207D01*
X89052982Y-61271565D01*
X89085500Y-61024565D01*
X89085500Y-60775435D01*
X89052982Y-60528435D01*
X88988502Y-60287793D01*
X88893164Y-60057627D01*
X88768599Y-59841873D01*
X88616938Y-59644224D01*
X88440776Y-59468062D01*
X88243127Y-59316401D01*
X88067602Y-59215062D01*
X88027377Y-59191838D01*
X88027375Y-59191837D01*
X88027373Y-59191836D01*
X87892548Y-59135989D01*
X87797210Y-59096499D01*
X87797208Y-59096498D01*
X87797207Y-59096498D01*
X87556565Y-59032018D01*
X87556563Y-59032017D01*
X87556557Y-59032016D01*
X87309570Y-58999500D01*
X87309565Y-58999500D01*
X87060435Y-58999500D01*
X87060429Y-58999500D01*
X86813442Y-59032016D01*
X86572789Y-59096499D01*
X86342622Y-59191838D01*
X86126874Y-59316400D01*
X85929222Y-59468063D01*
X85753063Y-59644222D01*
X85601400Y-59841874D01*
X85476838Y-60057622D01*
X85381499Y-60287789D01*
X85317016Y-60528442D01*
X85284500Y-60775429D01*
X85284500Y-61024570D01*
X85317016Y-61271557D01*
X85317017Y-61271563D01*
X85317018Y-61271565D01*
X85353115Y-61406282D01*
X85381499Y-61512210D01*
X85418070Y-61600500D01*
X85476836Y-61742373D01*
X85601401Y-61958127D01*
X85753062Y-62155776D01*
X85929224Y-62331938D01*
X86126873Y-62483599D01*
X86342627Y-62608164D01*
X86572793Y-62703502D01*
X86813435Y-62767982D01*
X86813441Y-62767982D01*
X86813442Y-62767983D01*
X86880586Y-62776822D01*
X87060435Y-62800500D01*
X87309565Y-62800500D01*
X87556565Y-62767982D01*
X87797207Y-62703502D01*
X88027373Y-62608164D01*
X88243127Y-62483599D01*
X88314537Y-62428803D01*
X88385787Y-62399291D01*
X88462255Y-62409357D01*
X88523446Y-62456309D01*
X88552962Y-62527566D01*
X88542896Y-62604034D01*
X88510596Y-62652375D01*
X85380414Y-65782558D01*
X85313619Y-65821122D01*
X85236491Y-65821122D01*
X85187478Y-65797744D01*
X85061833Y-65706457D01*
X84851392Y-65599232D01*
X84626768Y-65526247D01*
X84393492Y-65489300D01*
X53713292Y-65489300D01*
X53477108Y-65489300D01*
X53243832Y-65526247D01*
X53019208Y-65599232D01*
X53019202Y-65599234D01*
X53019202Y-65599235D01*
X52808765Y-65706458D01*
X52808764Y-65706458D01*
X52617691Y-65845281D01*
X52617688Y-65845283D01*
X42484536Y-75978435D01*
X42417741Y-76016999D01*
X42398627Y-76020801D01*
X42313446Y-76032015D01*
X42313436Y-76032017D01*
X42072789Y-76096499D01*
X41842622Y-76191838D01*
X41626874Y-76316400D01*
X41429222Y-76468063D01*
X41253063Y-76644222D01*
X41101400Y-76841874D01*
X40976838Y-77057622D01*
X40881499Y-77287789D01*
X40817016Y-77528442D01*
X40784500Y-77775429D01*
X40784500Y-78024570D01*
X40817016Y-78271557D01*
X40817017Y-78271563D01*
X40817018Y-78271565D01*
X40881498Y-78512207D01*
X40976836Y-78742373D01*
X41101401Y-78958127D01*
X41253062Y-79155776D01*
X41429224Y-79331938D01*
X41626873Y-79483599D01*
X41842627Y-79608164D01*
X42072793Y-79703502D01*
X42313435Y-79767982D01*
X42313441Y-79767982D01*
X42313442Y-79767983D01*
X42380586Y-79776822D01*
X42560435Y-79800500D01*
X42809565Y-79800500D01*
X43056565Y-79767982D01*
X43297207Y-79703502D01*
X43527373Y-79608164D01*
X43743127Y-79483599D01*
X43940776Y-79331938D01*
X44116938Y-79155776D01*
X44268599Y-78958127D01*
X44393164Y-78742373D01*
X44488502Y-78512207D01*
X44552982Y-78271565D01*
X44564197Y-78186371D01*
X44593711Y-78115117D01*
X44606555Y-78100470D01*
X44931596Y-77775429D01*
X62984500Y-77775429D01*
X62984500Y-78024570D01*
X63017016Y-78271557D01*
X63017017Y-78271563D01*
X63017018Y-78271565D01*
X63081498Y-78512207D01*
X63176836Y-78742373D01*
X63301401Y-78958127D01*
X63453062Y-79155776D01*
X63629224Y-79331938D01*
X63826873Y-79483599D01*
X64042627Y-79608164D01*
X64272793Y-79703502D01*
X64513435Y-79767982D01*
X64513441Y-79767982D01*
X64513442Y-79767983D01*
X64580586Y-79776822D01*
X64760435Y-79800500D01*
X65009565Y-79800500D01*
X65256565Y-79767982D01*
X65497207Y-79703502D01*
X65727373Y-79608164D01*
X65943127Y-79483599D01*
X66140776Y-79331938D01*
X66316938Y-79155776D01*
X66468599Y-78958127D01*
X66593164Y-78742373D01*
X66688502Y-78512207D01*
X66752982Y-78271565D01*
X66785500Y-78024565D01*
X66785500Y-77775435D01*
X66752982Y-77528435D01*
X66688502Y-77287793D01*
X66593164Y-77057627D01*
X66468599Y-76841873D01*
X66316938Y-76644224D01*
X66140776Y-76468062D01*
X65943127Y-76316401D01*
X65735448Y-76196498D01*
X65727377Y-76191838D01*
X65727375Y-76191837D01*
X65727373Y-76191836D01*
X65582955Y-76132016D01*
X65497210Y-76096499D01*
X65497208Y-76096498D01*
X65497207Y-76096498D01*
X65256565Y-76032018D01*
X65256563Y-76032017D01*
X65256557Y-76032016D01*
X65009570Y-75999500D01*
X65009565Y-75999500D01*
X64760435Y-75999500D01*
X64760429Y-75999500D01*
X64513442Y-76032016D01*
X64272789Y-76096499D01*
X64042622Y-76191838D01*
X63826874Y-76316400D01*
X63629222Y-76468063D01*
X63453063Y-76644222D01*
X63301400Y-76841874D01*
X63176838Y-77057622D01*
X63081499Y-77287789D01*
X63017016Y-77528442D01*
X62984500Y-77775429D01*
X44931596Y-77775429D01*
X54173087Y-68533941D01*
X54239882Y-68495377D01*
X54278446Y-68490300D01*
X81991155Y-68490300D01*
X82065655Y-68510262D01*
X82120193Y-68564800D01*
X82140155Y-68639300D01*
X82120193Y-68713800D01*
X82096514Y-68744659D01*
X65260356Y-85580815D01*
X65193561Y-85619379D01*
X65116433Y-85619379D01*
X65049638Y-85580815D01*
X65013290Y-85521500D01*
X64980986Y-85422080D01*
X64980985Y-85422079D01*
X64980984Y-85422074D01*
X64891624Y-85246695D01*
X64775928Y-85087454D01*
X64636746Y-84948272D01*
X64477505Y-84832576D01*
X64302126Y-84743216D01*
X64244978Y-84724647D01*
X64114931Y-84682392D01*
X64114931Y-84682391D01*
X64017721Y-84666995D01*
X63920516Y-84651600D01*
X63723683Y-84651600D01*
X63529273Y-84682391D01*
X63342074Y-84743216D01*
X63342068Y-84743218D01*
X63342068Y-84743219D01*
X63166693Y-84832577D01*
X63007463Y-84948265D01*
X63007452Y-84948274D01*
X54349867Y-93605859D01*
X54283072Y-93644423D01*
X54244508Y-93649500D01*
X44183932Y-93649500D01*
X44109432Y-93629538D01*
X44078573Y-93605859D01*
X43940777Y-93468063D01*
X43819561Y-93375051D01*
X43743127Y-93316401D01*
X43538850Y-93198462D01*
X43527377Y-93191838D01*
X43527375Y-93191837D01*
X43527373Y-93191836D01*
X43392548Y-93135989D01*
X43297210Y-93096499D01*
X43297208Y-93096498D01*
X43297207Y-93096498D01*
X43056565Y-93032018D01*
X43056563Y-93032017D01*
X43056557Y-93032016D01*
X42809570Y-92999500D01*
X42809565Y-92999500D01*
X42560435Y-92999500D01*
X42560429Y-92999500D01*
X42313442Y-93032016D01*
X42072789Y-93096499D01*
X41842622Y-93191838D01*
X41626874Y-93316400D01*
X41429222Y-93468063D01*
X41253063Y-93644222D01*
X41101400Y-93841874D01*
X40976838Y-94057622D01*
X40881499Y-94287789D01*
X40817016Y-94528442D01*
X40784500Y-94775429D01*
X40784500Y-95024570D01*
X40817016Y-95271557D01*
X40817017Y-95271563D01*
X40817018Y-95271565D01*
X40881498Y-95512207D01*
X40976836Y-95742373D01*
X41101401Y-95958127D01*
X41253062Y-96155776D01*
X41429224Y-96331938D01*
X41626873Y-96483599D01*
X41842627Y-96608164D01*
X42072793Y-96703502D01*
X42313435Y-96767982D01*
X42313441Y-96767982D01*
X42313442Y-96767983D01*
X42380586Y-96776822D01*
X42560435Y-96800500D01*
X42809565Y-96800500D01*
X43056565Y-96767982D01*
X43297207Y-96703502D01*
X43527373Y-96608164D01*
X43743127Y-96483599D01*
X43940776Y-96331938D01*
X44078573Y-96194141D01*
X44145368Y-96155577D01*
X44183932Y-96150500D01*
X54330955Y-96150500D01*
X54405455Y-96170462D01*
X54459993Y-96225000D01*
X54479955Y-96299500D01*
X54459993Y-96374000D01*
X54436314Y-96404859D01*
X50395477Y-100445696D01*
X50256658Y-100636764D01*
X50256655Y-100636768D01*
X50212966Y-100722515D01*
X50212965Y-100722517D01*
X50149432Y-100847208D01*
X50076447Y-101071832D01*
X50039500Y-101305108D01*
X50039500Y-101305112D01*
X50039500Y-122800500D01*
X50019538Y-122875000D01*
X49965000Y-122929538D01*
X49890500Y-122949500D01*
X48102136Y-122949500D01*
X48102111Y-122949502D01*
X48042521Y-122955908D01*
X48042515Y-122955909D01*
X47907670Y-123006202D01*
X47907666Y-123006204D01*
X47792455Y-123092452D01*
X47792452Y-123092455D01*
X47706204Y-123207666D01*
X47706202Y-123207670D01*
X47655908Y-123342517D01*
X47649500Y-123402114D01*
X47649500Y-125197863D01*
X47649501Y-125197872D01*
X47655908Y-125257478D01*
X47655909Y-125257484D01*
X47706202Y-125392329D01*
X47706204Y-125392333D01*
X47792452Y-125507544D01*
X47792455Y-125507547D01*
X47907666Y-125593795D01*
X47907670Y-125593797D01*
X48042517Y-125644091D01*
X48102114Y-125650499D01*
X48102118Y-125650499D01*
X48102127Y-125650500D01*
X49897872Y-125650499D01*
X49957483Y-125644091D01*
X50078282Y-125599036D01*
X50092329Y-125593797D01*
X50092333Y-125593795D01*
X50149938Y-125550671D01*
X50207546Y-125507546D01*
X50283438Y-125406167D01*
X50344063Y-125358491D01*
X50420406Y-125347515D01*
X50492009Y-125376180D01*
X50508068Y-125390095D01*
X50562490Y-125444517D01*
X50753567Y-125583343D01*
X50964008Y-125690568D01*
X51188632Y-125763553D01*
X51421908Y-125800500D01*
X51421913Y-125800500D01*
X51658087Y-125800500D01*
X51658092Y-125800500D01*
X51891368Y-125763553D01*
X52115992Y-125690568D01*
X52326433Y-125583343D01*
X52517510Y-125444517D01*
X52684517Y-125277510D01*
X52798931Y-125120031D01*
X52858868Y-125071497D01*
X52931164Y-125059074D01*
X52964730Y-125061715D01*
X53597037Y-124429408D01*
X53614075Y-124492993D01*
X53679901Y-124607007D01*
X53772993Y-124700099D01*
X53887007Y-124765925D01*
X53950590Y-124782962D01*
X53318282Y-125415270D01*
X53372444Y-125454621D01*
X53372444Y-125454622D01*
X53561779Y-125551093D01*
X53763871Y-125616757D01*
X53973758Y-125650000D01*
X54186242Y-125650000D01*
X54396128Y-125616757D01*
X54598220Y-125551093D01*
X54787555Y-125454622D01*
X54787557Y-125454620D01*
X54841716Y-125415270D01*
X54841716Y-125415269D01*
X54209409Y-124782962D01*
X54272993Y-124765925D01*
X54387007Y-124700099D01*
X54480099Y-124607007D01*
X54545925Y-124492993D01*
X54562962Y-124429409D01*
X55195269Y-125061716D01*
X55195270Y-125061716D01*
X55234620Y-125007557D01*
X55234622Y-125007555D01*
X55331093Y-124818220D01*
X55396757Y-124616128D01*
X55430000Y-124406242D01*
X55430000Y-124193757D01*
X55396757Y-123983871D01*
X55331093Y-123781779D01*
X55234621Y-123592444D01*
X55195270Y-123538282D01*
X54562962Y-124170589D01*
X54545925Y-124107007D01*
X54480099Y-123992993D01*
X54387007Y-123899901D01*
X54272993Y-123834075D01*
X54209408Y-123817037D01*
X54841716Y-123184729D01*
X54841716Y-123184728D01*
X54787555Y-123145378D01*
X54787555Y-123145377D01*
X54598220Y-123048906D01*
X54396128Y-122983242D01*
X54186242Y-122950000D01*
X53973758Y-122950000D01*
X53763871Y-122983242D01*
X53561779Y-123048906D01*
X53372444Y-123145378D01*
X53372443Y-123145378D01*
X53277080Y-123214664D01*
X53205074Y-123242304D01*
X53128896Y-123230238D01*
X53068956Y-123181700D01*
X53041316Y-123109694D01*
X53040500Y-123094120D01*
X53040500Y-102106445D01*
X53060462Y-102031945D01*
X53084141Y-102001086D01*
X60484641Y-94600586D01*
X60551436Y-94562022D01*
X60628564Y-94562022D01*
X60695359Y-94600586D01*
X60733923Y-94667381D01*
X60739000Y-94705945D01*
X60739000Y-119144008D01*
X60739000Y-119380192D01*
X60775947Y-119613468D01*
X60848932Y-119838092D01*
X60848936Y-119838101D01*
X60848937Y-119838102D01*
X60956155Y-120048530D01*
X60956158Y-120048535D01*
X61094977Y-120239603D01*
X61094980Y-120239606D01*
X61094983Y-120239610D01*
X62352350Y-121496977D01*
X63550514Y-122695141D01*
X63589078Y-122761936D01*
X63589078Y-122839064D01*
X63550514Y-122905859D01*
X63483719Y-122944423D01*
X63445155Y-122949500D01*
X62102136Y-122949500D01*
X62102111Y-122949502D01*
X62042521Y-122955908D01*
X62042515Y-122955909D01*
X61907670Y-123006202D01*
X61907666Y-123006204D01*
X61792455Y-123092452D01*
X61792452Y-123092455D01*
X61706204Y-123207666D01*
X61706202Y-123207670D01*
X61655908Y-123342517D01*
X61649500Y-123402114D01*
X61649500Y-123402127D01*
X61649500Y-124228582D01*
X61649501Y-124907800D01*
X61629539Y-124982300D01*
X61575001Y-125036838D01*
X61500501Y-125056800D01*
X56337807Y-125056800D01*
X56235556Y-125077139D01*
X56202472Y-125083719D01*
X56202463Y-125083722D01*
X56149665Y-125105592D01*
X56074993Y-125136522D01*
X56074992Y-125136523D01*
X55983176Y-125197873D01*
X55960260Y-125213184D01*
X55960253Y-125213190D01*
X50057166Y-131116275D01*
X49990371Y-131154839D01*
X49926870Y-131155784D01*
X49926750Y-131156905D01*
X49917607Y-131155922D01*
X49917545Y-131155923D01*
X49917485Y-131155908D01*
X49857876Y-131149500D01*
X48062136Y-131149500D01*
X48062111Y-131149502D01*
X48002521Y-131155908D01*
X48002515Y-131155909D01*
X47867670Y-131206202D01*
X47867666Y-131206204D01*
X47752455Y-131292452D01*
X47752452Y-131292455D01*
X47666204Y-131407666D01*
X47666202Y-131407670D01*
X47615908Y-131542517D01*
X47609500Y-131602114D01*
X47609500Y-133397863D01*
X47609502Y-133397888D01*
X47615908Y-133457478D01*
X47615909Y-133457484D01*
X47666202Y-133592329D01*
X47666204Y-133592333D01*
X47752452Y-133707544D01*
X47752455Y-133707547D01*
X47867666Y-133793795D01*
X47867670Y-133793797D01*
X48002517Y-133844091D01*
X48062114Y-133850499D01*
X48062118Y-133850499D01*
X48062127Y-133850500D01*
X49857872Y-133850499D01*
X49917483Y-133844091D01*
X50013447Y-133808298D01*
X50052329Y-133793797D01*
X50052333Y-133793795D01*
X50109938Y-133750671D01*
X50167546Y-133707546D01*
X50253796Y-133592331D01*
X50253797Y-133592329D01*
X50253798Y-133592327D01*
X50289215Y-133497367D01*
X50333953Y-133434540D01*
X50404110Y-133402498D01*
X50480889Y-133409829D01*
X50534180Y-133444076D01*
X50620208Y-133530104D01*
X50792184Y-133655051D01*
X50981588Y-133751557D01*
X51183757Y-133817246D01*
X51393713Y-133850500D01*
X51393718Y-133850500D01*
X51606282Y-133850500D01*
X51606287Y-133850500D01*
X51816243Y-133817246D01*
X52018412Y-133751557D01*
X52207816Y-133655051D01*
X52379792Y-133530104D01*
X52530104Y-133379792D01*
X52649767Y-133215089D01*
X52709704Y-133166552D01*
X52785883Y-133154486D01*
X52857888Y-133182126D01*
X52890852Y-133215089D01*
X52924729Y-133261716D01*
X53557037Y-132629408D01*
X53574075Y-132692993D01*
X53639901Y-132807007D01*
X53732993Y-132900099D01*
X53847007Y-132965925D01*
X53910590Y-132982962D01*
X53278282Y-133615270D01*
X53332444Y-133654621D01*
X53332444Y-133654622D01*
X53521779Y-133751093D01*
X53723871Y-133816757D01*
X53933758Y-133850000D01*
X54146242Y-133850000D01*
X54356128Y-133816757D01*
X54558220Y-133751093D01*
X54747555Y-133654622D01*
X54747557Y-133654620D01*
X54801716Y-133615270D01*
X54801716Y-133615269D01*
X54169409Y-132982962D01*
X54232993Y-132965925D01*
X54347007Y-132900099D01*
X54440099Y-132807007D01*
X54505925Y-132692993D01*
X54522962Y-132629409D01*
X55155269Y-133261716D01*
X55155270Y-133261716D01*
X55194620Y-133207557D01*
X55194622Y-133207555D01*
X55291093Y-133018220D01*
X55356757Y-132816128D01*
X55390000Y-132606242D01*
X55390000Y-132393757D01*
X55356757Y-132183871D01*
X55291093Y-131981779D01*
X55194621Y-131792444D01*
X55155270Y-131738282D01*
X54522962Y-132370589D01*
X54505925Y-132307007D01*
X54440099Y-132192993D01*
X54347007Y-132099901D01*
X54232993Y-132034075D01*
X54169407Y-132017037D01*
X54584331Y-131602114D01*
X61609500Y-131602114D01*
X61609500Y-133397863D01*
X61609502Y-133397888D01*
X61615908Y-133457478D01*
X61615909Y-133457484D01*
X61666202Y-133592329D01*
X61666204Y-133592333D01*
X61752452Y-133707544D01*
X61752455Y-133707547D01*
X61867666Y-133793795D01*
X61867670Y-133793797D01*
X62002517Y-133844091D01*
X62062114Y-133850499D01*
X62062118Y-133850499D01*
X62062127Y-133850500D01*
X63857872Y-133850499D01*
X63917483Y-133844091D01*
X64013447Y-133808298D01*
X64052329Y-133793797D01*
X64052333Y-133793795D01*
X64109938Y-133750671D01*
X64167546Y-133707546D01*
X64253796Y-133592331D01*
X64253797Y-133592329D01*
X64253798Y-133592327D01*
X64289215Y-133497367D01*
X64333953Y-133434540D01*
X64404110Y-133402498D01*
X64480889Y-133409829D01*
X64534180Y-133444076D01*
X64620208Y-133530104D01*
X64792184Y-133655051D01*
X64981588Y-133751557D01*
X65183757Y-133817246D01*
X65393713Y-133850500D01*
X65393718Y-133850500D01*
X65606282Y-133850500D01*
X65606287Y-133850500D01*
X65816243Y-133817246D01*
X66018412Y-133751557D01*
X66207816Y-133655051D01*
X66379792Y-133530104D01*
X66530104Y-133379792D01*
X66649767Y-133215089D01*
X66709704Y-133166552D01*
X66785883Y-133154486D01*
X66857888Y-133182126D01*
X66890852Y-133215089D01*
X66924729Y-133261716D01*
X67557037Y-132629408D01*
X67574075Y-132692993D01*
X67639901Y-132807007D01*
X67732993Y-132900099D01*
X67847007Y-132965925D01*
X67910590Y-132982962D01*
X67278281Y-133615270D01*
X67332444Y-133654621D01*
X67332444Y-133654622D01*
X67521779Y-133751093D01*
X67723871Y-133816757D01*
X67933758Y-133850000D01*
X68146242Y-133850000D01*
X68356128Y-133816757D01*
X68558220Y-133751093D01*
X68747555Y-133654622D01*
X68747557Y-133654620D01*
X68801716Y-133615270D01*
X68801716Y-133615269D01*
X68169409Y-132982962D01*
X68232993Y-132965925D01*
X68347007Y-132900099D01*
X68440099Y-132807007D01*
X68505925Y-132692993D01*
X68522962Y-132629409D01*
X69155269Y-133261716D01*
X69155270Y-133261716D01*
X69194620Y-133207557D01*
X69194622Y-133207555D01*
X69291093Y-133018220D01*
X69356757Y-132816128D01*
X69390000Y-132606242D01*
X69390000Y-132393757D01*
X69356757Y-132183871D01*
X69291093Y-131981779D01*
X69194621Y-131792444D01*
X69155270Y-131738282D01*
X68522962Y-132370589D01*
X68505925Y-132307007D01*
X68440099Y-132192993D01*
X68347007Y-132099901D01*
X68232993Y-132034075D01*
X68169407Y-132017037D01*
X68584331Y-131602114D01*
X75609500Y-131602114D01*
X75609500Y-133397863D01*
X75609502Y-133397888D01*
X75615908Y-133457478D01*
X75615909Y-133457484D01*
X75666202Y-133592329D01*
X75666204Y-133592333D01*
X75752452Y-133707544D01*
X75752455Y-133707547D01*
X75867666Y-133793795D01*
X75867670Y-133793797D01*
X76002517Y-133844091D01*
X76062114Y-133850499D01*
X76062118Y-133850499D01*
X76062127Y-133850500D01*
X77857872Y-133850499D01*
X77917483Y-133844091D01*
X78013447Y-133808298D01*
X78052329Y-133793797D01*
X78052333Y-133793795D01*
X78109938Y-133750671D01*
X78167546Y-133707546D01*
X78253796Y-133592331D01*
X78253797Y-133592329D01*
X78253798Y-133592327D01*
X78289215Y-133497367D01*
X78333953Y-133434540D01*
X78404110Y-133402498D01*
X78480889Y-133409829D01*
X78534180Y-133444076D01*
X78620208Y-133530104D01*
X78792184Y-133655051D01*
X78981588Y-133751557D01*
X79183757Y-133817246D01*
X79393713Y-133850500D01*
X79393718Y-133850500D01*
X79606282Y-133850500D01*
X79606287Y-133850500D01*
X79816243Y-133817246D01*
X80018412Y-133751557D01*
X80207816Y-133655051D01*
X80379792Y-133530104D01*
X80530104Y-133379792D01*
X80649767Y-133215089D01*
X80709704Y-133166552D01*
X80785883Y-133154486D01*
X80857888Y-133182126D01*
X80890852Y-133215089D01*
X80924729Y-133261716D01*
X81557037Y-132629408D01*
X81574075Y-132692993D01*
X81639901Y-132807007D01*
X81732993Y-132900099D01*
X81847007Y-132965925D01*
X81910590Y-132982962D01*
X81278282Y-133615270D01*
X81332444Y-133654621D01*
X81332444Y-133654622D01*
X81521779Y-133751093D01*
X81723871Y-133816757D01*
X81933758Y-133850000D01*
X82146242Y-133850000D01*
X82356128Y-133816757D01*
X82558220Y-133751093D01*
X82747555Y-133654622D01*
X82747557Y-133654620D01*
X82801716Y-133615270D01*
X82801716Y-133615269D01*
X82169409Y-132982962D01*
X82232993Y-132965925D01*
X82347007Y-132900099D01*
X82440099Y-132807007D01*
X82505925Y-132692993D01*
X82522962Y-132629409D01*
X83155269Y-133261716D01*
X83155270Y-133261716D01*
X83194620Y-133207557D01*
X83194622Y-133207555D01*
X83291093Y-133018220D01*
X83356757Y-132816128D01*
X83390000Y-132606242D01*
X83390000Y-132393757D01*
X83356757Y-132183871D01*
X83291093Y-131981779D01*
X83194621Y-131792444D01*
X83155270Y-131738282D01*
X82522962Y-132370589D01*
X82505925Y-132307007D01*
X82440099Y-132192993D01*
X82347007Y-132099901D01*
X82232993Y-132034075D01*
X82169407Y-132017037D01*
X82801716Y-131384729D01*
X82801716Y-131384728D01*
X82747555Y-131345378D01*
X82747555Y-131345377D01*
X82558220Y-131248906D01*
X82356128Y-131183242D01*
X82146242Y-131150000D01*
X81933758Y-131150000D01*
X81723871Y-131183242D01*
X81521779Y-131248906D01*
X81332444Y-131345378D01*
X81278282Y-131384728D01*
X81278282Y-131384729D01*
X81910590Y-132017037D01*
X81847007Y-132034075D01*
X81732993Y-132099901D01*
X81639901Y-132192993D01*
X81574075Y-132307007D01*
X81557037Y-132370590D01*
X80924729Y-131738282D01*
X80924727Y-131738282D01*
X80890852Y-131784908D01*
X80830912Y-131833446D01*
X80754734Y-131845512D01*
X80682729Y-131817871D01*
X80649765Y-131784908D01*
X80552112Y-131650500D01*
X80530104Y-131620208D01*
X80379792Y-131469896D01*
X80207816Y-131344949D01*
X80018412Y-131248443D01*
X79816243Y-131182754D01*
X79606287Y-131149500D01*
X79393713Y-131149500D01*
X79218749Y-131177211D01*
X79183756Y-131182754D01*
X79066196Y-131220952D01*
X78981588Y-131248443D01*
X78981582Y-131248445D01*
X78981582Y-131248446D01*
X78792182Y-131344950D01*
X78792181Y-131344950D01*
X78620209Y-131469895D01*
X78620198Y-131469904D01*
X78534179Y-131555923D01*
X78467384Y-131594487D01*
X78390256Y-131594487D01*
X78323462Y-131555922D01*
X78289215Y-131502633D01*
X78277008Y-131469904D01*
X78253796Y-131407669D01*
X78253795Y-131407668D01*
X78253795Y-131407666D01*
X78167547Y-131292455D01*
X78167544Y-131292452D01*
X78052333Y-131206204D01*
X78052329Y-131206202D01*
X77917482Y-131155908D01*
X77857876Y-131149500D01*
X76062136Y-131149500D01*
X76062111Y-131149502D01*
X76002521Y-131155908D01*
X76002515Y-131155909D01*
X75867670Y-131206202D01*
X75867666Y-131206204D01*
X75752455Y-131292452D01*
X75752452Y-131292455D01*
X75666204Y-131407666D01*
X75666202Y-131407670D01*
X75615908Y-131542517D01*
X75609500Y-131602114D01*
X68584331Y-131602114D01*
X68801716Y-131384729D01*
X68801716Y-131384728D01*
X68747555Y-131345378D01*
X68747555Y-131345377D01*
X68558220Y-131248906D01*
X68356128Y-131183242D01*
X68146242Y-131150000D01*
X67933758Y-131150000D01*
X67723871Y-131183242D01*
X67521779Y-131248906D01*
X67332444Y-131345378D01*
X67278282Y-131384728D01*
X67278282Y-131384729D01*
X67910590Y-132017037D01*
X67847007Y-132034075D01*
X67732993Y-132099901D01*
X67639901Y-132192993D01*
X67574075Y-132307007D01*
X67557037Y-132370590D01*
X66924729Y-131738282D01*
X66924727Y-131738282D01*
X66890852Y-131784908D01*
X66830912Y-131833446D01*
X66754734Y-131845512D01*
X66682729Y-131817871D01*
X66649765Y-131784908D01*
X66552112Y-131650500D01*
X66530104Y-131620208D01*
X66379792Y-131469896D01*
X66207816Y-131344949D01*
X66018412Y-131248443D01*
X65816243Y-131182754D01*
X65606287Y-131149500D01*
X65393713Y-131149500D01*
X65218749Y-131177211D01*
X65183756Y-131182754D01*
X65066196Y-131220952D01*
X64981588Y-131248443D01*
X64981582Y-131248445D01*
X64981582Y-131248446D01*
X64792182Y-131344950D01*
X64792181Y-131344950D01*
X64620209Y-131469895D01*
X64620198Y-131469904D01*
X64534179Y-131555923D01*
X64467384Y-131594487D01*
X64390256Y-131594487D01*
X64323462Y-131555922D01*
X64289215Y-131502633D01*
X64277008Y-131469904D01*
X64253796Y-131407669D01*
X64253795Y-131407668D01*
X64253795Y-131407666D01*
X64167547Y-131292455D01*
X64167544Y-131292452D01*
X64052333Y-131206204D01*
X64052329Y-131206202D01*
X63917482Y-131155908D01*
X63857876Y-131149500D01*
X62062136Y-131149500D01*
X62062111Y-131149502D01*
X62002521Y-131155908D01*
X62002515Y-131155909D01*
X61867670Y-131206202D01*
X61867666Y-131206204D01*
X61752455Y-131292452D01*
X61752452Y-131292455D01*
X61666204Y-131407666D01*
X61666202Y-131407670D01*
X61615908Y-131542517D01*
X61609500Y-131602114D01*
X54584331Y-131602114D01*
X54801716Y-131384729D01*
X54801716Y-131384728D01*
X54747555Y-131345378D01*
X54747555Y-131345377D01*
X54558220Y-131248906D01*
X54356128Y-131183242D01*
X54146242Y-131150000D01*
X53933758Y-131150000D01*
X53723871Y-131183242D01*
X53521779Y-131248906D01*
X53332444Y-131345378D01*
X53278282Y-131384728D01*
X53278282Y-131384729D01*
X53910590Y-132017037D01*
X53847007Y-132034075D01*
X53732993Y-132099901D01*
X53639901Y-132192993D01*
X53574075Y-132307007D01*
X53557037Y-132370590D01*
X52924729Y-131738282D01*
X52924727Y-131738282D01*
X52890852Y-131784908D01*
X52830912Y-131833446D01*
X52754734Y-131845512D01*
X52682729Y-131817871D01*
X52649765Y-131784908D01*
X52552112Y-131650500D01*
X52530104Y-131620208D01*
X52379792Y-131469896D01*
X52262569Y-131384729D01*
X52207818Y-131344950D01*
X52207812Y-131344947D01*
X52126878Y-131303708D01*
X52069561Y-131252099D01*
X52045728Y-131178746D01*
X52061765Y-131103303D01*
X52089162Y-131065593D01*
X56653315Y-126501441D01*
X56720110Y-126462877D01*
X56758674Y-126457800D01*
X72118611Y-126457800D01*
X72175630Y-126469142D01*
X72253608Y-126501441D01*
X72315403Y-126527037D01*
X72470058Y-126557800D01*
X72627742Y-126557800D01*
X72782397Y-126527037D01*
X72928079Y-126466694D01*
X73059189Y-126379089D01*
X73170689Y-126267589D01*
X73258294Y-126136479D01*
X73318637Y-125990797D01*
X73349400Y-125836142D01*
X73349400Y-125678458D01*
X73344848Y-125655576D01*
X73332560Y-125593797D01*
X73318637Y-125523803D01*
X73258294Y-125378121D01*
X73170689Y-125247011D01*
X73059189Y-125135511D01*
X72928079Y-125047906D01*
X72928078Y-125047905D01*
X72928076Y-125047904D01*
X72782398Y-124987563D01*
X72782394Y-124987562D01*
X72627742Y-124956800D01*
X72470058Y-124956800D01*
X72315405Y-124987562D01*
X72315401Y-124987563D01*
X72175630Y-125045458D01*
X72118611Y-125056800D01*
X69452678Y-125056800D01*
X69378178Y-125036838D01*
X69323640Y-124982300D01*
X69303678Y-124907800D01*
X69319918Y-124840156D01*
X69331092Y-124818223D01*
X69396757Y-124616128D01*
X69430000Y-124406242D01*
X69430000Y-124193757D01*
X69396757Y-123983871D01*
X69331093Y-123781779D01*
X69234621Y-123592444D01*
X69195270Y-123538282D01*
X68562962Y-124170589D01*
X68545925Y-124107007D01*
X68480099Y-123992993D01*
X68387007Y-123899901D01*
X68272993Y-123834075D01*
X68209408Y-123817037D01*
X68841716Y-123184729D01*
X68841716Y-123184728D01*
X68787555Y-123145378D01*
X68787555Y-123145377D01*
X68598220Y-123048906D01*
X68396128Y-122983242D01*
X68186242Y-122950000D01*
X67973758Y-122950000D01*
X67763871Y-122983242D01*
X67561779Y-123048906D01*
X67372444Y-123145378D01*
X67372443Y-123145378D01*
X67277080Y-123214664D01*
X67205074Y-123242304D01*
X67128896Y-123230238D01*
X67068956Y-123181700D01*
X67041316Y-123109694D01*
X67040500Y-123094120D01*
X67040500Y-122444512D01*
X67040500Y-122444508D01*
X67003553Y-122211232D01*
X66930568Y-121986608D01*
X66823343Y-121776167D01*
X66684517Y-121585090D01*
X66517510Y-121418083D01*
X63783641Y-118684214D01*
X63745077Y-118617419D01*
X63740000Y-118578855D01*
X63740000Y-115510926D01*
X63759962Y-115436426D01*
X63814500Y-115381888D01*
X63889000Y-115361926D01*
X63963500Y-115381888D01*
X64012888Y-115428145D01*
X64107861Y-115570282D01*
X64107864Y-115570285D01*
X64255708Y-115718129D01*
X64255714Y-115718134D01*
X75322520Y-126784941D01*
X75361084Y-126851736D01*
X75361084Y-126928864D01*
X75322520Y-126995659D01*
X75255725Y-127034223D01*
X75217161Y-127039300D01*
X59891307Y-127039300D01*
X59755974Y-127066219D01*
X59755970Y-127066220D01*
X59628497Y-127119020D01*
X59628486Y-127119026D01*
X59513758Y-127195684D01*
X59429728Y-127279714D01*
X59381390Y-127312012D01*
X59241621Y-127369905D01*
X59110507Y-127457514D01*
X58999014Y-127569007D01*
X58911404Y-127700123D01*
X58851063Y-127845801D01*
X58851062Y-127845805D01*
X58820300Y-128000457D01*
X58820300Y-128158142D01*
X58851062Y-128312794D01*
X58851063Y-128312798D01*
X58911404Y-128458476D01*
X58911405Y-128458478D01*
X58911406Y-128458479D01*
X58999011Y-128589589D01*
X59110511Y-128701089D01*
X59241621Y-128788694D01*
X59387303Y-128849037D01*
X59541958Y-128879800D01*
X59699642Y-128879800D01*
X59854297Y-128849037D01*
X59999979Y-128788694D01*
X60131089Y-128701089D01*
X60242589Y-128589589D01*
X60298094Y-128506520D01*
X60356083Y-128455666D01*
X60421983Y-128440300D01*
X75436011Y-128440300D01*
X75493030Y-128451642D01*
X75589709Y-128491687D01*
X75632803Y-128509537D01*
X75787458Y-128540300D01*
X75945142Y-128540300D01*
X76099797Y-128509537D01*
X76245479Y-128449194D01*
X76376589Y-128361589D01*
X76488089Y-128250089D01*
X76507216Y-128221462D01*
X76565201Y-128170610D01*
X76640847Y-128155562D01*
X76713882Y-128180353D01*
X76736463Y-128198884D01*
X76870918Y-128333339D01*
X76979915Y-128406168D01*
X77034784Y-128442831D01*
X77034786Y-128442832D01*
X77158243Y-128493969D01*
X77216864Y-128518251D01*
X77255032Y-128525843D01*
X77410159Y-128556700D01*
X77410160Y-128556700D01*
X77607240Y-128556700D01*
X82352062Y-128556700D01*
X82426562Y-128576662D01*
X82457420Y-128600340D01*
X88597960Y-134740881D01*
X88597961Y-134740882D01*
X88737318Y-134880239D01*
X88802775Y-134923976D01*
X88901183Y-134989731D01*
X89029934Y-135043061D01*
X89029933Y-135043061D01*
X89059098Y-135055141D01*
X89083264Y-135065151D01*
X89179910Y-135084374D01*
X89179911Y-135084375D01*
X89227585Y-135093858D01*
X89276559Y-135103600D01*
X89276560Y-135103600D01*
X89276563Y-135103600D01*
X106189237Y-135103600D01*
X106189240Y-135103600D01*
X106189241Y-135103600D01*
X106285888Y-135084375D01*
X106382536Y-135065151D01*
X106435865Y-135043061D01*
X106564614Y-134989732D01*
X106728482Y-134880239D01*
X106867839Y-134740882D01*
X106867840Y-134740880D01*
X106876325Y-134732395D01*
X106876331Y-134732388D01*
X107754258Y-133854460D01*
X107813571Y-133818114D01*
X107816241Y-133817246D01*
X107816243Y-133817246D01*
X108018412Y-133751557D01*
X108207816Y-133655051D01*
X108379792Y-133530104D01*
X108530104Y-133379792D01*
X108649767Y-133215089D01*
X108709704Y-133166552D01*
X108785883Y-133154486D01*
X108857888Y-133182126D01*
X108890852Y-133215089D01*
X108924729Y-133261716D01*
X109557037Y-132629408D01*
X109574075Y-132692993D01*
X109639901Y-132807007D01*
X109732993Y-132900099D01*
X109847007Y-132965925D01*
X109910590Y-132982962D01*
X109278282Y-133615270D01*
X109332444Y-133654621D01*
X109332444Y-133654622D01*
X109521779Y-133751093D01*
X109723871Y-133816757D01*
X109933758Y-133850000D01*
X110146242Y-133850000D01*
X110356128Y-133816757D01*
X110558220Y-133751093D01*
X110747555Y-133654622D01*
X110747557Y-133654620D01*
X110801716Y-133615270D01*
X110801716Y-133615269D01*
X110169409Y-132982962D01*
X110232993Y-132965925D01*
X110347007Y-132900099D01*
X110440099Y-132807007D01*
X110505925Y-132692993D01*
X110522962Y-132629409D01*
X111155269Y-133261716D01*
X111155270Y-133261716D01*
X111194620Y-133207557D01*
X111194622Y-133207555D01*
X111291093Y-133018220D01*
X111356757Y-132816128D01*
X111390000Y-132606242D01*
X111390000Y-132393757D01*
X111356757Y-132183871D01*
X111291093Y-131981779D01*
X111194621Y-131792444D01*
X111155270Y-131738282D01*
X110522962Y-132370589D01*
X110505925Y-132307007D01*
X110440099Y-132192993D01*
X110347007Y-132099901D01*
X110232993Y-132034075D01*
X110169407Y-132017037D01*
X110584331Y-131602114D01*
X115109500Y-131602114D01*
X115109500Y-133397863D01*
X115109502Y-133397888D01*
X115115908Y-133457478D01*
X115115909Y-133457484D01*
X115166202Y-133592329D01*
X115166204Y-133592333D01*
X115252452Y-133707544D01*
X115252455Y-133707547D01*
X115367666Y-133793795D01*
X115367670Y-133793797D01*
X115502517Y-133844091D01*
X115562114Y-133850499D01*
X115562118Y-133850499D01*
X115562127Y-133850500D01*
X117357872Y-133850499D01*
X117417483Y-133844091D01*
X117513447Y-133808298D01*
X117552329Y-133793797D01*
X117552333Y-133793795D01*
X117609938Y-133750671D01*
X117667546Y-133707546D01*
X117753796Y-133592331D01*
X117753797Y-133592329D01*
X117753798Y-133592327D01*
X117789215Y-133497367D01*
X117833953Y-133434540D01*
X117904110Y-133402498D01*
X117980889Y-133409829D01*
X118034180Y-133444076D01*
X118120208Y-133530104D01*
X118292184Y-133655051D01*
X118481588Y-133751557D01*
X118683757Y-133817246D01*
X118893713Y-133850500D01*
X118893718Y-133850500D01*
X119106282Y-133850500D01*
X119106287Y-133850500D01*
X119316243Y-133817246D01*
X119518412Y-133751557D01*
X119707816Y-133655051D01*
X119879792Y-133530104D01*
X120030104Y-133379792D01*
X120149767Y-133215089D01*
X120209704Y-133166552D01*
X120285883Y-133154486D01*
X120357888Y-133182126D01*
X120390852Y-133215089D01*
X120424729Y-133261716D01*
X121057037Y-132629408D01*
X121074075Y-132692993D01*
X121139901Y-132807007D01*
X121232993Y-132900099D01*
X121347007Y-132965925D01*
X121410590Y-132982962D01*
X120778281Y-133615270D01*
X120832444Y-133654621D01*
X120832444Y-133654622D01*
X121021779Y-133751093D01*
X121223871Y-133816757D01*
X121433758Y-133850000D01*
X121646242Y-133850000D01*
X121856128Y-133816757D01*
X122058220Y-133751093D01*
X122247555Y-133654622D01*
X122247557Y-133654620D01*
X122301716Y-133615270D01*
X122301716Y-133615269D01*
X121669409Y-132982962D01*
X121732993Y-132965925D01*
X121847007Y-132900099D01*
X121940099Y-132807007D01*
X122005925Y-132692993D01*
X122022962Y-132629409D01*
X122655269Y-133261716D01*
X122655270Y-133261716D01*
X122694620Y-133207557D01*
X122694622Y-133207555D01*
X122791093Y-133018220D01*
X122856757Y-132816128D01*
X122890000Y-132606242D01*
X122890000Y-132393757D01*
X122856757Y-132183871D01*
X122791093Y-131981779D01*
X122694621Y-131792444D01*
X122655270Y-131738282D01*
X122022962Y-132370589D01*
X122005925Y-132307007D01*
X121940099Y-132192993D01*
X121847007Y-132099901D01*
X121732993Y-132034075D01*
X121669407Y-132017037D01*
X122301716Y-131384729D01*
X122301716Y-131384728D01*
X122247555Y-131345378D01*
X122247555Y-131345377D01*
X122058220Y-131248906D01*
X121856128Y-131183242D01*
X121646242Y-131150000D01*
X121433758Y-131150000D01*
X121223871Y-131183242D01*
X121021779Y-131248906D01*
X120832444Y-131345378D01*
X120778282Y-131384728D01*
X120778282Y-131384729D01*
X121410590Y-132017037D01*
X121347007Y-132034075D01*
X121232993Y-132099901D01*
X121139901Y-132192993D01*
X121074075Y-132307007D01*
X121057037Y-132370590D01*
X120424729Y-131738282D01*
X120424727Y-131738282D01*
X120390852Y-131784908D01*
X120330912Y-131833446D01*
X120254734Y-131845512D01*
X120182729Y-131817871D01*
X120149765Y-131784908D01*
X120052112Y-131650500D01*
X120030104Y-131620208D01*
X119879792Y-131469896D01*
X119707816Y-131344949D01*
X119518412Y-131248443D01*
X119316243Y-131182754D01*
X119106287Y-131149500D01*
X118893713Y-131149500D01*
X118718749Y-131177211D01*
X118683756Y-131182754D01*
X118566196Y-131220952D01*
X118481588Y-131248443D01*
X118481582Y-131248445D01*
X118481582Y-131248446D01*
X118292182Y-131344950D01*
X118292181Y-131344950D01*
X118120209Y-131469895D01*
X118120198Y-131469904D01*
X118034179Y-131555923D01*
X117967384Y-131594487D01*
X117890256Y-131594487D01*
X117823462Y-131555922D01*
X117789215Y-131502633D01*
X117777008Y-131469904D01*
X117753796Y-131407669D01*
X117753795Y-131407668D01*
X117753795Y-131407666D01*
X117667547Y-131292455D01*
X117667544Y-131292452D01*
X117552333Y-131206204D01*
X117552329Y-131206202D01*
X117417482Y-131155908D01*
X117357876Y-131149500D01*
X115562136Y-131149500D01*
X115562111Y-131149502D01*
X115502521Y-131155908D01*
X115502515Y-131155909D01*
X115367670Y-131206202D01*
X115367666Y-131206204D01*
X115252455Y-131292452D01*
X115252452Y-131292455D01*
X115166204Y-131407666D01*
X115166202Y-131407670D01*
X115115908Y-131542517D01*
X115109500Y-131602114D01*
X110584331Y-131602114D01*
X110801716Y-131384729D01*
X110801716Y-131384728D01*
X110747555Y-131345378D01*
X110747555Y-131345377D01*
X110558220Y-131248906D01*
X110356128Y-131183242D01*
X110146242Y-131150000D01*
X109933758Y-131150000D01*
X109723871Y-131183242D01*
X109521779Y-131248906D01*
X109332444Y-131345378D01*
X109278282Y-131384728D01*
X109278282Y-131384729D01*
X109910590Y-132017037D01*
X109847007Y-132034075D01*
X109732993Y-132099901D01*
X109639901Y-132192993D01*
X109574075Y-132307007D01*
X109557037Y-132370590D01*
X108924729Y-131738282D01*
X108924727Y-131738282D01*
X108890852Y-131784908D01*
X108830912Y-131833446D01*
X108754734Y-131845512D01*
X108682729Y-131817871D01*
X108649765Y-131784908D01*
X108552112Y-131650500D01*
X108530104Y-131620208D01*
X108379792Y-131469896D01*
X108207816Y-131344949D01*
X108018412Y-131248443D01*
X107816243Y-131182754D01*
X107606287Y-131149500D01*
X107393713Y-131149500D01*
X107218749Y-131177211D01*
X107183756Y-131182754D01*
X107066196Y-131220952D01*
X106981588Y-131248443D01*
X106981582Y-131248445D01*
X106981582Y-131248446D01*
X106792182Y-131344950D01*
X106792181Y-131344950D01*
X106620209Y-131469895D01*
X106620198Y-131469904D01*
X106534179Y-131555923D01*
X106467384Y-131594487D01*
X106390256Y-131594487D01*
X106323462Y-131555922D01*
X106289215Y-131502633D01*
X106277008Y-131469904D01*
X106253796Y-131407669D01*
X106253795Y-131407668D01*
X106253795Y-131407666D01*
X106167547Y-131292455D01*
X106167544Y-131292452D01*
X106052333Y-131206204D01*
X106052329Y-131206202D01*
X105917482Y-131155908D01*
X105857876Y-131149500D01*
X104062136Y-131149500D01*
X104062111Y-131149502D01*
X104002521Y-131155908D01*
X104002515Y-131155909D01*
X103867670Y-131206202D01*
X103867666Y-131206204D01*
X103752455Y-131292452D01*
X103752452Y-131292455D01*
X103666204Y-131407666D01*
X103666202Y-131407670D01*
X103615908Y-131542517D01*
X103609500Y-131602114D01*
X103609500Y-131650500D01*
X103589538Y-131725000D01*
X103535000Y-131779538D01*
X103460500Y-131799500D01*
X100321775Y-131799500D01*
X100247275Y-131779538D01*
X100216416Y-131755859D01*
X94172755Y-125712198D01*
X94134191Y-125645403D01*
X94134191Y-125568275D01*
X94172755Y-125501480D01*
X94210468Y-125474080D01*
X94247816Y-125455051D01*
X94419792Y-125330104D01*
X94570104Y-125179792D01*
X94689767Y-125015089D01*
X94749704Y-124966552D01*
X94825883Y-124954486D01*
X94897888Y-124982126D01*
X94930852Y-125015089D01*
X94964729Y-125061716D01*
X95597037Y-124429408D01*
X95614075Y-124492993D01*
X95679901Y-124607007D01*
X95772993Y-124700099D01*
X95887007Y-124765925D01*
X95950590Y-124782962D01*
X95318281Y-125415270D01*
X95372444Y-125454621D01*
X95372444Y-125454622D01*
X95561779Y-125551093D01*
X95763871Y-125616757D01*
X95973758Y-125650000D01*
X96186242Y-125650000D01*
X96396128Y-125616757D01*
X96598220Y-125551093D01*
X96787555Y-125454622D01*
X96787557Y-125454620D01*
X96841716Y-125415270D01*
X96841716Y-125415269D01*
X96209409Y-124782962D01*
X96272993Y-124765925D01*
X96387007Y-124700099D01*
X96480099Y-124607007D01*
X96545925Y-124492993D01*
X96562962Y-124429409D01*
X97195269Y-125061716D01*
X97195270Y-125061716D01*
X97234620Y-125007557D01*
X97234622Y-125007555D01*
X97331093Y-124818220D01*
X97396757Y-124616128D01*
X97430000Y-124406242D01*
X97430000Y-124193757D01*
X97396757Y-123983871D01*
X97331093Y-123781779D01*
X97234621Y-123592444D01*
X97195270Y-123538282D01*
X96562962Y-124170589D01*
X96545925Y-124107007D01*
X96480099Y-123992993D01*
X96387007Y-123899901D01*
X96272993Y-123834075D01*
X96209407Y-123817037D01*
X96624331Y-123402114D01*
X103649500Y-123402114D01*
X103649500Y-125197863D01*
X103649501Y-125197872D01*
X103655908Y-125257478D01*
X103655909Y-125257484D01*
X103706202Y-125392329D01*
X103706204Y-125392333D01*
X103792452Y-125507544D01*
X103792455Y-125507547D01*
X103907666Y-125593795D01*
X103907670Y-125593797D01*
X104042517Y-125644091D01*
X104102114Y-125650499D01*
X104102118Y-125650499D01*
X104102127Y-125650500D01*
X105897872Y-125650499D01*
X105957483Y-125644091D01*
X106078282Y-125599036D01*
X106092329Y-125593797D01*
X106092333Y-125593795D01*
X106149938Y-125550671D01*
X106207546Y-125507546D01*
X106293796Y-125392331D01*
X106293797Y-125392329D01*
X106293798Y-125392327D01*
X106329215Y-125297367D01*
X106373953Y-125234540D01*
X106444110Y-125202498D01*
X106520889Y-125209829D01*
X106574180Y-125244076D01*
X106660208Y-125330104D01*
X106832184Y-125455051D01*
X107021588Y-125551557D01*
X107223757Y-125617246D01*
X107433713Y-125650500D01*
X107433718Y-125650500D01*
X107646282Y-125650500D01*
X107646287Y-125650500D01*
X107856243Y-125617246D01*
X108058412Y-125551557D01*
X108247816Y-125455051D01*
X108419792Y-125330104D01*
X108570104Y-125179792D01*
X108689767Y-125015089D01*
X108749704Y-124966552D01*
X108825883Y-124954486D01*
X108897888Y-124982126D01*
X108930852Y-125015089D01*
X108964729Y-125061716D01*
X109597037Y-124429408D01*
X109614075Y-124492993D01*
X109679901Y-124607007D01*
X109772993Y-124700099D01*
X109887007Y-124765925D01*
X109950590Y-124782962D01*
X109318281Y-125415270D01*
X109372444Y-125454621D01*
X109372444Y-125454622D01*
X109561779Y-125551093D01*
X109763871Y-125616757D01*
X109973758Y-125650000D01*
X110186242Y-125650000D01*
X110396128Y-125616757D01*
X110598220Y-125551093D01*
X110787555Y-125454622D01*
X110787557Y-125454620D01*
X110841716Y-125415270D01*
X110841716Y-125415269D01*
X110209409Y-124782962D01*
X110272993Y-124765925D01*
X110387007Y-124700099D01*
X110480099Y-124607007D01*
X110545925Y-124492993D01*
X110562962Y-124429409D01*
X111195269Y-125061716D01*
X111195270Y-125061716D01*
X111234620Y-125007557D01*
X111234622Y-125007555D01*
X111331093Y-124818220D01*
X111396757Y-124616128D01*
X111430000Y-124406242D01*
X111430000Y-124193757D01*
X111396757Y-123983871D01*
X111331093Y-123781779D01*
X111234621Y-123592444D01*
X111195270Y-123538282D01*
X110562962Y-124170589D01*
X110545925Y-124107007D01*
X110480099Y-123992993D01*
X110387007Y-123899901D01*
X110272993Y-123834075D01*
X110209407Y-123817037D01*
X110841716Y-123184729D01*
X110841716Y-123184728D01*
X110787555Y-123145378D01*
X110787555Y-123145377D01*
X110598220Y-123048906D01*
X110396128Y-122983242D01*
X110186242Y-122950000D01*
X109973758Y-122950000D01*
X109763871Y-122983242D01*
X109561779Y-123048906D01*
X109372444Y-123145378D01*
X109318282Y-123184728D01*
X109318282Y-123184729D01*
X109950590Y-123817037D01*
X109887007Y-123834075D01*
X109772993Y-123899901D01*
X109679901Y-123992993D01*
X109614075Y-124107007D01*
X109597037Y-124170590D01*
X108964729Y-123538282D01*
X108964727Y-123538282D01*
X108930852Y-123584908D01*
X108870912Y-123633446D01*
X108794734Y-123645512D01*
X108722729Y-123617871D01*
X108689765Y-123584908D01*
X108655889Y-123538282D01*
X108570104Y-123420208D01*
X108419792Y-123269896D01*
X108247816Y-123144949D01*
X108058412Y-123048443D01*
X107856243Y-122982754D01*
X107646287Y-122949500D01*
X107433713Y-122949500D01*
X107258749Y-122977211D01*
X107223756Y-122982754D01*
X107034203Y-123044344D01*
X107021588Y-123048443D01*
X107021582Y-123048445D01*
X107021582Y-123048446D01*
X106832182Y-123144950D01*
X106832181Y-123144950D01*
X106660209Y-123269895D01*
X106660198Y-123269904D01*
X106574179Y-123355923D01*
X106507384Y-123394487D01*
X106430256Y-123394487D01*
X106363462Y-123355922D01*
X106329215Y-123302633D01*
X106317008Y-123269904D01*
X106293796Y-123207669D01*
X106293795Y-123207668D01*
X106293795Y-123207666D01*
X106207547Y-123092455D01*
X106207544Y-123092452D01*
X106092333Y-123006204D01*
X106092329Y-123006202D01*
X105957482Y-122955908D01*
X105897876Y-122949500D01*
X104102136Y-122949500D01*
X104102111Y-122949502D01*
X104042521Y-122955908D01*
X104042515Y-122955909D01*
X103907670Y-123006202D01*
X103907666Y-123006204D01*
X103792455Y-123092452D01*
X103792452Y-123092455D01*
X103706204Y-123207666D01*
X103706202Y-123207670D01*
X103655908Y-123342517D01*
X103649500Y-123402114D01*
X96624331Y-123402114D01*
X96841716Y-123184729D01*
X96841716Y-123184728D01*
X96787555Y-123145378D01*
X96787555Y-123145377D01*
X96598220Y-123048906D01*
X96396128Y-122983242D01*
X96186242Y-122950000D01*
X95973758Y-122950000D01*
X95763871Y-122983242D01*
X95561779Y-123048906D01*
X95372444Y-123145378D01*
X95318282Y-123184728D01*
X95318282Y-123184729D01*
X95950590Y-123817037D01*
X95887007Y-123834075D01*
X95772993Y-123899901D01*
X95679901Y-123992993D01*
X95614075Y-124107007D01*
X95597037Y-124170590D01*
X94964729Y-123538282D01*
X94964727Y-123538282D01*
X94930852Y-123584908D01*
X94870912Y-123633446D01*
X94794734Y-123645512D01*
X94722729Y-123617871D01*
X94689765Y-123584908D01*
X94655889Y-123538282D01*
X94570104Y-123420208D01*
X94419792Y-123269896D01*
X94247816Y-123144949D01*
X94058412Y-123048443D01*
X93856243Y-122982754D01*
X93646287Y-122949500D01*
X93433713Y-122949500D01*
X93307445Y-122969498D01*
X93223760Y-122982753D01*
X93094578Y-123024727D01*
X93017556Y-123028763D01*
X92948834Y-122993747D01*
X92919670Y-122957818D01*
X92914680Y-122949223D01*
X92909075Y-122935689D01*
X92894562Y-122913969D01*
X92832414Y-122820957D01*
X87865170Y-117853713D01*
X115109500Y-117853713D01*
X115109500Y-118066287D01*
X115142754Y-118276243D01*
X115208443Y-118478412D01*
X115301357Y-118660767D01*
X115304950Y-118667817D01*
X115304950Y-118667818D01*
X115332079Y-118705158D01*
X115422081Y-118829036D01*
X115429895Y-118839790D01*
X115429897Y-118839793D01*
X115516311Y-118926207D01*
X115554875Y-118993002D01*
X115554875Y-119070130D01*
X115516311Y-119136925D01*
X115463024Y-119171171D01*
X115367911Y-119206647D01*
X115367905Y-119206650D01*
X115252812Y-119292809D01*
X115252809Y-119292812D01*
X115166650Y-119407905D01*
X115166645Y-119407915D01*
X115116401Y-119542622D01*
X115110001Y-119602157D01*
X115110000Y-119602177D01*
X115110000Y-120250000D01*
X116026988Y-120250000D01*
X115994075Y-120307007D01*
X115960000Y-120434174D01*
X115960000Y-120565826D01*
X115994075Y-120692993D01*
X116026988Y-120750000D01*
X115110000Y-120750000D01*
X115110000Y-121397822D01*
X115110001Y-121397842D01*
X115116401Y-121457377D01*
X115166645Y-121592084D01*
X115166650Y-121592094D01*
X115252809Y-121707187D01*
X115252812Y-121707190D01*
X115367905Y-121793349D01*
X115367915Y-121793354D01*
X115502623Y-121843598D01*
X115502621Y-121843598D01*
X115562157Y-121849998D01*
X115562177Y-121850000D01*
X116210000Y-121850000D01*
X116210000Y-120933012D01*
X116267007Y-120965925D01*
X116394174Y-121000000D01*
X116525826Y-121000000D01*
X116652993Y-120965925D01*
X116710000Y-120933012D01*
X116710000Y-121850000D01*
X117357823Y-121850000D01*
X117357842Y-121849998D01*
X117417377Y-121843598D01*
X117552084Y-121793354D01*
X117552094Y-121793349D01*
X117667187Y-121707190D01*
X117667190Y-121707187D01*
X117753349Y-121592094D01*
X117753351Y-121592090D01*
X117788827Y-121496977D01*
X117833566Y-121434150D01*
X117903724Y-121402110D01*
X117980503Y-121409441D01*
X118033792Y-121443688D01*
X118120208Y-121530104D01*
X118292184Y-121655051D01*
X118481588Y-121751557D01*
X118683757Y-121817246D01*
X118893713Y-121850500D01*
X118893718Y-121850500D01*
X119106282Y-121850500D01*
X119106287Y-121850500D01*
X119316243Y-121817246D01*
X119518412Y-121751557D01*
X119707816Y-121655051D01*
X119879792Y-121530104D01*
X120030104Y-121379792D01*
X120149456Y-121215517D01*
X120209396Y-121166979D01*
X120285574Y-121154913D01*
X120357580Y-121182553D01*
X120390544Y-121215517D01*
X120509896Y-121379792D01*
X120660208Y-121530104D01*
X120832184Y-121655051D01*
X121021588Y-121751557D01*
X121223757Y-121817246D01*
X121433713Y-121850500D01*
X121433718Y-121850500D01*
X121646282Y-121850500D01*
X121646287Y-121850500D01*
X121856243Y-121817246D01*
X122058412Y-121751557D01*
X122247816Y-121655051D01*
X122419792Y-121530104D01*
X122570104Y-121379792D01*
X122689456Y-121215517D01*
X122749396Y-121166979D01*
X122825574Y-121154913D01*
X122897580Y-121182553D01*
X122930544Y-121215517D01*
X123049896Y-121379792D01*
X123200208Y-121530104D01*
X123372184Y-121655051D01*
X123561588Y-121751557D01*
X123763757Y-121817246D01*
X123973713Y-121850500D01*
X123973718Y-121850500D01*
X124186282Y-121850500D01*
X124186287Y-121850500D01*
X124396243Y-121817246D01*
X124598412Y-121751557D01*
X124787816Y-121655051D01*
X124959792Y-121530104D01*
X125110104Y-121379792D01*
X125235051Y-121207816D01*
X125331557Y-121018412D01*
X125397246Y-120816243D01*
X125430500Y-120606287D01*
X125430500Y-120393713D01*
X125397246Y-120183757D01*
X125331557Y-119981588D01*
X125235051Y-119792184D01*
X125110104Y-119620208D01*
X124959792Y-119469896D01*
X124795517Y-119350544D01*
X124746979Y-119290604D01*
X124734913Y-119214426D01*
X124762553Y-119142420D01*
X124795517Y-119109456D01*
X124802519Y-119104368D01*
X124959792Y-118990104D01*
X125110104Y-118839792D01*
X125235051Y-118667816D01*
X125331557Y-118478412D01*
X125397246Y-118276243D01*
X125430500Y-118066287D01*
X125430500Y-117853713D01*
X125397246Y-117643757D01*
X125331557Y-117441588D01*
X125235051Y-117252184D01*
X125110104Y-117080208D01*
X124959792Y-116929896D01*
X124787816Y-116804949D01*
X124598412Y-116708443D01*
X124396243Y-116642754D01*
X124186287Y-116609500D01*
X123973713Y-116609500D01*
X123798749Y-116637211D01*
X123763756Y-116642754D01*
X123561594Y-116708441D01*
X123561588Y-116708443D01*
X123561582Y-116708445D01*
X123561582Y-116708446D01*
X123372182Y-116804950D01*
X123372181Y-116804950D01*
X123200209Y-116929895D01*
X123200206Y-116929897D01*
X123049897Y-117080206D01*
X123049895Y-117080209D01*
X122930544Y-117244482D01*
X122870604Y-117293020D01*
X122794425Y-117305086D01*
X122722420Y-117277446D01*
X122689456Y-117244482D01*
X122627236Y-117158844D01*
X122570104Y-117080208D01*
X122419792Y-116929896D01*
X122247816Y-116804949D01*
X122058412Y-116708443D01*
X121856243Y-116642754D01*
X121646287Y-116609500D01*
X121433713Y-116609500D01*
X121258749Y-116637211D01*
X121223756Y-116642754D01*
X121021594Y-116708441D01*
X121021588Y-116708443D01*
X121021582Y-116708445D01*
X121021582Y-116708446D01*
X120832182Y-116804950D01*
X120832181Y-116804950D01*
X120660209Y-116929895D01*
X120660206Y-116929897D01*
X120509897Y-117080206D01*
X120509895Y-117080209D01*
X120390544Y-117244482D01*
X120330604Y-117293020D01*
X120254425Y-117305086D01*
X120182420Y-117277446D01*
X120149456Y-117244482D01*
X120087236Y-117158844D01*
X120030104Y-117080208D01*
X119879792Y-116929896D01*
X119707816Y-116804949D01*
X119518412Y-116708443D01*
X119316243Y-116642754D01*
X119106287Y-116609500D01*
X118893713Y-116609500D01*
X118718749Y-116637211D01*
X118683756Y-116642754D01*
X118481594Y-116708441D01*
X118481588Y-116708443D01*
X118481582Y-116708445D01*
X118481582Y-116708446D01*
X118292182Y-116804950D01*
X118292181Y-116804950D01*
X118120209Y-116929895D01*
X118120206Y-116929897D01*
X117969897Y-117080206D01*
X117969895Y-117080209D01*
X117850544Y-117244482D01*
X117790604Y-117293020D01*
X117714425Y-117305086D01*
X117642420Y-117277446D01*
X117609456Y-117244482D01*
X117547236Y-117158844D01*
X117490104Y-117080208D01*
X117339792Y-116929896D01*
X117167816Y-116804949D01*
X116978412Y-116708443D01*
X116776243Y-116642754D01*
X116566287Y-116609500D01*
X116353713Y-116609500D01*
X116178749Y-116637211D01*
X116143756Y-116642754D01*
X115941594Y-116708441D01*
X115941588Y-116708443D01*
X115941582Y-116708445D01*
X115941582Y-116708446D01*
X115752182Y-116804950D01*
X115752181Y-116804950D01*
X115580209Y-116929895D01*
X115580206Y-116929897D01*
X115429897Y-117080206D01*
X115429895Y-117080209D01*
X115304950Y-117252181D01*
X115304950Y-117252182D01*
X115208446Y-117441582D01*
X115208441Y-117441594D01*
X115164053Y-117578207D01*
X115142754Y-117643757D01*
X115109500Y-117853713D01*
X87865170Y-117853713D01*
X81786886Y-111775429D01*
X85284500Y-111775429D01*
X85284500Y-112024570D01*
X85317016Y-112271557D01*
X85317017Y-112271563D01*
X85317018Y-112271565D01*
X85381498Y-112512207D01*
X85476836Y-112742373D01*
X85601401Y-112958127D01*
X85753062Y-113155776D01*
X85929224Y-113331938D01*
X86126873Y-113483599D01*
X86342627Y-113608164D01*
X86572793Y-113703502D01*
X86813435Y-113767982D01*
X86813441Y-113767982D01*
X86813442Y-113767983D01*
X86880586Y-113776822D01*
X87060435Y-113800500D01*
X87309565Y-113800500D01*
X87556565Y-113767982D01*
X87797207Y-113703502D01*
X88027373Y-113608164D01*
X88243127Y-113483599D01*
X88440776Y-113331938D01*
X88616938Y-113155776D01*
X88768599Y-112958127D01*
X88893164Y-112742373D01*
X88988502Y-112512207D01*
X89052982Y-112271565D01*
X89085500Y-112024565D01*
X89085500Y-111775435D01*
X89085499Y-111775429D01*
X107484500Y-111775429D01*
X107484500Y-112024570D01*
X107517016Y-112271557D01*
X107517017Y-112271563D01*
X107517018Y-112271565D01*
X107581498Y-112512207D01*
X107676836Y-112742373D01*
X107801401Y-112958127D01*
X107953062Y-113155776D01*
X108129224Y-113331938D01*
X108326873Y-113483599D01*
X108542627Y-113608164D01*
X108772793Y-113703502D01*
X109013435Y-113767982D01*
X109013441Y-113767982D01*
X109013442Y-113767983D01*
X109080586Y-113776822D01*
X109260435Y-113800500D01*
X109509565Y-113800500D01*
X109756565Y-113767982D01*
X109997207Y-113703502D01*
X110227373Y-113608164D01*
X110443127Y-113483599D01*
X110640776Y-113331938D01*
X110816938Y-113155776D01*
X110968599Y-112958127D01*
X111093164Y-112742373D01*
X111188502Y-112512207D01*
X111252982Y-112271565D01*
X111285500Y-112024565D01*
X111285500Y-111775435D01*
X111252982Y-111528435D01*
X111188502Y-111287793D01*
X111093164Y-111057627D01*
X110968599Y-110841873D01*
X110816938Y-110644224D01*
X110640776Y-110468062D01*
X110443127Y-110316401D01*
X110227380Y-110191840D01*
X110227377Y-110191838D01*
X110227375Y-110191837D01*
X110227373Y-110191836D01*
X110092548Y-110135989D01*
X109997210Y-110096499D01*
X109997208Y-110096498D01*
X109997207Y-110096498D01*
X109756565Y-110032018D01*
X109756563Y-110032017D01*
X109756557Y-110032016D01*
X109509570Y-109999500D01*
X109509565Y-109999500D01*
X109260435Y-109999500D01*
X109260429Y-109999500D01*
X109013442Y-110032016D01*
X108772789Y-110096499D01*
X108542622Y-110191838D01*
X108326874Y-110316400D01*
X108129222Y-110468063D01*
X107953063Y-110644222D01*
X107801400Y-110841874D01*
X107676838Y-111057622D01*
X107581499Y-111287789D01*
X107517016Y-111528442D01*
X107484500Y-111775429D01*
X89085499Y-111775429D01*
X89052982Y-111528435D01*
X88988502Y-111287793D01*
X88893164Y-111057627D01*
X88768599Y-110841873D01*
X88616938Y-110644224D01*
X88440776Y-110468062D01*
X88243127Y-110316401D01*
X88027380Y-110191840D01*
X88027377Y-110191838D01*
X88027375Y-110191837D01*
X88027373Y-110191836D01*
X87892548Y-110135989D01*
X87797210Y-110096499D01*
X87797208Y-110096498D01*
X87797207Y-110096498D01*
X87556565Y-110032018D01*
X87556563Y-110032017D01*
X87556557Y-110032016D01*
X87309570Y-109999500D01*
X87309565Y-109999500D01*
X87060435Y-109999500D01*
X87060429Y-109999500D01*
X86813442Y-110032016D01*
X86572789Y-110096499D01*
X86342622Y-110191838D01*
X86126874Y-110316400D01*
X85929222Y-110468063D01*
X85753063Y-110644222D01*
X85601400Y-110841874D01*
X85476838Y-111057622D01*
X85381499Y-111287789D01*
X85317016Y-111528442D01*
X85284500Y-111775429D01*
X81786886Y-111775429D01*
X78870743Y-108859286D01*
X78756011Y-108782625D01*
X78756008Y-108782623D01*
X78756002Y-108782620D01*
X78628529Y-108729820D01*
X78628527Y-108729819D01*
X78493197Y-108702900D01*
X78493194Y-108702900D01*
X78493193Y-108702900D01*
X74330289Y-108702900D01*
X74273270Y-108691558D01*
X74133498Y-108633663D01*
X74133494Y-108633662D01*
X73978842Y-108602900D01*
X73821158Y-108602900D01*
X73666505Y-108633662D01*
X73666501Y-108633663D01*
X73520823Y-108694004D01*
X73433012Y-108752678D01*
X73389737Y-108781594D01*
X73389707Y-108781614D01*
X73278214Y-108893107D01*
X73190606Y-109024220D01*
X73153962Y-109112687D01*
X73107009Y-109173876D01*
X73035751Y-109203391D01*
X72959283Y-109193324D01*
X72910945Y-109161025D01*
X69549931Y-105800011D01*
X129000000Y-105800011D01*
X129000000Y-106750000D01*
X130299999Y-106750000D01*
X130274979Y-106810402D01*
X130250000Y-106935981D01*
X130250000Y-107064019D01*
X130274979Y-107189598D01*
X130299999Y-107250000D01*
X129000000Y-107250000D01*
X129000000Y-108199988D01*
X129010492Y-108302687D01*
X129010494Y-108302696D01*
X129065642Y-108469120D01*
X129157680Y-108618339D01*
X129281660Y-108742319D01*
X129430879Y-108834357D01*
X129597303Y-108889505D01*
X129597312Y-108889507D01*
X129700011Y-108899999D01*
X129700022Y-108900000D01*
X130650000Y-108900000D01*
X130650000Y-107600001D01*
X130710402Y-107625021D01*
X130835981Y-107650000D01*
X130964019Y-107650000D01*
X131089598Y-107625021D01*
X131150000Y-107600001D01*
X131150000Y-108900000D01*
X132099978Y-108900000D01*
X132099988Y-108899999D01*
X132202687Y-108889507D01*
X132202696Y-108889505D01*
X132369120Y-108834357D01*
X132518339Y-108742319D01*
X132642319Y-108618339D01*
X132734357Y-108469120D01*
X132789505Y-108302696D01*
X132789507Y-108302687D01*
X132799999Y-108199988D01*
X132800000Y-108199978D01*
X132800000Y-107250000D01*
X131500001Y-107250000D01*
X131525021Y-107189598D01*
X131550000Y-107064019D01*
X131550000Y-106935981D01*
X131525021Y-106810402D01*
X131500001Y-106750000D01*
X132800000Y-106750000D01*
X132800000Y-105800021D01*
X132799999Y-105800011D01*
X132789507Y-105697312D01*
X132789505Y-105697303D01*
X132734357Y-105530879D01*
X132642319Y-105381660D01*
X132518339Y-105257680D01*
X132369120Y-105165642D01*
X132202696Y-105110494D01*
X132202687Y-105110492D01*
X132099988Y-105100000D01*
X131150000Y-105100000D01*
X131150000Y-106399998D01*
X131089598Y-106374979D01*
X130964019Y-106350000D01*
X130835981Y-106350000D01*
X130710402Y-106374979D01*
X130650000Y-106399998D01*
X130650000Y-105100000D01*
X129700011Y-105100000D01*
X129597312Y-105110492D01*
X129597303Y-105110494D01*
X129430879Y-105165642D01*
X129281660Y-105257680D01*
X129157680Y-105381660D01*
X129065642Y-105530879D01*
X129010494Y-105697303D01*
X129010492Y-105697312D01*
X129000000Y-105800011D01*
X69549931Y-105800011D01*
X65929141Y-102179221D01*
X65890577Y-102112426D01*
X65885500Y-102073862D01*
X65885500Y-101875461D01*
X129000000Y-101875461D01*
X129000000Y-102124538D01*
X129032507Y-102371459D01*
X129096973Y-102612048D01*
X129192287Y-102842156D01*
X129316819Y-103057851D01*
X129316820Y-103057853D01*
X129391399Y-103155045D01*
X130298957Y-102247486D01*
X130323978Y-102307890D01*
X130395112Y-102414351D01*
X130485649Y-102504888D01*
X130592110Y-102576022D01*
X130652511Y-102601041D01*
X129744952Y-103508599D01*
X129842146Y-103583179D01*
X129842148Y-103583180D01*
X130057843Y-103707712D01*
X130287951Y-103803026D01*
X130528540Y-103867492D01*
X130775461Y-103899999D01*
X130775467Y-103900000D01*
X131024533Y-103900000D01*
X131024538Y-103899999D01*
X131271459Y-103867492D01*
X131512048Y-103803026D01*
X131742157Y-103707712D01*
X131957849Y-103583182D01*
X132055045Y-103508599D01*
X132055046Y-103508599D01*
X131147488Y-102601041D01*
X131207890Y-102576022D01*
X131314351Y-102504888D01*
X131404888Y-102414351D01*
X131476022Y-102307890D01*
X131501041Y-102247488D01*
X132408599Y-103155046D01*
X132408599Y-103155045D01*
X132483182Y-103057849D01*
X132607712Y-102842157D01*
X132703026Y-102612048D01*
X132767492Y-102371459D01*
X132799999Y-102124538D01*
X132800000Y-102124533D01*
X132800000Y-101875467D01*
X132799999Y-101875461D01*
X132767492Y-101628540D01*
X132703026Y-101387951D01*
X132607712Y-101157843D01*
X132483180Y-100942148D01*
X132483179Y-100942146D01*
X132408599Y-100844952D01*
X131501041Y-101752510D01*
X131476022Y-101692110D01*
X131404888Y-101585649D01*
X131314351Y-101495112D01*
X131207890Y-101423978D01*
X131147487Y-101398957D01*
X132055046Y-100491399D01*
X131957853Y-100416820D01*
X131957851Y-100416819D01*
X131742156Y-100292287D01*
X131512048Y-100196973D01*
X131271459Y-100132507D01*
X131024538Y-100100000D01*
X130775461Y-100100000D01*
X130528540Y-100132507D01*
X130287951Y-100196973D01*
X130057843Y-100292287D01*
X129842152Y-100416817D01*
X129744953Y-100491400D01*
X130652511Y-101398958D01*
X130592110Y-101423978D01*
X130485649Y-101495112D01*
X130395112Y-101585649D01*
X130323978Y-101692110D01*
X130298958Y-101752511D01*
X129391399Y-100844953D01*
X129316817Y-100942152D01*
X129192287Y-101157843D01*
X129096973Y-101387951D01*
X129032507Y-101628540D01*
X129000000Y-101875461D01*
X65885500Y-101875461D01*
X65885500Y-96601295D01*
X65905462Y-96526795D01*
X65943791Y-96483089D01*
X66140776Y-96331938D01*
X66316938Y-96155776D01*
X66468599Y-95958127D01*
X66593164Y-95742373D01*
X66688502Y-95512207D01*
X66752982Y-95271565D01*
X66785500Y-95024565D01*
X66785500Y-94775435D01*
X66752982Y-94528435D01*
X66688502Y-94287793D01*
X66593164Y-94057627D01*
X66468599Y-93841873D01*
X66316938Y-93644224D01*
X66140776Y-93468062D01*
X65943127Y-93316401D01*
X65738850Y-93198462D01*
X65727377Y-93191838D01*
X65727375Y-93191837D01*
X65727373Y-93191836D01*
X65592548Y-93135989D01*
X65497210Y-93096499D01*
X65497208Y-93096498D01*
X65497207Y-93096498D01*
X65456901Y-93085698D01*
X65390108Y-93047135D01*
X65351544Y-92980340D01*
X65351544Y-92903212D01*
X65390106Y-92836419D01*
X66396942Y-91829583D01*
X67284800Y-91829583D01*
X67284800Y-92026417D01*
X67315591Y-92220826D01*
X67376416Y-92408025D01*
X67376419Y-92408030D01*
X67376421Y-92408036D01*
X67441746Y-92536243D01*
X67465776Y-92583405D01*
X67581472Y-92742646D01*
X67720654Y-92881828D01*
X67879895Y-92997524D01*
X68055275Y-93086884D01*
X68242474Y-93147709D01*
X68436883Y-93178500D01*
X83633308Y-93178500D01*
X83707808Y-93198462D01*
X83738667Y-93222141D01*
X85240859Y-94724333D01*
X85279423Y-94791128D01*
X85284500Y-94829692D01*
X85284500Y-95024570D01*
X85317016Y-95271557D01*
X85317017Y-95271563D01*
X85317018Y-95271565D01*
X85381498Y-95512207D01*
X85476836Y-95742373D01*
X85601401Y-95958127D01*
X85753062Y-96155776D01*
X85929224Y-96331938D01*
X86126873Y-96483599D01*
X86342627Y-96608164D01*
X86572793Y-96703502D01*
X86813435Y-96767982D01*
X86813441Y-96767982D01*
X86813442Y-96767983D01*
X86880586Y-96776822D01*
X87060435Y-96800500D01*
X87309565Y-96800500D01*
X87556565Y-96767982D01*
X87797207Y-96703502D01*
X88027373Y-96608164D01*
X88243127Y-96483599D01*
X88440776Y-96331938D01*
X88616938Y-96155776D01*
X88768599Y-95958127D01*
X88893164Y-95742373D01*
X88988502Y-95512207D01*
X89052982Y-95271565D01*
X89085500Y-95024565D01*
X89085500Y-94829691D01*
X89100039Y-94775429D01*
X107484500Y-94775429D01*
X107484500Y-95024570D01*
X107517016Y-95271557D01*
X107517017Y-95271563D01*
X107517018Y-95271565D01*
X107581498Y-95512207D01*
X107676836Y-95742373D01*
X107801401Y-95958127D01*
X107953062Y-96155776D01*
X108129224Y-96331938D01*
X108326873Y-96483599D01*
X108542627Y-96608164D01*
X108772793Y-96703502D01*
X109013435Y-96767982D01*
X109013441Y-96767982D01*
X109013442Y-96767983D01*
X109080586Y-96776822D01*
X109260435Y-96800500D01*
X109509565Y-96800500D01*
X109756565Y-96767982D01*
X109997207Y-96703502D01*
X110227373Y-96608164D01*
X110443127Y-96483599D01*
X110640776Y-96331938D01*
X110816938Y-96155776D01*
X110968599Y-95958127D01*
X111093164Y-95742373D01*
X111188502Y-95512207D01*
X111252982Y-95271565D01*
X111285500Y-95024565D01*
X111285500Y-94775435D01*
X111252982Y-94528435D01*
X111188502Y-94287793D01*
X111093164Y-94057627D01*
X111090021Y-94052184D01*
X110985259Y-93870729D01*
X110985258Y-93870727D01*
X110968601Y-93841876D01*
X110968599Y-93841874D01*
X110968599Y-93841873D01*
X110936477Y-93800011D01*
X129000000Y-93800011D01*
X129000000Y-94750000D01*
X130299999Y-94750000D01*
X130274979Y-94810402D01*
X130250000Y-94935981D01*
X130250000Y-95064019D01*
X130274979Y-95189598D01*
X130299999Y-95250000D01*
X129000000Y-95250000D01*
X129000000Y-96199988D01*
X129010492Y-96302687D01*
X129010494Y-96302696D01*
X129065642Y-96469120D01*
X129157680Y-96618339D01*
X129281660Y-96742319D01*
X129430879Y-96834357D01*
X129597303Y-96889505D01*
X129597312Y-96889507D01*
X129700011Y-96899999D01*
X129700022Y-96900000D01*
X130650000Y-96900000D01*
X130650000Y-95600001D01*
X130710402Y-95625021D01*
X130835981Y-95650000D01*
X130964019Y-95650000D01*
X131089598Y-95625021D01*
X131150000Y-95600001D01*
X131150000Y-96900000D01*
X132099978Y-96900000D01*
X132099988Y-96899999D01*
X132202687Y-96889507D01*
X132202696Y-96889505D01*
X132369120Y-96834357D01*
X132518339Y-96742319D01*
X132642319Y-96618339D01*
X132734357Y-96469120D01*
X132789505Y-96302696D01*
X132789507Y-96302687D01*
X132799999Y-96199988D01*
X132800000Y-96199978D01*
X132800000Y-95250000D01*
X131500001Y-95250000D01*
X131525021Y-95189598D01*
X131550000Y-95064019D01*
X131550000Y-94935981D01*
X131525021Y-94810402D01*
X131500001Y-94750000D01*
X132800000Y-94750000D01*
X132800000Y-93800021D01*
X132799999Y-93800011D01*
X132789507Y-93697312D01*
X132789505Y-93697303D01*
X132734357Y-93530879D01*
X132642319Y-93381660D01*
X132518339Y-93257680D01*
X132369120Y-93165642D01*
X132202696Y-93110494D01*
X132202687Y-93110492D01*
X132099988Y-93100000D01*
X131150000Y-93100000D01*
X131150000Y-94399998D01*
X131089598Y-94374979D01*
X130964019Y-94350000D01*
X130835981Y-94350000D01*
X130710402Y-94374979D01*
X130650000Y-94399998D01*
X130650000Y-93100000D01*
X129700011Y-93100000D01*
X129597312Y-93110492D01*
X129597303Y-93110494D01*
X129430879Y-93165642D01*
X129281660Y-93257680D01*
X129157680Y-93381660D01*
X129065642Y-93530879D01*
X129010494Y-93697303D01*
X129010492Y-93697312D01*
X129000000Y-93800011D01*
X110936477Y-93800011D01*
X110816938Y-93644224D01*
X110640776Y-93468062D01*
X110443127Y-93316401D01*
X110238850Y-93198462D01*
X110227377Y-93191838D01*
X110227375Y-93191837D01*
X110227373Y-93191836D01*
X110092548Y-93135989D01*
X109997210Y-93096499D01*
X109997208Y-93096498D01*
X109997207Y-93096498D01*
X109756565Y-93032018D01*
X109756563Y-93032017D01*
X109756557Y-93032016D01*
X109509570Y-92999500D01*
X109509565Y-92999500D01*
X109260435Y-92999500D01*
X109260429Y-92999500D01*
X109013442Y-93032016D01*
X108772789Y-93096499D01*
X108542622Y-93191838D01*
X108326874Y-93316400D01*
X108129222Y-93468063D01*
X107953063Y-93644222D01*
X107801400Y-93841874D01*
X107676838Y-94057622D01*
X107581499Y-94287789D01*
X107517016Y-94528442D01*
X107484500Y-94775429D01*
X89100039Y-94775429D01*
X89105462Y-94755191D01*
X89129141Y-94724332D01*
X93978012Y-89875461D01*
X129000000Y-89875461D01*
X129000000Y-90124538D01*
X129032507Y-90371459D01*
X129096973Y-90612048D01*
X129192287Y-90842156D01*
X129316819Y-91057851D01*
X129316820Y-91057853D01*
X129391399Y-91155045D01*
X130298957Y-90247486D01*
X130323978Y-90307890D01*
X130395112Y-90414351D01*
X130485649Y-90504888D01*
X130592110Y-90576022D01*
X130652511Y-90601041D01*
X129744952Y-91508599D01*
X129842146Y-91583179D01*
X129842148Y-91583180D01*
X130057843Y-91707712D01*
X130287951Y-91803026D01*
X130528540Y-91867492D01*
X130775461Y-91899999D01*
X130775467Y-91900000D01*
X131024533Y-91900000D01*
X131024538Y-91899999D01*
X131271459Y-91867492D01*
X131512048Y-91803026D01*
X131742157Y-91707712D01*
X131957849Y-91583182D01*
X132055045Y-91508599D01*
X132055046Y-91508599D01*
X131147488Y-90601041D01*
X131207890Y-90576022D01*
X131314351Y-90504888D01*
X131404888Y-90414351D01*
X131476022Y-90307890D01*
X131501041Y-90247488D01*
X132408599Y-91155046D01*
X132408599Y-91155045D01*
X132483182Y-91057849D01*
X132607712Y-90842157D01*
X132703026Y-90612048D01*
X132767492Y-90371459D01*
X132799999Y-90124538D01*
X132800000Y-90124533D01*
X132800000Y-89875467D01*
X132799999Y-89875461D01*
X132767492Y-89628540D01*
X132703026Y-89387951D01*
X132607712Y-89157843D01*
X132483180Y-88942148D01*
X132483179Y-88942146D01*
X132408599Y-88844952D01*
X131501041Y-89752510D01*
X131476022Y-89692110D01*
X131404888Y-89585649D01*
X131314351Y-89495112D01*
X131207890Y-89423978D01*
X131147487Y-89398957D01*
X132055046Y-88491399D01*
X131957853Y-88416820D01*
X131957851Y-88416819D01*
X131742156Y-88292287D01*
X131512048Y-88196973D01*
X131271459Y-88132507D01*
X131024538Y-88100000D01*
X130775461Y-88100000D01*
X130528540Y-88132507D01*
X130287951Y-88196973D01*
X130057843Y-88292287D01*
X129842152Y-88416817D01*
X129744953Y-88491400D01*
X130652511Y-89398958D01*
X130592110Y-89423978D01*
X130485649Y-89495112D01*
X130395112Y-89585649D01*
X130323978Y-89692110D01*
X130298958Y-89752511D01*
X129391399Y-88844953D01*
X129316817Y-88942152D01*
X129192287Y-89157843D01*
X129096973Y-89387951D01*
X129032507Y-89628540D01*
X129000000Y-89875461D01*
X93978012Y-89875461D01*
X94267824Y-89585649D01*
X99559333Y-84294141D01*
X99626128Y-84255577D01*
X99664692Y-84250500D01*
X128885078Y-84250500D01*
X128959578Y-84270462D01*
X129014116Y-84325000D01*
X129026513Y-84352629D01*
X129048907Y-84420208D01*
X129065187Y-84469336D01*
X129140960Y-84592182D01*
X129157289Y-84618655D01*
X129281345Y-84742711D01*
X129430666Y-84834814D01*
X129597203Y-84889999D01*
X129699992Y-84900500D01*
X129699996Y-84900500D01*
X132100004Y-84900500D01*
X132100008Y-84900500D01*
X132202797Y-84889999D01*
X132369334Y-84834814D01*
X132518655Y-84742711D01*
X132642711Y-84618655D01*
X132734814Y-84469334D01*
X132789999Y-84302797D01*
X132800500Y-84200008D01*
X132800500Y-81799992D01*
X132789999Y-81697203D01*
X132734814Y-81530666D01*
X132642711Y-81381345D01*
X132518655Y-81257289D01*
X132369334Y-81165186D01*
X132285332Y-81137350D01*
X132202798Y-81110001D01*
X132202799Y-81110001D01*
X132168534Y-81106500D01*
X132100008Y-81099500D01*
X129699992Y-81099500D01*
X129631466Y-81106500D01*
X129597201Y-81110001D01*
X129430663Y-81165187D01*
X129281344Y-81257289D01*
X129157289Y-81381344D01*
X129065187Y-81530663D01*
X129026515Y-81647368D01*
X128984132Y-81711807D01*
X128915208Y-81746422D01*
X128885078Y-81749500D01*
X99183416Y-81749500D01*
X98986583Y-81749500D01*
X98792173Y-81780291D01*
X98733055Y-81799500D01*
X98604975Y-81841116D01*
X98604972Y-81841117D01*
X98604963Y-81841121D01*
X98429598Y-81930474D01*
X98429593Y-81930477D01*
X98270363Y-82046165D01*
X98270352Y-82046174D01*
X87360666Y-92955859D01*
X87293871Y-92994423D01*
X87255307Y-92999500D01*
X87114692Y-92999500D01*
X87040192Y-92979538D01*
X87009333Y-92955859D01*
X86079886Y-92026412D01*
X85027646Y-90974172D01*
X84868405Y-90858476D01*
X84693026Y-90769116D01*
X84505826Y-90708291D01*
X84311417Y-90677500D01*
X68436883Y-90677500D01*
X68242474Y-90708291D01*
X68055275Y-90769116D01*
X68055272Y-90769117D01*
X68055263Y-90769121D01*
X67879898Y-90858474D01*
X67879893Y-90858477D01*
X67720663Y-90974165D01*
X67720652Y-90974174D01*
X67581474Y-91113352D01*
X67581465Y-91113363D01*
X67465777Y-91272593D01*
X67465774Y-91272598D01*
X67376421Y-91447963D01*
X67376417Y-91447972D01*
X67376416Y-91447975D01*
X67315591Y-91635174D01*
X67284800Y-91829583D01*
X66396942Y-91829583D01*
X80451097Y-77775429D01*
X85284500Y-77775429D01*
X85284500Y-78024570D01*
X85317016Y-78271557D01*
X85317017Y-78271563D01*
X85317018Y-78271565D01*
X85381498Y-78512207D01*
X85476836Y-78742373D01*
X85601401Y-78958127D01*
X85753062Y-79155776D01*
X85929224Y-79331938D01*
X86126873Y-79483599D01*
X86342627Y-79608164D01*
X86572793Y-79703502D01*
X86813435Y-79767982D01*
X86813441Y-79767982D01*
X86813442Y-79767983D01*
X86880586Y-79776822D01*
X87060435Y-79800500D01*
X87309565Y-79800500D01*
X87556565Y-79767982D01*
X87797207Y-79703502D01*
X88027373Y-79608164D01*
X88243127Y-79483599D01*
X88440776Y-79331938D01*
X88616938Y-79155776D01*
X88768599Y-78958127D01*
X88893164Y-78742373D01*
X88988502Y-78512207D01*
X89052982Y-78271565D01*
X89064197Y-78186371D01*
X89093711Y-78115117D01*
X89106555Y-78100470D01*
X89431596Y-77775429D01*
X107484500Y-77775429D01*
X107484500Y-78024570D01*
X107517016Y-78271557D01*
X107517017Y-78271563D01*
X107517018Y-78271565D01*
X107581498Y-78512207D01*
X107676836Y-78742373D01*
X107801401Y-78958127D01*
X107953062Y-79155776D01*
X108129224Y-79331938D01*
X108326873Y-79483599D01*
X108542627Y-79608164D01*
X108772793Y-79703502D01*
X109013435Y-79767982D01*
X109013441Y-79767982D01*
X109013442Y-79767983D01*
X109080586Y-79776822D01*
X109260435Y-79800500D01*
X109509565Y-79800500D01*
X109756565Y-79767982D01*
X109997207Y-79703502D01*
X110227373Y-79608164D01*
X110443127Y-79483599D01*
X110640776Y-79331938D01*
X110816938Y-79155776D01*
X110968599Y-78958127D01*
X111093164Y-78742373D01*
X111188502Y-78512207D01*
X111252982Y-78271565D01*
X111285500Y-78024565D01*
X111285500Y-77875429D01*
X128999500Y-77875429D01*
X128999500Y-78124570D01*
X129032016Y-78371557D01*
X129032017Y-78371563D01*
X129032018Y-78371565D01*
X129087301Y-78577885D01*
X129096499Y-78612210D01*
X129106968Y-78637484D01*
X129162824Y-78772333D01*
X129191838Y-78842377D01*
X129217917Y-78887547D01*
X129316401Y-79058127D01*
X129468062Y-79255776D01*
X129644224Y-79431938D01*
X129841873Y-79583599D01*
X130057627Y-79708164D01*
X130287793Y-79803502D01*
X130528435Y-79867982D01*
X130528441Y-79867982D01*
X130528442Y-79867983D01*
X130595586Y-79876822D01*
X130775435Y-79900500D01*
X131024565Y-79900500D01*
X131271565Y-79867982D01*
X131512207Y-79803502D01*
X131742373Y-79708164D01*
X131958127Y-79583599D01*
X132155776Y-79431938D01*
X132331938Y-79255776D01*
X132483599Y-79058127D01*
X132608164Y-78842373D01*
X132703502Y-78612207D01*
X132767982Y-78371565D01*
X132800500Y-78124565D01*
X132800500Y-77875435D01*
X132767982Y-77628435D01*
X132703502Y-77387793D01*
X132608164Y-77157627D01*
X132483599Y-76941873D01*
X132331938Y-76744224D01*
X132155776Y-76568062D01*
X131958127Y-76416401D01*
X131818710Y-76335909D01*
X131742377Y-76291838D01*
X131742375Y-76291837D01*
X131742373Y-76291836D01*
X131607548Y-76235989D01*
X131512210Y-76196499D01*
X131512208Y-76196498D01*
X131512207Y-76196498D01*
X131271565Y-76132018D01*
X131271563Y-76132017D01*
X131271557Y-76132016D01*
X131024570Y-76099500D01*
X131024565Y-76099500D01*
X130775435Y-76099500D01*
X130775429Y-76099500D01*
X130528442Y-76132016D01*
X130287789Y-76196499D01*
X130057622Y-76291838D01*
X129841874Y-76416400D01*
X129644222Y-76568063D01*
X129468063Y-76744222D01*
X129316400Y-76941874D01*
X129191838Y-77157622D01*
X129096499Y-77387789D01*
X129032016Y-77628442D01*
X128999500Y-77875429D01*
X111285500Y-77875429D01*
X111285500Y-77775435D01*
X111252982Y-77528435D01*
X111188502Y-77287793D01*
X111093164Y-77057627D01*
X110968599Y-76841873D01*
X110816938Y-76644224D01*
X110640776Y-76468062D01*
X110443127Y-76316401D01*
X110235448Y-76196498D01*
X110227377Y-76191838D01*
X110227375Y-76191837D01*
X110227373Y-76191836D01*
X110082955Y-76132016D01*
X109997210Y-76096499D01*
X109997208Y-76096498D01*
X109997207Y-76096498D01*
X109756565Y-76032018D01*
X109756563Y-76032017D01*
X109756557Y-76032016D01*
X109509570Y-75999500D01*
X109509565Y-75999500D01*
X109260435Y-75999500D01*
X109260429Y-75999500D01*
X109013442Y-76032016D01*
X108772789Y-76096499D01*
X108542622Y-76191838D01*
X108326874Y-76316400D01*
X108129222Y-76468063D01*
X107953063Y-76644222D01*
X107801400Y-76841874D01*
X107676838Y-77057622D01*
X107581499Y-77287789D01*
X107517016Y-77528442D01*
X107484500Y-77775429D01*
X89431596Y-77775429D01*
X94662887Y-72544141D01*
X94729682Y-72505577D01*
X94768246Y-72500500D01*
X129001250Y-72500500D01*
X129075750Y-72520462D01*
X129128067Y-72571279D01*
X129157286Y-72618651D01*
X129157287Y-72618652D01*
X129157289Y-72618655D01*
X129281345Y-72742711D01*
X129430666Y-72834814D01*
X129597203Y-72889999D01*
X129699992Y-72900500D01*
X129699996Y-72900500D01*
X132100004Y-72900500D01*
X132100008Y-72900500D01*
X132202797Y-72889999D01*
X132369334Y-72834814D01*
X132518655Y-72742711D01*
X132642711Y-72618655D01*
X132734814Y-72469334D01*
X132789999Y-72302797D01*
X132800500Y-72200008D01*
X132800500Y-69799992D01*
X132789999Y-69697203D01*
X132734814Y-69530666D01*
X132642711Y-69381345D01*
X132518655Y-69257289D01*
X132369334Y-69165186D01*
X132285332Y-69137350D01*
X132202798Y-69110001D01*
X132202799Y-69110001D01*
X132168534Y-69106500D01*
X132100008Y-69099500D01*
X129699992Y-69099500D01*
X129631466Y-69106500D01*
X129597201Y-69110001D01*
X129430663Y-69165187D01*
X129281344Y-69257289D01*
X129157286Y-69381348D01*
X129128067Y-69428721D01*
X129071966Y-69481650D01*
X129001250Y-69499500D01*
X93966908Y-69499500D01*
X93954784Y-69501420D01*
X93910443Y-69508442D01*
X93910444Y-69508443D01*
X93733631Y-69536447D01*
X93690061Y-69550604D01*
X93509008Y-69609432D01*
X93509002Y-69609434D01*
X93509002Y-69609435D01*
X93298565Y-69716658D01*
X93298564Y-69716658D01*
X93107491Y-69855481D01*
X93107488Y-69855483D01*
X86984536Y-75978435D01*
X86917741Y-76016999D01*
X86898627Y-76020801D01*
X86813446Y-76032015D01*
X86813436Y-76032017D01*
X86572789Y-76096499D01*
X86342622Y-76191838D01*
X86126874Y-76316400D01*
X85929222Y-76468063D01*
X85753063Y-76644222D01*
X85601400Y-76841874D01*
X85476838Y-77057622D01*
X85381499Y-77287789D01*
X85317016Y-77528442D01*
X85284500Y-77775429D01*
X80451097Y-77775429D01*
X85289186Y-72937341D01*
X85355981Y-72898777D01*
X85394545Y-72893700D01*
X86217387Y-72893700D01*
X86217392Y-72893700D01*
X86450668Y-72856753D01*
X86675292Y-72783768D01*
X86885734Y-72676543D01*
X87076810Y-72537717D01*
X93739099Y-65875429D01*
X128999500Y-65875429D01*
X128999500Y-66124570D01*
X129032016Y-66371557D01*
X129032017Y-66371563D01*
X129032018Y-66371565D01*
X129087301Y-66577885D01*
X129096499Y-66612210D01*
X129106968Y-66637484D01*
X129162824Y-66772333D01*
X129191838Y-66842377D01*
X129217917Y-66887547D01*
X129316401Y-67058127D01*
X129468062Y-67255776D01*
X129644224Y-67431938D01*
X129841873Y-67583599D01*
X130057627Y-67708164D01*
X130287793Y-67803502D01*
X130528435Y-67867982D01*
X130528441Y-67867982D01*
X130528442Y-67867983D01*
X130595586Y-67876822D01*
X130775435Y-67900500D01*
X131024565Y-67900500D01*
X131271565Y-67867982D01*
X131512207Y-67803502D01*
X131742373Y-67708164D01*
X131958127Y-67583599D01*
X132155776Y-67431938D01*
X132331938Y-67255776D01*
X132483599Y-67058127D01*
X132608164Y-66842373D01*
X132703502Y-66612207D01*
X132767982Y-66371565D01*
X132800500Y-66124565D01*
X132800500Y-65875435D01*
X132767982Y-65628435D01*
X132703502Y-65387793D01*
X132608164Y-65157627D01*
X132483599Y-64941873D01*
X132331938Y-64744224D01*
X132155776Y-64568062D01*
X131958127Y-64416401D01*
X131818710Y-64335909D01*
X131742377Y-64291838D01*
X131742375Y-64291837D01*
X131742373Y-64291836D01*
X131607548Y-64235989D01*
X131512210Y-64196499D01*
X131512208Y-64196498D01*
X131512207Y-64196498D01*
X131271565Y-64132018D01*
X131271563Y-64132017D01*
X131271557Y-64132016D01*
X131024570Y-64099500D01*
X131024565Y-64099500D01*
X130775435Y-64099500D01*
X130775429Y-64099500D01*
X130528442Y-64132016D01*
X130287789Y-64196499D01*
X130057622Y-64291838D01*
X129841874Y-64416400D01*
X129644222Y-64568063D01*
X129468063Y-64744222D01*
X129316400Y-64941874D01*
X129191838Y-65157622D01*
X129096499Y-65387789D01*
X129032016Y-65628442D01*
X128999500Y-65875429D01*
X93739099Y-65875429D01*
X97170387Y-62444141D01*
X97237182Y-62405577D01*
X97275746Y-62400500D01*
X108167998Y-62400500D01*
X108242498Y-62420462D01*
X108258698Y-62431286D01*
X108326873Y-62483599D01*
X108542627Y-62608164D01*
X108772793Y-62703502D01*
X109013435Y-62767982D01*
X109013441Y-62767982D01*
X109013442Y-62767983D01*
X109080586Y-62776822D01*
X109260435Y-62800500D01*
X109509565Y-62800500D01*
X109756565Y-62767982D01*
X109997207Y-62703502D01*
X110227373Y-62608164D01*
X110443127Y-62483599D01*
X110640776Y-62331938D01*
X110816938Y-62155776D01*
X110968599Y-61958127D01*
X111093164Y-61742373D01*
X111188502Y-61512207D01*
X111252982Y-61271565D01*
X111285500Y-61024565D01*
X111285500Y-60775435D01*
X111252982Y-60528435D01*
X111188502Y-60287793D01*
X111093164Y-60057627D01*
X110968599Y-59841873D01*
X110816938Y-59644224D01*
X110640776Y-59468062D01*
X110443127Y-59316401D01*
X110267602Y-59215062D01*
X110227377Y-59191838D01*
X110227375Y-59191837D01*
X110227373Y-59191836D01*
X110092548Y-59135989D01*
X109997210Y-59096499D01*
X109997208Y-59096498D01*
X109997207Y-59096498D01*
X109756565Y-59032018D01*
X109756563Y-59032017D01*
X109756557Y-59032016D01*
X109509570Y-58999500D01*
X109509565Y-58999500D01*
X109260435Y-58999500D01*
X109260429Y-58999500D01*
X109013442Y-59032016D01*
X108772789Y-59096499D01*
X108542622Y-59191838D01*
X108326874Y-59316400D01*
X108326873Y-59316401D01*
X108258701Y-59368710D01*
X108187446Y-59398225D01*
X108167998Y-59399500D01*
X96710592Y-59399500D01*
X96474408Y-59399500D01*
X96402293Y-59410921D01*
X96372590Y-59415626D01*
X96295885Y-59407563D01*
X96233487Y-59362228D01*
X96202117Y-59291767D01*
X96210180Y-59215062D01*
X96243922Y-59163103D01*
X97607033Y-57799992D01*
X128999500Y-57799992D01*
X128999500Y-60200008D01*
X129006640Y-60269895D01*
X129010001Y-60302798D01*
X129065187Y-60469336D01*
X129140960Y-60592182D01*
X129157289Y-60618655D01*
X129281345Y-60742711D01*
X129430666Y-60834814D01*
X129597203Y-60889999D01*
X129699992Y-60900500D01*
X129699996Y-60900500D01*
X132100004Y-60900500D01*
X132100008Y-60900500D01*
X132202797Y-60889999D01*
X132369334Y-60834814D01*
X132518655Y-60742711D01*
X132642711Y-60618655D01*
X132734814Y-60469334D01*
X132789999Y-60302797D01*
X132800500Y-60200008D01*
X132800500Y-57799992D01*
X132789999Y-57697203D01*
X132734814Y-57530666D01*
X132642711Y-57381345D01*
X132518655Y-57257289D01*
X132369334Y-57165186D01*
X132285332Y-57137350D01*
X132202798Y-57110001D01*
X132202799Y-57110001D01*
X132168534Y-57106500D01*
X132100008Y-57099500D01*
X129699992Y-57099500D01*
X129631466Y-57106500D01*
X129597201Y-57110001D01*
X129430663Y-57165187D01*
X129281344Y-57257289D01*
X129157289Y-57381344D01*
X129065187Y-57530663D01*
X129010001Y-57697201D01*
X129010001Y-57697203D01*
X128999500Y-57799992D01*
X97607033Y-57799992D01*
X101531596Y-53875429D01*
X128999500Y-53875429D01*
X128999500Y-54124570D01*
X129032016Y-54371557D01*
X129032017Y-54371563D01*
X129032018Y-54371565D01*
X129087301Y-54577885D01*
X129096499Y-54612210D01*
X129106968Y-54637484D01*
X129162824Y-54772333D01*
X129191838Y-54842377D01*
X129217917Y-54887547D01*
X129316401Y-55058127D01*
X129468062Y-55255776D01*
X129644224Y-55431938D01*
X129841873Y-55583599D01*
X130057627Y-55708164D01*
X130287793Y-55803502D01*
X130528435Y-55867982D01*
X130528441Y-55867982D01*
X130528442Y-55867983D01*
X130595586Y-55876822D01*
X130775435Y-55900500D01*
X131024565Y-55900500D01*
X131271565Y-55867982D01*
X131512207Y-55803502D01*
X131742373Y-55708164D01*
X131958127Y-55583599D01*
X132155776Y-55431938D01*
X132331938Y-55255776D01*
X132483599Y-55058127D01*
X132608164Y-54842373D01*
X132703502Y-54612207D01*
X132767982Y-54371565D01*
X132800500Y-54124565D01*
X132800500Y-53875435D01*
X132767982Y-53628435D01*
X132703502Y-53387793D01*
X132608164Y-53157627D01*
X132483599Y-52941873D01*
X132331938Y-52744224D01*
X132155776Y-52568062D01*
X131958127Y-52416401D01*
X131818710Y-52335909D01*
X131742377Y-52291838D01*
X131742375Y-52291837D01*
X131742373Y-52291836D01*
X131607548Y-52235989D01*
X131512210Y-52196499D01*
X131512208Y-52196498D01*
X131512207Y-52196498D01*
X131271565Y-52132018D01*
X131271563Y-52132017D01*
X131271557Y-52132016D01*
X131024570Y-52099500D01*
X131024565Y-52099500D01*
X130775435Y-52099500D01*
X130775429Y-52099500D01*
X130528442Y-52132016D01*
X130287789Y-52196499D01*
X130057622Y-52291838D01*
X129841874Y-52416400D01*
X129644222Y-52568063D01*
X129468063Y-52744222D01*
X129316400Y-52941874D01*
X129191838Y-53157622D01*
X129096499Y-53387789D01*
X129032016Y-53628442D01*
X128999500Y-53875429D01*
X101531596Y-53875429D01*
X109585464Y-45821561D01*
X109622824Y-45799992D01*
X128999500Y-45799992D01*
X128999500Y-48200008D01*
X129010001Y-48302797D01*
X129065186Y-48469334D01*
X129157289Y-48618655D01*
X129281345Y-48742711D01*
X129430666Y-48834814D01*
X129597203Y-48889999D01*
X129699992Y-48900500D01*
X129699996Y-48900500D01*
X132100004Y-48900500D01*
X132100008Y-48900500D01*
X132202797Y-48889999D01*
X132369334Y-48834814D01*
X132518655Y-48742711D01*
X132642711Y-48618655D01*
X132734814Y-48469334D01*
X132789999Y-48302797D01*
X132800500Y-48200008D01*
X132800500Y-45799992D01*
X132789999Y-45697203D01*
X132734814Y-45530666D01*
X132642711Y-45381345D01*
X132518655Y-45257289D01*
X132369334Y-45165186D01*
X132285332Y-45137350D01*
X132202798Y-45110001D01*
X132202799Y-45110001D01*
X132168534Y-45106500D01*
X132100008Y-45099500D01*
X129699992Y-45099500D01*
X129631466Y-45106500D01*
X129597201Y-45110001D01*
X129430663Y-45165187D01*
X129281344Y-45257289D01*
X129157289Y-45381344D01*
X129065187Y-45530663D01*
X129010001Y-45697201D01*
X129010001Y-45697203D01*
X128999500Y-45799992D01*
X109622824Y-45799992D01*
X109652257Y-45782999D01*
X109671358Y-45779199D01*
X109756565Y-45767982D01*
X109997207Y-45703502D01*
X110227373Y-45608164D01*
X110443127Y-45483599D01*
X110640776Y-45331938D01*
X110816938Y-45155776D01*
X110968599Y-44958127D01*
X111093164Y-44742373D01*
X111188502Y-44512207D01*
X111252982Y-44271565D01*
X111285500Y-44024565D01*
X111285500Y-43775435D01*
X111261822Y-43595586D01*
X111252983Y-43528442D01*
X111252982Y-43528441D01*
X111252982Y-43528435D01*
X111188502Y-43287793D01*
X111093164Y-43057627D01*
X111056197Y-42993599D01*
X111036236Y-42919100D01*
X111056198Y-42844600D01*
X111110736Y-42790062D01*
X111185236Y-42770100D01*
X128779248Y-42770100D01*
X128853748Y-42790062D01*
X128884607Y-42813741D01*
X129578149Y-43507284D01*
X129615332Y-43535815D01*
X129786198Y-43666923D01*
X129842685Y-43699536D01*
X130013295Y-43798039D01*
X130013298Y-43798040D01*
X130013303Y-43798043D01*
X130130866Y-43846739D01*
X130255572Y-43898395D01*
X130255576Y-43898396D01*
X130255581Y-43898398D01*
X130508884Y-43966271D01*
X130508890Y-43966271D01*
X130508891Y-43966272D01*
X130508899Y-43966273D01*
X130768880Y-44000499D01*
X131031119Y-44000499D01*
X131291115Y-43966271D01*
X131544419Y-43898398D01*
X131786697Y-43798043D01*
X132013802Y-43666923D01*
X132221851Y-43507283D01*
X132407283Y-43321851D01*
X132566923Y-43113802D01*
X132698043Y-42886697D01*
X132798398Y-42644419D01*
X132866271Y-42391115D01*
X132900499Y-42131119D01*
X132900499Y-41868880D01*
X132866271Y-41608884D01*
X132798398Y-41355581D01*
X132798396Y-41355576D01*
X132798395Y-41355572D01*
X132746739Y-41230866D01*
X132698043Y-41113303D01*
X132698040Y-41113298D01*
X132698039Y-41113295D01*
X132566925Y-40886202D01*
X132566923Y-40886198D01*
X132407283Y-40678148D01*
X130991451Y-39262317D01*
X130991448Y-39262314D01*
X130873731Y-39171988D01*
X130873730Y-39171987D01*
X130783406Y-39102678D01*
X130556301Y-38971559D01*
X130556299Y-38971558D01*
X130556297Y-38971557D01*
X130506124Y-38950775D01*
X130314027Y-38871204D01*
X130314023Y-38871203D01*
X130103955Y-38814915D01*
X130060716Y-38803329D01*
X130060714Y-38803328D01*
X130060708Y-38803327D01*
X129930719Y-38786215D01*
X129930718Y-38786214D01*
X129930718Y-38786215D01*
X129800723Y-38769100D01*
X129800720Y-38769100D01*
X102566996Y-38769100D01*
X102492496Y-38749138D01*
X102437958Y-38694600D01*
X102417996Y-38620100D01*
X102437958Y-38545600D01*
X102461637Y-38514741D01*
X102469289Y-38507089D01*
X102556894Y-38375979D01*
X102617237Y-38230297D01*
X102648000Y-38075642D01*
X102648000Y-37917958D01*
X102617237Y-37763303D01*
X102556894Y-37617621D01*
X102469289Y-37486511D01*
X102357789Y-37375011D01*
X102226679Y-37287406D01*
X102226678Y-37287405D01*
X102226676Y-37287404D01*
X102080998Y-37227063D01*
X102080994Y-37227062D01*
X101926342Y-37196300D01*
X101768658Y-37196300D01*
X101614005Y-37227062D01*
X101614001Y-37227063D01*
X101474230Y-37284958D01*
X101417211Y-37296300D01*
X65570289Y-37296300D01*
X65513270Y-37284958D01*
X65373498Y-37227063D01*
X65373494Y-37227062D01*
X65218842Y-37196300D01*
X65061158Y-37196300D01*
X64906505Y-37227062D01*
X64906501Y-37227063D01*
X64760823Y-37287404D01*
X64629707Y-37375014D01*
X64518214Y-37486507D01*
X64430604Y-37617623D01*
X64370263Y-37763301D01*
X64370262Y-37763305D01*
X64339500Y-37917957D01*
X64339500Y-38075642D01*
X64370262Y-38230294D01*
X64370263Y-38230298D01*
X64430604Y-38375976D01*
X64430605Y-38375978D01*
X64430606Y-38375979D01*
X64518211Y-38507089D01*
X64518214Y-38507092D01*
X64554563Y-38543441D01*
X64593127Y-38610236D01*
X64593127Y-38687364D01*
X64554563Y-38754159D01*
X64487768Y-38792723D01*
X64449204Y-38797800D01*
X45655576Y-38797800D01*
X45525582Y-38814915D01*
X45525580Y-38814915D01*
X45395591Y-38832027D01*
X45142276Y-38899903D01*
X45142272Y-38899904D01*
X44899998Y-39000259D01*
X44672894Y-39131377D01*
X44540029Y-39233327D01*
X44540030Y-39233328D01*
X44464845Y-39291020D01*
X41177718Y-42578147D01*
X41018075Y-42786199D01*
X40886959Y-43013298D01*
X40786604Y-43255572D01*
X40786603Y-43255576D01*
X40718727Y-43508891D01*
X40684501Y-43768874D01*
X5500000Y-43768874D01*
X5500000Y-31878706D01*
X47149500Y-31878706D01*
X47149500Y-32121293D01*
X47181160Y-32361781D01*
X47181161Y-32361787D01*
X47181162Y-32361789D01*
X47243946Y-32596100D01*
X47336776Y-32820212D01*
X47458064Y-33030289D01*
X47605735Y-33222738D01*
X47777262Y-33394265D01*
X47969711Y-33541936D01*
X48179788Y-33663224D01*
X48403900Y-33756054D01*
X48638211Y-33818838D01*
X48638217Y-33818838D01*
X48638218Y-33818839D01*
X48703600Y-33827446D01*
X48878712Y-33850500D01*
X49121288Y-33850500D01*
X49361789Y-33818838D01*
X49596100Y-33756054D01*
X49820212Y-33663224D01*
X50030289Y-33541936D01*
X50222738Y-33394265D01*
X50394265Y-33222738D01*
X50541936Y-33030289D01*
X50663224Y-32820212D01*
X50756054Y-32596100D01*
X50818838Y-32361789D01*
X50850500Y-32121288D01*
X50850500Y-31878712D01*
X50818838Y-31638211D01*
X50756054Y-31403900D01*
X50663224Y-31179788D01*
X50541936Y-30969711D01*
X50394265Y-30777262D01*
X50222738Y-30605735D01*
X50030289Y-30458064D01*
X49960263Y-30417634D01*
X49820216Y-30336778D01*
X49820214Y-30336777D01*
X49820212Y-30336776D01*
X49688932Y-30282398D01*
X49596103Y-30243947D01*
X49596101Y-30243946D01*
X49596100Y-30243946D01*
X49361789Y-30181162D01*
X49361787Y-30181161D01*
X49361781Y-30181160D01*
X49121293Y-30149500D01*
X49121288Y-30149500D01*
X48878712Y-30149500D01*
X48878706Y-30149500D01*
X48638218Y-30181160D01*
X48403896Y-30243947D01*
X48179783Y-30336778D01*
X47969712Y-30458063D01*
X47969711Y-30458064D01*
X47777262Y-30605735D01*
X47777260Y-30605736D01*
X47777256Y-30605740D01*
X47605740Y-30777256D01*
X47458063Y-30969712D01*
X47336778Y-31179783D01*
X47243947Y-31403896D01*
X47181160Y-31638218D01*
X47149500Y-31878706D01*
X5500000Y-31878706D01*
X5500000Y-23893713D01*
X51089500Y-23893713D01*
X51089500Y-24106287D01*
X51122754Y-24316243D01*
X51188443Y-24518412D01*
X51284949Y-24707816D01*
X51409896Y-24879792D01*
X51560208Y-25030104D01*
X51732184Y-25155051D01*
X51921588Y-25251557D01*
X52123757Y-25317246D01*
X52333713Y-25350500D01*
X52333718Y-25350500D01*
X52546282Y-25350500D01*
X52546287Y-25350500D01*
X52756243Y-25317246D01*
X52958412Y-25251557D01*
X53147816Y-25155051D01*
X53319792Y-25030104D01*
X53470104Y-24879792D01*
X53589456Y-24715517D01*
X53649396Y-24666979D01*
X53725574Y-24654913D01*
X53797580Y-24682553D01*
X53830544Y-24715517D01*
X53949896Y-24879792D01*
X54100208Y-25030104D01*
X54272184Y-25155051D01*
X54461588Y-25251557D01*
X54663757Y-25317246D01*
X54873713Y-25350500D01*
X54873718Y-25350500D01*
X55086282Y-25350500D01*
X55086287Y-25350500D01*
X55296243Y-25317246D01*
X55498412Y-25251557D01*
X55687816Y-25155051D01*
X55859792Y-25030104D01*
X56010104Y-24879792D01*
X56129456Y-24715517D01*
X56189396Y-24666979D01*
X56265574Y-24654913D01*
X56337580Y-24682553D01*
X56370544Y-24715517D01*
X56489896Y-24879792D01*
X56640208Y-25030104D01*
X56812184Y-25155051D01*
X57001588Y-25251557D01*
X57203757Y-25317246D01*
X57413713Y-25350500D01*
X57413718Y-25350500D01*
X57626282Y-25350500D01*
X57626287Y-25350500D01*
X57836243Y-25317246D01*
X58038412Y-25251557D01*
X58227816Y-25155051D01*
X58399792Y-25030104D01*
X58550104Y-24879792D01*
X58669456Y-24715517D01*
X58729396Y-24666979D01*
X58805574Y-24654913D01*
X58877580Y-24682553D01*
X58910544Y-24715517D01*
X59029896Y-24879792D01*
X59180208Y-25030104D01*
X59352184Y-25155051D01*
X59541588Y-25251557D01*
X59743757Y-25317246D01*
X59953713Y-25350500D01*
X59953718Y-25350500D01*
X60166282Y-25350500D01*
X60166287Y-25350500D01*
X60376243Y-25317246D01*
X60578412Y-25251557D01*
X60767816Y-25155051D01*
X60939792Y-25030104D01*
X61090104Y-24879792D01*
X61209456Y-24715517D01*
X61269396Y-24666979D01*
X61345574Y-24654913D01*
X61417580Y-24682553D01*
X61450544Y-24715517D01*
X61569896Y-24879792D01*
X61720208Y-25030104D01*
X61892184Y-25155051D01*
X62081588Y-25251557D01*
X62283757Y-25317246D01*
X62493713Y-25350500D01*
X62493718Y-25350500D01*
X62706282Y-25350500D01*
X62706287Y-25350500D01*
X62916243Y-25317246D01*
X63118412Y-25251557D01*
X63307816Y-25155051D01*
X63479792Y-25030104D01*
X63630104Y-24879792D01*
X63749456Y-24715517D01*
X63809396Y-24666979D01*
X63885574Y-24654913D01*
X63957580Y-24682553D01*
X63990544Y-24715517D01*
X64109896Y-24879792D01*
X64260208Y-25030104D01*
X64432184Y-25155051D01*
X64621588Y-25251557D01*
X64823757Y-25317246D01*
X65033713Y-25350500D01*
X65033718Y-25350500D01*
X65246282Y-25350500D01*
X65246287Y-25350500D01*
X65456243Y-25317246D01*
X65658412Y-25251557D01*
X65847816Y-25155051D01*
X66019792Y-25030104D01*
X66170104Y-24879792D01*
X66289456Y-24715517D01*
X66349396Y-24666979D01*
X66425574Y-24654913D01*
X66497580Y-24682553D01*
X66530544Y-24715517D01*
X66649896Y-24879792D01*
X66800208Y-25030104D01*
X66972184Y-25155051D01*
X67161588Y-25251557D01*
X67363757Y-25317246D01*
X67573713Y-25350500D01*
X67573718Y-25350500D01*
X67786282Y-25350500D01*
X67786287Y-25350500D01*
X67996243Y-25317246D01*
X68198412Y-25251557D01*
X68387816Y-25155051D01*
X68559792Y-25030104D01*
X68710104Y-24879792D01*
X68829456Y-24715517D01*
X68889396Y-24666979D01*
X68965574Y-24654913D01*
X69037580Y-24682553D01*
X69070544Y-24715517D01*
X69189896Y-24879792D01*
X69340208Y-25030104D01*
X69512184Y-25155051D01*
X69701588Y-25251557D01*
X69903757Y-25317246D01*
X70113713Y-25350500D01*
X70113718Y-25350500D01*
X70326282Y-25350500D01*
X70326287Y-25350500D01*
X70536243Y-25317246D01*
X70738412Y-25251557D01*
X70927816Y-25155051D01*
X71099792Y-25030104D01*
X71250104Y-24879792D01*
X71369456Y-24715517D01*
X71429396Y-24666979D01*
X71505574Y-24654913D01*
X71577580Y-24682553D01*
X71610544Y-24715517D01*
X71729896Y-24879792D01*
X71880208Y-25030104D01*
X72052184Y-25155051D01*
X72241588Y-25251557D01*
X72443757Y-25317246D01*
X72653713Y-25350500D01*
X72653718Y-25350500D01*
X72866282Y-25350500D01*
X72866287Y-25350500D01*
X73076243Y-25317246D01*
X73278412Y-25251557D01*
X73467816Y-25155051D01*
X73639792Y-25030104D01*
X73790104Y-24879792D01*
X73909456Y-24715517D01*
X73969396Y-24666979D01*
X74045574Y-24654913D01*
X74117580Y-24682553D01*
X74150544Y-24715517D01*
X74269896Y-24879792D01*
X74420208Y-25030104D01*
X74592184Y-25155051D01*
X74781588Y-25251557D01*
X74983757Y-25317246D01*
X75193713Y-25350500D01*
X75193718Y-25350500D01*
X75406282Y-25350500D01*
X75406287Y-25350500D01*
X75616243Y-25317246D01*
X75818412Y-25251557D01*
X76007816Y-25155051D01*
X76179792Y-25030104D01*
X76330104Y-24879792D01*
X76449456Y-24715517D01*
X76509396Y-24666979D01*
X76585574Y-24654913D01*
X76657580Y-24682553D01*
X76690544Y-24715517D01*
X76809896Y-24879792D01*
X76960208Y-25030104D01*
X77132184Y-25155051D01*
X77321588Y-25251557D01*
X77523757Y-25317246D01*
X77733713Y-25350500D01*
X77733718Y-25350500D01*
X77946282Y-25350500D01*
X77946287Y-25350500D01*
X78156243Y-25317246D01*
X78358412Y-25251557D01*
X78547816Y-25155051D01*
X78719792Y-25030104D01*
X78870104Y-24879792D01*
X78989456Y-24715517D01*
X79049396Y-24666979D01*
X79125574Y-24654913D01*
X79197580Y-24682553D01*
X79230544Y-24715517D01*
X79349896Y-24879792D01*
X79500208Y-25030104D01*
X79672184Y-25155051D01*
X79861588Y-25251557D01*
X80063757Y-25317246D01*
X80248294Y-25346474D01*
X80318752Y-25377844D01*
X80364087Y-25440242D01*
X80372150Y-25516947D01*
X80340779Y-25587407D01*
X80330343Y-25598998D01*
X77465766Y-28463575D01*
X77398971Y-28502139D01*
X77321843Y-28502139D01*
X77303394Y-28495877D01*
X77299497Y-28494263D01*
X77299494Y-28494262D01*
X77144842Y-28463500D01*
X76987158Y-28463500D01*
X76832505Y-28494262D01*
X76832501Y-28494263D01*
X76686823Y-28554604D01*
X76555707Y-28642214D01*
X76444214Y-28753707D01*
X76356604Y-28884823D01*
X76296263Y-29030501D01*
X76296262Y-29030505D01*
X76265500Y-29185157D01*
X76265500Y-29342842D01*
X76296262Y-29497494D01*
X76296263Y-29497498D01*
X76356604Y-29643176D01*
X76356605Y-29643178D01*
X76356606Y-29643179D01*
X76444211Y-29774289D01*
X76555711Y-29885789D01*
X76686821Y-29973394D01*
X76832503Y-30033737D01*
X76987158Y-30064500D01*
X77144842Y-30064500D01*
X77299497Y-30033737D01*
X77380044Y-30000373D01*
X77439270Y-29975842D01*
X77496289Y-29964500D01*
X77724990Y-29964500D01*
X77724994Y-29964500D01*
X77860328Y-29937580D01*
X77947371Y-29901525D01*
X77987802Y-29884779D01*
X77987803Y-29884778D01*
X77987811Y-29884775D01*
X78102543Y-29808114D01*
X82541143Y-25369512D01*
X82607936Y-25330950D01*
X82669805Y-25327707D01*
X82813713Y-25350500D01*
X82813718Y-25350500D01*
X83026282Y-25350500D01*
X83026287Y-25350500D01*
X83236243Y-25317246D01*
X83438412Y-25251557D01*
X83627816Y-25155051D01*
X83799792Y-25030104D01*
X83950104Y-24879792D01*
X84069456Y-24715517D01*
X84129396Y-24666979D01*
X84205574Y-24654913D01*
X84277580Y-24682553D01*
X84310544Y-24715517D01*
X84429896Y-24879792D01*
X84580208Y-25030104D01*
X84752184Y-25155051D01*
X84941588Y-25251557D01*
X85143757Y-25317246D01*
X85353713Y-25350500D01*
X85353718Y-25350500D01*
X85566282Y-25350500D01*
X85566287Y-25350500D01*
X85776243Y-25317246D01*
X85978412Y-25251557D01*
X86167816Y-25155051D01*
X86339792Y-25030104D01*
X86490104Y-24879792D01*
X86609456Y-24715517D01*
X86669396Y-24666979D01*
X86745574Y-24654913D01*
X86817580Y-24682553D01*
X86850544Y-24715517D01*
X86969896Y-24879792D01*
X87120208Y-25030104D01*
X87292184Y-25155051D01*
X87481588Y-25251557D01*
X87683757Y-25317246D01*
X87893713Y-25350500D01*
X87893718Y-25350500D01*
X88106282Y-25350500D01*
X88106287Y-25350500D01*
X88316243Y-25317246D01*
X88518412Y-25251557D01*
X88707816Y-25155051D01*
X88879792Y-25030104D01*
X89030104Y-24879792D01*
X89149456Y-24715517D01*
X89209396Y-24666979D01*
X89285574Y-24654913D01*
X89357580Y-24682553D01*
X89390544Y-24715517D01*
X89509896Y-24879792D01*
X89660208Y-25030104D01*
X89832184Y-25155051D01*
X90021588Y-25251557D01*
X90223757Y-25317246D01*
X90433713Y-25350500D01*
X90433718Y-25350500D01*
X90646282Y-25350500D01*
X90646287Y-25350500D01*
X90856243Y-25317246D01*
X91058412Y-25251557D01*
X91247816Y-25155051D01*
X91419792Y-25030104D01*
X91570104Y-24879792D01*
X91689456Y-24715517D01*
X91749396Y-24666979D01*
X91825574Y-24654913D01*
X91897580Y-24682553D01*
X91930544Y-24715517D01*
X92049896Y-24879792D01*
X92200208Y-25030104D01*
X92372184Y-25155051D01*
X92561588Y-25251557D01*
X92763757Y-25317246D01*
X92948295Y-25346474D01*
X93018753Y-25377844D01*
X93064088Y-25440242D01*
X93072151Y-25516947D01*
X93040780Y-25587407D01*
X93030344Y-25598998D01*
X87125484Y-31503859D01*
X87058689Y-31542423D01*
X87020125Y-31547500D01*
X68632589Y-31547500D01*
X68575570Y-31536158D01*
X68435798Y-31478263D01*
X68435794Y-31478262D01*
X68281142Y-31447500D01*
X68123458Y-31447500D01*
X67968805Y-31478262D01*
X67968801Y-31478263D01*
X67823123Y-31538604D01*
X67692007Y-31626214D01*
X67580514Y-31737707D01*
X67492904Y-31868823D01*
X67432563Y-32014501D01*
X67432562Y-32014505D01*
X67401798Y-32169166D01*
X67401413Y-32173075D01*
X67400581Y-32175283D01*
X67400372Y-32176337D01*
X67400198Y-32176302D01*
X67374239Y-32245258D01*
X67314615Y-32294183D01*
X67282201Y-32304596D01*
X67122503Y-32336362D01*
X67122501Y-32336363D01*
X66976823Y-32396704D01*
X66845707Y-32484314D01*
X66734214Y-32595807D01*
X66646604Y-32726923D01*
X66586263Y-32872601D01*
X66586262Y-32872605D01*
X66555500Y-33027257D01*
X66555500Y-33184942D01*
X66586262Y-33339594D01*
X66586263Y-33339598D01*
X66646604Y-33485276D01*
X66646605Y-33485278D01*
X66646606Y-33485279D01*
X66734211Y-33616389D01*
X66845711Y-33727889D01*
X66976821Y-33815494D01*
X66976822Y-33815494D01*
X66976823Y-33815495D01*
X67049662Y-33845665D01*
X67122503Y-33875837D01*
X67277158Y-33906600D01*
X67434842Y-33906600D01*
X67589497Y-33875837D01*
X67670044Y-33842473D01*
X67729270Y-33817942D01*
X67786289Y-33806600D01*
X88418790Y-33806600D01*
X88418794Y-33806600D01*
X88554128Y-33779680D01*
X88641171Y-33743625D01*
X88681602Y-33726879D01*
X88681603Y-33726878D01*
X88681611Y-33726875D01*
X88796343Y-33650214D01*
X90567851Y-31878706D01*
X97149500Y-31878706D01*
X97149500Y-32121293D01*
X97181160Y-32361781D01*
X97181161Y-32361787D01*
X97181162Y-32361789D01*
X97243946Y-32596100D01*
X97336776Y-32820212D01*
X97458064Y-33030289D01*
X97605735Y-33222738D01*
X97777262Y-33394265D01*
X97969711Y-33541936D01*
X98179788Y-33663224D01*
X98403900Y-33756054D01*
X98638211Y-33818838D01*
X98638217Y-33818838D01*
X98638218Y-33818839D01*
X98703600Y-33827446D01*
X98878712Y-33850500D01*
X99121288Y-33850500D01*
X99361789Y-33818838D01*
X99596100Y-33756054D01*
X99820212Y-33663224D01*
X100030289Y-33541936D01*
X100222738Y-33394265D01*
X100394265Y-33222738D01*
X100541936Y-33030289D01*
X100663224Y-32820212D01*
X100756054Y-32596100D01*
X100818838Y-32361789D01*
X100850500Y-32121288D01*
X100850500Y-31878712D01*
X100818838Y-31638211D01*
X100756054Y-31403900D01*
X100663224Y-31179788D01*
X100541936Y-30969711D01*
X100394265Y-30777262D01*
X100222738Y-30605735D01*
X100030289Y-30458064D01*
X99960263Y-30417634D01*
X99820216Y-30336778D01*
X99820214Y-30336777D01*
X99820212Y-30336776D01*
X99688932Y-30282398D01*
X99596103Y-30243947D01*
X99596101Y-30243946D01*
X99596100Y-30243946D01*
X99361789Y-30181162D01*
X99361787Y-30181161D01*
X99361781Y-30181160D01*
X99121293Y-30149500D01*
X99121288Y-30149500D01*
X98878712Y-30149500D01*
X98878706Y-30149500D01*
X98638218Y-30181160D01*
X98403896Y-30243947D01*
X98179783Y-30336778D01*
X97969712Y-30458063D01*
X97969711Y-30458064D01*
X97777262Y-30605735D01*
X97777260Y-30605736D01*
X97777256Y-30605740D01*
X97605740Y-30777256D01*
X97458063Y-30969712D01*
X97336778Y-31179783D01*
X97243947Y-31403896D01*
X97181160Y-31638218D01*
X97149500Y-31878706D01*
X90567851Y-31878706D01*
X97062833Y-25383722D01*
X97129626Y-25345160D01*
X97193129Y-25344215D01*
X97193250Y-25343095D01*
X97202392Y-25344077D01*
X97202457Y-25344077D01*
X97202515Y-25344090D01*
X97202517Y-25344091D01*
X97212460Y-25345160D01*
X97262114Y-25350499D01*
X97262118Y-25350499D01*
X97262127Y-25350500D01*
X99057872Y-25350499D01*
X99117483Y-25344091D01*
X99213447Y-25308298D01*
X99252329Y-25293797D01*
X99252333Y-25293795D01*
X99309938Y-25250671D01*
X99367546Y-25207546D01*
X99453796Y-25092331D01*
X99504091Y-24957483D01*
X99510500Y-24897873D01*
X99510499Y-23102128D01*
X99504091Y-23042517D01*
X99504088Y-23042510D01*
X99501947Y-23033445D01*
X99504729Y-23032787D01*
X99498869Y-22971385D01*
X99530912Y-22901228D01*
X99593741Y-22856492D01*
X99645805Y-22847100D01*
X113349211Y-22847100D01*
X113406230Y-22858442D01*
X113484208Y-22890741D01*
X113546003Y-22916337D01*
X113700658Y-22947100D01*
X113858342Y-22947100D01*
X114012997Y-22916337D01*
X114158679Y-22855994D01*
X114289789Y-22768389D01*
X114401289Y-22656889D01*
X114488894Y-22525779D01*
X114549237Y-22380097D01*
X114580000Y-22225442D01*
X114580000Y-22067758D01*
X114549237Y-21913103D01*
X114488894Y-21767421D01*
X114401289Y-21636311D01*
X114289789Y-21524811D01*
X114158679Y-21437206D01*
X114158678Y-21437205D01*
X114158676Y-21437204D01*
X114012998Y-21376863D01*
X114012994Y-21376862D01*
X113858342Y-21346100D01*
X113700658Y-21346100D01*
X113546005Y-21376862D01*
X113546001Y-21376863D01*
X113406230Y-21434758D01*
X113349211Y-21446100D01*
X61844407Y-21446100D01*
X61735991Y-21467664D01*
X61735991Y-21467665D01*
X61730637Y-21468730D01*
X61709072Y-21473019D01*
X61656264Y-21494893D01*
X61581587Y-21525825D01*
X61569388Y-21533977D01*
X61569386Y-21533978D01*
X61466860Y-21602484D01*
X61466853Y-21602490D01*
X60438857Y-22630485D01*
X60372062Y-22669049D01*
X60310190Y-22672292D01*
X60281439Y-22667738D01*
X60166287Y-22649500D01*
X59953713Y-22649500D01*
X59778749Y-22677211D01*
X59743756Y-22682754D01*
X59541594Y-22748441D01*
X59541588Y-22748443D01*
X59541582Y-22748445D01*
X59541582Y-22748446D01*
X59352182Y-22844950D01*
X59352181Y-22844950D01*
X59180209Y-22969895D01*
X59180206Y-22969897D01*
X59029897Y-23120206D01*
X59029895Y-23120209D01*
X58910544Y-23284482D01*
X58850604Y-23333020D01*
X58774425Y-23345086D01*
X58702420Y-23317446D01*
X58669456Y-23284482D01*
X58553339Y-23124661D01*
X58550104Y-23120208D01*
X58399792Y-22969896D01*
X58227816Y-22844949D01*
X58038412Y-22748443D01*
X57836243Y-22682754D01*
X57626287Y-22649500D01*
X57413713Y-22649500D01*
X57238749Y-22677211D01*
X57203756Y-22682754D01*
X57001594Y-22748441D01*
X57001588Y-22748443D01*
X57001582Y-22748445D01*
X57001582Y-22748446D01*
X56812182Y-22844950D01*
X56812181Y-22844950D01*
X56640209Y-22969895D01*
X56640206Y-22969897D01*
X56489897Y-23120206D01*
X56489895Y-23120209D01*
X56370544Y-23284482D01*
X56310604Y-23333020D01*
X56234425Y-23345086D01*
X56162420Y-23317446D01*
X56129456Y-23284482D01*
X56013339Y-23124661D01*
X56010104Y-23120208D01*
X55859792Y-22969896D01*
X55687816Y-22844949D01*
X55498412Y-22748443D01*
X55296243Y-22682754D01*
X55086287Y-22649500D01*
X54873713Y-22649500D01*
X54698749Y-22677211D01*
X54663756Y-22682754D01*
X54461594Y-22748441D01*
X54461588Y-22748443D01*
X54461582Y-22748445D01*
X54461582Y-22748446D01*
X54272182Y-22844950D01*
X54272181Y-22844950D01*
X54100209Y-22969895D01*
X54100206Y-22969897D01*
X53949897Y-23120206D01*
X53949895Y-23120209D01*
X53830544Y-23284482D01*
X53770604Y-23333020D01*
X53694425Y-23345086D01*
X53622420Y-23317446D01*
X53589456Y-23284482D01*
X53473339Y-23124661D01*
X53470104Y-23120208D01*
X53319792Y-22969896D01*
X53147816Y-22844949D01*
X52958412Y-22748443D01*
X52756243Y-22682754D01*
X52546287Y-22649500D01*
X52333713Y-22649500D01*
X52158749Y-22677211D01*
X52123756Y-22682754D01*
X51921594Y-22748441D01*
X51921588Y-22748443D01*
X51921582Y-22748445D01*
X51921582Y-22748446D01*
X51732182Y-22844950D01*
X51732181Y-22844950D01*
X51560209Y-22969895D01*
X51560206Y-22969897D01*
X51409897Y-23120206D01*
X51409895Y-23120209D01*
X51284950Y-23292181D01*
X51284950Y-23292182D01*
X51284949Y-23292184D01*
X51188443Y-23481588D01*
X51122754Y-23683757D01*
X51089500Y-23893713D01*
X5500000Y-23893713D01*
X5500000Y-8548699D01*
X5504465Y-8512495D01*
X5544485Y-8352726D01*
X5548730Y-8338733D01*
X5600407Y-8194305D01*
X5732219Y-7825915D01*
X5737803Y-7812432D01*
X5970692Y-7320029D01*
X5977557Y-7307187D01*
X6257585Y-6839991D01*
X6265687Y-6827865D01*
X6590144Y-6390385D01*
X6599419Y-6379084D01*
X6965203Y-5975502D01*
X6975502Y-5965203D01*
X7379085Y-5599417D01*
X7390387Y-5590143D01*
X7412408Y-5573811D01*
X7827855Y-5265694D01*
X7840007Y-5257575D01*
X8307184Y-4977560D01*
X8320047Y-4970685D01*
X8812423Y-4737808D01*
X8825916Y-4732219D01*
X9338734Y-4548729D01*
X9352726Y-4544485D01*
X9512497Y-4504465D01*
X9548701Y-4500000D01*
X140451297Y-4500000D01*
X140487501Y-4504465D01*
G37*
%TD.AperFunction*%
%TD*%
M02*
