%TF.GenerationSoftware,KiCad,Pcbnew,10.0.0*%
%TF.CreationDate,2026-03-30T18:49:50-04:00*%
%TF.ProjectId,geodude-carrier,67656f64-7564-4652-9d63-617272696572,rev?*%
%TF.SameCoordinates,Original*%
%TF.FileFunction,Copper,L1,Top*%
%TF.FilePolarity,Positive*%
%FSLAX46Y46*%
G04 Gerber Fmt 4.6, Leading zero omitted, Abs format (unit mm)*
G04 Created by KiCad (PCBNEW 10.0.0) date 2026-03-30 18:49:50*
%MOMM*%
%LPD*%
G01*
G04 APERTURE LIST*
G04 Aperture macros list*
%AMRoundRect*
0 Rectangle with rounded corners*
0 $1 Rounding radius*
0 $2 $3 $4 $5 $6 $7 $8 $9 X,Y pos of 4 corners*
0 Add a 4 corners polygon primitive as box body*
4,1,4,$2,$3,$4,$5,$6,$7,$8,$9,$2,$3,0*
0 Add four circle primitives for the rounded corners*
1,1,$1+$1,$2,$3*
1,1,$1+$1,$4,$5*
1,1,$1+$1,$6,$7*
1,1,$1+$1,$8,$9*
0 Add four rect primitives between the rounded corners*
20,1,$1+$1,$2,$3,$4,$5,0*
20,1,$1+$1,$4,$5,$6,$7,0*
20,1,$1+$1,$6,$7,$8,$9,0*
20,1,$1+$1,$8,$9,$2,$3,0*%
G04 Aperture macros list end*
%TA.AperFunction,ComponentPad*%
%ADD10C,2.800000*%
%TD*%
%TA.AperFunction,ComponentPad*%
%ADD11R,1.700000X1.700000*%
%TD*%
%TA.AperFunction,ComponentPad*%
%ADD12C,1.700000*%
%TD*%
%TA.AperFunction,ComponentPad*%
%ADD13RoundRect,0.250001X1.149999X-1.149999X1.149999X1.149999X-1.149999X1.149999X-1.149999X-1.149999X0*%
%TD*%
%TA.AperFunction,ViaPad*%
%ADD14C,0.600000*%
%TD*%
%TA.AperFunction,Conductor*%
%ADD15C,3.000000*%
%TD*%
%TA.AperFunction,Conductor*%
%ADD16C,1.699800*%
%TD*%
%TA.AperFunction,Conductor*%
%ADD17C,0.400000*%
%TD*%
%TA.AperFunction,Conductor*%
%ADD18C,1.000000*%
%TD*%
%TA.AperFunction,Conductor*%
%ADD19C,2.000000*%
%TD*%
%TA.AperFunction,Conductor*%
%ADD20C,0.600000*%
%TD*%
%TA.AperFunction,Conductor*%
%ADD21C,1.500000*%
%TD*%
G04 APERTURE END LIST*
D10*
%TO.P,F2,1*%
%TO.N,+12V*%
X83185000Y-60900000D03*
%TO.P,F2,2*%
%TO.N,SV2_PWR*%
X105385000Y-60900000D03*
%TD*%
D11*
%TO.P,SV4,1*%
%TO.N,PWM_CH3*%
X91220000Y-124300000D03*
D12*
%TO.P,SV4,2*%
%TO.N,SV4_PWR*%
X93760000Y-124300000D03*
%TO.P,SV4,3*%
%TO.N,GND*%
X96300000Y-124300000D03*
%TD*%
D11*
%TO.P,J_FAN,1*%
%TO.N,GND*%
X116460000Y-120500000D03*
D12*
%TO.P,J_FAN,2*%
%TO.N,N/C*%
X116460000Y-117960000D03*
%TO.P,J_FAN,3*%
%TO.N,+12V*%
X119000000Y-120500000D03*
%TO.P,J_FAN,4*%
%TO.N,N/C*%
X119000000Y-117960000D03*
%TO.P,J_FAN,5*%
%TO.N,TACH*%
X121540000Y-120500000D03*
%TO.P,J_FAN,6*%
X121540000Y-117960000D03*
%TO.P,J_FAN,7*%
%TO.N,PWM_CH12*%
X124080000Y-120500000D03*
%TO.P,J_FAN,8*%
X124080000Y-117960000D03*
%TD*%
D10*
%TO.P,F6,1*%
%TO.N,+12V*%
X46685000Y-43900000D03*
%TO.P,F6,2*%
%TO.N,SV6_PWR*%
X68885000Y-43900000D03*
%TD*%
D11*
%TO.P,SV2,1*%
%TO.N,PWM_CH1*%
X63220000Y-124300000D03*
D12*
%TO.P,SV2,2*%
%TO.N,SV2_PWR*%
X65760000Y-124300000D03*
%TO.P,SV2,3*%
%TO.N,GND*%
X68300000Y-124300000D03*
%TD*%
D13*
%TO.P,J4,1*%
%TO.N,GND*%
X122900000Y-107000000D03*
D10*
%TO.P,J4,2*%
X122900000Y-102000000D03*
%TD*%
D11*
%TO.P,SV6,1*%
%TO.N,PWM_CH5*%
X48960000Y-132500000D03*
D12*
%TO.P,SV6,2*%
%TO.N,SV6_PWR*%
X51500000Y-132500000D03*
%TO.P,SV6,3*%
%TO.N,GND*%
X54040000Y-132500000D03*
%TD*%
D11*
%TO.P,J41,1*%
%TO.N,SDA*%
X37000000Y-68100000D03*
D12*
%TO.P,J41,2*%
X37000000Y-70640000D03*
%TO.P,J41,3*%
X37000000Y-73180000D03*
%TO.P,J41,4*%
X37000000Y-75720000D03*
%TD*%
D13*
%TO.P,J2,1*%
%TO.N,+12V*%
X122900000Y-59000000D03*
D10*
%TO.P,J2,2*%
X122900000Y-54000000D03*
%TD*%
D13*
%TO.P,J34,1*%
%TO.N,+3V3*%
X25000000Y-81400000D03*
D10*
%TO.P,J34,2*%
X25000000Y-76400000D03*
%TD*%
D13*
%TO.P,J32,1*%
%TO.N,SDA*%
X25000000Y-69400000D03*
D10*
%TO.P,J32,2*%
X25000000Y-64400000D03*
%TD*%
D11*
%TO.P,SV1,1*%
%TO.N,PWM_CH0*%
X49220000Y-124300000D03*
D12*
%TO.P,SV1,2*%
%TO.N,SV1_PWR*%
X51760000Y-124300000D03*
%TO.P,SV1,3*%
%TO.N,GND*%
X54300000Y-124300000D03*
%TD*%
D11*
%TO.P,J_ESC,1*%
%TO.N,PWM_CH11*%
X116460000Y-132500000D03*
D12*
%TO.P,J_ESC,2*%
%TO.N,N/C*%
X119000000Y-132500000D03*
%TO.P,J_ESC,3*%
%TO.N,GND*%
X121540000Y-132500000D03*
%TD*%
D11*
%TO.P,SV3,1*%
%TO.N,PWM_CH2*%
X77220000Y-124300000D03*
D12*
%TO.P,SV3,2*%
%TO.N,SV3_PWR*%
X79760000Y-124300000D03*
%TO.P,SV3,3*%
%TO.N,GND*%
X82300000Y-124300000D03*
%TD*%
D13*
%TO.P,J37,1*%
%TO.N,+5V_LOGIC*%
X25000000Y-93400000D03*
D10*
%TO.P,J37,2*%
X25000000Y-88400000D03*
%TD*%
D11*
%TO.P,J44,1*%
%TO.N,GND_LOGIC*%
X37000000Y-104100000D03*
D12*
%TO.P,J44,2*%
X37000000Y-106640000D03*
%TO.P,J44,3*%
X37000000Y-109180000D03*
%TO.P,J44,4*%
X37000000Y-111720000D03*
%TD*%
D11*
%TO.P,SV10,1*%
%TO.N,PWM_CH9*%
X104960000Y-132500000D03*
D12*
%TO.P,SV10,2*%
%TO.N,SV10_PWR*%
X107500000Y-132500000D03*
%TO.P,SV10,3*%
%TO.N,GND*%
X110040000Y-132500000D03*
%TD*%
D11*
%TO.P,SV7,1*%
%TO.N,PWM_CH6*%
X62960000Y-132500000D03*
D12*
%TO.P,SV7,2*%
%TO.N,SV7_PWR*%
X65500000Y-132500000D03*
%TO.P,SV7,3*%
%TO.N,GND*%
X68040000Y-132500000D03*
%TD*%
D10*
%TO.P,F7,1*%
%TO.N,+12V*%
X46685000Y-60900000D03*
%TO.P,F7,2*%
%TO.N,SV7_PWR*%
X68885000Y-60900000D03*
%TD*%
D13*
%TO.P,J1,1*%
%TO.N,+12V*%
X122900000Y-47000000D03*
D10*
%TO.P,J1,2*%
X122900000Y-42000000D03*
%TD*%
D11*
%TO.P,SV9,1*%
%TO.N,PWM_CH8*%
X90960000Y-132500000D03*
D12*
%TO.P,SV9,2*%
%TO.N,SV9_PWR*%
X93500000Y-132500000D03*
%TO.P,SV9,3*%
%TO.N,GND*%
X96040000Y-132500000D03*
%TD*%
D11*
%TO.P,SV5,1*%
%TO.N,PWM_CH4*%
X105220000Y-124300000D03*
D12*
%TO.P,SV5,2*%
%TO.N,SV5_PWR*%
X107760000Y-124300000D03*
%TO.P,SV5,3*%
%TO.N,GND*%
X110300000Y-124300000D03*
%TD*%
D11*
%TO.P,J43,1*%
%TO.N,+5V_LOGIC*%
X37000000Y-92100000D03*
D12*
%TO.P,J43,2*%
X37000000Y-94640000D03*
%TO.P,J43,3*%
X37000000Y-97180000D03*
%TO.P,J43,4*%
X37000000Y-99720000D03*
%TD*%
D13*
%TO.P,J39,1*%
%TO.N,GND_LOGIC*%
X25000000Y-105400000D03*
D10*
%TO.P,J39,2*%
X25000000Y-100400000D03*
%TD*%
D11*
%TO.P,SV8,1*%
%TO.N,PWM_CH7*%
X76960000Y-132500000D03*
D12*
%TO.P,SV8,2*%
%TO.N,SV8_PWR*%
X79500000Y-132500000D03*
%TO.P,SV8,3*%
%TO.N,GND*%
X82040000Y-132500000D03*
%TD*%
D11*
%TO.P,J40,1*%
%TO.N,SCL*%
X37000000Y-56100000D03*
D12*
%TO.P,J40,2*%
X37000000Y-58640000D03*
%TO.P,J40,3*%
X37000000Y-61180000D03*
%TO.P,J40,4*%
X37000000Y-63720000D03*
%TD*%
D13*
%TO.P,J6,1*%
%TO.N,+5V_SERVO*%
X122900000Y-83000000D03*
D10*
%TO.P,J6,2*%
X122900000Y-78000000D03*
%TD*%
%TO.P,F4,1*%
%TO.N,+5V_SERVO*%
X83185000Y-94900000D03*
%TO.P,F4,2*%
%TO.N,SV4_PWR*%
X105385000Y-94900000D03*
%TD*%
%TO.P,F3,1*%
%TO.N,+7V4*%
X83185000Y-77900000D03*
%TO.P,F3,2*%
%TO.N,SV3_PWR*%
X105385000Y-77900000D03*
%TD*%
D13*
%TO.P,J5,1*%
%TO.N,+7V4*%
X122900000Y-71000000D03*
D10*
%TO.P,J5,2*%
X122900000Y-66000000D03*
%TD*%
D13*
%TO.P,J31,1*%
%TO.N,SCL*%
X25000000Y-57400000D03*
D10*
%TO.P,J31,2*%
X25000000Y-52400000D03*
%TD*%
%TO.P,F5,1*%
%TO.N,+5V_SERVO*%
X83185000Y-111900000D03*
%TO.P,F5,2*%
%TO.N,SV5_PWR*%
X105385000Y-111900000D03*
%TD*%
%TO.P,F9,1*%
%TO.N,+5V_SERVO*%
X46685000Y-94900000D03*
%TO.P,F9,2*%
%TO.N,SV9_PWR*%
X68885000Y-94900000D03*
%TD*%
D11*
%TO.P,J42,1*%
%TO.N,+3V3*%
X37000000Y-80100000D03*
D12*
%TO.P,J42,2*%
X37000000Y-82640000D03*
%TO.P,J42,3*%
X37000000Y-85180000D03*
%TO.P,J42,4*%
X37000000Y-87720000D03*
%TD*%
D13*
%TO.P,J3,1*%
%TO.N,GND*%
X122900000Y-95000000D03*
D10*
%TO.P,J3,2*%
X122900000Y-90000000D03*
%TD*%
%TO.P,F8,1*%
%TO.N,+7V4*%
X46685000Y-77900000D03*
%TO.P,F8,2*%
%TO.N,SV8_PWR*%
X68885000Y-77900000D03*
%TD*%
D11*
%TO.P,J_PCA,1*%
%TO.N,PWM_CH0*%
X98160000Y-24000000D03*
D12*
%TO.P,J_PCA,2*%
%TO.N,PWM_CH1*%
X95620000Y-24000000D03*
%TO.P,J_PCA,3*%
%TO.N,PWM_CH2*%
X93080000Y-24000000D03*
%TO.P,J_PCA,4*%
%TO.N,PWM_CH3*%
X90540000Y-24000000D03*
%TO.P,J_PCA,5*%
%TO.N,N/C*%
X88000000Y-24000000D03*
%TO.P,J_PCA,6*%
%TO.N,PWM_CH4*%
X85460000Y-24000000D03*
%TO.P,J_PCA,7*%
%TO.N,PWM_CH5*%
X82920000Y-24000000D03*
%TO.P,J_PCA,8*%
%TO.N,PWM_CH6*%
X80380000Y-24000000D03*
%TO.P,J_PCA,9*%
%TO.N,PWM_CH7*%
X77840000Y-24000000D03*
%TO.P,J_PCA,10*%
%TO.N,N/C*%
X75300000Y-24000000D03*
%TO.P,J_PCA,11*%
%TO.N,PWM_CH8*%
X72760000Y-24000000D03*
%TO.P,J_PCA,12*%
%TO.N,PWM_CH9*%
X70220000Y-24000000D03*
%TO.P,J_PCA,13*%
%TO.N,PWM_CH10*%
X67680000Y-24000000D03*
%TO.P,J_PCA,14*%
%TO.N,PWM_CH11*%
X65140000Y-24000000D03*
%TO.P,J_PCA,15*%
%TO.N,N/C*%
X62600000Y-24000000D03*
%TO.P,J_PCA,16*%
%TO.N,PWM_CH12*%
X60060000Y-24000000D03*
%TO.P,J_PCA,17*%
%TO.N,PWM_CH13*%
X57520000Y-24000000D03*
%TO.P,J_PCA,18*%
%TO.N,PWM_CH14*%
X54980000Y-24000000D03*
%TO.P,J_PCA,19*%
%TO.N,PWM_CH15*%
X52440000Y-24000000D03*
%TD*%
D10*
%TO.P,F1,1*%
%TO.N,+12V*%
X83185000Y-43900000D03*
%TO.P,F1,2*%
%TO.N,SV1_PWR*%
X105385000Y-43900000D03*
%TD*%
%TO.P,F10,1*%
%TO.N,+5V_SERVO*%
X46685000Y-111900000D03*
%TO.P,F10,2*%
%TO.N,SV10_PWR*%
X68885000Y-111900000D03*
%TD*%
D14*
%TO.N,SV6_PWR*%
X50169700Y-62259000D03*
%TO.N,PWM_CH1*%
X66006900Y-30807700D03*
%TO.N,PWM_CH0*%
X62103200Y-33785900D03*
%TO.N,PWM_CH11*%
X71319600Y-112454200D03*
X68815900Y-27675900D03*
%TO.N,PWM_CH2*%
X89456800Y-25415800D03*
%TO.N,PWM_CH9*%
X92522100Y-26715000D03*
%TO.N,PWM_CH6*%
X72251300Y-25542700D03*
%TO.N,SV7_PWR*%
X59448100Y-60900000D03*
%TO.N,PWM_CH8*%
X73913500Y-124461000D03*
%TO.N,+5V_SERVO*%
X72012000Y-78994300D03*
%TO.N,+7V4*%
X80392500Y-70258100D03*
%TD*%
%TO.N,+12V*%
D15*
X114903100Y-123051900D02*
X113869100Y-122017900D01*
D16*
X119000000Y-123051900D02*
X119000000Y-120500000D01*
D15*
X122900000Y-54000000D02*
X122900000Y-59000000D01*
X119000000Y-123051900D02*
X114903100Y-123051900D01*
X46685000Y-60900000D02*
X46685000Y-43900000D01*
X113869100Y-122017900D02*
X113869100Y-68030900D01*
X122900000Y-47000000D02*
X122900000Y-54000000D01*
X122900000Y-42000000D02*
X122900000Y-47000000D01*
X83185000Y-43900000D02*
X83185000Y-60900000D01*
X113869100Y-68030900D02*
X122900000Y-59000000D01*
%TO.N,PWM_CH3*%
D17*
X90540000Y-24000000D02*
X90540000Y-122368300D01*
X91220000Y-124300000D02*
X91220000Y-123048300D01*
X90540000Y-122368300D02*
X91220000Y-123048300D01*
%TO.N,SV4_PWR*%
D18*
X93760000Y-106525000D02*
X105385000Y-94900000D01*
X93760000Y-124300000D02*
X93760000Y-106525000D01*
%TO.N,GND*%
D16*
X54833100Y-124833100D02*
X54300000Y-124300000D01*
X54574500Y-131965500D02*
X54040000Y-132500000D01*
X82300000Y-132500000D02*
X82300000Y-124300000D01*
D15*
X68051900Y-132500000D02*
X68300000Y-132500000D01*
D16*
X110310000Y-124290000D02*
X110300000Y-124300000D01*
X82051900Y-132500000D02*
X82040000Y-132500000D01*
X96300000Y-132500000D02*
X96300000Y-124300000D01*
D15*
X122900000Y-95000000D02*
X122900000Y-102000000D01*
D16*
X68051900Y-132500000D02*
X68040000Y-132500000D01*
D15*
X54833100Y-124833100D02*
X54833100Y-131706900D01*
X110310000Y-123357900D02*
X110442200Y-123357900D01*
X96051900Y-132500000D02*
X96300000Y-132500000D01*
X110574500Y-123490200D02*
X110574500Y-131965500D01*
D16*
X96051900Y-132500000D02*
X96040000Y-132500000D01*
D15*
X122900000Y-102000000D02*
X122900000Y-107000000D01*
D16*
X68300000Y-132500000D02*
X68300000Y-124300000D01*
X110574500Y-131965500D02*
X110040000Y-132500000D01*
D15*
X54833100Y-131706900D02*
X54574500Y-131965500D01*
X82051900Y-132500000D02*
X82300000Y-132500000D01*
D16*
X110310000Y-123357900D02*
X110310000Y-124290000D01*
D15*
X110442200Y-123357900D02*
X110574500Y-123490200D01*
X122900000Y-90000000D02*
X122900000Y-95000000D01*
%TO.N,TACH*%
D17*
X121540000Y-117960000D02*
X121540000Y-120500000D01*
%TO.N,PWM_CH12*%
X124080000Y-120500000D02*
X124080000Y-117960000D01*
%TO.N,SV6_PWR*%
D19*
X44059100Y-68369600D02*
X44059100Y-131022300D01*
X50169700Y-62259000D02*
X44059100Y-68369600D01*
X47588500Y-134551700D02*
X50326000Y-134551700D01*
X50326000Y-134551700D02*
X51500000Y-133377700D01*
X44059100Y-131022300D02*
X47588500Y-134551700D01*
X51500000Y-133377700D02*
X51500000Y-132500000D01*
%TO.N,PWM_CH1*%
D17*
X63220000Y-124300000D02*
X63220000Y-123048300D01*
X63871500Y-122396800D02*
X63871500Y-32943100D01*
X63220000Y-123048300D02*
X63871500Y-122396800D01*
X63871500Y-32943100D02*
X66006900Y-30807700D01*
%TO.N,PWM_CH5*%
X51574700Y-43042300D02*
X51574700Y-115324800D01*
X51574700Y-115324800D02*
X47968300Y-118931200D01*
X72226300Y-22718600D02*
X71490000Y-23454900D01*
X47968300Y-118931200D02*
X47968300Y-130256600D01*
X71490000Y-24532900D02*
X70093100Y-25929800D01*
X81638600Y-22718600D02*
X72226300Y-22718600D01*
X71490000Y-23454900D02*
X71490000Y-24532900D01*
X82920000Y-24000000D02*
X81638600Y-22718600D01*
X48960000Y-132500000D02*
X48960000Y-131248300D01*
X68687200Y-25929800D02*
X51574700Y-43042300D01*
X47968300Y-130256600D02*
X48960000Y-131248300D01*
X70093100Y-25929800D02*
X68687200Y-25929800D01*
%TO.N,SDA*%
X37000000Y-73180000D02*
X37000000Y-70640000D01*
X37000000Y-75720000D02*
X37000000Y-73180000D01*
X25000000Y-64400000D02*
X25000000Y-69400000D01*
X37000000Y-70640000D02*
X37000000Y-68100000D01*
%TO.N,+3V3*%
D20*
X37000000Y-82640000D02*
X37000000Y-80100000D01*
X37000000Y-85180000D02*
X37000000Y-82640000D01*
X37000000Y-87720000D02*
X37000000Y-85180000D01*
X25000000Y-76400000D02*
X25000000Y-81400000D01*
%TO.N,PWM_CH0*%
D17*
X56519800Y-39369300D02*
X62103200Y-33785900D01*
X49220000Y-123048300D02*
X56519800Y-115748500D01*
X49220000Y-124300000D02*
X49220000Y-123048300D01*
X56519800Y-115748500D02*
X56519800Y-39369300D01*
%TO.N,PWM_CH11*%
X66479500Y-104086800D02*
X66479500Y-31327400D01*
X71319600Y-112454200D02*
X71319600Y-108926900D01*
X71319600Y-108926900D02*
X66479500Y-104086800D01*
X66479500Y-31327400D02*
X68815900Y-28991000D01*
X68815900Y-28991000D02*
X68815900Y-27675900D01*
%TO.N,PWM_CH2*%
X77220000Y-123048300D02*
X89456800Y-110811500D01*
X89456800Y-110811500D02*
X89456800Y-25415800D01*
X77220000Y-124300000D02*
X77220000Y-123048300D01*
%TO.N,+5V_LOGIC*%
D20*
X37000000Y-94640000D02*
X37000000Y-92100000D01*
X37000000Y-97180000D02*
X37000000Y-94640000D01*
X37000000Y-99720000D02*
X37000000Y-97180000D01*
X25000000Y-88400000D02*
X25000000Y-93400000D01*
%TO.N,GND_LOGIC*%
X25000000Y-100400000D02*
X25000000Y-105400000D01*
X37000000Y-111720000D02*
X37000000Y-109180000D01*
X37000000Y-109180000D02*
X37000000Y-106640000D01*
X37000000Y-106640000D02*
X37000000Y-104100000D01*
%TO.N,PWM_CH9*%
D17*
X92522100Y-26715000D02*
X92522100Y-78964900D01*
X92522100Y-78964900D02*
X107192800Y-93635600D01*
X107192800Y-93635600D02*
X107192800Y-104581100D01*
X102971000Y-129259300D02*
X104960000Y-131248300D01*
X107192800Y-104581100D02*
X102971000Y-108802900D01*
X102971000Y-108802900D02*
X102971000Y-129259300D01*
X104960000Y-132500000D02*
X104960000Y-131248300D01*
%TO.N,PWM_CH6*%
X61931200Y-34987000D02*
X62863500Y-34054700D01*
X62803600Y-32664200D02*
X68936300Y-26531500D01*
X62803600Y-33494000D02*
X62803600Y-32664200D01*
X61931200Y-130219500D02*
X61931200Y-34987000D01*
X68936300Y-26531500D02*
X71262500Y-26531500D01*
X62863500Y-33553900D02*
X62803600Y-33494000D01*
X71262500Y-26531500D02*
X72251300Y-25542700D01*
X62960000Y-131248300D02*
X61931200Y-130219500D01*
X62863500Y-34054700D02*
X62863500Y-33553900D01*
X62960000Y-132500000D02*
X62960000Y-131248300D01*
%TO.N,SV7_PWR*%
D19*
X65008700Y-134551700D02*
X61532800Y-134551700D01*
X59448100Y-132467000D02*
X59448100Y-60900000D01*
D16*
X65010200Y-132989800D02*
X65500000Y-132500000D01*
D19*
X61532800Y-134551700D02*
X59448100Y-132467000D01*
D16*
X65010200Y-134550200D02*
X65010200Y-132989800D01*
D19*
X65010200Y-134550200D02*
X65008700Y-134551700D01*
%TO.N,PWM_CH8*%
D17*
X73913500Y-124461000D02*
X73913500Y-85549000D01*
X67081200Y-33158100D02*
X72953000Y-27286300D01*
X67081200Y-78716700D02*
X67081200Y-33158100D01*
X73913500Y-85549000D02*
X67081200Y-78716700D01*
X72953000Y-27286300D02*
X72953000Y-24193000D01*
X72953000Y-24193000D02*
X72760000Y-24000000D01*
%TO.N,SV9_PWR*%
D18*
X93500000Y-132500000D02*
X93500000Y-132286600D01*
X72321300Y-98336300D02*
X68885000Y-94900000D01*
X84003200Y-135783400D02*
X75142200Y-135783400D01*
X93500000Y-132286600D02*
X92093700Y-130880300D01*
X92093700Y-130880300D02*
X88906300Y-130880300D01*
X88906300Y-130880300D02*
X84003200Y-135783400D01*
X75142200Y-135783400D02*
X72321300Y-132962500D01*
X72321300Y-132962500D02*
X72321300Y-98336300D01*
%TO.N,PWM_CH4*%
D17*
X107794500Y-90510100D02*
X107794500Y-106322000D01*
X91029500Y-22707100D02*
X91810000Y-23487600D01*
X105220000Y-124300000D02*
X105220000Y-123048300D01*
X107794500Y-106322000D02*
X103572700Y-110543800D01*
X86752900Y-22707100D02*
X91029500Y-22707100D01*
X94978900Y-77694500D02*
X107794500Y-90510100D01*
X85460000Y-24000000D02*
X86752900Y-22707100D01*
X94978900Y-27806800D02*
X94978900Y-77694500D01*
X91810000Y-23487600D02*
X91810000Y-24637900D01*
X103572700Y-110543800D02*
X103572700Y-121401000D01*
X103572700Y-121401000D02*
X105220000Y-123048300D01*
X91810000Y-24637900D02*
X94978900Y-27806800D01*
%TO.N,SV5_PWR*%
D18*
X107760000Y-114275000D02*
X105385000Y-111900000D01*
X107760000Y-124300000D02*
X107760000Y-114275000D01*
%TO.N,SV8_PWR*%
D21*
X75165200Y-124979500D02*
X75165200Y-106245700D01*
X78260900Y-134301700D02*
X75715700Y-134301700D01*
X75715700Y-134301700D02*
X75127100Y-133713100D01*
X72718500Y-77229700D02*
X69555300Y-77229700D01*
X79500000Y-132500000D02*
X79500000Y-133062600D01*
X75165200Y-106245700D02*
X85536700Y-95874200D01*
X75127100Y-133713100D02*
X75127100Y-125017600D01*
X79500000Y-133062600D02*
X78260900Y-134301700D01*
X85536700Y-90047900D02*
X72718500Y-77229700D01*
X85536700Y-95874200D02*
X85536700Y-90047900D01*
X69555300Y-77229700D02*
X68885000Y-77900000D01*
X75127100Y-125017600D02*
X75165200Y-124979500D01*
%TO.N,SCL*%
D17*
X37000000Y-58640000D02*
X37000000Y-56100000D01*
X37000000Y-63720000D02*
X37000000Y-61180000D01*
X25000000Y-52400000D02*
X25000000Y-57400000D01*
X37000000Y-61180000D02*
X37000000Y-58640000D01*
%TO.N,+5V_SERVO*%
D21*
X83185000Y-94900000D02*
X83185000Y-90167300D01*
X122900000Y-78000000D02*
X122900000Y-83000000D01*
X83185000Y-90167300D02*
X72012000Y-78994300D01*
X46685000Y-111900000D02*
X46685000Y-94900000D01*
%TO.N,+7V4*%
D19*
X83185000Y-73050600D02*
X83185000Y-77900000D01*
X122900000Y-66000000D02*
X122900000Y-71000000D01*
X80392500Y-70258100D02*
X83185000Y-73050600D01*
%TD*%
%TA.AperFunction,Conductor*%
%TO.N,+12V*%
G36*
X134279472Y-5108710D02*
G01*
X134691398Y-5256098D01*
X134704886Y-5261685D01*
X135108545Y-5452603D01*
X135121425Y-5459487D01*
X135366305Y-5606261D01*
X135504419Y-5689043D01*
X135516577Y-5697167D01*
X135875222Y-5963156D01*
X135886512Y-5972421D01*
X136217377Y-6272300D01*
X136227706Y-6282630D01*
X136527565Y-6613473D01*
X136536840Y-6624775D01*
X136559256Y-6654999D01*
X136802824Y-6983412D01*
X136810948Y-6995570D01*
X137040506Y-7378565D01*
X137047398Y-7391460D01*
X137238307Y-7795100D01*
X137243903Y-7808610D01*
X137391290Y-8220531D01*
X137400000Y-8270727D01*
X137400000Y-148829270D01*
X137391290Y-148879466D01*
X137243903Y-149291387D01*
X137238307Y-149304897D01*
X137047398Y-149708537D01*
X137040506Y-149721432D01*
X136810948Y-150104427D01*
X136802824Y-150116585D01*
X136536841Y-150475221D01*
X136527565Y-150486524D01*
X136227706Y-150817367D01*
X136217367Y-150827707D01*
X135886526Y-151127565D01*
X135875222Y-151136841D01*
X135516577Y-151402830D01*
X135504419Y-151410954D01*
X135121433Y-151640506D01*
X135108538Y-151647398D01*
X134704897Y-151838307D01*
X134691387Y-151843903D01*
X134279467Y-151991290D01*
X134229271Y-152000000D01*
X77999000Y-152000000D01*
X77924500Y-151980038D01*
X77869962Y-151925500D01*
X77850000Y-151851000D01*
X77850000Y-140378706D01*
X97449500Y-140378706D01*
X97449500Y-140621293D01*
X97481160Y-140861781D01*
X97481161Y-140861787D01*
X97481162Y-140861789D01*
X97543946Y-141096100D01*
X97636776Y-141320212D01*
X97758064Y-141530289D01*
X97905735Y-141722738D01*
X98077262Y-141894265D01*
X98269711Y-142041936D01*
X98479788Y-142163224D01*
X98703900Y-142256054D01*
X98938211Y-142318838D01*
X98938217Y-142318838D01*
X98938218Y-142318839D01*
X99003600Y-142327446D01*
X99178712Y-142350500D01*
X99421288Y-142350500D01*
X99661789Y-142318838D01*
X99896100Y-142256054D01*
X100120212Y-142163224D01*
X100330289Y-142041936D01*
X100522738Y-141894265D01*
X100694265Y-141722738D01*
X100841936Y-141530289D01*
X100963224Y-141320212D01*
X101056054Y-141096100D01*
X101118838Y-140861789D01*
X101150500Y-140621288D01*
X101150500Y-140378712D01*
X101118838Y-140138211D01*
X101056054Y-139903900D01*
X100963224Y-139679788D01*
X100841936Y-139469711D01*
X100694265Y-139277262D01*
X100522738Y-139105735D01*
X100330289Y-138958064D01*
X100260263Y-138917634D01*
X100120216Y-138836778D01*
X100120214Y-138836777D01*
X100120212Y-138836776D01*
X99988932Y-138782398D01*
X99896103Y-138743947D01*
X99896101Y-138743946D01*
X99896100Y-138743946D01*
X99661789Y-138681162D01*
X99661787Y-138681161D01*
X99661781Y-138681160D01*
X99421293Y-138649500D01*
X99421288Y-138649500D01*
X99178712Y-138649500D01*
X99178706Y-138649500D01*
X98938218Y-138681160D01*
X98703896Y-138743947D01*
X98479783Y-138836778D01*
X98269712Y-138958063D01*
X98269711Y-138958064D01*
X98077262Y-139105735D01*
X98077260Y-139105736D01*
X98077256Y-139105740D01*
X97905740Y-139277256D01*
X97758063Y-139469712D01*
X97636778Y-139679783D01*
X97543947Y-139903896D01*
X97481160Y-140138218D01*
X97449500Y-140378706D01*
X77850000Y-140378706D01*
X77850000Y-136932900D01*
X77869962Y-136858400D01*
X77924500Y-136803862D01*
X77999000Y-136783900D01*
X84101737Y-136783900D01*
X84101740Y-136783900D01*
X84101741Y-136783900D01*
X84198388Y-136764675D01*
X84295036Y-136745451D01*
X84348365Y-136723361D01*
X84477114Y-136670032D01*
X84640982Y-136560539D01*
X84780339Y-136421182D01*
X84780339Y-136421180D01*
X84792601Y-136408919D01*
X84792604Y-136408914D01*
X89277080Y-131924441D01*
X89343875Y-131885877D01*
X89382439Y-131880800D01*
X89460500Y-131880800D01*
X89535000Y-131900762D01*
X89589538Y-131955300D01*
X89609500Y-132029800D01*
X89609500Y-133397863D01*
X89609502Y-133397888D01*
X89615908Y-133457478D01*
X89615909Y-133457484D01*
X89666202Y-133592329D01*
X89666204Y-133592333D01*
X89752452Y-133707544D01*
X89752455Y-133707547D01*
X89867666Y-133793795D01*
X89867670Y-133793797D01*
X90002517Y-133844091D01*
X90062114Y-133850499D01*
X90062118Y-133850499D01*
X90062127Y-133850500D01*
X91857872Y-133850499D01*
X91917483Y-133844091D01*
X92013447Y-133808298D01*
X92052329Y-133793797D01*
X92052333Y-133793795D01*
X92109938Y-133750671D01*
X92167546Y-133707546D01*
X92215893Y-133642963D01*
X92253795Y-133592333D01*
X92253798Y-133592327D01*
X92289215Y-133497367D01*
X92333953Y-133434540D01*
X92404110Y-133402498D01*
X92480889Y-133409829D01*
X92534180Y-133444076D01*
X92620208Y-133530104D01*
X92792184Y-133655051D01*
X92981588Y-133751557D01*
X93183757Y-133817246D01*
X93393713Y-133850500D01*
X93393718Y-133850500D01*
X93606282Y-133850500D01*
X93606287Y-133850500D01*
X93816243Y-133817246D01*
X94018412Y-133751557D01*
X94207816Y-133655051D01*
X94224454Y-133642963D01*
X94296459Y-133615321D01*
X94372638Y-133627386D01*
X94430245Y-133672799D01*
X94544615Y-133821847D01*
X94544616Y-133821849D01*
X94730051Y-134007284D01*
X94938093Y-134166921D01*
X94938097Y-134166924D01*
X95165203Y-134298043D01*
X95369709Y-134382752D01*
X95407483Y-134398399D01*
X95495232Y-134421910D01*
X95660784Y-134466270D01*
X95660790Y-134466270D01*
X95660791Y-134466271D01*
X95697734Y-134471134D01*
X95920777Y-134500499D01*
X95920778Y-134500500D01*
X95920780Y-134500500D01*
X96431122Y-134500500D01*
X96431122Y-134500499D01*
X96691108Y-134466271D01*
X96691110Y-134466271D01*
X96691111Y-134466270D01*
X96691116Y-134466270D01*
X96944415Y-134398399D01*
X96944416Y-134398399D01*
X96944417Y-134398398D01*
X96944419Y-134398398D01*
X97186697Y-134298043D01*
X97413803Y-134166924D01*
X97621848Y-134007284D01*
X97621849Y-134007284D01*
X97807284Y-133821849D01*
X97807284Y-133821848D01*
X97810816Y-133817246D01*
X97966924Y-133613803D01*
X98098043Y-133386697D01*
X98198398Y-133144419D01*
X98266270Y-132891116D01*
X98300500Y-132631120D01*
X98300500Y-132368880D01*
X98266270Y-132108884D01*
X98206516Y-131885877D01*
X98198399Y-131855584D01*
X98198399Y-131855583D01*
X98125929Y-131680626D01*
X98098043Y-131613303D01*
X97966924Y-131386197D01*
X97966921Y-131386193D01*
X97966921Y-131386192D01*
X97807284Y-131178151D01*
X97694041Y-131064908D01*
X97655477Y-130998113D01*
X97650400Y-130959549D01*
X97650400Y-124413414D01*
X97650500Y-124410869D01*
X97650500Y-124193717D01*
X97650500Y-124193713D01*
X97617246Y-123983757D01*
X97551557Y-123781588D01*
X97455051Y-123592184D01*
X97330104Y-123420208D01*
X97179792Y-123269896D01*
X97007816Y-123144949D01*
X96818412Y-123048443D01*
X96616243Y-122982754D01*
X96406287Y-122949500D01*
X96193713Y-122949500D01*
X96018749Y-122977211D01*
X95983756Y-122982754D01*
X95781594Y-123048441D01*
X95781588Y-123048443D01*
X95781582Y-123048445D01*
X95781582Y-123048446D01*
X95592182Y-123144950D01*
X95592181Y-123144950D01*
X95420209Y-123269895D01*
X95420206Y-123269897D01*
X95269897Y-123420206D01*
X95269895Y-123420209D01*
X95150544Y-123584482D01*
X95090604Y-123633020D01*
X95014425Y-123645086D01*
X94942420Y-123617446D01*
X94909456Y-123584482D01*
X94788956Y-123418628D01*
X94761316Y-123346623D01*
X94760500Y-123331048D01*
X94760500Y-107001138D01*
X94780462Y-106926638D01*
X94804141Y-106895779D01*
X99831040Y-101868880D01*
X104889463Y-96810456D01*
X104956256Y-96771894D01*
X105014268Y-96768092D01*
X105165384Y-96787986D01*
X105260435Y-96800500D01*
X105509565Y-96800500D01*
X105756565Y-96767982D01*
X105997207Y-96703502D01*
X106227373Y-96608164D01*
X106268799Y-96584247D01*
X106343299Y-96564284D01*
X106417799Y-96584246D01*
X106472337Y-96638783D01*
X106492300Y-96713283D01*
X106492300Y-104229225D01*
X106472338Y-104303725D01*
X106448659Y-104334584D01*
X102426886Y-108356356D01*
X102426879Y-108356364D01*
X102351409Y-108469316D01*
X102351401Y-108469329D01*
X102350228Y-108471083D01*
X102350221Y-108471096D01*
X102297420Y-108598570D01*
X102297419Y-108598574D01*
X102270500Y-108733906D01*
X102270500Y-129328297D01*
X102297419Y-129463627D01*
X102297420Y-129463629D01*
X102350220Y-129591102D01*
X102350223Y-129591108D01*
X102350225Y-129591111D01*
X102426886Y-129705843D01*
X102426889Y-129705846D01*
X103780150Y-131059107D01*
X103818714Y-131125902D01*
X103818714Y-131203030D01*
X103780150Y-131269825D01*
X103764090Y-131283742D01*
X103752455Y-131292452D01*
X103752452Y-131292455D01*
X103666204Y-131407666D01*
X103666202Y-131407670D01*
X103615908Y-131542517D01*
X103609500Y-131602114D01*
X103609500Y-133397863D01*
X103609502Y-133397888D01*
X103615908Y-133457478D01*
X103615909Y-133457484D01*
X103666202Y-133592329D01*
X103666204Y-133592333D01*
X103752452Y-133707544D01*
X103752455Y-133707547D01*
X103867666Y-133793795D01*
X103867670Y-133793797D01*
X104002517Y-133844091D01*
X104062114Y-133850499D01*
X104062118Y-133850499D01*
X104062127Y-133850500D01*
X105857872Y-133850499D01*
X105917483Y-133844091D01*
X106013447Y-133808298D01*
X106052329Y-133793797D01*
X106052333Y-133793795D01*
X106109938Y-133750671D01*
X106167546Y-133707546D01*
X106215893Y-133642963D01*
X106253795Y-133592333D01*
X106253798Y-133592327D01*
X106289215Y-133497367D01*
X106333953Y-133434540D01*
X106404110Y-133402498D01*
X106480889Y-133409829D01*
X106534180Y-133444076D01*
X106620208Y-133530104D01*
X106792184Y-133655051D01*
X106981588Y-133751557D01*
X107183757Y-133817246D01*
X107393713Y-133850500D01*
X107393718Y-133850500D01*
X107606282Y-133850500D01*
X107606287Y-133850500D01*
X107816243Y-133817246D01*
X108018412Y-133751557D01*
X108207816Y-133655051D01*
X108379792Y-133530104D01*
X108530104Y-133379792D01*
X108649456Y-133215517D01*
X108709396Y-133166979D01*
X108785574Y-133154913D01*
X108857580Y-133182553D01*
X108890544Y-133215517D01*
X109009896Y-133379792D01*
X109160208Y-133530104D01*
X109332184Y-133655051D01*
X109521588Y-133751557D01*
X109723757Y-133817246D01*
X109858047Y-133838515D01*
X109891753Y-133848021D01*
X109930081Y-133863898D01*
X110183384Y-133931770D01*
X110443377Y-133965999D01*
X110443378Y-133966000D01*
X110443380Y-133966000D01*
X110705622Y-133966000D01*
X110705622Y-133965999D01*
X110965608Y-133931771D01*
X110965610Y-133931771D01*
X110965611Y-133931770D01*
X110965616Y-133931770D01*
X111218915Y-133863899D01*
X111218916Y-133863899D01*
X111218917Y-133863898D01*
X111218919Y-133863898D01*
X111461197Y-133763543D01*
X111688303Y-133632424D01*
X111896348Y-133472784D01*
X111896349Y-133472784D01*
X112081784Y-133287349D01*
X112081784Y-133287348D01*
X112124120Y-133232176D01*
X112241424Y-133079303D01*
X112372543Y-132852197D01*
X112472898Y-132609919D01*
X112540770Y-132356616D01*
X112575000Y-132096620D01*
X112575000Y-131602114D01*
X115109500Y-131602114D01*
X115109500Y-133397863D01*
X115109502Y-133397888D01*
X115115908Y-133457478D01*
X115115909Y-133457484D01*
X115166202Y-133592329D01*
X115166204Y-133592333D01*
X115252452Y-133707544D01*
X115252455Y-133707547D01*
X115367666Y-133793795D01*
X115367670Y-133793797D01*
X115502517Y-133844091D01*
X115562114Y-133850499D01*
X115562118Y-133850499D01*
X115562127Y-133850500D01*
X117357872Y-133850499D01*
X117417483Y-133844091D01*
X117513447Y-133808298D01*
X117552329Y-133793797D01*
X117552333Y-133793795D01*
X117609938Y-133750671D01*
X117667546Y-133707546D01*
X117715893Y-133642963D01*
X117753795Y-133592333D01*
X117753798Y-133592327D01*
X117789215Y-133497367D01*
X117833953Y-133434540D01*
X117904110Y-133402498D01*
X117980889Y-133409829D01*
X118034180Y-133444076D01*
X118120208Y-133530104D01*
X118292184Y-133655051D01*
X118481588Y-133751557D01*
X118683757Y-133817246D01*
X118893713Y-133850500D01*
X118893718Y-133850500D01*
X119106282Y-133850500D01*
X119106287Y-133850500D01*
X119316243Y-133817246D01*
X119518412Y-133751557D01*
X119707816Y-133655051D01*
X119879792Y-133530104D01*
X120030104Y-133379792D01*
X120149456Y-133215517D01*
X120209396Y-133166979D01*
X120285574Y-133154913D01*
X120357580Y-133182553D01*
X120390544Y-133215517D01*
X120509896Y-133379792D01*
X120660208Y-133530104D01*
X120832184Y-133655051D01*
X121021588Y-133751557D01*
X121223757Y-133817246D01*
X121433713Y-133850500D01*
X121433718Y-133850500D01*
X121646282Y-133850500D01*
X121646287Y-133850500D01*
X121856243Y-133817246D01*
X122058412Y-133751557D01*
X122247816Y-133655051D01*
X122419792Y-133530104D01*
X122570104Y-133379792D01*
X122695051Y-133207816D01*
X122791557Y-133018412D01*
X122857246Y-132816243D01*
X122890500Y-132606287D01*
X122890500Y-132393713D01*
X122857246Y-132183757D01*
X122791557Y-131981588D01*
X122695051Y-131792184D01*
X122570104Y-131620208D01*
X122419792Y-131469896D01*
X122247816Y-131344949D01*
X122058412Y-131248443D01*
X121856243Y-131182754D01*
X121646287Y-131149500D01*
X121433713Y-131149500D01*
X121258749Y-131177211D01*
X121223756Y-131182754D01*
X121021594Y-131248441D01*
X121021588Y-131248443D01*
X121021582Y-131248445D01*
X121021582Y-131248446D01*
X120832182Y-131344950D01*
X120832181Y-131344950D01*
X120660209Y-131469895D01*
X120660206Y-131469897D01*
X120509897Y-131620206D01*
X120509895Y-131620209D01*
X120390544Y-131784482D01*
X120330604Y-131833020D01*
X120254425Y-131845086D01*
X120182420Y-131817446D01*
X120149456Y-131784482D01*
X120074000Y-131680626D01*
X120030104Y-131620208D01*
X119879792Y-131469896D01*
X119707816Y-131344949D01*
X119518412Y-131248443D01*
X119316243Y-131182754D01*
X119106287Y-131149500D01*
X118893713Y-131149500D01*
X118718749Y-131177211D01*
X118683756Y-131182754D01*
X118481594Y-131248441D01*
X118481588Y-131248443D01*
X118481582Y-131248445D01*
X118481582Y-131248446D01*
X118292182Y-131344950D01*
X118292181Y-131344950D01*
X118120209Y-131469895D01*
X118120198Y-131469904D01*
X118034179Y-131555923D01*
X117967384Y-131594487D01*
X117890256Y-131594487D01*
X117823462Y-131555922D01*
X117789215Y-131502633D01*
X117777008Y-131469904D01*
X117753796Y-131407669D01*
X117753795Y-131407668D01*
X117753795Y-131407666D01*
X117667547Y-131292455D01*
X117667544Y-131292452D01*
X117552333Y-131206204D01*
X117552329Y-131206202D01*
X117417482Y-131155908D01*
X117357876Y-131149500D01*
X115562136Y-131149500D01*
X115562111Y-131149502D01*
X115502521Y-131155908D01*
X115502515Y-131155909D01*
X115367670Y-131206202D01*
X115367666Y-131206204D01*
X115252455Y-131292452D01*
X115252452Y-131292455D01*
X115166204Y-131407666D01*
X115166202Y-131407670D01*
X115115908Y-131542517D01*
X115109500Y-131602114D01*
X112575000Y-131602114D01*
X112575000Y-123359080D01*
X112546820Y-123145034D01*
X112540771Y-123099084D01*
X112472898Y-122845781D01*
X112472896Y-122845776D01*
X112472895Y-122845772D01*
X112372543Y-122603504D01*
X112372543Y-122603503D01*
X112354717Y-122572628D01*
X112307276Y-122490457D01*
X112241426Y-122376400D01*
X112241421Y-122376392D01*
X112139906Y-122244097D01*
X112139904Y-122244095D01*
X112081783Y-122168348D01*
X111764051Y-121850617D01*
X111634953Y-121751557D01*
X111634948Y-121751553D01*
X111556006Y-121690978D01*
X111328901Y-121559859D01*
X111328899Y-121559858D01*
X111328897Y-121559857D01*
X111245765Y-121525422D01*
X111086623Y-121459503D01*
X111085306Y-121459150D01*
X111079084Y-121457483D01*
X111079079Y-121457481D01*
X110877216Y-121403392D01*
X110833316Y-121391629D01*
X110833314Y-121391628D01*
X110833308Y-121391627D01*
X110703319Y-121374515D01*
X110703318Y-121374514D01*
X110703318Y-121374515D01*
X110573323Y-121357400D01*
X110573320Y-121357400D01*
X110178880Y-121357400D01*
X110178876Y-121357400D01*
X109918892Y-121391628D01*
X109918889Y-121391628D01*
X109665584Y-121459500D01*
X109665583Y-121459500D01*
X109423298Y-121559859D01*
X109196198Y-121690975D01*
X109000206Y-121841366D01*
X108928949Y-121870881D01*
X108852480Y-121860814D01*
X108791290Y-121813862D01*
X108761775Y-121742605D01*
X108760500Y-121723156D01*
X108760500Y-117853713D01*
X115109500Y-117853713D01*
X115109500Y-118066287D01*
X115142754Y-118276243D01*
X115208443Y-118478412D01*
X115208446Y-118478417D01*
X115304950Y-118667817D01*
X115304950Y-118667818D01*
X115429895Y-118839790D01*
X115429897Y-118839793D01*
X115515923Y-118925819D01*
X115554487Y-118992614D01*
X115554487Y-119069742D01*
X115515923Y-119136537D01*
X115462634Y-119170784D01*
X115367668Y-119206203D01*
X115367666Y-119206204D01*
X115252455Y-119292452D01*
X115252452Y-119292455D01*
X115166204Y-119407666D01*
X115166202Y-119407670D01*
X115115908Y-119542517D01*
X115109500Y-119602114D01*
X115109500Y-121397863D01*
X115109502Y-121397888D01*
X115115908Y-121457478D01*
X115115909Y-121457483D01*
X115127438Y-121488394D01*
X115166202Y-121592329D01*
X115166204Y-121592333D01*
X115252452Y-121707544D01*
X115252455Y-121707547D01*
X115367666Y-121793795D01*
X115367670Y-121793797D01*
X115502517Y-121844091D01*
X115562114Y-121850499D01*
X115562118Y-121850499D01*
X115562127Y-121850500D01*
X117357872Y-121850499D01*
X117417483Y-121844091D01*
X117513447Y-121808298D01*
X117552329Y-121793797D01*
X117552333Y-121793795D01*
X117620713Y-121742605D01*
X117667546Y-121707546D01*
X117677192Y-121694660D01*
X118371024Y-121694660D01*
X118481782Y-121751094D01*
X118481787Y-121751096D01*
X118683871Y-121816757D01*
X118893758Y-121850000D01*
X119106242Y-121850000D01*
X119316128Y-121816757D01*
X119518212Y-121751096D01*
X119518222Y-121751092D01*
X119628974Y-121694660D01*
X119628975Y-121694660D01*
X119000000Y-121065685D01*
X118371024Y-121694660D01*
X117677192Y-121694660D01*
X117753796Y-121592331D01*
X117753799Y-121592324D01*
X117754324Y-121590917D01*
X117754325Y-121590915D01*
X117789118Y-121497627D01*
X117804091Y-121457483D01*
X117805823Y-121441370D01*
X117810499Y-121397885D01*
X117810499Y-121397882D01*
X117810500Y-121397873D01*
X117810499Y-121185529D01*
X117830461Y-121111033D01*
X117854140Y-121080173D01*
X118434314Y-120499999D01*
X118368489Y-120434174D01*
X118500000Y-120434174D01*
X118500000Y-120565826D01*
X118534075Y-120692993D01*
X118599901Y-120807007D01*
X118692993Y-120900099D01*
X118807007Y-120965925D01*
X118934174Y-121000000D01*
X119065826Y-121000000D01*
X119192993Y-120965925D01*
X119307007Y-120900099D01*
X119400099Y-120807007D01*
X119465925Y-120692993D01*
X119500000Y-120565826D01*
X119500000Y-120434174D01*
X119465925Y-120307007D01*
X119400099Y-120192993D01*
X119307007Y-120099901D01*
X119192993Y-120034075D01*
X119065826Y-120000000D01*
X118934174Y-120000000D01*
X118807007Y-120034075D01*
X118692993Y-120099901D01*
X118599901Y-120192993D01*
X118534075Y-120307007D01*
X118500000Y-120434174D01*
X118368489Y-120434174D01*
X117854140Y-119919825D01*
X117815576Y-119853030D01*
X117810499Y-119814466D01*
X117810499Y-119602136D01*
X117810499Y-119602128D01*
X117804091Y-119542517D01*
X117777002Y-119469888D01*
X117753797Y-119407670D01*
X117753795Y-119407666D01*
X117667547Y-119292455D01*
X117667544Y-119292452D01*
X117552333Y-119206204D01*
X117552329Y-119206202D01*
X117457366Y-119170784D01*
X117394539Y-119126046D01*
X117362498Y-119055888D01*
X117369829Y-118979109D01*
X117404077Y-118925819D01*
X117490096Y-118839800D01*
X117490104Y-118839792D01*
X117609456Y-118675517D01*
X117669396Y-118626979D01*
X117745574Y-118614913D01*
X117817580Y-118642553D01*
X117850544Y-118675517D01*
X117969896Y-118839792D01*
X118120208Y-118990104D01*
X118292184Y-119115051D01*
X118296569Y-119117285D01*
X118353886Y-119168894D01*
X118377720Y-119242248D01*
X118376090Y-119273353D01*
X118371024Y-119305338D01*
X118999999Y-119934314D01*
X119628974Y-119305339D01*
X119623909Y-119273355D01*
X119631970Y-119196649D01*
X119677305Y-119134251D01*
X119703435Y-119117283D01*
X119707816Y-119115051D01*
X119879792Y-118990104D01*
X120030104Y-118839792D01*
X120149456Y-118675517D01*
X120209396Y-118626979D01*
X120285574Y-118614913D01*
X120357580Y-118642553D01*
X120390544Y-118675517D01*
X120509895Y-118839790D01*
X120509897Y-118839793D01*
X120660206Y-118990102D01*
X120660214Y-118990109D01*
X120716852Y-119031258D01*
X120778080Y-119075742D01*
X120826618Y-119135680D01*
X120839500Y-119196285D01*
X120839500Y-119263713D01*
X120819538Y-119338213D01*
X120778080Y-119384256D01*
X120660217Y-119469888D01*
X120660206Y-119469897D01*
X120509897Y-119620206D01*
X120509895Y-119620209D01*
X120384950Y-119792181D01*
X120384950Y-119792182D01*
X120382715Y-119796569D01*
X120331106Y-119853886D01*
X120257752Y-119877720D01*
X120226647Y-119876090D01*
X120194660Y-119871023D01*
X119565685Y-120499999D01*
X119565685Y-120500000D01*
X120194659Y-121128974D01*
X120226644Y-121123909D01*
X120303350Y-121131970D01*
X120365748Y-121177305D01*
X120382712Y-121203426D01*
X120384949Y-121207816D01*
X120509896Y-121379792D01*
X120660208Y-121530104D01*
X120832184Y-121655051D01*
X121021588Y-121751557D01*
X121223757Y-121817246D01*
X121433713Y-121850500D01*
X121433718Y-121850500D01*
X121646282Y-121850500D01*
X121646287Y-121850500D01*
X121856243Y-121817246D01*
X122058412Y-121751557D01*
X122247816Y-121655051D01*
X122419792Y-121530104D01*
X122570104Y-121379792D01*
X122689456Y-121215517D01*
X122749396Y-121166979D01*
X122825574Y-121154913D01*
X122897580Y-121182553D01*
X122930544Y-121215517D01*
X123049896Y-121379792D01*
X123200208Y-121530104D01*
X123372184Y-121655051D01*
X123561588Y-121751557D01*
X123763757Y-121817246D01*
X123973713Y-121850500D01*
X123973718Y-121850500D01*
X124186282Y-121850500D01*
X124186287Y-121850500D01*
X124396243Y-121817246D01*
X124598412Y-121751557D01*
X124787816Y-121655051D01*
X124959792Y-121530104D01*
X125110104Y-121379792D01*
X125235051Y-121207816D01*
X125331557Y-121018412D01*
X125397246Y-120816243D01*
X125430500Y-120606287D01*
X125430500Y-120393713D01*
X125397246Y-120183757D01*
X125331557Y-119981588D01*
X125235051Y-119792184D01*
X125110104Y-119620208D01*
X124959792Y-119469896D01*
X124959790Y-119469894D01*
X124959782Y-119469888D01*
X124841920Y-119384256D01*
X124793382Y-119324317D01*
X124780500Y-119263713D01*
X124780500Y-119196285D01*
X124800462Y-119121785D01*
X124841919Y-119075743D01*
X124959792Y-118990104D01*
X125110104Y-118839792D01*
X125235051Y-118667816D01*
X125331557Y-118478412D01*
X125397246Y-118276243D01*
X125430500Y-118066287D01*
X125430500Y-117853713D01*
X125397246Y-117643757D01*
X125331557Y-117441588D01*
X125235051Y-117252184D01*
X125110104Y-117080208D01*
X124959792Y-116929896D01*
X124787816Y-116804949D01*
X124598412Y-116708443D01*
X124396243Y-116642754D01*
X124186287Y-116609500D01*
X123973713Y-116609500D01*
X123798749Y-116637211D01*
X123763756Y-116642754D01*
X123561594Y-116708441D01*
X123561588Y-116708443D01*
X123561582Y-116708445D01*
X123561582Y-116708446D01*
X123372182Y-116804950D01*
X123372181Y-116804950D01*
X123200209Y-116929895D01*
X123200206Y-116929897D01*
X123049897Y-117080206D01*
X123049895Y-117080209D01*
X122930544Y-117244482D01*
X122870604Y-117293020D01*
X122794425Y-117305086D01*
X122722420Y-117277446D01*
X122689456Y-117244482D01*
X122627236Y-117158844D01*
X122570104Y-117080208D01*
X122419792Y-116929896D01*
X122247816Y-116804949D01*
X122058412Y-116708443D01*
X121856243Y-116642754D01*
X121646287Y-116609500D01*
X121433713Y-116609500D01*
X121258749Y-116637211D01*
X121223756Y-116642754D01*
X121021594Y-116708441D01*
X121021588Y-116708443D01*
X121021582Y-116708445D01*
X121021582Y-116708446D01*
X120832182Y-116804950D01*
X120832181Y-116804950D01*
X120660209Y-116929895D01*
X120660206Y-116929897D01*
X120509897Y-117080206D01*
X120509895Y-117080209D01*
X120390544Y-117244482D01*
X120330604Y-117293020D01*
X120254425Y-117305086D01*
X120182420Y-117277446D01*
X120149456Y-117244482D01*
X120087236Y-117158844D01*
X120030104Y-117080208D01*
X119879792Y-116929896D01*
X119707816Y-116804949D01*
X119518412Y-116708443D01*
X119316243Y-116642754D01*
X119106287Y-116609500D01*
X118893713Y-116609500D01*
X118718749Y-116637211D01*
X118683756Y-116642754D01*
X118481594Y-116708441D01*
X118481588Y-116708443D01*
X118481582Y-116708445D01*
X118481582Y-116708446D01*
X118292182Y-116804950D01*
X118292181Y-116804950D01*
X118120209Y-116929895D01*
X118120206Y-116929897D01*
X117969897Y-117080206D01*
X117969895Y-117080209D01*
X117850544Y-117244482D01*
X117790604Y-117293020D01*
X117714425Y-117305086D01*
X117642420Y-117277446D01*
X117609456Y-117244482D01*
X117547236Y-117158844D01*
X117490104Y-117080208D01*
X117339792Y-116929896D01*
X117167816Y-116804949D01*
X116978412Y-116708443D01*
X116776243Y-116642754D01*
X116566287Y-116609500D01*
X116353713Y-116609500D01*
X116178749Y-116637211D01*
X116143756Y-116642754D01*
X115941594Y-116708441D01*
X115941588Y-116708443D01*
X115941582Y-116708445D01*
X115941582Y-116708446D01*
X115752182Y-116804950D01*
X115752181Y-116804950D01*
X115580209Y-116929895D01*
X115580206Y-116929897D01*
X115429897Y-117080206D01*
X115429895Y-117080209D01*
X115304950Y-117252181D01*
X115304950Y-117252182D01*
X115304949Y-117252184D01*
X115208443Y-117441588D01*
X115142754Y-117643757D01*
X115109500Y-117853713D01*
X108760500Y-117853713D01*
X108760500Y-114176460D01*
X108722051Y-113983165D01*
X108722050Y-113983163D01*
X108646632Y-113801087D01*
X108646631Y-113801084D01*
X108609968Y-113746215D01*
X108537139Y-113637218D01*
X108397782Y-113497861D01*
X108394050Y-113494129D01*
X108394035Y-113494115D01*
X107295458Y-112395538D01*
X107256894Y-112328743D01*
X107253092Y-112270731D01*
X107285499Y-112024569D01*
X107285500Y-112024565D01*
X107285500Y-111775435D01*
X107285499Y-111775429D01*
X107272121Y-111673815D01*
X107252982Y-111528435D01*
X107188502Y-111287793D01*
X107093164Y-111057627D01*
X106968599Y-110841873D01*
X106816938Y-110644224D01*
X106640776Y-110468062D01*
X106443127Y-110316401D01*
X106371209Y-110274879D01*
X106227377Y-110191838D01*
X106227375Y-110191837D01*
X106227373Y-110191836D01*
X106092548Y-110135989D01*
X105997210Y-110096499D01*
X105997208Y-110096498D01*
X105997207Y-110096498D01*
X105756565Y-110032018D01*
X105756563Y-110032017D01*
X105756557Y-110032016D01*
X105509570Y-109999500D01*
X105509565Y-109999500D01*
X105467374Y-109999500D01*
X105392874Y-109979538D01*
X105338336Y-109925000D01*
X105318374Y-109850500D01*
X105338336Y-109776000D01*
X105362015Y-109745141D01*
X106637840Y-108469316D01*
X108338614Y-106768543D01*
X108415275Y-106653811D01*
X108468080Y-106526328D01*
X108495000Y-106390994D01*
X108495000Y-106253006D01*
X108495000Y-90441107D01*
X108468080Y-90305772D01*
X108415275Y-90178289D01*
X108338614Y-90063558D01*
X108241042Y-89965986D01*
X108143932Y-89868876D01*
X120899500Y-89868876D01*
X120899500Y-107131123D01*
X120933728Y-107391106D01*
X120933729Y-107391111D01*
X120933730Y-107391116D01*
X120937339Y-107404584D01*
X120994423Y-107617626D01*
X120999500Y-107656190D01*
X120999500Y-108200008D01*
X121010001Y-108302797D01*
X121065184Y-108469329D01*
X121065187Y-108469336D01*
X121066273Y-108471096D01*
X121157289Y-108618655D01*
X121281345Y-108742711D01*
X121430666Y-108834814D01*
X121597203Y-108889999D01*
X121699992Y-108900500D01*
X122243810Y-108900500D01*
X122282373Y-108905576D01*
X122508884Y-108966270D01*
X122768877Y-109000499D01*
X122768878Y-109000500D01*
X122768880Y-109000500D01*
X123031122Y-109000500D01*
X123031122Y-109000499D01*
X123291116Y-108966270D01*
X123517626Y-108905576D01*
X123556190Y-108900500D01*
X124100004Y-108900500D01*
X124100008Y-108900500D01*
X124202797Y-108889999D01*
X124369334Y-108834814D01*
X124518655Y-108742711D01*
X124642711Y-108618655D01*
X124734814Y-108469334D01*
X124789999Y-108302797D01*
X124800500Y-108200008D01*
X124800500Y-107656190D01*
X124805577Y-107617626D01*
X124866270Y-107391116D01*
X124900500Y-107131120D01*
X124900500Y-101868880D01*
X124900500Y-94868880D01*
X124900500Y-89868880D01*
X124866270Y-89608884D01*
X124808289Y-89392495D01*
X124798399Y-89355584D01*
X124798399Y-89355583D01*
X124747727Y-89233251D01*
X124698043Y-89113303D01*
X124566924Y-88886197D01*
X124566921Y-88886193D01*
X124566921Y-88886192D01*
X124407284Y-88678151D01*
X124221848Y-88492715D01*
X124013806Y-88333078D01*
X123786701Y-88201959D01*
X123786699Y-88201958D01*
X123786697Y-88201957D01*
X123711154Y-88170666D01*
X123544416Y-88101600D01*
X123318255Y-88041002D01*
X123291116Y-88033730D01*
X123291114Y-88033729D01*
X123291108Y-88033728D01*
X123031123Y-87999500D01*
X123031120Y-87999500D01*
X122768880Y-87999500D01*
X122768876Y-87999500D01*
X122508892Y-88033728D01*
X122508889Y-88033728D01*
X122255584Y-88101600D01*
X122255583Y-88101600D01*
X122013298Y-88201959D01*
X121786193Y-88333078D01*
X121786192Y-88333078D01*
X121578151Y-88492715D01*
X121578151Y-88492716D01*
X121578149Y-88492718D01*
X121392718Y-88678149D01*
X121392716Y-88678151D01*
X121392715Y-88678151D01*
X121233078Y-88886192D01*
X121233078Y-88886193D01*
X121101959Y-89113298D01*
X121001600Y-89355583D01*
X121001600Y-89355584D01*
X120933728Y-89608889D01*
X120933728Y-89608892D01*
X120899500Y-89868876D01*
X108143932Y-89868876D01*
X96050486Y-77775429D01*
X103484500Y-77775429D01*
X103484500Y-78024570D01*
X103517016Y-78271557D01*
X103517017Y-78271563D01*
X103517018Y-78271565D01*
X103581498Y-78512207D01*
X103676836Y-78742373D01*
X103801401Y-78958127D01*
X103953062Y-79155776D01*
X104129224Y-79331938D01*
X104326873Y-79483599D01*
X104542627Y-79608164D01*
X104772793Y-79703502D01*
X105013435Y-79767982D01*
X105013441Y-79767982D01*
X105013442Y-79767983D01*
X105080586Y-79776822D01*
X105260435Y-79800500D01*
X105509565Y-79800500D01*
X105756565Y-79767982D01*
X105997207Y-79703502D01*
X106227373Y-79608164D01*
X106443127Y-79483599D01*
X106640776Y-79331938D01*
X106816938Y-79155776D01*
X106968599Y-78958127D01*
X107093164Y-78742373D01*
X107188502Y-78512207D01*
X107252982Y-78271565D01*
X107285500Y-78024565D01*
X107285500Y-77875429D01*
X120999500Y-77875429D01*
X120999500Y-78124570D01*
X121032016Y-78371557D01*
X121096499Y-78612210D01*
X121122401Y-78674743D01*
X121191836Y-78842373D01*
X121316401Y-79058127D01*
X121468062Y-79255776D01*
X121468063Y-79255777D01*
X121605859Y-79393573D01*
X121644423Y-79460368D01*
X121649500Y-79498932D01*
X121649500Y-80985077D01*
X121629538Y-81059577D01*
X121575000Y-81114115D01*
X121547369Y-81126514D01*
X121430662Y-81165187D01*
X121281344Y-81257289D01*
X121157289Y-81381344D01*
X121065187Y-81530663D01*
X121010001Y-81697201D01*
X121010001Y-81697203D01*
X120999500Y-81799992D01*
X120999500Y-84200008D01*
X121010001Y-84302797D01*
X121065186Y-84469334D01*
X121157289Y-84618655D01*
X121281345Y-84742711D01*
X121430666Y-84834814D01*
X121597203Y-84889999D01*
X121699992Y-84900500D01*
X121699996Y-84900500D01*
X124100004Y-84900500D01*
X124100008Y-84900500D01*
X124202797Y-84889999D01*
X124369334Y-84834814D01*
X124518655Y-84742711D01*
X124642711Y-84618655D01*
X124734814Y-84469334D01*
X124789999Y-84302797D01*
X124800500Y-84200008D01*
X124800500Y-81799992D01*
X124789999Y-81697203D01*
X124734814Y-81530666D01*
X124642711Y-81381345D01*
X124518655Y-81257289D01*
X124369337Y-81165187D01*
X124252631Y-81126514D01*
X124188192Y-81084130D01*
X124153578Y-81015206D01*
X124150500Y-80985077D01*
X124150500Y-79498932D01*
X124170462Y-79424432D01*
X124194141Y-79393573D01*
X124255778Y-79331936D01*
X124331938Y-79255776D01*
X124483599Y-79058127D01*
X124608164Y-78842373D01*
X124703502Y-78612207D01*
X124767982Y-78371565D01*
X124800500Y-78124565D01*
X124800500Y-77875435D01*
X124767982Y-77628435D01*
X124703502Y-77387793D01*
X124608164Y-77157627D01*
X124483599Y-76941873D01*
X124331938Y-76744224D01*
X124155776Y-76568062D01*
X123958127Y-76416401D01*
X123784921Y-76316401D01*
X123742377Y-76291838D01*
X123742375Y-76291837D01*
X123742373Y-76291836D01*
X123607548Y-76235989D01*
X123512210Y-76196499D01*
X123512208Y-76196498D01*
X123512207Y-76196498D01*
X123271565Y-76132018D01*
X123271563Y-76132017D01*
X123271557Y-76132016D01*
X123024570Y-76099500D01*
X123024565Y-76099500D01*
X122775435Y-76099500D01*
X122775429Y-76099500D01*
X122528442Y-76132016D01*
X122287789Y-76196499D01*
X122057622Y-76291838D01*
X121841874Y-76416400D01*
X121644222Y-76568063D01*
X121468063Y-76744222D01*
X121316400Y-76941874D01*
X121191838Y-77157622D01*
X121096499Y-77387789D01*
X121032016Y-77628442D01*
X120999500Y-77875429D01*
X107285500Y-77875429D01*
X107285500Y-77775435D01*
X107252982Y-77528435D01*
X107188502Y-77287793D01*
X107093164Y-77057627D01*
X106968599Y-76841873D01*
X106816938Y-76644224D01*
X106640776Y-76468062D01*
X106443127Y-76316401D01*
X106235448Y-76196498D01*
X106227377Y-76191838D01*
X106227375Y-76191837D01*
X106227373Y-76191836D01*
X106082955Y-76132016D01*
X105997210Y-76096499D01*
X105997208Y-76096498D01*
X105997207Y-76096498D01*
X105756565Y-76032018D01*
X105756563Y-76032017D01*
X105756557Y-76032016D01*
X105509570Y-75999500D01*
X105509565Y-75999500D01*
X105260435Y-75999500D01*
X105260429Y-75999500D01*
X105013442Y-76032016D01*
X104772789Y-76096499D01*
X104542622Y-76191838D01*
X104326874Y-76316400D01*
X104129222Y-76468063D01*
X103953063Y-76644222D01*
X103801400Y-76841874D01*
X103676838Y-77057622D01*
X103581499Y-77287789D01*
X103517016Y-77528442D01*
X103484500Y-77775429D01*
X96050486Y-77775429D01*
X95723041Y-77447984D01*
X95684477Y-77381189D01*
X95679400Y-77342625D01*
X95679400Y-65875429D01*
X120999500Y-65875429D01*
X120999500Y-66124570D01*
X121032016Y-66371557D01*
X121032017Y-66371563D01*
X121032018Y-66371565D01*
X121096498Y-66612207D01*
X121191836Y-66842373D01*
X121316401Y-67058127D01*
X121368710Y-67126297D01*
X121398225Y-67197554D01*
X121399500Y-67217002D01*
X121399500Y-69101250D01*
X121379538Y-69175750D01*
X121328724Y-69228064D01*
X121281345Y-69257289D01*
X121281342Y-69257291D01*
X121157289Y-69381344D01*
X121065187Y-69530663D01*
X121010001Y-69697201D01*
X121010001Y-69697203D01*
X120999500Y-69799992D01*
X120999500Y-72200008D01*
X121010001Y-72302797D01*
X121065186Y-72469334D01*
X121157289Y-72618655D01*
X121281345Y-72742711D01*
X121430666Y-72834814D01*
X121597203Y-72889999D01*
X121699992Y-72900500D01*
X121699996Y-72900500D01*
X124100004Y-72900500D01*
X124100008Y-72900500D01*
X124202797Y-72889999D01*
X124369334Y-72834814D01*
X124518655Y-72742711D01*
X124642711Y-72618655D01*
X124734814Y-72469334D01*
X124789999Y-72302797D01*
X124800500Y-72200008D01*
X124800500Y-69799992D01*
X124789999Y-69697203D01*
X124734814Y-69530666D01*
X124642711Y-69381345D01*
X124518655Y-69257289D01*
X124471275Y-69228064D01*
X124418349Y-69171964D01*
X124400500Y-69101250D01*
X124400500Y-67217002D01*
X124420462Y-67142502D01*
X124431290Y-67126297D01*
X124483599Y-67058127D01*
X124608164Y-66842373D01*
X124703502Y-66612207D01*
X124767982Y-66371565D01*
X124800500Y-66124565D01*
X124800500Y-65875435D01*
X124767982Y-65628435D01*
X124703502Y-65387793D01*
X124608164Y-65157627D01*
X124483599Y-64941873D01*
X124331938Y-64744224D01*
X124155776Y-64568062D01*
X123958127Y-64416401D01*
X123886209Y-64374879D01*
X123742377Y-64291838D01*
X123742375Y-64291837D01*
X123742373Y-64291836D01*
X123607548Y-64235989D01*
X123512210Y-64196499D01*
X123512208Y-64196498D01*
X123512207Y-64196498D01*
X123271565Y-64132018D01*
X123271563Y-64132017D01*
X123271557Y-64132016D01*
X123024570Y-64099500D01*
X123024565Y-64099500D01*
X122775435Y-64099500D01*
X122775429Y-64099500D01*
X122528442Y-64132016D01*
X122287789Y-64196499D01*
X122057622Y-64291838D01*
X121841874Y-64416400D01*
X121644222Y-64568063D01*
X121468063Y-64744222D01*
X121316400Y-64941874D01*
X121191838Y-65157622D01*
X121096499Y-65387789D01*
X121032016Y-65628442D01*
X120999500Y-65875429D01*
X95679400Y-65875429D01*
X95679400Y-60775429D01*
X103484500Y-60775429D01*
X103484500Y-61024570D01*
X103517016Y-61271557D01*
X103517017Y-61271563D01*
X103517018Y-61271565D01*
X103581498Y-61512207D01*
X103676836Y-61742373D01*
X103801401Y-61958127D01*
X103953062Y-62155776D01*
X104129224Y-62331938D01*
X104326873Y-62483599D01*
X104542627Y-62608164D01*
X104772793Y-62703502D01*
X105013435Y-62767982D01*
X105013441Y-62767982D01*
X105013442Y-62767983D01*
X105080586Y-62776822D01*
X105260435Y-62800500D01*
X105509565Y-62800500D01*
X105756565Y-62767982D01*
X105997207Y-62703502D01*
X106227373Y-62608164D01*
X106443127Y-62483599D01*
X106640776Y-62331938D01*
X106816938Y-62155776D01*
X106968599Y-61958127D01*
X107093164Y-61742373D01*
X107188502Y-61512207D01*
X107252982Y-61271565D01*
X107285500Y-61024565D01*
X107285500Y-60775435D01*
X107252982Y-60528435D01*
X107188502Y-60287793D01*
X107093164Y-60057627D01*
X106968599Y-59841873D01*
X106816938Y-59644224D01*
X106640776Y-59468062D01*
X106443127Y-59316401D01*
X106371209Y-59274879D01*
X106227377Y-59191838D01*
X106227375Y-59191837D01*
X106227373Y-59191836D01*
X105998354Y-59096973D01*
X105997210Y-59096499D01*
X105997208Y-59096498D01*
X105997207Y-59096498D01*
X105756565Y-59032018D01*
X105756563Y-59032017D01*
X105756557Y-59032016D01*
X105509570Y-58999500D01*
X105509565Y-58999500D01*
X105260435Y-58999500D01*
X105260429Y-58999500D01*
X105013442Y-59032016D01*
X104772789Y-59096499D01*
X104542622Y-59191838D01*
X104326874Y-59316400D01*
X104129222Y-59468063D01*
X103953063Y-59644222D01*
X103801400Y-59841874D01*
X103676838Y-60057622D01*
X103581499Y-60287789D01*
X103517016Y-60528442D01*
X103484500Y-60775429D01*
X95679400Y-60775429D01*
X95679400Y-57800011D01*
X121000000Y-57800011D01*
X121000000Y-58600000D01*
X122385523Y-58600000D01*
X122323978Y-58692110D01*
X122274979Y-58810402D01*
X122250000Y-58935981D01*
X122250000Y-59064019D01*
X122274979Y-59189598D01*
X122323978Y-59307890D01*
X122385523Y-59400000D01*
X121000000Y-59400000D01*
X121000000Y-60199988D01*
X121010492Y-60302687D01*
X121010494Y-60302696D01*
X121065642Y-60469120D01*
X121157680Y-60618339D01*
X121281660Y-60742319D01*
X121430879Y-60834357D01*
X121597303Y-60889505D01*
X121597312Y-60889507D01*
X121700011Y-60899999D01*
X121700022Y-60900000D01*
X122500000Y-60900000D01*
X122500000Y-59514476D01*
X122592110Y-59576022D01*
X122710402Y-59625021D01*
X122835981Y-59650000D01*
X122964019Y-59650000D01*
X123089598Y-59625021D01*
X123207890Y-59576022D01*
X123300000Y-59514476D01*
X123300000Y-60900000D01*
X124099978Y-60900000D01*
X124099988Y-60899999D01*
X124202687Y-60889507D01*
X124202696Y-60889505D01*
X124369120Y-60834357D01*
X124518339Y-60742319D01*
X124642319Y-60618339D01*
X124734357Y-60469120D01*
X124789505Y-60302696D01*
X124789507Y-60302687D01*
X124799999Y-60199988D01*
X124800000Y-60199978D01*
X124800000Y-59400000D01*
X123414477Y-59400000D01*
X123476022Y-59307890D01*
X123525021Y-59189598D01*
X123550000Y-59064019D01*
X123550000Y-58935981D01*
X123525021Y-58810402D01*
X123476022Y-58692110D01*
X123414477Y-58600000D01*
X124800000Y-58600000D01*
X124800000Y-57800021D01*
X124799999Y-57800011D01*
X124789507Y-57697312D01*
X124789505Y-57697303D01*
X124734357Y-57530879D01*
X124642319Y-57381660D01*
X124518339Y-57257680D01*
X124369120Y-57165642D01*
X124202696Y-57110494D01*
X124202687Y-57110492D01*
X124099988Y-57100000D01*
X123300000Y-57100000D01*
X123300000Y-58485523D01*
X123207890Y-58423978D01*
X123089598Y-58374979D01*
X122964019Y-58350000D01*
X122835981Y-58350000D01*
X122710402Y-58374979D01*
X122592110Y-58423978D01*
X122500000Y-58485523D01*
X122500000Y-57100000D01*
X121700011Y-57100000D01*
X121597312Y-57110492D01*
X121597303Y-57110494D01*
X121430879Y-57165642D01*
X121281660Y-57257680D01*
X121157680Y-57381660D01*
X121065642Y-57530879D01*
X121010494Y-57697303D01*
X121010492Y-57697312D01*
X121000000Y-57800011D01*
X95679400Y-57800011D01*
X95679400Y-53875461D01*
X121000000Y-53875461D01*
X121000000Y-54124538D01*
X121032507Y-54371459D01*
X121096973Y-54612048D01*
X121192287Y-54842156D01*
X121302048Y-55032265D01*
X122253367Y-54080946D01*
X122274979Y-54189598D01*
X122323978Y-54307890D01*
X122395112Y-54414351D01*
X122485649Y-54504888D01*
X122592110Y-54576022D01*
X122710402Y-54625021D01*
X122819052Y-54646632D01*
X121867733Y-55597950D01*
X122057849Y-55707714D01*
X122287951Y-55803026D01*
X122528540Y-55867492D01*
X122775461Y-55899999D01*
X122775467Y-55900000D01*
X123024533Y-55900000D01*
X123024538Y-55899999D01*
X123271459Y-55867492D01*
X123512048Y-55803026D01*
X123742150Y-55707714D01*
X123932265Y-55597950D01*
X122980947Y-54646632D01*
X123089598Y-54625021D01*
X123207890Y-54576022D01*
X123314351Y-54504888D01*
X123404888Y-54414351D01*
X123476022Y-54307890D01*
X123525021Y-54189598D01*
X123546632Y-54080947D01*
X124497950Y-55032265D01*
X124607714Y-54842150D01*
X124703026Y-54612048D01*
X124767492Y-54371459D01*
X124799999Y-54124538D01*
X124800000Y-54124533D01*
X124800000Y-53875467D01*
X124799999Y-53875461D01*
X124767492Y-53628540D01*
X124703026Y-53387951D01*
X124607714Y-53157849D01*
X124497950Y-52967733D01*
X123546632Y-53919051D01*
X123525021Y-53810402D01*
X123476022Y-53692110D01*
X123404888Y-53585649D01*
X123314351Y-53495112D01*
X123207890Y-53423978D01*
X123089598Y-53374979D01*
X122980946Y-53353366D01*
X123932265Y-52402048D01*
X123742156Y-52292287D01*
X123512048Y-52196973D01*
X123271459Y-52132507D01*
X123024538Y-52100000D01*
X122775461Y-52100000D01*
X122528540Y-52132507D01*
X122287951Y-52196973D01*
X122057843Y-52292287D01*
X121867733Y-52402048D01*
X122819052Y-53353367D01*
X122710402Y-53374979D01*
X122592110Y-53423978D01*
X122485649Y-53495112D01*
X122395112Y-53585649D01*
X122323978Y-53692110D01*
X122274979Y-53810402D01*
X122253367Y-53919052D01*
X121302048Y-52967733D01*
X121192287Y-53157843D01*
X121096973Y-53387951D01*
X121032507Y-53628540D01*
X121000000Y-53875461D01*
X95679400Y-53875461D01*
X95679400Y-43775429D01*
X103484500Y-43775429D01*
X103484500Y-44024570D01*
X103517016Y-44271557D01*
X103517017Y-44271563D01*
X103517018Y-44271565D01*
X103581498Y-44512207D01*
X103676836Y-44742373D01*
X103801401Y-44958127D01*
X103953062Y-45155776D01*
X104129224Y-45331938D01*
X104326873Y-45483599D01*
X104542627Y-45608164D01*
X104772793Y-45703502D01*
X105013435Y-45767982D01*
X105013441Y-45767982D01*
X105013442Y-45767983D01*
X105080586Y-45776822D01*
X105260435Y-45800500D01*
X105509565Y-45800500D01*
X105513279Y-45800011D01*
X121000000Y-45800011D01*
X121000000Y-46600000D01*
X122385523Y-46600000D01*
X122323978Y-46692110D01*
X122274979Y-46810402D01*
X122250000Y-46935981D01*
X122250000Y-47064019D01*
X122274979Y-47189598D01*
X122323978Y-47307890D01*
X122385523Y-47400000D01*
X121000000Y-47400000D01*
X121000000Y-48199988D01*
X121010492Y-48302687D01*
X121010494Y-48302696D01*
X121065642Y-48469120D01*
X121157680Y-48618339D01*
X121281660Y-48742319D01*
X121430879Y-48834357D01*
X121597303Y-48889505D01*
X121597312Y-48889507D01*
X121700011Y-48899999D01*
X121700022Y-48900000D01*
X122500000Y-48900000D01*
X122500000Y-47514476D01*
X122592110Y-47576022D01*
X122710402Y-47625021D01*
X122835981Y-47650000D01*
X122964019Y-47650000D01*
X123089598Y-47625021D01*
X123207890Y-47576022D01*
X123300000Y-47514476D01*
X123300000Y-48900000D01*
X124099978Y-48900000D01*
X124099988Y-48899999D01*
X124202687Y-48889507D01*
X124202696Y-48889505D01*
X124369120Y-48834357D01*
X124518339Y-48742319D01*
X124642319Y-48618339D01*
X124734357Y-48469120D01*
X124789505Y-48302696D01*
X124789507Y-48302687D01*
X124799999Y-48199988D01*
X124800000Y-48199978D01*
X124800000Y-47400000D01*
X123414477Y-47400000D01*
X123476022Y-47307890D01*
X123525021Y-47189598D01*
X123550000Y-47064019D01*
X123550000Y-46935981D01*
X123525021Y-46810402D01*
X123476022Y-46692110D01*
X123414477Y-46600000D01*
X124800000Y-46600000D01*
X124800000Y-45800021D01*
X124799999Y-45800011D01*
X124789507Y-45697312D01*
X124789505Y-45697303D01*
X124734357Y-45530879D01*
X124642319Y-45381660D01*
X124518339Y-45257680D01*
X124369120Y-45165642D01*
X124202696Y-45110494D01*
X124202687Y-45110492D01*
X124099988Y-45100000D01*
X123300000Y-45100000D01*
X123300000Y-46485523D01*
X123207890Y-46423978D01*
X123089598Y-46374979D01*
X122964019Y-46350000D01*
X122835981Y-46350000D01*
X122710402Y-46374979D01*
X122592110Y-46423978D01*
X122500000Y-46485523D01*
X122500000Y-45100000D01*
X121700011Y-45100000D01*
X121597312Y-45110492D01*
X121597303Y-45110494D01*
X121430879Y-45165642D01*
X121281660Y-45257680D01*
X121157680Y-45381660D01*
X121065642Y-45530879D01*
X121010494Y-45697303D01*
X121010492Y-45697312D01*
X121000000Y-45800011D01*
X105513279Y-45800011D01*
X105756565Y-45767982D01*
X105997207Y-45703502D01*
X106227373Y-45608164D01*
X106443127Y-45483599D01*
X106640776Y-45331938D01*
X106816938Y-45155776D01*
X106968599Y-44958127D01*
X107093164Y-44742373D01*
X107188502Y-44512207D01*
X107252982Y-44271565D01*
X107285500Y-44024565D01*
X107285500Y-43775435D01*
X107252982Y-43528435D01*
X107188502Y-43287793D01*
X107093164Y-43057627D01*
X106968599Y-42841873D01*
X106816938Y-42644224D01*
X106640776Y-42468062D01*
X106443127Y-42316401D01*
X106371209Y-42274879D01*
X106227377Y-42191838D01*
X106227375Y-42191837D01*
X106227373Y-42191836D01*
X106092548Y-42135989D01*
X105997210Y-42096499D01*
X105997208Y-42096498D01*
X105997207Y-42096498D01*
X105756565Y-42032018D01*
X105756563Y-42032017D01*
X105756557Y-42032016D01*
X105652476Y-42018314D01*
X105509570Y-41999500D01*
X105509565Y-41999500D01*
X105260435Y-41999500D01*
X105260429Y-41999500D01*
X105013442Y-42032016D01*
X104772789Y-42096499D01*
X104542622Y-42191838D01*
X104326874Y-42316400D01*
X104129222Y-42468063D01*
X103953063Y-42644222D01*
X103801400Y-42841874D01*
X103676838Y-43057622D01*
X103581499Y-43287789D01*
X103517016Y-43528442D01*
X103484500Y-43775429D01*
X95679400Y-43775429D01*
X95679400Y-41875461D01*
X121000000Y-41875461D01*
X121000000Y-42124538D01*
X121032507Y-42371459D01*
X121096973Y-42612048D01*
X121192287Y-42842156D01*
X121302048Y-43032265D01*
X122253367Y-42080946D01*
X122274979Y-42189598D01*
X122323978Y-42307890D01*
X122395112Y-42414351D01*
X122485649Y-42504888D01*
X122592110Y-42576022D01*
X122710402Y-42625021D01*
X122819052Y-42646632D01*
X121867733Y-43597950D01*
X122057849Y-43707714D01*
X122287951Y-43803026D01*
X122528540Y-43867492D01*
X122775461Y-43899999D01*
X122775467Y-43900000D01*
X123024533Y-43900000D01*
X123024538Y-43899999D01*
X123271459Y-43867492D01*
X123512048Y-43803026D01*
X123742150Y-43707714D01*
X123932265Y-43597950D01*
X122980947Y-42646632D01*
X123089598Y-42625021D01*
X123207890Y-42576022D01*
X123314351Y-42504888D01*
X123404888Y-42414351D01*
X123476022Y-42307890D01*
X123525021Y-42189598D01*
X123546632Y-42080947D01*
X124497950Y-43032265D01*
X124607714Y-42842150D01*
X124703026Y-42612048D01*
X124767492Y-42371459D01*
X124799999Y-42124538D01*
X124800000Y-42124533D01*
X124800000Y-41875467D01*
X124799999Y-41875461D01*
X124767492Y-41628540D01*
X124703026Y-41387951D01*
X124607714Y-41157849D01*
X124497950Y-40967733D01*
X123546632Y-41919051D01*
X123525021Y-41810402D01*
X123476022Y-41692110D01*
X123404888Y-41585649D01*
X123314351Y-41495112D01*
X123207890Y-41423978D01*
X123089598Y-41374979D01*
X122980946Y-41353366D01*
X123932265Y-40402048D01*
X123742156Y-40292287D01*
X123512048Y-40196973D01*
X123271459Y-40132507D01*
X123024538Y-40100000D01*
X122775461Y-40100000D01*
X122528540Y-40132507D01*
X122287951Y-40196973D01*
X122057843Y-40292287D01*
X121867733Y-40402048D01*
X122819052Y-41353367D01*
X122710402Y-41374979D01*
X122592110Y-41423978D01*
X122485649Y-41495112D01*
X122395112Y-41585649D01*
X122323978Y-41692110D01*
X122274979Y-41810402D01*
X122253367Y-41919052D01*
X121302048Y-40967733D01*
X121192287Y-41157843D01*
X121096973Y-41387951D01*
X121032507Y-41628540D01*
X121000000Y-41875461D01*
X95679400Y-41875461D01*
X95679400Y-31478706D01*
X97949500Y-31478706D01*
X97949500Y-31721293D01*
X97981160Y-31961781D01*
X97981161Y-31961787D01*
X97981162Y-31961789D01*
X98043946Y-32196100D01*
X98136776Y-32420212D01*
X98258064Y-32630289D01*
X98405735Y-32822738D01*
X98577262Y-32994265D01*
X98769711Y-33141936D01*
X98979788Y-33263224D01*
X99203900Y-33356054D01*
X99438211Y-33418838D01*
X99438217Y-33418838D01*
X99438218Y-33418839D01*
X99503600Y-33427446D01*
X99678712Y-33450500D01*
X99921288Y-33450500D01*
X100161789Y-33418838D01*
X100396100Y-33356054D01*
X100620212Y-33263224D01*
X100830289Y-33141936D01*
X101022738Y-32994265D01*
X101194265Y-32822738D01*
X101341936Y-32630289D01*
X101463224Y-32420212D01*
X101556054Y-32196100D01*
X101618838Y-31961789D01*
X101650500Y-31721288D01*
X101650500Y-31478712D01*
X101618838Y-31238211D01*
X101556054Y-31003900D01*
X101463224Y-30779788D01*
X101341936Y-30569711D01*
X101194265Y-30377262D01*
X101022738Y-30205735D01*
X100830289Y-30058064D01*
X100760263Y-30017634D01*
X100620216Y-29936778D01*
X100620214Y-29936777D01*
X100620212Y-29936776D01*
X100488932Y-29882398D01*
X100396103Y-29843947D01*
X100396101Y-29843946D01*
X100396100Y-29843946D01*
X100161789Y-29781162D01*
X100161787Y-29781161D01*
X100161781Y-29781160D01*
X99921293Y-29749500D01*
X99921288Y-29749500D01*
X99678712Y-29749500D01*
X99678706Y-29749500D01*
X99438218Y-29781160D01*
X99203896Y-29843947D01*
X98979783Y-29936778D01*
X98769712Y-30058063D01*
X98769711Y-30058064D01*
X98577262Y-30205735D01*
X98577260Y-30205736D01*
X98577256Y-30205740D01*
X98405740Y-30377256D01*
X98258063Y-30569712D01*
X98136778Y-30779783D01*
X98043947Y-31003896D01*
X97981160Y-31238218D01*
X97949500Y-31478706D01*
X95679400Y-31478706D01*
X95679400Y-27737806D01*
X95652480Y-27602474D01*
X95652479Y-27602470D01*
X95599675Y-27474990D01*
X95599672Y-27474984D01*
X95523016Y-27360261D01*
X95523014Y-27360258D01*
X95425442Y-27262686D01*
X94644257Y-26481501D01*
X93621468Y-25458711D01*
X93582904Y-25391916D01*
X93582904Y-25314788D01*
X93621468Y-25247993D01*
X93659179Y-25220594D01*
X93787816Y-25155051D01*
X93959792Y-25030104D01*
X94110104Y-24879792D01*
X94229456Y-24715517D01*
X94289396Y-24666979D01*
X94365574Y-24654913D01*
X94437580Y-24682553D01*
X94470544Y-24715517D01*
X94589896Y-24879792D01*
X94740208Y-25030104D01*
X94912184Y-25155051D01*
X95101588Y-25251557D01*
X95303757Y-25317246D01*
X95513713Y-25350500D01*
X95513718Y-25350500D01*
X95726282Y-25350500D01*
X95726287Y-25350500D01*
X95936243Y-25317246D01*
X96138412Y-25251557D01*
X96327816Y-25155051D01*
X96499792Y-25030104D01*
X96585819Y-24944077D01*
X96652613Y-24905512D01*
X96729741Y-24905512D01*
X96796536Y-24944076D01*
X96830784Y-24997366D01*
X96866202Y-25092329D01*
X96866204Y-25092333D01*
X96952452Y-25207544D01*
X96952455Y-25207547D01*
X97067666Y-25293795D01*
X97067670Y-25293797D01*
X97202517Y-25344091D01*
X97262114Y-25350499D01*
X97262118Y-25350499D01*
X97262127Y-25350500D01*
X99057872Y-25350499D01*
X99117483Y-25344091D01*
X99232732Y-25301106D01*
X99252329Y-25293797D01*
X99252333Y-25293795D01*
X99313516Y-25247993D01*
X99367546Y-25207546D01*
X99410671Y-25149938D01*
X99453795Y-25092333D01*
X99453797Y-25092329D01*
X99477008Y-25030096D01*
X99504091Y-24957483D01*
X99510500Y-24897873D01*
X99510499Y-23102128D01*
X99504091Y-23042517D01*
X99477005Y-22969895D01*
X99453797Y-22907670D01*
X99453795Y-22907666D01*
X99367547Y-22792455D01*
X99367544Y-22792452D01*
X99252333Y-22706204D01*
X99252329Y-22706202D01*
X99117482Y-22655908D01*
X99057876Y-22649500D01*
X97262136Y-22649500D01*
X97262111Y-22649502D01*
X97202521Y-22655908D01*
X97202515Y-22655909D01*
X97067670Y-22706202D01*
X97067666Y-22706204D01*
X96952455Y-22792452D01*
X96952452Y-22792455D01*
X96866204Y-22907666D01*
X96866203Y-22907668D01*
X96830784Y-23002634D01*
X96786045Y-23065461D01*
X96715887Y-23097501D01*
X96639108Y-23090170D01*
X96585819Y-23055923D01*
X96499793Y-22969897D01*
X96499792Y-22969896D01*
X96327816Y-22844949D01*
X96138412Y-22748443D01*
X95936243Y-22682754D01*
X95726287Y-22649500D01*
X95513713Y-22649500D01*
X95338749Y-22677211D01*
X95303756Y-22682754D01*
X95101594Y-22748441D01*
X95101588Y-22748443D01*
X95101582Y-22748445D01*
X95101582Y-22748446D01*
X94912182Y-22844950D01*
X94912181Y-22844950D01*
X94740209Y-22969895D01*
X94740206Y-22969897D01*
X94589897Y-23120206D01*
X94589895Y-23120209D01*
X94470544Y-23284482D01*
X94410604Y-23333020D01*
X94334425Y-23345086D01*
X94262420Y-23317446D01*
X94229456Y-23284482D01*
X94142750Y-23165142D01*
X94110104Y-23120208D01*
X93959792Y-22969896D01*
X93787816Y-22844949D01*
X93598412Y-22748443D01*
X93396243Y-22682754D01*
X93186287Y-22649500D01*
X92973713Y-22649500D01*
X92798749Y-22677211D01*
X92763756Y-22682754D01*
X92561594Y-22748441D01*
X92561582Y-22748445D01*
X92475215Y-22792452D01*
X92372184Y-22844949D01*
X92372183Y-22844950D01*
X92372175Y-22844955D01*
X92351082Y-22860279D01*
X92279076Y-22887916D01*
X92202898Y-22875848D01*
X92158148Y-22845091D01*
X91476046Y-22162989D01*
X91476043Y-22162986D01*
X91361311Y-22086325D01*
X91361308Y-22086323D01*
X91361302Y-22086320D01*
X91233829Y-22033520D01*
X91233827Y-22033519D01*
X91098497Y-22006600D01*
X91098494Y-22006600D01*
X91098493Y-22006600D01*
X86821894Y-22006600D01*
X86683906Y-22006600D01*
X86683902Y-22006600D01*
X86548572Y-22033519D01*
X86548570Y-22033520D01*
X86421097Y-22086320D01*
X86421084Y-22086328D01*
X86306358Y-22162985D01*
X86306353Y-22162989D01*
X85838856Y-22630485D01*
X85772061Y-22669049D01*
X85710189Y-22672292D01*
X85566287Y-22649500D01*
X85353713Y-22649500D01*
X85178749Y-22677211D01*
X85143756Y-22682754D01*
X84941594Y-22748441D01*
X84941588Y-22748443D01*
X84941582Y-22748445D01*
X84941582Y-22748446D01*
X84752182Y-22844950D01*
X84752181Y-22844950D01*
X84580209Y-22969895D01*
X84580206Y-22969897D01*
X84429897Y-23120206D01*
X84429895Y-23120209D01*
X84310544Y-23284482D01*
X84250604Y-23333020D01*
X84174425Y-23345086D01*
X84102420Y-23317446D01*
X84069456Y-23284482D01*
X83982750Y-23165142D01*
X83950104Y-23120208D01*
X83799792Y-22969896D01*
X83627816Y-22844949D01*
X83438412Y-22748443D01*
X83236243Y-22682754D01*
X83026287Y-22649500D01*
X82813713Y-22649500D01*
X82717757Y-22664698D01*
X82669809Y-22672292D01*
X82593103Y-22664229D01*
X82541142Y-22630485D01*
X82085146Y-22174489D01*
X82085143Y-22174486D01*
X81970411Y-22097825D01*
X81970408Y-22097823D01*
X81970402Y-22097820D01*
X81842929Y-22045020D01*
X81842927Y-22045019D01*
X81707597Y-22018100D01*
X81707594Y-22018100D01*
X81707593Y-22018100D01*
X77999000Y-22018100D01*
X77924500Y-21998138D01*
X77869962Y-21943600D01*
X77850000Y-21869100D01*
X77850000Y-5249000D01*
X77869962Y-5174500D01*
X77924500Y-5119962D01*
X77999000Y-5100000D01*
X134229276Y-5100000D01*
X134279472Y-5108710D01*
G37*
%TD.AperFunction*%
%TA.AperFunction,Conductor*%
G36*
X86767455Y-24663312D02*
G01*
X86790604Y-24666979D01*
X86802957Y-24676939D01*
X86817580Y-24682553D01*
X86849480Y-24714453D01*
X86850178Y-24715016D01*
X86850415Y-24715340D01*
X86969896Y-24879792D01*
X87120208Y-25030104D01*
X87292184Y-25155051D01*
X87481588Y-25251557D01*
X87683757Y-25317246D01*
X87893713Y-25350500D01*
X87893718Y-25350500D01*
X88106282Y-25350500D01*
X88106287Y-25350500D01*
X88316243Y-25317246D01*
X88461256Y-25270127D01*
X88538279Y-25266091D01*
X88607000Y-25301106D01*
X88649007Y-25365791D01*
X88656300Y-25411835D01*
X88656300Y-25494642D01*
X88687062Y-25649294D01*
X88687063Y-25649298D01*
X88744958Y-25789070D01*
X88756300Y-25846089D01*
X88756300Y-110459625D01*
X88736338Y-110534125D01*
X88712659Y-110564984D01*
X78104359Y-121173284D01*
X78037564Y-121211848D01*
X77960436Y-121211848D01*
X77893641Y-121173284D01*
X77855077Y-121106489D01*
X77850000Y-121067925D01*
X77850000Y-111775429D01*
X81284500Y-111775429D01*
X81284500Y-112024570D01*
X81317016Y-112271557D01*
X81317017Y-112271563D01*
X81317018Y-112271565D01*
X81381498Y-112512207D01*
X81476836Y-112742373D01*
X81601401Y-112958127D01*
X81753062Y-113155776D01*
X81929224Y-113331938D01*
X82126873Y-113483599D01*
X82342627Y-113608164D01*
X82572793Y-113703502D01*
X82813435Y-113767982D01*
X82813441Y-113767982D01*
X82813442Y-113767983D01*
X82880586Y-113776822D01*
X83060435Y-113800500D01*
X83309565Y-113800500D01*
X83556565Y-113767982D01*
X83797207Y-113703502D01*
X84027373Y-113608164D01*
X84243127Y-113483599D01*
X84440776Y-113331938D01*
X84616938Y-113155776D01*
X84768599Y-112958127D01*
X84893164Y-112742373D01*
X84988502Y-112512207D01*
X85052982Y-112271565D01*
X85085500Y-112024565D01*
X85085500Y-111775435D01*
X85052982Y-111528435D01*
X84988502Y-111287793D01*
X84893164Y-111057627D01*
X84768599Y-110841873D01*
X84616938Y-110644224D01*
X84440776Y-110468062D01*
X84243127Y-110316401D01*
X84171209Y-110274879D01*
X84027377Y-110191838D01*
X84027375Y-110191837D01*
X84027373Y-110191836D01*
X83892548Y-110135989D01*
X83797210Y-110096499D01*
X83797208Y-110096498D01*
X83797207Y-110096498D01*
X83556565Y-110032018D01*
X83556563Y-110032017D01*
X83556557Y-110032016D01*
X83309570Y-109999500D01*
X83309565Y-109999500D01*
X83060435Y-109999500D01*
X83060429Y-109999500D01*
X82813442Y-110032016D01*
X82572789Y-110096499D01*
X82342622Y-110191838D01*
X82126874Y-110316400D01*
X81929222Y-110468063D01*
X81753063Y-110644222D01*
X81601400Y-110841874D01*
X81476838Y-111057622D01*
X81381499Y-111287789D01*
X81317016Y-111528442D01*
X81284500Y-111775429D01*
X77850000Y-111775429D01*
X77850000Y-105391091D01*
X77869962Y-105316591D01*
X77893637Y-105285736D01*
X86490528Y-96688846D01*
X86606224Y-96529605D01*
X86695584Y-96354226D01*
X86756409Y-96167026D01*
X86787200Y-95972617D01*
X86787200Y-95775783D01*
X86787200Y-89949483D01*
X86756409Y-89755074D01*
X86695584Y-89567875D01*
X86606224Y-89392495D01*
X86490528Y-89233254D01*
X86351346Y-89094072D01*
X77893641Y-80636367D01*
X77855077Y-80569572D01*
X77850000Y-80531008D01*
X77850000Y-70140008D01*
X78892000Y-70140008D01*
X78892000Y-70376192D01*
X78928947Y-70609468D01*
X79001932Y-70834092D01*
X79001936Y-70834101D01*
X79001937Y-70834102D01*
X79109155Y-71044530D01*
X79109158Y-71044535D01*
X79247977Y-71235603D01*
X79247980Y-71235606D01*
X79247983Y-71235610D01*
X81640860Y-73628487D01*
X81679423Y-73695280D01*
X81684500Y-73733844D01*
X81684500Y-76682997D01*
X81664538Y-76757497D01*
X81653710Y-76773701D01*
X81601402Y-76841870D01*
X81476838Y-77057622D01*
X81381499Y-77287789D01*
X81317016Y-77528442D01*
X81284500Y-77775429D01*
X81284500Y-78024570D01*
X81317016Y-78271557D01*
X81317017Y-78271563D01*
X81317018Y-78271565D01*
X81381498Y-78512207D01*
X81476836Y-78742373D01*
X81601401Y-78958127D01*
X81753062Y-79155776D01*
X81929224Y-79331938D01*
X82126873Y-79483599D01*
X82342627Y-79608164D01*
X82572793Y-79703502D01*
X82813435Y-79767982D01*
X82813441Y-79767982D01*
X82813442Y-79767983D01*
X82880586Y-79776822D01*
X83060435Y-79800500D01*
X83309565Y-79800500D01*
X83556565Y-79767982D01*
X83797207Y-79703502D01*
X84027373Y-79608164D01*
X84243127Y-79483599D01*
X84440776Y-79331938D01*
X84616938Y-79155776D01*
X84768599Y-78958127D01*
X84893164Y-78742373D01*
X84988502Y-78512207D01*
X85052982Y-78271565D01*
X85085500Y-78024565D01*
X85085500Y-77775435D01*
X85052982Y-77528435D01*
X84988502Y-77287793D01*
X84893164Y-77057627D01*
X84768599Y-76841873D01*
X84768597Y-76841870D01*
X84716290Y-76773701D01*
X84686775Y-76702444D01*
X84685500Y-76682997D01*
X84685500Y-72932512D01*
X84685500Y-72932508D01*
X84648553Y-72699232D01*
X84575568Y-72474608D01*
X84569935Y-72463553D01*
X84468343Y-72264166D01*
X84404413Y-72176175D01*
X84329522Y-72073096D01*
X84329519Y-72073093D01*
X84329517Y-72073090D01*
X81370010Y-69113583D01*
X81370006Y-69113580D01*
X81370003Y-69113577D01*
X81178935Y-68974758D01*
X81178934Y-68974757D01*
X80968492Y-68867532D01*
X80743868Y-68794547D01*
X80510592Y-68757600D01*
X80274408Y-68757600D01*
X80041132Y-68794547D01*
X79816508Y-68867532D01*
X79816503Y-68867534D01*
X79816497Y-68867537D01*
X79606069Y-68974755D01*
X79606064Y-68974758D01*
X79414996Y-69113577D01*
X79247977Y-69280596D01*
X79109158Y-69471664D01*
X79109155Y-69471669D01*
X79001937Y-69682097D01*
X79001934Y-69682103D01*
X79001932Y-69682108D01*
X78928947Y-69906732D01*
X78892000Y-70140008D01*
X77850000Y-70140008D01*
X77850000Y-60775461D01*
X81285000Y-60775461D01*
X81285000Y-61024538D01*
X81317507Y-61271459D01*
X81381973Y-61512048D01*
X81477287Y-61742156D01*
X81587048Y-61932265D01*
X82453323Y-61065989D01*
X82463822Y-61118767D01*
X82520359Y-61255258D01*
X82602437Y-61378097D01*
X82706903Y-61482563D01*
X82829742Y-61564641D01*
X82966233Y-61621178D01*
X83019008Y-61631675D01*
X82152733Y-62497950D01*
X82342849Y-62607714D01*
X82572951Y-62703026D01*
X82813540Y-62767492D01*
X83060461Y-62799999D01*
X83060467Y-62800000D01*
X83309533Y-62800000D01*
X83309538Y-62799999D01*
X83556459Y-62767492D01*
X83797048Y-62703026D01*
X84027150Y-62607714D01*
X84217265Y-62497950D01*
X83350990Y-61631675D01*
X83403767Y-61621178D01*
X83540258Y-61564641D01*
X83663097Y-61482563D01*
X83767563Y-61378097D01*
X83849641Y-61255258D01*
X83906178Y-61118767D01*
X83916675Y-61065990D01*
X84782950Y-61932265D01*
X84892714Y-61742150D01*
X84988026Y-61512048D01*
X85052492Y-61271459D01*
X85084999Y-61024538D01*
X85085000Y-61024533D01*
X85085000Y-60775467D01*
X85084999Y-60775461D01*
X85052492Y-60528540D01*
X84988026Y-60287951D01*
X84892714Y-60057849D01*
X84782950Y-59867733D01*
X83916675Y-60734008D01*
X83906178Y-60681233D01*
X83849641Y-60544742D01*
X83767563Y-60421903D01*
X83663097Y-60317437D01*
X83540258Y-60235359D01*
X83403767Y-60178822D01*
X83350989Y-60168323D01*
X84217265Y-59302048D01*
X84027156Y-59192287D01*
X83797048Y-59096973D01*
X83556459Y-59032507D01*
X83309538Y-59000000D01*
X83060461Y-59000000D01*
X82813540Y-59032507D01*
X82572951Y-59096973D01*
X82342843Y-59192287D01*
X82152733Y-59302048D01*
X83019009Y-60168324D01*
X82966233Y-60178822D01*
X82829742Y-60235359D01*
X82706903Y-60317437D01*
X82602437Y-60421903D01*
X82520359Y-60544742D01*
X82463822Y-60681233D01*
X82453324Y-60734009D01*
X81587048Y-59867733D01*
X81477287Y-60057843D01*
X81381973Y-60287951D01*
X81317507Y-60528540D01*
X81285000Y-60775461D01*
X77850000Y-60775461D01*
X77850000Y-43775461D01*
X81285000Y-43775461D01*
X81285000Y-44024538D01*
X81317507Y-44271459D01*
X81381973Y-44512048D01*
X81477287Y-44742156D01*
X81587048Y-44932265D01*
X82453323Y-44065989D01*
X82463822Y-44118767D01*
X82520359Y-44255258D01*
X82602437Y-44378097D01*
X82706903Y-44482563D01*
X82829742Y-44564641D01*
X82966233Y-44621178D01*
X83019008Y-44631675D01*
X82152733Y-45497950D01*
X82342849Y-45607714D01*
X82572951Y-45703026D01*
X82813540Y-45767492D01*
X83060461Y-45799999D01*
X83060467Y-45800000D01*
X83309533Y-45800000D01*
X83309538Y-45799999D01*
X83556459Y-45767492D01*
X83797048Y-45703026D01*
X84027150Y-45607714D01*
X84217265Y-45497950D01*
X83350990Y-44631675D01*
X83403767Y-44621178D01*
X83540258Y-44564641D01*
X83663097Y-44482563D01*
X83767563Y-44378097D01*
X83849641Y-44255258D01*
X83906178Y-44118767D01*
X83916675Y-44065990D01*
X84782950Y-44932265D01*
X84892714Y-44742150D01*
X84988026Y-44512048D01*
X85052492Y-44271459D01*
X85084999Y-44024538D01*
X85085000Y-44024533D01*
X85085000Y-43775467D01*
X85084999Y-43775461D01*
X85052492Y-43528540D01*
X84988026Y-43287951D01*
X84892714Y-43057849D01*
X84782950Y-42867733D01*
X83916675Y-43734008D01*
X83906178Y-43681233D01*
X83849641Y-43544742D01*
X83767563Y-43421903D01*
X83663097Y-43317437D01*
X83540258Y-43235359D01*
X83403767Y-43178822D01*
X83350989Y-43168323D01*
X84217265Y-42302048D01*
X84027156Y-42192287D01*
X83797048Y-42096973D01*
X83556459Y-42032507D01*
X83309538Y-42000000D01*
X83060461Y-42000000D01*
X82813540Y-42032507D01*
X82572951Y-42096973D01*
X82342843Y-42192287D01*
X82152733Y-42302048D01*
X83019009Y-43168324D01*
X82966233Y-43178822D01*
X82829742Y-43235359D01*
X82706903Y-43317437D01*
X82602437Y-43421903D01*
X82520359Y-43544742D01*
X82463822Y-43681233D01*
X82453324Y-43734009D01*
X81587048Y-42867733D01*
X81477287Y-43057843D01*
X81381973Y-43287951D01*
X81317507Y-43528540D01*
X81285000Y-43775461D01*
X77850000Y-43775461D01*
X77850000Y-25493008D01*
X77869962Y-25418508D01*
X77924500Y-25363970D01*
X77975688Y-25345843D01*
X78156243Y-25317246D01*
X78358412Y-25251557D01*
X78547816Y-25155051D01*
X78719792Y-25030104D01*
X78870104Y-24879792D01*
X78989456Y-24715517D01*
X79049396Y-24666979D01*
X79125574Y-24654913D01*
X79197580Y-24682553D01*
X79230544Y-24715517D01*
X79349896Y-24879792D01*
X79500208Y-25030104D01*
X79672184Y-25155051D01*
X79861588Y-25251557D01*
X80063757Y-25317246D01*
X80273713Y-25350500D01*
X80273718Y-25350500D01*
X80486282Y-25350500D01*
X80486287Y-25350500D01*
X80696243Y-25317246D01*
X80898412Y-25251557D01*
X81087816Y-25155051D01*
X81259792Y-25030104D01*
X81410104Y-24879792D01*
X81529456Y-24715517D01*
X81589396Y-24666979D01*
X81665574Y-24654913D01*
X81737580Y-24682553D01*
X81770544Y-24715517D01*
X81889896Y-24879792D01*
X82040208Y-25030104D01*
X82212184Y-25155051D01*
X82401588Y-25251557D01*
X82603757Y-25317246D01*
X82813713Y-25350500D01*
X82813718Y-25350500D01*
X83026282Y-25350500D01*
X83026287Y-25350500D01*
X83236243Y-25317246D01*
X83438412Y-25251557D01*
X83627816Y-25155051D01*
X83799792Y-25030104D01*
X83950104Y-24879792D01*
X84069456Y-24715517D01*
X84129396Y-24666979D01*
X84205574Y-24654913D01*
X84277580Y-24682553D01*
X84310544Y-24715517D01*
X84429896Y-24879792D01*
X84580208Y-25030104D01*
X84752184Y-25155051D01*
X84941588Y-25251557D01*
X85143757Y-25317246D01*
X85353713Y-25350500D01*
X85353718Y-25350500D01*
X85566282Y-25350500D01*
X85566287Y-25350500D01*
X85776243Y-25317246D01*
X85978412Y-25251557D01*
X86167816Y-25155051D01*
X86339792Y-25030104D01*
X86490104Y-24879792D01*
X86609456Y-24715517D01*
X86627670Y-24700767D01*
X86642420Y-24682553D01*
X86657142Y-24676901D01*
X86669396Y-24666979D01*
X86692544Y-24663312D01*
X86714426Y-24654913D01*
X86730000Y-24657379D01*
X86745574Y-24654913D01*
X86767455Y-24663312D01*
G37*
%TD.AperFunction*%
%TD*%
M02*
