%TF.GenerationSoftware,KiCad,Pcbnew,10.0.0*%
%TF.CreationDate,2026-03-30T18:45:22-04:00*%
%TF.ProjectId,geodude-carrier,67656f64-7564-4652-9d63-617272696572,rev?*%
%TF.SameCoordinates,Original*%
%TF.FileFunction,Profile,NP*%
%FSLAX46Y46*%
G04 Gerber Fmt 4.6, Leading zero omitted, Abs format (unit mm)*
G04 Created by KiCad (PCBNEW 10.0.0) date 2026-03-30 18:45:22*
%MOMM*%
%LPD*%
G01*
G04 APERTURE LIST*
%TA.AperFunction,Profile*%
%ADD10C,0.100000*%
%TD*%
G04 APERTURE END LIST*
D10*
X17800000Y-7600000D02*
X17814445Y-7305948D01*
X17800000Y-149500000D02*
X17800000Y-7600000D01*
X17814445Y-7305948D02*
X17857644Y-7014729D01*
X17814445Y-149794051D02*
X17800000Y-149500000D01*
X17857644Y-7014729D02*
X17929178Y-6729145D01*
X17857644Y-150085270D02*
X17814445Y-149794051D01*
X17929178Y-6729145D02*
X18028361Y-6451949D01*
X17929178Y-150370854D02*
X17857644Y-150085270D01*
X18028361Y-6451949D02*
X18154236Y-6185809D01*
X18028361Y-150648050D02*
X17929178Y-150370854D01*
X18154236Y-6185809D02*
X18305591Y-5933289D01*
X18154236Y-150914190D02*
X18028361Y-150648050D01*
X18305591Y-5933289D02*
X18480968Y-5696820D01*
X18305591Y-151166710D02*
X18154236Y-150914190D01*
X18480968Y-5696820D02*
X18678679Y-5478679D01*
X18480968Y-151403179D02*
X18305591Y-151166710D01*
X18678679Y-5478679D02*
X18896820Y-5280968D01*
X18678679Y-151621320D02*
X18480968Y-151403179D01*
X18896820Y-5280968D02*
X19133289Y-5105591D01*
X18896820Y-151819031D02*
X18678679Y-151621320D01*
X19133289Y-5105591D02*
X19385809Y-4954236D01*
X19133289Y-151994408D02*
X18896820Y-151819031D01*
X19385809Y-4954236D02*
X19651949Y-4828361D01*
X19385809Y-152145763D02*
X19133289Y-151994408D01*
X19651949Y-4828361D02*
X19929145Y-4729178D01*
X19651949Y-152271638D02*
X19385809Y-152145763D01*
X19929145Y-4729178D02*
X20214729Y-4657644D01*
X19929145Y-152370821D02*
X19651949Y-152271638D01*
X20214729Y-4657644D02*
X20505948Y-4614445D01*
X20214729Y-152442355D02*
X19929145Y-152370821D01*
X20505948Y-4614445D02*
X20800000Y-4600000D01*
X20505948Y-152485554D02*
X20214729Y-152442355D01*
X20800000Y-4600000D02*
X134900000Y-4600000D01*
X20800000Y-152500000D02*
X20505948Y-152485554D01*
X134900000Y-4600000D02*
X135194051Y-4614445D01*
X134900000Y-152500000D02*
X20800000Y-152500000D01*
X135194051Y-4614445D02*
X135485270Y-4657644D01*
X135194051Y-152485554D02*
X134900000Y-152500000D01*
X135485270Y-4657644D02*
X135770854Y-4729178D01*
X135485270Y-152442355D02*
X135194051Y-152485554D01*
X135770854Y-4729178D02*
X136048050Y-4828361D01*
X135770854Y-152370821D02*
X135485270Y-152442355D01*
X136048050Y-4828361D02*
X136314190Y-4954236D01*
X136048050Y-152271638D02*
X135770854Y-152370821D01*
X136314190Y-4954236D02*
X136566710Y-5105591D01*
X136314190Y-152145763D02*
X136048050Y-152271638D01*
X136566710Y-5105591D02*
X136803179Y-5280968D01*
X136566710Y-151994408D02*
X136314190Y-152145763D01*
X136803179Y-5280968D02*
X137021320Y-5478679D01*
X136803179Y-151819031D02*
X136566710Y-151994408D01*
X137021320Y-5478679D02*
X137219031Y-5696820D01*
X137021320Y-151621320D02*
X136803179Y-151819031D01*
X137219031Y-5696820D02*
X137394408Y-5933289D01*
X137219031Y-151403179D02*
X137021320Y-151621320D01*
X137394408Y-5933289D02*
X137545763Y-6185809D01*
X137394408Y-151166710D02*
X137219031Y-151403179D01*
X137545763Y-6185809D02*
X137671638Y-6451949D01*
X137545763Y-150914190D02*
X137394408Y-151166710D01*
X137671638Y-6451949D02*
X137770821Y-6729145D01*
X137671638Y-150648050D02*
X137545763Y-150914190D01*
X137770821Y-6729145D02*
X137842355Y-7014729D01*
X137770821Y-150370854D02*
X137671638Y-150648050D01*
X137842355Y-7014729D02*
X137885554Y-7305948D01*
X137842355Y-150085270D02*
X137770821Y-150370854D01*
X137885554Y-7305948D02*
X137900000Y-7600000D01*
X137885554Y-149794051D02*
X137842355Y-150085270D01*
X137900000Y-7600000D02*
X137900000Y-149500000D01*
X137900000Y-149500000D02*
X137885554Y-149794051D01*
M02*
