%TF.GenerationSoftware,KiCad,Pcbnew,10.0.0*%
%TF.CreationDate,2026-03-30T17:06:21-04:00*%
%TF.ProjectId,geodude-carrier,67656f64-7564-4652-9d63-617272696572,rev?*%
%TF.SameCoordinates,Original*%
%TF.FileFunction,Legend,Top*%
%TF.FilePolarity,Positive*%
%FSLAX46Y46*%
G04 Gerber Fmt 4.6, Leading zero omitted, Abs format (unit mm)*
G04 Created by KiCad (PCBNEW 10.0.0) date 2026-03-30 17:06:21*
%MOMM*%
%LPD*%
G01*
G04 APERTURE LIST*
%ADD10C,0.150000*%
%ADD11C,0.120000*%
G04 APERTURE END LIST*
D10*
X105238095Y-72407200D02*
X105380952Y-72454819D01*
X105380952Y-72454819D02*
X105619047Y-72454819D01*
X105619047Y-72454819D02*
X105714285Y-72407200D01*
X105714285Y-72407200D02*
X105761904Y-72359580D01*
X105761904Y-72359580D02*
X105809523Y-72264342D01*
X105809523Y-72264342D02*
X105809523Y-72169104D01*
X105809523Y-72169104D02*
X105761904Y-72073866D01*
X105761904Y-72073866D02*
X105714285Y-72026247D01*
X105714285Y-72026247D02*
X105619047Y-71978628D01*
X105619047Y-71978628D02*
X105428571Y-71931009D01*
X105428571Y-71931009D02*
X105333333Y-71883390D01*
X105333333Y-71883390D02*
X105285714Y-71835771D01*
X105285714Y-71835771D02*
X105238095Y-71740533D01*
X105238095Y-71740533D02*
X105238095Y-71645295D01*
X105238095Y-71645295D02*
X105285714Y-71550057D01*
X105285714Y-71550057D02*
X105333333Y-71502438D01*
X105333333Y-71502438D02*
X105428571Y-71454819D01*
X105428571Y-71454819D02*
X105666666Y-71454819D01*
X105666666Y-71454819D02*
X105809523Y-71502438D01*
X106761904Y-72454819D02*
X106190476Y-72454819D01*
X106476190Y-72454819D02*
X106476190Y-71454819D01*
X106476190Y-71454819D02*
X106380952Y-71597676D01*
X106380952Y-71597676D02*
X106285714Y-71692914D01*
X106285714Y-71692914D02*
X106190476Y-71740533D01*
X138366667Y-155104819D02*
X138604762Y-156104819D01*
X138604762Y-156104819D02*
X138795238Y-155390533D01*
X138795238Y-155390533D02*
X138985714Y-156104819D01*
X138985714Y-156104819D02*
X139223810Y-155104819D01*
X140128571Y-156104819D02*
X139557143Y-156104819D01*
X139842857Y-156104819D02*
X139842857Y-155104819D01*
X139842857Y-155104819D02*
X139747619Y-155247676D01*
X139747619Y-155247676D02*
X139652381Y-155342914D01*
X139652381Y-155342914D02*
X139557143Y-155390533D01*
X140509524Y-155819104D02*
X140985714Y-155819104D01*
X140414286Y-156104819D02*
X140747619Y-155104819D01*
X140747619Y-155104819D02*
X141080952Y-156104819D01*
X57595238Y-55931009D02*
X57738095Y-55978628D01*
X57738095Y-55978628D02*
X57785714Y-56026247D01*
X57785714Y-56026247D02*
X57833333Y-56121485D01*
X57833333Y-56121485D02*
X57833333Y-56264342D01*
X57833333Y-56264342D02*
X57785714Y-56359580D01*
X57785714Y-56359580D02*
X57738095Y-56407200D01*
X57738095Y-56407200D02*
X57642857Y-56454819D01*
X57642857Y-56454819D02*
X57261905Y-56454819D01*
X57261905Y-56454819D02*
X57261905Y-55454819D01*
X57261905Y-55454819D02*
X57595238Y-55454819D01*
X57595238Y-55454819D02*
X57690476Y-55502438D01*
X57690476Y-55502438D02*
X57738095Y-55550057D01*
X57738095Y-55550057D02*
X57785714Y-55645295D01*
X57785714Y-55645295D02*
X57785714Y-55740533D01*
X57785714Y-55740533D02*
X57738095Y-55835771D01*
X57738095Y-55835771D02*
X57690476Y-55883390D01*
X57690476Y-55883390D02*
X57595238Y-55931009D01*
X57595238Y-55931009D02*
X57261905Y-55931009D01*
X58214286Y-55550057D02*
X58261905Y-55502438D01*
X58261905Y-55502438D02*
X58357143Y-55454819D01*
X58357143Y-55454819D02*
X58595238Y-55454819D01*
X58595238Y-55454819D02*
X58690476Y-55502438D01*
X58690476Y-55502438D02*
X58738095Y-55550057D01*
X58738095Y-55550057D02*
X58785714Y-55645295D01*
X58785714Y-55645295D02*
X58785714Y-55740533D01*
X58785714Y-55740533D02*
X58738095Y-55883390D01*
X58738095Y-55883390D02*
X58166667Y-56454819D01*
X58166667Y-56454819D02*
X58785714Y-56454819D01*
X114938095Y-156057200D02*
X115080952Y-156104819D01*
X115080952Y-156104819D02*
X115319047Y-156104819D01*
X115319047Y-156104819D02*
X115414285Y-156057200D01*
X115414285Y-156057200D02*
X115461904Y-156009580D01*
X115461904Y-156009580D02*
X115509523Y-155914342D01*
X115509523Y-155914342D02*
X115509523Y-155819104D01*
X115509523Y-155819104D02*
X115461904Y-155723866D01*
X115461904Y-155723866D02*
X115414285Y-155676247D01*
X115414285Y-155676247D02*
X115319047Y-155628628D01*
X115319047Y-155628628D02*
X115128571Y-155581009D01*
X115128571Y-155581009D02*
X115033333Y-155533390D01*
X115033333Y-155533390D02*
X114985714Y-155485771D01*
X114985714Y-155485771D02*
X114938095Y-155390533D01*
X114938095Y-155390533D02*
X114938095Y-155295295D01*
X114938095Y-155295295D02*
X114985714Y-155200057D01*
X114985714Y-155200057D02*
X115033333Y-155152438D01*
X115033333Y-155152438D02*
X115128571Y-155104819D01*
X115128571Y-155104819D02*
X115366666Y-155104819D01*
X115366666Y-155104819D02*
X115509523Y-155152438D01*
X116461904Y-156104819D02*
X115890476Y-156104819D01*
X116176190Y-156104819D02*
X116176190Y-155104819D01*
X116176190Y-155104819D02*
X116080952Y-155247676D01*
X116080952Y-155247676D02*
X115985714Y-155342914D01*
X115985714Y-155342914D02*
X115890476Y-155390533D01*
X156022438Y-112711904D02*
X155974819Y-112807142D01*
X155974819Y-112807142D02*
X155974819Y-112949999D01*
X155974819Y-112949999D02*
X156022438Y-113092856D01*
X156022438Y-113092856D02*
X156117676Y-113188094D01*
X156117676Y-113188094D02*
X156212914Y-113235713D01*
X156212914Y-113235713D02*
X156403390Y-113283332D01*
X156403390Y-113283332D02*
X156546247Y-113283332D01*
X156546247Y-113283332D02*
X156736723Y-113235713D01*
X156736723Y-113235713D02*
X156831961Y-113188094D01*
X156831961Y-113188094D02*
X156927200Y-113092856D01*
X156927200Y-113092856D02*
X156974819Y-112949999D01*
X156974819Y-112949999D02*
X156974819Y-112854761D01*
X156974819Y-112854761D02*
X156927200Y-112711904D01*
X156927200Y-112711904D02*
X156879580Y-112664285D01*
X156879580Y-112664285D02*
X156546247Y-112664285D01*
X156546247Y-112664285D02*
X156546247Y-112854761D01*
X156974819Y-112235713D02*
X155974819Y-112235713D01*
X155974819Y-112235713D02*
X156974819Y-111664285D01*
X156974819Y-111664285D02*
X155974819Y-111664285D01*
X156974819Y-111188094D02*
X155974819Y-111188094D01*
X155974819Y-111188094D02*
X155974819Y-110949999D01*
X155974819Y-110949999D02*
X156022438Y-110807142D01*
X156022438Y-110807142D02*
X156117676Y-110711904D01*
X156117676Y-110711904D02*
X156212914Y-110664285D01*
X156212914Y-110664285D02*
X156403390Y-110616666D01*
X156403390Y-110616666D02*
X156546247Y-110616666D01*
X156546247Y-110616666D02*
X156736723Y-110664285D01*
X156736723Y-110664285D02*
X156831961Y-110711904D01*
X156831961Y-110711904D02*
X156927200Y-110807142D01*
X156927200Y-110807142D02*
X156974819Y-110949999D01*
X156974819Y-110949999D02*
X156974819Y-111188094D01*
X43295238Y-155581009D02*
X43438095Y-155628628D01*
X43438095Y-155628628D02*
X43485714Y-155676247D01*
X43485714Y-155676247D02*
X43533333Y-155771485D01*
X43533333Y-155771485D02*
X43533333Y-155914342D01*
X43533333Y-155914342D02*
X43485714Y-156009580D01*
X43485714Y-156009580D02*
X43438095Y-156057200D01*
X43438095Y-156057200D02*
X43342857Y-156104819D01*
X43342857Y-156104819D02*
X42961905Y-156104819D01*
X42961905Y-156104819D02*
X42961905Y-155104819D01*
X42961905Y-155104819D02*
X43295238Y-155104819D01*
X43295238Y-155104819D02*
X43390476Y-155152438D01*
X43390476Y-155152438D02*
X43438095Y-155200057D01*
X43438095Y-155200057D02*
X43485714Y-155295295D01*
X43485714Y-155295295D02*
X43485714Y-155390533D01*
X43485714Y-155390533D02*
X43438095Y-155485771D01*
X43438095Y-155485771D02*
X43390476Y-155533390D01*
X43390476Y-155533390D02*
X43295238Y-155581009D01*
X43295238Y-155581009D02*
X42961905Y-155581009D01*
X43914286Y-155200057D02*
X43961905Y-155152438D01*
X43961905Y-155152438D02*
X44057143Y-155104819D01*
X44057143Y-155104819D02*
X44295238Y-155104819D01*
X44295238Y-155104819D02*
X44390476Y-155152438D01*
X44390476Y-155152438D02*
X44438095Y-155200057D01*
X44438095Y-155200057D02*
X44485714Y-155295295D01*
X44485714Y-155295295D02*
X44485714Y-155390533D01*
X44485714Y-155390533D02*
X44438095Y-155533390D01*
X44438095Y-155533390D02*
X43866667Y-156104819D01*
X43866667Y-156104819D02*
X44485714Y-156104819D01*
X26785714Y-62597200D02*
X26928571Y-62644819D01*
X26928571Y-62644819D02*
X27166666Y-62644819D01*
X27166666Y-62644819D02*
X27261904Y-62597200D01*
X27261904Y-62597200D02*
X27309523Y-62549580D01*
X27309523Y-62549580D02*
X27357142Y-62454342D01*
X27357142Y-62454342D02*
X27357142Y-62359104D01*
X27357142Y-62359104D02*
X27309523Y-62263866D01*
X27309523Y-62263866D02*
X27261904Y-62216247D01*
X27261904Y-62216247D02*
X27166666Y-62168628D01*
X27166666Y-62168628D02*
X26976190Y-62121009D01*
X26976190Y-62121009D02*
X26880952Y-62073390D01*
X26880952Y-62073390D02*
X26833333Y-62025771D01*
X26833333Y-62025771D02*
X26785714Y-61930533D01*
X26785714Y-61930533D02*
X26785714Y-61835295D01*
X26785714Y-61835295D02*
X26833333Y-61740057D01*
X26833333Y-61740057D02*
X26880952Y-61692438D01*
X26880952Y-61692438D02*
X26976190Y-61644819D01*
X26976190Y-61644819D02*
X27214285Y-61644819D01*
X27214285Y-61644819D02*
X27357142Y-61692438D01*
X27785714Y-62644819D02*
X27785714Y-61644819D01*
X27785714Y-61644819D02*
X28023809Y-61644819D01*
X28023809Y-61644819D02*
X28166666Y-61692438D01*
X28166666Y-61692438D02*
X28261904Y-61787676D01*
X28261904Y-61787676D02*
X28309523Y-61882914D01*
X28309523Y-61882914D02*
X28357142Y-62073390D01*
X28357142Y-62073390D02*
X28357142Y-62216247D01*
X28357142Y-62216247D02*
X28309523Y-62406723D01*
X28309523Y-62406723D02*
X28261904Y-62501961D01*
X28261904Y-62501961D02*
X28166666Y-62597200D01*
X28166666Y-62597200D02*
X28023809Y-62644819D01*
X28023809Y-62644819D02*
X27785714Y-62644819D01*
X28738095Y-62359104D02*
X29214285Y-62359104D01*
X28642857Y-62644819D02*
X28976190Y-61644819D01*
X28976190Y-61644819D02*
X29309523Y-62644819D01*
X156974819Y-56569047D02*
X156974819Y-57140475D01*
X156974819Y-56854761D02*
X155974819Y-56854761D01*
X155974819Y-56854761D02*
X156117676Y-56949999D01*
X156117676Y-56949999D02*
X156212914Y-57045237D01*
X156212914Y-57045237D02*
X156260533Y-57140475D01*
X156070057Y-56188094D02*
X156022438Y-56140475D01*
X156022438Y-56140475D02*
X155974819Y-56045237D01*
X155974819Y-56045237D02*
X155974819Y-55807142D01*
X155974819Y-55807142D02*
X156022438Y-55711904D01*
X156022438Y-55711904D02*
X156070057Y-55664285D01*
X156070057Y-55664285D02*
X156165295Y-55616666D01*
X156165295Y-55616666D02*
X156260533Y-55616666D01*
X156260533Y-55616666D02*
X156403390Y-55664285D01*
X156403390Y-55664285D02*
X156974819Y-56235713D01*
X156974819Y-56235713D02*
X156974819Y-55616666D01*
X155974819Y-55330951D02*
X156974819Y-54997618D01*
X156974819Y-54997618D02*
X155974819Y-54664285D01*
X14374819Y-78988094D02*
X14374819Y-78369047D01*
X14374819Y-78369047D02*
X14755771Y-78702380D01*
X14755771Y-78702380D02*
X14755771Y-78559523D01*
X14755771Y-78559523D02*
X14803390Y-78464285D01*
X14803390Y-78464285D02*
X14851009Y-78416666D01*
X14851009Y-78416666D02*
X14946247Y-78369047D01*
X14946247Y-78369047D02*
X15184342Y-78369047D01*
X15184342Y-78369047D02*
X15279580Y-78416666D01*
X15279580Y-78416666D02*
X15327200Y-78464285D01*
X15327200Y-78464285D02*
X15374819Y-78559523D01*
X15374819Y-78559523D02*
X15374819Y-78845237D01*
X15374819Y-78845237D02*
X15327200Y-78940475D01*
X15327200Y-78940475D02*
X15279580Y-78988094D01*
X14374819Y-78083332D02*
X15374819Y-77749999D01*
X15374819Y-77749999D02*
X14374819Y-77416666D01*
X14374819Y-77178570D02*
X14374819Y-76559523D01*
X14374819Y-76559523D02*
X14755771Y-76892856D01*
X14755771Y-76892856D02*
X14755771Y-76749999D01*
X14755771Y-76749999D02*
X14803390Y-76654761D01*
X14803390Y-76654761D02*
X14851009Y-76607142D01*
X14851009Y-76607142D02*
X14946247Y-76559523D01*
X14946247Y-76559523D02*
X15184342Y-76559523D01*
X15184342Y-76559523D02*
X15279580Y-76607142D01*
X15279580Y-76607142D02*
X15327200Y-76654761D01*
X15327200Y-76654761D02*
X15374819Y-76749999D01*
X15374819Y-76749999D02*
X15374819Y-77035713D01*
X15374819Y-77035713D02*
X15327200Y-77130951D01*
X15327200Y-77130951D02*
X15279580Y-77178570D01*
X14374819Y-90988094D02*
X14374819Y-90369047D01*
X14374819Y-90369047D02*
X14755771Y-90702380D01*
X14755771Y-90702380D02*
X14755771Y-90559523D01*
X14755771Y-90559523D02*
X14803390Y-90464285D01*
X14803390Y-90464285D02*
X14851009Y-90416666D01*
X14851009Y-90416666D02*
X14946247Y-90369047D01*
X14946247Y-90369047D02*
X15184342Y-90369047D01*
X15184342Y-90369047D02*
X15279580Y-90416666D01*
X15279580Y-90416666D02*
X15327200Y-90464285D01*
X15327200Y-90464285D02*
X15374819Y-90559523D01*
X15374819Y-90559523D02*
X15374819Y-90845237D01*
X15374819Y-90845237D02*
X15327200Y-90940475D01*
X15327200Y-90940475D02*
X15279580Y-90988094D01*
X14374819Y-90083332D02*
X15374819Y-89749999D01*
X15374819Y-89749999D02*
X14374819Y-89416666D01*
X14374819Y-89178570D02*
X14374819Y-88559523D01*
X14374819Y-88559523D02*
X14755771Y-88892856D01*
X14755771Y-88892856D02*
X14755771Y-88749999D01*
X14755771Y-88749999D02*
X14803390Y-88654761D01*
X14803390Y-88654761D02*
X14851009Y-88607142D01*
X14851009Y-88607142D02*
X14946247Y-88559523D01*
X14946247Y-88559523D02*
X15184342Y-88559523D01*
X15184342Y-88559523D02*
X15279580Y-88607142D01*
X15279580Y-88607142D02*
X15327200Y-88654761D01*
X15327200Y-88654761D02*
X15374819Y-88749999D01*
X15374819Y-88749999D02*
X15374819Y-89035713D01*
X15374819Y-89035713D02*
X15327200Y-89130951D01*
X15327200Y-89130951D02*
X15279580Y-89178570D01*
X15327200Y-48964285D02*
X15374819Y-48821428D01*
X15374819Y-48821428D02*
X15374819Y-48583333D01*
X15374819Y-48583333D02*
X15327200Y-48488095D01*
X15327200Y-48488095D02*
X15279580Y-48440476D01*
X15279580Y-48440476D02*
X15184342Y-48392857D01*
X15184342Y-48392857D02*
X15089104Y-48392857D01*
X15089104Y-48392857D02*
X14993866Y-48440476D01*
X14993866Y-48440476D02*
X14946247Y-48488095D01*
X14946247Y-48488095D02*
X14898628Y-48583333D01*
X14898628Y-48583333D02*
X14851009Y-48773809D01*
X14851009Y-48773809D02*
X14803390Y-48869047D01*
X14803390Y-48869047D02*
X14755771Y-48916666D01*
X14755771Y-48916666D02*
X14660533Y-48964285D01*
X14660533Y-48964285D02*
X14565295Y-48964285D01*
X14565295Y-48964285D02*
X14470057Y-48916666D01*
X14470057Y-48916666D02*
X14422438Y-48869047D01*
X14422438Y-48869047D02*
X14374819Y-48773809D01*
X14374819Y-48773809D02*
X14374819Y-48535714D01*
X14374819Y-48535714D02*
X14422438Y-48392857D01*
X15374819Y-47964285D02*
X14374819Y-47964285D01*
X14374819Y-47964285D02*
X14374819Y-47726190D01*
X14374819Y-47726190D02*
X14422438Y-47583333D01*
X14422438Y-47583333D02*
X14517676Y-47488095D01*
X14517676Y-47488095D02*
X14612914Y-47440476D01*
X14612914Y-47440476D02*
X14803390Y-47392857D01*
X14803390Y-47392857D02*
X14946247Y-47392857D01*
X14946247Y-47392857D02*
X15136723Y-47440476D01*
X15136723Y-47440476D02*
X15231961Y-47488095D01*
X15231961Y-47488095D02*
X15327200Y-47583333D01*
X15327200Y-47583333D02*
X15374819Y-47726190D01*
X15374819Y-47726190D02*
X15374819Y-47964285D01*
X15089104Y-47011904D02*
X15089104Y-46535714D01*
X15374819Y-47107142D02*
X14374819Y-46773809D01*
X14374819Y-46773809D02*
X15374819Y-46440476D01*
X103295238Y-155581009D02*
X103438095Y-155628628D01*
X103438095Y-155628628D02*
X103485714Y-155676247D01*
X103485714Y-155676247D02*
X103533333Y-155771485D01*
X103533333Y-155771485D02*
X103533333Y-155914342D01*
X103533333Y-155914342D02*
X103485714Y-156009580D01*
X103485714Y-156009580D02*
X103438095Y-156057200D01*
X103438095Y-156057200D02*
X103342857Y-156104819D01*
X103342857Y-156104819D02*
X102961905Y-156104819D01*
X102961905Y-156104819D02*
X102961905Y-155104819D01*
X102961905Y-155104819D02*
X103295238Y-155104819D01*
X103295238Y-155104819D02*
X103390476Y-155152438D01*
X103390476Y-155152438D02*
X103438095Y-155200057D01*
X103438095Y-155200057D02*
X103485714Y-155295295D01*
X103485714Y-155295295D02*
X103485714Y-155390533D01*
X103485714Y-155390533D02*
X103438095Y-155485771D01*
X103438095Y-155485771D02*
X103390476Y-155533390D01*
X103390476Y-155533390D02*
X103295238Y-155581009D01*
X103295238Y-155581009D02*
X102961905Y-155581009D01*
X104485714Y-156104819D02*
X103914286Y-156104819D01*
X104200000Y-156104819D02*
X104200000Y-155104819D01*
X104200000Y-155104819D02*
X104104762Y-155247676D01*
X104104762Y-155247676D02*
X104009524Y-155342914D01*
X104009524Y-155342914D02*
X103914286Y-155390533D01*
X90509524Y-141581009D02*
X90842857Y-141581009D01*
X90985714Y-142104819D02*
X90509524Y-142104819D01*
X90509524Y-142104819D02*
X90509524Y-141104819D01*
X90509524Y-141104819D02*
X90985714Y-141104819D01*
X91366667Y-142057200D02*
X91509524Y-142104819D01*
X91509524Y-142104819D02*
X91747619Y-142104819D01*
X91747619Y-142104819D02*
X91842857Y-142057200D01*
X91842857Y-142057200D02*
X91890476Y-142009580D01*
X91890476Y-142009580D02*
X91938095Y-141914342D01*
X91938095Y-141914342D02*
X91938095Y-141819104D01*
X91938095Y-141819104D02*
X91890476Y-141723866D01*
X91890476Y-141723866D02*
X91842857Y-141676247D01*
X91842857Y-141676247D02*
X91747619Y-141628628D01*
X91747619Y-141628628D02*
X91557143Y-141581009D01*
X91557143Y-141581009D02*
X91461905Y-141533390D01*
X91461905Y-141533390D02*
X91414286Y-141485771D01*
X91414286Y-141485771D02*
X91366667Y-141390533D01*
X91366667Y-141390533D02*
X91366667Y-141295295D01*
X91366667Y-141295295D02*
X91414286Y-141200057D01*
X91414286Y-141200057D02*
X91461905Y-141152438D01*
X91461905Y-141152438D02*
X91557143Y-141104819D01*
X91557143Y-141104819D02*
X91795238Y-141104819D01*
X91795238Y-141104819D02*
X91938095Y-141152438D01*
X92938095Y-142009580D02*
X92890476Y-142057200D01*
X92890476Y-142057200D02*
X92747619Y-142104819D01*
X92747619Y-142104819D02*
X92652381Y-142104819D01*
X92652381Y-142104819D02*
X92509524Y-142057200D01*
X92509524Y-142057200D02*
X92414286Y-141961961D01*
X92414286Y-141961961D02*
X92366667Y-141866723D01*
X92366667Y-141866723D02*
X92319048Y-141676247D01*
X92319048Y-141676247D02*
X92319048Y-141533390D01*
X92319048Y-141533390D02*
X92366667Y-141342914D01*
X92366667Y-141342914D02*
X92414286Y-141247676D01*
X92414286Y-141247676D02*
X92509524Y-141152438D01*
X92509524Y-141152438D02*
X92652381Y-141104819D01*
X92652381Y-141104819D02*
X92747619Y-141104819D01*
X92747619Y-141104819D02*
X92890476Y-141152438D01*
X92890476Y-141152438D02*
X92938095Y-141200057D01*
X127009524Y-155581009D02*
X127342857Y-155581009D01*
X127485714Y-156104819D02*
X127009524Y-156104819D01*
X127009524Y-156104819D02*
X127009524Y-155104819D01*
X127009524Y-155104819D02*
X127485714Y-155104819D01*
X128438095Y-156104819D02*
X127866667Y-156104819D01*
X128152381Y-156104819D02*
X128152381Y-155104819D01*
X128152381Y-155104819D02*
X128057143Y-155247676D01*
X128057143Y-155247676D02*
X127961905Y-155342914D01*
X127961905Y-155342914D02*
X127866667Y-155390533D01*
X14374819Y-107940476D02*
X14374819Y-108416666D01*
X14374819Y-108416666D02*
X14851009Y-108464285D01*
X14851009Y-108464285D02*
X14803390Y-108416666D01*
X14803390Y-108416666D02*
X14755771Y-108321428D01*
X14755771Y-108321428D02*
X14755771Y-108083333D01*
X14755771Y-108083333D02*
X14803390Y-107988095D01*
X14803390Y-107988095D02*
X14851009Y-107940476D01*
X14851009Y-107940476D02*
X14946247Y-107892857D01*
X14946247Y-107892857D02*
X15184342Y-107892857D01*
X15184342Y-107892857D02*
X15279580Y-107940476D01*
X15279580Y-107940476D02*
X15327200Y-107988095D01*
X15327200Y-107988095D02*
X15374819Y-108083333D01*
X15374819Y-108083333D02*
X15374819Y-108321428D01*
X15374819Y-108321428D02*
X15327200Y-108416666D01*
X15327200Y-108416666D02*
X15279580Y-108464285D01*
X14374819Y-107607142D02*
X15374819Y-107273809D01*
X15374819Y-107273809D02*
X14374819Y-106940476D01*
X26452380Y-151692438D02*
X26357142Y-151644819D01*
X26357142Y-151644819D02*
X26214285Y-151644819D01*
X26214285Y-151644819D02*
X26071428Y-151692438D01*
X26071428Y-151692438D02*
X25976190Y-151787676D01*
X25976190Y-151787676D02*
X25928571Y-151882914D01*
X25928571Y-151882914D02*
X25880952Y-152073390D01*
X25880952Y-152073390D02*
X25880952Y-152216247D01*
X25880952Y-152216247D02*
X25928571Y-152406723D01*
X25928571Y-152406723D02*
X25976190Y-152501961D01*
X25976190Y-152501961D02*
X26071428Y-152597200D01*
X26071428Y-152597200D02*
X26214285Y-152644819D01*
X26214285Y-152644819D02*
X26309523Y-152644819D01*
X26309523Y-152644819D02*
X26452380Y-152597200D01*
X26452380Y-152597200D02*
X26499999Y-152549580D01*
X26499999Y-152549580D02*
X26499999Y-152216247D01*
X26499999Y-152216247D02*
X26309523Y-152216247D01*
X26928571Y-152644819D02*
X26928571Y-151644819D01*
X26928571Y-151644819D02*
X27499999Y-152644819D01*
X27499999Y-152644819D02*
X27499999Y-151644819D01*
X27976190Y-152644819D02*
X27976190Y-151644819D01*
X27976190Y-151644819D02*
X28214285Y-151644819D01*
X28214285Y-151644819D02*
X28357142Y-151692438D01*
X28357142Y-151692438D02*
X28452380Y-151787676D01*
X28452380Y-151787676D02*
X28499999Y-151882914D01*
X28499999Y-151882914D02*
X28547618Y-152073390D01*
X28547618Y-152073390D02*
X28547618Y-152216247D01*
X28547618Y-152216247D02*
X28499999Y-152406723D01*
X28499999Y-152406723D02*
X28452380Y-152501961D01*
X28452380Y-152501961D02*
X28357142Y-152597200D01*
X28357142Y-152597200D02*
X28214285Y-152644819D01*
X28214285Y-152644819D02*
X27976190Y-152644819D01*
X28738095Y-152740057D02*
X29499999Y-152740057D01*
X30214285Y-152644819D02*
X29738095Y-152644819D01*
X29738095Y-152644819D02*
X29738095Y-151644819D01*
X90295238Y-155104819D02*
X90533333Y-156104819D01*
X90533333Y-156104819D02*
X90723809Y-155390533D01*
X90723809Y-155390533D02*
X90914285Y-156104819D01*
X90914285Y-156104819D02*
X91152381Y-155104819D01*
X91485714Y-155200057D02*
X91533333Y-155152438D01*
X91533333Y-155152438D02*
X91628571Y-155104819D01*
X91628571Y-155104819D02*
X91866666Y-155104819D01*
X91866666Y-155104819D02*
X91961904Y-155152438D01*
X91961904Y-155152438D02*
X92009523Y-155200057D01*
X92009523Y-155200057D02*
X92057142Y-155295295D01*
X92057142Y-155295295D02*
X92057142Y-155390533D01*
X92057142Y-155390533D02*
X92009523Y-155533390D01*
X92009523Y-155533390D02*
X91438095Y-156104819D01*
X91438095Y-156104819D02*
X92057142Y-156104819D01*
X92819047Y-155581009D02*
X92961904Y-155628628D01*
X92961904Y-155628628D02*
X93009523Y-155676247D01*
X93009523Y-155676247D02*
X93057142Y-155771485D01*
X93057142Y-155771485D02*
X93057142Y-155914342D01*
X93057142Y-155914342D02*
X93009523Y-156009580D01*
X93009523Y-156009580D02*
X92961904Y-156057200D01*
X92961904Y-156057200D02*
X92866666Y-156104819D01*
X92866666Y-156104819D02*
X92485714Y-156104819D01*
X92485714Y-156104819D02*
X92485714Y-155104819D01*
X92485714Y-155104819D02*
X92819047Y-155104819D01*
X92819047Y-155104819D02*
X92914285Y-155152438D01*
X92914285Y-155152438D02*
X92961904Y-155200057D01*
X92961904Y-155200057D02*
X93009523Y-155295295D01*
X93009523Y-155295295D02*
X93009523Y-155390533D01*
X93009523Y-155390533D02*
X92961904Y-155485771D01*
X92961904Y-155485771D02*
X92914285Y-155533390D01*
X92914285Y-155533390D02*
X92819047Y-155581009D01*
X92819047Y-155581009D02*
X92485714Y-155581009D01*
X54938095Y-156057200D02*
X55080952Y-156104819D01*
X55080952Y-156104819D02*
X55319047Y-156104819D01*
X55319047Y-156104819D02*
X55414285Y-156057200D01*
X55414285Y-156057200D02*
X55461904Y-156009580D01*
X55461904Y-156009580D02*
X55509523Y-155914342D01*
X55509523Y-155914342D02*
X55509523Y-155819104D01*
X55509523Y-155819104D02*
X55461904Y-155723866D01*
X55461904Y-155723866D02*
X55414285Y-155676247D01*
X55414285Y-155676247D02*
X55319047Y-155628628D01*
X55319047Y-155628628D02*
X55128571Y-155581009D01*
X55128571Y-155581009D02*
X55033333Y-155533390D01*
X55033333Y-155533390D02*
X54985714Y-155485771D01*
X54985714Y-155485771D02*
X54938095Y-155390533D01*
X54938095Y-155390533D02*
X54938095Y-155295295D01*
X54938095Y-155295295D02*
X54985714Y-155200057D01*
X54985714Y-155200057D02*
X55033333Y-155152438D01*
X55033333Y-155152438D02*
X55128571Y-155104819D01*
X55128571Y-155104819D02*
X55366666Y-155104819D01*
X55366666Y-155104819D02*
X55509523Y-155152438D01*
X55890476Y-155200057D02*
X55938095Y-155152438D01*
X55938095Y-155152438D02*
X56033333Y-155104819D01*
X56033333Y-155104819D02*
X56271428Y-155104819D01*
X56271428Y-155104819D02*
X56366666Y-155152438D01*
X56366666Y-155152438D02*
X56414285Y-155200057D01*
X56414285Y-155200057D02*
X56461904Y-155295295D01*
X56461904Y-155295295D02*
X56461904Y-155390533D01*
X56461904Y-155390533D02*
X56414285Y-155533390D01*
X56414285Y-155533390D02*
X55842857Y-156104819D01*
X55842857Y-156104819D02*
X56461904Y-156104819D01*
X57238095Y-72407200D02*
X57380952Y-72454819D01*
X57380952Y-72454819D02*
X57619047Y-72454819D01*
X57619047Y-72454819D02*
X57714285Y-72407200D01*
X57714285Y-72407200D02*
X57761904Y-72359580D01*
X57761904Y-72359580D02*
X57809523Y-72264342D01*
X57809523Y-72264342D02*
X57809523Y-72169104D01*
X57809523Y-72169104D02*
X57761904Y-72073866D01*
X57761904Y-72073866D02*
X57714285Y-72026247D01*
X57714285Y-72026247D02*
X57619047Y-71978628D01*
X57619047Y-71978628D02*
X57428571Y-71931009D01*
X57428571Y-71931009D02*
X57333333Y-71883390D01*
X57333333Y-71883390D02*
X57285714Y-71835771D01*
X57285714Y-71835771D02*
X57238095Y-71740533D01*
X57238095Y-71740533D02*
X57238095Y-71645295D01*
X57238095Y-71645295D02*
X57285714Y-71550057D01*
X57285714Y-71550057D02*
X57333333Y-71502438D01*
X57333333Y-71502438D02*
X57428571Y-71454819D01*
X57428571Y-71454819D02*
X57666666Y-71454819D01*
X57666666Y-71454819D02*
X57809523Y-71502438D01*
X58190476Y-71550057D02*
X58238095Y-71502438D01*
X58238095Y-71502438D02*
X58333333Y-71454819D01*
X58333333Y-71454819D02*
X58571428Y-71454819D01*
X58571428Y-71454819D02*
X58666666Y-71502438D01*
X58666666Y-71502438D02*
X58714285Y-71550057D01*
X58714285Y-71550057D02*
X58761904Y-71645295D01*
X58761904Y-71645295D02*
X58761904Y-71740533D01*
X58761904Y-71740533D02*
X58714285Y-71883390D01*
X58714285Y-71883390D02*
X58142857Y-72454819D01*
X58142857Y-72454819D02*
X58761904Y-72454819D01*
X156974819Y-44569047D02*
X156974819Y-45140475D01*
X156974819Y-44854761D02*
X155974819Y-44854761D01*
X155974819Y-44854761D02*
X156117676Y-44949999D01*
X156117676Y-44949999D02*
X156212914Y-45045237D01*
X156212914Y-45045237D02*
X156260533Y-45140475D01*
X156070057Y-44188094D02*
X156022438Y-44140475D01*
X156022438Y-44140475D02*
X155974819Y-44045237D01*
X155974819Y-44045237D02*
X155974819Y-43807142D01*
X155974819Y-43807142D02*
X156022438Y-43711904D01*
X156022438Y-43711904D02*
X156070057Y-43664285D01*
X156070057Y-43664285D02*
X156165295Y-43616666D01*
X156165295Y-43616666D02*
X156260533Y-43616666D01*
X156260533Y-43616666D02*
X156403390Y-43664285D01*
X156403390Y-43664285D02*
X156974819Y-44235713D01*
X156974819Y-44235713D02*
X156974819Y-43616666D01*
X155974819Y-43330951D02*
X156974819Y-42997618D01*
X156974819Y-42997618D02*
X155974819Y-42664285D01*
X14374819Y-119940476D02*
X14374819Y-120416666D01*
X14374819Y-120416666D02*
X14851009Y-120464285D01*
X14851009Y-120464285D02*
X14803390Y-120416666D01*
X14803390Y-120416666D02*
X14755771Y-120321428D01*
X14755771Y-120321428D02*
X14755771Y-120083333D01*
X14755771Y-120083333D02*
X14803390Y-119988095D01*
X14803390Y-119988095D02*
X14851009Y-119940476D01*
X14851009Y-119940476D02*
X14946247Y-119892857D01*
X14946247Y-119892857D02*
X15184342Y-119892857D01*
X15184342Y-119892857D02*
X15279580Y-119940476D01*
X15279580Y-119940476D02*
X15327200Y-119988095D01*
X15327200Y-119988095D02*
X15374819Y-120083333D01*
X15374819Y-120083333D02*
X15374819Y-120321428D01*
X15374819Y-120321428D02*
X15327200Y-120416666D01*
X15327200Y-120416666D02*
X15279580Y-120464285D01*
X14374819Y-119607142D02*
X15374819Y-119273809D01*
X15374819Y-119273809D02*
X14374819Y-118940476D01*
X78366667Y-155104819D02*
X78604762Y-156104819D01*
X78604762Y-156104819D02*
X78795238Y-155390533D01*
X78795238Y-155390533D02*
X78985714Y-156104819D01*
X78985714Y-156104819D02*
X79223810Y-155104819D01*
X79557143Y-155200057D02*
X79604762Y-155152438D01*
X79604762Y-155152438D02*
X79700000Y-155104819D01*
X79700000Y-155104819D02*
X79938095Y-155104819D01*
X79938095Y-155104819D02*
X80033333Y-155152438D01*
X80033333Y-155152438D02*
X80080952Y-155200057D01*
X80080952Y-155200057D02*
X80128571Y-155295295D01*
X80128571Y-155295295D02*
X80128571Y-155390533D01*
X80128571Y-155390533D02*
X80080952Y-155533390D01*
X80080952Y-155533390D02*
X79509524Y-156104819D01*
X79509524Y-156104819D02*
X80128571Y-156104819D01*
X80509524Y-155819104D02*
X80985714Y-155819104D01*
X80414286Y-156104819D02*
X80747619Y-155104819D01*
X80747619Y-155104819D02*
X81080952Y-156104819D01*
X150295238Y-155104819D02*
X150533333Y-156104819D01*
X150533333Y-156104819D02*
X150723809Y-155390533D01*
X150723809Y-155390533D02*
X150914285Y-156104819D01*
X150914285Y-156104819D02*
X151152381Y-155104819D01*
X152057142Y-156104819D02*
X151485714Y-156104819D01*
X151771428Y-156104819D02*
X151771428Y-155104819D01*
X151771428Y-155104819D02*
X151676190Y-155247676D01*
X151676190Y-155247676D02*
X151580952Y-155342914D01*
X151580952Y-155342914D02*
X151485714Y-155390533D01*
X152819047Y-155581009D02*
X152961904Y-155628628D01*
X152961904Y-155628628D02*
X153009523Y-155676247D01*
X153009523Y-155676247D02*
X153057142Y-155771485D01*
X153057142Y-155771485D02*
X153057142Y-155914342D01*
X153057142Y-155914342D02*
X153009523Y-156009580D01*
X153009523Y-156009580D02*
X152961904Y-156057200D01*
X152961904Y-156057200D02*
X152866666Y-156104819D01*
X152866666Y-156104819D02*
X152485714Y-156104819D01*
X152485714Y-156104819D02*
X152485714Y-155104819D01*
X152485714Y-155104819D02*
X152819047Y-155104819D01*
X152819047Y-155104819D02*
X152914285Y-155152438D01*
X152914285Y-155152438D02*
X152961904Y-155200057D01*
X152961904Y-155200057D02*
X153009523Y-155295295D01*
X153009523Y-155295295D02*
X153009523Y-155390533D01*
X153009523Y-155390533D02*
X152961904Y-155485771D01*
X152961904Y-155485771D02*
X152914285Y-155533390D01*
X152914285Y-155533390D02*
X152819047Y-155581009D01*
X152819047Y-155581009D02*
X152485714Y-155581009D01*
X27809523Y-121644819D02*
X27333333Y-121644819D01*
X27333333Y-121644819D02*
X27285714Y-122121009D01*
X27285714Y-122121009D02*
X27333333Y-122073390D01*
X27333333Y-122073390D02*
X27428571Y-122025771D01*
X27428571Y-122025771D02*
X27666666Y-122025771D01*
X27666666Y-122025771D02*
X27761904Y-122073390D01*
X27761904Y-122073390D02*
X27809523Y-122121009D01*
X27809523Y-122121009D02*
X27857142Y-122216247D01*
X27857142Y-122216247D02*
X27857142Y-122454342D01*
X27857142Y-122454342D02*
X27809523Y-122549580D01*
X27809523Y-122549580D02*
X27761904Y-122597200D01*
X27761904Y-122597200D02*
X27666666Y-122644819D01*
X27666666Y-122644819D02*
X27428571Y-122644819D01*
X27428571Y-122644819D02*
X27333333Y-122597200D01*
X27333333Y-122597200D02*
X27285714Y-122549580D01*
X28142857Y-121644819D02*
X28476190Y-122644819D01*
X28476190Y-122644819D02*
X28809523Y-121644819D01*
X14422438Y-139297619D02*
X14374819Y-139392857D01*
X14374819Y-139392857D02*
X14374819Y-139535714D01*
X14374819Y-139535714D02*
X14422438Y-139678571D01*
X14422438Y-139678571D02*
X14517676Y-139773809D01*
X14517676Y-139773809D02*
X14612914Y-139821428D01*
X14612914Y-139821428D02*
X14803390Y-139869047D01*
X14803390Y-139869047D02*
X14946247Y-139869047D01*
X14946247Y-139869047D02*
X15136723Y-139821428D01*
X15136723Y-139821428D02*
X15231961Y-139773809D01*
X15231961Y-139773809D02*
X15327200Y-139678571D01*
X15327200Y-139678571D02*
X15374819Y-139535714D01*
X15374819Y-139535714D02*
X15374819Y-139440476D01*
X15374819Y-139440476D02*
X15327200Y-139297619D01*
X15327200Y-139297619D02*
X15279580Y-139250000D01*
X15279580Y-139250000D02*
X14946247Y-139250000D01*
X14946247Y-139250000D02*
X14946247Y-139440476D01*
X15374819Y-138821428D02*
X14374819Y-138821428D01*
X14374819Y-138821428D02*
X15374819Y-138250000D01*
X15374819Y-138250000D02*
X14374819Y-138250000D01*
X15374819Y-137773809D02*
X14374819Y-137773809D01*
X14374819Y-137773809D02*
X14374819Y-137535714D01*
X14374819Y-137535714D02*
X14422438Y-137392857D01*
X14422438Y-137392857D02*
X14517676Y-137297619D01*
X14517676Y-137297619D02*
X14612914Y-137250000D01*
X14612914Y-137250000D02*
X14803390Y-137202381D01*
X14803390Y-137202381D02*
X14946247Y-137202381D01*
X14946247Y-137202381D02*
X15136723Y-137250000D01*
X15136723Y-137250000D02*
X15231961Y-137297619D01*
X15231961Y-137297619D02*
X15327200Y-137392857D01*
X15327200Y-137392857D02*
X15374819Y-137535714D01*
X15374819Y-137535714D02*
X15374819Y-137773809D01*
X15470057Y-137011905D02*
X15470057Y-136250000D01*
X15374819Y-135535714D02*
X15374819Y-136011904D01*
X15374819Y-136011904D02*
X14374819Y-136011904D01*
X67009524Y-155581009D02*
X67342857Y-155581009D01*
X67485714Y-156104819D02*
X67009524Y-156104819D01*
X67009524Y-156104819D02*
X67009524Y-155104819D01*
X67009524Y-155104819D02*
X67485714Y-155104819D01*
X67866667Y-155200057D02*
X67914286Y-155152438D01*
X67914286Y-155152438D02*
X68009524Y-155104819D01*
X68009524Y-155104819D02*
X68247619Y-155104819D01*
X68247619Y-155104819D02*
X68342857Y-155152438D01*
X68342857Y-155152438D02*
X68390476Y-155200057D01*
X68390476Y-155200057D02*
X68438095Y-155295295D01*
X68438095Y-155295295D02*
X68438095Y-155390533D01*
X68438095Y-155390533D02*
X68390476Y-155533390D01*
X68390476Y-155533390D02*
X67819048Y-156104819D01*
X67819048Y-156104819D02*
X68438095Y-156104819D01*
X26809524Y-32597200D02*
X26952381Y-32644819D01*
X26952381Y-32644819D02*
X27190476Y-32644819D01*
X27190476Y-32644819D02*
X27285714Y-32597200D01*
X27285714Y-32597200D02*
X27333333Y-32549580D01*
X27333333Y-32549580D02*
X27380952Y-32454342D01*
X27380952Y-32454342D02*
X27380952Y-32359104D01*
X27380952Y-32359104D02*
X27333333Y-32263866D01*
X27333333Y-32263866D02*
X27285714Y-32216247D01*
X27285714Y-32216247D02*
X27190476Y-32168628D01*
X27190476Y-32168628D02*
X27000000Y-32121009D01*
X27000000Y-32121009D02*
X26904762Y-32073390D01*
X26904762Y-32073390D02*
X26857143Y-32025771D01*
X26857143Y-32025771D02*
X26809524Y-31930533D01*
X26809524Y-31930533D02*
X26809524Y-31835295D01*
X26809524Y-31835295D02*
X26857143Y-31740057D01*
X26857143Y-31740057D02*
X26904762Y-31692438D01*
X26904762Y-31692438D02*
X27000000Y-31644819D01*
X27000000Y-31644819D02*
X27238095Y-31644819D01*
X27238095Y-31644819D02*
X27380952Y-31692438D01*
X28380952Y-32549580D02*
X28333333Y-32597200D01*
X28333333Y-32597200D02*
X28190476Y-32644819D01*
X28190476Y-32644819D02*
X28095238Y-32644819D01*
X28095238Y-32644819D02*
X27952381Y-32597200D01*
X27952381Y-32597200D02*
X27857143Y-32501961D01*
X27857143Y-32501961D02*
X27809524Y-32406723D01*
X27809524Y-32406723D02*
X27761905Y-32216247D01*
X27761905Y-32216247D02*
X27761905Y-32073390D01*
X27761905Y-32073390D02*
X27809524Y-31882914D01*
X27809524Y-31882914D02*
X27857143Y-31787676D01*
X27857143Y-31787676D02*
X27952381Y-31692438D01*
X27952381Y-31692438D02*
X28095238Y-31644819D01*
X28095238Y-31644819D02*
X28190476Y-31644819D01*
X28190476Y-31644819D02*
X28333333Y-31692438D01*
X28333333Y-31692438D02*
X28380952Y-31740057D01*
X29285714Y-32644819D02*
X28809524Y-32644819D01*
X28809524Y-32644819D02*
X28809524Y-31644819D01*
X155974819Y-86569048D02*
X155974819Y-87045238D01*
X155974819Y-87045238D02*
X156451009Y-87092857D01*
X156451009Y-87092857D02*
X156403390Y-87045238D01*
X156403390Y-87045238D02*
X156355771Y-86950000D01*
X156355771Y-86950000D02*
X156355771Y-86711905D01*
X156355771Y-86711905D02*
X156403390Y-86616667D01*
X156403390Y-86616667D02*
X156451009Y-86569048D01*
X156451009Y-86569048D02*
X156546247Y-86521429D01*
X156546247Y-86521429D02*
X156784342Y-86521429D01*
X156784342Y-86521429D02*
X156879580Y-86569048D01*
X156879580Y-86569048D02*
X156927200Y-86616667D01*
X156927200Y-86616667D02*
X156974819Y-86711905D01*
X156974819Y-86711905D02*
X156974819Y-86950000D01*
X156974819Y-86950000D02*
X156927200Y-87045238D01*
X156927200Y-87045238D02*
X156879580Y-87092857D01*
X155974819Y-86235714D02*
X156974819Y-85902381D01*
X156974819Y-85902381D02*
X155974819Y-85569048D01*
X156927200Y-84521428D02*
X156974819Y-84378571D01*
X156974819Y-84378571D02*
X156974819Y-84140476D01*
X156974819Y-84140476D02*
X156927200Y-84045238D01*
X156927200Y-84045238D02*
X156879580Y-83997619D01*
X156879580Y-83997619D02*
X156784342Y-83950000D01*
X156784342Y-83950000D02*
X156689104Y-83950000D01*
X156689104Y-83950000D02*
X156593866Y-83997619D01*
X156593866Y-83997619D02*
X156546247Y-84045238D01*
X156546247Y-84045238D02*
X156498628Y-84140476D01*
X156498628Y-84140476D02*
X156451009Y-84330952D01*
X156451009Y-84330952D02*
X156403390Y-84426190D01*
X156403390Y-84426190D02*
X156355771Y-84473809D01*
X156355771Y-84473809D02*
X156260533Y-84521428D01*
X156260533Y-84521428D02*
X156165295Y-84521428D01*
X156165295Y-84521428D02*
X156070057Y-84473809D01*
X156070057Y-84473809D02*
X156022438Y-84426190D01*
X156022438Y-84426190D02*
X155974819Y-84330952D01*
X155974819Y-84330952D02*
X155974819Y-84092857D01*
X155974819Y-84092857D02*
X156022438Y-83950000D01*
X156927200Y-83140476D02*
X156974819Y-83235714D01*
X156974819Y-83235714D02*
X156974819Y-83426190D01*
X156974819Y-83426190D02*
X156927200Y-83521428D01*
X156927200Y-83521428D02*
X156831961Y-83569047D01*
X156831961Y-83569047D02*
X156451009Y-83569047D01*
X156451009Y-83569047D02*
X156355771Y-83521428D01*
X156355771Y-83521428D02*
X156308152Y-83426190D01*
X156308152Y-83426190D02*
X156308152Y-83235714D01*
X156308152Y-83235714D02*
X156355771Y-83140476D01*
X156355771Y-83140476D02*
X156451009Y-83092857D01*
X156451009Y-83092857D02*
X156546247Y-83092857D01*
X156546247Y-83092857D02*
X156641485Y-83569047D01*
X156974819Y-82664285D02*
X156308152Y-82664285D01*
X156498628Y-82664285D02*
X156403390Y-82616666D01*
X156403390Y-82616666D02*
X156355771Y-82569047D01*
X156355771Y-82569047D02*
X156308152Y-82473809D01*
X156308152Y-82473809D02*
X156308152Y-82378571D01*
X156308152Y-82140475D02*
X156974819Y-81902380D01*
X156974819Y-81902380D02*
X156308152Y-81664285D01*
X156974819Y-81140475D02*
X156927200Y-81235713D01*
X156927200Y-81235713D02*
X156879580Y-81283332D01*
X156879580Y-81283332D02*
X156784342Y-81330951D01*
X156784342Y-81330951D02*
X156498628Y-81330951D01*
X156498628Y-81330951D02*
X156403390Y-81283332D01*
X156403390Y-81283332D02*
X156355771Y-81235713D01*
X156355771Y-81235713D02*
X156308152Y-81140475D01*
X156308152Y-81140475D02*
X156308152Y-80997618D01*
X156308152Y-80997618D02*
X156355771Y-80902380D01*
X156355771Y-80902380D02*
X156403390Y-80854761D01*
X156403390Y-80854761D02*
X156498628Y-80807142D01*
X156498628Y-80807142D02*
X156784342Y-80807142D01*
X156784342Y-80807142D02*
X156879580Y-80854761D01*
X156879580Y-80854761D02*
X156927200Y-80902380D01*
X156927200Y-80902380D02*
X156974819Y-80997618D01*
X156974819Y-80997618D02*
X156974819Y-81140475D01*
X104666667Y-103454819D02*
X104904762Y-104454819D01*
X104904762Y-104454819D02*
X105095238Y-103740533D01*
X105095238Y-103740533D02*
X105285714Y-104454819D01*
X105285714Y-104454819D02*
X105523810Y-103454819D01*
X106428571Y-104454819D02*
X105857143Y-104454819D01*
X106142857Y-104454819D02*
X106142857Y-103454819D01*
X106142857Y-103454819D02*
X106047619Y-103597676D01*
X106047619Y-103597676D02*
X105952381Y-103692914D01*
X105952381Y-103692914D02*
X105857143Y-103740533D01*
X106809524Y-104169104D02*
X107285714Y-104169104D01*
X106714286Y-104454819D02*
X107047619Y-103454819D01*
X107047619Y-103454819D02*
X107380952Y-104454819D01*
X105309524Y-87931009D02*
X105642857Y-87931009D01*
X105785714Y-88454819D02*
X105309524Y-88454819D01*
X105309524Y-88454819D02*
X105309524Y-87454819D01*
X105309524Y-87454819D02*
X105785714Y-87454819D01*
X106738095Y-88454819D02*
X106166667Y-88454819D01*
X106452381Y-88454819D02*
X106452381Y-87454819D01*
X106452381Y-87454819D02*
X106357143Y-87597676D01*
X106357143Y-87597676D02*
X106261905Y-87692914D01*
X106261905Y-87692914D02*
X106166667Y-87740533D01*
X155974819Y-73426189D02*
X155974819Y-72759523D01*
X155974819Y-72759523D02*
X156974819Y-73188094D01*
X156879580Y-72378570D02*
X156927200Y-72330951D01*
X156927200Y-72330951D02*
X156974819Y-72378570D01*
X156974819Y-72378570D02*
X156927200Y-72426189D01*
X156927200Y-72426189D02*
X156879580Y-72378570D01*
X156879580Y-72378570D02*
X156974819Y-72378570D01*
X156308152Y-71473809D02*
X156974819Y-71473809D01*
X155927200Y-71711904D02*
X156641485Y-71949999D01*
X156641485Y-71949999D02*
X156641485Y-71330952D01*
X155974819Y-71092856D02*
X156974819Y-70759523D01*
X156974819Y-70759523D02*
X155974819Y-70426190D01*
X15327200Y-18940475D02*
X15374819Y-18797618D01*
X15374819Y-18797618D02*
X15374819Y-18559523D01*
X15374819Y-18559523D02*
X15327200Y-18464285D01*
X15327200Y-18464285D02*
X15279580Y-18416666D01*
X15279580Y-18416666D02*
X15184342Y-18369047D01*
X15184342Y-18369047D02*
X15089104Y-18369047D01*
X15089104Y-18369047D02*
X14993866Y-18416666D01*
X14993866Y-18416666D02*
X14946247Y-18464285D01*
X14946247Y-18464285D02*
X14898628Y-18559523D01*
X14898628Y-18559523D02*
X14851009Y-18749999D01*
X14851009Y-18749999D02*
X14803390Y-18845237D01*
X14803390Y-18845237D02*
X14755771Y-18892856D01*
X14755771Y-18892856D02*
X14660533Y-18940475D01*
X14660533Y-18940475D02*
X14565295Y-18940475D01*
X14565295Y-18940475D02*
X14470057Y-18892856D01*
X14470057Y-18892856D02*
X14422438Y-18845237D01*
X14422438Y-18845237D02*
X14374819Y-18749999D01*
X14374819Y-18749999D02*
X14374819Y-18511904D01*
X14374819Y-18511904D02*
X14422438Y-18369047D01*
X15279580Y-17369047D02*
X15327200Y-17416666D01*
X15327200Y-17416666D02*
X15374819Y-17559523D01*
X15374819Y-17559523D02*
X15374819Y-17654761D01*
X15374819Y-17654761D02*
X15327200Y-17797618D01*
X15327200Y-17797618D02*
X15231961Y-17892856D01*
X15231961Y-17892856D02*
X15136723Y-17940475D01*
X15136723Y-17940475D02*
X14946247Y-17988094D01*
X14946247Y-17988094D02*
X14803390Y-17988094D01*
X14803390Y-17988094D02*
X14612914Y-17940475D01*
X14612914Y-17940475D02*
X14517676Y-17892856D01*
X14517676Y-17892856D02*
X14422438Y-17797618D01*
X14422438Y-17797618D02*
X14374819Y-17654761D01*
X14374819Y-17654761D02*
X14374819Y-17559523D01*
X14374819Y-17559523D02*
X14422438Y-17416666D01*
X14422438Y-17416666D02*
X14470057Y-17369047D01*
X15374819Y-16464285D02*
X15374819Y-16940475D01*
X15374819Y-16940475D02*
X14374819Y-16940475D01*
X104595238Y-119454819D02*
X104833333Y-120454819D01*
X104833333Y-120454819D02*
X105023809Y-119740533D01*
X105023809Y-119740533D02*
X105214285Y-120454819D01*
X105214285Y-120454819D02*
X105452381Y-119454819D01*
X106357142Y-120454819D02*
X105785714Y-120454819D01*
X106071428Y-120454819D02*
X106071428Y-119454819D01*
X106071428Y-119454819D02*
X105976190Y-119597676D01*
X105976190Y-119597676D02*
X105880952Y-119692914D01*
X105880952Y-119692914D02*
X105785714Y-119740533D01*
X107119047Y-119931009D02*
X107261904Y-119978628D01*
X107261904Y-119978628D02*
X107309523Y-120026247D01*
X107309523Y-120026247D02*
X107357142Y-120121485D01*
X107357142Y-120121485D02*
X107357142Y-120264342D01*
X107357142Y-120264342D02*
X107309523Y-120359580D01*
X107309523Y-120359580D02*
X107261904Y-120407200D01*
X107261904Y-120407200D02*
X107166666Y-120454819D01*
X107166666Y-120454819D02*
X106785714Y-120454819D01*
X106785714Y-120454819D02*
X106785714Y-119454819D01*
X106785714Y-119454819D02*
X107119047Y-119454819D01*
X107119047Y-119454819D02*
X107214285Y-119502438D01*
X107214285Y-119502438D02*
X107261904Y-119550057D01*
X107261904Y-119550057D02*
X107309523Y-119645295D01*
X107309523Y-119645295D02*
X107309523Y-119740533D01*
X107309523Y-119740533D02*
X107261904Y-119835771D01*
X107261904Y-119835771D02*
X107214285Y-119883390D01*
X107214285Y-119883390D02*
X107119047Y-119931009D01*
X107119047Y-119931009D02*
X106785714Y-119931009D01*
X56666667Y-103454819D02*
X56904762Y-104454819D01*
X56904762Y-104454819D02*
X57095238Y-103740533D01*
X57095238Y-103740533D02*
X57285714Y-104454819D01*
X57285714Y-104454819D02*
X57523810Y-103454819D01*
X57857143Y-103550057D02*
X57904762Y-103502438D01*
X57904762Y-103502438D02*
X58000000Y-103454819D01*
X58000000Y-103454819D02*
X58238095Y-103454819D01*
X58238095Y-103454819D02*
X58333333Y-103502438D01*
X58333333Y-103502438D02*
X58380952Y-103550057D01*
X58380952Y-103550057D02*
X58428571Y-103645295D01*
X58428571Y-103645295D02*
X58428571Y-103740533D01*
X58428571Y-103740533D02*
X58380952Y-103883390D01*
X58380952Y-103883390D02*
X57809524Y-104454819D01*
X57809524Y-104454819D02*
X58428571Y-104454819D01*
X58809524Y-104169104D02*
X59285714Y-104169104D01*
X58714286Y-104454819D02*
X59047619Y-103454819D01*
X59047619Y-103454819D02*
X59380952Y-104454819D01*
X26761905Y-91644819D02*
X27380952Y-91644819D01*
X27380952Y-91644819D02*
X27047619Y-92025771D01*
X27047619Y-92025771D02*
X27190476Y-92025771D01*
X27190476Y-92025771D02*
X27285714Y-92073390D01*
X27285714Y-92073390D02*
X27333333Y-92121009D01*
X27333333Y-92121009D02*
X27380952Y-92216247D01*
X27380952Y-92216247D02*
X27380952Y-92454342D01*
X27380952Y-92454342D02*
X27333333Y-92549580D01*
X27333333Y-92549580D02*
X27285714Y-92597200D01*
X27285714Y-92597200D02*
X27190476Y-92644819D01*
X27190476Y-92644819D02*
X26904762Y-92644819D01*
X26904762Y-92644819D02*
X26809524Y-92597200D01*
X26809524Y-92597200D02*
X26761905Y-92549580D01*
X27666667Y-91644819D02*
X28000000Y-92644819D01*
X28000000Y-92644819D02*
X28333333Y-91644819D01*
X28571429Y-91644819D02*
X29190476Y-91644819D01*
X29190476Y-91644819D02*
X28857143Y-92025771D01*
X28857143Y-92025771D02*
X29000000Y-92025771D01*
X29000000Y-92025771D02*
X29095238Y-92073390D01*
X29095238Y-92073390D02*
X29142857Y-92121009D01*
X29142857Y-92121009D02*
X29190476Y-92216247D01*
X29190476Y-92216247D02*
X29190476Y-92454342D01*
X29190476Y-92454342D02*
X29142857Y-92549580D01*
X29142857Y-92549580D02*
X29095238Y-92597200D01*
X29095238Y-92597200D02*
X29000000Y-92644819D01*
X29000000Y-92644819D02*
X28714286Y-92644819D01*
X28714286Y-92644819D02*
X28619048Y-92597200D01*
X28619048Y-92597200D02*
X28571429Y-92549580D01*
X14422438Y-151297619D02*
X14374819Y-151392857D01*
X14374819Y-151392857D02*
X14374819Y-151535714D01*
X14374819Y-151535714D02*
X14422438Y-151678571D01*
X14422438Y-151678571D02*
X14517676Y-151773809D01*
X14517676Y-151773809D02*
X14612914Y-151821428D01*
X14612914Y-151821428D02*
X14803390Y-151869047D01*
X14803390Y-151869047D02*
X14946247Y-151869047D01*
X14946247Y-151869047D02*
X15136723Y-151821428D01*
X15136723Y-151821428D02*
X15231961Y-151773809D01*
X15231961Y-151773809D02*
X15327200Y-151678571D01*
X15327200Y-151678571D02*
X15374819Y-151535714D01*
X15374819Y-151535714D02*
X15374819Y-151440476D01*
X15374819Y-151440476D02*
X15327200Y-151297619D01*
X15327200Y-151297619D02*
X15279580Y-151250000D01*
X15279580Y-151250000D02*
X14946247Y-151250000D01*
X14946247Y-151250000D02*
X14946247Y-151440476D01*
X15374819Y-150821428D02*
X14374819Y-150821428D01*
X14374819Y-150821428D02*
X15374819Y-150250000D01*
X15374819Y-150250000D02*
X14374819Y-150250000D01*
X15374819Y-149773809D02*
X14374819Y-149773809D01*
X14374819Y-149773809D02*
X14374819Y-149535714D01*
X14374819Y-149535714D02*
X14422438Y-149392857D01*
X14422438Y-149392857D02*
X14517676Y-149297619D01*
X14517676Y-149297619D02*
X14612914Y-149250000D01*
X14612914Y-149250000D02*
X14803390Y-149202381D01*
X14803390Y-149202381D02*
X14946247Y-149202381D01*
X14946247Y-149202381D02*
X15136723Y-149250000D01*
X15136723Y-149250000D02*
X15231961Y-149297619D01*
X15231961Y-149297619D02*
X15327200Y-149392857D01*
X15327200Y-149392857D02*
X15374819Y-149535714D01*
X15374819Y-149535714D02*
X15374819Y-149773809D01*
X15470057Y-149011905D02*
X15470057Y-148250000D01*
X15374819Y-147535714D02*
X15374819Y-148011904D01*
X15374819Y-148011904D02*
X14374819Y-148011904D01*
X15327200Y-60964285D02*
X15374819Y-60821428D01*
X15374819Y-60821428D02*
X15374819Y-60583333D01*
X15374819Y-60583333D02*
X15327200Y-60488095D01*
X15327200Y-60488095D02*
X15279580Y-60440476D01*
X15279580Y-60440476D02*
X15184342Y-60392857D01*
X15184342Y-60392857D02*
X15089104Y-60392857D01*
X15089104Y-60392857D02*
X14993866Y-60440476D01*
X14993866Y-60440476D02*
X14946247Y-60488095D01*
X14946247Y-60488095D02*
X14898628Y-60583333D01*
X14898628Y-60583333D02*
X14851009Y-60773809D01*
X14851009Y-60773809D02*
X14803390Y-60869047D01*
X14803390Y-60869047D02*
X14755771Y-60916666D01*
X14755771Y-60916666D02*
X14660533Y-60964285D01*
X14660533Y-60964285D02*
X14565295Y-60964285D01*
X14565295Y-60964285D02*
X14470057Y-60916666D01*
X14470057Y-60916666D02*
X14422438Y-60869047D01*
X14422438Y-60869047D02*
X14374819Y-60773809D01*
X14374819Y-60773809D02*
X14374819Y-60535714D01*
X14374819Y-60535714D02*
X14422438Y-60392857D01*
X15374819Y-59964285D02*
X14374819Y-59964285D01*
X14374819Y-59964285D02*
X14374819Y-59726190D01*
X14374819Y-59726190D02*
X14422438Y-59583333D01*
X14422438Y-59583333D02*
X14517676Y-59488095D01*
X14517676Y-59488095D02*
X14612914Y-59440476D01*
X14612914Y-59440476D02*
X14803390Y-59392857D01*
X14803390Y-59392857D02*
X14946247Y-59392857D01*
X14946247Y-59392857D02*
X15136723Y-59440476D01*
X15136723Y-59440476D02*
X15231961Y-59488095D01*
X15231961Y-59488095D02*
X15327200Y-59583333D01*
X15327200Y-59583333D02*
X15374819Y-59726190D01*
X15374819Y-59726190D02*
X15374819Y-59964285D01*
X15089104Y-59011904D02*
X15089104Y-58535714D01*
X15374819Y-59107142D02*
X14374819Y-58773809D01*
X14374819Y-58773809D02*
X15374819Y-58440476D01*
X156022438Y-100711904D02*
X155974819Y-100807142D01*
X155974819Y-100807142D02*
X155974819Y-100949999D01*
X155974819Y-100949999D02*
X156022438Y-101092856D01*
X156022438Y-101092856D02*
X156117676Y-101188094D01*
X156117676Y-101188094D02*
X156212914Y-101235713D01*
X156212914Y-101235713D02*
X156403390Y-101283332D01*
X156403390Y-101283332D02*
X156546247Y-101283332D01*
X156546247Y-101283332D02*
X156736723Y-101235713D01*
X156736723Y-101235713D02*
X156831961Y-101188094D01*
X156831961Y-101188094D02*
X156927200Y-101092856D01*
X156927200Y-101092856D02*
X156974819Y-100949999D01*
X156974819Y-100949999D02*
X156974819Y-100854761D01*
X156974819Y-100854761D02*
X156927200Y-100711904D01*
X156927200Y-100711904D02*
X156879580Y-100664285D01*
X156879580Y-100664285D02*
X156546247Y-100664285D01*
X156546247Y-100664285D02*
X156546247Y-100854761D01*
X156974819Y-100235713D02*
X155974819Y-100235713D01*
X155974819Y-100235713D02*
X156974819Y-99664285D01*
X156974819Y-99664285D02*
X155974819Y-99664285D01*
X156974819Y-99188094D02*
X155974819Y-99188094D01*
X155974819Y-99188094D02*
X155974819Y-98949999D01*
X155974819Y-98949999D02*
X156022438Y-98807142D01*
X156022438Y-98807142D02*
X156117676Y-98711904D01*
X156117676Y-98711904D02*
X156212914Y-98664285D01*
X156212914Y-98664285D02*
X156403390Y-98616666D01*
X156403390Y-98616666D02*
X156546247Y-98616666D01*
X156546247Y-98616666D02*
X156736723Y-98664285D01*
X156736723Y-98664285D02*
X156831961Y-98711904D01*
X156831961Y-98711904D02*
X156927200Y-98807142D01*
X156927200Y-98807142D02*
X156974819Y-98949999D01*
X156974819Y-98949999D02*
X156974819Y-99188094D01*
X57309524Y-87931009D02*
X57642857Y-87931009D01*
X57785714Y-88454819D02*
X57309524Y-88454819D01*
X57309524Y-88454819D02*
X57309524Y-87454819D01*
X57309524Y-87454819D02*
X57785714Y-87454819D01*
X58166667Y-87550057D02*
X58214286Y-87502438D01*
X58214286Y-87502438D02*
X58309524Y-87454819D01*
X58309524Y-87454819D02*
X58547619Y-87454819D01*
X58547619Y-87454819D02*
X58642857Y-87502438D01*
X58642857Y-87502438D02*
X58690476Y-87550057D01*
X58690476Y-87550057D02*
X58738095Y-87645295D01*
X58738095Y-87645295D02*
X58738095Y-87740533D01*
X58738095Y-87740533D02*
X58690476Y-87883390D01*
X58690476Y-87883390D02*
X58119048Y-88454819D01*
X58119048Y-88454819D02*
X58738095Y-88454819D01*
X102938095Y-141581009D02*
X102604762Y-141581009D01*
X102604762Y-142104819D02*
X102604762Y-141104819D01*
X102604762Y-141104819D02*
X103080952Y-141104819D01*
X103890476Y-142104819D02*
X103890476Y-141581009D01*
X103890476Y-141581009D02*
X103842857Y-141485771D01*
X103842857Y-141485771D02*
X103747619Y-141438152D01*
X103747619Y-141438152D02*
X103557143Y-141438152D01*
X103557143Y-141438152D02*
X103461905Y-141485771D01*
X103890476Y-142057200D02*
X103795238Y-142104819D01*
X103795238Y-142104819D02*
X103557143Y-142104819D01*
X103557143Y-142104819D02*
X103461905Y-142057200D01*
X103461905Y-142057200D02*
X103414286Y-141961961D01*
X103414286Y-141961961D02*
X103414286Y-141866723D01*
X103414286Y-141866723D02*
X103461905Y-141771485D01*
X103461905Y-141771485D02*
X103557143Y-141723866D01*
X103557143Y-141723866D02*
X103795238Y-141723866D01*
X103795238Y-141723866D02*
X103890476Y-141676247D01*
X104366667Y-141438152D02*
X104366667Y-142104819D01*
X104366667Y-141533390D02*
X104414286Y-141485771D01*
X104414286Y-141485771D02*
X104509524Y-141438152D01*
X104509524Y-141438152D02*
X104652381Y-141438152D01*
X104652381Y-141438152D02*
X104747619Y-141485771D01*
X104747619Y-141485771D02*
X104795238Y-141581009D01*
X104795238Y-141581009D02*
X104795238Y-142104819D01*
X90704762Y-14804819D02*
X90704762Y-13804819D01*
X90704762Y-13804819D02*
X91085714Y-13804819D01*
X91085714Y-13804819D02*
X91180952Y-13852438D01*
X91180952Y-13852438D02*
X91228571Y-13900057D01*
X91228571Y-13900057D02*
X91276190Y-13995295D01*
X91276190Y-13995295D02*
X91276190Y-14138152D01*
X91276190Y-14138152D02*
X91228571Y-14233390D01*
X91228571Y-14233390D02*
X91180952Y-14281009D01*
X91180952Y-14281009D02*
X91085714Y-14328628D01*
X91085714Y-14328628D02*
X90704762Y-14328628D01*
X92276190Y-14709580D02*
X92228571Y-14757200D01*
X92228571Y-14757200D02*
X92085714Y-14804819D01*
X92085714Y-14804819D02*
X91990476Y-14804819D01*
X91990476Y-14804819D02*
X91847619Y-14757200D01*
X91847619Y-14757200D02*
X91752381Y-14661961D01*
X91752381Y-14661961D02*
X91704762Y-14566723D01*
X91704762Y-14566723D02*
X91657143Y-14376247D01*
X91657143Y-14376247D02*
X91657143Y-14233390D01*
X91657143Y-14233390D02*
X91704762Y-14042914D01*
X91704762Y-14042914D02*
X91752381Y-13947676D01*
X91752381Y-13947676D02*
X91847619Y-13852438D01*
X91847619Y-13852438D02*
X91990476Y-13804819D01*
X91990476Y-13804819D02*
X92085714Y-13804819D01*
X92085714Y-13804819D02*
X92228571Y-13852438D01*
X92228571Y-13852438D02*
X92276190Y-13900057D01*
X92657143Y-14519104D02*
X93133333Y-14519104D01*
X92561905Y-14804819D02*
X92895238Y-13804819D01*
X92895238Y-13804819D02*
X93228571Y-14804819D01*
X93609524Y-14804819D02*
X93800000Y-14804819D01*
X93800000Y-14804819D02*
X93895238Y-14757200D01*
X93895238Y-14757200D02*
X93942857Y-14709580D01*
X93942857Y-14709580D02*
X94038095Y-14566723D01*
X94038095Y-14566723D02*
X94085714Y-14376247D01*
X94085714Y-14376247D02*
X94085714Y-13995295D01*
X94085714Y-13995295D02*
X94038095Y-13900057D01*
X94038095Y-13900057D02*
X93990476Y-13852438D01*
X93990476Y-13852438D02*
X93895238Y-13804819D01*
X93895238Y-13804819D02*
X93704762Y-13804819D01*
X93704762Y-13804819D02*
X93609524Y-13852438D01*
X93609524Y-13852438D02*
X93561905Y-13900057D01*
X93561905Y-13900057D02*
X93514286Y-13995295D01*
X93514286Y-13995295D02*
X93514286Y-14233390D01*
X93514286Y-14233390D02*
X93561905Y-14328628D01*
X93561905Y-14328628D02*
X93609524Y-14376247D01*
X93609524Y-14376247D02*
X93704762Y-14423866D01*
X93704762Y-14423866D02*
X93895238Y-14423866D01*
X93895238Y-14423866D02*
X93990476Y-14376247D01*
X93990476Y-14376247D02*
X94038095Y-14328628D01*
X94038095Y-14328628D02*
X94085714Y-14233390D01*
X94942857Y-13804819D02*
X94752381Y-13804819D01*
X94752381Y-13804819D02*
X94657143Y-13852438D01*
X94657143Y-13852438D02*
X94609524Y-13900057D01*
X94609524Y-13900057D02*
X94514286Y-14042914D01*
X94514286Y-14042914D02*
X94466667Y-14233390D01*
X94466667Y-14233390D02*
X94466667Y-14614342D01*
X94466667Y-14614342D02*
X94514286Y-14709580D01*
X94514286Y-14709580D02*
X94561905Y-14757200D01*
X94561905Y-14757200D02*
X94657143Y-14804819D01*
X94657143Y-14804819D02*
X94847619Y-14804819D01*
X94847619Y-14804819D02*
X94942857Y-14757200D01*
X94942857Y-14757200D02*
X94990476Y-14709580D01*
X94990476Y-14709580D02*
X95038095Y-14614342D01*
X95038095Y-14614342D02*
X95038095Y-14376247D01*
X95038095Y-14376247D02*
X94990476Y-14281009D01*
X94990476Y-14281009D02*
X94942857Y-14233390D01*
X94942857Y-14233390D02*
X94847619Y-14185771D01*
X94847619Y-14185771D02*
X94657143Y-14185771D01*
X94657143Y-14185771D02*
X94561905Y-14233390D01*
X94561905Y-14233390D02*
X94514286Y-14281009D01*
X94514286Y-14281009D02*
X94466667Y-14376247D01*
X95609524Y-14233390D02*
X95514286Y-14185771D01*
X95514286Y-14185771D02*
X95466667Y-14138152D01*
X95466667Y-14138152D02*
X95419048Y-14042914D01*
X95419048Y-14042914D02*
X95419048Y-13995295D01*
X95419048Y-13995295D02*
X95466667Y-13900057D01*
X95466667Y-13900057D02*
X95514286Y-13852438D01*
X95514286Y-13852438D02*
X95609524Y-13804819D01*
X95609524Y-13804819D02*
X95800000Y-13804819D01*
X95800000Y-13804819D02*
X95895238Y-13852438D01*
X95895238Y-13852438D02*
X95942857Y-13900057D01*
X95942857Y-13900057D02*
X95990476Y-13995295D01*
X95990476Y-13995295D02*
X95990476Y-14042914D01*
X95990476Y-14042914D02*
X95942857Y-14138152D01*
X95942857Y-14138152D02*
X95895238Y-14185771D01*
X95895238Y-14185771D02*
X95800000Y-14233390D01*
X95800000Y-14233390D02*
X95609524Y-14233390D01*
X95609524Y-14233390D02*
X95514286Y-14281009D01*
X95514286Y-14281009D02*
X95466667Y-14328628D01*
X95466667Y-14328628D02*
X95419048Y-14423866D01*
X95419048Y-14423866D02*
X95419048Y-14614342D01*
X95419048Y-14614342D02*
X95466667Y-14709580D01*
X95466667Y-14709580D02*
X95514286Y-14757200D01*
X95514286Y-14757200D02*
X95609524Y-14804819D01*
X95609524Y-14804819D02*
X95800000Y-14804819D01*
X95800000Y-14804819D02*
X95895238Y-14757200D01*
X95895238Y-14757200D02*
X95942857Y-14709580D01*
X95942857Y-14709580D02*
X95990476Y-14614342D01*
X95990476Y-14614342D02*
X95990476Y-14423866D01*
X95990476Y-14423866D02*
X95942857Y-14328628D01*
X95942857Y-14328628D02*
X95895238Y-14281009D01*
X95895238Y-14281009D02*
X95800000Y-14233390D01*
X96895238Y-13804819D02*
X96419048Y-13804819D01*
X96419048Y-13804819D02*
X96371429Y-14281009D01*
X96371429Y-14281009D02*
X96419048Y-14233390D01*
X96419048Y-14233390D02*
X96514286Y-14185771D01*
X96514286Y-14185771D02*
X96752381Y-14185771D01*
X96752381Y-14185771D02*
X96847619Y-14233390D01*
X96847619Y-14233390D02*
X96895238Y-14281009D01*
X96895238Y-14281009D02*
X96942857Y-14376247D01*
X96942857Y-14376247D02*
X96942857Y-14614342D01*
X96942857Y-14614342D02*
X96895238Y-14709580D01*
X96895238Y-14709580D02*
X96847619Y-14757200D01*
X96847619Y-14757200D02*
X96752381Y-14804819D01*
X96752381Y-14804819D02*
X96514286Y-14804819D01*
X96514286Y-14804819D02*
X96419048Y-14757200D01*
X96419048Y-14757200D02*
X96371429Y-14709580D01*
X15327200Y-30940475D02*
X15374819Y-30797618D01*
X15374819Y-30797618D02*
X15374819Y-30559523D01*
X15374819Y-30559523D02*
X15327200Y-30464285D01*
X15327200Y-30464285D02*
X15279580Y-30416666D01*
X15279580Y-30416666D02*
X15184342Y-30369047D01*
X15184342Y-30369047D02*
X15089104Y-30369047D01*
X15089104Y-30369047D02*
X14993866Y-30416666D01*
X14993866Y-30416666D02*
X14946247Y-30464285D01*
X14946247Y-30464285D02*
X14898628Y-30559523D01*
X14898628Y-30559523D02*
X14851009Y-30749999D01*
X14851009Y-30749999D02*
X14803390Y-30845237D01*
X14803390Y-30845237D02*
X14755771Y-30892856D01*
X14755771Y-30892856D02*
X14660533Y-30940475D01*
X14660533Y-30940475D02*
X14565295Y-30940475D01*
X14565295Y-30940475D02*
X14470057Y-30892856D01*
X14470057Y-30892856D02*
X14422438Y-30845237D01*
X14422438Y-30845237D02*
X14374819Y-30749999D01*
X14374819Y-30749999D02*
X14374819Y-30511904D01*
X14374819Y-30511904D02*
X14422438Y-30369047D01*
X15279580Y-29369047D02*
X15327200Y-29416666D01*
X15327200Y-29416666D02*
X15374819Y-29559523D01*
X15374819Y-29559523D02*
X15374819Y-29654761D01*
X15374819Y-29654761D02*
X15327200Y-29797618D01*
X15327200Y-29797618D02*
X15231961Y-29892856D01*
X15231961Y-29892856D02*
X15136723Y-29940475D01*
X15136723Y-29940475D02*
X14946247Y-29988094D01*
X14946247Y-29988094D02*
X14803390Y-29988094D01*
X14803390Y-29988094D02*
X14612914Y-29940475D01*
X14612914Y-29940475D02*
X14517676Y-29892856D01*
X14517676Y-29892856D02*
X14422438Y-29797618D01*
X14422438Y-29797618D02*
X14374819Y-29654761D01*
X14374819Y-29654761D02*
X14374819Y-29559523D01*
X14374819Y-29559523D02*
X14422438Y-29416666D01*
X14422438Y-29416666D02*
X14470057Y-29369047D01*
X15374819Y-28464285D02*
X15374819Y-28940475D01*
X15374819Y-28940475D02*
X14374819Y-28940475D01*
X105595238Y-55931009D02*
X105738095Y-55978628D01*
X105738095Y-55978628D02*
X105785714Y-56026247D01*
X105785714Y-56026247D02*
X105833333Y-56121485D01*
X105833333Y-56121485D02*
X105833333Y-56264342D01*
X105833333Y-56264342D02*
X105785714Y-56359580D01*
X105785714Y-56359580D02*
X105738095Y-56407200D01*
X105738095Y-56407200D02*
X105642857Y-56454819D01*
X105642857Y-56454819D02*
X105261905Y-56454819D01*
X105261905Y-56454819D02*
X105261905Y-55454819D01*
X105261905Y-55454819D02*
X105595238Y-55454819D01*
X105595238Y-55454819D02*
X105690476Y-55502438D01*
X105690476Y-55502438D02*
X105738095Y-55550057D01*
X105738095Y-55550057D02*
X105785714Y-55645295D01*
X105785714Y-55645295D02*
X105785714Y-55740533D01*
X105785714Y-55740533D02*
X105738095Y-55835771D01*
X105738095Y-55835771D02*
X105690476Y-55883390D01*
X105690476Y-55883390D02*
X105595238Y-55931009D01*
X105595238Y-55931009D02*
X105261905Y-55931009D01*
X106785714Y-56454819D02*
X106214286Y-56454819D01*
X106500000Y-56454819D02*
X106500000Y-55454819D01*
X106500000Y-55454819D02*
X106404762Y-55597676D01*
X106404762Y-55597676D02*
X106309524Y-55692914D01*
X106309524Y-55692914D02*
X106214286Y-55740533D01*
X56595238Y-119454819D02*
X56833333Y-120454819D01*
X56833333Y-120454819D02*
X57023809Y-119740533D01*
X57023809Y-119740533D02*
X57214285Y-120454819D01*
X57214285Y-120454819D02*
X57452381Y-119454819D01*
X57785714Y-119550057D02*
X57833333Y-119502438D01*
X57833333Y-119502438D02*
X57928571Y-119454819D01*
X57928571Y-119454819D02*
X58166666Y-119454819D01*
X58166666Y-119454819D02*
X58261904Y-119502438D01*
X58261904Y-119502438D02*
X58309523Y-119550057D01*
X58309523Y-119550057D02*
X58357142Y-119645295D01*
X58357142Y-119645295D02*
X58357142Y-119740533D01*
X58357142Y-119740533D02*
X58309523Y-119883390D01*
X58309523Y-119883390D02*
X57738095Y-120454819D01*
X57738095Y-120454819D02*
X58357142Y-120454819D01*
X59119047Y-119931009D02*
X59261904Y-119978628D01*
X59261904Y-119978628D02*
X59309523Y-120026247D01*
X59309523Y-120026247D02*
X59357142Y-120121485D01*
X59357142Y-120121485D02*
X59357142Y-120264342D01*
X59357142Y-120264342D02*
X59309523Y-120359580D01*
X59309523Y-120359580D02*
X59261904Y-120407200D01*
X59261904Y-120407200D02*
X59166666Y-120454819D01*
X59166666Y-120454819D02*
X58785714Y-120454819D01*
X58785714Y-120454819D02*
X58785714Y-119454819D01*
X58785714Y-119454819D02*
X59119047Y-119454819D01*
X59119047Y-119454819D02*
X59214285Y-119502438D01*
X59214285Y-119502438D02*
X59261904Y-119550057D01*
X59261904Y-119550057D02*
X59309523Y-119645295D01*
X59309523Y-119645295D02*
X59309523Y-119740533D01*
X59309523Y-119740533D02*
X59261904Y-119835771D01*
X59261904Y-119835771D02*
X59214285Y-119883390D01*
X59214285Y-119883390D02*
X59119047Y-119931009D01*
X59119047Y-119931009D02*
X58785714Y-119931009D01*
%TO.C,F2*%
D11*
X92000000Y-59000000D02*
X120000000Y-59000000D01*
X92000000Y-69000000D02*
X92000000Y-59000000D01*
X120000000Y-59000000D02*
X120000000Y-69000000D01*
X120000000Y-69000000D02*
X92000000Y-69000000D01*
%TO.C,SV4*%
X135620000Y-153380000D02*
X135620000Y-152000000D01*
X137000000Y-153380000D02*
X135620000Y-153380000D01*
X138270000Y-150620000D02*
X143460000Y-150620000D01*
X138270000Y-153380000D02*
X138270000Y-150620000D01*
X138270000Y-153380000D02*
X143460000Y-153380000D01*
X143460000Y-153380000D02*
X143460000Y-150620000D01*
%TO.C,F6*%
X44000000Y-43000000D02*
X72000000Y-43000000D01*
X44000000Y-53000000D02*
X44000000Y-43000000D01*
X72000000Y-43000000D02*
X72000000Y-53000000D01*
X72000000Y-53000000D02*
X44000000Y-53000000D01*
%TO.C,SV2*%
X111620000Y-153380000D02*
X111620000Y-152000000D01*
X113000000Y-153380000D02*
X111620000Y-153380000D01*
X114270000Y-150620000D02*
X119460000Y-150620000D01*
X114270000Y-153380000D02*
X114270000Y-150620000D01*
X114270000Y-153380000D02*
X119460000Y-153380000D01*
X119460000Y-153380000D02*
X119460000Y-150620000D01*
%TO.C,J4*%
X147480000Y-106580000D02*
X155520000Y-106580000D01*
X147480000Y-117320000D02*
X147480000Y-106580000D01*
X151100000Y-107388000D02*
X151100000Y-106580000D01*
X151100000Y-112320000D02*
X151100000Y-111012000D01*
X151100000Y-117320000D02*
X151100000Y-116080000D01*
X152100000Y-107388000D02*
X152100000Y-106580000D01*
X152100000Y-112320000D02*
X152100000Y-111012000D01*
X152100000Y-117320000D02*
X152100000Y-116080000D01*
X153400000Y-108657000D02*
X153400000Y-106580000D01*
X153400000Y-112320000D02*
X153400000Y-109743000D01*
X153400000Y-117320000D02*
X153400000Y-116080000D01*
X155520000Y-106580000D02*
X155520000Y-113900000D01*
X155520000Y-114500000D02*
X155520000Y-117320000D01*
X155520000Y-117320000D02*
X147480000Y-117320000D01*
X156130000Y-114640000D02*
X155520000Y-114200000D01*
X156130000Y-113760000D01*
X156130000Y-114640000D01*
G36*
X156130000Y-114640000D02*
G01*
X155520000Y-114200000D01*
X156130000Y-113760000D01*
X156130000Y-114640000D01*
G37*
%TO.C,SV6*%
X39620000Y-153380000D02*
X39620000Y-152000000D01*
X41000000Y-153380000D02*
X39620000Y-153380000D01*
X42270000Y-150620000D02*
X47460000Y-150620000D01*
X42270000Y-153380000D02*
X42270000Y-150620000D01*
X42270000Y-153380000D02*
X47460000Y-153380000D01*
X47460000Y-153380000D02*
X47460000Y-150620000D01*
%TO.C,J41*%
X26620000Y-50810000D02*
X28000000Y-50810000D01*
X26620000Y-52190000D02*
X26620000Y-50810000D01*
X26620000Y-53460000D02*
X26620000Y-61190000D01*
X26620000Y-53460000D02*
X29380000Y-53460000D01*
X26620000Y-61190000D02*
X29380000Y-61190000D01*
X29380000Y-53460000D02*
X29380000Y-61190000D01*
%TO.C,J2*%
X147480000Y-50580000D02*
X155520000Y-50580000D01*
X147480000Y-61320000D02*
X147480000Y-50580000D01*
X151100000Y-51388000D02*
X151100000Y-50580000D01*
X151100000Y-56320000D02*
X151100000Y-55012000D01*
X151100000Y-61320000D02*
X151100000Y-60080000D01*
X152100000Y-51388000D02*
X152100000Y-50580000D01*
X152100000Y-56320000D02*
X152100000Y-55012000D01*
X152100000Y-61320000D02*
X152100000Y-60080000D01*
X153400000Y-52657000D02*
X153400000Y-50580000D01*
X153400000Y-56320000D02*
X153400000Y-53743000D01*
X153400000Y-61320000D02*
X153400000Y-60080000D01*
X155520000Y-50580000D02*
X155520000Y-57900000D01*
X155520000Y-58500000D02*
X155520000Y-61320000D01*
X155520000Y-61320000D02*
X147480000Y-61320000D01*
X156130000Y-58640000D02*
X155520000Y-58200000D01*
X156130000Y-57760000D01*
X156130000Y-58640000D01*
G36*
X156130000Y-58640000D02*
G01*
X155520000Y-58200000D01*
X156130000Y-57760000D01*
X156130000Y-58640000D01*
G37*
%TO.C,J34*%
X5880000Y-72380000D02*
X13920000Y-72380000D01*
X5880000Y-83120000D02*
X5880000Y-72380000D01*
X9500000Y-73188000D02*
X9500000Y-72380000D01*
X9500000Y-78120000D02*
X9500000Y-76812000D01*
X9500000Y-83120000D02*
X9500000Y-81880000D01*
X10500000Y-73188000D02*
X10500000Y-72380000D01*
X10500000Y-78120000D02*
X10500000Y-76812000D01*
X10500000Y-83120000D02*
X10500000Y-81880000D01*
X11800000Y-74457000D02*
X11800000Y-72380000D01*
X11800000Y-78120000D02*
X11800000Y-75543000D01*
X11800000Y-83120000D02*
X11800000Y-81880000D01*
X13920000Y-72380000D02*
X13920000Y-79700000D01*
X13920000Y-80300000D02*
X13920000Y-83120000D01*
X13920000Y-83120000D02*
X5880000Y-83120000D01*
X14530000Y-80440000D02*
X13920000Y-80000000D01*
X14530000Y-79560000D01*
X14530000Y-80440000D01*
G36*
X14530000Y-80440000D02*
G01*
X13920000Y-80000000D01*
X14530000Y-79560000D01*
X14530000Y-80440000D01*
G37*
%TO.C,J35*%
X5880000Y-84380000D02*
X13920000Y-84380000D01*
X5880000Y-95120000D02*
X5880000Y-84380000D01*
X9500000Y-85188000D02*
X9500000Y-84380000D01*
X9500000Y-90120000D02*
X9500000Y-88812000D01*
X9500000Y-95120000D02*
X9500000Y-93880000D01*
X10500000Y-85188000D02*
X10500000Y-84380000D01*
X10500000Y-90120000D02*
X10500000Y-88812000D01*
X10500000Y-95120000D02*
X10500000Y-93880000D01*
X11800000Y-86457000D02*
X11800000Y-84380000D01*
X11800000Y-90120000D02*
X11800000Y-87543000D01*
X11800000Y-95120000D02*
X11800000Y-93880000D01*
X13920000Y-84380000D02*
X13920000Y-91700000D01*
X13920000Y-92300000D02*
X13920000Y-95120000D01*
X13920000Y-95120000D02*
X5880000Y-95120000D01*
X14530000Y-92440000D02*
X13920000Y-92000000D01*
X14530000Y-91560000D01*
X14530000Y-92440000D01*
G36*
X14530000Y-92440000D02*
G01*
X13920000Y-92000000D01*
X14530000Y-91560000D01*
X14530000Y-92440000D01*
G37*
%TO.C,J32*%
X5880000Y-42380000D02*
X13920000Y-42380000D01*
X5880000Y-53120000D02*
X5880000Y-42380000D01*
X9500000Y-43188000D02*
X9500000Y-42380000D01*
X9500000Y-48120000D02*
X9500000Y-46812000D01*
X9500000Y-53120000D02*
X9500000Y-51880000D01*
X10500000Y-43188000D02*
X10500000Y-42380000D01*
X10500000Y-48120000D02*
X10500000Y-46812000D01*
X10500000Y-53120000D02*
X10500000Y-51880000D01*
X11800000Y-44457000D02*
X11800000Y-42380000D01*
X11800000Y-48120000D02*
X11800000Y-45543000D01*
X11800000Y-53120000D02*
X11800000Y-51880000D01*
X13920000Y-42380000D02*
X13920000Y-49700000D01*
X13920000Y-50300000D02*
X13920000Y-53120000D01*
X13920000Y-53120000D02*
X5880000Y-53120000D01*
X14530000Y-50440000D02*
X13920000Y-50000000D01*
X14530000Y-49560000D01*
X14530000Y-50440000D01*
G36*
X14530000Y-50440000D02*
G01*
X13920000Y-50000000D01*
X14530000Y-49560000D01*
X14530000Y-50440000D01*
G37*
%TO.C,SV1*%
X99620000Y-153380000D02*
X99620000Y-152000000D01*
X101000000Y-153380000D02*
X99620000Y-153380000D01*
X102270000Y-150620000D02*
X107460000Y-150620000D01*
X102270000Y-153380000D02*
X102270000Y-150620000D01*
X102270000Y-153380000D02*
X107460000Y-153380000D01*
X107460000Y-153380000D02*
X107460000Y-150620000D01*
%TO.C,J_ESC*%
X87620000Y-139380000D02*
X87620000Y-138000000D01*
X89000000Y-139380000D02*
X87620000Y-139380000D01*
X90270000Y-136620000D02*
X95460000Y-136620000D01*
X90270000Y-139380000D02*
X90270000Y-136620000D01*
X90270000Y-139380000D02*
X95460000Y-139380000D01*
X95460000Y-139380000D02*
X95460000Y-136620000D01*
%TO.C,SV3*%
X123620000Y-153380000D02*
X123620000Y-152000000D01*
X125000000Y-153380000D02*
X123620000Y-153380000D01*
X126270000Y-150620000D02*
X131460000Y-150620000D01*
X126270000Y-153380000D02*
X126270000Y-150620000D01*
X126270000Y-153380000D02*
X131460000Y-153380000D01*
X131460000Y-153380000D02*
X131460000Y-150620000D01*
%TO.C,J37*%
X5880000Y-102380000D02*
X13920000Y-102380000D01*
X5880000Y-113120000D02*
X5880000Y-102380000D01*
X9500000Y-103188000D02*
X9500000Y-102380000D01*
X9500000Y-108120000D02*
X9500000Y-106812000D01*
X9500000Y-113120000D02*
X9500000Y-111880000D01*
X10500000Y-103188000D02*
X10500000Y-102380000D01*
X10500000Y-108120000D02*
X10500000Y-106812000D01*
X10500000Y-113120000D02*
X10500000Y-111880000D01*
X11800000Y-104457000D02*
X11800000Y-102380000D01*
X11800000Y-108120000D02*
X11800000Y-105543000D01*
X11800000Y-113120000D02*
X11800000Y-111880000D01*
X13920000Y-102380000D02*
X13920000Y-109700000D01*
X13920000Y-110300000D02*
X13920000Y-113120000D01*
X13920000Y-113120000D02*
X5880000Y-113120000D01*
X14530000Y-110440000D02*
X13920000Y-110000000D01*
X14530000Y-109560000D01*
X14530000Y-110440000D01*
G36*
X14530000Y-110440000D02*
G01*
X13920000Y-110000000D01*
X14530000Y-109560000D01*
X14530000Y-110440000D01*
G37*
%TO.C,J44*%
X26620000Y-140810000D02*
X28000000Y-140810000D01*
X26620000Y-142190000D02*
X26620000Y-140810000D01*
X26620000Y-143460000D02*
X26620000Y-151190000D01*
X26620000Y-143460000D02*
X29380000Y-143460000D01*
X26620000Y-151190000D02*
X29380000Y-151190000D01*
X29380000Y-143460000D02*
X29380000Y-151190000D01*
%TO.C,SV10*%
X87620000Y-153380000D02*
X87620000Y-152000000D01*
X89000000Y-153380000D02*
X87620000Y-153380000D01*
X90270000Y-150620000D02*
X95460000Y-150620000D01*
X90270000Y-153380000D02*
X90270000Y-150620000D01*
X90270000Y-153380000D02*
X95460000Y-153380000D01*
X95460000Y-153380000D02*
X95460000Y-150620000D01*
%TO.C,SV7*%
X51620000Y-153380000D02*
X51620000Y-152000000D01*
X53000000Y-153380000D02*
X51620000Y-153380000D01*
X54270000Y-150620000D02*
X59460000Y-150620000D01*
X54270000Y-153380000D02*
X54270000Y-150620000D01*
X54270000Y-153380000D02*
X59460000Y-153380000D01*
X59460000Y-153380000D02*
X59460000Y-150620000D01*
%TO.C,F7*%
X44000000Y-59000000D02*
X72000000Y-59000000D01*
X44000000Y-69000000D02*
X44000000Y-59000000D01*
X72000000Y-59000000D02*
X72000000Y-69000000D01*
X72000000Y-69000000D02*
X44000000Y-69000000D01*
%TO.C,J1*%
X147480000Y-38580000D02*
X155520000Y-38580000D01*
X147480000Y-49320000D02*
X147480000Y-38580000D01*
X151100000Y-39388000D02*
X151100000Y-38580000D01*
X151100000Y-44320000D02*
X151100000Y-43012000D01*
X151100000Y-49320000D02*
X151100000Y-48080000D01*
X152100000Y-39388000D02*
X152100000Y-38580000D01*
X152100000Y-44320000D02*
X152100000Y-43012000D01*
X152100000Y-49320000D02*
X152100000Y-48080000D01*
X153400000Y-40657000D02*
X153400000Y-38580000D01*
X153400000Y-44320000D02*
X153400000Y-41743000D01*
X153400000Y-49320000D02*
X153400000Y-48080000D01*
X155520000Y-38580000D02*
X155520000Y-45900000D01*
X155520000Y-46500000D02*
X155520000Y-49320000D01*
X155520000Y-49320000D02*
X147480000Y-49320000D01*
X156130000Y-46640000D02*
X155520000Y-46200000D01*
X156130000Y-45760000D01*
X156130000Y-46640000D01*
G36*
X156130000Y-46640000D02*
G01*
X155520000Y-46200000D01*
X156130000Y-45760000D01*
X156130000Y-46640000D01*
G37*
%TO.C,J36*%
X5880000Y-114380000D02*
X13920000Y-114380000D01*
X5880000Y-125120000D02*
X5880000Y-114380000D01*
X9500000Y-115188000D02*
X9500000Y-114380000D01*
X9500000Y-120120000D02*
X9500000Y-118812000D01*
X9500000Y-125120000D02*
X9500000Y-123880000D01*
X10500000Y-115188000D02*
X10500000Y-114380000D01*
X10500000Y-120120000D02*
X10500000Y-118812000D01*
X10500000Y-125120000D02*
X10500000Y-123880000D01*
X11800000Y-116457000D02*
X11800000Y-114380000D01*
X11800000Y-120120000D02*
X11800000Y-117543000D01*
X11800000Y-125120000D02*
X11800000Y-123880000D01*
X13920000Y-114380000D02*
X13920000Y-121700000D01*
X13920000Y-122300000D02*
X13920000Y-125120000D01*
X13920000Y-125120000D02*
X5880000Y-125120000D01*
X14530000Y-122440000D02*
X13920000Y-122000000D01*
X14530000Y-121560000D01*
X14530000Y-122440000D01*
G36*
X14530000Y-122440000D02*
G01*
X13920000Y-122000000D01*
X14530000Y-121560000D01*
X14530000Y-122440000D01*
G37*
%TO.C,SV9*%
X75620000Y-153380000D02*
X75620000Y-152000000D01*
X77000000Y-153380000D02*
X75620000Y-153380000D01*
X78270000Y-150620000D02*
X83460000Y-150620000D01*
X78270000Y-153380000D02*
X78270000Y-150620000D01*
X78270000Y-153380000D02*
X83460000Y-153380000D01*
X83460000Y-153380000D02*
X83460000Y-150620000D01*
%TO.C,SV5*%
X147620000Y-153380000D02*
X147620000Y-152000000D01*
X149000000Y-153380000D02*
X147620000Y-153380000D01*
X150270000Y-150620000D02*
X155460000Y-150620000D01*
X150270000Y-153380000D02*
X150270000Y-150620000D01*
X150270000Y-153380000D02*
X155460000Y-153380000D01*
X155460000Y-153380000D02*
X155460000Y-150620000D01*
%TO.C,J43*%
X26620000Y-110810000D02*
X28000000Y-110810000D01*
X26620000Y-112190000D02*
X26620000Y-110810000D01*
X26620000Y-113460000D02*
X26620000Y-121190000D01*
X26620000Y-113460000D02*
X29380000Y-113460000D01*
X26620000Y-121190000D02*
X29380000Y-121190000D01*
X29380000Y-113460000D02*
X29380000Y-121190000D01*
%TO.C,J39*%
X5880000Y-132380000D02*
X13920000Y-132380000D01*
X5880000Y-143120000D02*
X5880000Y-132380000D01*
X9500000Y-133188000D02*
X9500000Y-132380000D01*
X9500000Y-138120000D02*
X9500000Y-136812000D01*
X9500000Y-143120000D02*
X9500000Y-141880000D01*
X10500000Y-133188000D02*
X10500000Y-132380000D01*
X10500000Y-138120000D02*
X10500000Y-136812000D01*
X10500000Y-143120000D02*
X10500000Y-141880000D01*
X11800000Y-134457000D02*
X11800000Y-132380000D01*
X11800000Y-138120000D02*
X11800000Y-135543000D01*
X11800000Y-143120000D02*
X11800000Y-141880000D01*
X13920000Y-132380000D02*
X13920000Y-139700000D01*
X13920000Y-140300000D02*
X13920000Y-143120000D01*
X13920000Y-143120000D02*
X5880000Y-143120000D01*
X14530000Y-140440000D02*
X13920000Y-140000000D01*
X14530000Y-139560000D01*
X14530000Y-140440000D01*
G36*
X14530000Y-140440000D02*
G01*
X13920000Y-140000000D01*
X14530000Y-139560000D01*
X14530000Y-140440000D01*
G37*
%TO.C,SV8*%
X63620000Y-153380000D02*
X63620000Y-152000000D01*
X65000000Y-153380000D02*
X63620000Y-153380000D01*
X66270000Y-150620000D02*
X71460000Y-150620000D01*
X66270000Y-153380000D02*
X66270000Y-150620000D01*
X66270000Y-153380000D02*
X71460000Y-153380000D01*
X71460000Y-153380000D02*
X71460000Y-150620000D01*
%TO.C,J40*%
X26620000Y-20810000D02*
X28000000Y-20810000D01*
X26620000Y-22190000D02*
X26620000Y-20810000D01*
X26620000Y-23460000D02*
X26620000Y-31190000D01*
X26620000Y-23460000D02*
X29380000Y-23460000D01*
X26620000Y-31190000D02*
X29380000Y-31190000D01*
X29380000Y-23460000D02*
X29380000Y-31190000D01*
%TO.C,J6*%
X147480000Y-78580000D02*
X155520000Y-78580000D01*
X147480000Y-89320000D02*
X147480000Y-78580000D01*
X151100000Y-79388000D02*
X151100000Y-78580000D01*
X151100000Y-84320000D02*
X151100000Y-83012000D01*
X151100000Y-89320000D02*
X151100000Y-88080000D01*
X152100000Y-79388000D02*
X152100000Y-78580000D01*
X152100000Y-84320000D02*
X152100000Y-83012000D01*
X152100000Y-89320000D02*
X152100000Y-88080000D01*
X153400000Y-80657000D02*
X153400000Y-78580000D01*
X153400000Y-84320000D02*
X153400000Y-81743000D01*
X153400000Y-89320000D02*
X153400000Y-88080000D01*
X155520000Y-78580000D02*
X155520000Y-85900000D01*
X155520000Y-86500000D02*
X155520000Y-89320000D01*
X155520000Y-89320000D02*
X147480000Y-89320000D01*
X156130000Y-86640000D02*
X155520000Y-86200000D01*
X156130000Y-85760000D01*
X156130000Y-86640000D01*
G36*
X156130000Y-86640000D02*
G01*
X155520000Y-86200000D01*
X156130000Y-85760000D01*
X156130000Y-86640000D01*
G37*
%TO.C,F4*%
X92000000Y-91000000D02*
X120000000Y-91000000D01*
X92000000Y-101000000D02*
X92000000Y-91000000D01*
X120000000Y-91000000D02*
X120000000Y-101000000D01*
X120000000Y-101000000D02*
X92000000Y-101000000D01*
%TO.C,F3*%
X92000000Y-75000000D02*
X120000000Y-75000000D01*
X92000000Y-85000000D02*
X92000000Y-75000000D01*
X120000000Y-75000000D02*
X120000000Y-85000000D01*
X120000000Y-85000000D02*
X92000000Y-85000000D01*
%TO.C,J5*%
X147480000Y-66580000D02*
X155520000Y-66580000D01*
X147480000Y-77320000D02*
X147480000Y-66580000D01*
X151100000Y-67388000D02*
X151100000Y-66580000D01*
X151100000Y-72320000D02*
X151100000Y-71012000D01*
X151100000Y-77320000D02*
X151100000Y-76080000D01*
X152100000Y-67388000D02*
X152100000Y-66580000D01*
X152100000Y-72320000D02*
X152100000Y-71012000D01*
X152100000Y-77320000D02*
X152100000Y-76080000D01*
X153400000Y-68657000D02*
X153400000Y-66580000D01*
X153400000Y-72320000D02*
X153400000Y-69743000D01*
X153400000Y-77320000D02*
X153400000Y-76080000D01*
X155520000Y-66580000D02*
X155520000Y-73900000D01*
X155520000Y-74500000D02*
X155520000Y-77320000D01*
X155520000Y-77320000D02*
X147480000Y-77320000D01*
X156130000Y-74640000D02*
X155520000Y-74200000D01*
X156130000Y-73760000D01*
X156130000Y-74640000D01*
G36*
X156130000Y-74640000D02*
G01*
X155520000Y-74200000D01*
X156130000Y-73760000D01*
X156130000Y-74640000D01*
G37*
%TO.C,J31*%
X5880000Y-12380000D02*
X13920000Y-12380000D01*
X5880000Y-23120000D02*
X5880000Y-12380000D01*
X9500000Y-13188000D02*
X9500000Y-12380000D01*
X9500000Y-18120000D02*
X9500000Y-16812000D01*
X9500000Y-23120000D02*
X9500000Y-21880000D01*
X10500000Y-13188000D02*
X10500000Y-12380000D01*
X10500000Y-18120000D02*
X10500000Y-16812000D01*
X10500000Y-23120000D02*
X10500000Y-21880000D01*
X11800000Y-14457000D02*
X11800000Y-12380000D01*
X11800000Y-18120000D02*
X11800000Y-15543000D01*
X11800000Y-23120000D02*
X11800000Y-21880000D01*
X13920000Y-12380000D02*
X13920000Y-19700000D01*
X13920000Y-20300000D02*
X13920000Y-23120000D01*
X13920000Y-23120000D02*
X5880000Y-23120000D01*
X14530000Y-20440000D02*
X13920000Y-20000000D01*
X14530000Y-19560000D01*
X14530000Y-20440000D01*
G36*
X14530000Y-20440000D02*
G01*
X13920000Y-20000000D01*
X14530000Y-19560000D01*
X14530000Y-20440000D01*
G37*
%TO.C,F5*%
X92000000Y-107000000D02*
X120000000Y-107000000D01*
X92000000Y-117000000D02*
X92000000Y-107000000D01*
X120000000Y-107000000D02*
X120000000Y-117000000D01*
X120000000Y-117000000D02*
X92000000Y-117000000D01*
%TO.C,F9*%
X44000000Y-91000000D02*
X72000000Y-91000000D01*
X44000000Y-101000000D02*
X44000000Y-91000000D01*
X72000000Y-91000000D02*
X72000000Y-101000000D01*
X72000000Y-101000000D02*
X44000000Y-101000000D01*
%TO.C,J42*%
X26620000Y-80810000D02*
X28000000Y-80810000D01*
X26620000Y-82190000D02*
X26620000Y-80810000D01*
X26620000Y-83460000D02*
X26620000Y-91190000D01*
X26620000Y-83460000D02*
X29380000Y-83460000D01*
X26620000Y-91190000D02*
X29380000Y-91190000D01*
X29380000Y-83460000D02*
X29380000Y-91190000D01*
%TO.C,J38*%
X5880000Y-144380000D02*
X13920000Y-144380000D01*
X5880000Y-155120000D02*
X5880000Y-144380000D01*
X9500000Y-145188000D02*
X9500000Y-144380000D01*
X9500000Y-150120000D02*
X9500000Y-148812000D01*
X9500000Y-155120000D02*
X9500000Y-153880000D01*
X10500000Y-145188000D02*
X10500000Y-144380000D01*
X10500000Y-150120000D02*
X10500000Y-148812000D01*
X10500000Y-155120000D02*
X10500000Y-153880000D01*
X11800000Y-146457000D02*
X11800000Y-144380000D01*
X11800000Y-150120000D02*
X11800000Y-147543000D01*
X11800000Y-155120000D02*
X11800000Y-153880000D01*
X13920000Y-144380000D02*
X13920000Y-151700000D01*
X13920000Y-152300000D02*
X13920000Y-155120000D01*
X13920000Y-155120000D02*
X5880000Y-155120000D01*
X14530000Y-152440000D02*
X13920000Y-152000000D01*
X14530000Y-151560000D01*
X14530000Y-152440000D01*
G36*
X14530000Y-152440000D02*
G01*
X13920000Y-152000000D01*
X14530000Y-151560000D01*
X14530000Y-152440000D01*
G37*
%TO.C,J33*%
X5880000Y-54380000D02*
X13920000Y-54380000D01*
X5880000Y-65120000D02*
X5880000Y-54380000D01*
X9500000Y-55188000D02*
X9500000Y-54380000D01*
X9500000Y-60120000D02*
X9500000Y-58812000D01*
X9500000Y-65120000D02*
X9500000Y-63880000D01*
X10500000Y-55188000D02*
X10500000Y-54380000D01*
X10500000Y-60120000D02*
X10500000Y-58812000D01*
X10500000Y-65120000D02*
X10500000Y-63880000D01*
X11800000Y-56457000D02*
X11800000Y-54380000D01*
X11800000Y-60120000D02*
X11800000Y-57543000D01*
X11800000Y-65120000D02*
X11800000Y-63880000D01*
X13920000Y-54380000D02*
X13920000Y-61700000D01*
X13920000Y-62300000D02*
X13920000Y-65120000D01*
X13920000Y-65120000D02*
X5880000Y-65120000D01*
X14530000Y-62440000D02*
X13920000Y-62000000D01*
X14530000Y-61560000D01*
X14530000Y-62440000D01*
G36*
X14530000Y-62440000D02*
G01*
X13920000Y-62000000D01*
X14530000Y-61560000D01*
X14530000Y-62440000D01*
G37*
%TO.C,J3*%
X147480000Y-94580000D02*
X155520000Y-94580000D01*
X147480000Y-105320000D02*
X147480000Y-94580000D01*
X151100000Y-95388000D02*
X151100000Y-94580000D01*
X151100000Y-100320000D02*
X151100000Y-99012000D01*
X151100000Y-105320000D02*
X151100000Y-104080000D01*
X152100000Y-95388000D02*
X152100000Y-94580000D01*
X152100000Y-100320000D02*
X152100000Y-99012000D01*
X152100000Y-105320000D02*
X152100000Y-104080000D01*
X153400000Y-96657000D02*
X153400000Y-94580000D01*
X153400000Y-100320000D02*
X153400000Y-97743000D01*
X153400000Y-105320000D02*
X153400000Y-104080000D01*
X155520000Y-94580000D02*
X155520000Y-101900000D01*
X155520000Y-102500000D02*
X155520000Y-105320000D01*
X155520000Y-105320000D02*
X147480000Y-105320000D01*
X156130000Y-102640000D02*
X155520000Y-102200000D01*
X156130000Y-101760000D01*
X156130000Y-102640000D01*
G36*
X156130000Y-102640000D02*
G01*
X155520000Y-102200000D01*
X156130000Y-101760000D01*
X156130000Y-102640000D01*
G37*
%TO.C,F8*%
X44000000Y-75000000D02*
X72000000Y-75000000D01*
X44000000Y-85000000D02*
X44000000Y-75000000D01*
X72000000Y-75000000D02*
X72000000Y-85000000D01*
X72000000Y-85000000D02*
X44000000Y-85000000D01*
%TO.C,J_FAN*%
X99620000Y-139380000D02*
X99620000Y-138000000D01*
X101000000Y-139380000D02*
X99620000Y-139380000D01*
X102270000Y-136620000D02*
X107460000Y-136620000D01*
X102270000Y-139380000D02*
X102270000Y-136620000D01*
X102270000Y-139380000D02*
X107460000Y-139380000D01*
X107460000Y-139380000D02*
X107460000Y-136620000D01*
%TO.C,J_PCA*%
X70810000Y-8670000D02*
X70810000Y-11330000D01*
X116590000Y-8670000D02*
X70810000Y-8670000D01*
X116590000Y-8670000D02*
X116590000Y-11330000D01*
X116590000Y-11330000D02*
X70810000Y-11330000D01*
X119190000Y-10000000D02*
X119190000Y-11330000D01*
X119190000Y-11330000D02*
X117860000Y-11330000D01*
%TO.C,J30*%
X5880000Y-24380000D02*
X13920000Y-24380000D01*
X5880000Y-35120000D02*
X5880000Y-24380000D01*
X9500000Y-25188000D02*
X9500000Y-24380000D01*
X9500000Y-30120000D02*
X9500000Y-28812000D01*
X9500000Y-35120000D02*
X9500000Y-33880000D01*
X10500000Y-25188000D02*
X10500000Y-24380000D01*
X10500000Y-30120000D02*
X10500000Y-28812000D01*
X10500000Y-35120000D02*
X10500000Y-33880000D01*
X11800000Y-26457000D02*
X11800000Y-24380000D01*
X11800000Y-30120000D02*
X11800000Y-27543000D01*
X11800000Y-35120000D02*
X11800000Y-33880000D01*
X13920000Y-24380000D02*
X13920000Y-31700000D01*
X13920000Y-32300000D02*
X13920000Y-35120000D01*
X13920000Y-35120000D02*
X5880000Y-35120000D01*
X14530000Y-32440000D02*
X13920000Y-32000000D01*
X14530000Y-31560000D01*
X14530000Y-32440000D01*
G36*
X14530000Y-32440000D02*
G01*
X13920000Y-32000000D01*
X14530000Y-31560000D01*
X14530000Y-32440000D01*
G37*
%TO.C,F1*%
X92000000Y-43000000D02*
X120000000Y-43000000D01*
X92000000Y-53000000D02*
X92000000Y-43000000D01*
X120000000Y-43000000D02*
X120000000Y-53000000D01*
X120000000Y-53000000D02*
X92000000Y-53000000D01*
%TO.C,F10*%
X44000000Y-107000000D02*
X72000000Y-107000000D01*
X44000000Y-117000000D02*
X44000000Y-107000000D01*
X72000000Y-107000000D02*
X72000000Y-117000000D01*
X72000000Y-117000000D02*
X44000000Y-117000000D01*
%TD*%
M02*
