%TF.GenerationSoftware,KiCad,Pcbnew,10.0.0*%
%TF.CreationDate,2026-03-30T17:29:40-04:00*%
%TF.ProjectId,geodude-carrier,67656f64-7564-4652-9d63-617272696572,rev?*%
%TF.SameCoordinates,Original*%
%TF.FileFunction,Copper,L1,Top*%
%TF.FilePolarity,Positive*%
%FSLAX46Y46*%
G04 Gerber Fmt 4.6, Leading zero omitted, Abs format (unit mm)*
G04 Created by KiCad (PCBNEW 10.0.0) date 2026-03-30 17:29:40*
%MOMM*%
%LPD*%
G01*
G04 APERTURE LIST*
G04 Aperture macros list*
%AMRoundRect*
0 Rectangle with rounded corners*
0 $1 Rounding radius*
0 $2 $3 $4 $5 $6 $7 $8 $9 X,Y pos of 4 corners*
0 Add a 4 corners polygon primitive as box body*
4,1,4,$2,$3,$4,$5,$6,$7,$8,$9,$2,$3,0*
0 Add four circle primitives for the rounded corners*
1,1,$1+$1,$2,$3*
1,1,$1+$1,$4,$5*
1,1,$1+$1,$6,$7*
1,1,$1+$1,$8,$9*
0 Add four rect primitives between the rounded corners*
20,1,$1+$1,$2,$3,$4,$5,0*
20,1,$1+$1,$4,$5,$6,$7,0*
20,1,$1+$1,$6,$7,$8,$9,0*
20,1,$1+$1,$8,$9,$2,$3,0*%
G04 Aperture macros list end*
%TA.AperFunction,ComponentPad*%
%ADD10C,2.800000*%
%TD*%
%TA.AperFunction,ComponentPad*%
%ADD11R,1.700000X1.700000*%
%TD*%
%TA.AperFunction,ComponentPad*%
%ADD12C,1.700000*%
%TD*%
%TA.AperFunction,ComponentPad*%
%ADD13RoundRect,0.250001X1.149999X-1.149999X1.149999X1.149999X-1.149999X1.149999X-1.149999X-1.149999X0*%
%TD*%
%TA.AperFunction,ViaPad*%
%ADD14C,0.600000*%
%TD*%
%TA.AperFunction,Conductor*%
%ADD15C,3.000000*%
%TD*%
%TA.AperFunction,Conductor*%
%ADD16C,1.699800*%
%TD*%
%TA.AperFunction,Conductor*%
%ADD17C,2.000000*%
%TD*%
%TA.AperFunction,Conductor*%
%ADD18C,0.400000*%
%TD*%
%TA.AperFunction,Conductor*%
%ADD19C,0.600000*%
%TD*%
%TA.AperFunction,Conductor*%
%ADD20C,1.500000*%
%TD*%
%TA.AperFunction,Conductor*%
%ADD21C,1.000000*%
%TD*%
G04 APERTURE END LIST*
D10*
%TO.P,F2,1*%
%TO.N,+12V*%
X83185000Y-63000000D03*
%TO.P,F2,2*%
%TO.N,SV2_PWR*%
X105815000Y-63000000D03*
%TD*%
D11*
%TO.P,SV4,1*%
%TO.N,PWM_CH3*%
X137000000Y-135000000D03*
D12*
%TO.P,SV4,2*%
%TO.N,SV4_PWR*%
X139540000Y-135000000D03*
%TO.P,SV4,3*%
%TO.N,GND*%
X142080000Y-135000000D03*
%TD*%
D10*
%TO.P,F6,1*%
%TO.N,+12V*%
X46685000Y-48000000D03*
%TO.P,F6,2*%
%TO.N,SV6_PWR*%
X69315000Y-48000000D03*
%TD*%
D11*
%TO.P,SV2,1*%
%TO.N,PWM_CH1*%
X113000000Y-135000000D03*
D12*
%TO.P,SV2,2*%
%TO.N,SV2_PWR*%
X115540000Y-135000000D03*
%TO.P,SV2,3*%
%TO.N,GND*%
X118080000Y-135000000D03*
%TD*%
D13*
%TO.P,J4,1*%
%TO.N,GND*%
X151600000Y-114200000D03*
D10*
%TO.P,J4,2*%
X151600000Y-109200000D03*
%TD*%
D11*
%TO.P,SV6,1*%
%TO.N,PWM_CH5*%
X41000000Y-150000000D03*
D12*
%TO.P,SV6,2*%
%TO.N,SV6_PWR*%
X43540000Y-150000000D03*
%TO.P,SV6,3*%
%TO.N,GND*%
X46080000Y-150000000D03*
%TD*%
D11*
%TO.P,J41,1*%
%TO.N,SDA*%
X33700000Y-51400000D03*
D12*
%TO.P,J41,2*%
X33700000Y-53940000D03*
%TO.P,J41,3*%
X33700000Y-56480000D03*
%TO.P,J41,4*%
X33700000Y-59020000D03*
%TD*%
D13*
%TO.P,J2,1*%
%TO.N,+12V*%
X151600000Y-58200000D03*
D10*
%TO.P,J2,2*%
X151600000Y-53200000D03*
%TD*%
D13*
%TO.P,J34,1*%
%TO.N,+3V3*%
X23200000Y-79400000D03*
D10*
%TO.P,J34,2*%
X23200000Y-74400000D03*
%TD*%
D13*
%TO.P,J35,1*%
%TO.N,+3V3*%
X23200000Y-91400000D03*
D10*
%TO.P,J35,2*%
X23200000Y-86400000D03*
%TD*%
D13*
%TO.P,J32,1*%
%TO.N,SDA*%
X23200000Y-49400000D03*
D10*
%TO.P,J32,2*%
X23200000Y-44400000D03*
%TD*%
D11*
%TO.P,SV1,1*%
%TO.N,PWM_CH0*%
X101000000Y-135000000D03*
D12*
%TO.P,SV1,2*%
%TO.N,SV1_PWR*%
X103540000Y-135000000D03*
%TO.P,SV1,3*%
%TO.N,GND*%
X106080000Y-135000000D03*
%TD*%
D11*
%TO.P,J_ESC,1*%
%TO.N,PWM_CH11*%
X89000000Y-138000000D03*
D12*
%TO.P,J_ESC,2*%
%TO.N,N/C*%
X91540000Y-138000000D03*
%TO.P,J_ESC,3*%
%TO.N,GND*%
X94080000Y-138000000D03*
%TD*%
D11*
%TO.P,SV3,1*%
%TO.N,PWM_CH2*%
X125000000Y-135000000D03*
D12*
%TO.P,SV3,2*%
%TO.N,SV3_PWR*%
X127540000Y-135000000D03*
%TO.P,SV3,3*%
%TO.N,GND*%
X130080000Y-135000000D03*
%TD*%
D13*
%TO.P,J37,1*%
%TO.N,+5V_LOGIC*%
X23200000Y-109400000D03*
D10*
%TO.P,J37,2*%
X23200000Y-104400000D03*
%TD*%
D11*
%TO.P,J44,1*%
%TO.N,GND_LOGIC*%
X33700000Y-141400000D03*
D12*
%TO.P,J44,2*%
X33700000Y-143940000D03*
%TO.P,J44,3*%
X33700000Y-146480000D03*
%TO.P,J44,4*%
X33700000Y-149020000D03*
%TD*%
D11*
%TO.P,SV10,1*%
%TO.N,PWM_CH9*%
X89000000Y-150000000D03*
D12*
%TO.P,SV10,2*%
%TO.N,SV10_PWR*%
X91540000Y-150000000D03*
%TO.P,SV10,3*%
%TO.N,GND*%
X94080000Y-150000000D03*
%TD*%
D11*
%TO.P,SV7,1*%
%TO.N,PWM_CH6*%
X53000000Y-150000000D03*
D12*
%TO.P,SV7,2*%
%TO.N,SV7_PWR*%
X55540000Y-150000000D03*
%TO.P,SV7,3*%
%TO.N,GND*%
X58080000Y-150000000D03*
%TD*%
D10*
%TO.P,F7,1*%
%TO.N,+12V*%
X46685000Y-63000000D03*
%TO.P,F7,2*%
%TO.N,SV7_PWR*%
X69315000Y-63000000D03*
%TD*%
D13*
%TO.P,J1,1*%
%TO.N,+12V*%
X151600000Y-46200000D03*
D10*
%TO.P,J1,2*%
X151600000Y-41200000D03*
%TD*%
D13*
%TO.P,J36,1*%
%TO.N,+5V_LOGIC*%
X23200000Y-121400000D03*
D10*
%TO.P,J36,2*%
X23200000Y-116400000D03*
%TD*%
D11*
%TO.P,SV9,1*%
%TO.N,PWM_CH8*%
X77000000Y-150000000D03*
D12*
%TO.P,SV9,2*%
%TO.N,SV9_PWR*%
X79540000Y-150000000D03*
%TO.P,SV9,3*%
%TO.N,GND*%
X82080000Y-150000000D03*
%TD*%
D11*
%TO.P,SV5,1*%
%TO.N,PWM_CH4*%
X149000000Y-135000000D03*
D12*
%TO.P,SV5,2*%
%TO.N,SV5_PWR*%
X151540000Y-135000000D03*
%TO.P,SV5,3*%
%TO.N,GND*%
X154080000Y-135000000D03*
%TD*%
D11*
%TO.P,J43,1*%
%TO.N,+5V_LOGIC*%
X33700000Y-111400000D03*
D12*
%TO.P,J43,2*%
X33700000Y-113940000D03*
%TO.P,J43,3*%
X33700000Y-116480000D03*
%TO.P,J43,4*%
X33700000Y-119020000D03*
%TD*%
D13*
%TO.P,J39,1*%
%TO.N,GND_LOGIC*%
X23200000Y-139400000D03*
D10*
%TO.P,J39,2*%
X23200000Y-134400000D03*
%TD*%
D11*
%TO.P,SV8,1*%
%TO.N,PWM_CH7*%
X65000000Y-150000000D03*
D12*
%TO.P,SV8,2*%
%TO.N,SV8_PWR*%
X67540000Y-150000000D03*
%TO.P,SV8,3*%
%TO.N,GND*%
X70080000Y-150000000D03*
%TD*%
D11*
%TO.P,J40,1*%
%TO.N,SCL*%
X33700000Y-21400000D03*
D12*
%TO.P,J40,2*%
X33700000Y-23940000D03*
%TO.P,J40,3*%
X33700000Y-26480000D03*
%TO.P,J40,4*%
X33700000Y-29020000D03*
%TD*%
D13*
%TO.P,J6,1*%
%TO.N,+5V_SERVO*%
X151600000Y-86200000D03*
D10*
%TO.P,J6,2*%
X151600000Y-81200000D03*
%TD*%
%TO.P,F4,1*%
%TO.N,+5V_SERVO*%
X83185000Y-93000000D03*
%TO.P,F4,2*%
%TO.N,SV4_PWR*%
X105815000Y-93000000D03*
%TD*%
%TO.P,F3,1*%
%TO.N,+7V4*%
X83185000Y-78000000D03*
%TO.P,F3,2*%
%TO.N,SV3_PWR*%
X105815000Y-78000000D03*
%TD*%
D13*
%TO.P,J5,1*%
%TO.N,+7V4*%
X151600000Y-74200000D03*
D10*
%TO.P,J5,2*%
X151600000Y-69200000D03*
%TD*%
D13*
%TO.P,J31,1*%
%TO.N,SCL*%
X23200000Y-19400000D03*
D10*
%TO.P,J31,2*%
X23200000Y-14400000D03*
%TD*%
%TO.P,F5,1*%
%TO.N,+5V_SERVO*%
X83185000Y-108000000D03*
%TO.P,F5,2*%
%TO.N,SV5_PWR*%
X105815000Y-108000000D03*
%TD*%
%TO.P,F9,1*%
%TO.N,+5V_SERVO*%
X46685000Y-93000000D03*
%TO.P,F9,2*%
%TO.N,SV9_PWR*%
X69315000Y-93000000D03*
%TD*%
D11*
%TO.P,J42,1*%
%TO.N,+3V3*%
X33700000Y-81400000D03*
D12*
%TO.P,J42,2*%
X33700000Y-83940000D03*
%TO.P,J42,3*%
X33700000Y-86480000D03*
%TO.P,J42,4*%
X33700000Y-89020000D03*
%TD*%
D13*
%TO.P,J38,1*%
%TO.N,GND_LOGIC*%
X23200000Y-151400000D03*
D10*
%TO.P,J38,2*%
X23200000Y-146400000D03*
%TD*%
D13*
%TO.P,J33,1*%
%TO.N,SDA*%
X23200000Y-61400000D03*
D10*
%TO.P,J33,2*%
X23200000Y-56400000D03*
%TD*%
D13*
%TO.P,J3,1*%
%TO.N,GND*%
X151600000Y-102200000D03*
D10*
%TO.P,J3,2*%
X151600000Y-97200000D03*
%TD*%
%TO.P,F8,1*%
%TO.N,+7V4*%
X46685000Y-78000000D03*
%TO.P,F8,2*%
%TO.N,SV8_PWR*%
X69315000Y-78000000D03*
%TD*%
D11*
%TO.P,J_FAN,1*%
%TO.N,PWM_CH12*%
X101000000Y-138000000D03*
D12*
%TO.P,J_FAN,2*%
%TO.N,+12V*%
X103540000Y-138000000D03*
%TO.P,J_FAN,3*%
%TO.N,GND*%
X106080000Y-138000000D03*
%TD*%
D11*
%TO.P,J_PCA,1*%
%TO.N,PWM_CH0*%
X117860000Y-10000000D03*
D12*
%TO.P,J_PCA,2*%
%TO.N,PWM_CH1*%
X115320000Y-10000000D03*
%TO.P,J_PCA,3*%
%TO.N,PWM_CH2*%
X112780000Y-10000000D03*
%TO.P,J_PCA,4*%
%TO.N,PWM_CH3*%
X110240000Y-10000000D03*
%TO.P,J_PCA,5*%
%TO.N,N/C*%
X107700000Y-10000000D03*
%TO.P,J_PCA,6*%
%TO.N,PWM_CH4*%
X105160000Y-10000000D03*
%TO.P,J_PCA,7*%
%TO.N,PWM_CH5*%
X102620000Y-10000000D03*
%TO.P,J_PCA,8*%
%TO.N,PWM_CH6*%
X100080000Y-10000000D03*
%TO.P,J_PCA,9*%
%TO.N,PWM_CH7*%
X97540000Y-10000000D03*
%TO.P,J_PCA,10*%
%TO.N,N/C*%
X95000000Y-10000000D03*
%TO.P,J_PCA,11*%
%TO.N,PWM_CH8*%
X92460000Y-10000000D03*
%TO.P,J_PCA,12*%
%TO.N,PWM_CH9*%
X89920000Y-10000000D03*
%TO.P,J_PCA,13*%
%TO.N,PWM_CH10*%
X87380000Y-10000000D03*
%TO.P,J_PCA,14*%
%TO.N,PWM_CH11*%
X84840000Y-10000000D03*
%TO.P,J_PCA,15*%
%TO.N,N/C*%
X82300000Y-10000000D03*
%TO.P,J_PCA,16*%
%TO.N,PWM_CH12*%
X79760000Y-10000000D03*
%TO.P,J_PCA,17*%
%TO.N,PWM_CH13*%
X77220000Y-10000000D03*
%TO.P,J_PCA,18*%
%TO.N,PWM_CH14*%
X74680000Y-10000000D03*
%TO.P,J_PCA,19*%
%TO.N,PWM_CH15*%
X72140000Y-10000000D03*
%TD*%
D13*
%TO.P,J30,1*%
%TO.N,SCL*%
X23200000Y-31400000D03*
D10*
%TO.P,J30,2*%
X23200000Y-26400000D03*
%TD*%
%TO.P,F1,1*%
%TO.N,+12V*%
X83185000Y-48000000D03*
%TO.P,F1,2*%
%TO.N,SV1_PWR*%
X105815000Y-48000000D03*
%TD*%
%TO.P,F10,1*%
%TO.N,+5V_SERVO*%
X46685000Y-108000000D03*
%TO.P,F10,2*%
%TO.N,SV10_PWR*%
X69315000Y-108000000D03*
%TD*%
D14*
%TO.N,PWM_CH3*%
X131490400Y-131065700D03*
%TO.N,PWM_CH1*%
X117848300Y-132069600D03*
X113599300Y-19468800D03*
%TO.N,PWM_CH5*%
X41000000Y-8083400D03*
%TO.N,PWM_CH11*%
X89000000Y-14160000D03*
%TO.N,PWM_CH2*%
X110892000Y-16189100D03*
%TO.N,PWM_CH6*%
X100080000Y-132069600D03*
%TO.N,PWM_CH4*%
X110175100Y-14201500D03*
X130744400Y-124987600D03*
%TO.N,PWM_CH7*%
X72290900Y-12390800D03*
%TO.N,PWM_CH12*%
X91374000Y-22075100D03*
%TD*%
%TO.N,+12V*%
D15*
X103499600Y-140600800D02*
X87430600Y-140600800D01*
X83185000Y-48000000D02*
X83185000Y-63000000D01*
X151600000Y-46200000D02*
X151600000Y-53200000D01*
D16*
X103550200Y-138010200D02*
X103540000Y-138000000D01*
X103550200Y-140550200D02*
X103550200Y-138010200D01*
D15*
X86448300Y-139618500D02*
X86448300Y-66263300D01*
X46685000Y-63000000D02*
X46685000Y-48000000D01*
X151600000Y-53200000D02*
X151600000Y-58200000D01*
X103550200Y-140550200D02*
X103499600Y-140600800D01*
X86448300Y-66263300D02*
X83185000Y-63000000D01*
X87430600Y-140600800D02*
X86448300Y-139618500D01*
X151600000Y-41200000D02*
X151600000Y-46200000D01*
%TO.N,SV2_PWR*%
D17*
X105815000Y-63000000D02*
X115540000Y-72725000D01*
X115540000Y-72725000D02*
X115540000Y-135000000D01*
%TO.N,PWM_CH3*%
D18*
X131490400Y-131065700D02*
X131490400Y-31250400D01*
X131490400Y-31250400D02*
X110240000Y-10000000D01*
%TO.N,GND*%
D15*
X151600000Y-102200000D02*
X151600000Y-109200000D01*
X132988600Y-132398300D02*
X142614500Y-132398300D01*
X151600000Y-109200000D02*
X150099000Y-107699000D01*
D16*
X106080000Y-138000000D02*
X106080000Y-135000000D01*
D15*
X151600000Y-109200000D02*
X151600000Y-114200000D01*
X149981300Y-125031500D02*
X142614500Y-132398300D01*
X150099000Y-96580300D02*
X150098900Y-96580200D01*
X150098900Y-96580200D02*
X150098800Y-96580200D01*
D16*
X154090200Y-132944600D02*
X154090200Y-134989800D01*
D15*
X142614500Y-132398300D02*
X142614500Y-134465500D01*
X130921400Y-134465500D02*
X132988600Y-132398300D01*
X151600000Y-130454400D02*
X154090200Y-132944600D01*
X151600000Y-114200000D02*
X151600000Y-130454400D01*
D16*
X130614500Y-134465500D02*
X130080000Y-135000000D01*
X142614500Y-134465500D02*
X142080000Y-135000000D01*
D15*
X150098800Y-96580200D02*
X149981300Y-96697700D01*
X151600000Y-97200000D02*
X151600000Y-102200000D01*
X149981300Y-96697700D02*
X149981300Y-125031500D01*
X130614500Y-134465500D02*
X130921400Y-134465500D01*
X150099000Y-107699000D02*
X150099000Y-96580300D01*
D16*
X154090200Y-134989800D02*
X154080000Y-135000000D01*
%TO.N,SV6_PWR*%
D17*
X43540000Y-73775000D02*
X69315000Y-48000000D01*
X43540000Y-150000000D02*
X43540000Y-73775000D01*
%TO.N,PWM_CH1*%
D18*
X113599300Y-65727900D02*
X117848300Y-69976900D01*
X117848300Y-69976900D02*
X117848300Y-132069600D01*
X113599300Y-19468800D02*
X113599300Y-65727900D01*
%TO.N,PWM_CH5*%
X41000000Y-150000000D02*
X41000000Y-8083400D01*
%TO.N,SDA*%
X33700000Y-59020000D02*
X33700000Y-56480000D01*
X23200000Y-61400000D02*
X23200000Y-56400000D01*
X23200000Y-44400000D02*
X23200000Y-49400000D01*
X23200000Y-56400000D02*
X23200000Y-49400000D01*
X33700000Y-53940000D02*
X33700000Y-51400000D01*
X33700000Y-56480000D02*
X33700000Y-53940000D01*
%TO.N,+3V3*%
D19*
X33700000Y-86480000D02*
X33700000Y-83940000D01*
X23200000Y-91400000D02*
X23200000Y-86400000D01*
X23200000Y-74400000D02*
X23200000Y-79400000D01*
X33700000Y-83940000D02*
X33700000Y-81400000D01*
X23200000Y-86400000D02*
X23200000Y-79400000D01*
X33700000Y-89020000D02*
X33700000Y-86480000D01*
%TO.N,PWM_CH0*%
D18*
X115886600Y-8730700D02*
X109678500Y-8730700D01*
X116608300Y-10000000D02*
X116608300Y-9452400D01*
X108967700Y-9441500D02*
X108967700Y-14401400D01*
X117860000Y-10000000D02*
X116608300Y-10000000D01*
X109678500Y-8730700D02*
X108967700Y-9441500D01*
X116608300Y-9452400D02*
X115886600Y-8730700D01*
X101000000Y-22369100D02*
X101000000Y-135000000D01*
X108967700Y-14401400D02*
X101000000Y-22369100D01*
%TO.N,SV1_PWR*%
D17*
X103540000Y-135000000D02*
X103170700Y-134630700D01*
X103170700Y-134630700D02*
X103170700Y-50644300D01*
X103170700Y-50644300D02*
X105815000Y-48000000D01*
%TO.N,PWM_CH11*%
D18*
X89000000Y-138000000D02*
X89000000Y-14160000D01*
%TO.N,PWM_CH2*%
X113889900Y-18767100D02*
X113470000Y-18767100D01*
X114301000Y-19598100D02*
X114301000Y-19178200D01*
X125000000Y-135000000D02*
X125000000Y-30297100D01*
X114301000Y-19178200D02*
X113889900Y-18767100D01*
X125000000Y-30297100D02*
X114301000Y-19598100D01*
X113470000Y-18767100D02*
X110892000Y-16189100D01*
%TO.N,SV3_PWR*%
D20*
X105815000Y-78000000D02*
X110868800Y-83053800D01*
X126075300Y-137004800D02*
X127540000Y-135540100D01*
X110868800Y-83053800D02*
X110868800Y-135986000D01*
X111887600Y-137004800D02*
X126075300Y-137004800D01*
X110868800Y-135986000D02*
X111887600Y-137004800D01*
X127540000Y-135540100D02*
X127540000Y-135000000D01*
%TO.N,+5V_LOGIC*%
D19*
X23200000Y-116400000D02*
X23200000Y-109400000D01*
X23200000Y-104400000D02*
X23200000Y-109400000D01*
X33700000Y-119020000D02*
X33700000Y-116480000D01*
X23200000Y-121400000D02*
X23200000Y-116400000D01*
X33700000Y-116480000D02*
X33700000Y-113940000D01*
X33700000Y-113940000D02*
X33700000Y-111400000D01*
%TO.N,GND_LOGIC*%
X23200000Y-134400000D02*
X23200000Y-139400000D01*
X33700000Y-146480000D02*
X33700000Y-143940000D01*
X33700000Y-143940000D02*
X33700000Y-141400000D01*
X23200000Y-151400000D02*
X23200000Y-146400000D01*
X23200000Y-146400000D02*
X23200000Y-139400000D01*
X33700000Y-149020000D02*
X33700000Y-146480000D01*
%TO.N,PWM_CH9*%
D18*
X89000000Y-150000000D02*
X89000000Y-148748300D01*
X81274800Y-141023100D02*
X81274800Y-18645200D01*
X81274800Y-18645200D02*
X89920000Y-10000000D01*
X89000000Y-148748300D02*
X81274800Y-141023100D01*
%TO.N,SV10_PWR*%
D21*
X69315000Y-146843800D02*
X69315000Y-108000000D01*
X91540000Y-150000000D02*
X91540000Y-150173500D01*
X91540000Y-150173500D02*
X88910600Y-152802900D01*
X75274100Y-152802900D02*
X69315000Y-146843800D01*
X88910600Y-152802900D02*
X75274100Y-152802900D01*
%TO.N,PWM_CH6*%
D18*
X100080000Y-10000000D02*
X100080000Y-132069600D01*
%TO.N,SV7_PWR*%
D17*
X55540000Y-150000000D02*
X55540000Y-76775000D01*
X55540000Y-76775000D02*
X69315000Y-63000000D01*
%TO.N,PWM_CH8*%
D18*
X77000000Y-150000000D02*
X77000000Y-17135100D01*
X77000000Y-17135100D02*
X83570000Y-10565100D01*
X83570000Y-10565100D02*
X83570000Y-9494800D01*
X83570000Y-9494800D02*
X84354400Y-8710400D01*
X84354400Y-8710400D02*
X91170400Y-8710400D01*
X91170400Y-8710400D02*
X92460000Y-10000000D01*
%TO.N,SV9_PWR*%
D21*
X75787700Y-151551700D02*
X73318200Y-149082200D01*
X73318200Y-149082200D02*
X73318200Y-97003200D01*
X73318200Y-97003200D02*
X69315000Y-93000000D01*
X78142100Y-151551700D02*
X75787700Y-151551700D01*
X79540000Y-150000000D02*
X79540000Y-150153800D01*
X79540000Y-150153800D02*
X78142100Y-151551700D01*
%TO.N,PWM_CH4*%
D18*
X130744400Y-124987600D02*
X130744400Y-34770800D01*
X130744400Y-34770800D02*
X110175100Y-14201500D01*
%TO.N,PWM_CH7*%
X65000000Y-78184100D02*
X72290900Y-70893200D01*
X72290900Y-70893200D02*
X72290900Y-12390800D01*
X65000000Y-150000000D02*
X65000000Y-78184100D01*
%TO.N,SV8_PWR*%
D20*
X67540000Y-150000000D02*
X66963300Y-149423300D01*
X66963300Y-80351700D02*
X69315000Y-78000000D01*
X66963300Y-149423300D02*
X66963300Y-80351700D01*
%TO.N,SCL*%
D18*
X23200000Y-14400000D02*
X23200000Y-19400000D01*
X23200000Y-26400000D02*
X23200000Y-19400000D01*
X33700000Y-23940000D02*
X33700000Y-21400000D01*
X33700000Y-29020000D02*
X33700000Y-26480000D01*
X33700000Y-26480000D02*
X33700000Y-23940000D01*
X23200000Y-31400000D02*
X23200000Y-26400000D01*
%TO.N,+5V_SERVO*%
D20*
X83185000Y-108000000D02*
X83185000Y-93000000D01*
X46685000Y-108000000D02*
X46685000Y-93000000D01*
X151600000Y-81200000D02*
X151600000Y-86200000D01*
%TO.N,+7V4*%
D17*
X151600000Y-69200000D02*
X151600000Y-74200000D01*
%TO.N,PWM_CH12*%
D18*
X91374000Y-127669900D02*
X100452400Y-136748300D01*
X100452400Y-136748300D02*
X101000000Y-136748300D01*
X91374000Y-22075100D02*
X91374000Y-127669900D01*
X101000000Y-138000000D02*
X101000000Y-136748300D01*
%TD*%
%TA.AperFunction,Conductor*%
%TO.N,+12V*%
G36*
X157425500Y-5569962D02*
G01*
X157480038Y-5624500D01*
X157500000Y-5699000D01*
X157500000Y-156744796D01*
X157480038Y-156819296D01*
X157425500Y-156873834D01*
X157351000Y-156893796D01*
X86349000Y-156893796D01*
X86274500Y-156873834D01*
X86219962Y-156819296D01*
X86200000Y-156744796D01*
X86200000Y-153952400D01*
X86219962Y-153877900D01*
X86274500Y-153823362D01*
X86349000Y-153803400D01*
X89009137Y-153803400D01*
X89009140Y-153803400D01*
X89009141Y-153803400D01*
X89105788Y-153784175D01*
X89202436Y-153764951D01*
X89255765Y-153742861D01*
X89384514Y-153689532D01*
X89548382Y-153580039D01*
X89687739Y-153440682D01*
X89687740Y-153440680D01*
X89696225Y-153432195D01*
X89696231Y-153432188D01*
X91768460Y-151359958D01*
X91835253Y-151321396D01*
X91850513Y-151318153D01*
X91856243Y-151317246D01*
X91856249Y-151317243D01*
X91856253Y-151317243D01*
X91889317Y-151306499D01*
X92058412Y-151251557D01*
X92247816Y-151155051D01*
X92419792Y-151030104D01*
X92570104Y-150879792D01*
X92689456Y-150715517D01*
X92749396Y-150666979D01*
X92825574Y-150654913D01*
X92897580Y-150682553D01*
X92930544Y-150715517D01*
X93049896Y-150879792D01*
X93200208Y-151030104D01*
X93372184Y-151155051D01*
X93561588Y-151251557D01*
X93763757Y-151317246D01*
X93973713Y-151350500D01*
X93973718Y-151350500D01*
X94186282Y-151350500D01*
X94186287Y-151350500D01*
X94396243Y-151317246D01*
X94598412Y-151251557D01*
X94787816Y-151155051D01*
X94959792Y-151030104D01*
X95110104Y-150879792D01*
X95235051Y-150707816D01*
X95331557Y-150518412D01*
X95397246Y-150316243D01*
X95430500Y-150106287D01*
X95430500Y-149893713D01*
X95397246Y-149683757D01*
X95331557Y-149481588D01*
X95235051Y-149292184D01*
X95110104Y-149120208D01*
X94959792Y-148969896D01*
X94787816Y-148844949D01*
X94598412Y-148748443D01*
X94396243Y-148682754D01*
X94186287Y-148649500D01*
X93973713Y-148649500D01*
X93798749Y-148677211D01*
X93763756Y-148682754D01*
X93561594Y-148748441D01*
X93561588Y-148748443D01*
X93561582Y-148748445D01*
X93561582Y-148748446D01*
X93372182Y-148844950D01*
X93372181Y-148844950D01*
X93200209Y-148969895D01*
X93200206Y-148969897D01*
X93049897Y-149120206D01*
X93049895Y-149120209D01*
X92930544Y-149284482D01*
X92870604Y-149333020D01*
X92794425Y-149345086D01*
X92722420Y-149317446D01*
X92689456Y-149284482D01*
X92627236Y-149198844D01*
X92570104Y-149120208D01*
X92419792Y-148969896D01*
X92247816Y-148844949D01*
X92058412Y-148748443D01*
X91856243Y-148682754D01*
X91646287Y-148649500D01*
X91433713Y-148649500D01*
X91258749Y-148677211D01*
X91223756Y-148682754D01*
X91021594Y-148748441D01*
X91021588Y-148748443D01*
X91021582Y-148748445D01*
X91021582Y-148748446D01*
X90832182Y-148844950D01*
X90832181Y-148844950D01*
X90660209Y-148969895D01*
X90660198Y-148969904D01*
X90574179Y-149055923D01*
X90507384Y-149094487D01*
X90430256Y-149094487D01*
X90363462Y-149055922D01*
X90329215Y-149002633D01*
X90317008Y-148969904D01*
X90293796Y-148907669D01*
X90293795Y-148907668D01*
X90293795Y-148907666D01*
X90207547Y-148792455D01*
X90207544Y-148792452D01*
X90092333Y-148706204D01*
X90092329Y-148706202D01*
X89957482Y-148655908D01*
X89897885Y-148649500D01*
X89897873Y-148649500D01*
X89816097Y-148649500D01*
X89741597Y-148629538D01*
X89687059Y-148575000D01*
X89676516Y-148550678D01*
X89676381Y-148550734D01*
X89620779Y-148416497D01*
X89620776Y-148416493D01*
X89620775Y-148416489D01*
X89544114Y-148301757D01*
X86243641Y-145001284D01*
X86205077Y-144934489D01*
X86200000Y-144895925D01*
X86200000Y-137102114D01*
X87649500Y-137102114D01*
X87649500Y-138897863D01*
X87649502Y-138897888D01*
X87655908Y-138957478D01*
X87655909Y-138957484D01*
X87706202Y-139092329D01*
X87706204Y-139092333D01*
X87792452Y-139207544D01*
X87792455Y-139207547D01*
X87907666Y-139293795D01*
X87907670Y-139293797D01*
X88042517Y-139344091D01*
X88102114Y-139350499D01*
X88102118Y-139350499D01*
X88102127Y-139350500D01*
X89897872Y-139350499D01*
X89957483Y-139344091D01*
X90053447Y-139308298D01*
X90092329Y-139293797D01*
X90092333Y-139293795D01*
X90149938Y-139250671D01*
X90207546Y-139207546D01*
X90293796Y-139092331D01*
X90293797Y-139092329D01*
X90293798Y-139092327D01*
X90329215Y-138997367D01*
X90373953Y-138934540D01*
X90444110Y-138902498D01*
X90520889Y-138909829D01*
X90574180Y-138944076D01*
X90660208Y-139030104D01*
X90832184Y-139155051D01*
X91021588Y-139251557D01*
X91223757Y-139317246D01*
X91433713Y-139350500D01*
X91433718Y-139350500D01*
X91646282Y-139350500D01*
X91646287Y-139350500D01*
X91856243Y-139317246D01*
X92058412Y-139251557D01*
X92247816Y-139155051D01*
X92419792Y-139030104D01*
X92570104Y-138879792D01*
X92689456Y-138715517D01*
X92749396Y-138666979D01*
X92825574Y-138654913D01*
X92897580Y-138682553D01*
X92930544Y-138715517D01*
X93049896Y-138879792D01*
X93200208Y-139030104D01*
X93372184Y-139155051D01*
X93561588Y-139251557D01*
X93763757Y-139317246D01*
X93973713Y-139350500D01*
X93973718Y-139350500D01*
X94186282Y-139350500D01*
X94186287Y-139350500D01*
X94396243Y-139317246D01*
X94598412Y-139251557D01*
X94787816Y-139155051D01*
X94959792Y-139030104D01*
X95110104Y-138879792D01*
X95235051Y-138707816D01*
X95331557Y-138518412D01*
X95397246Y-138316243D01*
X95430500Y-138106287D01*
X95430500Y-137893713D01*
X95397246Y-137683757D01*
X95331557Y-137481588D01*
X95235051Y-137292184D01*
X95110104Y-137120208D01*
X94959792Y-136969896D01*
X94787816Y-136844949D01*
X94598412Y-136748443D01*
X94396243Y-136682754D01*
X94186287Y-136649500D01*
X93973713Y-136649500D01*
X93798749Y-136677211D01*
X93763756Y-136682754D01*
X93561594Y-136748441D01*
X93561588Y-136748443D01*
X93561582Y-136748445D01*
X93561582Y-136748446D01*
X93372182Y-136844950D01*
X93372181Y-136844950D01*
X93200209Y-136969895D01*
X93200206Y-136969897D01*
X93049897Y-137120206D01*
X93049895Y-137120209D01*
X92930544Y-137284482D01*
X92870604Y-137333020D01*
X92794425Y-137345086D01*
X92722420Y-137317446D01*
X92689456Y-137284482D01*
X92627236Y-137198844D01*
X92570104Y-137120208D01*
X92419792Y-136969896D01*
X92247816Y-136844949D01*
X92058412Y-136748443D01*
X91856243Y-136682754D01*
X91646287Y-136649500D01*
X91433713Y-136649500D01*
X91258749Y-136677211D01*
X91223756Y-136682754D01*
X91021594Y-136748441D01*
X91021588Y-136748443D01*
X91021582Y-136748445D01*
X91021582Y-136748446D01*
X90832182Y-136844950D01*
X90832181Y-136844950D01*
X90660209Y-136969895D01*
X90660198Y-136969904D01*
X90574179Y-137055923D01*
X90507384Y-137094487D01*
X90430256Y-137094487D01*
X90363462Y-137055922D01*
X90329215Y-137002633D01*
X90317008Y-136969904D01*
X90293796Y-136907669D01*
X90293795Y-136907668D01*
X90293795Y-136907666D01*
X90207547Y-136792455D01*
X90207544Y-136792452D01*
X90092333Y-136706204D01*
X90092329Y-136706202D01*
X89957482Y-136655908D01*
X89897885Y-136649500D01*
X89897873Y-136649500D01*
X89849500Y-136649500D01*
X89775000Y-136629538D01*
X89720462Y-136575000D01*
X89700500Y-136500500D01*
X89700500Y-14590289D01*
X89711842Y-14533270D01*
X89736373Y-14474044D01*
X89769737Y-14393497D01*
X89800500Y-14238842D01*
X89800500Y-14081158D01*
X89769737Y-13926503D01*
X89709394Y-13780821D01*
X89621789Y-13649711D01*
X89510289Y-13538211D01*
X89379179Y-13450606D01*
X89379178Y-13450605D01*
X89379176Y-13450604D01*
X89233498Y-13390263D01*
X89233494Y-13390262D01*
X89078842Y-13359500D01*
X88921158Y-13359500D01*
X88766505Y-13390262D01*
X88766501Y-13390263D01*
X88620823Y-13450604D01*
X88489707Y-13538214D01*
X88378214Y-13649707D01*
X88290604Y-13780823D01*
X88230263Y-13926501D01*
X88230262Y-13926505D01*
X88199500Y-14081157D01*
X88199500Y-14238842D01*
X88230262Y-14393494D01*
X88230263Y-14393498D01*
X88288158Y-14533270D01*
X88299500Y-14590289D01*
X88299500Y-136500500D01*
X88279538Y-136575000D01*
X88225000Y-136629538D01*
X88150503Y-136649500D01*
X88102137Y-136649500D01*
X88102111Y-136649502D01*
X88042521Y-136655908D01*
X88042515Y-136655909D01*
X87907670Y-136706202D01*
X87907666Y-136706204D01*
X87792455Y-136792452D01*
X87792452Y-136792455D01*
X87706204Y-136907666D01*
X87706202Y-136907670D01*
X87655908Y-137042517D01*
X87649500Y-137102114D01*
X86200000Y-137102114D01*
X86200000Y-14772374D01*
X86219962Y-14697874D01*
X86243641Y-14667015D01*
X87588641Y-13322015D01*
X89541143Y-11369512D01*
X89607936Y-11330950D01*
X89669805Y-11327707D01*
X89813713Y-11350500D01*
X89813718Y-11350500D01*
X90026282Y-11350500D01*
X90026287Y-11350500D01*
X90236243Y-11317246D01*
X90438412Y-11251557D01*
X90627816Y-11155051D01*
X90799792Y-11030104D01*
X90950104Y-10879792D01*
X91069456Y-10715517D01*
X91129396Y-10666979D01*
X91205574Y-10654913D01*
X91277580Y-10682553D01*
X91310544Y-10715517D01*
X91429896Y-10879792D01*
X91580208Y-11030104D01*
X91752184Y-11155051D01*
X91941588Y-11251557D01*
X92143757Y-11317246D01*
X92353713Y-11350500D01*
X92353718Y-11350500D01*
X92566282Y-11350500D01*
X92566287Y-11350500D01*
X92776243Y-11317246D01*
X92978412Y-11251557D01*
X93167816Y-11155051D01*
X93339792Y-11030104D01*
X93490104Y-10879792D01*
X93609456Y-10715517D01*
X93669396Y-10666979D01*
X93745574Y-10654913D01*
X93817580Y-10682553D01*
X93850544Y-10715517D01*
X93969896Y-10879792D01*
X94120208Y-11030104D01*
X94292184Y-11155051D01*
X94481588Y-11251557D01*
X94683757Y-11317246D01*
X94893713Y-11350500D01*
X94893718Y-11350500D01*
X95106282Y-11350500D01*
X95106287Y-11350500D01*
X95316243Y-11317246D01*
X95518412Y-11251557D01*
X95707816Y-11155051D01*
X95879792Y-11030104D01*
X96030104Y-10879792D01*
X96149456Y-10715517D01*
X96209396Y-10666979D01*
X96285574Y-10654913D01*
X96357580Y-10682553D01*
X96390544Y-10715517D01*
X96509896Y-10879792D01*
X96660208Y-11030104D01*
X96832184Y-11155051D01*
X97021588Y-11251557D01*
X97223757Y-11317246D01*
X97433713Y-11350500D01*
X97433718Y-11350500D01*
X97646282Y-11350500D01*
X97646287Y-11350500D01*
X97856243Y-11317246D01*
X98058412Y-11251557D01*
X98247816Y-11155051D01*
X98419792Y-11030104D01*
X98570104Y-10879792D01*
X98689456Y-10715517D01*
X98749396Y-10666979D01*
X98825574Y-10654913D01*
X98897580Y-10682553D01*
X98930544Y-10715517D01*
X99049895Y-10879790D01*
X99049897Y-10879793D01*
X99200206Y-11030102D01*
X99200214Y-11030109D01*
X99256852Y-11071258D01*
X99318080Y-11115742D01*
X99366618Y-11175680D01*
X99379500Y-11236285D01*
X99379500Y-131639311D01*
X99368158Y-131696330D01*
X99310263Y-131836101D01*
X99310262Y-131836105D01*
X99279500Y-131990757D01*
X99279500Y-132148442D01*
X99310262Y-132303094D01*
X99310263Y-132303098D01*
X99370604Y-132448776D01*
X99370605Y-132448778D01*
X99370606Y-132448779D01*
X99458211Y-132579889D01*
X99569711Y-132691389D01*
X99700821Y-132778994D01*
X99846503Y-132839337D01*
X100001158Y-132870100D01*
X100150500Y-132870100D01*
X100225000Y-132890062D01*
X100279538Y-132944600D01*
X100299500Y-133019100D01*
X100299500Y-133500500D01*
X100279538Y-133575000D01*
X100225000Y-133629538D01*
X100150503Y-133649500D01*
X100102137Y-133649500D01*
X100102111Y-133649502D01*
X100042521Y-133655908D01*
X100042515Y-133655909D01*
X99907670Y-133706202D01*
X99907666Y-133706204D01*
X99792455Y-133792452D01*
X99792452Y-133792455D01*
X99706204Y-133907666D01*
X99706202Y-133907670D01*
X99655908Y-134042517D01*
X99649500Y-134102114D01*
X99649500Y-134595025D01*
X99629538Y-134669525D01*
X99575000Y-134724063D01*
X99500500Y-134744025D01*
X99426000Y-134724063D01*
X99395141Y-134700384D01*
X92118141Y-127423384D01*
X92079577Y-127356589D01*
X92074500Y-127318025D01*
X92074500Y-22505389D01*
X92085842Y-22448370D01*
X92110373Y-22389144D01*
X92143737Y-22308597D01*
X92174500Y-22153942D01*
X92174500Y-21996258D01*
X92143737Y-21841603D01*
X92083394Y-21695921D01*
X91995789Y-21564811D01*
X91884289Y-21453311D01*
X91753179Y-21365706D01*
X91753178Y-21365705D01*
X91753176Y-21365704D01*
X91607498Y-21305363D01*
X91607494Y-21305362D01*
X91452842Y-21274600D01*
X91295158Y-21274600D01*
X91140505Y-21305362D01*
X91140501Y-21305363D01*
X90994823Y-21365704D01*
X90863707Y-21453314D01*
X90752214Y-21564807D01*
X90664604Y-21695923D01*
X90604263Y-21841601D01*
X90604262Y-21841605D01*
X90573500Y-21996257D01*
X90573500Y-22153942D01*
X90604262Y-22308594D01*
X90604263Y-22308598D01*
X90662158Y-22448370D01*
X90673500Y-22505389D01*
X90673500Y-127738897D01*
X90700419Y-127874227D01*
X90700420Y-127874229D01*
X90753220Y-128001702D01*
X90753223Y-128001708D01*
X90753225Y-128001711D01*
X90829886Y-128116443D01*
X95245401Y-132531958D01*
X99616275Y-136902831D01*
X99654839Y-136969626D01*
X99655786Y-137033129D01*
X99656905Y-137033250D01*
X99655924Y-137042366D01*
X99655926Y-137042442D01*
X99655908Y-137042514D01*
X99649500Y-137102114D01*
X99649500Y-138897863D01*
X99649502Y-138897888D01*
X99655908Y-138957478D01*
X99655909Y-138957484D01*
X99706202Y-139092329D01*
X99706204Y-139092333D01*
X99792452Y-139207544D01*
X99792455Y-139207547D01*
X99907666Y-139293795D01*
X99907670Y-139293797D01*
X100042517Y-139344091D01*
X100102114Y-139350499D01*
X100102118Y-139350499D01*
X100102127Y-139350500D01*
X101897872Y-139350499D01*
X101957483Y-139344091D01*
X102053447Y-139308298D01*
X102092329Y-139293797D01*
X102092333Y-139293795D01*
X102149938Y-139250671D01*
X102207546Y-139207546D01*
X102217192Y-139194660D01*
X102911024Y-139194660D01*
X103021782Y-139251094D01*
X103021787Y-139251096D01*
X103223871Y-139316757D01*
X103433758Y-139350000D01*
X103646242Y-139350000D01*
X103856128Y-139316757D01*
X104058212Y-139251096D01*
X104058222Y-139251092D01*
X104168974Y-139194660D01*
X104168975Y-139194660D01*
X103540000Y-138565685D01*
X102911024Y-139194660D01*
X102217192Y-139194660D01*
X102293796Y-139092331D01*
X102293796Y-139092329D01*
X102293799Y-139092324D01*
X102294324Y-139090917D01*
X102294325Y-139090915D01*
X102329215Y-138997367D01*
X102344091Y-138957483D01*
X102350003Y-138902498D01*
X102350499Y-138897885D01*
X102350499Y-138897882D01*
X102350500Y-138897873D01*
X102350499Y-138685529D01*
X102370461Y-138611033D01*
X102394140Y-138580173D01*
X102974314Y-137999999D01*
X102908489Y-137934174D01*
X103040000Y-137934174D01*
X103040000Y-138065826D01*
X103074075Y-138192993D01*
X103139901Y-138307007D01*
X103232993Y-138400099D01*
X103347007Y-138465925D01*
X103474174Y-138500000D01*
X103605826Y-138500000D01*
X103732993Y-138465925D01*
X103847007Y-138400099D01*
X103940099Y-138307007D01*
X104005925Y-138192993D01*
X104040000Y-138065826D01*
X104040000Y-137934174D01*
X104005925Y-137807007D01*
X103940099Y-137692993D01*
X103847007Y-137599901D01*
X103732993Y-137534075D01*
X103605826Y-137500000D01*
X103474174Y-137500000D01*
X103347007Y-137534075D01*
X103232993Y-137599901D01*
X103139901Y-137692993D01*
X103074075Y-137807007D01*
X103040000Y-137934174D01*
X102908489Y-137934174D01*
X102394140Y-137419825D01*
X102355576Y-137353030D01*
X102350499Y-137314466D01*
X102350499Y-137102136D01*
X102350499Y-137102128D01*
X102344091Y-137042517D01*
X102316911Y-136969644D01*
X102293797Y-136907670D01*
X102293795Y-136907666D01*
X102207547Y-136792455D01*
X102207544Y-136792452D01*
X102092333Y-136706204D01*
X102092329Y-136706202D01*
X101957482Y-136655908D01*
X101897885Y-136649500D01*
X101897873Y-136649500D01*
X101816097Y-136649500D01*
X101741597Y-136629538D01*
X101687059Y-136575000D01*
X101673487Y-136543668D01*
X101673184Y-136542667D01*
X101670706Y-136465578D01*
X101707105Y-136397579D01*
X101772626Y-136356889D01*
X101815794Y-136350499D01*
X101897864Y-136350499D01*
X101897872Y-136350499D01*
X101957483Y-136344091D01*
X102053447Y-136308298D01*
X102092329Y-136293797D01*
X102092333Y-136293795D01*
X102138314Y-136259372D01*
X102207546Y-136207546D01*
X102283438Y-136106167D01*
X102344063Y-136058491D01*
X102420406Y-136047515D01*
X102492009Y-136076180D01*
X102508068Y-136090095D01*
X102562490Y-136144517D01*
X102562493Y-136144519D01*
X102562496Y-136144522D01*
X102649238Y-136207544D01*
X102753566Y-136283343D01*
X102964008Y-136390568D01*
X103108193Y-136437416D01*
X103172874Y-136479421D01*
X103207890Y-136548143D01*
X103203854Y-136625165D01*
X103161847Y-136689850D01*
X103108191Y-136720829D01*
X103021783Y-136748905D01*
X103021774Y-136748908D01*
X102911024Y-136805339D01*
X103539999Y-137434314D01*
X104168974Y-136805339D01*
X104168974Y-136805338D01*
X104058222Y-136748906D01*
X103971809Y-136720829D01*
X103907124Y-136678822D01*
X103872109Y-136610100D01*
X103876146Y-136533078D01*
X103918153Y-136468393D01*
X103971803Y-136437417D01*
X104115992Y-136390568D01*
X104326434Y-136283343D01*
X104493021Y-136162308D01*
X104565025Y-136134669D01*
X104641203Y-136146734D01*
X104701143Y-136195272D01*
X104728784Y-136267278D01*
X104729600Y-136282853D01*
X104729600Y-137314367D01*
X104709638Y-137388867D01*
X104685959Y-137419726D01*
X104105685Y-138000000D01*
X104734659Y-138628974D01*
X104766644Y-138623909D01*
X104843350Y-138631970D01*
X104905748Y-138677305D01*
X104922712Y-138703426D01*
X104924949Y-138707816D01*
X105049896Y-138879792D01*
X105200208Y-139030104D01*
X105372184Y-139155051D01*
X105561588Y-139251557D01*
X105763757Y-139317246D01*
X105973713Y-139350500D01*
X105973718Y-139350500D01*
X106186282Y-139350500D01*
X106186287Y-139350500D01*
X106396243Y-139317246D01*
X106598412Y-139251557D01*
X106787816Y-139155051D01*
X106959792Y-139030104D01*
X107110104Y-138879792D01*
X107235051Y-138707816D01*
X107331557Y-138518412D01*
X107397246Y-138316243D01*
X107430500Y-138106287D01*
X107430500Y-137893713D01*
X107430500Y-137889141D01*
X107430400Y-137886592D01*
X107430400Y-135113414D01*
X107430500Y-135110869D01*
X107430500Y-134893717D01*
X107430500Y-134893713D01*
X107397246Y-134683757D01*
X107331557Y-134481588D01*
X107235051Y-134292184D01*
X107110104Y-134120208D01*
X106959792Y-133969896D01*
X106787816Y-133844949D01*
X106598412Y-133748443D01*
X106396243Y-133682754D01*
X106186287Y-133649500D01*
X105973713Y-133649500D01*
X105798749Y-133677211D01*
X105763756Y-133682754D01*
X105561594Y-133748441D01*
X105561588Y-133748443D01*
X105561582Y-133748445D01*
X105561582Y-133748446D01*
X105372182Y-133844950D01*
X105372181Y-133844950D01*
X105200209Y-133969895D01*
X105200206Y-133969897D01*
X105049897Y-134120206D01*
X105049892Y-134120212D01*
X105023247Y-134156886D01*
X104963306Y-134205424D01*
X104887128Y-134217489D01*
X104815123Y-134189848D01*
X104782165Y-134156890D01*
X104699655Y-134043326D01*
X104672016Y-133971321D01*
X104671200Y-133955747D01*
X104671200Y-109792211D01*
X104691162Y-109717711D01*
X104745700Y-109663173D01*
X104820200Y-109643211D01*
X104894699Y-109663172D01*
X104972627Y-109708164D01*
X105202793Y-109803502D01*
X105443435Y-109867982D01*
X105443441Y-109867982D01*
X105443442Y-109867983D01*
X105510586Y-109876822D01*
X105690435Y-109900500D01*
X105939565Y-109900500D01*
X106186565Y-109867982D01*
X106427207Y-109803502D01*
X106657373Y-109708164D01*
X106873127Y-109583599D01*
X107070776Y-109431938D01*
X107246938Y-109255776D01*
X107398599Y-109058127D01*
X107523164Y-108842373D01*
X107618502Y-108612207D01*
X107682982Y-108371565D01*
X107715500Y-108124565D01*
X107715500Y-107875435D01*
X107682982Y-107628435D01*
X107618502Y-107387793D01*
X107523164Y-107157627D01*
X107398599Y-106941873D01*
X107246938Y-106744224D01*
X107070776Y-106568062D01*
X106873127Y-106416401D01*
X106769874Y-106356788D01*
X106657377Y-106291838D01*
X106657375Y-106291837D01*
X106657373Y-106291836D01*
X106522548Y-106235989D01*
X106427210Y-106196499D01*
X106427208Y-106196498D01*
X106427207Y-106196498D01*
X106186565Y-106132018D01*
X106186563Y-106132017D01*
X106186557Y-106132016D01*
X105939570Y-106099500D01*
X105939565Y-106099500D01*
X105690435Y-106099500D01*
X105690429Y-106099500D01*
X105443442Y-106132016D01*
X105202789Y-106196499D01*
X105040032Y-106263915D01*
X104972627Y-106291836D01*
X104972625Y-106291836D01*
X104972618Y-106291840D01*
X104894699Y-106336826D01*
X104820199Y-106356788D01*
X104745699Y-106336825D01*
X104691162Y-106282287D01*
X104671200Y-106207788D01*
X104671200Y-94792211D01*
X104691162Y-94717711D01*
X104745700Y-94663173D01*
X104820200Y-94643211D01*
X104894699Y-94663172D01*
X104972627Y-94708164D01*
X105202793Y-94803502D01*
X105443435Y-94867982D01*
X105443441Y-94867982D01*
X105443442Y-94867983D01*
X105510586Y-94876822D01*
X105690435Y-94900500D01*
X105939565Y-94900500D01*
X106186565Y-94867982D01*
X106427207Y-94803502D01*
X106657373Y-94708164D01*
X106873127Y-94583599D01*
X107070776Y-94431938D01*
X107246938Y-94255776D01*
X107398599Y-94058127D01*
X107523164Y-93842373D01*
X107618502Y-93612207D01*
X107682982Y-93371565D01*
X107715500Y-93124565D01*
X107715500Y-92875435D01*
X107682982Y-92628435D01*
X107618502Y-92387793D01*
X107523164Y-92157627D01*
X107398599Y-91941873D01*
X107246938Y-91744224D01*
X107070776Y-91568062D01*
X106873127Y-91416401D01*
X106769874Y-91356788D01*
X106657377Y-91291838D01*
X106657375Y-91291837D01*
X106657373Y-91291836D01*
X106522548Y-91235989D01*
X106427210Y-91196499D01*
X106427208Y-91196498D01*
X106427207Y-91196498D01*
X106186565Y-91132018D01*
X106186563Y-91132017D01*
X106186557Y-91132016D01*
X105939570Y-91099500D01*
X105939565Y-91099500D01*
X105690435Y-91099500D01*
X105690429Y-91099500D01*
X105443442Y-91132016D01*
X105202789Y-91196499D01*
X105040032Y-91263915D01*
X104972627Y-91291836D01*
X104972625Y-91291836D01*
X104972618Y-91291840D01*
X104894699Y-91336826D01*
X104820199Y-91356788D01*
X104745699Y-91336825D01*
X104691162Y-91282287D01*
X104671200Y-91207788D01*
X104671200Y-79792211D01*
X104691162Y-79717711D01*
X104745700Y-79663173D01*
X104820200Y-79643211D01*
X104894699Y-79663172D01*
X104972627Y-79708164D01*
X105202793Y-79803502D01*
X105443435Y-79867982D01*
X105443441Y-79867982D01*
X105443442Y-79867983D01*
X105510586Y-79876822D01*
X105690435Y-79900500D01*
X105885308Y-79900500D01*
X105959808Y-79920462D01*
X105990667Y-79944141D01*
X109574659Y-83528133D01*
X109613223Y-83594928D01*
X109618300Y-83633492D01*
X109618300Y-135887583D01*
X109618300Y-136084417D01*
X109649091Y-136278826D01*
X109709916Y-136466026D01*
X109799276Y-136641405D01*
X109914972Y-136800646D01*
X111072954Y-137958629D01*
X111232195Y-138074324D01*
X111407574Y-138163684D01*
X111594774Y-138224509D01*
X111789183Y-138255300D01*
X111789184Y-138255300D01*
X111789188Y-138255300D01*
X126173712Y-138255300D01*
X126173717Y-138255300D01*
X126368126Y-138224509D01*
X126555326Y-138163684D01*
X126730705Y-138074324D01*
X126889946Y-137958628D01*
X128493829Y-136354745D01*
X128609524Y-136195505D01*
X128698884Y-136020126D01*
X128748494Y-135867441D01*
X128790500Y-135802757D01*
X128859222Y-135767741D01*
X128936244Y-135771778D01*
X129000929Y-135813784D01*
X129010745Y-135825905D01*
X129049896Y-135879792D01*
X129200208Y-136030104D01*
X129372184Y-136155051D01*
X129561588Y-136251557D01*
X129763757Y-136317246D01*
X129898047Y-136338515D01*
X129931753Y-136348021D01*
X129970081Y-136363898D01*
X130223384Y-136431770D01*
X130483377Y-136465999D01*
X130483378Y-136466000D01*
X130483380Y-136466000D01*
X131052522Y-136466000D01*
X131052522Y-136465999D01*
X131182518Y-136448885D01*
X131312516Y-136431771D01*
X131565819Y-136363898D01*
X131565825Y-136363895D01*
X131565827Y-136363895D01*
X131627101Y-136338514D01*
X131808097Y-136263543D01*
X131905087Y-136207546D01*
X132035203Y-136132424D01*
X132141353Y-136050972D01*
X132243251Y-135972783D01*
X133773593Y-134442441D01*
X133840388Y-134403877D01*
X133878952Y-134398800D01*
X135500500Y-134398800D01*
X135575000Y-134418762D01*
X135629538Y-134473300D01*
X135649500Y-134547800D01*
X135649500Y-135897863D01*
X135649502Y-135897888D01*
X135655908Y-135957478D01*
X135655909Y-135957484D01*
X135706202Y-136092329D01*
X135706204Y-136092333D01*
X135792452Y-136207544D01*
X135792454Y-136207546D01*
X135907666Y-136293795D01*
X135907670Y-136293797D01*
X136042517Y-136344091D01*
X136102114Y-136350499D01*
X136102118Y-136350499D01*
X136102127Y-136350500D01*
X137897872Y-136350499D01*
X137957483Y-136344091D01*
X138053447Y-136308298D01*
X138092329Y-136293797D01*
X138092333Y-136293795D01*
X138207546Y-136207546D01*
X138207547Y-136207544D01*
X138293795Y-136092333D01*
X138293798Y-136092327D01*
X138329215Y-135997367D01*
X138373953Y-135934540D01*
X138444110Y-135902498D01*
X138520889Y-135909829D01*
X138574180Y-135944076D01*
X138660208Y-136030104D01*
X138832184Y-136155051D01*
X139021588Y-136251557D01*
X139223757Y-136317246D01*
X139433713Y-136350500D01*
X139433718Y-136350500D01*
X139646282Y-136350500D01*
X139646287Y-136350500D01*
X139856243Y-136317246D01*
X140058412Y-136251557D01*
X140247816Y-136155051D01*
X140419792Y-136030104D01*
X140570104Y-135879792D01*
X140689456Y-135715517D01*
X140749396Y-135666979D01*
X140825574Y-135654913D01*
X140897580Y-135682553D01*
X140930544Y-135715517D01*
X141049896Y-135879792D01*
X141200208Y-136030104D01*
X141372184Y-136155051D01*
X141561588Y-136251557D01*
X141763757Y-136317246D01*
X141898047Y-136338515D01*
X141931753Y-136348021D01*
X141970081Y-136363898D01*
X142223384Y-136431770D01*
X142483377Y-136465999D01*
X142483378Y-136466000D01*
X142483380Y-136466000D01*
X142745622Y-136466000D01*
X142745622Y-136465999D01*
X143005608Y-136431771D01*
X143005610Y-136431771D01*
X143005611Y-136431770D01*
X143005616Y-136431770D01*
X143258915Y-136363899D01*
X143258916Y-136363899D01*
X143258917Y-136363898D01*
X143258919Y-136363898D01*
X143501197Y-136263543D01*
X143728303Y-136132424D01*
X143936348Y-135972784D01*
X143936349Y-135972784D01*
X144121784Y-135787349D01*
X144121784Y-135787348D01*
X144133732Y-135771778D01*
X144281424Y-135579303D01*
X144412543Y-135352197D01*
X144512898Y-135109919D01*
X144580770Y-134856616D01*
X144615000Y-134596620D01*
X144615000Y-133288652D01*
X144634962Y-133214152D01*
X144658641Y-133183293D01*
X149345141Y-128496793D01*
X149411936Y-128458229D01*
X149489064Y-128458229D01*
X149555859Y-128496793D01*
X149594423Y-128563588D01*
X149599500Y-128602152D01*
X149599500Y-130585523D01*
X149616615Y-130715518D01*
X149616615Y-130715520D01*
X149633727Y-130845508D01*
X149633728Y-130845514D01*
X149633729Y-130845516D01*
X149695608Y-131076449D01*
X149701602Y-131098819D01*
X149801957Y-131341097D01*
X149933076Y-131568203D01*
X149999624Y-131654929D01*
X149999624Y-131654930D01*
X150092717Y-131776251D01*
X151711607Y-133395141D01*
X151750171Y-133461936D01*
X151750171Y-133539064D01*
X151711607Y-133605859D01*
X151644812Y-133644423D01*
X151606248Y-133649500D01*
X151433713Y-133649500D01*
X151258749Y-133677211D01*
X151223756Y-133682754D01*
X151021594Y-133748441D01*
X151021588Y-133748443D01*
X151021582Y-133748445D01*
X151021582Y-133748446D01*
X150832182Y-133844950D01*
X150832181Y-133844950D01*
X150660209Y-133969895D01*
X150660198Y-133969904D01*
X150574179Y-134055923D01*
X150507384Y-134094487D01*
X150430256Y-134094487D01*
X150363462Y-134055922D01*
X150329215Y-134002633D01*
X150324374Y-133989653D01*
X150293796Y-133907669D01*
X150293795Y-133907668D01*
X150293795Y-133907666D01*
X150207547Y-133792455D01*
X150207544Y-133792452D01*
X150092333Y-133706204D01*
X150092329Y-133706202D01*
X149957482Y-133655908D01*
X149897876Y-133649500D01*
X148102136Y-133649500D01*
X148102111Y-133649502D01*
X148042521Y-133655908D01*
X148042515Y-133655909D01*
X147907670Y-133706202D01*
X147907666Y-133706204D01*
X147792455Y-133792452D01*
X147792452Y-133792455D01*
X147706204Y-133907666D01*
X147706202Y-133907670D01*
X147655908Y-134042517D01*
X147649500Y-134102114D01*
X147649500Y-135897863D01*
X147649502Y-135897888D01*
X147655908Y-135957478D01*
X147655909Y-135957484D01*
X147706202Y-136092329D01*
X147706204Y-136092333D01*
X147792452Y-136207544D01*
X147792454Y-136207546D01*
X147907666Y-136293795D01*
X147907670Y-136293797D01*
X148042517Y-136344091D01*
X148102114Y-136350499D01*
X148102118Y-136350499D01*
X148102127Y-136350500D01*
X149897872Y-136350499D01*
X149957483Y-136344091D01*
X150053447Y-136308298D01*
X150092329Y-136293797D01*
X150092333Y-136293795D01*
X150207546Y-136207546D01*
X150207547Y-136207544D01*
X150293795Y-136092333D01*
X150293798Y-136092327D01*
X150329215Y-135997367D01*
X150373953Y-135934540D01*
X150444110Y-135902498D01*
X150520889Y-135909829D01*
X150574180Y-135944076D01*
X150660208Y-136030104D01*
X150832184Y-136155051D01*
X151021588Y-136251557D01*
X151223757Y-136317246D01*
X151433713Y-136350500D01*
X151433718Y-136350500D01*
X151646282Y-136350500D01*
X151646287Y-136350500D01*
X151856243Y-136317246D01*
X152058412Y-136251557D01*
X152247816Y-136155051D01*
X152419792Y-136030104D01*
X152570104Y-135879792D01*
X152689456Y-135715517D01*
X152749396Y-135666979D01*
X152825574Y-135654913D01*
X152897580Y-135682553D01*
X152930544Y-135715517D01*
X153049896Y-135879792D01*
X153200208Y-136030104D01*
X153372184Y-136155051D01*
X153561588Y-136251557D01*
X153763757Y-136317246D01*
X153973713Y-136350500D01*
X153973718Y-136350500D01*
X154186282Y-136350500D01*
X154186287Y-136350500D01*
X154396243Y-136317246D01*
X154598412Y-136251557D01*
X154787816Y-136155051D01*
X154959792Y-136030104D01*
X155110104Y-135879792D01*
X155110109Y-135879784D01*
X155113399Y-135876495D01*
X155115087Y-135874667D01*
X155120228Y-135869527D01*
X155218448Y-135734338D01*
X155245159Y-135697574D01*
X155245159Y-135697572D01*
X155245166Y-135697564D01*
X155341665Y-135508174D01*
X155352797Y-135473914D01*
X155407349Y-135306020D01*
X155440601Y-135096079D01*
X155440601Y-134883521D01*
X155440601Y-134878248D01*
X155440600Y-134878218D01*
X155440600Y-134485053D01*
X155460562Y-134410553D01*
X155484241Y-134379694D01*
X155511354Y-134352581D01*
X155597483Y-134266452D01*
X155757124Y-134058402D01*
X155888243Y-133831297D01*
X155988598Y-133589019D01*
X156056471Y-133335716D01*
X156090699Y-133075720D01*
X156090699Y-132813481D01*
X156056471Y-132553485D01*
X155988598Y-132300181D01*
X155888243Y-132057903D01*
X155757124Y-131830798D01*
X155597483Y-131622749D01*
X153644141Y-129669407D01*
X153605577Y-129602612D01*
X153600500Y-129564048D01*
X153600500Y-97068878D01*
X153600499Y-97068876D01*
X153566271Y-96808892D01*
X153566271Y-96808889D01*
X153498399Y-96555584D01*
X153498399Y-96555583D01*
X153449106Y-96436580D01*
X153398043Y-96313303D01*
X153266924Y-96086197D01*
X153266921Y-96086193D01*
X153266921Y-96086192D01*
X153107284Y-95878151D01*
X152921848Y-95692715D01*
X152713806Y-95533078D01*
X152486701Y-95401959D01*
X152486699Y-95401958D01*
X152486697Y-95401957D01*
X152411154Y-95370666D01*
X152244416Y-95301600D01*
X152018255Y-95241002D01*
X151991116Y-95233730D01*
X151991114Y-95233729D01*
X151991108Y-95233728D01*
X151731123Y-95199500D01*
X151731120Y-95199500D01*
X151609052Y-95199500D01*
X151534552Y-95179538D01*
X151511612Y-95163223D01*
X151507523Y-95159689D01*
X151420751Y-95072917D01*
X151303031Y-94982588D01*
X151212703Y-94913276D01*
X151022568Y-94803502D01*
X150985601Y-94782159D01*
X150985599Y-94782158D01*
X150985597Y-94782157D01*
X150935424Y-94761375D01*
X150743327Y-94681804D01*
X150743323Y-94681803D01*
X150599297Y-94643211D01*
X150490016Y-94613929D01*
X150490014Y-94613928D01*
X150490008Y-94613927D01*
X150360019Y-94596815D01*
X150360018Y-94596814D01*
X150360018Y-94596815D01*
X150230023Y-94579700D01*
X150230020Y-94579700D01*
X149967680Y-94579700D01*
X149967676Y-94579700D01*
X149837682Y-94596815D01*
X149837680Y-94596815D01*
X149707691Y-94613927D01*
X149454376Y-94681803D01*
X149454372Y-94681804D01*
X149212098Y-94782159D01*
X148984994Y-94913277D01*
X148894667Y-94982588D01*
X148776949Y-95072917D01*
X148776947Y-95072918D01*
X148474015Y-95375850D01*
X148407283Y-95462819D01*
X148404537Y-95466398D01*
X148314376Y-95583897D01*
X148251038Y-95693603D01*
X148248430Y-95698119D01*
X148248426Y-95698126D01*
X148183259Y-95810998D01*
X148082904Y-96053272D01*
X148082903Y-96053276D01*
X148015027Y-96306591D01*
X147997915Y-96436580D01*
X147997915Y-96436582D01*
X147980800Y-96566576D01*
X147980800Y-124141147D01*
X147960838Y-124215647D01*
X147937159Y-124246506D01*
X141829507Y-130354159D01*
X141762712Y-130392723D01*
X141724148Y-130397800D01*
X132857476Y-130397800D01*
X132727482Y-130414915D01*
X132727480Y-130414915D01*
X132597491Y-130432027D01*
X132597484Y-130432029D01*
X132378463Y-130490716D01*
X132301336Y-130490716D01*
X132234541Y-130452152D01*
X132195977Y-130385357D01*
X132190900Y-130346793D01*
X132190900Y-81075429D01*
X149699500Y-81075429D01*
X149699500Y-81324570D01*
X149732016Y-81571557D01*
X149796499Y-81812210D01*
X149891838Y-82042377D01*
X149974879Y-82186209D01*
X150016401Y-82258127D01*
X150168062Y-82455776D01*
X150168063Y-82455777D01*
X150305859Y-82593573D01*
X150344423Y-82660368D01*
X150349500Y-82698932D01*
X150349500Y-84185077D01*
X150329538Y-84259577D01*
X150275000Y-84314115D01*
X150247369Y-84326514D01*
X150130662Y-84365187D01*
X149981344Y-84457289D01*
X149857289Y-84581344D01*
X149765187Y-84730663D01*
X149710001Y-84897201D01*
X149710001Y-84897203D01*
X149699500Y-84999992D01*
X149699500Y-87400008D01*
X149710001Y-87502797D01*
X149765186Y-87669334D01*
X149857289Y-87818655D01*
X149981345Y-87942711D01*
X150130666Y-88034814D01*
X150297203Y-88089999D01*
X150399992Y-88100500D01*
X150399996Y-88100500D01*
X152800004Y-88100500D01*
X152800008Y-88100500D01*
X152902797Y-88089999D01*
X153069334Y-88034814D01*
X153218655Y-87942711D01*
X153342711Y-87818655D01*
X153434814Y-87669334D01*
X153489999Y-87502797D01*
X153500500Y-87400008D01*
X153500500Y-84999992D01*
X153489999Y-84897203D01*
X153434814Y-84730666D01*
X153342711Y-84581345D01*
X153218655Y-84457289D01*
X153069337Y-84365187D01*
X152952631Y-84326514D01*
X152888192Y-84284130D01*
X152853578Y-84215206D01*
X152850500Y-84185077D01*
X152850500Y-82698932D01*
X152870462Y-82624432D01*
X152894141Y-82593573D01*
X152913951Y-82573763D01*
X153031938Y-82455776D01*
X153183599Y-82258127D01*
X153308164Y-82042373D01*
X153403502Y-81812207D01*
X153467982Y-81571565D01*
X153500500Y-81324565D01*
X153500500Y-81075435D01*
X153467982Y-80828435D01*
X153403502Y-80587793D01*
X153308164Y-80357627D01*
X153183599Y-80141873D01*
X153031938Y-79944224D01*
X152855776Y-79768062D01*
X152658127Y-79616401D01*
X152586209Y-79574879D01*
X152442377Y-79491838D01*
X152442375Y-79491837D01*
X152442373Y-79491836D01*
X152307548Y-79435989D01*
X152212210Y-79396499D01*
X152212208Y-79396498D01*
X152212207Y-79396498D01*
X151971565Y-79332018D01*
X151971563Y-79332017D01*
X151971557Y-79332016D01*
X151724570Y-79299500D01*
X151724565Y-79299500D01*
X151475435Y-79299500D01*
X151475429Y-79299500D01*
X151228442Y-79332016D01*
X150987789Y-79396499D01*
X150757622Y-79491838D01*
X150541874Y-79616400D01*
X150344222Y-79768063D01*
X150168063Y-79944222D01*
X150016400Y-80141874D01*
X149891838Y-80357622D01*
X149796499Y-80587789D01*
X149732016Y-80828442D01*
X149699500Y-81075429D01*
X132190900Y-81075429D01*
X132190900Y-69075429D01*
X149699500Y-69075429D01*
X149699500Y-69324570D01*
X149732016Y-69571557D01*
X149732017Y-69571563D01*
X149732018Y-69571565D01*
X149796498Y-69812207D01*
X149891836Y-70042373D01*
X150016401Y-70258127D01*
X150068710Y-70326297D01*
X150098225Y-70397554D01*
X150099500Y-70417002D01*
X150099500Y-72301250D01*
X150079538Y-72375750D01*
X150028724Y-72428064D01*
X149981345Y-72457289D01*
X149981342Y-72457291D01*
X149857289Y-72581344D01*
X149765187Y-72730663D01*
X149710001Y-72897201D01*
X149710001Y-72897203D01*
X149699500Y-72999992D01*
X149699500Y-75400008D01*
X149710001Y-75502797D01*
X149765186Y-75669334D01*
X149857289Y-75818655D01*
X149981345Y-75942711D01*
X150130666Y-76034814D01*
X150297203Y-76089999D01*
X150399992Y-76100500D01*
X150399996Y-76100500D01*
X152800004Y-76100500D01*
X152800008Y-76100500D01*
X152902797Y-76089999D01*
X153069334Y-76034814D01*
X153218655Y-75942711D01*
X153342711Y-75818655D01*
X153434814Y-75669334D01*
X153489999Y-75502797D01*
X153500500Y-75400008D01*
X153500500Y-72999992D01*
X153489999Y-72897203D01*
X153434814Y-72730666D01*
X153342711Y-72581345D01*
X153218655Y-72457289D01*
X153171275Y-72428064D01*
X153118349Y-72371964D01*
X153100500Y-72301250D01*
X153100500Y-70417002D01*
X153120462Y-70342502D01*
X153131290Y-70326297D01*
X153183599Y-70258127D01*
X153308164Y-70042373D01*
X153403502Y-69812207D01*
X153467982Y-69571565D01*
X153500500Y-69324565D01*
X153500500Y-69075435D01*
X153467982Y-68828435D01*
X153403502Y-68587793D01*
X153308164Y-68357627D01*
X153183599Y-68141873D01*
X153031938Y-67944224D01*
X152855776Y-67768062D01*
X152658127Y-67616401D01*
X152586209Y-67574879D01*
X152442377Y-67491838D01*
X152442375Y-67491837D01*
X152442373Y-67491836D01*
X152307548Y-67435989D01*
X152212210Y-67396499D01*
X152212208Y-67396498D01*
X152212207Y-67396498D01*
X151971565Y-67332018D01*
X151971563Y-67332017D01*
X151971557Y-67332016D01*
X151724570Y-67299500D01*
X151724565Y-67299500D01*
X151475435Y-67299500D01*
X151475429Y-67299500D01*
X151228442Y-67332016D01*
X150987789Y-67396499D01*
X150757622Y-67491838D01*
X150541874Y-67616400D01*
X150344222Y-67768063D01*
X150168063Y-67944222D01*
X150016400Y-68141874D01*
X149891838Y-68357622D01*
X149796499Y-68587789D01*
X149732016Y-68828442D01*
X149699500Y-69075429D01*
X132190900Y-69075429D01*
X132190900Y-57000011D01*
X149700000Y-57000011D01*
X149700000Y-57800000D01*
X151085523Y-57800000D01*
X151023978Y-57892110D01*
X150974979Y-58010402D01*
X150950000Y-58135981D01*
X150950000Y-58264019D01*
X150974979Y-58389598D01*
X151023978Y-58507890D01*
X151085523Y-58600000D01*
X149700000Y-58600000D01*
X149700000Y-59399988D01*
X149710492Y-59502687D01*
X149710494Y-59502696D01*
X149765642Y-59669120D01*
X149857680Y-59818339D01*
X149981660Y-59942319D01*
X150130879Y-60034357D01*
X150297303Y-60089505D01*
X150297312Y-60089507D01*
X150400011Y-60099999D01*
X150400022Y-60100000D01*
X151200000Y-60100000D01*
X151200000Y-58714476D01*
X151292110Y-58776022D01*
X151410402Y-58825021D01*
X151535981Y-58850000D01*
X151664019Y-58850000D01*
X151789598Y-58825021D01*
X151907890Y-58776022D01*
X152000000Y-58714476D01*
X152000000Y-60100000D01*
X152799978Y-60100000D01*
X152799988Y-60099999D01*
X152902687Y-60089507D01*
X152902696Y-60089505D01*
X153069120Y-60034357D01*
X153218339Y-59942319D01*
X153342319Y-59818339D01*
X153434357Y-59669120D01*
X153489505Y-59502696D01*
X153489507Y-59502687D01*
X153499999Y-59399988D01*
X153500000Y-59399978D01*
X153500000Y-58600000D01*
X152114477Y-58600000D01*
X152176022Y-58507890D01*
X152225021Y-58389598D01*
X152250000Y-58264019D01*
X152250000Y-58135981D01*
X152225021Y-58010402D01*
X152176022Y-57892110D01*
X152114477Y-57800000D01*
X153500000Y-57800000D01*
X153500000Y-57000021D01*
X153499999Y-57000011D01*
X153489507Y-56897312D01*
X153489505Y-56897303D01*
X153434357Y-56730879D01*
X153342319Y-56581660D01*
X153218339Y-56457680D01*
X153069120Y-56365642D01*
X152902696Y-56310494D01*
X152902687Y-56310492D01*
X152799988Y-56300000D01*
X152000000Y-56300000D01*
X152000000Y-57685523D01*
X151907890Y-57623978D01*
X151789598Y-57574979D01*
X151664019Y-57550000D01*
X151535981Y-57550000D01*
X151410402Y-57574979D01*
X151292110Y-57623978D01*
X151200000Y-57685523D01*
X151200000Y-56300000D01*
X150400011Y-56300000D01*
X150297312Y-56310492D01*
X150297303Y-56310494D01*
X150130879Y-56365642D01*
X149981660Y-56457680D01*
X149857680Y-56581660D01*
X149765642Y-56730879D01*
X149710494Y-56897303D01*
X149710492Y-56897312D01*
X149700000Y-57000011D01*
X132190900Y-57000011D01*
X132190900Y-53075461D01*
X149700000Y-53075461D01*
X149700000Y-53324538D01*
X149732507Y-53571459D01*
X149796973Y-53812048D01*
X149892287Y-54042156D01*
X150002048Y-54232265D01*
X150953367Y-53280946D01*
X150974979Y-53389598D01*
X151023978Y-53507890D01*
X151095112Y-53614351D01*
X151185649Y-53704888D01*
X151292110Y-53776022D01*
X151410402Y-53825021D01*
X151519052Y-53846632D01*
X150567733Y-54797950D01*
X150757849Y-54907714D01*
X150987951Y-55003026D01*
X151228540Y-55067492D01*
X151475461Y-55099999D01*
X151475467Y-55100000D01*
X151724533Y-55100000D01*
X151724538Y-55099999D01*
X151971459Y-55067492D01*
X152212048Y-55003026D01*
X152442150Y-54907714D01*
X152632265Y-54797950D01*
X151680947Y-53846632D01*
X151789598Y-53825021D01*
X151907890Y-53776022D01*
X152014351Y-53704888D01*
X152104888Y-53614351D01*
X152176022Y-53507890D01*
X152225021Y-53389598D01*
X152246632Y-53280947D01*
X153197950Y-54232265D01*
X153307714Y-54042150D01*
X153403026Y-53812048D01*
X153467492Y-53571459D01*
X153499999Y-53324538D01*
X153500000Y-53324533D01*
X153500000Y-53075467D01*
X153499999Y-53075461D01*
X153467492Y-52828540D01*
X153403026Y-52587951D01*
X153307714Y-52357849D01*
X153197950Y-52167733D01*
X152246632Y-53119051D01*
X152225021Y-53010402D01*
X152176022Y-52892110D01*
X152104888Y-52785649D01*
X152014351Y-52695112D01*
X151907890Y-52623978D01*
X151789598Y-52574979D01*
X151680946Y-52553366D01*
X152632265Y-51602048D01*
X152442156Y-51492287D01*
X152212048Y-51396973D01*
X151971459Y-51332507D01*
X151724538Y-51300000D01*
X151475461Y-51300000D01*
X151228540Y-51332507D01*
X150987951Y-51396973D01*
X150757843Y-51492287D01*
X150567733Y-51602048D01*
X151519052Y-52553367D01*
X151410402Y-52574979D01*
X151292110Y-52623978D01*
X151185649Y-52695112D01*
X151095112Y-52785649D01*
X151023978Y-52892110D01*
X150974979Y-53010402D01*
X150953367Y-53119052D01*
X150002048Y-52167733D01*
X149892287Y-52357843D01*
X149796973Y-52587951D01*
X149732507Y-52828540D01*
X149700000Y-53075461D01*
X132190900Y-53075461D01*
X132190900Y-45000011D01*
X149700000Y-45000011D01*
X149700000Y-45800000D01*
X151085523Y-45800000D01*
X151023978Y-45892110D01*
X150974979Y-46010402D01*
X150950000Y-46135981D01*
X150950000Y-46264019D01*
X150974979Y-46389598D01*
X151023978Y-46507890D01*
X151085523Y-46600000D01*
X149700000Y-46600000D01*
X149700000Y-47399988D01*
X149710492Y-47502687D01*
X149710494Y-47502696D01*
X149765642Y-47669120D01*
X149857680Y-47818339D01*
X149981660Y-47942319D01*
X150130879Y-48034357D01*
X150297303Y-48089505D01*
X150297312Y-48089507D01*
X150400011Y-48099999D01*
X150400022Y-48100000D01*
X151200000Y-48100000D01*
X151200000Y-46714476D01*
X151292110Y-46776022D01*
X151410402Y-46825021D01*
X151535981Y-46850000D01*
X151664019Y-46850000D01*
X151789598Y-46825021D01*
X151907890Y-46776022D01*
X152000000Y-46714476D01*
X152000000Y-48100000D01*
X152799978Y-48100000D01*
X152799988Y-48099999D01*
X152902687Y-48089507D01*
X152902696Y-48089505D01*
X153069120Y-48034357D01*
X153218339Y-47942319D01*
X153342319Y-47818339D01*
X153434357Y-47669120D01*
X153489505Y-47502696D01*
X153489507Y-47502687D01*
X153499999Y-47399988D01*
X153500000Y-47399978D01*
X153500000Y-46600000D01*
X152114477Y-46600000D01*
X152176022Y-46507890D01*
X152225021Y-46389598D01*
X152250000Y-46264019D01*
X152250000Y-46135981D01*
X152225021Y-46010402D01*
X152176022Y-45892110D01*
X152114477Y-45800000D01*
X153500000Y-45800000D01*
X153500000Y-45000021D01*
X153499999Y-45000011D01*
X153489507Y-44897312D01*
X153489505Y-44897303D01*
X153434357Y-44730879D01*
X153342319Y-44581660D01*
X153218339Y-44457680D01*
X153069120Y-44365642D01*
X152902696Y-44310494D01*
X152902687Y-44310492D01*
X152799988Y-44300000D01*
X152000000Y-44300000D01*
X152000000Y-45685523D01*
X151907890Y-45623978D01*
X151789598Y-45574979D01*
X151664019Y-45550000D01*
X151535981Y-45550000D01*
X151410402Y-45574979D01*
X151292110Y-45623978D01*
X151200000Y-45685523D01*
X151200000Y-44300000D01*
X150400011Y-44300000D01*
X150297312Y-44310492D01*
X150297303Y-44310494D01*
X150130879Y-44365642D01*
X149981660Y-44457680D01*
X149857680Y-44581660D01*
X149765642Y-44730879D01*
X149710494Y-44897303D01*
X149710492Y-44897312D01*
X149700000Y-45000011D01*
X132190900Y-45000011D01*
X132190900Y-41075461D01*
X149700000Y-41075461D01*
X149700000Y-41324538D01*
X149732507Y-41571459D01*
X149796973Y-41812048D01*
X149892287Y-42042156D01*
X150002048Y-42232265D01*
X150953367Y-41280946D01*
X150974979Y-41389598D01*
X151023978Y-41507890D01*
X151095112Y-41614351D01*
X151185649Y-41704888D01*
X151292110Y-41776022D01*
X151410402Y-41825021D01*
X151519052Y-41846632D01*
X150567733Y-42797950D01*
X150757849Y-42907714D01*
X150987951Y-43003026D01*
X151228540Y-43067492D01*
X151475461Y-43099999D01*
X151475467Y-43100000D01*
X151724533Y-43100000D01*
X151724538Y-43099999D01*
X151971459Y-43067492D01*
X152212048Y-43003026D01*
X152442150Y-42907714D01*
X152632265Y-42797950D01*
X151680947Y-41846632D01*
X151789598Y-41825021D01*
X151907890Y-41776022D01*
X152014351Y-41704888D01*
X152104888Y-41614351D01*
X152176022Y-41507890D01*
X152225021Y-41389598D01*
X152246632Y-41280947D01*
X153197950Y-42232265D01*
X153307714Y-42042150D01*
X153403026Y-41812048D01*
X153467492Y-41571459D01*
X153499999Y-41324538D01*
X153500000Y-41324533D01*
X153500000Y-41075467D01*
X153499999Y-41075461D01*
X153467492Y-40828540D01*
X153403026Y-40587951D01*
X153307714Y-40357849D01*
X153197950Y-40167733D01*
X152246632Y-41119051D01*
X152225021Y-41010402D01*
X152176022Y-40892110D01*
X152104888Y-40785649D01*
X152014351Y-40695112D01*
X151907890Y-40623978D01*
X151789598Y-40574979D01*
X151680946Y-40553366D01*
X152632265Y-39602048D01*
X152442156Y-39492287D01*
X152212048Y-39396973D01*
X151971459Y-39332507D01*
X151724538Y-39300000D01*
X151475461Y-39300000D01*
X151228540Y-39332507D01*
X150987951Y-39396973D01*
X150757843Y-39492287D01*
X150567733Y-39602048D01*
X151519052Y-40553367D01*
X151410402Y-40574979D01*
X151292110Y-40623978D01*
X151185649Y-40695112D01*
X151095112Y-40785649D01*
X151023978Y-40892110D01*
X150974979Y-41010402D01*
X150953367Y-41119052D01*
X150002048Y-40167733D01*
X149892287Y-40357843D01*
X149796973Y-40587951D01*
X149732507Y-40828540D01*
X149700000Y-41075461D01*
X132190900Y-41075461D01*
X132190900Y-31181406D01*
X132181926Y-31136295D01*
X132163980Y-31046072D01*
X132123456Y-30948237D01*
X132111179Y-30918597D01*
X132111169Y-30918579D01*
X132059475Y-30841214D01*
X132034514Y-30803857D01*
X112829655Y-11598998D01*
X112791091Y-11532203D01*
X112791091Y-11455075D01*
X112829655Y-11388280D01*
X112896450Y-11349716D01*
X112911687Y-11346476D01*
X113096243Y-11317246D01*
X113298412Y-11251557D01*
X113487816Y-11155051D01*
X113659792Y-11030104D01*
X113810104Y-10879792D01*
X113929456Y-10715517D01*
X113989396Y-10666979D01*
X114065574Y-10654913D01*
X114137580Y-10682553D01*
X114170544Y-10715517D01*
X114289896Y-10879792D01*
X114440208Y-11030104D01*
X114612184Y-11155051D01*
X114801588Y-11251557D01*
X115003757Y-11317246D01*
X115213713Y-11350500D01*
X115213718Y-11350500D01*
X115426282Y-11350500D01*
X115426287Y-11350500D01*
X115636243Y-11317246D01*
X115838412Y-11251557D01*
X116027816Y-11155051D01*
X116199792Y-11030104D01*
X116285819Y-10944077D01*
X116352613Y-10905512D01*
X116429741Y-10905512D01*
X116496536Y-10944076D01*
X116530784Y-10997366D01*
X116566202Y-11092329D01*
X116566204Y-11092333D01*
X116652452Y-11207544D01*
X116652455Y-11207547D01*
X116767666Y-11293795D01*
X116767670Y-11293797D01*
X116902517Y-11344091D01*
X116962114Y-11350499D01*
X116962118Y-11350499D01*
X116962127Y-11350500D01*
X118757872Y-11350499D01*
X118817483Y-11344091D01*
X118913447Y-11308298D01*
X118952329Y-11293797D01*
X118952333Y-11293795D01*
X119009938Y-11250671D01*
X119067546Y-11207546D01*
X119110671Y-11149938D01*
X119153795Y-11092333D01*
X119153797Y-11092329D01*
X119182596Y-11015114D01*
X119204091Y-10957483D01*
X119210500Y-10897873D01*
X119210499Y-9102128D01*
X119204091Y-9042517D01*
X119156422Y-8914709D01*
X119153797Y-8907670D01*
X119153795Y-8907666D01*
X119067547Y-8792455D01*
X119067544Y-8792452D01*
X118952333Y-8706204D01*
X118952329Y-8706202D01*
X118817482Y-8655908D01*
X118757876Y-8649500D01*
X116962136Y-8649500D01*
X116962111Y-8649502D01*
X116902515Y-8655908D01*
X116902439Y-8655927D01*
X116902367Y-8655924D01*
X116893250Y-8656905D01*
X116893114Y-8655648D01*
X116825345Y-8653623D01*
X116762832Y-8616275D01*
X116333146Y-8186589D01*
X116333143Y-8186586D01*
X116218411Y-8109925D01*
X116218408Y-8109923D01*
X116218402Y-8109920D01*
X116090929Y-8057120D01*
X116090927Y-8057119D01*
X115955597Y-8030200D01*
X115955594Y-8030200D01*
X115955593Y-8030200D01*
X109747494Y-8030200D01*
X109609506Y-8030200D01*
X109609502Y-8030200D01*
X109474172Y-8057119D01*
X109474170Y-8057120D01*
X109346697Y-8109920D01*
X109346684Y-8109928D01*
X109231958Y-8186585D01*
X109231953Y-8186589D01*
X108593662Y-8824879D01*
X108526867Y-8863443D01*
X108449739Y-8863443D01*
X108410453Y-8846565D01*
X108407817Y-8844950D01*
X108407818Y-8844950D01*
X108407816Y-8844949D01*
X108218412Y-8748443D01*
X108016243Y-8682754D01*
X107806287Y-8649500D01*
X107593713Y-8649500D01*
X107418749Y-8677211D01*
X107383756Y-8682754D01*
X107181594Y-8748441D01*
X107181588Y-8748443D01*
X107181582Y-8748445D01*
X107181582Y-8748446D01*
X106992182Y-8844950D01*
X106992181Y-8844950D01*
X106820209Y-8969895D01*
X106820206Y-8969897D01*
X106669897Y-9120206D01*
X106669895Y-9120209D01*
X106550544Y-9284482D01*
X106490604Y-9333020D01*
X106414425Y-9345086D01*
X106342420Y-9317446D01*
X106309456Y-9284482D01*
X106202686Y-9137526D01*
X106190104Y-9120208D01*
X106039792Y-8969896D01*
X105867816Y-8844949D01*
X105678412Y-8748443D01*
X105476243Y-8682754D01*
X105266287Y-8649500D01*
X105053713Y-8649500D01*
X104878749Y-8677211D01*
X104843756Y-8682754D01*
X104641594Y-8748441D01*
X104641588Y-8748443D01*
X104641582Y-8748445D01*
X104641582Y-8748446D01*
X104452182Y-8844950D01*
X104452181Y-8844950D01*
X104280209Y-8969895D01*
X104280206Y-8969897D01*
X104129897Y-9120206D01*
X104129895Y-9120209D01*
X104010544Y-9284482D01*
X103950604Y-9333020D01*
X103874425Y-9345086D01*
X103802420Y-9317446D01*
X103769456Y-9284482D01*
X103662686Y-9137526D01*
X103650104Y-9120208D01*
X103499792Y-8969896D01*
X103327816Y-8844949D01*
X103138412Y-8748443D01*
X102936243Y-8682754D01*
X102726287Y-8649500D01*
X102513713Y-8649500D01*
X102338749Y-8677211D01*
X102303756Y-8682754D01*
X102101594Y-8748441D01*
X102101588Y-8748443D01*
X102101582Y-8748445D01*
X102101582Y-8748446D01*
X101912182Y-8844950D01*
X101912181Y-8844950D01*
X101740209Y-8969895D01*
X101740206Y-8969897D01*
X101589897Y-9120206D01*
X101589895Y-9120209D01*
X101470544Y-9284482D01*
X101410604Y-9333020D01*
X101334425Y-9345086D01*
X101262420Y-9317446D01*
X101229456Y-9284482D01*
X101122686Y-9137526D01*
X101110104Y-9120208D01*
X100959792Y-8969896D01*
X100787816Y-8844949D01*
X100598412Y-8748443D01*
X100396243Y-8682754D01*
X100186287Y-8649500D01*
X99973713Y-8649500D01*
X99798749Y-8677211D01*
X99763756Y-8682754D01*
X99561594Y-8748441D01*
X99561588Y-8748443D01*
X99561582Y-8748445D01*
X99561582Y-8748446D01*
X99372182Y-8844950D01*
X99372181Y-8844950D01*
X99200209Y-8969895D01*
X99200206Y-8969897D01*
X99049897Y-9120206D01*
X99049895Y-9120209D01*
X98930544Y-9284482D01*
X98870604Y-9333020D01*
X98794425Y-9345086D01*
X98722420Y-9317446D01*
X98689456Y-9284482D01*
X98582686Y-9137526D01*
X98570104Y-9120208D01*
X98419792Y-8969896D01*
X98247816Y-8844949D01*
X98058412Y-8748443D01*
X97856243Y-8682754D01*
X97646287Y-8649500D01*
X97433713Y-8649500D01*
X97258749Y-8677211D01*
X97223756Y-8682754D01*
X97021594Y-8748441D01*
X97021588Y-8748443D01*
X97021582Y-8748445D01*
X97021582Y-8748446D01*
X96832182Y-8844950D01*
X96832181Y-8844950D01*
X96660209Y-8969895D01*
X96660206Y-8969897D01*
X96509897Y-9120206D01*
X96509895Y-9120209D01*
X96390544Y-9284482D01*
X96330604Y-9333020D01*
X96254425Y-9345086D01*
X96182420Y-9317446D01*
X96149456Y-9284482D01*
X96042686Y-9137526D01*
X96030104Y-9120208D01*
X95879792Y-8969896D01*
X95707816Y-8844949D01*
X95518412Y-8748443D01*
X95316243Y-8682754D01*
X95106287Y-8649500D01*
X94893713Y-8649500D01*
X94718749Y-8677211D01*
X94683756Y-8682754D01*
X94481594Y-8748441D01*
X94481588Y-8748443D01*
X94481582Y-8748445D01*
X94481582Y-8748446D01*
X94292182Y-8844950D01*
X94292181Y-8844950D01*
X94120209Y-8969895D01*
X94120206Y-8969897D01*
X93969897Y-9120206D01*
X93969895Y-9120209D01*
X93850544Y-9284482D01*
X93790604Y-9333020D01*
X93714425Y-9345086D01*
X93642420Y-9317446D01*
X93609456Y-9284482D01*
X93502686Y-9137526D01*
X93490104Y-9120208D01*
X93339792Y-8969896D01*
X93167816Y-8844949D01*
X92978412Y-8748443D01*
X92776243Y-8682754D01*
X92566287Y-8649500D01*
X92353713Y-8649500D01*
X92257757Y-8664698D01*
X92209809Y-8672292D01*
X92133103Y-8664229D01*
X92081142Y-8630485D01*
X91616946Y-8166289D01*
X91616943Y-8166286D01*
X91502211Y-8089625D01*
X91502208Y-8089623D01*
X91502202Y-8089620D01*
X91374729Y-8036820D01*
X91374727Y-8036819D01*
X91239397Y-8009900D01*
X91239394Y-8009900D01*
X91239393Y-8009900D01*
X86349000Y-8009900D01*
X86274500Y-7989938D01*
X86219962Y-7935400D01*
X86200000Y-7860900D01*
X86200000Y-5699000D01*
X86219962Y-5624500D01*
X86274500Y-5569962D01*
X86349000Y-5550000D01*
X157351000Y-5550000D01*
X157425500Y-5569962D01*
G37*
%TD.AperFunction*%
%TD*%
M02*
