%TF.GenerationSoftware,KiCad,Pcbnew,10.0.0*%
%TF.CreationDate,2026-03-30T18:45:22-04:00*%
%TF.ProjectId,geodude-carrier,67656f64-7564-4652-9d63-617272696572,rev?*%
%TF.SameCoordinates,Original*%
%TF.FileFunction,Copper,L1,Top*%
%TF.FilePolarity,Positive*%
%FSLAX46Y46*%
G04 Gerber Fmt 4.6, Leading zero omitted, Abs format (unit mm)*
G04 Created by KiCad (PCBNEW 10.0.0) date 2026-03-30 18:45:22*
%MOMM*%
%LPD*%
G01*
G04 APERTURE LIST*
G04 Aperture macros list*
%AMRoundRect*
0 Rectangle with rounded corners*
0 $1 Rounding radius*
0 $2 $3 $4 $5 $6 $7 $8 $9 X,Y pos of 4 corners*
0 Add a 4 corners polygon primitive as box body*
4,1,4,$2,$3,$4,$5,$6,$7,$8,$9,$2,$3,0*
0 Add four circle primitives for the rounded corners*
1,1,$1+$1,$2,$3*
1,1,$1+$1,$4,$5*
1,1,$1+$1,$6,$7*
1,1,$1+$1,$8,$9*
0 Add four rect primitives between the rounded corners*
20,1,$1+$1,$2,$3,$4,$5,0*
20,1,$1+$1,$4,$5,$6,$7,0*
20,1,$1+$1,$6,$7,$8,$9,0*
20,1,$1+$1,$8,$9,$2,$3,0*%
G04 Aperture macros list end*
%TA.AperFunction,ComponentPad*%
%ADD10C,2.800000*%
%TD*%
%TA.AperFunction,ComponentPad*%
%ADD11R,1.700000X1.700000*%
%TD*%
%TA.AperFunction,ComponentPad*%
%ADD12C,1.700000*%
%TD*%
%TA.AperFunction,ComponentPad*%
%ADD13RoundRect,0.250001X1.149999X-1.149999X1.149999X1.149999X-1.149999X1.149999X-1.149999X-1.149999X0*%
%TD*%
%TA.AperFunction,ViaPad*%
%ADD14C,0.600000*%
%TD*%
%TA.AperFunction,Conductor*%
%ADD15C,3.000000*%
%TD*%
%TA.AperFunction,Conductor*%
%ADD16C,1.699800*%
%TD*%
%TA.AperFunction,Conductor*%
%ADD17C,0.400000*%
%TD*%
%TA.AperFunction,Conductor*%
%ADD18C,1.000000*%
%TD*%
%TA.AperFunction,Conductor*%
%ADD19C,2.000000*%
%TD*%
%TA.AperFunction,Conductor*%
%ADD20C,0.600000*%
%TD*%
%TA.AperFunction,Conductor*%
%ADD21C,1.500000*%
%TD*%
G04 APERTURE END LIST*
D10*
%TO.P,F2,1*%
%TO.N,+12V*%
X83185000Y-60900000D03*
%TO.P,F2,2*%
%TO.N,SV2_PWR*%
X105385000Y-60900000D03*
%TD*%
D11*
%TO.P,SV4,1*%
%TO.N,PWM_CH3*%
X91220000Y-124300000D03*
D12*
%TO.P,SV4,2*%
%TO.N,SV4_PWR*%
X93760000Y-124300000D03*
%TO.P,SV4,3*%
%TO.N,GND*%
X96300000Y-124300000D03*
%TD*%
D11*
%TO.P,J_FAN,1*%
%TO.N,GND*%
X116460000Y-120500000D03*
D12*
%TO.P,J_FAN,2*%
%TO.N,N/C*%
X116460000Y-117960000D03*
%TO.P,J_FAN,3*%
%TO.N,+12V*%
X119000000Y-120500000D03*
%TO.P,J_FAN,4*%
%TO.N,N/C*%
X119000000Y-117960000D03*
%TO.P,J_FAN,5*%
%TO.N,TACH*%
X121540000Y-120500000D03*
%TO.P,J_FAN,6*%
X121540000Y-117960000D03*
%TO.P,J_FAN,7*%
%TO.N,PWM_CH12*%
X124080000Y-120500000D03*
%TO.P,J_FAN,8*%
X124080000Y-117960000D03*
%TD*%
D10*
%TO.P,F6,1*%
%TO.N,+12V*%
X46685000Y-43900000D03*
%TO.P,F6,2*%
%TO.N,SV6_PWR*%
X68885000Y-43900000D03*
%TD*%
D11*
%TO.P,SV2,1*%
%TO.N,PWM_CH1*%
X63220000Y-124300000D03*
D12*
%TO.P,SV2,2*%
%TO.N,SV2_PWR*%
X65760000Y-124300000D03*
%TO.P,SV2,3*%
%TO.N,GND*%
X68300000Y-124300000D03*
%TD*%
D13*
%TO.P,J4,1*%
%TO.N,GND*%
X122900000Y-107000000D03*
D10*
%TO.P,J4,2*%
X122900000Y-102000000D03*
%TD*%
D11*
%TO.P,SV6,1*%
%TO.N,PWM_CH5*%
X48960000Y-132500000D03*
D12*
%TO.P,SV6,2*%
%TO.N,SV6_PWR*%
X51500000Y-132500000D03*
%TO.P,SV6,3*%
%TO.N,GND*%
X54040000Y-132500000D03*
%TD*%
D11*
%TO.P,J41,1*%
%TO.N,SDA*%
X37000000Y-68100000D03*
D12*
%TO.P,J41,2*%
X37000000Y-70640000D03*
%TO.P,J41,3*%
X37000000Y-73180000D03*
%TO.P,J41,4*%
X37000000Y-75720000D03*
%TD*%
D13*
%TO.P,J2,1*%
%TO.N,+12V*%
X122900000Y-59000000D03*
D10*
%TO.P,J2,2*%
X122900000Y-54000000D03*
%TD*%
D13*
%TO.P,J34,1*%
%TO.N,+3V3*%
X25000000Y-81400000D03*
D10*
%TO.P,J34,2*%
X25000000Y-76400000D03*
%TD*%
D13*
%TO.P,J32,1*%
%TO.N,SDA*%
X25000000Y-69400000D03*
D10*
%TO.P,J32,2*%
X25000000Y-64400000D03*
%TD*%
D11*
%TO.P,SV1,1*%
%TO.N,PWM_CH0*%
X49220000Y-124300000D03*
D12*
%TO.P,SV1,2*%
%TO.N,SV1_PWR*%
X51760000Y-124300000D03*
%TO.P,SV1,3*%
%TO.N,GND*%
X54300000Y-124300000D03*
%TD*%
D11*
%TO.P,J_ESC,1*%
%TO.N,PWM_CH11*%
X116460000Y-132500000D03*
D12*
%TO.P,J_ESC,2*%
%TO.N,N/C*%
X119000000Y-132500000D03*
%TO.P,J_ESC,3*%
%TO.N,GND*%
X121540000Y-132500000D03*
%TD*%
D11*
%TO.P,SV3,1*%
%TO.N,PWM_CH2*%
X77220000Y-124300000D03*
D12*
%TO.P,SV3,2*%
%TO.N,SV3_PWR*%
X79760000Y-124300000D03*
%TO.P,SV3,3*%
%TO.N,GND*%
X82300000Y-124300000D03*
%TD*%
D13*
%TO.P,J37,1*%
%TO.N,+5V_LOGIC*%
X25000000Y-93400000D03*
D10*
%TO.P,J37,2*%
X25000000Y-88400000D03*
%TD*%
D11*
%TO.P,J44,1*%
%TO.N,GND_LOGIC*%
X37000000Y-104100000D03*
D12*
%TO.P,J44,2*%
X37000000Y-106640000D03*
%TO.P,J44,3*%
X37000000Y-109180000D03*
%TO.P,J44,4*%
X37000000Y-111720000D03*
%TD*%
D11*
%TO.P,SV10,1*%
%TO.N,PWM_CH9*%
X104960000Y-132500000D03*
D12*
%TO.P,SV10,2*%
%TO.N,SV10_PWR*%
X107500000Y-132500000D03*
%TO.P,SV10,3*%
%TO.N,GND*%
X110040000Y-132500000D03*
%TD*%
D11*
%TO.P,SV7,1*%
%TO.N,PWM_CH6*%
X62960000Y-132500000D03*
D12*
%TO.P,SV7,2*%
%TO.N,SV7_PWR*%
X65500000Y-132500000D03*
%TO.P,SV7,3*%
%TO.N,GND*%
X68040000Y-132500000D03*
%TD*%
D10*
%TO.P,F7,1*%
%TO.N,+12V*%
X46685000Y-60900000D03*
%TO.P,F7,2*%
%TO.N,SV7_PWR*%
X68885000Y-60900000D03*
%TD*%
D13*
%TO.P,J1,1*%
%TO.N,+12V*%
X122900000Y-47000000D03*
D10*
%TO.P,J1,2*%
X122900000Y-42000000D03*
%TD*%
D11*
%TO.P,SV9,1*%
%TO.N,PWM_CH8*%
X90960000Y-132500000D03*
D12*
%TO.P,SV9,2*%
%TO.N,SV9_PWR*%
X93500000Y-132500000D03*
%TO.P,SV9,3*%
%TO.N,GND*%
X96040000Y-132500000D03*
%TD*%
D11*
%TO.P,SV5,1*%
%TO.N,PWM_CH4*%
X105220000Y-124300000D03*
D12*
%TO.P,SV5,2*%
%TO.N,SV5_PWR*%
X107760000Y-124300000D03*
%TO.P,SV5,3*%
%TO.N,GND*%
X110300000Y-124300000D03*
%TD*%
D11*
%TO.P,J43,1*%
%TO.N,+5V_LOGIC*%
X37000000Y-92100000D03*
D12*
%TO.P,J43,2*%
X37000000Y-94640000D03*
%TO.P,J43,3*%
X37000000Y-97180000D03*
%TO.P,J43,4*%
X37000000Y-99720000D03*
%TD*%
D13*
%TO.P,J39,1*%
%TO.N,GND_LOGIC*%
X25000000Y-105400000D03*
D10*
%TO.P,J39,2*%
X25000000Y-100400000D03*
%TD*%
D11*
%TO.P,SV8,1*%
%TO.N,PWM_CH7*%
X76960000Y-132500000D03*
D12*
%TO.P,SV8,2*%
%TO.N,SV8_PWR*%
X79500000Y-132500000D03*
%TO.P,SV8,3*%
%TO.N,GND*%
X82040000Y-132500000D03*
%TD*%
D11*
%TO.P,J40,1*%
%TO.N,SCL*%
X37000000Y-56100000D03*
D12*
%TO.P,J40,2*%
X37000000Y-58640000D03*
%TO.P,J40,3*%
X37000000Y-61180000D03*
%TO.P,J40,4*%
X37000000Y-63720000D03*
%TD*%
D13*
%TO.P,J6,1*%
%TO.N,+5V_SERVO*%
X122900000Y-83000000D03*
D10*
%TO.P,J6,2*%
X122900000Y-78000000D03*
%TD*%
%TO.P,F4,1*%
%TO.N,+5V_SERVO*%
X83185000Y-94900000D03*
%TO.P,F4,2*%
%TO.N,SV4_PWR*%
X105385000Y-94900000D03*
%TD*%
%TO.P,F3,1*%
%TO.N,+7V4*%
X83185000Y-77900000D03*
%TO.P,F3,2*%
%TO.N,SV3_PWR*%
X105385000Y-77900000D03*
%TD*%
D13*
%TO.P,J5,1*%
%TO.N,+7V4*%
X122900000Y-71000000D03*
D10*
%TO.P,J5,2*%
X122900000Y-66000000D03*
%TD*%
D13*
%TO.P,J31,1*%
%TO.N,SCL*%
X25000000Y-57400000D03*
D10*
%TO.P,J31,2*%
X25000000Y-52400000D03*
%TD*%
%TO.P,F5,1*%
%TO.N,+5V_SERVO*%
X83185000Y-111900000D03*
%TO.P,F5,2*%
%TO.N,SV5_PWR*%
X105385000Y-111900000D03*
%TD*%
%TO.P,F9,1*%
%TO.N,+5V_SERVO*%
X46685000Y-94900000D03*
%TO.P,F9,2*%
%TO.N,SV9_PWR*%
X68885000Y-94900000D03*
%TD*%
D11*
%TO.P,J42,1*%
%TO.N,+3V3*%
X37000000Y-80100000D03*
D12*
%TO.P,J42,2*%
X37000000Y-82640000D03*
%TO.P,J42,3*%
X37000000Y-85180000D03*
%TO.P,J42,4*%
X37000000Y-87720000D03*
%TD*%
D13*
%TO.P,J3,1*%
%TO.N,GND*%
X122900000Y-95000000D03*
D10*
%TO.P,J3,2*%
X122900000Y-90000000D03*
%TD*%
%TO.P,F8,1*%
%TO.N,+7V4*%
X46685000Y-77900000D03*
%TO.P,F8,2*%
%TO.N,SV8_PWR*%
X68885000Y-77900000D03*
%TD*%
D11*
%TO.P,J_PCA,1*%
%TO.N,PWM_CH0*%
X98160000Y-24000000D03*
D12*
%TO.P,J_PCA,2*%
%TO.N,PWM_CH1*%
X95620000Y-24000000D03*
%TO.P,J_PCA,3*%
%TO.N,PWM_CH2*%
X93080000Y-24000000D03*
%TO.P,J_PCA,4*%
%TO.N,PWM_CH3*%
X90540000Y-24000000D03*
%TO.P,J_PCA,5*%
%TO.N,N/C*%
X88000000Y-24000000D03*
%TO.P,J_PCA,6*%
%TO.N,PWM_CH4*%
X85460000Y-24000000D03*
%TO.P,J_PCA,7*%
%TO.N,PWM_CH5*%
X82920000Y-24000000D03*
%TO.P,J_PCA,8*%
%TO.N,PWM_CH6*%
X80380000Y-24000000D03*
%TO.P,J_PCA,9*%
%TO.N,PWM_CH7*%
X77840000Y-24000000D03*
%TO.P,J_PCA,10*%
%TO.N,N/C*%
X75300000Y-24000000D03*
%TO.P,J_PCA,11*%
%TO.N,PWM_CH8*%
X72760000Y-24000000D03*
%TO.P,J_PCA,12*%
%TO.N,PWM_CH9*%
X70220000Y-24000000D03*
%TO.P,J_PCA,13*%
%TO.N,PWM_CH10*%
X67680000Y-24000000D03*
%TO.P,J_PCA,14*%
%TO.N,PWM_CH11*%
X65140000Y-24000000D03*
%TO.P,J_PCA,15*%
%TO.N,N/C*%
X62600000Y-24000000D03*
%TO.P,J_PCA,16*%
%TO.N,PWM_CH12*%
X60060000Y-24000000D03*
%TO.P,J_PCA,17*%
%TO.N,PWM_CH13*%
X57520000Y-24000000D03*
%TO.P,J_PCA,18*%
%TO.N,PWM_CH14*%
X54980000Y-24000000D03*
%TO.P,J_PCA,19*%
%TO.N,PWM_CH15*%
X52440000Y-24000000D03*
%TD*%
D10*
%TO.P,F1,1*%
%TO.N,+12V*%
X83185000Y-43900000D03*
%TO.P,F1,2*%
%TO.N,SV1_PWR*%
X105385000Y-43900000D03*
%TD*%
%TO.P,F10,1*%
%TO.N,+5V_SERVO*%
X46685000Y-111900000D03*
%TO.P,F10,2*%
%TO.N,SV10_PWR*%
X68885000Y-111900000D03*
%TD*%
D14*
%TO.N,SV4_PWR*%
X101671400Y-118235800D03*
%TO.N,PWM_CH12*%
X113089500Y-38788700D03*
%TO.N,PWM_CH1*%
X75198300Y-28354700D03*
%TO.N,PWM_CH0*%
X52817900Y-26680000D03*
%TO.N,PWM_CH11*%
X114815200Y-38143800D03*
%TO.N,SV3_PWR*%
X79760000Y-82996000D03*
%TO.N,PWM_CH9*%
X92533300Y-29644000D03*
%TO.N,PWM_CH6*%
X75244400Y-128254300D03*
%TO.N,PWM_CH8*%
X80244500Y-126762200D03*
X78326700Y-27162700D03*
%TO.N,+5V_SERVO*%
X71236700Y-94900000D03*
X67360500Y-84827500D03*
%TO.N,+7V4*%
X77796800Y-72998800D03*
%TD*%
%TO.N,+12V*%
D15*
X125178100Y-123051900D02*
X119000000Y-123051900D01*
X83185000Y-43900000D02*
X83185000Y-60900000D01*
X122900000Y-42000000D02*
X122900000Y-47000000D01*
X122900000Y-47000000D02*
X122900000Y-54000000D01*
D16*
X119000000Y-123051900D02*
X119000000Y-120500000D01*
D15*
X126685100Y-62785100D02*
X126685100Y-121544900D01*
X126685100Y-121544900D02*
X125178100Y-123051900D01*
X46685000Y-60900000D02*
X46685000Y-43900000D01*
X122900000Y-59000000D02*
X126685100Y-62785100D01*
X122900000Y-54000000D02*
X122900000Y-59000000D01*
%TO.N,PWM_CH3*%
D17*
X90540000Y-122368300D02*
X90540000Y-24000000D01*
X91220000Y-124300000D02*
X91220000Y-123048300D01*
X91220000Y-123048300D02*
X90540000Y-122368300D01*
%TO.N,SV4_PWR*%
D18*
X105385000Y-94900000D02*
X101671400Y-98613600D01*
X101671400Y-98613600D02*
X101671400Y-118235800D01*
%TO.N,GND*%
D15*
X70252700Y-136778300D02*
X68040000Y-134565600D01*
X110833100Y-124833100D02*
X110833100Y-131706900D01*
D16*
X54574500Y-131965500D02*
X54040000Y-132500000D01*
D15*
X96573100Y-127268500D02*
X96573300Y-127268300D01*
X82051900Y-132500000D02*
X82051900Y-134023800D01*
X122900000Y-102000000D02*
X122900000Y-107000000D01*
D16*
X68040000Y-134565600D02*
X68040000Y-132500000D01*
X96573100Y-131966900D02*
X96040000Y-132500000D01*
D15*
X96573100Y-131966900D02*
X96573100Y-127268500D01*
D16*
X82051900Y-132500000D02*
X82040000Y-132500000D01*
D15*
X122900000Y-90000000D02*
X122900000Y-95000000D01*
X79297400Y-136778300D02*
X70252700Y-136778300D01*
D16*
X96573300Y-124573300D02*
X96300000Y-124300000D01*
X54574500Y-124300000D02*
X54300000Y-124300000D01*
D15*
X82300000Y-127268500D02*
X96573100Y-127268500D01*
X82300000Y-131982300D02*
X82300000Y-132251900D01*
X110833100Y-131706900D02*
X110574500Y-131965500D01*
X122900000Y-95000000D02*
X122900000Y-102000000D01*
D16*
X82300000Y-131982300D02*
X82300000Y-127268500D01*
X110574500Y-131965500D02*
X110040000Y-132500000D01*
D15*
X96573300Y-127268300D02*
X96573300Y-124573300D01*
X82300000Y-132251900D02*
X82051900Y-132500000D01*
D16*
X110833100Y-124833100D02*
X110300000Y-124300000D01*
X68300000Y-132240000D02*
X68040000Y-132500000D01*
X82300000Y-127268500D02*
X82300000Y-124300000D01*
X68300000Y-124300000D02*
X68300000Y-132240000D01*
D15*
X82051900Y-134023800D02*
X79297400Y-136778300D01*
X54574500Y-124300000D02*
X54574500Y-131965500D01*
%TO.N,TACH*%
D17*
X121540000Y-117960000D02*
X121540000Y-120500000D01*
%TO.N,PWM_CH12*%
X120322900Y-42634600D02*
X120322900Y-114202900D01*
X120322900Y-114202900D02*
X124080000Y-117960000D01*
X113089500Y-38788700D02*
X114443500Y-37434700D01*
X124080000Y-117960000D02*
X124080000Y-120500000D01*
X115123000Y-37434700D02*
X120322900Y-42634600D01*
X114443500Y-37434700D02*
X115123000Y-37434700D01*
%TO.N,SV6_PWR*%
D19*
X51500000Y-132500000D02*
X51500000Y-132862200D01*
X53320600Y-134682800D02*
X55693300Y-134682800D01*
X58618600Y-54166400D02*
X68885000Y-43900000D01*
X58618600Y-131757500D02*
X58618600Y-54166400D01*
X51500000Y-132862200D02*
X53320600Y-134682800D01*
X55693300Y-134682800D02*
X58618600Y-131757500D01*
%TO.N,PWM_CH1*%
D17*
X71790000Y-60658000D02*
X71790000Y-31763000D01*
X63220000Y-69228000D02*
X71790000Y-60658000D01*
X71790000Y-31763000D02*
X75198300Y-28354700D01*
X63220000Y-124300000D02*
X63220000Y-69228000D01*
%TO.N,PWM_CH5*%
X82920000Y-24000000D02*
X81603800Y-22683800D01*
X68950000Y-38580800D02*
X50508300Y-57022500D01*
X68950000Y-23455800D02*
X68950000Y-38580800D01*
X50508300Y-129700000D02*
X48960000Y-131248300D01*
X50508300Y-57022500D02*
X50508300Y-129700000D01*
X69722000Y-22683800D02*
X68950000Y-23455800D01*
X81603800Y-22683800D02*
X69722000Y-22683800D01*
X48960000Y-132500000D02*
X48960000Y-131248300D01*
%TO.N,SDA*%
X37000000Y-75720000D02*
X37000000Y-73180000D01*
X37000000Y-70640000D02*
X37000000Y-68100000D01*
X25000000Y-64400000D02*
X25000000Y-69400000D01*
X37000000Y-73180000D02*
X37000000Y-70640000D01*
%TO.N,+3V3*%
D20*
X37000000Y-82640000D02*
X37000000Y-80100000D01*
X37000000Y-87720000D02*
X37000000Y-85180000D01*
X37000000Y-85180000D02*
X37000000Y-82640000D01*
X25000000Y-76400000D02*
X25000000Y-81400000D01*
%TO.N,PWM_CH0*%
D17*
X49220000Y-35178300D02*
X52817900Y-31580400D01*
X52817900Y-31580400D02*
X52817900Y-26680000D01*
X49220000Y-124300000D02*
X49220000Y-35178300D01*
%TO.N,PWM_CH11*%
X114815200Y-129603500D02*
X114815200Y-38143800D01*
X116460000Y-132500000D02*
X116460000Y-131248300D01*
X116460000Y-131248300D02*
X114815200Y-129603500D01*
%TO.N,PWM_CH2*%
X76395100Y-73579300D02*
X77219900Y-74404100D01*
X93080000Y-24000000D02*
X91792800Y-22712800D01*
X76395100Y-72418300D02*
X76395100Y-73579300D01*
X77219900Y-74404100D02*
X77220000Y-74404100D01*
X89270100Y-23483100D02*
X89270100Y-59543300D01*
X89270100Y-59543300D02*
X76395100Y-72418300D01*
X77220000Y-74404100D02*
X77220000Y-124300000D01*
X90040400Y-22712800D02*
X89270100Y-23483100D01*
X91792800Y-22712800D02*
X90040400Y-22712800D01*
%TO.N,SV3_PWR*%
D21*
X79760000Y-124300000D02*
X79760000Y-82996000D01*
%TO.N,+5V_LOGIC*%
D20*
X37000000Y-99720000D02*
X37000000Y-97180000D01*
X25000000Y-88400000D02*
X25000000Y-93400000D01*
X37000000Y-97180000D02*
X37000000Y-94640000D01*
X37000000Y-94640000D02*
X37000000Y-92100000D01*
%TO.N,GND_LOGIC*%
X37000000Y-109180000D02*
X37000000Y-106640000D01*
X25000000Y-100400000D02*
X25000000Y-105400000D01*
X37000000Y-106640000D02*
X37000000Y-104100000D01*
X37000000Y-111720000D02*
X37000000Y-109180000D01*
%TO.N,PWM_CH9*%
D17*
X104960000Y-132500000D02*
X104960000Y-126424700D01*
X92533300Y-113998000D02*
X92533300Y-29644000D01*
X104960000Y-126424700D02*
X92533300Y-113998000D01*
%TO.N,PWM_CH6*%
X75133800Y-30355500D02*
X75133800Y-128143700D01*
X77178900Y-28310400D02*
X75133800Y-30355500D01*
X75133800Y-128143700D02*
X75244400Y-128254300D01*
X80380000Y-24000000D02*
X77178900Y-27201100D01*
X77178900Y-27201100D02*
X77178900Y-28310400D01*
%TO.N,SV7_PWR*%
D19*
X61116000Y-68669000D02*
X68885000Y-60900000D01*
X65500000Y-131640500D02*
X61116000Y-127256500D01*
X61116000Y-127256500D02*
X61116000Y-68669000D01*
X65500000Y-132500000D02*
X65500000Y-131640500D01*
%TO.N,PWM_CH8*%
D17*
X75788700Y-30551500D02*
X78326700Y-28013500D01*
X75788700Y-125138600D02*
X75788700Y-30551500D01*
X77412300Y-126762200D02*
X75788700Y-125138600D01*
X78326700Y-28013500D02*
X78326700Y-27162700D01*
X80244500Y-126762200D02*
X77412300Y-126762200D01*
%TO.N,PWM_CH4*%
X85460000Y-24000000D02*
X87348900Y-22111100D01*
X105208700Y-123048300D02*
X105220000Y-123048300D01*
X92996200Y-22111100D02*
X94350000Y-23464900D01*
X105220000Y-124300000D02*
X105220000Y-123048300D01*
X94350000Y-23464900D02*
X94350000Y-112189600D01*
X87348900Y-22111100D02*
X92996200Y-22111100D01*
X94350000Y-112189600D02*
X105208700Y-123048300D01*
%TO.N,SV5_PWR*%
D18*
X107760000Y-114275000D02*
X105385000Y-111900000D01*
X107760000Y-124300000D02*
X107760000Y-114275000D01*
%TO.N,PWM_CH7*%
D17*
X74532100Y-128820400D02*
X76960000Y-131248300D01*
X76960000Y-132500000D02*
X76960000Y-131248300D01*
X74532100Y-30106400D02*
X74532100Y-128820400D01*
X76577200Y-25262800D02*
X76577200Y-28061300D01*
X77840000Y-24000000D02*
X76577200Y-25262800D01*
X76577200Y-28061300D02*
X74532100Y-30106400D01*
%TO.N,SV8_PWR*%
D21*
X72940500Y-81955500D02*
X68885000Y-77900000D01*
X75700900Y-134301700D02*
X70275600Y-128876400D01*
X66478100Y-102218800D02*
X72940500Y-95756400D01*
X79500000Y-133062600D02*
X78260900Y-134301700D01*
X78260900Y-134301700D02*
X75700900Y-134301700D01*
X79500000Y-132500000D02*
X79500000Y-133062600D01*
X72940500Y-95756400D02*
X72940500Y-81955500D01*
X70275600Y-128876400D02*
X70275600Y-116616400D01*
X70275600Y-116616400D02*
X66478100Y-112818900D01*
X66478100Y-112818900D02*
X66478100Y-102218800D01*
%TO.N,SCL*%
D17*
X25000000Y-52400000D02*
X25000000Y-57400000D01*
X37000000Y-58640000D02*
X37000000Y-56100000D01*
X37000000Y-63720000D02*
X37000000Y-61180000D01*
X37000000Y-61180000D02*
X37000000Y-58640000D01*
%TO.N,+5V_SERVO*%
D21*
X46685000Y-111900000D02*
X46685000Y-94900000D01*
X83185000Y-111900000D02*
X83185000Y-94900000D01*
X71236700Y-88703700D02*
X71236700Y-94900000D01*
X122900000Y-78000000D02*
X122900000Y-83000000D01*
X67360500Y-84827500D02*
X71236700Y-88703700D01*
%TO.N,+7V4*%
D19*
X122900000Y-66000000D02*
X122900000Y-71000000D01*
X78283800Y-72998800D02*
X83185000Y-77900000D01*
X77796800Y-72998800D02*
X78283800Y-72998800D01*
%TD*%
%TA.AperFunction,Conductor*%
%TO.N,+12V*%
G36*
X132447247Y-5119962D02*
G01*
X132501785Y-5174500D01*
X132521747Y-5249000D01*
X132501785Y-5323500D01*
X132478106Y-5354359D01*
X132441141Y-5391323D01*
X132219131Y-5666821D01*
X132107529Y-5840478D01*
X132027845Y-5964469D01*
X132027841Y-5964475D01*
X132027835Y-5964487D01*
X131869473Y-6280852D01*
X131869470Y-6280859D01*
X131745827Y-6612357D01*
X131745824Y-6612366D01*
X131658325Y-6955187D01*
X131658325Y-6955188D01*
X131607971Y-7305401D01*
X131607970Y-7305414D01*
X131595343Y-7659001D01*
X131620582Y-8011896D01*
X131620583Y-8011906D01*
X131620584Y-8011908D01*
X131676922Y-8324170D01*
X131683407Y-8360111D01*
X131683407Y-8360113D01*
X131783081Y-8699571D01*
X131783088Y-8699589D01*
X131918484Y-9026466D01*
X131918485Y-9026467D01*
X132088051Y-9337004D01*
X132289840Y-9627635D01*
X132311573Y-9652716D01*
X132521539Y-9895031D01*
X132780490Y-10136122D01*
X132780495Y-10136126D01*
X133063735Y-10348158D01*
X133063741Y-10348162D01*
X133368031Y-10528705D01*
X133689861Y-10675679D01*
X133689863Y-10675679D01*
X133689866Y-10675681D01*
X134025575Y-10787416D01*
X134025582Y-10787417D01*
X134025587Y-10787419D01*
X134125541Y-10809162D01*
X134371304Y-10862625D01*
X134371313Y-10862626D01*
X134371308Y-10862626D01*
X134723091Y-10900446D01*
X134723083Y-10900446D01*
X134774452Y-10900461D01*
X134900000Y-10900500D01*
X134900022Y-10900500D01*
X134947594Y-10900500D01*
X134947595Y-10900500D01*
X135038125Y-10871085D01*
X135115134Y-10815134D01*
X135171085Y-10738125D01*
X135200500Y-10647595D01*
X135200500Y-10552405D01*
X135171085Y-10461875D01*
X135115134Y-10384866D01*
X135064610Y-10348158D01*
X135038125Y-10328915D01*
X134947595Y-10299500D01*
X134947594Y-10299500D01*
X134904397Y-10299500D01*
X134895625Y-10299242D01*
X134591478Y-10281305D01*
X134574057Y-10279243D01*
X134278462Y-10226457D01*
X134261402Y-10222361D01*
X133974062Y-10135196D01*
X133957604Y-10129124D01*
X133682503Y-10008793D01*
X133666871Y-10000828D01*
X133407823Y-9848997D01*
X133393236Y-9839251D01*
X133153818Y-9658017D01*
X133140478Y-9646623D01*
X132924035Y-9438517D01*
X132912126Y-9425634D01*
X132721629Y-9193512D01*
X132711318Y-9179320D01*
X132613470Y-9026467D01*
X132549435Y-8926434D01*
X132540864Y-8911131D01*
X132438259Y-8699589D01*
X132409818Y-8640951D01*
X132403107Y-8624747D01*
X132311339Y-8360113D01*
X132304727Y-8341046D01*
X132299970Y-8324180D01*
X132235619Y-8030879D01*
X132232875Y-8013556D01*
X132232712Y-8011896D01*
X132203441Y-7714709D01*
X132202754Y-7697200D01*
X132208649Y-7396981D01*
X132210024Y-7379507D01*
X132251169Y-7082040D01*
X132254587Y-7064860D01*
X132330407Y-6774298D01*
X132335819Y-6757642D01*
X132445268Y-6478002D01*
X132452607Y-6462083D01*
X132594159Y-6197257D01*
X132603315Y-6182315D01*
X132775021Y-5935952D01*
X132785865Y-5922196D01*
X132985341Y-5697720D01*
X132997720Y-5685341D01*
X133222196Y-5485865D01*
X133235952Y-5475021D01*
X133482315Y-5303315D01*
X133497257Y-5294159D01*
X133762083Y-5152607D01*
X133778002Y-5145268D01*
X133867477Y-5110248D01*
X133921782Y-5100000D01*
X135886479Y-5100000D01*
X135951504Y-5114937D01*
X136045759Y-5160653D01*
X136211134Y-5240866D01*
X136226434Y-5249435D01*
X136448085Y-5391323D01*
X136479320Y-5411318D01*
X136493512Y-5421629D01*
X136725634Y-5612126D01*
X136738517Y-5624035D01*
X136946623Y-5840478D01*
X136958017Y-5853818D01*
X137139251Y-6093236D01*
X137148997Y-6107823D01*
X137300826Y-6366868D01*
X137308791Y-6382499D01*
X137387512Y-6562469D01*
X137400000Y-6622181D01*
X137400000Y-150477819D01*
X137387512Y-150537531D01*
X137308793Y-150717497D01*
X137300828Y-150733128D01*
X137148997Y-150992176D01*
X137139251Y-151006763D01*
X136958017Y-151246181D01*
X136946623Y-151259521D01*
X136738517Y-151475964D01*
X136725634Y-151487873D01*
X136493512Y-151678370D01*
X136479320Y-151688681D01*
X136226438Y-151850562D01*
X136211131Y-151859135D01*
X135951504Y-151985063D01*
X135886479Y-152000000D01*
X133921782Y-152000000D01*
X133867478Y-151989751D01*
X133782161Y-151956359D01*
X133778007Y-151954733D01*
X133762076Y-151947388D01*
X133497265Y-151805844D01*
X133482307Y-151796678D01*
X133235963Y-151624986D01*
X133222185Y-151614124D01*
X132997733Y-151414670D01*
X132985329Y-151402266D01*
X132926676Y-151336262D01*
X132785872Y-151177811D01*
X132775013Y-151164036D01*
X132682972Y-151031976D01*
X132603320Y-150917691D01*
X132594155Y-150902734D01*
X132452611Y-150637923D01*
X132445266Y-150621991D01*
X132412209Y-150537531D01*
X132335821Y-150342362D01*
X132330406Y-150325696D01*
X132254588Y-150035142D01*
X132251169Y-150017956D01*
X132210024Y-149720493D01*
X132208649Y-149703010D01*
X132202754Y-149402798D01*
X132203441Y-149385291D01*
X132232876Y-149086436D01*
X132235620Y-149069116D01*
X132299971Y-148775815D01*
X132304726Y-148758958D01*
X132403111Y-148475241D01*
X132409815Y-148459054D01*
X132540869Y-148188857D01*
X132549430Y-148173572D01*
X132711324Y-147920670D01*
X132721629Y-147906487D01*
X132912126Y-147674365D01*
X132924025Y-147661492D01*
X133140486Y-147453368D01*
X133153809Y-147441989D01*
X133393240Y-147260745D01*
X133407818Y-147251004D01*
X133666882Y-147099165D01*
X133682491Y-147091212D01*
X133957610Y-146970872D01*
X133974056Y-146964804D01*
X134261414Y-146877635D01*
X134278450Y-146873544D01*
X134574071Y-146820754D01*
X134591464Y-146818695D01*
X134895625Y-146800757D01*
X134904397Y-146800500D01*
X134947594Y-146800500D01*
X134947595Y-146800500D01*
X135038125Y-146771085D01*
X135115134Y-146715134D01*
X135171085Y-146638125D01*
X135200500Y-146547595D01*
X135200500Y-146452405D01*
X135171085Y-146361875D01*
X135115134Y-146284866D01*
X135038125Y-146228915D01*
X134947595Y-146199500D01*
X134900000Y-146199500D01*
X134898843Y-146199500D01*
X134723087Y-146199553D01*
X134371311Y-146237373D01*
X134025587Y-146312580D01*
X134025571Y-146312585D01*
X133689867Y-146424318D01*
X133689861Y-146424320D01*
X133368031Y-146571294D01*
X133063741Y-146751837D01*
X133063735Y-146751841D01*
X132780495Y-146963873D01*
X132780490Y-146963877D01*
X132521539Y-147204968D01*
X132289843Y-147472361D01*
X132289834Y-147472372D01*
X132154302Y-147667577D01*
X132088051Y-147762996D01*
X132088048Y-147762999D01*
X132088046Y-147763004D01*
X131918489Y-148073524D01*
X131918484Y-148073533D01*
X131783088Y-148400410D01*
X131783081Y-148400428D01*
X131683407Y-148739886D01*
X131683407Y-148739888D01*
X131683405Y-148739896D01*
X131683405Y-148739898D01*
X131625158Y-149062735D01*
X131620582Y-149088103D01*
X131595343Y-149440998D01*
X131607970Y-149794585D01*
X131607971Y-149794598D01*
X131658325Y-150144811D01*
X131658325Y-150144812D01*
X131745824Y-150487633D01*
X131745827Y-150487642D01*
X131869470Y-150819140D01*
X131869473Y-150819147D01*
X132027835Y-151135512D01*
X132027845Y-151135531D01*
X132219132Y-151433180D01*
X132373699Y-151624986D01*
X132441141Y-151708676D01*
X132478106Y-151745641D01*
X132516670Y-151812436D01*
X132516670Y-151889564D01*
X132478106Y-151956359D01*
X132411311Y-151994923D01*
X132372747Y-152000000D01*
X77999000Y-152000000D01*
X77924500Y-151980038D01*
X77869962Y-151925500D01*
X77850000Y-151851000D01*
X77850000Y-140378706D01*
X97449500Y-140378706D01*
X97449500Y-140621293D01*
X97481160Y-140861781D01*
X97481161Y-140861787D01*
X97481162Y-140861789D01*
X97543946Y-141096100D01*
X97636776Y-141320212D01*
X97758064Y-141530289D01*
X97905735Y-141722738D01*
X98077262Y-141894265D01*
X98269711Y-142041936D01*
X98479788Y-142163224D01*
X98703900Y-142256054D01*
X98938211Y-142318838D01*
X98938217Y-142318838D01*
X98938218Y-142318839D01*
X99003600Y-142327446D01*
X99178712Y-142350500D01*
X99421288Y-142350500D01*
X99661789Y-142318838D01*
X99896100Y-142256054D01*
X100120212Y-142163224D01*
X100330289Y-142041936D01*
X100522738Y-141894265D01*
X100694265Y-141722738D01*
X100841936Y-141530289D01*
X100963224Y-141320212D01*
X101056054Y-141096100D01*
X101118838Y-140861789D01*
X101150500Y-140621288D01*
X101150500Y-140378712D01*
X101118838Y-140138211D01*
X101056054Y-139903900D01*
X100963224Y-139679788D01*
X100841936Y-139469711D01*
X100694265Y-139277262D01*
X100522738Y-139105735D01*
X100330289Y-138958064D01*
X100260263Y-138917634D01*
X100120216Y-138836778D01*
X100120214Y-138836777D01*
X100120212Y-138836776D01*
X99897609Y-138744571D01*
X99896103Y-138743947D01*
X99896101Y-138743946D01*
X99896100Y-138743946D01*
X99661789Y-138681162D01*
X99661787Y-138681161D01*
X99661781Y-138681160D01*
X99421293Y-138649500D01*
X99421288Y-138649500D01*
X99178712Y-138649500D01*
X99178706Y-138649500D01*
X98938218Y-138681160D01*
X98703896Y-138743947D01*
X98479783Y-138836778D01*
X98269712Y-138958063D01*
X98269711Y-138958064D01*
X98077262Y-139105735D01*
X98077260Y-139105736D01*
X98077256Y-139105740D01*
X97905740Y-139277256D01*
X97758063Y-139469712D01*
X97636778Y-139679783D01*
X97543947Y-139903896D01*
X97481160Y-140138218D01*
X97449500Y-140378706D01*
X77850000Y-140378706D01*
X77850000Y-138927800D01*
X77869962Y-138853300D01*
X77924500Y-138798762D01*
X77999000Y-138778800D01*
X79428522Y-138778800D01*
X79428522Y-138778799D01*
X79558518Y-138761685D01*
X79688516Y-138744571D01*
X79941819Y-138676698D01*
X79941825Y-138676695D01*
X79941827Y-138676695D01*
X79987699Y-138657693D01*
X80184097Y-138576343D01*
X80411203Y-138445224D01*
X80501531Y-138375911D01*
X80619251Y-138285583D01*
X83559183Y-135345651D01*
X83559186Y-135345646D01*
X83559190Y-135345643D01*
X83628333Y-135255532D01*
X83628333Y-135255531D01*
X83628336Y-135255528D01*
X83718824Y-135137603D01*
X83849943Y-134910497D01*
X83950298Y-134668219D01*
X83970044Y-134594526D01*
X84018171Y-134414916D01*
X84043636Y-134221484D01*
X84052400Y-134154920D01*
X84052400Y-133257577D01*
X84072362Y-133183077D01*
X84072363Y-133183076D01*
X84098039Y-133138604D01*
X84098039Y-133138603D01*
X84098043Y-133138597D01*
X84198398Y-132896319D01*
X84199792Y-132891116D01*
X84266271Y-132643016D01*
X84285010Y-132500674D01*
X84300500Y-132383020D01*
X84300500Y-131851180D01*
X84266270Y-131591184D01*
X84217097Y-131407666D01*
X84198399Y-131337884D01*
X84198399Y-131337883D01*
X84161353Y-131248446D01*
X84098043Y-131095603D01*
X83966924Y-130868497D01*
X83966921Y-130868493D01*
X83966921Y-130868492D01*
X83807284Y-130660451D01*
X83694041Y-130547208D01*
X83655477Y-130480413D01*
X83650400Y-130441849D01*
X83650400Y-129418000D01*
X83670362Y-129343500D01*
X83724900Y-129288962D01*
X83799400Y-129269000D01*
X94423600Y-129269000D01*
X94498100Y-129288962D01*
X94552638Y-129343500D01*
X94572600Y-129418000D01*
X94572600Y-131317550D01*
X94552638Y-131392050D01*
X94498100Y-131446588D01*
X94423600Y-131466550D01*
X94349100Y-131446588D01*
X94336020Y-131438094D01*
X94254447Y-131378828D01*
X94207816Y-131344949D01*
X94018412Y-131248443D01*
X93816243Y-131182754D01*
X93606287Y-131149500D01*
X93393713Y-131149500D01*
X93218749Y-131177211D01*
X93183756Y-131182754D01*
X92981594Y-131248441D01*
X92981588Y-131248443D01*
X92981582Y-131248445D01*
X92981582Y-131248446D01*
X92792182Y-131344950D01*
X92792181Y-131344950D01*
X92620209Y-131469895D01*
X92620198Y-131469904D01*
X92534179Y-131555923D01*
X92467384Y-131594487D01*
X92390256Y-131594487D01*
X92323462Y-131555922D01*
X92289215Y-131502633D01*
X92277008Y-131469904D01*
X92253796Y-131407669D01*
X92253795Y-131407668D01*
X92253795Y-131407666D01*
X92167547Y-131292455D01*
X92167544Y-131292452D01*
X92052333Y-131206204D01*
X92052329Y-131206202D01*
X91917482Y-131155908D01*
X91857876Y-131149500D01*
X90062136Y-131149500D01*
X90062111Y-131149502D01*
X90002521Y-131155908D01*
X90002515Y-131155909D01*
X89867670Y-131206202D01*
X89867666Y-131206204D01*
X89752455Y-131292452D01*
X89752452Y-131292455D01*
X89666204Y-131407666D01*
X89666202Y-131407670D01*
X89615908Y-131542517D01*
X89609500Y-131602114D01*
X89609500Y-133397863D01*
X89609502Y-133397888D01*
X89615908Y-133457478D01*
X89615909Y-133457484D01*
X89666202Y-133592329D01*
X89666204Y-133592333D01*
X89752452Y-133707544D01*
X89752455Y-133707547D01*
X89867666Y-133793795D01*
X89867670Y-133793797D01*
X90002517Y-133844091D01*
X90062114Y-133850499D01*
X90062118Y-133850499D01*
X90062127Y-133850500D01*
X91857872Y-133850499D01*
X91917483Y-133844091D01*
X92013447Y-133808298D01*
X92052329Y-133793797D01*
X92052333Y-133793795D01*
X92109938Y-133750671D01*
X92167546Y-133707546D01*
X92222737Y-133633821D01*
X92253795Y-133592333D01*
X92253798Y-133592327D01*
X92289215Y-133497367D01*
X92333953Y-133434540D01*
X92404110Y-133402498D01*
X92480889Y-133409829D01*
X92534180Y-133444076D01*
X92620208Y-133530104D01*
X92792184Y-133655051D01*
X92981588Y-133751557D01*
X93183757Y-133817246D01*
X93393713Y-133850500D01*
X93393718Y-133850500D01*
X93606282Y-133850500D01*
X93606287Y-133850500D01*
X93816243Y-133817246D01*
X94018412Y-133751557D01*
X94207816Y-133655051D01*
X94379792Y-133530104D01*
X94530104Y-133379792D01*
X94649456Y-133215517D01*
X94709396Y-133166979D01*
X94785574Y-133154913D01*
X94857580Y-133182553D01*
X94890544Y-133215517D01*
X95009896Y-133379792D01*
X95160208Y-133530104D01*
X95332184Y-133655051D01*
X95521588Y-133751557D01*
X95723757Y-133817246D01*
X95850308Y-133837289D01*
X95884012Y-133846795D01*
X95925299Y-133863897D01*
X95928686Y-133865300D01*
X96037578Y-133894476D01*
X96181984Y-133933170D01*
X96181990Y-133933170D01*
X96181991Y-133933171D01*
X96218934Y-133938034D01*
X96441977Y-133967399D01*
X96441978Y-133967400D01*
X96441980Y-133967400D01*
X96704222Y-133967400D01*
X96704222Y-133967399D01*
X96964208Y-133933171D01*
X96964210Y-133933171D01*
X96964211Y-133933170D01*
X96964216Y-133933170D01*
X97217515Y-133865299D01*
X97217516Y-133865299D01*
X97217517Y-133865298D01*
X97217519Y-133865298D01*
X97459797Y-133764943D01*
X97686903Y-133633824D01*
X97894948Y-133474184D01*
X97894949Y-133474184D01*
X98080384Y-133288749D01*
X98080384Y-133288748D01*
X98142485Y-133207818D01*
X98240024Y-133080703D01*
X98371143Y-132853597D01*
X98471498Y-132611319D01*
X98539370Y-132358016D01*
X98573600Y-132098020D01*
X98573600Y-127407350D01*
X98573800Y-127401241D01*
X98573800Y-124442178D01*
X98573799Y-124442176D01*
X98573774Y-124441989D01*
X98539570Y-124182184D01*
X98471698Y-123928881D01*
X98371343Y-123686603D01*
X98240224Y-123459497D01*
X98240221Y-123459493D01*
X98240221Y-123459492D01*
X98080584Y-123251451D01*
X97895148Y-123066015D01*
X97687106Y-122906378D01*
X97660647Y-122891102D01*
X97528566Y-122814845D01*
X97460001Y-122775259D01*
X97459999Y-122775258D01*
X97459997Y-122775257D01*
X97384454Y-122743966D01*
X97217716Y-122674900D01*
X96991555Y-122614302D01*
X96964416Y-122607030D01*
X96964414Y-122607029D01*
X96964408Y-122607028D01*
X96704423Y-122572800D01*
X96704420Y-122572800D01*
X96442180Y-122572800D01*
X96442176Y-122572800D01*
X96182192Y-122607028D01*
X96182189Y-122607028D01*
X95928884Y-122674900D01*
X95928883Y-122674900D01*
X95686598Y-122775259D01*
X95459493Y-122906378D01*
X95459492Y-122906378D01*
X95251451Y-123066015D01*
X95251451Y-123066016D01*
X95066016Y-123251451D01*
X95066014Y-123251452D01*
X94976381Y-123368264D01*
X94915191Y-123415216D01*
X94838723Y-123425283D01*
X94767466Y-123395767D01*
X94752813Y-123382917D01*
X94639793Y-123269897D01*
X94639792Y-123269896D01*
X94467816Y-123144949D01*
X94278412Y-123048443D01*
X94076243Y-122982754D01*
X93866287Y-122949500D01*
X93653713Y-122949500D01*
X93478749Y-122977211D01*
X93443756Y-122982754D01*
X93241594Y-123048441D01*
X93241588Y-123048443D01*
X93241582Y-123048445D01*
X93241582Y-123048446D01*
X93052182Y-123144950D01*
X93052181Y-123144950D01*
X92880209Y-123269895D01*
X92880198Y-123269904D01*
X92794179Y-123355923D01*
X92727384Y-123394487D01*
X92650256Y-123394487D01*
X92583462Y-123355922D01*
X92549215Y-123302633D01*
X92537008Y-123269904D01*
X92513796Y-123207669D01*
X92513795Y-123207668D01*
X92513795Y-123207666D01*
X92427547Y-123092455D01*
X92427544Y-123092452D01*
X92312333Y-123006204D01*
X92312329Y-123006202D01*
X92177482Y-122955908D01*
X92117885Y-122949500D01*
X92117873Y-122949500D01*
X92036097Y-122949500D01*
X91961597Y-122929538D01*
X91944443Y-122912384D01*
X91943336Y-122911926D01*
X91941195Y-122909136D01*
X91907059Y-122875000D01*
X91897592Y-122855431D01*
X91894116Y-122846666D01*
X91893580Y-122843972D01*
X91881514Y-122814843D01*
X91840775Y-122716489D01*
X91764114Y-122601757D01*
X91284141Y-122121784D01*
X91245577Y-122054989D01*
X91240500Y-122016425D01*
X91240500Y-25236285D01*
X91260462Y-25161785D01*
X91301919Y-25115743D01*
X91419792Y-25030104D01*
X91570104Y-24879792D01*
X91689456Y-24715517D01*
X91749396Y-24666979D01*
X91825574Y-24654913D01*
X91897580Y-24682553D01*
X91930544Y-24715517D01*
X92049896Y-24879792D01*
X92200208Y-25030104D01*
X92372184Y-25155051D01*
X92561588Y-25251557D01*
X92763757Y-25317246D01*
X92973713Y-25350500D01*
X92973718Y-25350500D01*
X93186282Y-25350500D01*
X93186287Y-25350500D01*
X93396243Y-25317246D01*
X93454457Y-25298330D01*
X93531478Y-25294294D01*
X93600200Y-25329309D01*
X93642207Y-25393994D01*
X93649500Y-25440038D01*
X93649500Y-112258597D01*
X93676419Y-112393927D01*
X93676420Y-112393929D01*
X93729220Y-112521402D01*
X93729223Y-112521408D01*
X93729225Y-112521411D01*
X93805886Y-112636143D01*
X93805889Y-112636146D01*
X104033688Y-122863945D01*
X104072252Y-122930740D01*
X104072252Y-123007868D01*
X104033688Y-123074663D01*
X104017627Y-123088580D01*
X104012458Y-123092449D01*
X104012452Y-123092455D01*
X103926204Y-123207666D01*
X103926202Y-123207670D01*
X103875908Y-123342517D01*
X103869500Y-123402114D01*
X103869500Y-123983825D01*
X103849538Y-124058325D01*
X103795000Y-124112863D01*
X103720500Y-124132825D01*
X103646000Y-124112863D01*
X103615141Y-124089184D01*
X93277441Y-113751484D01*
X93238877Y-113684689D01*
X93233800Y-113646125D01*
X93233800Y-30074289D01*
X93245142Y-30017270D01*
X93290006Y-29908957D01*
X93303037Y-29877497D01*
X93333800Y-29722842D01*
X93333800Y-29565158D01*
X93303037Y-29410503D01*
X93242694Y-29264821D01*
X93155089Y-29133711D01*
X93043589Y-29022211D01*
X92912479Y-28934606D01*
X92912478Y-28934605D01*
X92912476Y-28934604D01*
X92766798Y-28874263D01*
X92766794Y-28874262D01*
X92612142Y-28843500D01*
X92454458Y-28843500D01*
X92299805Y-28874262D01*
X92299801Y-28874263D01*
X92154123Y-28934604D01*
X92023007Y-29022214D01*
X91911514Y-29133707D01*
X91823904Y-29264823D01*
X91763563Y-29410501D01*
X91763562Y-29410505D01*
X91732800Y-29565157D01*
X91732800Y-29722842D01*
X91763562Y-29877494D01*
X91763563Y-29877498D01*
X91821458Y-30017270D01*
X91832800Y-30074289D01*
X91832800Y-114066997D01*
X91859719Y-114202327D01*
X91859720Y-114202329D01*
X91912520Y-114329802D01*
X91912523Y-114329808D01*
X91912525Y-114329811D01*
X91989186Y-114444543D01*
X91989189Y-114444546D01*
X104215859Y-126671216D01*
X104254423Y-126738011D01*
X104259500Y-126776575D01*
X104259500Y-131000500D01*
X104239538Y-131075000D01*
X104185000Y-131129538D01*
X104110503Y-131149500D01*
X104062137Y-131149500D01*
X104062111Y-131149502D01*
X104002521Y-131155908D01*
X104002515Y-131155909D01*
X103867670Y-131206202D01*
X103867666Y-131206204D01*
X103752455Y-131292452D01*
X103752452Y-131292455D01*
X103666204Y-131407666D01*
X103666202Y-131407670D01*
X103615908Y-131542517D01*
X103609500Y-131602114D01*
X103609500Y-133397863D01*
X103609502Y-133397888D01*
X103615908Y-133457478D01*
X103615909Y-133457484D01*
X103666202Y-133592329D01*
X103666204Y-133592333D01*
X103752452Y-133707544D01*
X103752455Y-133707547D01*
X103867666Y-133793795D01*
X103867670Y-133793797D01*
X104002517Y-133844091D01*
X104062114Y-133850499D01*
X104062118Y-133850499D01*
X104062127Y-133850500D01*
X105857872Y-133850499D01*
X105917483Y-133844091D01*
X106013447Y-133808298D01*
X106052329Y-133793797D01*
X106052333Y-133793795D01*
X106109938Y-133750671D01*
X106167546Y-133707546D01*
X106222737Y-133633821D01*
X106253795Y-133592333D01*
X106253798Y-133592327D01*
X106289215Y-133497367D01*
X106333953Y-133434540D01*
X106404110Y-133402498D01*
X106480889Y-133409829D01*
X106534180Y-133444076D01*
X106620208Y-133530104D01*
X106792184Y-133655051D01*
X106981588Y-133751557D01*
X107183757Y-133817246D01*
X107393713Y-133850500D01*
X107393718Y-133850500D01*
X107606282Y-133850500D01*
X107606287Y-133850500D01*
X107816243Y-133817246D01*
X108018412Y-133751557D01*
X108207816Y-133655051D01*
X108379792Y-133530104D01*
X108530104Y-133379792D01*
X108649456Y-133215517D01*
X108709396Y-133166979D01*
X108785574Y-133154913D01*
X108857580Y-133182553D01*
X108890544Y-133215517D01*
X109009896Y-133379792D01*
X109160208Y-133530104D01*
X109332184Y-133655051D01*
X109521588Y-133751557D01*
X109723757Y-133817246D01*
X109858047Y-133838515D01*
X109891751Y-133848020D01*
X109930081Y-133863898D01*
X110183384Y-133931771D01*
X110183390Y-133931771D01*
X110183391Y-133931772D01*
X110194018Y-133933171D01*
X110443380Y-133965999D01*
X110705620Y-133965999D01*
X110965616Y-133931771D01*
X111218919Y-133863898D01*
X111218925Y-133863895D01*
X111218927Y-133863895D01*
X111280201Y-133838514D01*
X111461197Y-133763543D01*
X111688302Y-133632424D01*
X111896351Y-133472783D01*
X112340383Y-133028751D01*
X112445994Y-132891116D01*
X112500024Y-132820703D01*
X112631143Y-132593597D01*
X112731498Y-132351319D01*
X112750147Y-132281720D01*
X112799371Y-132098015D01*
X112822559Y-131921880D01*
X112833600Y-131838020D01*
X112833600Y-124701980D01*
X112799370Y-124441984D01*
X112756342Y-124281402D01*
X112731499Y-124188684D01*
X112731499Y-124188683D01*
X112690285Y-124089184D01*
X112631143Y-123946403D01*
X112500024Y-123719297D01*
X112500021Y-123719293D01*
X112500021Y-123719292D01*
X112340384Y-123511251D01*
X112154948Y-123325815D01*
X111946906Y-123166178D01*
X111940911Y-123162717D01*
X111811873Y-123088217D01*
X111719801Y-123035059D01*
X111719799Y-123035058D01*
X111719797Y-123035057D01*
X111642477Y-123003030D01*
X111477516Y-122934700D01*
X111251355Y-122874102D01*
X111224216Y-122866830D01*
X111224214Y-122866829D01*
X111224208Y-122866828D01*
X110964223Y-122832600D01*
X110964220Y-122832600D01*
X110701980Y-122832600D01*
X110701976Y-122832600D01*
X110441992Y-122866828D01*
X110441989Y-122866828D01*
X110188684Y-122934700D01*
X110144009Y-122953204D01*
X110110304Y-122962709D01*
X109983762Y-122982752D01*
X109781594Y-123048441D01*
X109781588Y-123048443D01*
X109781582Y-123048445D01*
X109781582Y-123048446D01*
X109592182Y-123144950D01*
X109592181Y-123144950D01*
X109420209Y-123269895D01*
X109420206Y-123269897D01*
X109269897Y-123420206D01*
X109269895Y-123420209D01*
X109150544Y-123584482D01*
X109090604Y-123633020D01*
X109014425Y-123645086D01*
X108942420Y-123617446D01*
X108909456Y-123584482D01*
X108788956Y-123418628D01*
X108761316Y-123346623D01*
X108760500Y-123331048D01*
X108760500Y-114176460D01*
X108752035Y-114133906D01*
X108722051Y-113983165D01*
X108646632Y-113801086D01*
X108646240Y-113800500D01*
X108584329Y-113707843D01*
X108537139Y-113637218D01*
X108397782Y-113497861D01*
X108394050Y-113494129D01*
X108394035Y-113494115D01*
X107295458Y-112395538D01*
X107256894Y-112328743D01*
X107253092Y-112270731D01*
X107285499Y-112024569D01*
X107285500Y-112024565D01*
X107285500Y-111775435D01*
X107285499Y-111775429D01*
X107275776Y-111701578D01*
X107252982Y-111528435D01*
X107188502Y-111287793D01*
X107093164Y-111057627D01*
X106968599Y-110841873D01*
X106816938Y-110644224D01*
X106640776Y-110468062D01*
X106443127Y-110316401D01*
X106371209Y-110274879D01*
X106227377Y-110191838D01*
X106227375Y-110191837D01*
X106227373Y-110191836D01*
X106092548Y-110135989D01*
X105997210Y-110096499D01*
X105997208Y-110096498D01*
X105997207Y-110096498D01*
X105756565Y-110032018D01*
X105756563Y-110032017D01*
X105756557Y-110032016D01*
X105509570Y-109999500D01*
X105509565Y-109999500D01*
X105260435Y-109999500D01*
X105260429Y-109999500D01*
X105013442Y-110032016D01*
X104772789Y-110096499D01*
X104542622Y-110191838D01*
X104326874Y-110316400D01*
X104129222Y-110468063D01*
X103953063Y-110644222D01*
X103801400Y-110841874D01*
X103676838Y-111057622D01*
X103581499Y-111287789D01*
X103517016Y-111528442D01*
X103484500Y-111775429D01*
X103484500Y-112024570D01*
X103517016Y-112271557D01*
X103517017Y-112271563D01*
X103517018Y-112271565D01*
X103549805Y-112393929D01*
X103581499Y-112512210D01*
X103585310Y-112521411D01*
X103676836Y-112742373D01*
X103801401Y-112958127D01*
X103953062Y-113155776D01*
X104129224Y-113331938D01*
X104326873Y-113483599D01*
X104542627Y-113608164D01*
X104772793Y-113703502D01*
X105013435Y-113767982D01*
X105013441Y-113767982D01*
X105013442Y-113767983D01*
X105080586Y-113776822D01*
X105260435Y-113800500D01*
X105509565Y-113800500D01*
X105682010Y-113777797D01*
X105755731Y-113768092D01*
X105832199Y-113778159D01*
X105880538Y-113810458D01*
X106715859Y-114645779D01*
X106754423Y-114712574D01*
X106759500Y-114751138D01*
X106759500Y-123088217D01*
X106739538Y-123162717D01*
X106685000Y-123217255D01*
X106610500Y-123237217D01*
X106536000Y-123217255D01*
X106491220Y-123177511D01*
X106466844Y-123144949D01*
X106427546Y-123092454D01*
X106427544Y-123092453D01*
X106427544Y-123092452D01*
X106312333Y-123006204D01*
X106312329Y-123006202D01*
X106177482Y-122955908D01*
X106117885Y-122949500D01*
X106117873Y-122949500D01*
X106036097Y-122949500D01*
X105961597Y-122929538D01*
X105907059Y-122875000D01*
X105896516Y-122850678D01*
X105896381Y-122850734D01*
X105840775Y-122716490D01*
X105840772Y-122716484D01*
X105764116Y-122601761D01*
X105764114Y-122601758D01*
X105666542Y-122504186D01*
X105644692Y-122489586D01*
X105622113Y-122471056D01*
X102341948Y-119190891D01*
X102303384Y-119124096D01*
X102303384Y-119046968D01*
X102341948Y-118980173D01*
X102343012Y-118979109D01*
X102448539Y-118873582D01*
X102558032Y-118709714D01*
X102633451Y-118527635D01*
X102671900Y-118334341D01*
X102671900Y-99089737D01*
X102691862Y-99015237D01*
X102715537Y-98984382D01*
X104889462Y-96810456D01*
X104956255Y-96771894D01*
X105014267Y-96768092D01*
X105183900Y-96790424D01*
X105260435Y-96800500D01*
X105509565Y-96800500D01*
X105756565Y-96767982D01*
X105997207Y-96703502D01*
X106227373Y-96608164D01*
X106443127Y-96483599D01*
X106640776Y-96331938D01*
X106816938Y-96155776D01*
X106968599Y-95958127D01*
X107093164Y-95742373D01*
X107188502Y-95512207D01*
X107252982Y-95271565D01*
X107285500Y-95024565D01*
X107285500Y-94775435D01*
X107252982Y-94528435D01*
X107188502Y-94287793D01*
X107093164Y-94057627D01*
X106968599Y-93841873D01*
X106816938Y-93644224D01*
X106640776Y-93468062D01*
X106443127Y-93316401D01*
X106371209Y-93274879D01*
X106227377Y-93191838D01*
X106227375Y-93191837D01*
X106227373Y-93191836D01*
X106092548Y-93135989D01*
X105997210Y-93096499D01*
X105997208Y-93096498D01*
X105997207Y-93096498D01*
X105756565Y-93032018D01*
X105756563Y-93032017D01*
X105756557Y-93032016D01*
X105509570Y-92999500D01*
X105509565Y-92999500D01*
X105260435Y-92999500D01*
X105260429Y-92999500D01*
X105013442Y-93032016D01*
X104772789Y-93096499D01*
X104542622Y-93191838D01*
X104326874Y-93316400D01*
X104129222Y-93468063D01*
X103953063Y-93644222D01*
X103801400Y-93841874D01*
X103676838Y-94057622D01*
X103581499Y-94287789D01*
X103517016Y-94528442D01*
X103484500Y-94775429D01*
X103484500Y-95024570D01*
X103516907Y-95270730D01*
X103506840Y-95347198D01*
X103474541Y-95395537D01*
X101033620Y-97836459D01*
X100894264Y-97975814D01*
X100894260Y-97975819D01*
X100784768Y-98139684D01*
X100784767Y-98139687D01*
X100709349Y-98321763D01*
X100709348Y-98321765D01*
X100670900Y-98515060D01*
X100670900Y-117160125D01*
X100650938Y-117234625D01*
X100596400Y-117289163D01*
X100521900Y-117309125D01*
X100447400Y-117289163D01*
X100416541Y-117265484D01*
X95094141Y-111943084D01*
X95055577Y-111876289D01*
X95050500Y-111837725D01*
X95050500Y-77775429D01*
X103484500Y-77775429D01*
X103484500Y-78024570D01*
X103517016Y-78271557D01*
X103517017Y-78271563D01*
X103517018Y-78271565D01*
X103581498Y-78512207D01*
X103676836Y-78742373D01*
X103801401Y-78958127D01*
X103953062Y-79155776D01*
X104129224Y-79331938D01*
X104326873Y-79483599D01*
X104542627Y-79608164D01*
X104772793Y-79703502D01*
X105013435Y-79767982D01*
X105013441Y-79767982D01*
X105013442Y-79767983D01*
X105080586Y-79776822D01*
X105260435Y-79800500D01*
X105509565Y-79800500D01*
X105756565Y-79767982D01*
X105997207Y-79703502D01*
X106227373Y-79608164D01*
X106443127Y-79483599D01*
X106640776Y-79331938D01*
X106816938Y-79155776D01*
X106968599Y-78958127D01*
X107093164Y-78742373D01*
X107188502Y-78512207D01*
X107252982Y-78271565D01*
X107285500Y-78024565D01*
X107285500Y-77775435D01*
X107252982Y-77528435D01*
X107188502Y-77287793D01*
X107093164Y-77057627D01*
X106968599Y-76841873D01*
X106816938Y-76644224D01*
X106640776Y-76468062D01*
X106443127Y-76316401D01*
X106235448Y-76196498D01*
X106227377Y-76191838D01*
X106227375Y-76191837D01*
X106227373Y-76191836D01*
X106082955Y-76132016D01*
X105997210Y-76096499D01*
X105997208Y-76096498D01*
X105997207Y-76096498D01*
X105756565Y-76032018D01*
X105756563Y-76032017D01*
X105756557Y-76032016D01*
X105509570Y-75999500D01*
X105509565Y-75999500D01*
X105260435Y-75999500D01*
X105260429Y-75999500D01*
X105013442Y-76032016D01*
X104772789Y-76096499D01*
X104542622Y-76191838D01*
X104326874Y-76316400D01*
X104129222Y-76468063D01*
X103953063Y-76644222D01*
X103801400Y-76841874D01*
X103676838Y-77057622D01*
X103581499Y-77287789D01*
X103517016Y-77528442D01*
X103484500Y-77775429D01*
X95050500Y-77775429D01*
X95050500Y-60775429D01*
X103484500Y-60775429D01*
X103484500Y-61024570D01*
X103517016Y-61271557D01*
X103517017Y-61271563D01*
X103517018Y-61271565D01*
X103581498Y-61512207D01*
X103676836Y-61742373D01*
X103801401Y-61958127D01*
X103953062Y-62155776D01*
X104129224Y-62331938D01*
X104326873Y-62483599D01*
X104542627Y-62608164D01*
X104772793Y-62703502D01*
X105013435Y-62767982D01*
X105013441Y-62767982D01*
X105013442Y-62767983D01*
X105080586Y-62776822D01*
X105260435Y-62800500D01*
X105509565Y-62800500D01*
X105756565Y-62767982D01*
X105997207Y-62703502D01*
X106227373Y-62608164D01*
X106443127Y-62483599D01*
X106640776Y-62331938D01*
X106816938Y-62155776D01*
X106968599Y-61958127D01*
X107093164Y-61742373D01*
X107188502Y-61512207D01*
X107252982Y-61271565D01*
X107285500Y-61024565D01*
X107285500Y-60775435D01*
X107252982Y-60528435D01*
X107188502Y-60287793D01*
X107093164Y-60057627D01*
X106968599Y-59841873D01*
X106816938Y-59644224D01*
X106640776Y-59468062D01*
X106443127Y-59316401D01*
X106355700Y-59265925D01*
X106227377Y-59191838D01*
X106227375Y-59191837D01*
X106227373Y-59191836D01*
X105998354Y-59096973D01*
X105997210Y-59096499D01*
X105997208Y-59096498D01*
X105997207Y-59096498D01*
X105756565Y-59032018D01*
X105756563Y-59032017D01*
X105756557Y-59032016D01*
X105509570Y-58999500D01*
X105509565Y-58999500D01*
X105260435Y-58999500D01*
X105260429Y-58999500D01*
X105013442Y-59032016D01*
X104772789Y-59096499D01*
X104542622Y-59191838D01*
X104326874Y-59316400D01*
X104129222Y-59468063D01*
X103953063Y-59644222D01*
X103801400Y-59841874D01*
X103676838Y-60057622D01*
X103581499Y-60287789D01*
X103517016Y-60528442D01*
X103484500Y-60775429D01*
X95050500Y-60775429D01*
X95050500Y-43775429D01*
X103484500Y-43775429D01*
X103484500Y-44024570D01*
X103517016Y-44271557D01*
X103517017Y-44271563D01*
X103517018Y-44271565D01*
X103581498Y-44512207D01*
X103676836Y-44742373D01*
X103801401Y-44958127D01*
X103953062Y-45155776D01*
X104129224Y-45331938D01*
X104326873Y-45483599D01*
X104542627Y-45608164D01*
X104772793Y-45703502D01*
X105013435Y-45767982D01*
X105013441Y-45767982D01*
X105013442Y-45767983D01*
X105080586Y-45776822D01*
X105260435Y-45800500D01*
X105509565Y-45800500D01*
X105756565Y-45767982D01*
X105997207Y-45703502D01*
X106227373Y-45608164D01*
X106443127Y-45483599D01*
X106640776Y-45331938D01*
X106816938Y-45155776D01*
X106968599Y-44958127D01*
X107093164Y-44742373D01*
X107188502Y-44512207D01*
X107252982Y-44271565D01*
X107285500Y-44024565D01*
X107285500Y-43775435D01*
X107252982Y-43528435D01*
X107188502Y-43287793D01*
X107093164Y-43057627D01*
X106968599Y-42841873D01*
X106816938Y-42644224D01*
X106640776Y-42468062D01*
X106443127Y-42316401D01*
X106371209Y-42274879D01*
X106227377Y-42191838D01*
X106227375Y-42191837D01*
X106227373Y-42191836D01*
X106092548Y-42135989D01*
X105997210Y-42096499D01*
X105997208Y-42096498D01*
X105997207Y-42096498D01*
X105756565Y-42032018D01*
X105756563Y-42032017D01*
X105756557Y-42032016D01*
X105509570Y-41999500D01*
X105509565Y-41999500D01*
X105260435Y-41999500D01*
X105260429Y-41999500D01*
X105013442Y-42032016D01*
X104772789Y-42096499D01*
X104542622Y-42191838D01*
X104326874Y-42316400D01*
X104129222Y-42468063D01*
X103953063Y-42644222D01*
X103801400Y-42841874D01*
X103676838Y-43057622D01*
X103581499Y-43287789D01*
X103517016Y-43528442D01*
X103484500Y-43775429D01*
X95050500Y-43775429D01*
X95050500Y-38709857D01*
X112289000Y-38709857D01*
X112289000Y-38867542D01*
X112319762Y-39022194D01*
X112319763Y-39022198D01*
X112380104Y-39167876D01*
X112380105Y-39167878D01*
X112380106Y-39167879D01*
X112467711Y-39298989D01*
X112579211Y-39410489D01*
X112710321Y-39498094D01*
X112856003Y-39558437D01*
X113010658Y-39589200D01*
X113168342Y-39589200D01*
X113322997Y-39558437D01*
X113468679Y-39498094D01*
X113599789Y-39410489D01*
X113711289Y-39298989D01*
X113798894Y-39167879D01*
X113828042Y-39097509D01*
X113874994Y-39036319D01*
X113946251Y-39006803D01*
X114022719Y-39016870D01*
X114083909Y-39063822D01*
X114113425Y-39135079D01*
X114114700Y-39154528D01*
X114114700Y-129672497D01*
X114141619Y-129807827D01*
X114141620Y-129807829D01*
X114194420Y-129935302D01*
X114194423Y-129935308D01*
X114194425Y-129935311D01*
X114271086Y-130050043D01*
X114271089Y-130050046D01*
X115280150Y-131059107D01*
X115318714Y-131125902D01*
X115318714Y-131203030D01*
X115280150Y-131269825D01*
X115264090Y-131283742D01*
X115252455Y-131292452D01*
X115252452Y-131292455D01*
X115166204Y-131407666D01*
X115166202Y-131407670D01*
X115115908Y-131542517D01*
X115109500Y-131602114D01*
X115109500Y-133397863D01*
X115109502Y-133397888D01*
X115115908Y-133457478D01*
X115115909Y-133457484D01*
X115166202Y-133592329D01*
X115166204Y-133592333D01*
X115252452Y-133707544D01*
X115252455Y-133707547D01*
X115367666Y-133793795D01*
X115367670Y-133793797D01*
X115502517Y-133844091D01*
X115562114Y-133850499D01*
X115562118Y-133850499D01*
X115562127Y-133850500D01*
X117357872Y-133850499D01*
X117417483Y-133844091D01*
X117513447Y-133808298D01*
X117552329Y-133793797D01*
X117552333Y-133793795D01*
X117609938Y-133750671D01*
X117667546Y-133707546D01*
X117722737Y-133633821D01*
X117753795Y-133592333D01*
X117753798Y-133592327D01*
X117789215Y-133497367D01*
X117833953Y-133434540D01*
X117904110Y-133402498D01*
X117980889Y-133409829D01*
X118034180Y-133444076D01*
X118120208Y-133530104D01*
X118292184Y-133655051D01*
X118481588Y-133751557D01*
X118683757Y-133817246D01*
X118893713Y-133850500D01*
X118893718Y-133850500D01*
X119106282Y-133850500D01*
X119106287Y-133850500D01*
X119316243Y-133817246D01*
X119518412Y-133751557D01*
X119707816Y-133655051D01*
X119879792Y-133530104D01*
X120030104Y-133379792D01*
X120149456Y-133215517D01*
X120209396Y-133166979D01*
X120285574Y-133154913D01*
X120357580Y-133182553D01*
X120390544Y-133215517D01*
X120509896Y-133379792D01*
X120660208Y-133530104D01*
X120832184Y-133655051D01*
X121021588Y-133751557D01*
X121223757Y-133817246D01*
X121433713Y-133850500D01*
X121433718Y-133850500D01*
X121646282Y-133850500D01*
X121646287Y-133850500D01*
X121856243Y-133817246D01*
X122058412Y-133751557D01*
X122247816Y-133655051D01*
X122419792Y-133530104D01*
X122570104Y-133379792D01*
X122695051Y-133207816D01*
X122791557Y-133018412D01*
X122857246Y-132816243D01*
X122890500Y-132606287D01*
X122890500Y-132393713D01*
X122857246Y-132183757D01*
X122791557Y-131981588D01*
X122695051Y-131792184D01*
X122570104Y-131620208D01*
X122419792Y-131469896D01*
X122247816Y-131344949D01*
X122058412Y-131248443D01*
X121856243Y-131182754D01*
X121646287Y-131149500D01*
X121433713Y-131149500D01*
X121258749Y-131177211D01*
X121223756Y-131182754D01*
X121021594Y-131248441D01*
X121021588Y-131248443D01*
X121021582Y-131248445D01*
X121021582Y-131248446D01*
X120832182Y-131344950D01*
X120832181Y-131344950D01*
X120660209Y-131469895D01*
X120660206Y-131469897D01*
X120509897Y-131620206D01*
X120509895Y-131620209D01*
X120390544Y-131784482D01*
X120330604Y-131833020D01*
X120254425Y-131845086D01*
X120182420Y-131817446D01*
X120149456Y-131784482D01*
X120072600Y-131678699D01*
X120030104Y-131620208D01*
X119879792Y-131469896D01*
X119707816Y-131344949D01*
X119518412Y-131248443D01*
X119316243Y-131182754D01*
X119106287Y-131149500D01*
X118893713Y-131149500D01*
X118718749Y-131177211D01*
X118683756Y-131182754D01*
X118481594Y-131248441D01*
X118481588Y-131248443D01*
X118481582Y-131248445D01*
X118481582Y-131248446D01*
X118292182Y-131344950D01*
X118292181Y-131344950D01*
X118120209Y-131469895D01*
X118120198Y-131469904D01*
X118034179Y-131555923D01*
X117967384Y-131594487D01*
X117890256Y-131594487D01*
X117823462Y-131555922D01*
X117789215Y-131502633D01*
X117777008Y-131469904D01*
X117753796Y-131407669D01*
X117753795Y-131407668D01*
X117753795Y-131407666D01*
X117667547Y-131292455D01*
X117667544Y-131292452D01*
X117552333Y-131206204D01*
X117552329Y-131206202D01*
X117417482Y-131155908D01*
X117357885Y-131149500D01*
X117357873Y-131149500D01*
X117276097Y-131149500D01*
X117201597Y-131129538D01*
X117147059Y-131075000D01*
X117136516Y-131050678D01*
X117136381Y-131050734D01*
X117107728Y-130981560D01*
X117080775Y-130916489D01*
X117048704Y-130868492D01*
X117004116Y-130801761D01*
X117004114Y-130801758D01*
X116906542Y-130704186D01*
X115559341Y-129356984D01*
X115520777Y-129290189D01*
X115515700Y-129251625D01*
X115515700Y-121999499D01*
X115535662Y-121924999D01*
X115590200Y-121870461D01*
X115664696Y-121850499D01*
X117357872Y-121850499D01*
X117417483Y-121844091D01*
X117513447Y-121808298D01*
X117552329Y-121793797D01*
X117552333Y-121793795D01*
X117609938Y-121750671D01*
X117667546Y-121707546D01*
X117677192Y-121694660D01*
X118371024Y-121694660D01*
X118481782Y-121751094D01*
X118481787Y-121751096D01*
X118683871Y-121816757D01*
X118893758Y-121850000D01*
X119106242Y-121850000D01*
X119316128Y-121816757D01*
X119518212Y-121751096D01*
X119518222Y-121751092D01*
X119628974Y-121694660D01*
X119628975Y-121694660D01*
X119000000Y-121065685D01*
X118371024Y-121694660D01*
X117677192Y-121694660D01*
X117753796Y-121592331D01*
X117753799Y-121592324D01*
X117754324Y-121590917D01*
X117754325Y-121590915D01*
X117804091Y-121457482D01*
X117810499Y-121397885D01*
X117810499Y-121397882D01*
X117810500Y-121397873D01*
X117810499Y-121185529D01*
X117830461Y-121111033D01*
X117854140Y-121080173D01*
X118434314Y-120499999D01*
X118368489Y-120434174D01*
X118500000Y-120434174D01*
X118500000Y-120565826D01*
X118534075Y-120692993D01*
X118599901Y-120807007D01*
X118692993Y-120900099D01*
X118807007Y-120965925D01*
X118934174Y-121000000D01*
X119065826Y-121000000D01*
X119192993Y-120965925D01*
X119307007Y-120900099D01*
X119400099Y-120807007D01*
X119465925Y-120692993D01*
X119500000Y-120565826D01*
X119500000Y-120434174D01*
X119465925Y-120307007D01*
X119400099Y-120192993D01*
X119307007Y-120099901D01*
X119192993Y-120034075D01*
X119065826Y-120000000D01*
X118934174Y-120000000D01*
X118807007Y-120034075D01*
X118692993Y-120099901D01*
X118599901Y-120192993D01*
X118534075Y-120307007D01*
X118500000Y-120434174D01*
X118368489Y-120434174D01*
X117854140Y-119919825D01*
X117815576Y-119853030D01*
X117810499Y-119814466D01*
X117810499Y-119602136D01*
X117810499Y-119602128D01*
X117804091Y-119542517D01*
X117777002Y-119469888D01*
X117753797Y-119407670D01*
X117753795Y-119407666D01*
X117667547Y-119292455D01*
X117667544Y-119292452D01*
X117552333Y-119206204D01*
X117552329Y-119206202D01*
X117457366Y-119170784D01*
X117394539Y-119126046D01*
X117362498Y-119055888D01*
X117369829Y-118979109D01*
X117404077Y-118925819D01*
X117490096Y-118839800D01*
X117490104Y-118839792D01*
X117609456Y-118675517D01*
X117669396Y-118626979D01*
X117745574Y-118614913D01*
X117817580Y-118642553D01*
X117850544Y-118675517D01*
X117969896Y-118839792D01*
X118120208Y-118990104D01*
X118292184Y-119115051D01*
X118296569Y-119117285D01*
X118353886Y-119168894D01*
X118377720Y-119242248D01*
X118376090Y-119273353D01*
X118371024Y-119305338D01*
X118999999Y-119934314D01*
X119628974Y-119305339D01*
X119623909Y-119273355D01*
X119631970Y-119196649D01*
X119677305Y-119134251D01*
X119703435Y-119117283D01*
X119707816Y-119115051D01*
X119879792Y-118990104D01*
X120030104Y-118839792D01*
X120149456Y-118675517D01*
X120209396Y-118626979D01*
X120285574Y-118614913D01*
X120357580Y-118642553D01*
X120390544Y-118675517D01*
X120415389Y-118709714D01*
X120509895Y-118839790D01*
X120509897Y-118839793D01*
X120660206Y-118990102D01*
X120660214Y-118990109D01*
X120691638Y-119012939D01*
X120778080Y-119075742D01*
X120826618Y-119135680D01*
X120839500Y-119196285D01*
X120839500Y-119263713D01*
X120819538Y-119338213D01*
X120778080Y-119384256D01*
X120660217Y-119469888D01*
X120660206Y-119469897D01*
X120509897Y-119620206D01*
X120509895Y-119620209D01*
X120384950Y-119792181D01*
X120384950Y-119792182D01*
X120382715Y-119796569D01*
X120331106Y-119853886D01*
X120257752Y-119877720D01*
X120226647Y-119876090D01*
X120194660Y-119871023D01*
X119565685Y-120499999D01*
X119565685Y-120500000D01*
X120194659Y-121128974D01*
X120226644Y-121123909D01*
X120303350Y-121131970D01*
X120365748Y-121177305D01*
X120382712Y-121203426D01*
X120384949Y-121207816D01*
X120509896Y-121379792D01*
X120660208Y-121530104D01*
X120832184Y-121655051D01*
X121021588Y-121751557D01*
X121223757Y-121817246D01*
X121433713Y-121850500D01*
X121433718Y-121850500D01*
X121646282Y-121850500D01*
X121646287Y-121850500D01*
X121856243Y-121817246D01*
X122058412Y-121751557D01*
X122247816Y-121655051D01*
X122419792Y-121530104D01*
X122570104Y-121379792D01*
X122689456Y-121215517D01*
X122749396Y-121166979D01*
X122825574Y-121154913D01*
X122897580Y-121182553D01*
X122930544Y-121215517D01*
X123049896Y-121379792D01*
X123200208Y-121530104D01*
X123372184Y-121655051D01*
X123561588Y-121751557D01*
X123763757Y-121817246D01*
X123973713Y-121850500D01*
X123973718Y-121850500D01*
X124186282Y-121850500D01*
X124186287Y-121850500D01*
X124396243Y-121817246D01*
X124598412Y-121751557D01*
X124787816Y-121655051D01*
X124959792Y-121530104D01*
X125110104Y-121379792D01*
X125235051Y-121207816D01*
X125331557Y-121018412D01*
X125397246Y-120816243D01*
X125430500Y-120606287D01*
X125430500Y-120393713D01*
X125397246Y-120183757D01*
X125331557Y-119981588D01*
X125235051Y-119792184D01*
X125110104Y-119620208D01*
X124959792Y-119469896D01*
X124959790Y-119469894D01*
X124959782Y-119469888D01*
X124841920Y-119384256D01*
X124793382Y-119324317D01*
X124780500Y-119263713D01*
X124780500Y-119196285D01*
X124800462Y-119121785D01*
X124841919Y-119075743D01*
X124959792Y-118990104D01*
X125110104Y-118839792D01*
X125235051Y-118667816D01*
X125331557Y-118478412D01*
X125397246Y-118276243D01*
X125430500Y-118066287D01*
X125430500Y-117853713D01*
X125397246Y-117643757D01*
X125331557Y-117441588D01*
X125235051Y-117252184D01*
X125110104Y-117080208D01*
X124959792Y-116929896D01*
X124787816Y-116804949D01*
X124598412Y-116708443D01*
X124396243Y-116642754D01*
X124186287Y-116609500D01*
X123973713Y-116609500D01*
X123877757Y-116624698D01*
X123829809Y-116632292D01*
X123753103Y-116624229D01*
X123701142Y-116590485D01*
X121067041Y-113956384D01*
X121028477Y-113889589D01*
X121023400Y-113851025D01*
X121023400Y-108844484D01*
X121043362Y-108769984D01*
X121097900Y-108715446D01*
X121172400Y-108695484D01*
X121246900Y-108715446D01*
X121277759Y-108739125D01*
X121281345Y-108742711D01*
X121430666Y-108834814D01*
X121597203Y-108889999D01*
X121699992Y-108900500D01*
X122243810Y-108900500D01*
X122282373Y-108905576D01*
X122508884Y-108966270D01*
X122768877Y-109000499D01*
X122768878Y-109000500D01*
X122768880Y-109000500D01*
X123031122Y-109000500D01*
X123031122Y-109000499D01*
X123291116Y-108966270D01*
X123517626Y-108905576D01*
X123556190Y-108900500D01*
X124100004Y-108900500D01*
X124100008Y-108900500D01*
X124202797Y-108889999D01*
X124369334Y-108834814D01*
X124518655Y-108742711D01*
X124642711Y-108618655D01*
X124734814Y-108469334D01*
X124789999Y-108302797D01*
X124800500Y-108200008D01*
X124800500Y-107656190D01*
X124805577Y-107617626D01*
X124866270Y-107391116D01*
X124900500Y-107131120D01*
X124900500Y-101868880D01*
X124900500Y-94868880D01*
X124900500Y-89868880D01*
X124866270Y-89608884D01*
X124798398Y-89355581D01*
X124698043Y-89113303D01*
X124566924Y-88886197D01*
X124566921Y-88886193D01*
X124566921Y-88886192D01*
X124407284Y-88678151D01*
X124221848Y-88492715D01*
X124013806Y-88333078D01*
X123786701Y-88201959D01*
X123786699Y-88201958D01*
X123786697Y-88201957D01*
X123711154Y-88170666D01*
X123544416Y-88101600D01*
X123318255Y-88041002D01*
X123291116Y-88033730D01*
X123291114Y-88033729D01*
X123291108Y-88033728D01*
X123031123Y-87999500D01*
X123031120Y-87999500D01*
X122768880Y-87999500D01*
X122768876Y-87999500D01*
X122508892Y-88033728D01*
X122508889Y-88033728D01*
X122255584Y-88101600D01*
X122255583Y-88101600D01*
X122013298Y-88201959D01*
X121786193Y-88333078D01*
X121786192Y-88333078D01*
X121578151Y-88492715D01*
X121578151Y-88492716D01*
X121392715Y-88678152D01*
X121290609Y-88811218D01*
X121229419Y-88858170D01*
X121152951Y-88868237D01*
X121081694Y-88838721D01*
X121034742Y-88777531D01*
X121023400Y-88720512D01*
X121023400Y-84844484D01*
X121043362Y-84769984D01*
X121097900Y-84715446D01*
X121172400Y-84695484D01*
X121246900Y-84715446D01*
X121277759Y-84739125D01*
X121281345Y-84742711D01*
X121430666Y-84834814D01*
X121597203Y-84889999D01*
X121699992Y-84900500D01*
X121699996Y-84900500D01*
X124100004Y-84900500D01*
X124100008Y-84900500D01*
X124202797Y-84889999D01*
X124369334Y-84834814D01*
X124518655Y-84742711D01*
X124642711Y-84618655D01*
X124734814Y-84469334D01*
X124789999Y-84302797D01*
X124800500Y-84200008D01*
X124800500Y-81799992D01*
X124789999Y-81697203D01*
X124734814Y-81530666D01*
X124642711Y-81381345D01*
X124518655Y-81257289D01*
X124369337Y-81165187D01*
X124252631Y-81126514D01*
X124188192Y-81084130D01*
X124153578Y-81015206D01*
X124150500Y-80985077D01*
X124150500Y-79498932D01*
X124170462Y-79424432D01*
X124194141Y-79393573D01*
X124255778Y-79331936D01*
X124331938Y-79255776D01*
X124483599Y-79058127D01*
X124608164Y-78842373D01*
X124703502Y-78612207D01*
X124767982Y-78371565D01*
X124800500Y-78124565D01*
X124800500Y-77875435D01*
X124767982Y-77628435D01*
X124703502Y-77387793D01*
X124608164Y-77157627D01*
X124483599Y-76941873D01*
X124331938Y-76744224D01*
X124155776Y-76568062D01*
X123958127Y-76416401D01*
X123784921Y-76316401D01*
X123742377Y-76291838D01*
X123742375Y-76291837D01*
X123742373Y-76291836D01*
X123607548Y-76235989D01*
X123512210Y-76196499D01*
X123512208Y-76196498D01*
X123512207Y-76196498D01*
X123271565Y-76132018D01*
X123271563Y-76132017D01*
X123271557Y-76132016D01*
X123024570Y-76099500D01*
X123024565Y-76099500D01*
X122775435Y-76099500D01*
X122775429Y-76099500D01*
X122528442Y-76132016D01*
X122287789Y-76196499D01*
X122057622Y-76291838D01*
X121841874Y-76416400D01*
X121644222Y-76568063D01*
X121468063Y-76744222D01*
X121316400Y-76941874D01*
X121301438Y-76967790D01*
X121246900Y-77022328D01*
X121172400Y-77042290D01*
X121097900Y-77022328D01*
X121043362Y-76967790D01*
X121023400Y-76893290D01*
X121023400Y-72844484D01*
X121043362Y-72769984D01*
X121097900Y-72715446D01*
X121172400Y-72695484D01*
X121246900Y-72715446D01*
X121277759Y-72739125D01*
X121281345Y-72742711D01*
X121430666Y-72834814D01*
X121597203Y-72889999D01*
X121699992Y-72900500D01*
X121699996Y-72900500D01*
X124100004Y-72900500D01*
X124100008Y-72900500D01*
X124202797Y-72889999D01*
X124369334Y-72834814D01*
X124518655Y-72742711D01*
X124642711Y-72618655D01*
X124734814Y-72469334D01*
X124789999Y-72302797D01*
X124800500Y-72200008D01*
X124800500Y-69799992D01*
X124789999Y-69697203D01*
X124734814Y-69530666D01*
X124642711Y-69381345D01*
X124518655Y-69257289D01*
X124471275Y-69228064D01*
X124418349Y-69171964D01*
X124400500Y-69101250D01*
X124400500Y-67217002D01*
X124420462Y-67142502D01*
X124431290Y-67126297D01*
X124483599Y-67058127D01*
X124608164Y-66842373D01*
X124703502Y-66612207D01*
X124767982Y-66371565D01*
X124800500Y-66124565D01*
X124800500Y-65875435D01*
X124767982Y-65628435D01*
X124703502Y-65387793D01*
X124608164Y-65157627D01*
X124483599Y-64941873D01*
X124331938Y-64744224D01*
X124155776Y-64568062D01*
X123958127Y-64416401D01*
X123886209Y-64374879D01*
X123742377Y-64291838D01*
X123742375Y-64291837D01*
X123742373Y-64291836D01*
X123607548Y-64235989D01*
X123512210Y-64196499D01*
X123512208Y-64196498D01*
X123512207Y-64196498D01*
X123271565Y-64132018D01*
X123271563Y-64132017D01*
X123271557Y-64132016D01*
X123024570Y-64099500D01*
X123024565Y-64099500D01*
X122775435Y-64099500D01*
X122775429Y-64099500D01*
X122528442Y-64132016D01*
X122287789Y-64196499D01*
X122057622Y-64291838D01*
X121841874Y-64416400D01*
X121644222Y-64568063D01*
X121468063Y-64744222D01*
X121316400Y-64941874D01*
X121301438Y-64967790D01*
X121246900Y-65022328D01*
X121172400Y-65042290D01*
X121097900Y-65022328D01*
X121043362Y-64967790D01*
X121023400Y-64893290D01*
X121023400Y-60843777D01*
X121043362Y-60769277D01*
X121097900Y-60714739D01*
X121172400Y-60694777D01*
X121246900Y-60714739D01*
X121277759Y-60738418D01*
X121281660Y-60742319D01*
X121430879Y-60834357D01*
X121597303Y-60889505D01*
X121597312Y-60889507D01*
X121700011Y-60899999D01*
X121700022Y-60900000D01*
X122500000Y-60900000D01*
X122500000Y-59514476D01*
X122592110Y-59576022D01*
X122710402Y-59625021D01*
X122835981Y-59650000D01*
X122964019Y-59650000D01*
X123089598Y-59625021D01*
X123207890Y-59576022D01*
X123300000Y-59514476D01*
X123300000Y-60900000D01*
X124099978Y-60900000D01*
X124099988Y-60899999D01*
X124202687Y-60889507D01*
X124202696Y-60889505D01*
X124369120Y-60834357D01*
X124518339Y-60742319D01*
X124642319Y-60618339D01*
X124734357Y-60469120D01*
X124789505Y-60302696D01*
X124789507Y-60302687D01*
X124799999Y-60199988D01*
X124800000Y-60199978D01*
X124800000Y-59400000D01*
X123414477Y-59400000D01*
X123476022Y-59307890D01*
X123525021Y-59189598D01*
X123550000Y-59064019D01*
X123550000Y-58935981D01*
X123525021Y-58810402D01*
X123476022Y-58692110D01*
X123414477Y-58600000D01*
X124800000Y-58600000D01*
X124800000Y-57800021D01*
X124799999Y-57800011D01*
X124789507Y-57697312D01*
X124789505Y-57697303D01*
X124734357Y-57530879D01*
X124642319Y-57381660D01*
X124518339Y-57257680D01*
X124369120Y-57165642D01*
X124202696Y-57110494D01*
X124202687Y-57110492D01*
X124099988Y-57100000D01*
X123300000Y-57100000D01*
X123300000Y-58485523D01*
X123207890Y-58423978D01*
X123089598Y-58374979D01*
X122964019Y-58350000D01*
X122835981Y-58350000D01*
X122710402Y-58374979D01*
X122592110Y-58423978D01*
X122500000Y-58485523D01*
X122500000Y-57100000D01*
X121700011Y-57100000D01*
X121597312Y-57110492D01*
X121597303Y-57110494D01*
X121430879Y-57165642D01*
X121281660Y-57257680D01*
X121277759Y-57261582D01*
X121210964Y-57300146D01*
X121133836Y-57300146D01*
X121067041Y-57261582D01*
X121028477Y-57194787D01*
X121023400Y-57156223D01*
X121023400Y-55105709D01*
X121043362Y-55031209D01*
X121097900Y-54976671D01*
X121172400Y-54956709D01*
X121246900Y-54976671D01*
X121301438Y-55031209D01*
X121302048Y-55032265D01*
X122253367Y-54080946D01*
X122274979Y-54189598D01*
X122323978Y-54307890D01*
X122395112Y-54414351D01*
X122485649Y-54504888D01*
X122592110Y-54576022D01*
X122710402Y-54625021D01*
X122819052Y-54646632D01*
X121867733Y-55597950D01*
X122057849Y-55707714D01*
X122287951Y-55803026D01*
X122528540Y-55867492D01*
X122775461Y-55899999D01*
X122775467Y-55900000D01*
X123024533Y-55900000D01*
X123024538Y-55899999D01*
X123271459Y-55867492D01*
X123512048Y-55803026D01*
X123742150Y-55707714D01*
X123932265Y-55597950D01*
X122980947Y-54646632D01*
X123089598Y-54625021D01*
X123207890Y-54576022D01*
X123314351Y-54504888D01*
X123404888Y-54414351D01*
X123476022Y-54307890D01*
X123525021Y-54189598D01*
X123546632Y-54080947D01*
X124497950Y-55032265D01*
X124607714Y-54842150D01*
X124703026Y-54612048D01*
X124767492Y-54371459D01*
X124799999Y-54124538D01*
X124800000Y-54124533D01*
X124800000Y-53875467D01*
X124799999Y-53875461D01*
X124767492Y-53628540D01*
X124703026Y-53387951D01*
X124607714Y-53157849D01*
X124497950Y-52967733D01*
X123546632Y-53919051D01*
X123525021Y-53810402D01*
X123476022Y-53692110D01*
X123404888Y-53585649D01*
X123314351Y-53495112D01*
X123207890Y-53423978D01*
X123089598Y-53374979D01*
X122980946Y-53353366D01*
X123932265Y-52402048D01*
X123742156Y-52292287D01*
X123512048Y-52196973D01*
X123271459Y-52132507D01*
X123024538Y-52100000D01*
X122775461Y-52100000D01*
X122528540Y-52132507D01*
X122287951Y-52196973D01*
X122057843Y-52292287D01*
X121867733Y-52402048D01*
X122819052Y-53353367D01*
X122710402Y-53374979D01*
X122592110Y-53423978D01*
X122485649Y-53495112D01*
X122395112Y-53585649D01*
X122323978Y-53692110D01*
X122274979Y-53810402D01*
X122253367Y-53919052D01*
X121302048Y-52967733D01*
X121302047Y-52967733D01*
X121301437Y-52968791D01*
X121246899Y-53023328D01*
X121172399Y-53043290D01*
X121097899Y-53023327D01*
X121043362Y-52968789D01*
X121023400Y-52894290D01*
X121023400Y-48843777D01*
X121043362Y-48769277D01*
X121097900Y-48714739D01*
X121172400Y-48694777D01*
X121246900Y-48714739D01*
X121277759Y-48738418D01*
X121281660Y-48742319D01*
X121430879Y-48834357D01*
X121597303Y-48889505D01*
X121597312Y-48889507D01*
X121700011Y-48899999D01*
X121700022Y-48900000D01*
X122500000Y-48900000D01*
X122500000Y-47514476D01*
X122592110Y-47576022D01*
X122710402Y-47625021D01*
X122835981Y-47650000D01*
X122964019Y-47650000D01*
X123089598Y-47625021D01*
X123207890Y-47576022D01*
X123300000Y-47514476D01*
X123300000Y-48900000D01*
X124099978Y-48900000D01*
X124099988Y-48899999D01*
X124202687Y-48889507D01*
X124202696Y-48889505D01*
X124369120Y-48834357D01*
X124518339Y-48742319D01*
X124642319Y-48618339D01*
X124734357Y-48469120D01*
X124789505Y-48302696D01*
X124789507Y-48302687D01*
X124799999Y-48199988D01*
X124800000Y-48199978D01*
X124800000Y-47400000D01*
X123414477Y-47400000D01*
X123476022Y-47307890D01*
X123525021Y-47189598D01*
X123550000Y-47064019D01*
X123550000Y-46935981D01*
X123525021Y-46810402D01*
X123476022Y-46692110D01*
X123414477Y-46600000D01*
X124800000Y-46600000D01*
X124800000Y-45800021D01*
X124799999Y-45800011D01*
X124789507Y-45697312D01*
X124789505Y-45697303D01*
X124734357Y-45530879D01*
X124642319Y-45381660D01*
X124518339Y-45257680D01*
X124369120Y-45165642D01*
X124202696Y-45110494D01*
X124202687Y-45110492D01*
X124099988Y-45100000D01*
X123300000Y-45100000D01*
X123300000Y-46485523D01*
X123207890Y-46423978D01*
X123089598Y-46374979D01*
X122964019Y-46350000D01*
X122835981Y-46350000D01*
X122710402Y-46374979D01*
X122592110Y-46423978D01*
X122500000Y-46485523D01*
X122500000Y-45100000D01*
X121700011Y-45100000D01*
X121597312Y-45110492D01*
X121597303Y-45110494D01*
X121430879Y-45165642D01*
X121281660Y-45257680D01*
X121277759Y-45261582D01*
X121210964Y-45300146D01*
X121133836Y-45300146D01*
X121067041Y-45261582D01*
X121028477Y-45194787D01*
X121023400Y-45156223D01*
X121023400Y-43105709D01*
X121043362Y-43031209D01*
X121097900Y-42976671D01*
X121172400Y-42956709D01*
X121246900Y-42976671D01*
X121301438Y-43031209D01*
X121302048Y-43032265D01*
X122253367Y-42080946D01*
X122274979Y-42189598D01*
X122323978Y-42307890D01*
X122395112Y-42414351D01*
X122485649Y-42504888D01*
X122592110Y-42576022D01*
X122710402Y-42625021D01*
X122819052Y-42646632D01*
X121867733Y-43597950D01*
X122057849Y-43707714D01*
X122287951Y-43803026D01*
X122528540Y-43867492D01*
X122775461Y-43899999D01*
X122775467Y-43900000D01*
X123024533Y-43900000D01*
X123024538Y-43899999D01*
X123271459Y-43867492D01*
X123512048Y-43803026D01*
X123742150Y-43707714D01*
X123932265Y-43597950D01*
X122980947Y-42646632D01*
X123089598Y-42625021D01*
X123207890Y-42576022D01*
X123314351Y-42504888D01*
X123404888Y-42414351D01*
X123476022Y-42307890D01*
X123525021Y-42189598D01*
X123546632Y-42080947D01*
X124497950Y-43032265D01*
X124607714Y-42842150D01*
X124703026Y-42612048D01*
X124767492Y-42371459D01*
X124799999Y-42124538D01*
X124800000Y-42124533D01*
X124800000Y-41875467D01*
X124799999Y-41875461D01*
X124767492Y-41628540D01*
X124703026Y-41387951D01*
X124607714Y-41157849D01*
X124497950Y-40967733D01*
X123546632Y-41919051D01*
X123525021Y-41810402D01*
X123476022Y-41692110D01*
X123404888Y-41585649D01*
X123314351Y-41495112D01*
X123207890Y-41423978D01*
X123089598Y-41374979D01*
X122980946Y-41353366D01*
X123932265Y-40402048D01*
X123742156Y-40292287D01*
X123512048Y-40196973D01*
X123271459Y-40132507D01*
X123024538Y-40100000D01*
X122775461Y-40100000D01*
X122528540Y-40132507D01*
X122287951Y-40196973D01*
X122057843Y-40292287D01*
X121867733Y-40402048D01*
X122819052Y-41353367D01*
X122710402Y-41374979D01*
X122592110Y-41423978D01*
X122485649Y-41495112D01*
X122395112Y-41585649D01*
X122323978Y-41692110D01*
X122274979Y-41810402D01*
X122253367Y-41919052D01*
X121302048Y-40967733D01*
X121192287Y-41157843D01*
X121096973Y-41387951D01*
X121032507Y-41628540D01*
X121000000Y-41875461D01*
X121000000Y-41961325D01*
X120980038Y-42035825D01*
X120925500Y-42090363D01*
X120851000Y-42110325D01*
X120776500Y-42090363D01*
X120745641Y-42066684D01*
X115569546Y-36890589D01*
X115569543Y-36890586D01*
X115454811Y-36813925D01*
X115454808Y-36813923D01*
X115454802Y-36813920D01*
X115327329Y-36761120D01*
X115327327Y-36761119D01*
X115191997Y-36734200D01*
X115191994Y-36734200D01*
X115191993Y-36734200D01*
X114374507Y-36734200D01*
X114266090Y-36755764D01*
X114266091Y-36755765D01*
X114239171Y-36761119D01*
X114111691Y-36813923D01*
X113996958Y-36890585D01*
X113996953Y-36890589D01*
X112898428Y-37989113D01*
X112850089Y-38021412D01*
X112710321Y-38079305D01*
X112579207Y-38166914D01*
X112467714Y-38278407D01*
X112380104Y-38409523D01*
X112319763Y-38555201D01*
X112319762Y-38555205D01*
X112289000Y-38709857D01*
X95050500Y-38709857D01*
X95050500Y-31478706D01*
X97949500Y-31478706D01*
X97949500Y-31721293D01*
X97981160Y-31961781D01*
X97981161Y-31961787D01*
X97981162Y-31961789D01*
X98043946Y-32196100D01*
X98136776Y-32420212D01*
X98258064Y-32630289D01*
X98405735Y-32822738D01*
X98577262Y-32994265D01*
X98769711Y-33141936D01*
X98979788Y-33263224D01*
X99203900Y-33356054D01*
X99438211Y-33418838D01*
X99438217Y-33418838D01*
X99438218Y-33418839D01*
X99503600Y-33427446D01*
X99678712Y-33450500D01*
X99921288Y-33450500D01*
X100161789Y-33418838D01*
X100396100Y-33356054D01*
X100620212Y-33263224D01*
X100830289Y-33141936D01*
X101022738Y-32994265D01*
X101194265Y-32822738D01*
X101341936Y-32630289D01*
X101463224Y-32420212D01*
X101556054Y-32196100D01*
X101618838Y-31961789D01*
X101650500Y-31721288D01*
X101650500Y-31478712D01*
X101618838Y-31238211D01*
X101556054Y-31003900D01*
X101463224Y-30779788D01*
X101341936Y-30569711D01*
X101194265Y-30377262D01*
X101022738Y-30205735D01*
X100830289Y-30058064D01*
X100759632Y-30017270D01*
X100620216Y-29936778D01*
X100620214Y-29936777D01*
X100620212Y-29936776D01*
X100477102Y-29877498D01*
X100396103Y-29843947D01*
X100396101Y-29843946D01*
X100396100Y-29843946D01*
X100161789Y-29781162D01*
X100161787Y-29781161D01*
X100161781Y-29781160D01*
X99921293Y-29749500D01*
X99921288Y-29749500D01*
X99678712Y-29749500D01*
X99678706Y-29749500D01*
X99438218Y-29781160D01*
X99203896Y-29843947D01*
X98979783Y-29936778D01*
X98769712Y-30058063D01*
X98769711Y-30058064D01*
X98577262Y-30205735D01*
X98577260Y-30205736D01*
X98577256Y-30205740D01*
X98405740Y-30377256D01*
X98258063Y-30569712D01*
X98136778Y-30779783D01*
X98043947Y-31003896D01*
X97981160Y-31238218D01*
X97949500Y-31478706D01*
X95050500Y-31478706D01*
X95050500Y-25440038D01*
X95070462Y-25365538D01*
X95125000Y-25311000D01*
X95199500Y-25291038D01*
X95245541Y-25298330D01*
X95303757Y-25317246D01*
X95513713Y-25350500D01*
X95513718Y-25350500D01*
X95726282Y-25350500D01*
X95726287Y-25350500D01*
X95936243Y-25317246D01*
X96138412Y-25251557D01*
X96327816Y-25155051D01*
X96499792Y-25030104D01*
X96585819Y-24944077D01*
X96652613Y-24905512D01*
X96729741Y-24905512D01*
X96796536Y-24944076D01*
X96830784Y-24997366D01*
X96866202Y-25092329D01*
X96866204Y-25092333D01*
X96952452Y-25207544D01*
X96952455Y-25207547D01*
X97067666Y-25293795D01*
X97067670Y-25293797D01*
X97202517Y-25344091D01*
X97262114Y-25350499D01*
X97262118Y-25350499D01*
X97262127Y-25350500D01*
X99057872Y-25350499D01*
X99117483Y-25344091D01*
X99250996Y-25294294D01*
X99252329Y-25293797D01*
X99252333Y-25293795D01*
X99309938Y-25250671D01*
X99367546Y-25207546D01*
X99410671Y-25149938D01*
X99453795Y-25092333D01*
X99453797Y-25092329D01*
X99477008Y-25030096D01*
X99504091Y-24957483D01*
X99510500Y-24897873D01*
X99510499Y-23102128D01*
X99504091Y-23042517D01*
X99477005Y-22969895D01*
X99453797Y-22907670D01*
X99453795Y-22907666D01*
X99367547Y-22792455D01*
X99367544Y-22792452D01*
X99252333Y-22706204D01*
X99252329Y-22706202D01*
X99117482Y-22655908D01*
X99057876Y-22649500D01*
X97262136Y-22649500D01*
X97262111Y-22649502D01*
X97202521Y-22655908D01*
X97202515Y-22655909D01*
X97067670Y-22706202D01*
X97067666Y-22706204D01*
X96952455Y-22792452D01*
X96952452Y-22792455D01*
X96866204Y-22907666D01*
X96866203Y-22907668D01*
X96830784Y-23002634D01*
X96786045Y-23065461D01*
X96715887Y-23097501D01*
X96639108Y-23090170D01*
X96585819Y-23055923D01*
X96499793Y-22969897D01*
X96499792Y-22969896D01*
X96327816Y-22844949D01*
X96138412Y-22748443D01*
X95936243Y-22682754D01*
X95726287Y-22649500D01*
X95513713Y-22649500D01*
X95338749Y-22677211D01*
X95303756Y-22682754D01*
X95101594Y-22748441D01*
X95101582Y-22748445D01*
X95015215Y-22792452D01*
X94912184Y-22844949D01*
X94912183Y-22844950D01*
X94912175Y-22844955D01*
X94904224Y-22850731D01*
X94832216Y-22878365D01*
X94756039Y-22866293D01*
X94711295Y-22835539D01*
X94113014Y-22237258D01*
X93442743Y-21566986D01*
X93328011Y-21490325D01*
X93328008Y-21490323D01*
X93328002Y-21490320D01*
X93200529Y-21437520D01*
X93200527Y-21437519D01*
X93065197Y-21410600D01*
X93065194Y-21410600D01*
X93065193Y-21410600D01*
X87417894Y-21410600D01*
X87279906Y-21410600D01*
X87279902Y-21410600D01*
X87144572Y-21437519D01*
X87144570Y-21437520D01*
X87017097Y-21490320D01*
X87017084Y-21490328D01*
X86902358Y-21566985D01*
X86902353Y-21566989D01*
X85838856Y-22630485D01*
X85772061Y-22669049D01*
X85710189Y-22672292D01*
X85566287Y-22649500D01*
X85353713Y-22649500D01*
X85178749Y-22677211D01*
X85143756Y-22682754D01*
X84941594Y-22748441D01*
X84941588Y-22748443D01*
X84941582Y-22748445D01*
X84941582Y-22748446D01*
X84752182Y-22844950D01*
X84752181Y-22844950D01*
X84580209Y-22969895D01*
X84580206Y-22969897D01*
X84429897Y-23120206D01*
X84429895Y-23120209D01*
X84310544Y-23284482D01*
X84250604Y-23333020D01*
X84174425Y-23345086D01*
X84102420Y-23317446D01*
X84069456Y-23284482D01*
X84007236Y-23198844D01*
X83950104Y-23120208D01*
X83799792Y-22969896D01*
X83627816Y-22844949D01*
X83438412Y-22748443D01*
X83236243Y-22682754D01*
X83026287Y-22649500D01*
X82813713Y-22649500D01*
X82717757Y-22664698D01*
X82669809Y-22672292D01*
X82593103Y-22664229D01*
X82541142Y-22630485D01*
X82050346Y-22139689D01*
X82050343Y-22139686D01*
X81935611Y-22063025D01*
X81935608Y-22063023D01*
X81935602Y-22063020D01*
X81808129Y-22010220D01*
X81808127Y-22010219D01*
X81672797Y-21983300D01*
X81672794Y-21983300D01*
X81672793Y-21983300D01*
X77999000Y-21983300D01*
X77924500Y-21963338D01*
X77869962Y-21908800D01*
X77850000Y-21834300D01*
X77850000Y-5249000D01*
X77869962Y-5174500D01*
X77924500Y-5119962D01*
X77999000Y-5100000D01*
X132372747Y-5100000D01*
X132447247Y-5119962D01*
G37*
%TD.AperFunction*%
%TA.AperFunction,Conductor*%
G36*
X86767455Y-24663312D02*
G01*
X86790604Y-24666979D01*
X86802957Y-24676939D01*
X86817580Y-24682553D01*
X86849480Y-24714453D01*
X86850178Y-24715016D01*
X86850415Y-24715340D01*
X86969896Y-24879792D01*
X87120208Y-25030104D01*
X87292184Y-25155051D01*
X87481588Y-25251557D01*
X87683757Y-25317246D01*
X87893713Y-25350500D01*
X87893718Y-25350500D01*
X88106282Y-25350500D01*
X88106287Y-25350500D01*
X88316243Y-25317246D01*
X88374559Y-25298297D01*
X88451577Y-25294261D01*
X88520299Y-25329275D01*
X88562307Y-25393960D01*
X88569600Y-25440005D01*
X88569600Y-59191425D01*
X88549638Y-59265925D01*
X88525959Y-59296784D01*
X78104359Y-69718384D01*
X78037564Y-69756948D01*
X77960436Y-69756948D01*
X77893641Y-69718384D01*
X77855077Y-69651589D01*
X77850000Y-69613025D01*
X77850000Y-60775461D01*
X81285000Y-60775461D01*
X81285000Y-61024538D01*
X81317507Y-61271459D01*
X81381973Y-61512048D01*
X81477287Y-61742156D01*
X81587048Y-61932265D01*
X82453323Y-61065989D01*
X82463822Y-61118767D01*
X82520359Y-61255258D01*
X82602437Y-61378097D01*
X82706903Y-61482563D01*
X82829742Y-61564641D01*
X82966233Y-61621178D01*
X83019008Y-61631675D01*
X82152733Y-62497950D01*
X82342849Y-62607714D01*
X82572951Y-62703026D01*
X82813540Y-62767492D01*
X83060461Y-62799999D01*
X83060467Y-62800000D01*
X83309533Y-62800000D01*
X83309538Y-62799999D01*
X83556459Y-62767492D01*
X83797048Y-62703026D01*
X84027150Y-62607714D01*
X84217265Y-62497950D01*
X83350990Y-61631675D01*
X83403767Y-61621178D01*
X83540258Y-61564641D01*
X83663097Y-61482563D01*
X83767563Y-61378097D01*
X83849641Y-61255258D01*
X83906178Y-61118767D01*
X83916675Y-61065990D01*
X84782950Y-61932265D01*
X84892714Y-61742150D01*
X84988026Y-61512048D01*
X85052492Y-61271459D01*
X85084999Y-61024538D01*
X85085000Y-61024533D01*
X85085000Y-60775467D01*
X85084999Y-60775461D01*
X85052492Y-60528540D01*
X84988026Y-60287951D01*
X84892714Y-60057849D01*
X84782950Y-59867733D01*
X83916675Y-60734008D01*
X83906178Y-60681233D01*
X83849641Y-60544742D01*
X83767563Y-60421903D01*
X83663097Y-60317437D01*
X83540258Y-60235359D01*
X83403767Y-60178822D01*
X83350989Y-60168323D01*
X84217265Y-59302048D01*
X84027156Y-59192287D01*
X83797048Y-59096973D01*
X83556459Y-59032507D01*
X83309538Y-59000000D01*
X83060461Y-59000000D01*
X82813540Y-59032507D01*
X82572951Y-59096973D01*
X82342843Y-59192287D01*
X82152733Y-59302048D01*
X83019009Y-60168324D01*
X82966233Y-60178822D01*
X82829742Y-60235359D01*
X82706903Y-60317437D01*
X82602437Y-60421903D01*
X82520359Y-60544742D01*
X82463822Y-60681233D01*
X82453324Y-60734009D01*
X81587048Y-59867733D01*
X81477287Y-60057843D01*
X81381973Y-60287951D01*
X81317507Y-60528540D01*
X81285000Y-60775461D01*
X77850000Y-60775461D01*
X77850000Y-43775461D01*
X81285000Y-43775461D01*
X81285000Y-44024538D01*
X81317507Y-44271459D01*
X81381973Y-44512048D01*
X81477287Y-44742156D01*
X81587048Y-44932265D01*
X82453323Y-44065989D01*
X82463822Y-44118767D01*
X82520359Y-44255258D01*
X82602437Y-44378097D01*
X82706903Y-44482563D01*
X82829742Y-44564641D01*
X82966233Y-44621178D01*
X83019008Y-44631675D01*
X82152733Y-45497950D01*
X82342849Y-45607714D01*
X82572951Y-45703026D01*
X82813540Y-45767492D01*
X83060461Y-45799999D01*
X83060467Y-45800000D01*
X83309533Y-45800000D01*
X83309538Y-45799999D01*
X83556459Y-45767492D01*
X83797048Y-45703026D01*
X84027150Y-45607714D01*
X84217265Y-45497950D01*
X83350990Y-44631675D01*
X83403767Y-44621178D01*
X83540258Y-44564641D01*
X83663097Y-44482563D01*
X83767563Y-44378097D01*
X83849641Y-44255258D01*
X83906178Y-44118767D01*
X83916675Y-44065990D01*
X84782950Y-44932265D01*
X84892714Y-44742150D01*
X84988026Y-44512048D01*
X85052492Y-44271459D01*
X85084999Y-44024538D01*
X85085000Y-44024533D01*
X85085000Y-43775467D01*
X85084999Y-43775461D01*
X85052492Y-43528540D01*
X84988026Y-43287951D01*
X84892714Y-43057849D01*
X84782950Y-42867733D01*
X83916675Y-43734008D01*
X83906178Y-43681233D01*
X83849641Y-43544742D01*
X83767563Y-43421903D01*
X83663097Y-43317437D01*
X83540258Y-43235359D01*
X83403767Y-43178822D01*
X83350989Y-43168323D01*
X84217265Y-42302048D01*
X84027156Y-42192287D01*
X83797048Y-42096973D01*
X83556459Y-42032507D01*
X83309538Y-42000000D01*
X83060461Y-42000000D01*
X82813540Y-42032507D01*
X82572951Y-42096973D01*
X82342843Y-42192287D01*
X82152733Y-42302048D01*
X83019009Y-43168324D01*
X82966233Y-43178822D01*
X82829742Y-43235359D01*
X82706903Y-43317437D01*
X82602437Y-43421903D01*
X82520359Y-43544742D01*
X82463822Y-43681233D01*
X82453324Y-43734009D01*
X81587048Y-42867733D01*
X81477287Y-43057843D01*
X81381973Y-43287951D01*
X81317507Y-43528540D01*
X81285000Y-43775461D01*
X77850000Y-43775461D01*
X77850000Y-29542575D01*
X77869962Y-29468075D01*
X77893641Y-29437216D01*
X78308646Y-29022211D01*
X78870814Y-28460043D01*
X78947475Y-28345311D01*
X79000280Y-28217828D01*
X79027200Y-28082494D01*
X79027200Y-27944506D01*
X79027200Y-27592989D01*
X79038542Y-27535970D01*
X79063073Y-27476744D01*
X79096437Y-27396197D01*
X79127200Y-27241542D01*
X79127200Y-27083858D01*
X79096437Y-26929203D01*
X79036094Y-26783521D01*
X78948489Y-26652411D01*
X78938726Y-26642648D01*
X78900162Y-26575853D01*
X78900162Y-26498725D01*
X78938726Y-26431930D01*
X79434276Y-25936380D01*
X80001143Y-25369512D01*
X80067936Y-25330950D01*
X80129805Y-25327707D01*
X80273713Y-25350500D01*
X80273718Y-25350500D01*
X80486282Y-25350500D01*
X80486287Y-25350500D01*
X80696243Y-25317246D01*
X80898412Y-25251557D01*
X81087816Y-25155051D01*
X81259792Y-25030104D01*
X81410104Y-24879792D01*
X81529456Y-24715517D01*
X81589396Y-24666979D01*
X81665574Y-24654913D01*
X81737580Y-24682553D01*
X81770544Y-24715517D01*
X81889896Y-24879792D01*
X82040208Y-25030104D01*
X82212184Y-25155051D01*
X82401588Y-25251557D01*
X82603757Y-25317246D01*
X82813713Y-25350500D01*
X82813718Y-25350500D01*
X83026282Y-25350500D01*
X83026287Y-25350500D01*
X83236243Y-25317246D01*
X83438412Y-25251557D01*
X83627816Y-25155051D01*
X83799792Y-25030104D01*
X83950104Y-24879792D01*
X84069456Y-24715517D01*
X84129396Y-24666979D01*
X84205574Y-24654913D01*
X84277580Y-24682553D01*
X84310544Y-24715517D01*
X84429896Y-24879792D01*
X84580208Y-25030104D01*
X84752184Y-25155051D01*
X84941588Y-25251557D01*
X85143757Y-25317246D01*
X85353713Y-25350500D01*
X85353718Y-25350500D01*
X85566282Y-25350500D01*
X85566287Y-25350500D01*
X85776243Y-25317246D01*
X85978412Y-25251557D01*
X86167816Y-25155051D01*
X86339792Y-25030104D01*
X86490104Y-24879792D01*
X86609456Y-24715517D01*
X86627670Y-24700767D01*
X86642420Y-24682553D01*
X86657142Y-24676901D01*
X86669396Y-24666979D01*
X86692544Y-24663312D01*
X86714426Y-24654913D01*
X86730000Y-24657379D01*
X86745574Y-24654913D01*
X86767455Y-24663312D01*
G37*
%TD.AperFunction*%
%TD*%
M02*
