%TF.GenerationSoftware,KiCad,Pcbnew,10.0.0*%
%TF.CreationDate,2026-03-30T21:08:37-04:00*%
%TF.ProjectId,geodude-carrier,67656f64-7564-4652-9d63-617272696572,rev?*%
%TF.SameCoordinates,Original*%
%TF.FileFunction,Profile,NP*%
%FSLAX46Y46*%
G04 Gerber Fmt 4.6, Leading zero omitted, Abs format (unit mm)*
G04 Created by KiCad (PCBNEW 10.0.0) date 2026-03-30 21:08:37*
%MOMM*%
%LPD*%
G01*
G04 APERTURE LIST*
%TA.AperFunction,Profile*%
%ADD10C,0.100000*%
%TD*%
G04 APERTURE END LIST*
D10*
X5000000Y-20000000D02*
X5028891Y-19411897D01*
X5000000Y-142000000D02*
X5000000Y-20000000D01*
X5028891Y-19411897D02*
X5115288Y-18829458D01*
X5028891Y-142588102D02*
X5000000Y-142000000D01*
X5115288Y-18829458D02*
X5258357Y-18258291D01*
X5115288Y-143170541D02*
X5028891Y-142588102D01*
X5258357Y-18258291D02*
X5456722Y-17703899D01*
X5258357Y-143741708D02*
X5115288Y-143170541D01*
X5456722Y-17703899D02*
X5708472Y-17171619D01*
X5456722Y-144296100D02*
X5258357Y-143741708D01*
X5708472Y-17171619D02*
X6011182Y-16666578D01*
X5708472Y-144828380D02*
X5456722Y-144296100D01*
X6011182Y-16666578D02*
X6361937Y-16193640D01*
X6011182Y-145333421D02*
X5708472Y-144828380D01*
X6361937Y-16193640D02*
X6757359Y-15757359D01*
X6361937Y-145806359D02*
X6011182Y-145333421D01*
X6757359Y-15757359D02*
X7193640Y-15361937D01*
X6757359Y-146242640D02*
X6361937Y-145806359D01*
X7193640Y-15361937D02*
X7666578Y-15011182D01*
X7193640Y-146638062D02*
X6757359Y-146242640D01*
X7666578Y-15011182D02*
X8171619Y-14708472D01*
X7666578Y-146988817D02*
X7193640Y-146638062D01*
X8171619Y-14708472D02*
X8703899Y-14456722D01*
X8171619Y-147291527D02*
X7666578Y-146988817D01*
X8703899Y-14456722D02*
X9258291Y-14258357D01*
X8703899Y-147543277D02*
X8171619Y-147291527D01*
X9258291Y-14258357D02*
X9829458Y-14115288D01*
X9258291Y-147741642D02*
X8703899Y-147543277D01*
X9829458Y-14115288D02*
X10411897Y-14028891D01*
X9829458Y-147884711D02*
X9258291Y-147741642D01*
X10411897Y-14028891D02*
X10999999Y-14000000D01*
X10411897Y-147971108D02*
X9829458Y-147884711D01*
X11000000Y-14000000D02*
X169000000Y-14000000D01*
X11000000Y-148000000D02*
X10411897Y-147971108D01*
X169000000Y-14000000D02*
X169588102Y-14028891D01*
X169000000Y-148000000D02*
X11000000Y-148000000D01*
X169588102Y-14028891D02*
X170170541Y-14115288D01*
X169588102Y-147971108D02*
X169000000Y-148000000D01*
X170170541Y-14115288D02*
X170741708Y-14258357D01*
X170170541Y-147884711D02*
X169588102Y-147971108D01*
X170741708Y-14258357D02*
X171296100Y-14456722D01*
X170741708Y-147741642D02*
X170170541Y-147884711D01*
X171296100Y-14456722D02*
X171828380Y-14708472D01*
X171296100Y-147543277D02*
X170741708Y-147741642D01*
X171828380Y-14708472D02*
X172333421Y-15011182D01*
X171828380Y-147291527D02*
X171296100Y-147543277D01*
X172333421Y-15011182D02*
X172806359Y-15361937D01*
X172333421Y-146988817D02*
X171828380Y-147291527D01*
X172806359Y-15361937D02*
X173242640Y-15757359D01*
X172806359Y-146638062D02*
X172333421Y-146988817D01*
X173242640Y-15757359D02*
X173638062Y-16193640D01*
X173242640Y-146242640D02*
X172806359Y-146638062D01*
X173638062Y-16193640D02*
X173988817Y-16666578D01*
X173638062Y-145806359D02*
X173242640Y-146242640D01*
X173988817Y-16666578D02*
X174291527Y-17171619D01*
X173988817Y-145333421D02*
X173638062Y-145806359D01*
X174291527Y-17171619D02*
X174543277Y-17703899D01*
X174291527Y-144828380D02*
X173988817Y-145333421D01*
X174543277Y-17703899D02*
X174741642Y-18258291D01*
X174543277Y-144296100D02*
X174291527Y-144828380D01*
X174741642Y-18258291D02*
X174884711Y-18829458D01*
X174741642Y-143741708D02*
X174543277Y-144296100D01*
X174884711Y-18829458D02*
X174971108Y-19411897D01*
X174884711Y-143170541D02*
X174741642Y-143741708D01*
X174971108Y-19411897D02*
X175000000Y-20000000D01*
X174971108Y-142588102D02*
X174884711Y-143170541D01*
X175000000Y-20000000D02*
X175000000Y-142000000D01*
X175000000Y-142000000D02*
X174971108Y-142588102D01*
M02*
