%TF.GenerationSoftware,KiCad,Pcbnew,10.0.0*%
%TF.CreationDate,2026-03-30T18:26:12-04:00*%
%TF.ProjectId,geodude-carrier,67656f64-7564-4652-9d63-617272696572,rev?*%
%TF.SameCoordinates,Original*%
%TF.FileFunction,Soldermask,Bot*%
%TF.FilePolarity,Negative*%
%FSLAX46Y46*%
G04 Gerber Fmt 4.6, Leading zero omitted, Abs format (unit mm)*
G04 Created by KiCad (PCBNEW 10.0.0) date 2026-03-30 18:26:12*
%MOMM*%
%LPD*%
G01*
G04 APERTURE LIST*
G04 Aperture macros list*
%AMRoundRect*
0 Rectangle with rounded corners*
0 $1 Rounding radius*
0 $2 $3 $4 $5 $6 $7 $8 $9 X,Y pos of 4 corners*
0 Add a 4 corners polygon primitive as box body*
4,1,4,$2,$3,$4,$5,$6,$7,$8,$9,$2,$3,0*
0 Add four circle primitives for the rounded corners*
1,1,$1+$1,$2,$3*
1,1,$1+$1,$4,$5*
1,1,$1+$1,$6,$7*
1,1,$1+$1,$8,$9*
0 Add four rect primitives between the rounded corners*
20,1,$1+$1,$2,$3,$4,$5,0*
20,1,$1+$1,$4,$5,$6,$7,0*
20,1,$1+$1,$6,$7,$8,$9,0*
20,1,$1+$1,$8,$9,$2,$3,0*%
G04 Aperture macros list end*
%ADD10C,2.800000*%
%ADD11R,1.700000X1.700000*%
%ADD12C,1.700000*%
%ADD13RoundRect,0.250001X1.149999X-1.149999X1.149999X1.149999X-1.149999X1.149999X-1.149999X-1.149999X0*%
%ADD14C,3.200000*%
G04 APERTURE END LIST*
D10*
%TO.C,F2*%
X83185000Y-60900000D03*
X105385000Y-60900000D03*
%TD*%
D11*
%TO.C,SV4*%
X91220000Y-124300000D03*
D12*
X93760000Y-124300000D03*
X96300000Y-124300000D03*
%TD*%
D10*
%TO.C,F6*%
X46685000Y-43900000D03*
X68885000Y-43900000D03*
%TD*%
D11*
%TO.C,SV2*%
X63220000Y-124300000D03*
D12*
X65760000Y-124300000D03*
X68300000Y-124300000D03*
%TD*%
D13*
%TO.C,J4*%
X122900000Y-107000000D03*
D10*
X122900000Y-102000000D03*
%TD*%
D11*
%TO.C,SV6*%
X48960000Y-132500000D03*
D12*
X51500000Y-132500000D03*
X54040000Y-132500000D03*
%TD*%
D11*
%TO.C,J41*%
X37000000Y-68100000D03*
D12*
X37000000Y-70640000D03*
X37000000Y-73180000D03*
X37000000Y-75720000D03*
%TD*%
D13*
%TO.C,J2*%
X122900000Y-59000000D03*
D10*
X122900000Y-54000000D03*
%TD*%
D13*
%TO.C,J34*%
X25000000Y-81400000D03*
D10*
X25000000Y-76400000D03*
%TD*%
D13*
%TO.C,J32*%
X25000000Y-69400000D03*
D10*
X25000000Y-64400000D03*
%TD*%
D11*
%TO.C,SV1*%
X49220000Y-124300000D03*
D12*
X51760000Y-124300000D03*
X54300000Y-124300000D03*
%TD*%
D11*
%TO.C,J_ESC*%
X116460000Y-132500000D03*
D12*
X119000000Y-132500000D03*
X121540000Y-132500000D03*
%TD*%
D11*
%TO.C,SV3*%
X77220000Y-124300000D03*
D12*
X79760000Y-124300000D03*
X82300000Y-124300000D03*
%TD*%
D14*
%TO.C,MH3*%
X49300000Y-140500000D03*
%TD*%
D13*
%TO.C,J37*%
X25000000Y-93400000D03*
D10*
X25000000Y-88400000D03*
%TD*%
D11*
%TO.C,J44*%
X37000000Y-104100000D03*
D12*
X37000000Y-106640000D03*
X37000000Y-109180000D03*
X37000000Y-111720000D03*
%TD*%
D11*
%TO.C,SV10*%
X104960000Y-132500000D03*
D12*
X107500000Y-132500000D03*
X110040000Y-132500000D03*
%TD*%
D11*
%TO.C,SV7*%
X62960000Y-132500000D03*
D12*
X65500000Y-132500000D03*
X68040000Y-132500000D03*
%TD*%
D10*
%TO.C,F7*%
X46685000Y-60900000D03*
X68885000Y-60900000D03*
%TD*%
D13*
%TO.C,J1*%
X122900000Y-47000000D03*
D10*
X122900000Y-42000000D03*
%TD*%
D14*
%TO.C,MH1*%
X48300000Y-31800000D03*
%TD*%
D11*
%TO.C,SV9*%
X90960000Y-132500000D03*
D12*
X93500000Y-132500000D03*
X96040000Y-132500000D03*
%TD*%
D11*
%TO.C,SV5*%
X105220000Y-124300000D03*
D12*
X107760000Y-124300000D03*
X110300000Y-124300000D03*
%TD*%
D11*
%TO.C,J43*%
X37000000Y-92100000D03*
D12*
X37000000Y-94640000D03*
X37000000Y-97180000D03*
X37000000Y-99720000D03*
%TD*%
D13*
%TO.C,J39*%
X25000000Y-105400000D03*
D10*
X25000000Y-100400000D03*
%TD*%
D11*
%TO.C,SV8*%
X76960000Y-132500000D03*
D12*
X79500000Y-132500000D03*
X82040000Y-132500000D03*
%TD*%
D11*
%TO.C,J40*%
X37000000Y-56100000D03*
D12*
X37000000Y-58640000D03*
X37000000Y-61180000D03*
X37000000Y-63720000D03*
%TD*%
D13*
%TO.C,J6*%
X122900000Y-83000000D03*
D10*
X122900000Y-78000000D03*
%TD*%
%TO.C,F4*%
X83185000Y-94900000D03*
X105385000Y-94900000D03*
%TD*%
D14*
%TO.C,MH2*%
X99800000Y-31600000D03*
%TD*%
D10*
%TO.C,F3*%
X83185000Y-77900000D03*
X105385000Y-77900000D03*
%TD*%
D13*
%TO.C,J5*%
X122900000Y-71000000D03*
D10*
X122900000Y-66000000D03*
%TD*%
D13*
%TO.C,J31*%
X25000000Y-57400000D03*
D10*
X25000000Y-52400000D03*
%TD*%
%TO.C,F5*%
X83185000Y-111900000D03*
X105385000Y-111900000D03*
%TD*%
%TO.C,F9*%
X46685000Y-94900000D03*
X68885000Y-94900000D03*
%TD*%
D11*
%TO.C,J42*%
X37000000Y-80100000D03*
D12*
X37000000Y-82640000D03*
X37000000Y-85180000D03*
X37000000Y-87720000D03*
%TD*%
D14*
%TO.C,MH4*%
X99300000Y-140500000D03*
%TD*%
D13*
%TO.C,J3*%
X122900000Y-95000000D03*
D10*
X122900000Y-90000000D03*
%TD*%
%TO.C,F8*%
X46685000Y-77900000D03*
X68885000Y-77900000D03*
%TD*%
D11*
%TO.C,J_FAN*%
X116460000Y-120500000D03*
D12*
X119000000Y-120500000D03*
X121540000Y-120500000D03*
%TD*%
D11*
%TO.C,J_PCA*%
X98160000Y-24000000D03*
D12*
X95620000Y-24000000D03*
X93080000Y-24000000D03*
X90540000Y-24000000D03*
X88000000Y-24000000D03*
X85460000Y-24000000D03*
X82920000Y-24000000D03*
X80380000Y-24000000D03*
X77840000Y-24000000D03*
X75300000Y-24000000D03*
X72760000Y-24000000D03*
X70220000Y-24000000D03*
X67680000Y-24000000D03*
X65140000Y-24000000D03*
X62600000Y-24000000D03*
X60060000Y-24000000D03*
X57520000Y-24000000D03*
X54980000Y-24000000D03*
X52440000Y-24000000D03*
%TD*%
D10*
%TO.C,F1*%
X83185000Y-43900000D03*
X105385000Y-43900000D03*
%TD*%
%TO.C,F10*%
X46685000Y-111900000D03*
X68885000Y-111900000D03*
%TD*%
M02*
