%TF.GenerationSoftware,KiCad,Pcbnew,10.0.0*%
%TF.CreationDate,2026-03-30T18:06:58-04:00*%
%TF.ProjectId,geodude-carrier,67656f64-7564-4652-9d63-617272696572,rev?*%
%TF.SameCoordinates,Original*%
%TF.FileFunction,Copper,L1,Top*%
%TF.FilePolarity,Positive*%
%FSLAX46Y46*%
G04 Gerber Fmt 4.6, Leading zero omitted, Abs format (unit mm)*
G04 Created by KiCad (PCBNEW 10.0.0) date 2026-03-30 18:06:58*
%MOMM*%
%LPD*%
G01*
G04 APERTURE LIST*
G04 Aperture macros list*
%AMRoundRect*
0 Rectangle with rounded corners*
0 $1 Rounding radius*
0 $2 $3 $4 $5 $6 $7 $8 $9 X,Y pos of 4 corners*
0 Add a 4 corners polygon primitive as box body*
4,1,4,$2,$3,$4,$5,$6,$7,$8,$9,$2,$3,0*
0 Add four circle primitives for the rounded corners*
1,1,$1+$1,$2,$3*
1,1,$1+$1,$4,$5*
1,1,$1+$1,$6,$7*
1,1,$1+$1,$8,$9*
0 Add four rect primitives between the rounded corners*
20,1,$1+$1,$2,$3,$4,$5,0*
20,1,$1+$1,$4,$5,$6,$7,0*
20,1,$1+$1,$6,$7,$8,$9,0*
20,1,$1+$1,$8,$9,$2,$3,0*%
G04 Aperture macros list end*
%TA.AperFunction,ComponentPad*%
%ADD10C,2.800000*%
%TD*%
%TA.AperFunction,ComponentPad*%
%ADD11R,1.700000X1.700000*%
%TD*%
%TA.AperFunction,ComponentPad*%
%ADD12C,1.700000*%
%TD*%
%TA.AperFunction,ComponentPad*%
%ADD13RoundRect,0.250001X1.149999X-1.149999X1.149999X1.149999X-1.149999X1.149999X-1.149999X-1.149999X0*%
%TD*%
%TA.AperFunction,ViaPad*%
%ADD14C,0.600000*%
%TD*%
%TA.AperFunction,Conductor*%
%ADD15C,3.000000*%
%TD*%
%TA.AperFunction,Conductor*%
%ADD16C,1.699800*%
%TD*%
%TA.AperFunction,Conductor*%
%ADD17C,0.400000*%
%TD*%
%TA.AperFunction,Conductor*%
%ADD18C,1.000000*%
%TD*%
%TA.AperFunction,Conductor*%
%ADD19C,2.000000*%
%TD*%
%TA.AperFunction,Conductor*%
%ADD20C,0.600000*%
%TD*%
%TA.AperFunction,Conductor*%
%ADD21C,1.500000*%
%TD*%
G04 APERTURE END LIST*
D10*
%TO.P,F2,1*%
%TO.N,+12V*%
X83185000Y-58900000D03*
%TO.P,F2,2*%
%TO.N,SV2_PWR*%
X105385000Y-58900000D03*
%TD*%
D11*
%TO.P,SV4,1*%
%TO.N,PWM_CH3*%
X85220000Y-124300000D03*
D12*
%TO.P,SV4,2*%
%TO.N,SV4_PWR*%
X87760000Y-124300000D03*
%TO.P,SV4,3*%
%TO.N,GND*%
X90300000Y-124300000D03*
%TD*%
D10*
%TO.P,F6,1*%
%TO.N,+12V*%
X46685000Y-43900000D03*
%TO.P,F6,2*%
%TO.N,SV6_PWR*%
X68885000Y-43900000D03*
%TD*%
D11*
%TO.P,SV2,1*%
%TO.N,PWM_CH1*%
X61220000Y-124300000D03*
D12*
%TO.P,SV2,2*%
%TO.N,SV2_PWR*%
X63760000Y-124300000D03*
%TO.P,SV2,3*%
%TO.N,GND*%
X66300000Y-124300000D03*
%TD*%
D13*
%TO.P,J4,1*%
%TO.N,GND*%
X122900000Y-107000000D03*
D10*
%TO.P,J4,2*%
X122900000Y-102000000D03*
%TD*%
D11*
%TO.P,SV6,1*%
%TO.N,PWM_CH5*%
X48960000Y-132500000D03*
D12*
%TO.P,SV6,2*%
%TO.N,SV6_PWR*%
X51500000Y-132500000D03*
%TO.P,SV6,3*%
%TO.N,GND*%
X54040000Y-132500000D03*
%TD*%
D11*
%TO.P,J41,1*%
%TO.N,SDA*%
X35300000Y-39060000D03*
D12*
%TO.P,J41,2*%
X35300000Y-41600000D03*
%TO.P,J41,3*%
X35300000Y-44140000D03*
%TO.P,J41,4*%
X35300000Y-46680000D03*
%TD*%
D13*
%TO.P,J2,1*%
%TO.N,+12V*%
X122900000Y-59000000D03*
D10*
%TO.P,J2,2*%
X122900000Y-54000000D03*
%TD*%
D13*
%TO.P,J34,1*%
%TO.N,+3V3*%
X24600000Y-62400000D03*
D10*
%TO.P,J34,2*%
X24600000Y-57400000D03*
%TD*%
D13*
%TO.P,J35,1*%
%TO.N,+3V3*%
X24600000Y-74400000D03*
D10*
%TO.P,J35,2*%
X24600000Y-69400000D03*
%TD*%
D13*
%TO.P,J32,1*%
%TO.N,SDA*%
X24600000Y-38400000D03*
D10*
%TO.P,J32,2*%
X24600000Y-33400000D03*
%TD*%
D11*
%TO.P,SV1,1*%
%TO.N,PWM_CH0*%
X49220000Y-124300000D03*
D12*
%TO.P,SV1,2*%
%TO.N,SV1_PWR*%
X51760000Y-124300000D03*
%TO.P,SV1,3*%
%TO.N,GND*%
X54300000Y-124300000D03*
%TD*%
D11*
%TO.P,J_ESC,1*%
%TO.N,PWM_CH11*%
X116460000Y-124700000D03*
D12*
%TO.P,J_ESC,2*%
%TO.N,N/C*%
X119000000Y-124700000D03*
%TO.P,J_ESC,3*%
%TO.N,GND*%
X121540000Y-124700000D03*
%TD*%
D11*
%TO.P,SV3,1*%
%TO.N,PWM_CH2*%
X73220000Y-124300000D03*
D12*
%TO.P,SV3,2*%
%TO.N,SV3_PWR*%
X75760000Y-124300000D03*
%TO.P,SV3,3*%
%TO.N,GND*%
X78300000Y-124300000D03*
%TD*%
D13*
%TO.P,J37,1*%
%TO.N,+5V_LOGIC*%
X24600000Y-86400000D03*
D10*
%TO.P,J37,2*%
X24600000Y-81400000D03*
%TD*%
D11*
%TO.P,J44,1*%
%TO.N,GND_LOGIC*%
X36200000Y-109790000D03*
D12*
%TO.P,J44,2*%
X36200000Y-112330000D03*
%TO.P,J44,3*%
X36200000Y-114870000D03*
%TO.P,J44,4*%
X36200000Y-117410000D03*
%TD*%
D11*
%TO.P,SV10,1*%
%TO.N,PWM_CH9*%
X96780000Y-133200000D03*
D12*
%TO.P,SV10,2*%
%TO.N,SV10_PWR*%
X99320000Y-133200000D03*
%TO.P,SV10,3*%
%TO.N,GND*%
X101860000Y-133200000D03*
%TD*%
D11*
%TO.P,SV7,1*%
%TO.N,PWM_CH6*%
X60960000Y-132500000D03*
D12*
%TO.P,SV7,2*%
%TO.N,SV7_PWR*%
X63500000Y-132500000D03*
%TO.P,SV7,3*%
%TO.N,GND*%
X66040000Y-132500000D03*
%TD*%
D10*
%TO.P,F7,1*%
%TO.N,+12V*%
X46685000Y-58900000D03*
%TO.P,F7,2*%
%TO.N,SV7_PWR*%
X68885000Y-58900000D03*
%TD*%
D13*
%TO.P,J1,1*%
%TO.N,+12V*%
X122900000Y-47000000D03*
D10*
%TO.P,J1,2*%
X122900000Y-42000000D03*
%TD*%
D13*
%TO.P,J36,1*%
%TO.N,+5V_LOGIC*%
X24600000Y-98400000D03*
D10*
%TO.P,J36,2*%
X24600000Y-93400000D03*
%TD*%
D11*
%TO.P,SV9,1*%
%TO.N,PWM_CH8*%
X84960000Y-132500000D03*
D12*
%TO.P,SV9,2*%
%TO.N,SV9_PWR*%
X87500000Y-132500000D03*
%TO.P,SV9,3*%
%TO.N,GND*%
X90040000Y-132500000D03*
%TD*%
D11*
%TO.P,SV5,1*%
%TO.N,PWM_CH4*%
X97220000Y-124300000D03*
D12*
%TO.P,SV5,2*%
%TO.N,SV5_PWR*%
X99760000Y-124300000D03*
%TO.P,SV5,3*%
%TO.N,GND*%
X102300000Y-124300000D03*
%TD*%
D11*
%TO.P,J43,1*%
%TO.N,+5V_LOGIC*%
X36400000Y-85390000D03*
D12*
%TO.P,J43,2*%
X36400000Y-87930000D03*
%TO.P,J43,3*%
X36400000Y-90470000D03*
%TO.P,J43,4*%
X36400000Y-93010000D03*
%TD*%
D13*
%TO.P,J39,1*%
%TO.N,GND_LOGIC*%
X24600000Y-110400000D03*
D10*
%TO.P,J39,2*%
X24600000Y-105400000D03*
%TD*%
D11*
%TO.P,SV8,1*%
%TO.N,PWM_CH7*%
X72960000Y-132500000D03*
D12*
%TO.P,SV8,2*%
%TO.N,SV8_PWR*%
X75500000Y-132500000D03*
%TO.P,SV8,3*%
%TO.N,GND*%
X78040000Y-132500000D03*
%TD*%
D11*
%TO.P,J40,1*%
%TO.N,SCL*%
X34900000Y-14460000D03*
D12*
%TO.P,J40,2*%
X34900000Y-17000000D03*
%TO.P,J40,3*%
X34900000Y-19540000D03*
%TO.P,J40,4*%
X34900000Y-22080000D03*
%TD*%
D13*
%TO.P,J6,1*%
%TO.N,+5V_SERVO*%
X122900000Y-83000000D03*
D10*
%TO.P,J6,2*%
X122900000Y-78000000D03*
%TD*%
%TO.P,F4,1*%
%TO.N,+5V_SERVO*%
X83185000Y-88900000D03*
%TO.P,F4,2*%
%TO.N,SV4_PWR*%
X105385000Y-88900000D03*
%TD*%
%TO.P,F3,1*%
%TO.N,+7V4*%
X83185000Y-73900000D03*
%TO.P,F3,2*%
%TO.N,SV3_PWR*%
X105385000Y-73900000D03*
%TD*%
D13*
%TO.P,J5,1*%
%TO.N,+7V4*%
X122900000Y-71000000D03*
D10*
%TO.P,J5,2*%
X122900000Y-66000000D03*
%TD*%
D13*
%TO.P,J31,1*%
%TO.N,SCL*%
X24600000Y-14400000D03*
D10*
%TO.P,J31,2*%
X24600000Y-9400000D03*
%TD*%
%TO.P,F5,1*%
%TO.N,+5V_SERVO*%
X83185000Y-103900000D03*
%TO.P,F5,2*%
%TO.N,SV5_PWR*%
X105385000Y-103900000D03*
%TD*%
%TO.P,F9,1*%
%TO.N,+5V_SERVO*%
X46685000Y-88900000D03*
%TO.P,F9,2*%
%TO.N,SV9_PWR*%
X68885000Y-88900000D03*
%TD*%
D11*
%TO.P,J42,1*%
%TO.N,+3V3*%
X36100000Y-62260000D03*
D12*
%TO.P,J42,2*%
X36100000Y-64800000D03*
%TO.P,J42,3*%
X36100000Y-67340000D03*
%TO.P,J42,4*%
X36100000Y-69880000D03*
%TD*%
D13*
%TO.P,J38,1*%
%TO.N,GND_LOGIC*%
X24600000Y-122400000D03*
D10*
%TO.P,J38,2*%
X24600000Y-117400000D03*
%TD*%
D13*
%TO.P,J33,1*%
%TO.N,SDA*%
X24600000Y-50400000D03*
D10*
%TO.P,J33,2*%
X24600000Y-45400000D03*
%TD*%
D13*
%TO.P,J3,1*%
%TO.N,GND*%
X122900000Y-95000000D03*
D10*
%TO.P,J3,2*%
X122900000Y-90000000D03*
%TD*%
%TO.P,F8,1*%
%TO.N,+7V4*%
X46685000Y-73900000D03*
%TO.P,F8,2*%
%TO.N,SV8_PWR*%
X68885000Y-73900000D03*
%TD*%
D11*
%TO.P,J_FAN,1*%
%TO.N,PWM_CH12*%
X116440000Y-133100000D03*
D12*
%TO.P,J_FAN,2*%
%TO.N,+12V*%
X118980000Y-133100000D03*
%TO.P,J_FAN,3*%
%TO.N,GND*%
X121520000Y-133100000D03*
%TD*%
D11*
%TO.P,J_PCA,1*%
%TO.N,PWM_CH0*%
X98260000Y-7900000D03*
D12*
%TO.P,J_PCA,2*%
%TO.N,PWM_CH1*%
X95720000Y-7900000D03*
%TO.P,J_PCA,3*%
%TO.N,PWM_CH2*%
X93180000Y-7900000D03*
%TO.P,J_PCA,4*%
%TO.N,PWM_CH3*%
X90640000Y-7900000D03*
%TO.P,J_PCA,5*%
%TO.N,N/C*%
X88100000Y-7900000D03*
%TO.P,J_PCA,6*%
%TO.N,PWM_CH4*%
X85560000Y-7900000D03*
%TO.P,J_PCA,7*%
%TO.N,PWM_CH5*%
X83020000Y-7900000D03*
%TO.P,J_PCA,8*%
%TO.N,PWM_CH6*%
X80480000Y-7900000D03*
%TO.P,J_PCA,9*%
%TO.N,PWM_CH7*%
X77940000Y-7900000D03*
%TO.P,J_PCA,10*%
%TO.N,N/C*%
X75400000Y-7900000D03*
%TO.P,J_PCA,11*%
%TO.N,PWM_CH8*%
X72860000Y-7900000D03*
%TO.P,J_PCA,12*%
%TO.N,PWM_CH9*%
X70320000Y-7900000D03*
%TO.P,J_PCA,13*%
%TO.N,PWM_CH10*%
X67780000Y-7900000D03*
%TO.P,J_PCA,14*%
%TO.N,PWM_CH11*%
X65240000Y-7900000D03*
%TO.P,J_PCA,15*%
%TO.N,N/C*%
X62700000Y-7900000D03*
%TO.P,J_PCA,16*%
%TO.N,PWM_CH12*%
X60160000Y-7900000D03*
%TO.P,J_PCA,17*%
%TO.N,PWM_CH13*%
X57620000Y-7900000D03*
%TO.P,J_PCA,18*%
%TO.N,PWM_CH14*%
X55080000Y-7900000D03*
%TO.P,J_PCA,19*%
%TO.N,PWM_CH15*%
X52540000Y-7900000D03*
%TD*%
D13*
%TO.P,J30,1*%
%TO.N,SCL*%
X24600000Y-26400000D03*
D10*
%TO.P,J30,2*%
X24600000Y-21400000D03*
%TD*%
%TO.P,F1,1*%
%TO.N,+12V*%
X83185000Y-43900000D03*
%TO.P,F1,2*%
%TO.N,SV1_PWR*%
X105385000Y-43900000D03*
%TD*%
%TO.P,F10,1*%
%TO.N,+5V_SERVO*%
X46685000Y-103900000D03*
%TO.P,F10,2*%
%TO.N,SV10_PWR*%
X68885000Y-103900000D03*
%TD*%
D14*
%TO.N,PWM_CH3*%
X74211900Y-114880200D03*
%TO.N,PWM_CH1*%
X68644800Y-15649200D03*
%TO.N,PWM_CH0*%
X57495200Y-22766700D03*
X44959800Y-123710700D03*
%TO.N,PWM_CH11*%
X108998400Y-8914200D03*
X108998400Y-123710700D03*
%TO.N,PWM_CH2*%
X72495200Y-19876400D03*
%TO.N,PWM_CH9*%
X73468300Y-10058900D03*
X98489900Y-110091000D03*
X73468300Y-103778400D03*
%TO.N,PWM_CH6*%
X69371000Y-14801200D03*
%TO.N,PWM_CH8*%
X56793500Y-95219700D03*
X81340500Y-100122100D03*
%TO.N,SV9_PWR*%
X95668200Y-94275700D03*
%TO.N,PWM_CH7*%
X71490200Y-11311600D03*
%TO.N,SV8_PWR*%
X68644800Y-130565900D03*
%TO.N,+5V_SERVO*%
X53647100Y-99048500D03*
%TO.N,+7V4*%
X75725000Y-71275200D03*
%TO.N,PWM_CH12*%
X108156900Y-5444900D03*
X108156900Y-132539100D03*
%TD*%
%TO.N,+12V*%
D15*
X118980000Y-135230000D02*
X118548800Y-135661200D01*
X46685000Y-58900000D02*
X46685000Y-43900000D01*
X122900000Y-47000000D02*
X122900000Y-54000000D01*
X83185000Y-43900000D02*
X83185000Y-58900000D01*
X122900000Y-54000000D02*
X122900000Y-59000000D01*
X122900000Y-42000000D02*
X122900000Y-47000000D01*
X113862100Y-134630000D02*
X113862100Y-68037900D01*
X118548800Y-135661200D02*
X114893300Y-135661200D01*
X113862100Y-68037900D02*
X122900000Y-59000000D01*
D16*
X118980000Y-135230000D02*
X118980000Y-133100000D01*
D15*
X114893300Y-135661200D02*
X113862100Y-134630000D01*
%TO.N,PWM_CH3*%
D17*
X74211900Y-24328100D02*
X74211900Y-114880200D01*
X90640000Y-7900000D02*
X74211900Y-24328100D01*
%TO.N,SV4_PWR*%
D18*
X99341200Y-88900000D02*
X105385000Y-88900000D01*
X87760000Y-124300000D02*
X87760000Y-100481200D01*
X87760000Y-100481200D02*
X99341200Y-88900000D01*
%TO.N,GND*%
D16*
X78573300Y-124573300D02*
X78300000Y-124300000D01*
D15*
X122900000Y-107000000D02*
X122900000Y-123351900D01*
X78573300Y-131966700D02*
X78573300Y-124573300D01*
D16*
X121550000Y-133070000D02*
X121520000Y-133100000D01*
X54833100Y-124833100D02*
X54300000Y-124300000D01*
D15*
X54833100Y-131706900D02*
X54574500Y-131965500D01*
D16*
X102833100Y-124833100D02*
X102300000Y-124300000D01*
X54574500Y-131965500D02*
X54040000Y-132500000D01*
X90050200Y-132489800D02*
X90040000Y-132500000D01*
X121551900Y-124700000D02*
X121540000Y-124700000D01*
X90310200Y-130649800D02*
X90310200Y-124310200D01*
D15*
X121550000Y-132250000D02*
X121550200Y-132249800D01*
D16*
X78573100Y-131966900D02*
X78040000Y-132500000D01*
X121550200Y-132249800D02*
X121550200Y-124710200D01*
D15*
X122900000Y-90000000D02*
X122900000Y-95000000D01*
D16*
X121550200Y-124710200D02*
X121540000Y-124700000D01*
D15*
X102833100Y-132226900D02*
X102394500Y-132665500D01*
D16*
X102394500Y-132665500D02*
X101860000Y-133200000D01*
D15*
X90050200Y-130909800D02*
X90310200Y-130649800D01*
X54833100Y-124833100D02*
X54833100Y-131706900D01*
X122900000Y-102000000D02*
X122900000Y-107000000D01*
D16*
X90310200Y-124310200D02*
X90300000Y-124300000D01*
D15*
X122900000Y-123351900D02*
X121551900Y-124700000D01*
X121550000Y-133070000D02*
X121550000Y-132250000D01*
D16*
X66300000Y-124300000D02*
X66300000Y-132240000D01*
X90050200Y-130909800D02*
X90050200Y-132489800D01*
D15*
X102833100Y-124833100D02*
X102833100Y-132226900D01*
X78573100Y-131966900D02*
X78573300Y-131966700D01*
X122900000Y-95000000D02*
X122900000Y-102000000D01*
D16*
X66300000Y-132240000D02*
X66040000Y-132500000D01*
%TO.N,SV6_PWR*%
D19*
X60166700Y-52618300D02*
X68885000Y-43900000D01*
X47154600Y-120709100D02*
X60166700Y-107697000D01*
X60166700Y-107697000D02*
X60166700Y-52618300D01*
X51500000Y-131640500D02*
X47154600Y-127295100D01*
X51500000Y-132500000D02*
X51500000Y-131640500D01*
X47154600Y-127295100D02*
X47154600Y-120709100D01*
%TO.N,PWM_CH1*%
D17*
X64913700Y-119354600D02*
X61220000Y-123048300D01*
X70688900Y-59658700D02*
X64913700Y-65433900D01*
X68644800Y-40820100D02*
X70688900Y-42864200D01*
X64913700Y-65433900D02*
X64913700Y-119354600D01*
X68644800Y-15649200D02*
X68644800Y-40820100D01*
X70688900Y-42864200D02*
X70688900Y-59658700D01*
X61220000Y-124300000D02*
X61220000Y-123048300D01*
%TO.N,PWM_CH5*%
X58096900Y-98162500D02*
X58096900Y-23700600D01*
X45727400Y-128015700D02*
X45727400Y-110532000D01*
X81562800Y-9357200D02*
X83020000Y-7900000D01*
X58096900Y-23700600D02*
X72440300Y-9357200D01*
X48960000Y-132500000D02*
X48960000Y-131248300D01*
X45727400Y-110532000D02*
X58096900Y-98162500D01*
X48960000Y-131248300D02*
X45727400Y-128015700D01*
X72440300Y-9357200D02*
X81562800Y-9357200D01*
%TO.N,SDA*%
X35300000Y-44140000D02*
X35300000Y-41600000D01*
X24600000Y-50400000D02*
X24600000Y-45400000D01*
X24600000Y-33400000D02*
X24600000Y-38400000D01*
X24600000Y-45400000D02*
X24600000Y-38400000D01*
X35300000Y-46680000D02*
X35300000Y-44140000D01*
X35300000Y-41600000D02*
X35300000Y-39060000D01*
%TO.N,+3V3*%
D20*
X24600000Y-74400000D02*
X24600000Y-69400000D01*
X24600000Y-69400000D02*
X24600000Y-62400000D01*
X36100000Y-69880000D02*
X36100000Y-67340000D01*
X36100000Y-67340000D02*
X36100000Y-64800000D01*
X36100000Y-64800000D02*
X36100000Y-62260000D01*
X24600000Y-57400000D02*
X24600000Y-62400000D01*
%TO.N,PWM_CH0*%
D17*
X57495200Y-96829100D02*
X57495200Y-22766700D01*
X44959800Y-109364500D02*
X57495200Y-96829100D01*
X44959800Y-123710700D02*
X44959800Y-109364500D01*
%TO.N,PWM_CH11*%
X108998400Y-123710700D02*
X108998400Y-8914200D01*
%TO.N,PWM_CH2*%
X73220000Y-124300000D02*
X73220000Y-123048300D01*
X72495200Y-122323500D02*
X72495200Y-19876400D01*
X73220000Y-123048300D02*
X72495200Y-122323500D01*
%TO.N,SV3_PWR*%
D21*
X105385000Y-73900000D02*
X75760000Y-103525000D01*
X75760000Y-103525000D02*
X75760000Y-124300000D01*
%TO.N,+5V_LOGIC*%
D20*
X24600000Y-93400000D02*
X24600000Y-86400000D01*
X24600000Y-81400000D02*
X24600000Y-86400000D01*
X36400000Y-87930000D02*
X36400000Y-85390000D01*
X36400000Y-93010000D02*
X36400000Y-90470000D01*
X24600000Y-98400000D02*
X24600000Y-93400000D01*
X36400000Y-90470000D02*
X36400000Y-87930000D01*
%TO.N,GND_LOGIC*%
X36200000Y-112330000D02*
X36200000Y-109790000D01*
X36200000Y-114870000D02*
X36200000Y-112330000D01*
X24600000Y-122400000D02*
X24600000Y-117400000D01*
X24600000Y-105400000D02*
X24600000Y-110400000D01*
X24600000Y-117400000D02*
X24600000Y-110400000D01*
X36200000Y-117410000D02*
X36200000Y-114870000D01*
%TO.N,PWM_CH9*%
D17*
X96780000Y-131948300D02*
X98489900Y-130238400D01*
X73468300Y-103778400D02*
X73468300Y-10058900D01*
X98489900Y-130238400D02*
X98489900Y-110091000D01*
X96780000Y-133200000D02*
X96780000Y-131948300D01*
%TO.N,PWM_CH6*%
X60960000Y-132500000D02*
X62408900Y-133948900D01*
X66958700Y-133948900D02*
X71290600Y-129617000D01*
X69371000Y-40403900D02*
X69371000Y-14801200D01*
X71290600Y-129617000D02*
X71290600Y-42323500D01*
X62408900Y-133948900D02*
X66958700Y-133948900D01*
X71290600Y-42323500D02*
X69371000Y-40403900D01*
%TO.N,SV7_PWR*%
D19*
X63500000Y-131628800D02*
X59168300Y-127297100D01*
X63500000Y-132500000D02*
X63500000Y-131628800D01*
X62620200Y-65164800D02*
X68885000Y-58900000D01*
X59168300Y-120677400D02*
X62620200Y-117225500D01*
X59168300Y-127297100D02*
X59168300Y-120677400D01*
X62620200Y-117225500D02*
X62620200Y-65164800D01*
%TO.N,PWM_CH8*%
D17*
X59288100Y-21471900D02*
X57785600Y-21471900D01*
X84960000Y-132500000D02*
X84960000Y-131248300D01*
X84960000Y-131248300D02*
X81340500Y-127628800D01*
X81340500Y-127628800D02*
X81340500Y-100122100D01*
X56793500Y-22464000D02*
X56793500Y-95219700D01*
X72860000Y-7900000D02*
X59288100Y-21471900D01*
X57785600Y-21471900D02*
X56793500Y-22464000D01*
%TO.N,SV9_PWR*%
D18*
X87500000Y-132500000D02*
X89053500Y-134053500D01*
X89053500Y-134053500D02*
X90702000Y-134053500D01*
X90702000Y-134053500D02*
X95668200Y-129087300D01*
X95668200Y-129087300D02*
X95668200Y-94275700D01*
%TO.N,PWM_CH4*%
D17*
X91910000Y-40071900D02*
X107199500Y-55361400D01*
X91170400Y-6648300D02*
X91910000Y-7387900D01*
X107199500Y-99497600D02*
X97220000Y-109477100D01*
X97220000Y-109477100D02*
X97220000Y-124300000D01*
X85560000Y-7900000D02*
X86811700Y-6648300D01*
X86811700Y-6648300D02*
X91170400Y-6648300D01*
X107199500Y-55361400D02*
X107199500Y-99497600D01*
X91910000Y-7387900D02*
X91910000Y-40071900D01*
%TO.N,SV5_PWR*%
D18*
X105385000Y-103900000D02*
X105385000Y-118675000D01*
X105385000Y-118675000D02*
X99760000Y-124300000D01*
%TO.N,PWM_CH7*%
D17*
X72960000Y-132500000D02*
X72960000Y-131248300D01*
X71892300Y-130180600D02*
X71892300Y-41745800D01*
X71490200Y-41343700D02*
X71490200Y-11311600D01*
X72960000Y-131248300D02*
X71892300Y-130180600D01*
X71892300Y-41745800D02*
X71490200Y-41343700D01*
%TO.N,SV8_PWR*%
D21*
X66532500Y-121598400D02*
X68644800Y-123710700D01*
X68885000Y-73900000D02*
X66532500Y-76252500D01*
X66532500Y-76252500D02*
X66532500Y-121598400D01*
X68644800Y-123710700D02*
X68644800Y-130565900D01*
%TO.N,SCL*%
D17*
X24600000Y-26400000D02*
X24600000Y-21400000D01*
X24600000Y-9400000D02*
X24600000Y-14400000D01*
X34900000Y-17000000D02*
X34900000Y-14460000D01*
X34900000Y-22080000D02*
X34900000Y-19540000D01*
X34900000Y-19540000D02*
X34900000Y-17000000D01*
X24600000Y-21400000D02*
X24600000Y-14400000D01*
%TO.N,+5V_SERVO*%
D21*
X46685000Y-98974100D02*
X46685000Y-88900000D01*
X53647100Y-99048500D02*
X53572700Y-98974100D01*
X46685000Y-103900000D02*
X46685000Y-98974100D01*
X53572700Y-98974100D02*
X46685000Y-98974100D01*
X122900000Y-78000000D02*
X122900000Y-83000000D01*
%TO.N,+7V4*%
D19*
X122900000Y-66000000D02*
X122900000Y-71000000D01*
X80560200Y-71275200D02*
X75725000Y-71275200D01*
X83185000Y-73900000D02*
X80560200Y-71275200D01*
%TO.N,PWM_CH12*%
D17*
X108156900Y-132539100D02*
X108156900Y-5444900D01*
%TD*%
%TA.AperFunction,Conductor*%
%TO.N,+12V*%
G36*
X129725500Y-5119962D02*
G01*
X129780038Y-5174500D01*
X129800000Y-5249000D01*
X129800000Y-139151000D01*
X129780038Y-139225500D01*
X129725500Y-139280038D01*
X129651000Y-139300000D01*
X74199000Y-139300000D01*
X74124500Y-139280038D01*
X74069962Y-139225500D01*
X74050000Y-139151000D01*
X74050000Y-135678706D01*
X124449500Y-135678706D01*
X124449500Y-135921293D01*
X124481160Y-136161781D01*
X124481161Y-136161787D01*
X124481162Y-136161789D01*
X124543946Y-136396100D01*
X124636776Y-136620212D01*
X124758064Y-136830289D01*
X124905735Y-137022738D01*
X125077262Y-137194265D01*
X125269711Y-137341936D01*
X125479788Y-137463224D01*
X125703900Y-137556054D01*
X125938211Y-137618838D01*
X125938217Y-137618838D01*
X125938218Y-137618839D01*
X126003600Y-137627446D01*
X126178712Y-137650500D01*
X126421288Y-137650500D01*
X126661789Y-137618838D01*
X126896100Y-137556054D01*
X127120212Y-137463224D01*
X127330289Y-137341936D01*
X127522738Y-137194265D01*
X127694265Y-137022738D01*
X127841936Y-136830289D01*
X127963224Y-136620212D01*
X128056054Y-136396100D01*
X128118838Y-136161789D01*
X128150500Y-135921288D01*
X128150500Y-135678712D01*
X128118838Y-135438211D01*
X128056054Y-135203900D01*
X127963224Y-134979788D01*
X127841936Y-134769711D01*
X127694265Y-134577262D01*
X127522738Y-134405735D01*
X127330289Y-134258064D01*
X127225159Y-134197367D01*
X127120216Y-134136778D01*
X127120214Y-134136777D01*
X127120212Y-134136776D01*
X126928784Y-134057484D01*
X126896103Y-134043947D01*
X126896101Y-134043946D01*
X126896100Y-134043946D01*
X126661789Y-133981162D01*
X126661787Y-133981161D01*
X126661781Y-133981160D01*
X126421293Y-133949500D01*
X126421288Y-133949500D01*
X126178712Y-133949500D01*
X126178706Y-133949500D01*
X125938218Y-133981160D01*
X125703896Y-134043947D01*
X125479783Y-134136778D01*
X125269712Y-134258063D01*
X125269711Y-134258064D01*
X125077262Y-134405735D01*
X125077260Y-134405736D01*
X125077256Y-134405740D01*
X124905740Y-134577256D01*
X124905736Y-134577260D01*
X124905735Y-134577262D01*
X124863909Y-134631771D01*
X124758063Y-134769712D01*
X124636778Y-134979783D01*
X124543947Y-135203896D01*
X124481160Y-135438218D01*
X124449500Y-135678706D01*
X74050000Y-135678706D01*
X74050000Y-133870124D01*
X74069962Y-133795624D01*
X74109706Y-133750844D01*
X74167546Y-133707546D01*
X74253796Y-133592331D01*
X74253797Y-133592329D01*
X74253798Y-133592327D01*
X74289215Y-133497367D01*
X74333953Y-133434540D01*
X74404110Y-133402498D01*
X74480889Y-133409829D01*
X74534180Y-133444076D01*
X74620208Y-133530104D01*
X74792184Y-133655051D01*
X74981588Y-133751557D01*
X75183757Y-133817246D01*
X75393713Y-133850500D01*
X75393718Y-133850500D01*
X75606282Y-133850500D01*
X75606287Y-133850500D01*
X75816243Y-133817246D01*
X76018412Y-133751557D01*
X76207816Y-133655051D01*
X76379792Y-133530104D01*
X76530104Y-133379792D01*
X76649456Y-133215517D01*
X76709396Y-133166979D01*
X76785574Y-133154913D01*
X76857580Y-133182553D01*
X76890544Y-133215517D01*
X77009896Y-133379792D01*
X77160208Y-133530104D01*
X77332184Y-133655051D01*
X77521588Y-133751557D01*
X77723757Y-133817246D01*
X77850308Y-133837289D01*
X77884012Y-133846795D01*
X77928681Y-133865298D01*
X78181984Y-133933171D01*
X78181990Y-133933171D01*
X78181991Y-133933172D01*
X78252679Y-133942477D01*
X78441980Y-133967399D01*
X78704220Y-133967399D01*
X78964216Y-133933171D01*
X79217519Y-133865298D01*
X79217525Y-133865295D01*
X79217527Y-133865295D01*
X79268717Y-133844091D01*
X79459797Y-133764943D01*
X79686902Y-133633824D01*
X79894951Y-133474183D01*
X80080583Y-133288551D01*
X80196272Y-133137782D01*
X80240224Y-133080503D01*
X80371343Y-132853397D01*
X80468841Y-132618016D01*
X80471695Y-132611127D01*
X80471695Y-132611125D01*
X80471698Y-132611119D01*
X80482986Y-132568993D01*
X80539571Y-132357815D01*
X80539572Y-132357806D01*
X80539574Y-132357797D01*
X80559272Y-132208167D01*
X80559272Y-132208164D01*
X80573800Y-132097821D01*
X80573800Y-128212475D01*
X80593762Y-128137975D01*
X80648300Y-128083437D01*
X80722800Y-128063475D01*
X80797300Y-128083437D01*
X80828159Y-128107116D01*
X83780150Y-131059107D01*
X83818714Y-131125902D01*
X83818714Y-131203030D01*
X83780150Y-131269825D01*
X83764090Y-131283742D01*
X83752455Y-131292452D01*
X83752452Y-131292455D01*
X83666204Y-131407666D01*
X83666202Y-131407670D01*
X83615908Y-131542517D01*
X83609500Y-131602114D01*
X83609500Y-133397863D01*
X83609502Y-133397888D01*
X83615908Y-133457478D01*
X83615909Y-133457484D01*
X83666202Y-133592329D01*
X83666204Y-133592333D01*
X83752452Y-133707544D01*
X83752455Y-133707547D01*
X83867666Y-133793795D01*
X83867670Y-133793797D01*
X84002517Y-133844091D01*
X84062114Y-133850499D01*
X84062118Y-133850499D01*
X84062127Y-133850500D01*
X85857872Y-133850499D01*
X85917483Y-133844091D01*
X86047430Y-133795624D01*
X86052329Y-133793797D01*
X86052333Y-133793795D01*
X86109938Y-133750671D01*
X86167546Y-133707546D01*
X86253796Y-133592331D01*
X86253797Y-133592329D01*
X86253798Y-133592327D01*
X86289215Y-133497367D01*
X86333953Y-133434540D01*
X86404110Y-133402498D01*
X86480889Y-133409829D01*
X86534180Y-133444076D01*
X86620208Y-133530104D01*
X86792184Y-133655051D01*
X86981588Y-133751557D01*
X87183757Y-133817246D01*
X87393713Y-133850500D01*
X87393721Y-133850500D01*
X87395640Y-133850804D01*
X87466100Y-133882175D01*
X87477690Y-133892610D01*
X88276360Y-134691281D01*
X88276361Y-134691282D01*
X88415718Y-134830639D01*
X88471693Y-134868040D01*
X88579582Y-134940130D01*
X88579584Y-134940131D01*
X88579586Y-134940132D01*
X88675325Y-134979788D01*
X88761664Y-135015551D01*
X88858312Y-135034775D01*
X88954959Y-135054000D01*
X88954960Y-135054000D01*
X88954963Y-135054000D01*
X90800537Y-135054000D01*
X90800540Y-135054000D01*
X90800541Y-135054000D01*
X90897188Y-135034775D01*
X90993836Y-135015551D01*
X91080175Y-134979788D01*
X91175914Y-134940132D01*
X91339782Y-134830639D01*
X91479139Y-134691282D01*
X91479139Y-134691280D01*
X91491401Y-134679019D01*
X91491404Y-134679014D01*
X96445339Y-129725082D01*
X96536968Y-129587949D01*
X96554832Y-129561214D01*
X96630251Y-129379135D01*
X96668700Y-129185841D01*
X96668700Y-125799499D01*
X96688662Y-125724999D01*
X96743200Y-125670461D01*
X96817700Y-125650499D01*
X97640400Y-125650499D01*
X97714900Y-125670461D01*
X97769438Y-125724999D01*
X97789400Y-125799499D01*
X97789400Y-129886525D01*
X97769438Y-129961025D01*
X97745759Y-129991884D01*
X96235889Y-131501753D01*
X96235885Y-131501758D01*
X96159228Y-131616484D01*
X96159220Y-131616497D01*
X96103619Y-131750734D01*
X96102449Y-131750249D01*
X96065746Y-131809261D01*
X95997721Y-131845611D01*
X95963904Y-131849500D01*
X95882137Y-131849500D01*
X95882111Y-131849502D01*
X95822521Y-131855908D01*
X95822515Y-131855909D01*
X95687670Y-131906202D01*
X95687666Y-131906204D01*
X95572455Y-131992452D01*
X95572452Y-131992455D01*
X95486204Y-132107666D01*
X95486202Y-132107670D01*
X95435908Y-132242517D01*
X95429500Y-132302114D01*
X95429500Y-134097863D01*
X95429502Y-134097888D01*
X95435908Y-134157478D01*
X95435909Y-134157484D01*
X95486202Y-134292329D01*
X95486204Y-134292333D01*
X95572452Y-134407544D01*
X95572455Y-134407547D01*
X95687666Y-134493795D01*
X95687670Y-134493797D01*
X95822517Y-134544091D01*
X95882114Y-134550499D01*
X95882118Y-134550499D01*
X95882127Y-134550500D01*
X97677872Y-134550499D01*
X97737483Y-134544091D01*
X97833447Y-134508298D01*
X97872329Y-134493797D01*
X97872333Y-134493795D01*
X97938728Y-134444091D01*
X97987546Y-134407546D01*
X98030671Y-134349938D01*
X98073795Y-134292333D01*
X98073798Y-134292327D01*
X98109215Y-134197367D01*
X98153953Y-134134540D01*
X98224110Y-134102498D01*
X98300889Y-134109829D01*
X98354180Y-134144076D01*
X98440208Y-134230104D01*
X98612184Y-134355051D01*
X98801588Y-134451557D01*
X99003757Y-134517246D01*
X99213713Y-134550500D01*
X99213718Y-134550500D01*
X99426282Y-134550500D01*
X99426287Y-134550500D01*
X99636243Y-134517246D01*
X99838412Y-134451557D01*
X100027816Y-134355051D01*
X100199792Y-134230104D01*
X100350104Y-134079792D01*
X100469456Y-133915517D01*
X100529396Y-133866979D01*
X100605574Y-133854913D01*
X100677580Y-133882553D01*
X100710544Y-133915517D01*
X100829896Y-134079792D01*
X100980208Y-134230104D01*
X101152184Y-134355051D01*
X101341588Y-134451557D01*
X101543757Y-134517246D01*
X101678047Y-134538515D01*
X101711751Y-134548020D01*
X101750081Y-134563898D01*
X102003384Y-134631771D01*
X102003390Y-134631771D01*
X102003391Y-134631772D01*
X102074079Y-134641077D01*
X102263380Y-134665999D01*
X102525620Y-134665999D01*
X102785616Y-134631771D01*
X103038919Y-134563898D01*
X103038925Y-134563895D01*
X103038927Y-134563895D01*
X103100201Y-134538514D01*
X103281197Y-134463543D01*
X103508302Y-134332424D01*
X103716351Y-134172783D01*
X104340383Y-133548751D01*
X104442462Y-133415719D01*
X104500024Y-133340703D01*
X104631143Y-133113597D01*
X104731498Y-132871319D01*
X104732749Y-132866648D01*
X104742084Y-132831813D01*
X104742084Y-132831812D01*
X104757950Y-132772598D01*
X104799371Y-132618016D01*
X104825063Y-132422861D01*
X104829543Y-132388831D01*
X104833600Y-132358021D01*
X104833600Y-124701978D01*
X104833599Y-124701976D01*
X104816076Y-124568880D01*
X104799370Y-124441984D01*
X104731498Y-124188681D01*
X104631143Y-123946403D01*
X104500024Y-123719297D01*
X104500021Y-123719293D01*
X104500021Y-123719292D01*
X104340384Y-123511251D01*
X104154948Y-123325815D01*
X103946906Y-123166178D01*
X103940911Y-123162717D01*
X103841501Y-123105323D01*
X103719801Y-123035059D01*
X103719799Y-123035058D01*
X103719797Y-123035057D01*
X103637670Y-123001039D01*
X103477516Y-122934700D01*
X103251355Y-122874102D01*
X103224216Y-122866830D01*
X103224214Y-122866829D01*
X103224208Y-122866828D01*
X102979324Y-122834588D01*
X102908067Y-122805072D01*
X102861115Y-122743882D01*
X102851048Y-122667414D01*
X102880564Y-122596157D01*
X102893405Y-122581513D01*
X106162139Y-119312782D01*
X106271632Y-119148914D01*
X106347051Y-118966835D01*
X106385500Y-118773541D01*
X106385500Y-105601295D01*
X106405462Y-105526795D01*
X106443791Y-105483089D01*
X106640776Y-105331938D01*
X106816938Y-105155776D01*
X106968599Y-104958127D01*
X107093164Y-104742373D01*
X107169742Y-104557496D01*
X107216695Y-104496307D01*
X107287952Y-104466792D01*
X107364420Y-104476859D01*
X107425610Y-104523812D01*
X107455125Y-104595069D01*
X107456400Y-104614517D01*
X107456400Y-132108811D01*
X107445058Y-132165830D01*
X107387163Y-132305601D01*
X107387162Y-132305605D01*
X107356400Y-132460257D01*
X107356400Y-132617942D01*
X107387162Y-132772594D01*
X107387163Y-132772598D01*
X107447504Y-132918276D01*
X107447505Y-132918278D01*
X107447506Y-132918279D01*
X107535111Y-133049389D01*
X107646611Y-133160889D01*
X107777721Y-133248494D01*
X107923403Y-133308837D01*
X108078058Y-133339600D01*
X108235742Y-133339600D01*
X108390397Y-133308837D01*
X108536079Y-133248494D01*
X108667189Y-133160889D01*
X108778689Y-133049389D01*
X108866294Y-132918279D01*
X108926637Y-132772597D01*
X108957400Y-132617942D01*
X108957400Y-132460258D01*
X108926637Y-132305603D01*
X108883771Y-132202114D01*
X115089500Y-132202114D01*
X115089500Y-133997863D01*
X115089502Y-133997888D01*
X115095908Y-134057478D01*
X115095909Y-134057484D01*
X115146202Y-134192329D01*
X115146204Y-134192333D01*
X115232452Y-134307544D01*
X115232455Y-134307547D01*
X115347666Y-134393795D01*
X115347670Y-134393797D01*
X115482517Y-134444091D01*
X115542114Y-134450499D01*
X115542118Y-134450499D01*
X115542127Y-134450500D01*
X117337872Y-134450499D01*
X117397483Y-134444091D01*
X117495471Y-134407544D01*
X117532329Y-134393797D01*
X117532333Y-134393795D01*
X117614313Y-134332424D01*
X117647546Y-134307546D01*
X117705521Y-134230102D01*
X117733795Y-134192333D01*
X117733797Y-134192329D01*
X117764567Y-134109829D01*
X117784091Y-134057483D01*
X117785823Y-134041370D01*
X117790499Y-133997885D01*
X117790499Y-133997882D01*
X117790500Y-133997873D01*
X117790499Y-133785529D01*
X117810461Y-133711033D01*
X117834140Y-133680173D01*
X118414314Y-133099999D01*
X117834140Y-132519825D01*
X117795576Y-132453030D01*
X117790499Y-132414466D01*
X117790499Y-132202136D01*
X117790499Y-132202128D01*
X117784091Y-132142517D01*
X117769588Y-132103633D01*
X117733797Y-132007670D01*
X117733795Y-132007666D01*
X117647547Y-131892455D01*
X117647544Y-131892452D01*
X117532333Y-131806204D01*
X117532329Y-131806202D01*
X117397482Y-131755908D01*
X117337876Y-131749500D01*
X115542136Y-131749500D01*
X115542111Y-131749502D01*
X115482521Y-131755908D01*
X115482515Y-131755909D01*
X115347670Y-131806202D01*
X115347666Y-131806204D01*
X115232455Y-131892452D01*
X115232452Y-131892455D01*
X115146204Y-132007666D01*
X115146202Y-132007670D01*
X115095908Y-132142517D01*
X115089500Y-132202114D01*
X108883771Y-132202114D01*
X108883770Y-132202111D01*
X108868742Y-132165830D01*
X108857400Y-132108811D01*
X108857400Y-124660200D01*
X108877362Y-124585700D01*
X108931900Y-124531162D01*
X109006400Y-124511200D01*
X109077242Y-124511200D01*
X109231897Y-124480437D01*
X109377579Y-124420094D01*
X109508689Y-124332489D01*
X109620189Y-124220989D01*
X109707794Y-124089879D01*
X109768137Y-123944197D01*
X109796399Y-123802114D01*
X115109500Y-123802114D01*
X115109500Y-125597863D01*
X115109502Y-125597888D01*
X115115908Y-125657478D01*
X115115909Y-125657484D01*
X115166202Y-125792329D01*
X115166204Y-125792333D01*
X115252452Y-125907544D01*
X115252455Y-125907547D01*
X115367666Y-125993795D01*
X115367670Y-125993797D01*
X115502517Y-126044091D01*
X115562114Y-126050499D01*
X115562118Y-126050499D01*
X115562127Y-126050500D01*
X117357872Y-126050499D01*
X117417483Y-126044091D01*
X117513447Y-126008298D01*
X117552329Y-125993797D01*
X117552333Y-125993795D01*
X117609938Y-125950671D01*
X117667546Y-125907546D01*
X117753796Y-125792331D01*
X117753797Y-125792329D01*
X117753798Y-125792327D01*
X117789215Y-125697367D01*
X117833953Y-125634540D01*
X117904110Y-125602498D01*
X117980889Y-125609829D01*
X118034180Y-125644076D01*
X118120208Y-125730104D01*
X118292184Y-125855051D01*
X118481588Y-125951557D01*
X118683757Y-126017246D01*
X118893713Y-126050500D01*
X118893718Y-126050500D01*
X119106282Y-126050500D01*
X119106287Y-126050500D01*
X119316243Y-126017246D01*
X119518412Y-125951557D01*
X119707816Y-125855051D01*
X119724453Y-125842962D01*
X119796455Y-125815321D01*
X119872634Y-125827383D01*
X119930245Y-125872798D01*
X120041083Y-126017246D01*
X120044618Y-126021852D01*
X120156159Y-126133393D01*
X120194723Y-126200188D01*
X120199800Y-126238752D01*
X120199800Y-130709348D01*
X120179838Y-130783848D01*
X120156159Y-130814707D01*
X120042718Y-130928147D01*
X119956190Y-131040914D01*
X119956189Y-131040915D01*
X119883078Y-131136192D01*
X119883078Y-131136193D01*
X119819173Y-131246880D01*
X119755270Y-131357564D01*
X119755268Y-131357568D01*
X119755267Y-131357567D01*
X119751957Y-131363301D01*
X119651604Y-131605572D01*
X119651604Y-131605573D01*
X119619978Y-131723602D01*
X119581413Y-131790397D01*
X119514618Y-131828960D01*
X119437490Y-131828960D01*
X119430011Y-131826744D01*
X119296126Y-131783242D01*
X119086242Y-131750000D01*
X118873758Y-131750000D01*
X118663871Y-131783242D01*
X118461789Y-131848902D01*
X118461774Y-131848908D01*
X118351024Y-131905339D01*
X119045685Y-132600000D01*
X118914174Y-132600000D01*
X118787007Y-132634075D01*
X118672993Y-132699901D01*
X118579901Y-132792993D01*
X118514075Y-132907007D01*
X118480000Y-133034174D01*
X118480000Y-133165826D01*
X118514075Y-133292993D01*
X118579901Y-133407007D01*
X118672993Y-133500099D01*
X118787007Y-133565925D01*
X118914174Y-133600000D01*
X119045684Y-133600000D01*
X118351024Y-134294659D01*
X118461782Y-134351094D01*
X118461787Y-134351096D01*
X118663871Y-134416757D01*
X118873758Y-134450000D01*
X119086242Y-134450000D01*
X119296128Y-134416757D01*
X119498220Y-134351093D01*
X119687553Y-134254623D01*
X119730550Y-134223383D01*
X119802555Y-134195741D01*
X119878733Y-134207806D01*
X119936341Y-134253219D01*
X120042715Y-134391848D01*
X120228151Y-134577284D01*
X120436193Y-134736921D01*
X120436197Y-134736924D01*
X120663303Y-134868043D01*
X120837336Y-134940130D01*
X120905583Y-134968399D01*
X120993332Y-134991910D01*
X121158884Y-135036270D01*
X121158890Y-135036270D01*
X121158891Y-135036271D01*
X121195834Y-135041134D01*
X121418877Y-135070499D01*
X121418878Y-135070500D01*
X121418880Y-135070500D01*
X121681122Y-135070500D01*
X121681122Y-135070499D01*
X121941108Y-135036271D01*
X121941110Y-135036271D01*
X121941111Y-135036270D01*
X121941116Y-135036270D01*
X122194415Y-134968399D01*
X122194416Y-134968399D01*
X122194417Y-134968398D01*
X122194419Y-134968398D01*
X122436697Y-134868043D01*
X122663803Y-134736924D01*
X122871848Y-134577284D01*
X122871849Y-134577284D01*
X123057284Y-134391849D01*
X123057284Y-134391848D01*
X123088555Y-134351096D01*
X123216924Y-134183803D01*
X123348043Y-133956697D01*
X123448398Y-133714419D01*
X123516270Y-133461116D01*
X123550500Y-133201120D01*
X123550500Y-132388831D01*
X123550699Y-132382762D01*
X123550699Y-132118680D01*
X123550698Y-132118674D01*
X123549249Y-132107670D01*
X123520917Y-131892454D01*
X123516472Y-131858691D01*
X123516471Y-131858690D01*
X123516471Y-131858684D01*
X123448598Y-131605381D01*
X123448596Y-131605376D01*
X123448595Y-131605372D01*
X123386288Y-131454952D01*
X123348243Y-131363103D01*
X123217124Y-131135998D01*
X123057483Y-130927949D01*
X122944241Y-130814707D01*
X122905677Y-130747912D01*
X122900600Y-130709348D01*
X122900600Y-126242152D01*
X122920562Y-126167652D01*
X122944241Y-126136793D01*
X123673218Y-125407816D01*
X124407283Y-124673751D01*
X124487753Y-124568880D01*
X124566924Y-124465703D01*
X124698043Y-124238597D01*
X124798398Y-123996319D01*
X124824088Y-123900444D01*
X124866271Y-123743016D01*
X124884089Y-123607669D01*
X124884778Y-123602438D01*
X124884778Y-123602436D01*
X124887176Y-123584220D01*
X124900500Y-123483020D01*
X124900500Y-106868880D01*
X124900500Y-101868880D01*
X124900500Y-94868880D01*
X124900500Y-89868880D01*
X124866270Y-89608884D01*
X124798398Y-89355581D01*
X124698043Y-89113303D01*
X124566924Y-88886197D01*
X124566921Y-88886193D01*
X124566921Y-88886192D01*
X124407284Y-88678151D01*
X124221848Y-88492715D01*
X124013806Y-88333078D01*
X123786701Y-88201959D01*
X123786699Y-88201958D01*
X123786697Y-88201957D01*
X123711154Y-88170666D01*
X123544416Y-88101600D01*
X123318255Y-88041002D01*
X123291116Y-88033730D01*
X123291114Y-88033729D01*
X123291108Y-88033728D01*
X123031123Y-87999500D01*
X123031120Y-87999500D01*
X122768880Y-87999500D01*
X122768876Y-87999500D01*
X122508892Y-88033728D01*
X122508889Y-88033728D01*
X122255584Y-88101600D01*
X122255583Y-88101600D01*
X122013298Y-88201959D01*
X121786193Y-88333078D01*
X121786192Y-88333078D01*
X121578151Y-88492715D01*
X121578151Y-88492716D01*
X121578149Y-88492718D01*
X121392718Y-88678149D01*
X121392716Y-88678151D01*
X121392715Y-88678151D01*
X121233078Y-88886192D01*
X121233078Y-88886193D01*
X121101959Y-89113298D01*
X121001600Y-89355583D01*
X121001600Y-89355584D01*
X120933728Y-89608889D01*
X120933728Y-89608892D01*
X120899500Y-89868876D01*
X120899500Y-122461548D01*
X120879538Y-122536048D01*
X120855859Y-122566907D01*
X120044618Y-123378147D01*
X120044617Y-123378148D01*
X119930245Y-123527201D01*
X119869055Y-123574153D01*
X119792587Y-123584220D01*
X119724457Y-123557039D01*
X119707818Y-123544950D01*
X119700164Y-123541050D01*
X119518412Y-123448443D01*
X119316243Y-123382754D01*
X119106287Y-123349500D01*
X118893713Y-123349500D01*
X118718749Y-123377211D01*
X118683756Y-123382754D01*
X118481594Y-123448441D01*
X118481588Y-123448443D01*
X118481582Y-123448445D01*
X118481582Y-123448446D01*
X118292182Y-123544950D01*
X118292181Y-123544950D01*
X118120209Y-123669895D01*
X118120198Y-123669904D01*
X118034179Y-123755923D01*
X117967384Y-123794487D01*
X117890256Y-123794487D01*
X117823462Y-123755922D01*
X117789215Y-123702633D01*
X117777005Y-123669896D01*
X117753796Y-123607669D01*
X117753795Y-123607668D01*
X117753795Y-123607666D01*
X117667547Y-123492455D01*
X117667544Y-123492452D01*
X117552333Y-123406204D01*
X117552329Y-123406202D01*
X117417482Y-123355908D01*
X117357876Y-123349500D01*
X115562136Y-123349500D01*
X115562111Y-123349502D01*
X115502521Y-123355908D01*
X115502515Y-123355909D01*
X115367670Y-123406202D01*
X115367666Y-123406204D01*
X115252455Y-123492452D01*
X115252452Y-123492455D01*
X115166204Y-123607666D01*
X115166202Y-123607670D01*
X115115908Y-123742517D01*
X115109500Y-123802114D01*
X109796399Y-123802114D01*
X109798900Y-123789542D01*
X109798900Y-123631858D01*
X109794088Y-123607669D01*
X109781613Y-123544950D01*
X109768137Y-123477203D01*
X109744742Y-123420723D01*
X109710242Y-123337430D01*
X109698900Y-123280411D01*
X109698900Y-77875429D01*
X120999500Y-77875429D01*
X120999500Y-78124570D01*
X121032016Y-78371557D01*
X121032017Y-78371563D01*
X121032018Y-78371565D01*
X121096498Y-78612207D01*
X121191836Y-78842373D01*
X121316401Y-79058127D01*
X121468062Y-79255776D01*
X121468063Y-79255777D01*
X121605859Y-79393573D01*
X121644423Y-79460368D01*
X121649500Y-79498932D01*
X121649500Y-80985077D01*
X121629538Y-81059577D01*
X121575000Y-81114115D01*
X121547369Y-81126514D01*
X121430662Y-81165187D01*
X121281344Y-81257289D01*
X121157289Y-81381344D01*
X121065187Y-81530663D01*
X121010001Y-81697201D01*
X121010001Y-81697203D01*
X120999500Y-81799992D01*
X120999500Y-84200008D01*
X121010001Y-84302797D01*
X121065186Y-84469334D01*
X121157289Y-84618655D01*
X121281345Y-84742711D01*
X121430666Y-84834814D01*
X121597203Y-84889999D01*
X121699992Y-84900500D01*
X121699996Y-84900500D01*
X124100004Y-84900500D01*
X124100008Y-84900500D01*
X124202797Y-84889999D01*
X124369334Y-84834814D01*
X124518655Y-84742711D01*
X124642711Y-84618655D01*
X124734814Y-84469334D01*
X124789999Y-84302797D01*
X124800500Y-84200008D01*
X124800500Y-81799992D01*
X124789999Y-81697203D01*
X124734814Y-81530666D01*
X124642711Y-81381345D01*
X124518655Y-81257289D01*
X124369337Y-81165187D01*
X124252631Y-81126514D01*
X124188192Y-81084130D01*
X124153578Y-81015206D01*
X124150500Y-80985077D01*
X124150500Y-79498932D01*
X124170462Y-79424432D01*
X124194141Y-79393573D01*
X124331938Y-79255776D01*
X124483599Y-79058127D01*
X124608164Y-78842373D01*
X124703502Y-78612207D01*
X124767982Y-78371565D01*
X124800500Y-78124565D01*
X124800500Y-77875435D01*
X124767982Y-77628435D01*
X124703502Y-77387793D01*
X124608164Y-77157627D01*
X124483599Y-76941873D01*
X124331938Y-76744224D01*
X124155776Y-76568062D01*
X123958127Y-76416401D01*
X123886209Y-76374879D01*
X123742377Y-76291838D01*
X123742375Y-76291837D01*
X123742373Y-76291836D01*
X123607548Y-76235989D01*
X123512210Y-76196499D01*
X123512208Y-76196498D01*
X123512207Y-76196498D01*
X123271565Y-76132018D01*
X123271563Y-76132017D01*
X123271557Y-76132016D01*
X123024570Y-76099500D01*
X123024565Y-76099500D01*
X122775435Y-76099500D01*
X122775429Y-76099500D01*
X122528442Y-76132016D01*
X122287789Y-76196499D01*
X122057622Y-76291838D01*
X121841874Y-76416400D01*
X121644222Y-76568063D01*
X121468063Y-76744222D01*
X121316400Y-76941874D01*
X121191838Y-77157622D01*
X121096499Y-77387789D01*
X121032016Y-77628442D01*
X120999500Y-77875429D01*
X109698900Y-77875429D01*
X109698900Y-65875429D01*
X120999500Y-65875429D01*
X120999500Y-66124570D01*
X121032016Y-66371557D01*
X121032017Y-66371563D01*
X121032018Y-66371565D01*
X121096498Y-66612207D01*
X121191836Y-66842373D01*
X121316401Y-67058127D01*
X121368710Y-67126297D01*
X121398225Y-67197554D01*
X121399500Y-67217002D01*
X121399500Y-69101250D01*
X121379538Y-69175750D01*
X121328724Y-69228064D01*
X121281345Y-69257289D01*
X121281342Y-69257291D01*
X121157289Y-69381344D01*
X121065187Y-69530663D01*
X121010001Y-69697201D01*
X121010001Y-69697203D01*
X120999500Y-69799992D01*
X120999500Y-72200008D01*
X121001504Y-72219621D01*
X121010001Y-72302798D01*
X121014509Y-72316401D01*
X121065186Y-72469334D01*
X121157289Y-72618655D01*
X121281345Y-72742711D01*
X121430666Y-72834814D01*
X121597203Y-72889999D01*
X121699992Y-72900500D01*
X121699996Y-72900500D01*
X124100004Y-72900500D01*
X124100008Y-72900500D01*
X124202797Y-72889999D01*
X124369334Y-72834814D01*
X124518655Y-72742711D01*
X124642711Y-72618655D01*
X124734814Y-72469334D01*
X124789999Y-72302797D01*
X124800500Y-72200008D01*
X124800500Y-69799992D01*
X124789999Y-69697203D01*
X124734814Y-69530666D01*
X124642711Y-69381345D01*
X124518655Y-69257289D01*
X124471275Y-69228064D01*
X124418349Y-69171964D01*
X124400500Y-69101250D01*
X124400500Y-67217002D01*
X124420462Y-67142502D01*
X124431290Y-67126297D01*
X124483599Y-67058127D01*
X124608164Y-66842373D01*
X124703502Y-66612207D01*
X124767982Y-66371565D01*
X124800500Y-66124565D01*
X124800500Y-65875435D01*
X124767982Y-65628435D01*
X124703502Y-65387793D01*
X124608164Y-65157627D01*
X124483599Y-64941873D01*
X124331938Y-64744224D01*
X124155776Y-64568062D01*
X123958127Y-64416401D01*
X123886209Y-64374879D01*
X123742377Y-64291838D01*
X123742375Y-64291837D01*
X123742373Y-64291836D01*
X123607548Y-64235989D01*
X123512210Y-64196499D01*
X123512208Y-64196498D01*
X123512207Y-64196498D01*
X123271565Y-64132018D01*
X123271563Y-64132017D01*
X123271557Y-64132016D01*
X123024570Y-64099500D01*
X123024565Y-64099500D01*
X122775435Y-64099500D01*
X122775429Y-64099500D01*
X122528442Y-64132016D01*
X122287789Y-64196499D01*
X122057622Y-64291838D01*
X121841874Y-64416400D01*
X121644222Y-64568063D01*
X121468063Y-64744222D01*
X121316400Y-64941874D01*
X121191838Y-65157622D01*
X121096499Y-65387789D01*
X121032016Y-65628442D01*
X120999500Y-65875429D01*
X109698900Y-65875429D01*
X109698900Y-57800011D01*
X121000000Y-57800011D01*
X121000000Y-58600000D01*
X122385523Y-58600000D01*
X122323978Y-58692110D01*
X122274979Y-58810402D01*
X122250000Y-58935981D01*
X122250000Y-59064019D01*
X122274979Y-59189598D01*
X122323978Y-59307890D01*
X122385523Y-59400000D01*
X121000000Y-59400000D01*
X121000000Y-60199988D01*
X121010492Y-60302687D01*
X121010494Y-60302696D01*
X121065642Y-60469120D01*
X121157680Y-60618339D01*
X121281660Y-60742319D01*
X121430879Y-60834357D01*
X121597303Y-60889505D01*
X121597312Y-60889507D01*
X121700011Y-60899999D01*
X121700022Y-60900000D01*
X122500000Y-60900000D01*
X122500000Y-59514476D01*
X122592110Y-59576022D01*
X122710402Y-59625021D01*
X122835981Y-59650000D01*
X122964019Y-59650000D01*
X123089598Y-59625021D01*
X123207890Y-59576022D01*
X123300000Y-59514476D01*
X123300000Y-60900000D01*
X124099978Y-60900000D01*
X124099988Y-60899999D01*
X124202687Y-60889507D01*
X124202696Y-60889505D01*
X124369120Y-60834357D01*
X124518339Y-60742319D01*
X124642319Y-60618339D01*
X124734357Y-60469120D01*
X124789505Y-60302696D01*
X124789507Y-60302687D01*
X124799999Y-60199988D01*
X124800000Y-60199978D01*
X124800000Y-59400000D01*
X123414477Y-59400000D01*
X123476022Y-59307890D01*
X123525021Y-59189598D01*
X123550000Y-59064019D01*
X123550000Y-58935981D01*
X123525021Y-58810402D01*
X123476022Y-58692110D01*
X123414477Y-58600000D01*
X124800000Y-58600000D01*
X124800000Y-57800021D01*
X124799999Y-57800011D01*
X124789507Y-57697312D01*
X124789505Y-57697303D01*
X124734357Y-57530879D01*
X124642319Y-57381660D01*
X124518339Y-57257680D01*
X124369120Y-57165642D01*
X124202696Y-57110494D01*
X124202687Y-57110492D01*
X124099988Y-57100000D01*
X123300000Y-57100000D01*
X123300000Y-58485523D01*
X123207890Y-58423978D01*
X123089598Y-58374979D01*
X122964019Y-58350000D01*
X122835981Y-58350000D01*
X122710402Y-58374979D01*
X122592110Y-58423978D01*
X122500000Y-58485523D01*
X122500000Y-57100000D01*
X121700011Y-57100000D01*
X121597312Y-57110492D01*
X121597303Y-57110494D01*
X121430879Y-57165642D01*
X121281660Y-57257680D01*
X121157680Y-57381660D01*
X121065642Y-57530879D01*
X121010494Y-57697303D01*
X121010492Y-57697312D01*
X121000000Y-57800011D01*
X109698900Y-57800011D01*
X109698900Y-53875461D01*
X121000000Y-53875461D01*
X121000000Y-54124538D01*
X121032507Y-54371459D01*
X121096973Y-54612048D01*
X121192287Y-54842156D01*
X121302048Y-55032265D01*
X122253367Y-54080946D01*
X122274979Y-54189598D01*
X122323978Y-54307890D01*
X122395112Y-54414351D01*
X122485649Y-54504888D01*
X122592110Y-54576022D01*
X122710402Y-54625021D01*
X122819052Y-54646632D01*
X121867733Y-55597950D01*
X122057849Y-55707714D01*
X122287951Y-55803026D01*
X122528540Y-55867492D01*
X122775461Y-55899999D01*
X122775467Y-55900000D01*
X123024533Y-55900000D01*
X123024538Y-55899999D01*
X123271459Y-55867492D01*
X123512048Y-55803026D01*
X123742150Y-55707714D01*
X123932265Y-55597950D01*
X122980947Y-54646632D01*
X123089598Y-54625021D01*
X123207890Y-54576022D01*
X123314351Y-54504888D01*
X123404888Y-54414351D01*
X123476022Y-54307890D01*
X123525021Y-54189598D01*
X123546632Y-54080947D01*
X124497950Y-55032265D01*
X124607714Y-54842150D01*
X124703026Y-54612048D01*
X124767492Y-54371459D01*
X124799999Y-54124538D01*
X124800000Y-54124533D01*
X124800000Y-53875467D01*
X124799999Y-53875461D01*
X124767492Y-53628540D01*
X124703026Y-53387951D01*
X124607714Y-53157849D01*
X124497950Y-52967733D01*
X123546632Y-53919051D01*
X123525021Y-53810402D01*
X123476022Y-53692110D01*
X123404888Y-53585649D01*
X123314351Y-53495112D01*
X123207890Y-53423978D01*
X123089598Y-53374979D01*
X122980946Y-53353366D01*
X123932265Y-52402048D01*
X123742156Y-52292287D01*
X123512048Y-52196973D01*
X123271459Y-52132507D01*
X123024538Y-52100000D01*
X122775461Y-52100000D01*
X122528540Y-52132507D01*
X122287951Y-52196973D01*
X122057843Y-52292287D01*
X121867733Y-52402048D01*
X122819052Y-53353367D01*
X122710402Y-53374979D01*
X122592110Y-53423978D01*
X122485649Y-53495112D01*
X122395112Y-53585649D01*
X122323978Y-53692110D01*
X122274979Y-53810402D01*
X122253367Y-53919052D01*
X121302048Y-52967733D01*
X121192287Y-53157843D01*
X121096973Y-53387951D01*
X121032507Y-53628540D01*
X121000000Y-53875461D01*
X109698900Y-53875461D01*
X109698900Y-45800011D01*
X121000000Y-45800011D01*
X121000000Y-46600000D01*
X122385523Y-46600000D01*
X122323978Y-46692110D01*
X122274979Y-46810402D01*
X122250000Y-46935981D01*
X122250000Y-47064019D01*
X122274979Y-47189598D01*
X122323978Y-47307890D01*
X122385523Y-47400000D01*
X121000000Y-47400000D01*
X121000000Y-48199988D01*
X121010492Y-48302687D01*
X121010494Y-48302696D01*
X121065642Y-48469120D01*
X121157680Y-48618339D01*
X121281660Y-48742319D01*
X121430879Y-48834357D01*
X121597303Y-48889505D01*
X121597312Y-48889507D01*
X121700011Y-48899999D01*
X121700022Y-48900000D01*
X122500000Y-48900000D01*
X122500000Y-47514476D01*
X122592110Y-47576022D01*
X122710402Y-47625021D01*
X122835981Y-47650000D01*
X122964019Y-47650000D01*
X123089598Y-47625021D01*
X123207890Y-47576022D01*
X123300000Y-47514476D01*
X123300000Y-48900000D01*
X124099978Y-48900000D01*
X124099988Y-48899999D01*
X124202687Y-48889507D01*
X124202696Y-48889505D01*
X124369120Y-48834357D01*
X124518339Y-48742319D01*
X124642319Y-48618339D01*
X124734357Y-48469120D01*
X124789505Y-48302696D01*
X124789507Y-48302687D01*
X124799999Y-48199988D01*
X124800000Y-48199978D01*
X124800000Y-47400000D01*
X123414477Y-47400000D01*
X123476022Y-47307890D01*
X123525021Y-47189598D01*
X123550000Y-47064019D01*
X123550000Y-46935981D01*
X123525021Y-46810402D01*
X123476022Y-46692110D01*
X123414477Y-46600000D01*
X124800000Y-46600000D01*
X124800000Y-45800021D01*
X124799999Y-45800011D01*
X124789507Y-45697312D01*
X124789505Y-45697303D01*
X124734357Y-45530879D01*
X124642319Y-45381660D01*
X124518339Y-45257680D01*
X124369120Y-45165642D01*
X124202696Y-45110494D01*
X124202687Y-45110492D01*
X124099988Y-45100000D01*
X123300000Y-45100000D01*
X123300000Y-46485523D01*
X123207890Y-46423978D01*
X123089598Y-46374979D01*
X122964019Y-46350000D01*
X122835981Y-46350000D01*
X122710402Y-46374979D01*
X122592110Y-46423978D01*
X122500000Y-46485523D01*
X122500000Y-45100000D01*
X121700011Y-45100000D01*
X121597312Y-45110492D01*
X121597303Y-45110494D01*
X121430879Y-45165642D01*
X121281660Y-45257680D01*
X121157680Y-45381660D01*
X121065642Y-45530879D01*
X121010494Y-45697303D01*
X121010492Y-45697312D01*
X121000000Y-45800011D01*
X109698900Y-45800011D01*
X109698900Y-41875461D01*
X121000000Y-41875461D01*
X121000000Y-42124538D01*
X121032507Y-42371459D01*
X121096973Y-42612048D01*
X121192287Y-42842156D01*
X121302048Y-43032265D01*
X122253367Y-42080946D01*
X122274979Y-42189598D01*
X122323978Y-42307890D01*
X122395112Y-42414351D01*
X122485649Y-42504888D01*
X122592110Y-42576022D01*
X122710402Y-42625021D01*
X122819052Y-42646632D01*
X121867733Y-43597950D01*
X122057849Y-43707714D01*
X122287951Y-43803026D01*
X122528540Y-43867492D01*
X122775461Y-43899999D01*
X122775467Y-43900000D01*
X123024533Y-43900000D01*
X123024538Y-43899999D01*
X123271459Y-43867492D01*
X123512048Y-43803026D01*
X123742150Y-43707714D01*
X123932265Y-43597950D01*
X122980947Y-42646632D01*
X123089598Y-42625021D01*
X123207890Y-42576022D01*
X123314351Y-42504888D01*
X123404888Y-42414351D01*
X123476022Y-42307890D01*
X123525021Y-42189598D01*
X123546632Y-42080947D01*
X124497950Y-43032265D01*
X124607714Y-42842150D01*
X124703026Y-42612048D01*
X124767492Y-42371459D01*
X124799999Y-42124538D01*
X124800000Y-42124533D01*
X124800000Y-41875467D01*
X124799999Y-41875461D01*
X124767492Y-41628540D01*
X124703026Y-41387951D01*
X124607714Y-41157849D01*
X124497950Y-40967733D01*
X123546632Y-41919051D01*
X123525021Y-41810402D01*
X123476022Y-41692110D01*
X123404888Y-41585649D01*
X123314351Y-41495112D01*
X123207890Y-41423978D01*
X123089598Y-41374979D01*
X122980946Y-41353366D01*
X123932265Y-40402048D01*
X123742156Y-40292287D01*
X123512048Y-40196973D01*
X123271459Y-40132507D01*
X123024538Y-40100000D01*
X122775461Y-40100000D01*
X122528540Y-40132507D01*
X122287951Y-40196973D01*
X122057843Y-40292287D01*
X121867733Y-40402048D01*
X122819052Y-41353367D01*
X122710402Y-41374979D01*
X122592110Y-41423978D01*
X122485649Y-41495112D01*
X122395112Y-41585649D01*
X122323978Y-41692110D01*
X122274979Y-41810402D01*
X122253367Y-41919052D01*
X121302048Y-40967733D01*
X121192287Y-41157843D01*
X121096973Y-41387951D01*
X121032507Y-41628540D01*
X121000000Y-41875461D01*
X109698900Y-41875461D01*
X109698900Y-9344489D01*
X109710242Y-9287470D01*
X109747164Y-9198331D01*
X109768137Y-9147697D01*
X109798900Y-8993042D01*
X109798900Y-8835358D01*
X109768137Y-8680703D01*
X109721031Y-8566979D01*
X109707795Y-8535023D01*
X109670165Y-8478706D01*
X124449500Y-8478706D01*
X124449500Y-8721293D01*
X124481160Y-8961781D01*
X124481161Y-8961787D01*
X124481162Y-8961789D01*
X124543328Y-9193795D01*
X124543947Y-9196103D01*
X124558381Y-9230950D01*
X124636776Y-9420212D01*
X124758064Y-9630289D01*
X124905735Y-9822738D01*
X125077262Y-9994265D01*
X125269711Y-10141936D01*
X125479788Y-10263224D01*
X125703900Y-10356054D01*
X125938211Y-10418838D01*
X125938217Y-10418838D01*
X125938218Y-10418839D01*
X126003600Y-10427446D01*
X126178712Y-10450500D01*
X126421288Y-10450500D01*
X126661789Y-10418838D01*
X126896100Y-10356054D01*
X127120212Y-10263224D01*
X127330289Y-10141936D01*
X127522738Y-9994265D01*
X127694265Y-9822738D01*
X127841936Y-9630289D01*
X127963224Y-9420212D01*
X128056054Y-9196100D01*
X128118838Y-8961789D01*
X128150500Y-8721288D01*
X128150500Y-8478712D01*
X128118838Y-8238211D01*
X128056054Y-8003900D01*
X127963224Y-7779788D01*
X127841936Y-7569711D01*
X127694265Y-7377262D01*
X127522738Y-7205735D01*
X127330289Y-7058064D01*
X127130156Y-6942517D01*
X127120216Y-6936778D01*
X127120214Y-6936777D01*
X127120212Y-6936776D01*
X126988932Y-6882398D01*
X126896103Y-6843947D01*
X126896101Y-6843946D01*
X126896100Y-6843946D01*
X126661789Y-6781162D01*
X126661787Y-6781161D01*
X126661781Y-6781160D01*
X126421293Y-6749500D01*
X126421288Y-6749500D01*
X126178712Y-6749500D01*
X126178706Y-6749500D01*
X125938218Y-6781160D01*
X125703896Y-6843947D01*
X125479783Y-6936778D01*
X125269712Y-7058063D01*
X125269711Y-7058064D01*
X125077262Y-7205735D01*
X125077260Y-7205736D01*
X125077256Y-7205740D01*
X124905740Y-7377256D01*
X124905736Y-7377260D01*
X124905735Y-7377262D01*
X124812714Y-7498488D01*
X124758063Y-7569712D01*
X124636778Y-7779783D01*
X124543947Y-8003896D01*
X124481160Y-8238218D01*
X124449500Y-8478706D01*
X109670165Y-8478706D01*
X109620189Y-8403911D01*
X109508689Y-8292411D01*
X109377579Y-8204806D01*
X109377578Y-8204805D01*
X109377576Y-8204804D01*
X109231898Y-8144463D01*
X109231894Y-8144462D01*
X109077242Y-8113700D01*
X109006400Y-8113700D01*
X108931900Y-8093738D01*
X108877362Y-8039200D01*
X108857400Y-7964700D01*
X108857400Y-5875189D01*
X108868742Y-5818170D01*
X108893273Y-5758944D01*
X108926637Y-5678397D01*
X108957400Y-5523742D01*
X108957400Y-5366058D01*
X108939898Y-5278068D01*
X108944943Y-5201105D01*
X108987793Y-5136976D01*
X109056967Y-5102863D01*
X109086035Y-5100000D01*
X129651000Y-5100000D01*
X129725500Y-5119962D01*
G37*
%TD.AperFunction*%
%TA.AperFunction,Conductor*%
G36*
X91160200Y-9229309D02*
G01*
X91202207Y-9293994D01*
X91209500Y-9340038D01*
X91209500Y-40140897D01*
X91236419Y-40276227D01*
X91236420Y-40276229D01*
X91289220Y-40403702D01*
X91289223Y-40403708D01*
X91289225Y-40403711D01*
X91365886Y-40518443D01*
X91365889Y-40518446D01*
X106455359Y-55607916D01*
X106493923Y-55674711D01*
X106499000Y-55713275D01*
X106499000Y-57090583D01*
X106479038Y-57165083D01*
X106424500Y-57219621D01*
X106350000Y-57239583D01*
X106275502Y-57219622D01*
X106227379Y-57191839D01*
X106227376Y-57191837D01*
X106227373Y-57191836D01*
X106070951Y-57127044D01*
X105997210Y-57096499D01*
X105997208Y-57096498D01*
X105997207Y-57096498D01*
X105756565Y-57032018D01*
X105756563Y-57032017D01*
X105756557Y-57032016D01*
X105509570Y-56999500D01*
X105509565Y-56999500D01*
X105260435Y-56999500D01*
X105260429Y-56999500D01*
X105013442Y-57032016D01*
X104772789Y-57096499D01*
X104542622Y-57191838D01*
X104326874Y-57316400D01*
X104129222Y-57468063D01*
X103953063Y-57644222D01*
X103801400Y-57841874D01*
X103676838Y-58057622D01*
X103581499Y-58287789D01*
X103517016Y-58528442D01*
X103484500Y-58775429D01*
X103484500Y-59024570D01*
X103517016Y-59271557D01*
X103517017Y-59271563D01*
X103517018Y-59271565D01*
X103581498Y-59512207D01*
X103676836Y-59742373D01*
X103801401Y-59958127D01*
X103953062Y-60155776D01*
X104129224Y-60331938D01*
X104326873Y-60483599D01*
X104542627Y-60608164D01*
X104772793Y-60703502D01*
X105013435Y-60767982D01*
X105013441Y-60767982D01*
X105013442Y-60767983D01*
X105080586Y-60776822D01*
X105260435Y-60800500D01*
X105509565Y-60800500D01*
X105756565Y-60767982D01*
X105997207Y-60703502D01*
X106227373Y-60608164D01*
X106275500Y-60580377D01*
X106350000Y-60560416D01*
X106424500Y-60580378D01*
X106479038Y-60634916D01*
X106499000Y-60709416D01*
X106499000Y-72090583D01*
X106479038Y-72165083D01*
X106424500Y-72219621D01*
X106350000Y-72239583D01*
X106275502Y-72219622D01*
X106227379Y-72191839D01*
X106227376Y-72191837D01*
X106227373Y-72191836D01*
X106070951Y-72127044D01*
X105997210Y-72096499D01*
X105997208Y-72096498D01*
X105997207Y-72096498D01*
X105756565Y-72032018D01*
X105756563Y-72032017D01*
X105756557Y-72032016D01*
X105509570Y-71999500D01*
X105509565Y-71999500D01*
X105260435Y-71999500D01*
X105260429Y-71999500D01*
X105013442Y-72032016D01*
X104772789Y-72096499D01*
X104542622Y-72191838D01*
X104326874Y-72316400D01*
X104129222Y-72468063D01*
X103953063Y-72644222D01*
X103801400Y-72841874D01*
X103676838Y-73057622D01*
X103581499Y-73287789D01*
X103517016Y-73528442D01*
X103484500Y-73775429D01*
X103484500Y-73970306D01*
X103464538Y-74044806D01*
X103440859Y-74075665D01*
X75166759Y-102349765D01*
X75099964Y-102388329D01*
X75022836Y-102388329D01*
X74956041Y-102349765D01*
X74917477Y-102282970D01*
X74912400Y-102244406D01*
X74912400Y-88775429D01*
X81284500Y-88775429D01*
X81284500Y-89024570D01*
X81317016Y-89271557D01*
X81317017Y-89271563D01*
X81317018Y-89271565D01*
X81381498Y-89512207D01*
X81476836Y-89742373D01*
X81601401Y-89958127D01*
X81753062Y-90155776D01*
X81929224Y-90331938D01*
X82126873Y-90483599D01*
X82342627Y-90608164D01*
X82572793Y-90703502D01*
X82813435Y-90767982D01*
X82813441Y-90767982D01*
X82813442Y-90767983D01*
X82880586Y-90776822D01*
X83060435Y-90800500D01*
X83309565Y-90800500D01*
X83556565Y-90767982D01*
X83797207Y-90703502D01*
X84027373Y-90608164D01*
X84243127Y-90483599D01*
X84440776Y-90331938D01*
X84616938Y-90155776D01*
X84768599Y-89958127D01*
X84893164Y-89742373D01*
X84988502Y-89512207D01*
X85052982Y-89271565D01*
X85085500Y-89024565D01*
X85085500Y-88775435D01*
X85052982Y-88528435D01*
X84988502Y-88287793D01*
X84893164Y-88057627D01*
X84768599Y-87841873D01*
X84616938Y-87644224D01*
X84440776Y-87468062D01*
X84243127Y-87316401D01*
X84075500Y-87219622D01*
X84027377Y-87191838D01*
X84027375Y-87191837D01*
X84027373Y-87191836D01*
X83892548Y-87135989D01*
X83797210Y-87096499D01*
X83797208Y-87096498D01*
X83797207Y-87096498D01*
X83556565Y-87032018D01*
X83556563Y-87032017D01*
X83556557Y-87032016D01*
X83309570Y-86999500D01*
X83309565Y-86999500D01*
X83060435Y-86999500D01*
X83060429Y-86999500D01*
X82813442Y-87032016D01*
X82572789Y-87096499D01*
X82342622Y-87191838D01*
X82126874Y-87316400D01*
X81929222Y-87468063D01*
X81753063Y-87644222D01*
X81601400Y-87841874D01*
X81476838Y-88057622D01*
X81381499Y-88287789D01*
X81317016Y-88528442D01*
X81284500Y-88775429D01*
X74912400Y-88775429D01*
X74912400Y-72788356D01*
X74932362Y-72713856D01*
X74986900Y-72659318D01*
X75061400Y-72639356D01*
X75129043Y-72655595D01*
X75149008Y-72665768D01*
X75373632Y-72738753D01*
X75606908Y-72775700D01*
X79876955Y-72775700D01*
X79951455Y-72795662D01*
X79982314Y-72819341D01*
X81263435Y-74100463D01*
X81301999Y-74167258D01*
X81305801Y-74186373D01*
X81317015Y-74271551D01*
X81317017Y-74271563D01*
X81317018Y-74271565D01*
X81381498Y-74512207D01*
X81476836Y-74742373D01*
X81601401Y-74958127D01*
X81753062Y-75155776D01*
X81929224Y-75331938D01*
X82126873Y-75483599D01*
X82342627Y-75608164D01*
X82572793Y-75703502D01*
X82813435Y-75767982D01*
X82813441Y-75767982D01*
X82813442Y-75767983D01*
X82880586Y-75776822D01*
X83060435Y-75800500D01*
X83309565Y-75800500D01*
X83556565Y-75767982D01*
X83797207Y-75703502D01*
X84027373Y-75608164D01*
X84243127Y-75483599D01*
X84440776Y-75331938D01*
X84616938Y-75155776D01*
X84768599Y-74958127D01*
X84893164Y-74742373D01*
X84988502Y-74512207D01*
X85052982Y-74271565D01*
X85085500Y-74024565D01*
X85085500Y-73775435D01*
X85052982Y-73528435D01*
X84988502Y-73287793D01*
X84893164Y-73057627D01*
X84768599Y-72841873D01*
X84616938Y-72644224D01*
X84440776Y-72468062D01*
X84243127Y-72316401D01*
X84075500Y-72219622D01*
X84027377Y-72191838D01*
X84027375Y-72191837D01*
X84027373Y-72191836D01*
X83892548Y-72135989D01*
X83797210Y-72096499D01*
X83797208Y-72096498D01*
X83797207Y-72096498D01*
X83725717Y-72077342D01*
X83556563Y-72032017D01*
X83556551Y-72032015D01*
X83471373Y-72020801D01*
X83400116Y-71991285D01*
X83385463Y-71978435D01*
X83351030Y-71944002D01*
X81537710Y-70130683D01*
X81537706Y-70130680D01*
X81537703Y-70130677D01*
X81346635Y-69991858D01*
X81346634Y-69991857D01*
X81286507Y-69961221D01*
X81136202Y-69884637D01*
X81136201Y-69884636D01*
X81136192Y-69884632D01*
X80911568Y-69811647D01*
X80678292Y-69774700D01*
X75606908Y-69774700D01*
X75373632Y-69811647D01*
X75149014Y-69884630D01*
X75149000Y-69884635D01*
X75129041Y-69894805D01*
X75053598Y-69910839D01*
X74980245Y-69887003D01*
X74928638Y-69829684D01*
X74912400Y-69762043D01*
X74912400Y-58775461D01*
X81285000Y-58775461D01*
X81285000Y-59024538D01*
X81317507Y-59271459D01*
X81381973Y-59512048D01*
X81477287Y-59742156D01*
X81587048Y-59932265D01*
X82453323Y-59065989D01*
X82463822Y-59118767D01*
X82520359Y-59255258D01*
X82602437Y-59378097D01*
X82706903Y-59482563D01*
X82829742Y-59564641D01*
X82966233Y-59621178D01*
X83019008Y-59631675D01*
X82152733Y-60497950D01*
X82342849Y-60607714D01*
X82572951Y-60703026D01*
X82813540Y-60767492D01*
X83060461Y-60799999D01*
X83060467Y-60800000D01*
X83309533Y-60800000D01*
X83309538Y-60799999D01*
X83556459Y-60767492D01*
X83797048Y-60703026D01*
X84027150Y-60607714D01*
X84217265Y-60497950D01*
X83350990Y-59631675D01*
X83403767Y-59621178D01*
X83540258Y-59564641D01*
X83663097Y-59482563D01*
X83767563Y-59378097D01*
X83849641Y-59255258D01*
X83906178Y-59118767D01*
X83916675Y-59065990D01*
X84782950Y-59932265D01*
X84892714Y-59742150D01*
X84988026Y-59512048D01*
X85052492Y-59271459D01*
X85084999Y-59024538D01*
X85085000Y-59024533D01*
X85085000Y-58775467D01*
X85084999Y-58775461D01*
X85052492Y-58528540D01*
X84988026Y-58287951D01*
X84892714Y-58057849D01*
X84782950Y-57867733D01*
X83916675Y-58734008D01*
X83906178Y-58681233D01*
X83849641Y-58544742D01*
X83767563Y-58421903D01*
X83663097Y-58317437D01*
X83540258Y-58235359D01*
X83403767Y-58178822D01*
X83350989Y-58168323D01*
X84217265Y-57302048D01*
X84027156Y-57192287D01*
X83797048Y-57096973D01*
X83556459Y-57032507D01*
X83309538Y-57000000D01*
X83060461Y-57000000D01*
X82813540Y-57032507D01*
X82572951Y-57096973D01*
X82342843Y-57192287D01*
X82152733Y-57302048D01*
X83019009Y-58168324D01*
X82966233Y-58178822D01*
X82829742Y-58235359D01*
X82706903Y-58317437D01*
X82602437Y-58421903D01*
X82520359Y-58544742D01*
X82463822Y-58681233D01*
X82453324Y-58734009D01*
X81587048Y-57867733D01*
X81477287Y-58057843D01*
X81381973Y-58287951D01*
X81317507Y-58528540D01*
X81285000Y-58775461D01*
X74912400Y-58775461D01*
X74912400Y-43775461D01*
X81285000Y-43775461D01*
X81285000Y-44024538D01*
X81317507Y-44271459D01*
X81381973Y-44512048D01*
X81477287Y-44742156D01*
X81587048Y-44932265D01*
X82453323Y-44065989D01*
X82463822Y-44118767D01*
X82520359Y-44255258D01*
X82602437Y-44378097D01*
X82706903Y-44482563D01*
X82829742Y-44564641D01*
X82966233Y-44621178D01*
X83019008Y-44631675D01*
X82152733Y-45497950D01*
X82342849Y-45607714D01*
X82572951Y-45703026D01*
X82813540Y-45767492D01*
X83060461Y-45799999D01*
X83060467Y-45800000D01*
X83309533Y-45800000D01*
X83309538Y-45799999D01*
X83556459Y-45767492D01*
X83797048Y-45703026D01*
X84027150Y-45607714D01*
X84217265Y-45497950D01*
X83350990Y-44631675D01*
X83403767Y-44621178D01*
X83540258Y-44564641D01*
X83663097Y-44482563D01*
X83767563Y-44378097D01*
X83849641Y-44255258D01*
X83906178Y-44118767D01*
X83916675Y-44065990D01*
X84782950Y-44932265D01*
X84892714Y-44742150D01*
X84988026Y-44512048D01*
X85052492Y-44271459D01*
X85084999Y-44024538D01*
X85085000Y-44024533D01*
X85085000Y-43775467D01*
X85084999Y-43775461D01*
X85052492Y-43528540D01*
X84988026Y-43287951D01*
X84892714Y-43057849D01*
X84782950Y-42867733D01*
X83916675Y-43734008D01*
X83906178Y-43681233D01*
X83849641Y-43544742D01*
X83767563Y-43421903D01*
X83663097Y-43317437D01*
X83540258Y-43235359D01*
X83403767Y-43178822D01*
X83350989Y-43168323D01*
X84217265Y-42302048D01*
X84027156Y-42192287D01*
X83797048Y-42096973D01*
X83556459Y-42032507D01*
X83309538Y-42000000D01*
X83060461Y-42000000D01*
X82813540Y-42032507D01*
X82572951Y-42096973D01*
X82342843Y-42192287D01*
X82152733Y-42302048D01*
X83019009Y-43168324D01*
X82966233Y-43178822D01*
X82829742Y-43235359D01*
X82706903Y-43317437D01*
X82602437Y-43421903D01*
X82520359Y-43544742D01*
X82463822Y-43681233D01*
X82453324Y-43734009D01*
X81587048Y-42867733D01*
X81477287Y-43057843D01*
X81381973Y-43287951D01*
X81317507Y-43528540D01*
X81285000Y-43775461D01*
X74912400Y-43775461D01*
X74912400Y-24679974D01*
X74932362Y-24605474D01*
X74956037Y-24574619D01*
X90261143Y-9269512D01*
X90327936Y-9230950D01*
X90389805Y-9227707D01*
X90533713Y-9250500D01*
X90533718Y-9250500D01*
X90746282Y-9250500D01*
X90746287Y-9250500D01*
X90956243Y-9217246D01*
X91014457Y-9198330D01*
X91091478Y-9194294D01*
X91160200Y-9229309D01*
G37*
%TD.AperFunction*%
%TD*%
M02*
