M48
; DRILL file KiCad 10.0.0 date 2026-03-31T06:02:35
; FORMAT={-:-/ absolute / metric / decimal}
; #@! TF.CreationDate,2026-03-31T06:02:35-04:00
; #@! TF.GenerationSoftware,Kicad,Pcbnew,10.0.0
; #@! TF.FileFunction,MixedPlating,1,2
FMAT,2
METRIC
; #@! TA.AperFunction,Plated,PTH,ViaDrill
T1C0.300
; #@! TA.AperFunction,Plated,PTH,ComponentDrill
T2C1.000
; #@! TA.AperFunction,Plated,PTH,ComponentDrill
T3C1.100
; #@! TA.AperFunction,Plated,PTH,ComponentDrill
T4C1.300
; #@! TA.AperFunction,Plated,PTH,ComponentDrill
T5C1.500
; #@! TA.AperFunction,Plated,PTH,ComponentDrill
T6C2.000
; #@! TA.AperFunction,NonPlated,NPTH,ComponentDrill
T7C2.500
; #@! TA.AperFunction,NonPlated,NPTH,ComponentDrill
T8C3.200
%
G90
G05
T1
X64.14Y-83.47
X68.64Y-34.9
X71.09Y-83.63
X71.66Y-50.27
X72.07Y-36.95
X72.4Y-65.81
X79.1Y-71.53
X79.67Y-52.64
X80.41Y-80.69
X86.37Y-92.45
X89.81Y-52.48
X94.11Y-92.03
X94.8Y-67.69
X97.33Y-57.71
X97.42Y-38.34
X100.37Y-91.85
X104.69Y-52.48
X105.84Y-41.11
X107.06Y-70.79
X107.23Y-60.0
X110.17Y-42.1
X110.62Y-34.417
X113.19Y-64.33
X113.85Y-72.35
X115.08Y-53.22
X126.39Y-76.43
X128.88Y-63.28
X131.83Y-70.08
X134.44Y-63.62
X135.8Y-42.43
X139.08Y-47.98
X151.1Y-42.09
X156.88Y-64.07
X163.22Y-47.19
X168.55Y-43.11
X176.94Y-44.24
T2
X65.72Y-146.62
X66.87Y-39.16
X66.87Y-41.7
X66.87Y-44.24
X66.87Y-46.78
X66.87Y-49.32
X66.87Y-51.86
X67.41Y-72.12
X67.41Y-74.66
X67.41Y-77.2
X67.57Y-58.66
X67.57Y-61.2
X67.57Y-63.74
X67.57Y-66.28
X68.26Y-146.62
X70.8Y-146.62
X75.81Y-75.58
X75.81Y-78.12
X75.81Y-80.66
X77.72Y-146.62
X78.15Y-36.47
X78.15Y-59.33
X80.26Y-146.62
X80.69Y-36.47
X80.69Y-59.33
X82.8Y-146.62
X83.23Y-36.47
X83.23Y-59.33
X85.77Y-36.47
X85.77Y-59.33
X88.31Y-36.47
X88.31Y-59.33
X89.72Y-146.62
X90.85Y-36.47
X90.85Y-59.33
X90.92Y-73.04
X90.92Y-75.58
X90.92Y-78.12
X90.92Y-80.66
X90.92Y-83.2
X92.26Y-146.62
X93.46Y-73.04
X93.46Y-75.58
X93.46Y-78.12
X93.46Y-80.66
X93.46Y-83.2
X94.8Y-146.62
X101.65Y-35.7
X101.65Y-38.24
X101.65Y-40.78
X101.65Y-43.32
X101.65Y-45.86
X101.65Y-48.4
X101.65Y-50.94
X101.65Y-53.48
X101.65Y-56.02
X101.65Y-58.56
X101.65Y-61.1
X101.65Y-63.64
X101.65Y-66.18
X101.65Y-68.72
X101.65Y-71.26
X101.65Y-73.8
X101.65Y-76.34
X101.65Y-78.88
X101.65Y-81.42
X101.65Y-83.96
X101.72Y-146.62
X104.26Y-146.62
X106.8Y-146.62
X113.72Y-146.62
X116.26Y-146.62
X118.8Y-146.62
X119.43Y-35.7
X119.43Y-38.24
X119.43Y-40.78
X119.43Y-43.32
X119.43Y-45.86
X119.43Y-48.4
X119.43Y-50.94
X119.43Y-53.48
X119.43Y-56.02
X119.43Y-58.56
X119.43Y-61.1
X119.43Y-63.64
X119.43Y-66.18
X119.43Y-68.72
X119.43Y-71.26
X119.43Y-73.8
X119.43Y-76.34
X119.43Y-78.88
X119.43Y-81.42
X119.43Y-83.96
X125.39Y-39.9
X125.39Y-42.44
X125.39Y-44.98
X125.39Y-47.52
X125.39Y-50.06
X125.39Y-52.6
X125.72Y-146.62
X128.26Y-146.62
X130.47Y-52.6
X130.47Y-55.14
X130.47Y-57.68
X130.8Y-146.62
X133.01Y-52.6
X133.01Y-55.14
X133.01Y-57.68
X135.55Y-52.6
X135.55Y-55.14
X135.55Y-57.68
X137.72Y-146.62
X138.09Y-52.6
X138.09Y-55.14
X138.09Y-57.68
X140.26Y-146.62
X142.8Y-146.62
X143.17Y-52.6
X143.17Y-55.14
X143.17Y-57.68
X145.71Y-52.6
X145.71Y-55.14
X145.71Y-57.68
X148.25Y-52.6
X148.25Y-55.14
X148.25Y-57.68
X149.72Y-146.62
X150.79Y-52.6
X150.79Y-55.14
X150.79Y-57.68
X152.26Y-146.62
X154.8Y-146.62
X158.41Y-52.6
X158.41Y-55.14
X158.41Y-57.68
X160.95Y-52.6
X160.95Y-55.14
X160.95Y-57.68
X161.72Y-146.62
X163.49Y-52.6
X163.49Y-55.14
X163.49Y-57.68
X164.26Y-146.62
X166.03Y-52.6
X166.03Y-55.14
X166.03Y-57.68
X166.8Y-146.62
X171.11Y-52.6
X171.11Y-55.14
X171.11Y-57.68
X173.65Y-52.6
X173.65Y-55.14
X173.65Y-57.68
X173.72Y-146.62
X176.19Y-52.6
X176.19Y-55.14
X176.19Y-57.68
X176.26Y-146.62
X178.73Y-52.6
X178.73Y-55.14
X178.73Y-57.68
X178.8Y-146.62
X183.81Y-39.9
X183.81Y-42.44
X183.81Y-44.98
X183.81Y-47.52
X183.81Y-50.06
X183.81Y-52.6
T3
X84.7Y-65.8
X89.65Y-65.8
X152.85Y-37.49
X156.35Y-37.49
T4
X67.94Y-90.3
X67.94Y-95.3
X192.0Y-62.0
X192.0Y-67.0
X192.03Y-123.1
X192.03Y-128.1
X192.03Y-135.1
X192.03Y-140.1
X192.17Y-90.14
X192.17Y-95.14
X192.17Y-102.14
X192.17Y-107.14
X192.37Y-76.0
X192.37Y-81.0
T5
X68.64Y-113.98
X68.64Y-136.18
X80.64Y-113.98
X80.64Y-136.18
X92.64Y-113.98
X92.64Y-136.18
X104.64Y-113.98
X104.64Y-136.18
X116.64Y-113.98
X116.64Y-136.18
X128.64Y-113.98
X128.64Y-136.18
X140.64Y-113.98
X140.64Y-136.18
X152.64Y-113.98
X152.64Y-136.18
X164.64Y-113.98
X164.64Y-136.18
X176.64Y-113.98
X176.64Y-136.18
T6
X76.06Y-86.5
X76.19Y-63.9
X93.59Y-63.9
X93.72Y-86.5
T7
X126.66Y-36.85
X126.66Y-55.9
X182.54Y-36.85
X182.54Y-55.9
T8
X60.0Y-37.0
X60.0Y-145.0
X200.0Y-37.0
X200.0Y-145.0
M30
