%TF.GenerationSoftware,KiCad,Pcbnew,10.0.0*%
%TF.CreationDate,2026-03-30T18:52:45-04:00*%
%TF.ProjectId,geodude-carrier,67656f64-7564-4652-9d63-617272696572,rev?*%
%TF.SameCoordinates,Original*%
%TF.FileFunction,Profile,NP*%
%FSLAX46Y46*%
G04 Gerber Fmt 4.6, Leading zero omitted, Abs format (unit mm)*
G04 Created by KiCad (PCBNEW 10.0.0) date 2026-03-30 18:52:45*
%MOMM*%
%LPD*%
G01*
G04 APERTURE LIST*
%TA.AperFunction,Profile*%
%ADD10C,0.100000*%
%TD*%
G04 APERTURE END LIST*
D10*
X17000000Y-10000000D02*
X17028891Y-9411897D01*
X17000000Y-147000000D02*
X17000000Y-10000000D01*
X17028891Y-9411897D02*
X17115288Y-8829458D01*
X17028891Y-147588102D02*
X17000000Y-147000000D01*
X17115288Y-8829458D02*
X17258357Y-8258291D01*
X17115288Y-148170541D02*
X17028891Y-147588102D01*
X17258357Y-8258291D02*
X17456722Y-7703899D01*
X17258357Y-148741708D02*
X17115288Y-148170541D01*
X17456722Y-7703899D02*
X17708472Y-7171619D01*
X17456722Y-149296100D02*
X17258357Y-148741708D01*
X17708472Y-7171619D02*
X18011182Y-6666578D01*
X17708472Y-149828380D02*
X17456722Y-149296100D01*
X18011182Y-6666578D02*
X18361937Y-6193640D01*
X18011182Y-150333421D02*
X17708472Y-149828380D01*
X18361937Y-6193640D02*
X18757359Y-5757359D01*
X18361937Y-150806359D02*
X18011182Y-150333421D01*
X18757359Y-5757359D02*
X19193640Y-5361937D01*
X18757359Y-151242640D02*
X18361937Y-150806359D01*
X19193640Y-5361937D02*
X19666578Y-5011182D01*
X19193640Y-151638062D02*
X18757359Y-151242640D01*
X19666578Y-5011182D02*
X20171619Y-4708472D01*
X19666578Y-151988817D02*
X19193640Y-151638062D01*
X20171619Y-4708472D02*
X20703899Y-4456722D01*
X20171619Y-152291527D02*
X19666578Y-151988817D01*
X20703899Y-4456722D02*
X21258291Y-4258357D01*
X20703899Y-152543277D02*
X20171619Y-152291527D01*
X21258291Y-4258357D02*
X21829458Y-4115288D01*
X21258291Y-152741642D02*
X20703899Y-152543277D01*
X21829458Y-4115288D02*
X22411897Y-4028891D01*
X21829458Y-152884711D02*
X21258291Y-152741642D01*
X22411897Y-4028891D02*
X23000000Y-4000000D01*
X22411897Y-152971108D02*
X21829458Y-152884711D01*
X23000000Y-4000000D02*
X139000000Y-4000000D01*
X23000000Y-153000000D02*
X22411897Y-152971108D01*
X139000000Y-4000000D02*
X139588102Y-4028891D01*
X139000000Y-153000000D02*
X23000000Y-153000000D01*
X139588102Y-4028891D02*
X140170541Y-4115288D01*
X139588102Y-152971108D02*
X139000000Y-153000000D01*
X140170541Y-4115288D02*
X140741708Y-4258357D01*
X140170541Y-152884711D02*
X139588102Y-152971108D01*
X140741708Y-4258357D02*
X141296100Y-4456722D01*
X140741708Y-152741642D02*
X140170541Y-152884711D01*
X141296100Y-4456722D02*
X141828380Y-4708472D01*
X141296100Y-152543277D02*
X140741708Y-152741642D01*
X141828380Y-4708472D02*
X142333421Y-5011182D01*
X141828380Y-152291527D02*
X141296100Y-152543277D01*
X142333421Y-5011182D02*
X142806359Y-5361937D01*
X142333421Y-151988817D02*
X141828380Y-152291527D01*
X142806359Y-5361937D02*
X143242640Y-5757359D01*
X142806359Y-151638062D02*
X142333421Y-151988817D01*
X143242640Y-5757359D02*
X143638062Y-6193640D01*
X143242640Y-151242640D02*
X142806359Y-151638062D01*
X143638062Y-6193640D02*
X143988817Y-6666578D01*
X143638062Y-150806359D02*
X143242640Y-151242640D01*
X143988817Y-6666578D02*
X144291527Y-7171619D01*
X143988817Y-150333421D02*
X143638062Y-150806359D01*
X144291527Y-7171619D02*
X144543277Y-7703899D01*
X144291527Y-149828380D02*
X143988817Y-150333421D01*
X144543277Y-7703899D02*
X144741642Y-8258291D01*
X144543277Y-149296100D02*
X144291527Y-149828380D01*
X144741642Y-8258291D02*
X144884711Y-8829458D01*
X144741642Y-148741708D02*
X144543277Y-149296100D01*
X144884711Y-8829458D02*
X144971108Y-9411897D01*
X144884711Y-148170541D02*
X144741642Y-148741708D01*
X144971108Y-9411897D02*
X145000000Y-10000000D01*
X144971108Y-147588102D02*
X144884711Y-148170541D01*
X145000000Y-10000000D02*
X145000000Y-147000000D01*
X145000000Y-147000000D02*
X144971108Y-147588102D01*
M02*
