%TF.GenerationSoftware,KiCad,Pcbnew,10.0.0*%
%TF.CreationDate,2026-03-30T18:49:50-04:00*%
%TF.ProjectId,geodude-carrier,67656f64-7564-4652-9d63-617272696572,rev?*%
%TF.SameCoordinates,Original*%
%TF.FileFunction,Profile,NP*%
%FSLAX46Y46*%
G04 Gerber Fmt 4.6, Leading zero omitted, Abs format (unit mm)*
G04 Created by KiCad (PCBNEW 10.0.0) date 2026-03-30 18:49:50*
%MOMM*%
%LPD*%
G01*
G04 APERTURE LIST*
%TA.AperFunction,Profile*%
%ADD10C,0.100000*%
%TD*%
G04 APERTURE END LIST*
D10*
X17800000Y-9600000D02*
X17824076Y-9109914D01*
X17800000Y-147500000D02*
X17800000Y-9600000D01*
X17824076Y-9109914D02*
X17896073Y-8624548D01*
X17824076Y-147990085D02*
X17800000Y-147500000D01*
X17896073Y-8624548D02*
X18015298Y-8148576D01*
X17896073Y-148475451D02*
X17824076Y-147990085D01*
X18015298Y-8148576D02*
X18180602Y-7686582D01*
X18015298Y-148951423D02*
X17896073Y-148475451D01*
X18180602Y-7686582D02*
X18390393Y-7243016D01*
X18180602Y-149413417D02*
X18015298Y-148951423D01*
X18390393Y-7243016D02*
X18642651Y-6822148D01*
X18390393Y-149856983D02*
X18180602Y-149413417D01*
X18642651Y-6822148D02*
X18934947Y-6428033D01*
X18642651Y-150277851D02*
X18390393Y-149856983D01*
X18934947Y-6428033D02*
X19264466Y-6064466D01*
X18934947Y-150671966D02*
X18642651Y-150277851D01*
X19264466Y-6064466D02*
X19628033Y-5734947D01*
X19264466Y-151035533D02*
X18934947Y-150671966D01*
X19628033Y-5734947D02*
X20022148Y-5442651D01*
X19628033Y-151365052D02*
X19264466Y-151035533D01*
X20022148Y-5442651D02*
X20443016Y-5190393D01*
X20022148Y-151657348D02*
X19628033Y-151365052D01*
X20443016Y-5190393D02*
X20886582Y-4980602D01*
X20443016Y-151909606D02*
X20022148Y-151657348D01*
X20886582Y-4980602D02*
X21348576Y-4815298D01*
X20886582Y-152119397D02*
X20443016Y-151909606D01*
X21348576Y-4815298D02*
X21824548Y-4696073D01*
X21348576Y-152284701D02*
X20886582Y-152119397D01*
X21824548Y-4696073D02*
X22309914Y-4624076D01*
X21824548Y-152403926D02*
X21348576Y-152284701D01*
X22309914Y-4624076D02*
X22800000Y-4600000D01*
X22309914Y-152475923D02*
X21824548Y-152403926D01*
X22800000Y-4600000D02*
X132900000Y-4600000D01*
X22800000Y-152500000D02*
X22309914Y-152475923D01*
X132900000Y-4600000D02*
X133390085Y-4624076D01*
X132900000Y-152500000D02*
X22800000Y-152500000D01*
X133390085Y-4624076D02*
X133875451Y-4696073D01*
X133390085Y-152475923D02*
X132900000Y-152500000D01*
X133875451Y-4696073D02*
X134351423Y-4815298D01*
X133875451Y-152403926D02*
X133390085Y-152475923D01*
X134351423Y-4815298D02*
X134813417Y-4980602D01*
X134351423Y-152284701D02*
X133875451Y-152403926D01*
X134813417Y-4980602D02*
X135256983Y-5190393D01*
X134813417Y-152119397D02*
X134351423Y-152284701D01*
X135256983Y-5190393D02*
X135677851Y-5442651D01*
X135256983Y-151909606D02*
X134813417Y-152119397D01*
X135677851Y-5442651D02*
X136071966Y-5734947D01*
X135677851Y-151657348D02*
X135256983Y-151909606D01*
X136071966Y-5734947D02*
X136435533Y-6064466D01*
X136071966Y-151365052D02*
X135677851Y-151657348D01*
X136435533Y-6064466D02*
X136765052Y-6428033D01*
X136435533Y-151035533D02*
X136071966Y-151365052D01*
X136765052Y-6428033D02*
X137057348Y-6822148D01*
X136765052Y-150671966D02*
X136435533Y-151035533D01*
X137057348Y-6822148D02*
X137309606Y-7243016D01*
X137057348Y-150277851D02*
X136765052Y-150671966D01*
X137309606Y-7243016D02*
X137519397Y-7686582D01*
X137309606Y-149856983D02*
X137057348Y-150277851D01*
X137519397Y-7686582D02*
X137684701Y-8148576D01*
X137519397Y-149413417D02*
X137309606Y-149856983D01*
X137684701Y-8148576D02*
X137803926Y-8624548D01*
X137684701Y-148951423D02*
X137519397Y-149413417D01*
X137803926Y-8624548D02*
X137875923Y-9109914D01*
X137803926Y-148475451D02*
X137684701Y-148951423D01*
X137875923Y-9109914D02*
X137900000Y-9600000D01*
X137875923Y-147990085D02*
X137803926Y-148475451D01*
X137900000Y-9600000D02*
X137900000Y-147500000D01*
X137900000Y-147500000D02*
X137875923Y-147990085D01*
M02*
