%TF.GenerationSoftware,KiCad,Pcbnew,10.0.0*%
%TF.CreationDate,2026-03-30T20:15:46-04:00*%
%TF.ProjectId,geodude-carrier,67656f64-7564-4652-9d63-617272696572,rev?*%
%TF.SameCoordinates,Original*%
%TF.FileFunction,Copper,L1,Top*%
%TF.FilePolarity,Positive*%
%FSLAX46Y46*%
G04 Gerber Fmt 4.6, Leading zero omitted, Abs format (unit mm)*
G04 Created by KiCad (PCBNEW 10.0.0) date 2026-03-30 20:15:46*
%MOMM*%
%LPD*%
G01*
G04 APERTURE LIST*
G04 Aperture macros list*
%AMRoundRect*
0 Rectangle with rounded corners*
0 $1 Rounding radius*
0 $2 $3 $4 $5 $6 $7 $8 $9 X,Y pos of 4 corners*
0 Add a 4 corners polygon primitive as box body*
4,1,4,$2,$3,$4,$5,$6,$7,$8,$9,$2,$3,0*
0 Add four circle primitives for the rounded corners*
1,1,$1+$1,$2,$3*
1,1,$1+$1,$4,$5*
1,1,$1+$1,$6,$7*
1,1,$1+$1,$8,$9*
0 Add four rect primitives between the rounded corners*
20,1,$1+$1,$2,$3,$4,$5,0*
20,1,$1+$1,$4,$5,$6,$7,0*
20,1,$1+$1,$6,$7,$8,$9,0*
20,1,$1+$1,$8,$9,$2,$3,0*%
G04 Aperture macros list end*
%TA.AperFunction,ComponentPad*%
%ADD10C,2.800000*%
%TD*%
%TA.AperFunction,ComponentPad*%
%ADD11R,1.700000X1.700000*%
%TD*%
%TA.AperFunction,ComponentPad*%
%ADD12C,1.700000*%
%TD*%
%TA.AperFunction,ComponentPad*%
%ADD13RoundRect,0.250001X1.149999X-1.149999X1.149999X1.149999X-1.149999X1.149999X-1.149999X-1.149999X0*%
%TD*%
%TA.AperFunction,ViaPad*%
%ADD14C,0.600000*%
%TD*%
%TA.AperFunction,Conductor*%
%ADD15C,3.000000*%
%TD*%
%TA.AperFunction,Conductor*%
%ADD16C,2.000000*%
%TD*%
%TA.AperFunction,Conductor*%
%ADD17C,0.400000*%
%TD*%
%TA.AperFunction,Conductor*%
%ADD18C,1.000000*%
%TD*%
%TA.AperFunction,Conductor*%
%ADD19C,1.699800*%
%TD*%
%TA.AperFunction,Conductor*%
%ADD20C,0.600000*%
%TD*%
%TA.AperFunction,Conductor*%
%ADD21C,1.500000*%
%TD*%
G04 APERTURE END LIST*
D10*
%TO.P,F2,1*%
%TO.N,+12V*%
X87185000Y-60900000D03*
%TO.P,F2,2*%
%TO.N,SV2_PWR*%
X109385000Y-60900000D03*
%TD*%
D11*
%TO.P,SV4,1*%
%TO.N,PWM_CH3*%
X117000000Y-132000000D03*
D12*
%TO.P,SV4,2*%
%TO.N,SV4_PWR*%
X119540000Y-132000000D03*
%TO.P,SV4,3*%
%TO.N,GND*%
X122080000Y-132000000D03*
%TD*%
D11*
%TO.P,J_FAN,1*%
%TO.N,GND*%
X127420000Y-143340000D03*
D12*
%TO.P,J_FAN,2*%
%TO.N,N/C*%
X127420000Y-140800000D03*
%TO.P,J_FAN,3*%
%TO.N,+12V_FAN*%
X129960000Y-143340000D03*
%TO.P,J_FAN,4*%
%TO.N,N/C*%
X129960000Y-140800000D03*
%TO.P,J_FAN,5*%
%TO.N,TACH*%
X132500000Y-143340000D03*
%TO.P,J_FAN,6*%
X132500000Y-140800000D03*
%TO.P,J_FAN,7*%
%TO.N,PWM_CH12*%
X135040000Y-143340000D03*
%TO.P,J_FAN,8*%
X135040000Y-140800000D03*
%TD*%
D10*
%TO.P,F6,1*%
%TO.N,+12V*%
X42685000Y-43900000D03*
%TO.P,F6,2*%
%TO.N,SV6_PWR*%
X64885000Y-43900000D03*
%TD*%
D11*
%TO.P,SV2,1*%
%TO.N,PWM_CH1*%
X93000000Y-132000000D03*
D12*
%TO.P,SV2,2*%
%TO.N,SV2_PWR*%
X95540000Y-132000000D03*
%TO.P,SV2,3*%
%TO.N,GND*%
X98080000Y-132000000D03*
%TD*%
D13*
%TO.P,J4,1*%
%TO.N,GND*%
X130900000Y-107000000D03*
D10*
%TO.P,J4,2*%
X130900000Y-102000000D03*
%TD*%
D11*
%TO.P,SV6,1*%
%TO.N,PWM_CH5*%
X21000000Y-132000000D03*
D12*
%TO.P,SV6,2*%
%TO.N,SV6_PWR*%
X23540000Y-132000000D03*
%TO.P,SV6,3*%
%TO.N,GND*%
X26080000Y-132000000D03*
%TD*%
D11*
%TO.P,J41,1*%
%TO.N,SDA*%
X24000000Y-65680000D03*
D12*
%TO.P,J41,2*%
X24000000Y-68220000D03*
%TO.P,J41,3*%
X24000000Y-70760000D03*
%TO.P,J41,4*%
X24000000Y-73300000D03*
%TD*%
D13*
%TO.P,J2,1*%
%TO.N,+12V*%
X130900000Y-59000000D03*
D10*
%TO.P,J2,2*%
X130900000Y-54000000D03*
%TD*%
D13*
%TO.P,J34,1*%
%TO.N,+3V3*%
X13000000Y-83700000D03*
D10*
%TO.P,J34,2*%
X13000000Y-78700000D03*
%TD*%
D13*
%TO.P,J32,1*%
%TO.N,SDA*%
X13000000Y-71700000D03*
D10*
%TO.P,J32,2*%
X13000000Y-66700000D03*
%TD*%
D11*
%TO.P,SV1,1*%
%TO.N,PWM_CH0*%
X81000000Y-132000000D03*
D12*
%TO.P,SV1,2*%
%TO.N,SV1_PWR*%
X83540000Y-132000000D03*
%TO.P,SV1,3*%
%TO.N,GND*%
X86080000Y-132000000D03*
%TD*%
D11*
%TO.P,J_ESC,1*%
%TO.N,PWM_CH11*%
X113420000Y-141600000D03*
D12*
%TO.P,J_ESC,2*%
%TO.N,N/C*%
X115960000Y-141600000D03*
%TO.P,J_ESC,3*%
%TO.N,GND*%
X118500000Y-141600000D03*
%TD*%
D11*
%TO.P,SV3,1*%
%TO.N,PWM_CH2*%
X105000000Y-132000000D03*
D12*
%TO.P,SV3,2*%
%TO.N,SV3_PWR*%
X107540000Y-132000000D03*
%TO.P,SV3,3*%
%TO.N,GND*%
X110080000Y-132000000D03*
%TD*%
D13*
%TO.P,J37,1*%
%TO.N,+5V_LOGIC*%
X13000000Y-95700000D03*
D10*
%TO.P,J37,2*%
X13000000Y-90700000D03*
%TD*%
D11*
%TO.P,J44,1*%
%TO.N,GND_LOGIC*%
X24000000Y-101680000D03*
D12*
%TO.P,J44,2*%
X24000000Y-104220000D03*
%TO.P,J44,3*%
X24000000Y-106760000D03*
%TO.P,J44,4*%
X24000000Y-109300000D03*
%TD*%
D11*
%TO.P,SV10,1*%
%TO.N,PWM_CH9*%
X69000000Y-132000000D03*
D12*
%TO.P,SV10,2*%
%TO.N,SV10_PWR*%
X71540000Y-132000000D03*
%TO.P,SV10,3*%
%TO.N,GND*%
X74080000Y-132000000D03*
%TD*%
D11*
%TO.P,SV7,1*%
%TO.N,PWM_CH6*%
X33000000Y-132000000D03*
D12*
%TO.P,SV7,2*%
%TO.N,SV7_PWR*%
X35540000Y-132000000D03*
%TO.P,SV7,3*%
%TO.N,GND*%
X38080000Y-132000000D03*
%TD*%
D10*
%TO.P,F7,1*%
%TO.N,+12V*%
X42685000Y-60900000D03*
%TO.P,F7,2*%
%TO.N,SV7_PWR*%
X64885000Y-60900000D03*
%TD*%
D13*
%TO.P,J1,1*%
%TO.N,+12V*%
X130900000Y-47000000D03*
D10*
%TO.P,J1,2*%
X130900000Y-42000000D03*
%TD*%
D11*
%TO.P,SV9,1*%
%TO.N,PWM_CH8*%
X57000000Y-132000000D03*
D12*
%TO.P,SV9,2*%
%TO.N,SV9_PWR*%
X59540000Y-132000000D03*
%TO.P,SV9,3*%
%TO.N,GND*%
X62080000Y-132000000D03*
%TD*%
D11*
%TO.P,SV5,1*%
%TO.N,PWM_CH4*%
X129000000Y-132000000D03*
D12*
%TO.P,SV5,2*%
%TO.N,SV5_PWR*%
X131540000Y-132000000D03*
%TO.P,SV5,3*%
%TO.N,GND*%
X134080000Y-132000000D03*
%TD*%
D11*
%TO.P,J43,1*%
%TO.N,+5V_LOGIC*%
X24000000Y-89680000D03*
D12*
%TO.P,J43,2*%
X24000000Y-92220000D03*
%TO.P,J43,3*%
X24000000Y-94760000D03*
%TO.P,J43,4*%
X24000000Y-97300000D03*
%TD*%
D13*
%TO.P,J39,1*%
%TO.N,GND_LOGIC*%
X13000000Y-107700000D03*
D10*
%TO.P,J39,2*%
X13000000Y-102700000D03*
%TD*%
D11*
%TO.P,SV8,1*%
%TO.N,PWM_CH7*%
X45000000Y-132000000D03*
D12*
%TO.P,SV8,2*%
%TO.N,SV8_PWR*%
X47540000Y-132000000D03*
%TO.P,SV8,3*%
%TO.N,GND*%
X50080000Y-132000000D03*
%TD*%
D11*
%TO.P,J40,1*%
%TO.N,SCL*%
X24000000Y-53680000D03*
D12*
%TO.P,J40,2*%
X24000000Y-56220000D03*
%TO.P,J40,3*%
X24000000Y-58760000D03*
%TO.P,J40,4*%
X24000000Y-61300000D03*
%TD*%
D13*
%TO.P,J6,1*%
%TO.N,+5V_SERVO*%
X130900000Y-83000000D03*
D10*
%TO.P,J6,2*%
X130900000Y-78000000D03*
%TD*%
%TO.P,F4,1*%
%TO.N,+5V_SERVO*%
X87185000Y-94900000D03*
%TO.P,F4,2*%
%TO.N,SV4_PWR*%
X109385000Y-94900000D03*
%TD*%
%TO.P,F3,1*%
%TO.N,+7V4*%
X87185000Y-77900000D03*
%TO.P,F3,2*%
%TO.N,SV3_PWR*%
X109385000Y-77900000D03*
%TD*%
D13*
%TO.P,J5,1*%
%TO.N,+7V4*%
X130900000Y-71000000D03*
D10*
%TO.P,J5,2*%
X130900000Y-66000000D03*
%TD*%
D13*
%TO.P,J31,1*%
%TO.N,SCL*%
X13000000Y-59700000D03*
D10*
%TO.P,J31,2*%
X13000000Y-54700000D03*
%TD*%
%TO.P,F5,1*%
%TO.N,+5V_SERVO*%
X87185000Y-111900000D03*
%TO.P,F5,2*%
%TO.N,SV5_PWR*%
X109385000Y-111900000D03*
%TD*%
%TO.P,F9,1*%
%TO.N,+5V_SERVO*%
X42685000Y-94900000D03*
%TO.P,F9,2*%
%TO.N,SV9_PWR*%
X64885000Y-94900000D03*
%TD*%
D11*
%TO.P,J42,1*%
%TO.N,+3V3*%
X24000000Y-77680000D03*
D12*
%TO.P,J42,2*%
X24000000Y-80220000D03*
%TO.P,J42,3*%
X24000000Y-82760000D03*
%TO.P,J42,4*%
X24000000Y-85300000D03*
%TD*%
D13*
%TO.P,J3,1*%
%TO.N,GND*%
X130900000Y-95000000D03*
D10*
%TO.P,J3,2*%
X130900000Y-90000000D03*
%TD*%
%TO.P,F8,1*%
%TO.N,+7V4*%
X42685000Y-77900000D03*
%TO.P,F8,2*%
%TO.N,SV8_PWR*%
X64885000Y-77900000D03*
%TD*%
D11*
%TO.P,J_PCA,1*%
%TO.N,PWM_CH0*%
X98160000Y-24000000D03*
D12*
%TO.P,J_PCA,2*%
%TO.N,PWM_CH1*%
X95620000Y-24000000D03*
%TO.P,J_PCA,3*%
%TO.N,PWM_CH2*%
X93080000Y-24000000D03*
%TO.P,J_PCA,4*%
%TO.N,PWM_CH3*%
X90540000Y-24000000D03*
%TO.P,J_PCA,5*%
%TO.N,N/C*%
X88000000Y-24000000D03*
%TO.P,J_PCA,6*%
%TO.N,PWM_CH4*%
X85460000Y-24000000D03*
%TO.P,J_PCA,7*%
%TO.N,PWM_CH5*%
X82920000Y-24000000D03*
%TO.P,J_PCA,8*%
%TO.N,PWM_CH6*%
X80380000Y-24000000D03*
%TO.P,J_PCA,9*%
%TO.N,PWM_CH7*%
X77840000Y-24000000D03*
%TO.P,J_PCA,10*%
%TO.N,N/C*%
X75300000Y-24000000D03*
%TO.P,J_PCA,11*%
%TO.N,PWM_CH8*%
X72760000Y-24000000D03*
%TO.P,J_PCA,12*%
%TO.N,PWM_CH9*%
X70220000Y-24000000D03*
%TO.P,J_PCA,13*%
%TO.N,PWM_CH10*%
X67680000Y-24000000D03*
%TO.P,J_PCA,14*%
%TO.N,PWM_CH11*%
X65140000Y-24000000D03*
%TO.P,J_PCA,15*%
%TO.N,N/C*%
X62600000Y-24000000D03*
%TO.P,J_PCA,16*%
%TO.N,PWM_CH12*%
X60060000Y-24000000D03*
%TO.P,J_PCA,17*%
%TO.N,PWM_CH13*%
X57520000Y-24000000D03*
%TO.P,J_PCA,18*%
%TO.N,PWM_CH14*%
X54980000Y-24000000D03*
%TO.P,J_PCA,19*%
%TO.N,PWM_CH15*%
X52440000Y-24000000D03*
%TD*%
D10*
%TO.P,F1,1*%
%TO.N,+12V*%
X87185000Y-43900000D03*
%TO.P,F1,2*%
%TO.N,SV1_PWR*%
X109385000Y-43900000D03*
%TD*%
%TO.P,F10,1*%
%TO.N,+5V_SERVO*%
X42685000Y-111900000D03*
%TO.P,F10,2*%
%TO.N,SV10_PWR*%
X64885000Y-111900000D03*
%TD*%
D14*
%TO.N,SV4_PWR*%
X119540000Y-98892000D03*
%TO.N,PWM_CH12*%
X63790600Y-131340300D03*
%TO.N,PWM_CH1*%
X91942300Y-109865400D03*
X94224900Y-111830300D03*
%TO.N,PWM_CH5*%
X21000000Y-26902500D03*
%TO.N,PWM_CH0*%
X81000000Y-33281400D03*
%TO.N,PWM_CH11*%
X65140000Y-27955200D03*
X107705400Y-38620300D03*
%TO.N,PWM_CH2*%
X105000000Y-104856600D03*
X94868700Y-104856600D03*
X94868700Y-25773800D03*
%TO.N,PWM_CH6*%
X33000000Y-22110300D03*
%TO.N,PWM_CH8*%
X69759600Y-122813800D03*
%TO.N,PWM_CH4*%
X83815400Y-113777900D03*
%TO.N,PWM_CH7*%
X70294500Y-121892700D03*
%TD*%
%TO.N,+12V*%
D15*
X87185000Y-43900000D02*
X87185000Y-60900000D01*
X130900000Y-42000000D02*
X130900000Y-47000000D01*
X42685000Y-60900000D02*
X42685000Y-43900000D01*
X130900000Y-54000000D02*
X130900000Y-59000000D01*
X130900000Y-47000000D02*
X130900000Y-54000000D01*
%TO.N,SV2_PWR*%
D16*
X112142500Y-63657500D02*
X112142500Y-132916400D01*
X109385000Y-60900000D02*
X112142500Y-63657500D01*
X110959200Y-134099700D02*
X103469600Y-134099700D01*
X103469600Y-134099700D02*
X99318200Y-129948300D01*
X112142500Y-132916400D02*
X110959200Y-134099700D01*
X97207300Y-129948300D02*
X95540000Y-131615600D01*
X99318200Y-129948300D02*
X97207300Y-129948300D01*
X95540000Y-131615600D02*
X95540000Y-132000000D01*
%TO.N,PWM_CH3*%
D17*
X91816000Y-22724000D02*
X90540000Y-24000000D01*
X117000000Y-132000000D02*
X117000000Y-46031900D01*
X96890100Y-23498200D02*
X96115900Y-22724000D01*
X96115900Y-22724000D02*
X91816000Y-22724000D01*
X96890100Y-25922000D02*
X96890100Y-23498200D01*
X117000000Y-46031900D02*
X96890100Y-25922000D01*
%TO.N,SV4_PWR*%
D18*
X119540000Y-132000000D02*
X119540000Y-98892000D01*
%TO.N,GND*%
D19*
X122614500Y-132000000D02*
X122146800Y-132000000D01*
D15*
X122146800Y-137963400D02*
X122146800Y-132000000D01*
D19*
X74090200Y-132010200D02*
X74080000Y-132000000D01*
D15*
X130900000Y-126754400D02*
X134090200Y-129944600D01*
D19*
X134090200Y-129944600D02*
X134090200Y-131989800D01*
X38614500Y-132534500D02*
X38080000Y-132000000D01*
D15*
X130900000Y-90000000D02*
X130900000Y-95000000D01*
X50080000Y-134065600D02*
X49550500Y-134595100D01*
X62629100Y-134594300D02*
X73551300Y-134594300D01*
X122614500Y-132000000D02*
X127860100Y-126754400D01*
D19*
X119039600Y-141070600D02*
X118510200Y-141600000D01*
X50080000Y-133507800D02*
X50080000Y-132000000D01*
D15*
X62090200Y-134055400D02*
X62629100Y-134594300D01*
X130900000Y-95000000D02*
X130900000Y-102000000D01*
X130900000Y-107000000D02*
X130900000Y-126754400D01*
X40675100Y-134595100D02*
X38743300Y-132663300D01*
X50570500Y-134556100D02*
X61589500Y-134556100D01*
D19*
X122146800Y-132000000D02*
X122080000Y-132000000D01*
D15*
X36684600Y-134722000D02*
X28813900Y-134722000D01*
X50080000Y-133507800D02*
X50080000Y-134065600D01*
D19*
X134090200Y-131989800D02*
X134080000Y-132000000D01*
D15*
X130900000Y-102000000D02*
X130900000Y-107000000D01*
X73551300Y-134594300D02*
X74090200Y-134055400D01*
D19*
X62090200Y-133502700D02*
X62090200Y-132010200D01*
D15*
X49550500Y-134595100D02*
X40675100Y-134595100D01*
X127860100Y-126754400D02*
X130900000Y-126754400D01*
X119039600Y-141070600D02*
X122146800Y-137963400D01*
D19*
X74090200Y-134055400D02*
X74090200Y-132010200D01*
D15*
X50080000Y-134065600D02*
X50570500Y-134556100D01*
D19*
X118510200Y-141600000D02*
X118500000Y-141600000D01*
D15*
X61589500Y-134556100D02*
X62090200Y-134055400D01*
D19*
X26091900Y-132000000D02*
X26080000Y-132000000D01*
D15*
X28813900Y-134722000D02*
X26091900Y-132000000D01*
X38743300Y-132663300D02*
X36684600Y-134722000D01*
X38743300Y-132663300D02*
X38614500Y-132534500D01*
D19*
X62090200Y-132010200D02*
X62080000Y-132000000D01*
D15*
X62090200Y-133502700D02*
X62090200Y-134055400D01*
%TO.N,TACH*%
D17*
X132500000Y-140800000D02*
X132500000Y-143340000D01*
%TO.N,PWM_CH12*%
X67904000Y-127226900D02*
X63790600Y-131340300D01*
X67904000Y-42695000D02*
X67904000Y-127226900D01*
X60060000Y-24000000D02*
X60060000Y-34851000D01*
X60060000Y-34851000D02*
X67904000Y-42695000D01*
X135040000Y-140800000D02*
X135040000Y-143340000D01*
%TO.N,SV6_PWR*%
D16*
X45285200Y-32685200D02*
X56500000Y-43900000D01*
X45285200Y-32249900D02*
X45285200Y-32685200D01*
X23050200Y-129948100D02*
X29835800Y-123162500D01*
D19*
X23050200Y-131510200D02*
X23540000Y-132000000D01*
X23050200Y-129948100D02*
X23050200Y-131510200D01*
D16*
X56500000Y-43900000D02*
X64885000Y-43900000D01*
X32391700Y-20557600D02*
X33592900Y-20557600D01*
X29835800Y-123162500D02*
X29835800Y-23113500D01*
X29835800Y-23113500D02*
X32391700Y-20557600D01*
X33592900Y-20557600D02*
X45285200Y-32249900D01*
%TO.N,PWM_CH1*%
D17*
X93000000Y-130748300D02*
X94224900Y-129523400D01*
X93000000Y-132000000D02*
X93000000Y-130748300D01*
X91942300Y-27677700D02*
X95620000Y-24000000D01*
X94224900Y-129523400D02*
X94224900Y-111830300D01*
X91942300Y-109865400D02*
X91942300Y-27677700D01*
%TO.N,PWM_CH5*%
X21000000Y-132000000D02*
X21000000Y-26902500D01*
%TO.N,SDA*%
X24000000Y-73300000D02*
X24000000Y-70760000D01*
X24000000Y-68220000D02*
X24000000Y-65680000D01*
X24000000Y-70760000D02*
X24000000Y-68220000D01*
X13000000Y-66700000D02*
X13000000Y-71700000D01*
%TO.N,+3V3*%
D20*
X24000000Y-85300000D02*
X24000000Y-82760000D01*
X24000000Y-80220000D02*
X24000000Y-77680000D01*
X13000000Y-78700000D02*
X13000000Y-83700000D01*
X24000000Y-82760000D02*
X24000000Y-80220000D01*
%TO.N,PWM_CH0*%
D17*
X81000000Y-132000000D02*
X81000000Y-33281400D01*
%TO.N,SV1_PWR*%
D16*
X104700000Y-99231400D02*
X104700000Y-48585000D01*
X104700000Y-48585000D02*
X109385000Y-43900000D01*
X83540000Y-120391400D02*
X104700000Y-99231400D01*
X83540000Y-132000000D02*
X83540000Y-120391400D01*
%TO.N,PWM_CH11*%
D17*
X113420000Y-141600000D02*
X113420000Y-140348300D01*
X107705400Y-38620300D02*
X113597400Y-44512300D01*
X113597400Y-140170900D02*
X113420000Y-140348300D01*
X65140000Y-24000000D02*
X65140000Y-27955200D01*
X113597400Y-44512300D02*
X113597400Y-140170900D01*
%TO.N,PWM_CH2*%
X94868700Y-25773800D02*
X94868700Y-104856600D01*
X105000000Y-132000000D02*
X105000000Y-104856600D01*
%TO.N,SV3_PWR*%
D21*
X106999100Y-80285900D02*
X109385000Y-77900000D01*
X107540000Y-132000000D02*
X106999100Y-131459100D01*
X106999100Y-131459100D02*
X106999100Y-80285900D01*
%TO.N,+5V_LOGIC*%
D20*
X24000000Y-92220000D02*
X24000000Y-89680000D01*
X24000000Y-97300000D02*
X24000000Y-94760000D01*
X24000000Y-94760000D02*
X24000000Y-92220000D01*
X13000000Y-90700000D02*
X13000000Y-95700000D01*
%TO.N,GND_LOGIC*%
X24000000Y-109300000D02*
X24000000Y-106760000D01*
X13000000Y-102700000D02*
X13000000Y-107700000D01*
X24000000Y-106760000D02*
X24000000Y-104220000D01*
X24000000Y-104220000D02*
X24000000Y-101680000D01*
%TO.N,PWM_CH9*%
D17*
X70220000Y-24000000D02*
X68908800Y-22688800D01*
X68991100Y-130739400D02*
X69000000Y-130748300D01*
X68908800Y-22688800D02*
X64591300Y-22688800D01*
X63870000Y-36961600D02*
X68991100Y-42082700D01*
X68991100Y-42082700D02*
X68991100Y-130739400D01*
X64591300Y-22688800D02*
X63870000Y-23410100D01*
X63870000Y-23410100D02*
X63870000Y-36961600D01*
X69000000Y-132000000D02*
X69000000Y-130748300D01*
%TO.N,PWM_CH6*%
X33000000Y-132000000D02*
X33000000Y-22110300D01*
%TO.N,SV7_PWR*%
D16*
X35540000Y-90245000D02*
X64885000Y-60900000D01*
X35540000Y-132000000D02*
X35540000Y-90245000D01*
%TO.N,PWM_CH8*%
D17*
X69592800Y-122647000D02*
X69759600Y-122813800D01*
X72760000Y-24000000D02*
X69592800Y-27167200D01*
X69592800Y-27167200D02*
X69592800Y-122647000D01*
%TO.N,SV9_PWR*%
D18*
X64885000Y-94900000D02*
X67002300Y-97017300D01*
X67002300Y-97017300D02*
X67002300Y-124537700D01*
X67002300Y-124537700D02*
X59540000Y-132000000D01*
%TO.N,PWM_CH4*%
D17*
X83815400Y-113777900D02*
X83815400Y-25644600D01*
X83815400Y-25644600D02*
X85460000Y-24000000D01*
%TO.N,PWM_CH7*%
X77840000Y-24000000D02*
X77840000Y-114347200D01*
X77840000Y-114347200D02*
X70294500Y-121892700D01*
%TO.N,SV8_PWR*%
D21*
X47540000Y-95245000D02*
X64885000Y-77900000D01*
X47540000Y-132000000D02*
X47540000Y-95245000D01*
%TO.N,SCL*%
D17*
X13000000Y-54700000D02*
X13000000Y-59700000D01*
X24000000Y-58760000D02*
X24000000Y-56220000D01*
X24000000Y-61300000D02*
X24000000Y-58760000D01*
X24000000Y-56220000D02*
X24000000Y-53680000D01*
%TO.N,+5V_SERVO*%
D21*
X130900000Y-78000000D02*
X130900000Y-83000000D01*
X87185000Y-111900000D02*
X87185000Y-94900000D01*
X42685000Y-111900000D02*
X42685000Y-94900000D01*
%TO.N,+7V4*%
D16*
X130900000Y-66000000D02*
X130900000Y-71000000D01*
%TD*%
%TA.AperFunction,Conductor*%
%TO.N,+12V*%
G36*
X140487501Y-14504465D02*
G01*
X140647271Y-14544485D01*
X140703790Y-14575894D01*
X141170865Y-14731109D01*
X141187574Y-14737807D01*
X141679959Y-14970688D01*
X141692818Y-14977562D01*
X142159997Y-15257579D01*
X142172141Y-15265694D01*
X142343989Y-15393145D01*
X142609610Y-15590143D01*
X142620913Y-15599419D01*
X142801395Y-15762997D01*
X143024484Y-15965193D01*
X143034804Y-15975513D01*
X143217696Y-16177303D01*
X143400578Y-16379084D01*
X143409854Y-16390387D01*
X143734299Y-16827850D01*
X143742423Y-16840008D01*
X144022428Y-17307168D01*
X144029320Y-17320063D01*
X144262185Y-17812415D01*
X144267781Y-17825924D01*
X144451268Y-18338733D01*
X144455513Y-18352726D01*
X144495535Y-18512503D01*
X144500000Y-18548707D01*
X144500000Y-143451289D01*
X144495535Y-143487494D01*
X144455512Y-143647272D01*
X144451267Y-143661264D01*
X144267781Y-144174073D01*
X144262185Y-144187582D01*
X144029320Y-144679934D01*
X144022428Y-144692829D01*
X143742423Y-145159989D01*
X143734299Y-145172147D01*
X143409854Y-145609610D01*
X143400578Y-145620913D01*
X143034814Y-146024474D01*
X143024474Y-146034814D01*
X142620913Y-146400578D01*
X142609610Y-146409854D01*
X142172147Y-146734299D01*
X142159990Y-146742422D01*
X141692833Y-147022427D01*
X141679943Y-147029317D01*
X141433759Y-147145753D01*
X141187582Y-147262186D01*
X141174074Y-147267781D01*
X140661264Y-147451267D01*
X140647272Y-147455512D01*
X140487494Y-147495535D01*
X140451289Y-147500000D01*
X75149000Y-147500000D01*
X75074500Y-147480038D01*
X75019962Y-147425500D01*
X75000000Y-147351000D01*
X75000000Y-140378706D01*
X97149500Y-140378706D01*
X97149500Y-140621293D01*
X97181160Y-140861781D01*
X97181161Y-140861787D01*
X97181162Y-140861789D01*
X97243946Y-141096100D01*
X97336776Y-141320212D01*
X97458064Y-141530289D01*
X97605735Y-141722738D01*
X97777262Y-141894265D01*
X97969711Y-142041936D01*
X98179788Y-142163224D01*
X98403900Y-142256054D01*
X98638211Y-142318838D01*
X98638217Y-142318838D01*
X98638218Y-142318839D01*
X98703600Y-142327446D01*
X98878712Y-142350500D01*
X99121288Y-142350500D01*
X99361789Y-142318838D01*
X99596100Y-142256054D01*
X99820212Y-142163224D01*
X100030289Y-142041936D01*
X100222738Y-141894265D01*
X100394265Y-141722738D01*
X100541936Y-141530289D01*
X100663224Y-141320212D01*
X100756054Y-141096100D01*
X100818838Y-140861789D01*
X100850500Y-140621288D01*
X100850500Y-140378712D01*
X100819743Y-140145086D01*
X100818839Y-140138218D01*
X100818838Y-140138217D01*
X100818838Y-140138211D01*
X100756054Y-139903900D01*
X100663224Y-139679788D01*
X100541936Y-139469711D01*
X100394265Y-139277262D01*
X100222738Y-139105735D01*
X100030289Y-138958064D01*
X99843285Y-138850097D01*
X99820216Y-138836778D01*
X99820214Y-138836777D01*
X99820212Y-138836776D01*
X99688932Y-138782398D01*
X99596103Y-138743947D01*
X99596101Y-138743946D01*
X99596100Y-138743946D01*
X99361789Y-138681162D01*
X99361787Y-138681161D01*
X99361781Y-138681160D01*
X99121293Y-138649500D01*
X99121288Y-138649500D01*
X98878712Y-138649500D01*
X98878706Y-138649500D01*
X98638218Y-138681160D01*
X98403896Y-138743947D01*
X98179783Y-138836778D01*
X97969712Y-138958063D01*
X97969711Y-138958064D01*
X97777262Y-139105735D01*
X97777260Y-139105736D01*
X97777256Y-139105740D01*
X97605740Y-139277256D01*
X97458063Y-139469712D01*
X97336778Y-139679783D01*
X97243947Y-139903896D01*
X97181160Y-140138218D01*
X97149500Y-140378706D01*
X75000000Y-140378706D01*
X75000000Y-136036452D01*
X75019962Y-135961952D01*
X75043641Y-135931093D01*
X75266631Y-135708103D01*
X75597483Y-135377251D01*
X75757124Y-135169202D01*
X75888243Y-134942097D01*
X75988598Y-134699819D01*
X76056471Y-134446515D01*
X76090699Y-134186519D01*
X76090699Y-133924280D01*
X76056471Y-133664284D01*
X75988598Y-133410981D01*
X75988596Y-133410976D01*
X75988595Y-133410972D01*
X75935815Y-133283552D01*
X75888243Y-133168703D01*
X75757124Y-132941598D01*
X75597483Y-132733549D01*
X75484241Y-132620307D01*
X75445677Y-132553512D01*
X75440600Y-132514948D01*
X75440600Y-132122646D01*
X75440601Y-132122621D01*
X75440601Y-131903925D01*
X75440601Y-131903921D01*
X75407349Y-131693980D01*
X75341665Y-131491826D01*
X75245166Y-131302436D01*
X75237755Y-131292236D01*
X75120228Y-131130473D01*
X75110478Y-131120723D01*
X75110104Y-131120208D01*
X75043641Y-131053745D01*
X75005077Y-130986950D01*
X75000000Y-130948386D01*
X75000000Y-118239574D01*
X75019962Y-118165074D01*
X75043641Y-118134215D01*
X78384113Y-114793743D01*
X78460774Y-114679012D01*
X78460775Y-114679011D01*
X78513580Y-114551528D01*
X78540500Y-114416193D01*
X78540500Y-25236285D01*
X78560462Y-25161785D01*
X78601919Y-25115743D01*
X78719792Y-25030104D01*
X78870104Y-24879792D01*
X78989456Y-24715517D01*
X79049396Y-24666979D01*
X79125574Y-24654913D01*
X79197580Y-24682553D01*
X79230544Y-24715517D01*
X79349896Y-24879792D01*
X79500208Y-25030104D01*
X79672184Y-25155051D01*
X79861588Y-25251557D01*
X80063757Y-25317246D01*
X80273713Y-25350500D01*
X80273718Y-25350500D01*
X80486282Y-25350500D01*
X80486287Y-25350500D01*
X80696243Y-25317246D01*
X80898412Y-25251557D01*
X81087816Y-25155051D01*
X81259792Y-25030104D01*
X81410104Y-24879792D01*
X81529456Y-24715517D01*
X81589396Y-24666979D01*
X81665574Y-24654913D01*
X81737580Y-24682553D01*
X81770544Y-24715517D01*
X81889896Y-24879792D01*
X82040208Y-25030104D01*
X82212184Y-25155051D01*
X82401588Y-25251557D01*
X82603757Y-25317246D01*
X82813713Y-25350500D01*
X82813718Y-25350500D01*
X82978120Y-25350500D01*
X83052620Y-25370462D01*
X83107158Y-25425000D01*
X83127120Y-25499500D01*
X83124257Y-25528564D01*
X83114900Y-25575607D01*
X83114900Y-25575608D01*
X83114900Y-113347611D01*
X83103558Y-113404630D01*
X83045663Y-113544401D01*
X83045662Y-113544405D01*
X83014900Y-113699057D01*
X83014900Y-113856742D01*
X83045662Y-114011394D01*
X83045663Y-114011398D01*
X83106004Y-114157076D01*
X83106005Y-114157078D01*
X83106006Y-114157079D01*
X83193611Y-114288189D01*
X83305111Y-114399689D01*
X83436221Y-114487294D01*
X83581903Y-114547637D01*
X83736558Y-114578400D01*
X83894242Y-114578400D01*
X84048897Y-114547637D01*
X84194579Y-114487294D01*
X84325689Y-114399689D01*
X84437189Y-114288189D01*
X84524794Y-114157079D01*
X84585137Y-114011397D01*
X84615900Y-113856742D01*
X84615900Y-113699058D01*
X84585137Y-113544403D01*
X84557572Y-113477855D01*
X84527242Y-113404630D01*
X84515900Y-113347611D01*
X84515900Y-77775429D01*
X85284500Y-77775429D01*
X85284500Y-78024570D01*
X85317016Y-78271557D01*
X85317017Y-78271563D01*
X85317018Y-78271565D01*
X85381498Y-78512207D01*
X85476836Y-78742373D01*
X85601401Y-78958127D01*
X85753062Y-79155776D01*
X85929224Y-79331938D01*
X86126873Y-79483599D01*
X86342627Y-79608164D01*
X86572793Y-79703502D01*
X86813435Y-79767982D01*
X86813441Y-79767982D01*
X86813442Y-79767983D01*
X86880586Y-79776822D01*
X87060435Y-79800500D01*
X87309565Y-79800500D01*
X87556565Y-79767982D01*
X87797207Y-79703502D01*
X88027373Y-79608164D01*
X88243127Y-79483599D01*
X88440776Y-79331938D01*
X88616938Y-79155776D01*
X88768599Y-78958127D01*
X88893164Y-78742373D01*
X88988502Y-78512207D01*
X89052982Y-78271565D01*
X89085500Y-78024565D01*
X89085500Y-77775435D01*
X89052982Y-77528435D01*
X88988502Y-77287793D01*
X88893164Y-77057627D01*
X88768599Y-76841873D01*
X88616938Y-76644224D01*
X88440776Y-76468062D01*
X88243127Y-76316401D01*
X88035448Y-76196498D01*
X88027377Y-76191838D01*
X88027375Y-76191837D01*
X88027373Y-76191836D01*
X87882955Y-76132016D01*
X87797210Y-76096499D01*
X87797208Y-76096498D01*
X87797207Y-76096498D01*
X87556565Y-76032018D01*
X87556563Y-76032017D01*
X87556557Y-76032016D01*
X87309570Y-75999500D01*
X87309565Y-75999500D01*
X87060435Y-75999500D01*
X87060429Y-75999500D01*
X86813442Y-76032016D01*
X86572789Y-76096499D01*
X86342622Y-76191838D01*
X86126874Y-76316400D01*
X85929222Y-76468063D01*
X85753063Y-76644222D01*
X85601400Y-76841874D01*
X85476838Y-77057622D01*
X85381499Y-77287789D01*
X85317016Y-77528442D01*
X85284500Y-77775429D01*
X84515900Y-77775429D01*
X84515900Y-60775461D01*
X85285000Y-60775461D01*
X85285000Y-61024538D01*
X85317507Y-61271459D01*
X85381973Y-61512048D01*
X85477287Y-61742156D01*
X85587048Y-61932265D01*
X86453323Y-61065989D01*
X86463822Y-61118767D01*
X86520359Y-61255258D01*
X86602437Y-61378097D01*
X86706903Y-61482563D01*
X86829742Y-61564641D01*
X86966233Y-61621178D01*
X87019008Y-61631675D01*
X86152733Y-62497950D01*
X86342849Y-62607714D01*
X86572951Y-62703026D01*
X86813540Y-62767492D01*
X87060461Y-62799999D01*
X87060467Y-62800000D01*
X87309533Y-62800000D01*
X87309538Y-62799999D01*
X87556459Y-62767492D01*
X87797048Y-62703026D01*
X88027150Y-62607714D01*
X88217265Y-62497950D01*
X87350990Y-61631675D01*
X87403767Y-61621178D01*
X87540258Y-61564641D01*
X87663097Y-61482563D01*
X87767563Y-61378097D01*
X87849641Y-61255258D01*
X87906178Y-61118767D01*
X87916675Y-61065990D01*
X88782950Y-61932265D01*
X88892714Y-61742150D01*
X88988026Y-61512048D01*
X89052492Y-61271459D01*
X89084999Y-61024538D01*
X89085000Y-61024533D01*
X89085000Y-60775467D01*
X89084999Y-60775461D01*
X89052492Y-60528540D01*
X88988026Y-60287951D01*
X88892714Y-60057849D01*
X88782950Y-59867733D01*
X87916675Y-60734008D01*
X87906178Y-60681233D01*
X87849641Y-60544742D01*
X87767563Y-60421903D01*
X87663097Y-60317437D01*
X87540258Y-60235359D01*
X87403767Y-60178822D01*
X87350989Y-60168323D01*
X88217265Y-59302048D01*
X88027156Y-59192287D01*
X87797048Y-59096973D01*
X87556459Y-59032507D01*
X87309538Y-59000000D01*
X87060461Y-59000000D01*
X86813540Y-59032507D01*
X86572951Y-59096973D01*
X86342843Y-59192287D01*
X86152733Y-59302048D01*
X87019009Y-60168324D01*
X86966233Y-60178822D01*
X86829742Y-60235359D01*
X86706903Y-60317437D01*
X86602437Y-60421903D01*
X86520359Y-60544742D01*
X86463822Y-60681233D01*
X86453324Y-60734009D01*
X85587048Y-59867733D01*
X85477287Y-60057843D01*
X85381973Y-60287951D01*
X85317507Y-60528540D01*
X85285000Y-60775461D01*
X84515900Y-60775461D01*
X84515900Y-43775461D01*
X85285000Y-43775461D01*
X85285000Y-44024538D01*
X85317507Y-44271459D01*
X85381973Y-44512048D01*
X85477287Y-44742156D01*
X85587048Y-44932265D01*
X86453323Y-44065989D01*
X86463822Y-44118767D01*
X86520359Y-44255258D01*
X86602437Y-44378097D01*
X86706903Y-44482563D01*
X86829742Y-44564641D01*
X86966233Y-44621178D01*
X87019008Y-44631675D01*
X86152733Y-45497950D01*
X86342849Y-45607714D01*
X86572951Y-45703026D01*
X86813540Y-45767492D01*
X87060461Y-45799999D01*
X87060467Y-45800000D01*
X87309533Y-45800000D01*
X87309538Y-45799999D01*
X87556459Y-45767492D01*
X87797048Y-45703026D01*
X88027150Y-45607714D01*
X88217265Y-45497950D01*
X87350990Y-44631675D01*
X87403767Y-44621178D01*
X87540258Y-44564641D01*
X87663097Y-44482563D01*
X87767563Y-44378097D01*
X87849641Y-44255258D01*
X87906178Y-44118767D01*
X87916675Y-44065990D01*
X88782950Y-44932265D01*
X88892714Y-44742150D01*
X88988026Y-44512048D01*
X89052492Y-44271459D01*
X89084999Y-44024538D01*
X89085000Y-44024533D01*
X89085000Y-43775467D01*
X89084999Y-43775461D01*
X89052492Y-43528540D01*
X88988026Y-43287951D01*
X88892714Y-43057849D01*
X88782950Y-42867733D01*
X87916675Y-43734008D01*
X87906178Y-43681233D01*
X87849641Y-43544742D01*
X87767563Y-43421903D01*
X87663097Y-43317437D01*
X87540258Y-43235359D01*
X87403767Y-43178822D01*
X87350989Y-43168323D01*
X88217265Y-42302048D01*
X88027156Y-42192287D01*
X87797048Y-42096973D01*
X87556459Y-42032507D01*
X87309538Y-42000000D01*
X87060461Y-42000000D01*
X86813540Y-42032507D01*
X86572951Y-42096973D01*
X86342843Y-42192287D01*
X86152733Y-42302048D01*
X87019009Y-43168324D01*
X86966233Y-43178822D01*
X86829742Y-43235359D01*
X86706903Y-43317437D01*
X86602437Y-43421903D01*
X86520359Y-43544742D01*
X86463822Y-43681233D01*
X86453324Y-43734009D01*
X85587048Y-42867733D01*
X85477287Y-43057843D01*
X85381973Y-43287951D01*
X85317507Y-43528540D01*
X85285000Y-43775461D01*
X84515900Y-43775461D01*
X84515900Y-25996474D01*
X84535862Y-25921974D01*
X84559537Y-25891118D01*
X85081142Y-25369513D01*
X85147937Y-25330950D01*
X85209806Y-25327707D01*
X85353713Y-25350500D01*
X85353718Y-25350500D01*
X85566282Y-25350500D01*
X85566287Y-25350500D01*
X85776243Y-25317246D01*
X85978412Y-25251557D01*
X86167816Y-25155051D01*
X86339792Y-25030104D01*
X86490104Y-24879792D01*
X86609456Y-24715517D01*
X86669396Y-24666979D01*
X86745574Y-24654913D01*
X86817580Y-24682553D01*
X86850544Y-24715517D01*
X86969896Y-24879792D01*
X87120208Y-25030104D01*
X87292184Y-25155051D01*
X87481588Y-25251557D01*
X87683757Y-25317246D01*
X87893713Y-25350500D01*
X87893718Y-25350500D01*
X88106282Y-25350500D01*
X88106287Y-25350500D01*
X88316243Y-25317246D01*
X88518412Y-25251557D01*
X88707816Y-25155051D01*
X88879792Y-25030104D01*
X89030104Y-24879792D01*
X89149456Y-24715517D01*
X89209396Y-24666979D01*
X89285574Y-24654913D01*
X89357580Y-24682553D01*
X89390544Y-24715517D01*
X89509896Y-24879792D01*
X89660208Y-25030104D01*
X89832184Y-25155051D01*
X90021588Y-25251557D01*
X90223757Y-25317246D01*
X90433713Y-25350500D01*
X90433718Y-25350500D01*
X90646282Y-25350500D01*
X90646287Y-25350500D01*
X90856243Y-25317246D01*
X91058412Y-25251557D01*
X91247816Y-25155051D01*
X91419792Y-25030104D01*
X91570104Y-24879792D01*
X91689456Y-24715517D01*
X91749396Y-24666979D01*
X91825574Y-24654913D01*
X91897580Y-24682553D01*
X91930544Y-24715517D01*
X92049896Y-24879792D01*
X92200208Y-25030104D01*
X92372184Y-25155051D01*
X92561588Y-25251557D01*
X92763757Y-25317246D01*
X92948294Y-25346474D01*
X93018752Y-25377844D01*
X93064087Y-25440242D01*
X93072150Y-25516947D01*
X93040779Y-25587407D01*
X93030343Y-25598998D01*
X91398189Y-27231153D01*
X91398185Y-27231158D01*
X91321528Y-27345884D01*
X91321520Y-27345897D01*
X91268720Y-27473370D01*
X91268719Y-27473374D01*
X91241800Y-27608706D01*
X91241800Y-109435111D01*
X91230458Y-109492130D01*
X91172563Y-109631901D01*
X91172562Y-109631905D01*
X91141800Y-109786557D01*
X91141800Y-109944242D01*
X91172562Y-110098894D01*
X91172563Y-110098898D01*
X91232905Y-110244577D01*
X91232906Y-110244581D01*
X91297905Y-110341857D01*
X91322697Y-110414892D01*
X91307650Y-110490538D01*
X91279375Y-110529996D01*
X89268727Y-112540644D01*
X89201932Y-112579208D01*
X89124804Y-112579208D01*
X89058009Y-112540644D01*
X89019445Y-112473849D01*
X89019445Y-112396726D01*
X89052982Y-112271565D01*
X89085500Y-112024565D01*
X89085500Y-111775435D01*
X89052982Y-111528435D01*
X88988502Y-111287793D01*
X88893164Y-111057627D01*
X88768599Y-110841873D01*
X88616938Y-110644224D01*
X88479141Y-110506427D01*
X88440577Y-110439632D01*
X88435500Y-110401068D01*
X88435500Y-96398932D01*
X88455462Y-96324432D01*
X88479141Y-96293573D01*
X88616938Y-96155776D01*
X88768599Y-95958127D01*
X88893164Y-95742373D01*
X88988502Y-95512207D01*
X89052982Y-95271565D01*
X89085500Y-95024565D01*
X89085500Y-94775435D01*
X89052982Y-94528435D01*
X88988502Y-94287793D01*
X88893164Y-94057627D01*
X88768599Y-93841873D01*
X88616938Y-93644224D01*
X88440776Y-93468062D01*
X88243127Y-93316401D01*
X88096900Y-93231977D01*
X88027377Y-93191838D01*
X88027375Y-93191837D01*
X88027373Y-93191836D01*
X87812757Y-93102939D01*
X87797210Y-93096499D01*
X87797208Y-93096498D01*
X87797207Y-93096498D01*
X87556565Y-93032018D01*
X87556563Y-93032017D01*
X87556557Y-93032016D01*
X87309570Y-92999500D01*
X87309565Y-92999500D01*
X87060435Y-92999500D01*
X87060429Y-92999500D01*
X86813442Y-93032016D01*
X86572789Y-93096499D01*
X86342622Y-93191838D01*
X86126874Y-93316400D01*
X85929222Y-93468063D01*
X85753063Y-93644222D01*
X85601400Y-93841874D01*
X85476838Y-94057622D01*
X85381499Y-94287789D01*
X85317016Y-94528442D01*
X85284500Y-94775429D01*
X85284500Y-95024570D01*
X85317016Y-95271557D01*
X85317017Y-95271563D01*
X85317018Y-95271565D01*
X85381498Y-95512207D01*
X85476836Y-95742373D01*
X85601401Y-95958127D01*
X85753062Y-96155776D01*
X85753063Y-96155777D01*
X85890859Y-96293573D01*
X85929423Y-96360368D01*
X85934500Y-96398932D01*
X85934500Y-110401068D01*
X85914538Y-110475568D01*
X85890859Y-110506427D01*
X85753063Y-110644222D01*
X85601400Y-110841874D01*
X85476838Y-111057622D01*
X85381499Y-111287789D01*
X85317016Y-111528442D01*
X85284500Y-111775429D01*
X85284500Y-112024570D01*
X85317016Y-112271557D01*
X85317017Y-112271563D01*
X85317018Y-112271565D01*
X85381498Y-112512207D01*
X85476836Y-112742373D01*
X85601401Y-112958127D01*
X85753062Y-113155776D01*
X85929224Y-113331938D01*
X86126873Y-113483599D01*
X86342627Y-113608164D01*
X86572793Y-113703502D01*
X86813435Y-113767982D01*
X86813441Y-113767982D01*
X86813442Y-113767983D01*
X86851611Y-113773008D01*
X87060435Y-113800500D01*
X87309565Y-113800500D01*
X87556565Y-113767982D01*
X87681726Y-113734445D01*
X87758848Y-113734445D01*
X87825643Y-113773008D01*
X87864208Y-113839803D01*
X87864208Y-113916931D01*
X87825645Y-113983726D01*
X87825644Y-113983727D01*
X82395477Y-119413896D01*
X82256658Y-119604964D01*
X82256655Y-119604969D01*
X82149437Y-119815397D01*
X82149434Y-119815403D01*
X82149432Y-119815408D01*
X82076447Y-120040032D01*
X82039500Y-120273308D01*
X82039500Y-120273312D01*
X82039500Y-130500500D01*
X82019538Y-130575000D01*
X81965000Y-130629538D01*
X81890500Y-130649500D01*
X81849500Y-130649500D01*
X81775000Y-130629538D01*
X81720462Y-130575000D01*
X81700500Y-130500500D01*
X81700500Y-33711689D01*
X81711842Y-33654670D01*
X81758537Y-33541936D01*
X81769737Y-33514897D01*
X81800500Y-33360242D01*
X81800500Y-33202558D01*
X81769737Y-33047903D01*
X81709394Y-32902221D01*
X81621789Y-32771111D01*
X81510289Y-32659611D01*
X81379179Y-32572006D01*
X81379178Y-32572005D01*
X81379176Y-32572004D01*
X81233498Y-32511663D01*
X81233494Y-32511662D01*
X81078842Y-32480900D01*
X80921158Y-32480900D01*
X80766505Y-32511662D01*
X80766501Y-32511663D01*
X80620823Y-32572004D01*
X80489707Y-32659614D01*
X80378214Y-32771107D01*
X80290604Y-32902223D01*
X80230263Y-33047901D01*
X80230262Y-33047905D01*
X80199500Y-33202557D01*
X80199500Y-33360242D01*
X80230262Y-33514894D01*
X80230263Y-33514898D01*
X80288158Y-33654670D01*
X80299500Y-33711689D01*
X80299500Y-130500500D01*
X80279538Y-130575000D01*
X80225000Y-130629538D01*
X80150503Y-130649500D01*
X80102137Y-130649500D01*
X80102111Y-130649502D01*
X80042521Y-130655908D01*
X80042515Y-130655909D01*
X79907670Y-130706202D01*
X79907666Y-130706204D01*
X79792455Y-130792452D01*
X79792452Y-130792455D01*
X79706204Y-130907666D01*
X79706202Y-130907670D01*
X79655908Y-131042517D01*
X79649500Y-131102114D01*
X79649500Y-132897863D01*
X79649502Y-132897888D01*
X79655908Y-132957478D01*
X79655909Y-132957484D01*
X79706202Y-133092329D01*
X79706204Y-133092333D01*
X79792452Y-133207544D01*
X79792455Y-133207547D01*
X79907666Y-133293795D01*
X79907670Y-133293797D01*
X80042517Y-133344091D01*
X80102114Y-133350499D01*
X80102118Y-133350499D01*
X80102127Y-133350500D01*
X81897872Y-133350499D01*
X81957483Y-133344091D01*
X82053447Y-133308298D01*
X82092329Y-133293797D01*
X82092333Y-133293795D01*
X82149938Y-133250671D01*
X82207546Y-133207546D01*
X82283438Y-133106167D01*
X82344063Y-133058491D01*
X82420406Y-133047515D01*
X82492009Y-133076180D01*
X82508068Y-133090095D01*
X82562490Y-133144517D01*
X82753567Y-133283343D01*
X82964008Y-133390568D01*
X83188632Y-133463553D01*
X83421908Y-133500500D01*
X83421913Y-133500500D01*
X83658087Y-133500500D01*
X83658092Y-133500500D01*
X83891368Y-133463553D01*
X84115992Y-133390568D01*
X84326433Y-133283343D01*
X84517510Y-133144517D01*
X84684517Y-132977510D01*
X84782164Y-132843110D01*
X84842100Y-132794576D01*
X84918279Y-132782510D01*
X84990284Y-132810150D01*
X85023248Y-132843114D01*
X85049896Y-132879792D01*
X85200208Y-133030104D01*
X85372184Y-133155051D01*
X85561588Y-133251557D01*
X85763757Y-133317246D01*
X85973713Y-133350500D01*
X85973718Y-133350500D01*
X86186282Y-133350500D01*
X86186287Y-133350500D01*
X86396243Y-133317246D01*
X86598412Y-133251557D01*
X86787816Y-133155051D01*
X86959792Y-133030104D01*
X87110104Y-132879792D01*
X87235051Y-132707816D01*
X87331557Y-132518412D01*
X87397246Y-132316243D01*
X87430500Y-132106287D01*
X87430500Y-131893713D01*
X87397246Y-131683757D01*
X87331557Y-131481588D01*
X87235051Y-131292184D01*
X87110104Y-131120208D01*
X86959792Y-130969896D01*
X86787816Y-130844949D01*
X86598412Y-130748443D01*
X86396243Y-130682754D01*
X86186287Y-130649500D01*
X85973713Y-130649500D01*
X85798749Y-130677211D01*
X85763756Y-130682754D01*
X85561594Y-130748441D01*
X85561588Y-130748443D01*
X85561582Y-130748445D01*
X85561582Y-130748446D01*
X85372182Y-130844950D01*
X85372175Y-130844954D01*
X85277079Y-130914045D01*
X85205074Y-130941685D01*
X85128895Y-130929619D01*
X85068956Y-130881080D01*
X85041316Y-130809075D01*
X85040500Y-130793501D01*
X85040500Y-121074645D01*
X85060462Y-121000145D01*
X85084141Y-120969286D01*
X93270041Y-112783386D01*
X93336836Y-112744822D01*
X93413964Y-112744822D01*
X93480759Y-112783386D01*
X93519323Y-112850181D01*
X93524400Y-112888745D01*
X93524400Y-129171525D01*
X93504438Y-129246025D01*
X93480759Y-129276884D01*
X92455889Y-130301753D01*
X92455885Y-130301758D01*
X92379228Y-130416484D01*
X92379220Y-130416497D01*
X92323619Y-130550734D01*
X92322449Y-130550249D01*
X92285746Y-130609261D01*
X92217721Y-130645611D01*
X92183904Y-130649500D01*
X92102137Y-130649500D01*
X92102111Y-130649502D01*
X92042521Y-130655908D01*
X92042515Y-130655909D01*
X91907670Y-130706202D01*
X91907666Y-130706204D01*
X91792455Y-130792452D01*
X91792452Y-130792455D01*
X91706204Y-130907666D01*
X91706202Y-130907670D01*
X91655908Y-131042517D01*
X91649500Y-131102114D01*
X91649500Y-132897863D01*
X91649502Y-132897888D01*
X91655908Y-132957478D01*
X91655909Y-132957484D01*
X91706202Y-133092329D01*
X91706204Y-133092333D01*
X91792452Y-133207544D01*
X91792455Y-133207547D01*
X91907666Y-133293795D01*
X91907670Y-133293797D01*
X92042517Y-133344091D01*
X92102114Y-133350499D01*
X92102118Y-133350499D01*
X92102127Y-133350500D01*
X93897872Y-133350499D01*
X93957483Y-133344091D01*
X94053447Y-133308298D01*
X94092329Y-133293797D01*
X94092333Y-133293795D01*
X94149938Y-133250671D01*
X94207546Y-133207546D01*
X94283438Y-133106167D01*
X94344063Y-133058491D01*
X94420406Y-133047515D01*
X94492009Y-133076180D01*
X94508068Y-133090095D01*
X94562490Y-133144517D01*
X94753567Y-133283343D01*
X94964008Y-133390568D01*
X95188632Y-133463553D01*
X95421908Y-133500500D01*
X95421913Y-133500500D01*
X95658087Y-133500500D01*
X95658092Y-133500500D01*
X95891368Y-133463553D01*
X96115992Y-133390568D01*
X96326433Y-133283343D01*
X96517510Y-133144517D01*
X96684517Y-132977510D01*
X96782164Y-132843110D01*
X96842100Y-132794576D01*
X96918279Y-132782510D01*
X96990284Y-132810150D01*
X97023248Y-132843114D01*
X97049896Y-132879792D01*
X97200208Y-133030104D01*
X97372184Y-133155051D01*
X97561588Y-133251557D01*
X97763757Y-133317246D01*
X97973713Y-133350500D01*
X97973718Y-133350500D01*
X98186282Y-133350500D01*
X98186287Y-133350500D01*
X98396243Y-133317246D01*
X98598412Y-133251557D01*
X98787816Y-133155051D01*
X98959792Y-133030104D01*
X99110104Y-132879792D01*
X99235051Y-132707816D01*
X99331557Y-132518412D01*
X99363033Y-132421536D01*
X99405038Y-132356856D01*
X99473760Y-132321840D01*
X99550782Y-132325876D01*
X99610098Y-132362225D01*
X102492090Y-135244217D01*
X102492093Y-135244219D01*
X102492096Y-135244222D01*
X102595175Y-135319113D01*
X102683166Y-135383043D01*
X102893608Y-135490268D01*
X103118231Y-135563253D01*
X103351508Y-135600200D01*
X103351513Y-135600200D01*
X111077287Y-135600200D01*
X111077292Y-135600200D01*
X111310568Y-135563253D01*
X111535192Y-135490268D01*
X111745634Y-135383043D01*
X111936710Y-135244217D01*
X112642543Y-134538383D01*
X112709336Y-134499821D01*
X112786464Y-134499821D01*
X112853259Y-134538385D01*
X112891823Y-134605180D01*
X112896900Y-134643744D01*
X112896900Y-139825109D01*
X112876938Y-139899609D01*
X112871789Y-139907889D01*
X112799228Y-140016484D01*
X112799220Y-140016497D01*
X112743619Y-140150734D01*
X112742449Y-140150249D01*
X112705746Y-140209261D01*
X112637721Y-140245611D01*
X112603904Y-140249500D01*
X112522137Y-140249500D01*
X112522111Y-140249502D01*
X112462521Y-140255908D01*
X112462515Y-140255909D01*
X112327670Y-140306202D01*
X112327666Y-140306204D01*
X112212455Y-140392452D01*
X112212452Y-140392455D01*
X112126204Y-140507666D01*
X112126202Y-140507670D01*
X112075908Y-140642517D01*
X112069500Y-140702114D01*
X112069500Y-142497863D01*
X112069502Y-142497888D01*
X112075908Y-142557478D01*
X112075909Y-142557484D01*
X112126202Y-142692329D01*
X112126204Y-142692333D01*
X112212452Y-142807544D01*
X112212455Y-142807547D01*
X112327666Y-142893795D01*
X112327670Y-142893797D01*
X112462517Y-142944091D01*
X112522114Y-142950499D01*
X112522118Y-142950499D01*
X112522127Y-142950500D01*
X114317872Y-142950499D01*
X114377483Y-142944091D01*
X114473447Y-142908298D01*
X114512329Y-142893797D01*
X114512333Y-142893795D01*
X114608796Y-142821582D01*
X114627546Y-142807546D01*
X114679965Y-142737524D01*
X114713795Y-142692333D01*
X114713798Y-142692327D01*
X114749215Y-142597367D01*
X114793953Y-142534540D01*
X114864110Y-142502498D01*
X114940889Y-142509829D01*
X114994180Y-142544076D01*
X115080208Y-142630104D01*
X115252184Y-142755051D01*
X115441588Y-142851557D01*
X115643757Y-142917246D01*
X115853713Y-142950500D01*
X115853718Y-142950500D01*
X116066282Y-142950500D01*
X116066287Y-142950500D01*
X116276243Y-142917246D01*
X116478412Y-142851557D01*
X116667816Y-142755051D01*
X116839792Y-142630104D01*
X116990104Y-142479792D01*
X117109456Y-142315517D01*
X117169396Y-142266979D01*
X117245574Y-142254913D01*
X117317580Y-142282553D01*
X117350544Y-142315517D01*
X117469896Y-142479792D01*
X117620208Y-142630104D01*
X117792184Y-142755051D01*
X117981588Y-142851557D01*
X118183757Y-142917246D01*
X118306369Y-142936665D01*
X118340075Y-142946172D01*
X118395181Y-142968998D01*
X118648484Y-143036871D01*
X118648490Y-143036871D01*
X118648491Y-143036872D01*
X118719179Y-143046177D01*
X118908480Y-143071099D01*
X119170720Y-143071099D01*
X119430716Y-143036871D01*
X119684019Y-142968998D01*
X119684025Y-142968995D01*
X119684027Y-142968995D01*
X119739123Y-142946173D01*
X119926297Y-142868643D01*
X120153402Y-142737524D01*
X120361451Y-142577883D01*
X121843234Y-141096100D01*
X122245622Y-140693713D01*
X126069500Y-140693713D01*
X126069500Y-140906287D01*
X126102754Y-141116243D01*
X126168443Y-141318412D01*
X126261357Y-141500767D01*
X126264950Y-141507817D01*
X126264950Y-141507818D01*
X126389895Y-141679790D01*
X126389897Y-141679793D01*
X126475923Y-141765819D01*
X126514487Y-141832614D01*
X126514487Y-141909742D01*
X126475923Y-141976537D01*
X126422634Y-142010784D01*
X126327668Y-142046203D01*
X126327666Y-142046204D01*
X126212455Y-142132452D01*
X126212452Y-142132455D01*
X126126204Y-142247666D01*
X126126202Y-142247670D01*
X126075908Y-142382517D01*
X126069500Y-142442114D01*
X126069500Y-144237863D01*
X126069502Y-144237888D01*
X126075908Y-144297478D01*
X126075909Y-144297484D01*
X126126202Y-144432329D01*
X126126204Y-144432333D01*
X126212452Y-144547544D01*
X126212455Y-144547547D01*
X126327666Y-144633795D01*
X126327670Y-144633797D01*
X126462517Y-144684091D01*
X126522114Y-144690499D01*
X126522118Y-144690499D01*
X126522127Y-144690500D01*
X128317872Y-144690499D01*
X128377483Y-144684091D01*
X128473447Y-144648298D01*
X128512329Y-144633797D01*
X128512333Y-144633795D01*
X128569938Y-144590671D01*
X128627546Y-144547546D01*
X128713796Y-144432331D01*
X128713797Y-144432329D01*
X128713798Y-144432327D01*
X128749215Y-144337367D01*
X128793953Y-144274540D01*
X128864110Y-144242498D01*
X128940889Y-144249829D01*
X128994180Y-144284076D01*
X129080208Y-144370104D01*
X129252184Y-144495051D01*
X129441588Y-144591557D01*
X129643757Y-144657246D01*
X129853713Y-144690500D01*
X129853718Y-144690500D01*
X130066282Y-144690500D01*
X130066287Y-144690500D01*
X130276243Y-144657246D01*
X130478412Y-144591557D01*
X130667816Y-144495051D01*
X130839792Y-144370104D01*
X130990104Y-144219792D01*
X131109456Y-144055517D01*
X131169396Y-144006979D01*
X131245574Y-143994913D01*
X131317580Y-144022553D01*
X131350544Y-144055517D01*
X131469896Y-144219792D01*
X131620208Y-144370104D01*
X131792184Y-144495051D01*
X131981588Y-144591557D01*
X132183757Y-144657246D01*
X132393713Y-144690500D01*
X132393718Y-144690500D01*
X132606282Y-144690500D01*
X132606287Y-144690500D01*
X132816243Y-144657246D01*
X133018412Y-144591557D01*
X133207816Y-144495051D01*
X133379792Y-144370104D01*
X133530104Y-144219792D01*
X133649456Y-144055517D01*
X133709396Y-144006979D01*
X133785574Y-143994913D01*
X133857580Y-144022553D01*
X133890544Y-144055517D01*
X134009896Y-144219792D01*
X134160208Y-144370104D01*
X134332184Y-144495051D01*
X134521588Y-144591557D01*
X134723757Y-144657246D01*
X134933713Y-144690500D01*
X134933718Y-144690500D01*
X135146282Y-144690500D01*
X135146287Y-144690500D01*
X135356243Y-144657246D01*
X135558412Y-144591557D01*
X135747816Y-144495051D01*
X135919792Y-144370104D01*
X136070104Y-144219792D01*
X136195051Y-144047816D01*
X136291557Y-143858412D01*
X136357246Y-143656243D01*
X136390500Y-143446287D01*
X136390500Y-143233713D01*
X136357246Y-143023757D01*
X136291557Y-142821588D01*
X136195051Y-142632184D01*
X136193538Y-142630102D01*
X136141594Y-142558606D01*
X136070104Y-142460208D01*
X135919792Y-142309896D01*
X135919790Y-142309894D01*
X135919782Y-142309888D01*
X135801920Y-142224256D01*
X135753382Y-142164317D01*
X135740500Y-142103713D01*
X135740500Y-142036285D01*
X135760462Y-141961785D01*
X135801919Y-141915743D01*
X135919792Y-141830104D01*
X136070104Y-141679792D01*
X136195051Y-141507816D01*
X136291557Y-141318412D01*
X136357246Y-141116243D01*
X136390500Y-140906287D01*
X136390500Y-140693713D01*
X136357246Y-140483757D01*
X136291557Y-140281588D01*
X136195051Y-140092184D01*
X136070104Y-139920208D01*
X135919792Y-139769896D01*
X135747816Y-139644949D01*
X135558412Y-139548443D01*
X135356243Y-139482754D01*
X135146287Y-139449500D01*
X134933713Y-139449500D01*
X134758749Y-139477211D01*
X134723756Y-139482754D01*
X134521594Y-139548441D01*
X134521588Y-139548443D01*
X134521582Y-139548445D01*
X134521582Y-139548446D01*
X134332182Y-139644950D01*
X134332181Y-139644950D01*
X134160209Y-139769895D01*
X134160206Y-139769897D01*
X134009897Y-139920206D01*
X134009895Y-139920209D01*
X133890544Y-140084482D01*
X133830604Y-140133020D01*
X133754425Y-140145086D01*
X133682420Y-140117446D01*
X133649456Y-140084482D01*
X133587236Y-139998844D01*
X133530104Y-139920208D01*
X133379792Y-139769896D01*
X133207816Y-139644949D01*
X133018412Y-139548443D01*
X132816243Y-139482754D01*
X132606287Y-139449500D01*
X132393713Y-139449500D01*
X132218749Y-139477211D01*
X132183756Y-139482754D01*
X131981594Y-139548441D01*
X131981588Y-139548443D01*
X131981582Y-139548445D01*
X131981582Y-139548446D01*
X131792182Y-139644950D01*
X131792181Y-139644950D01*
X131620209Y-139769895D01*
X131620206Y-139769897D01*
X131469897Y-139920206D01*
X131469895Y-139920209D01*
X131350544Y-140084482D01*
X131290604Y-140133020D01*
X131214425Y-140145086D01*
X131142420Y-140117446D01*
X131109456Y-140084482D01*
X131047236Y-139998844D01*
X130990104Y-139920208D01*
X130839792Y-139769896D01*
X130667816Y-139644949D01*
X130478412Y-139548443D01*
X130276243Y-139482754D01*
X130066287Y-139449500D01*
X129853713Y-139449500D01*
X129678749Y-139477211D01*
X129643756Y-139482754D01*
X129441594Y-139548441D01*
X129441588Y-139548443D01*
X129441582Y-139548445D01*
X129441582Y-139548446D01*
X129252182Y-139644950D01*
X129252181Y-139644950D01*
X129080209Y-139769895D01*
X129080206Y-139769897D01*
X128929897Y-139920206D01*
X128929895Y-139920209D01*
X128810544Y-140084482D01*
X128750604Y-140133020D01*
X128674425Y-140145086D01*
X128602420Y-140117446D01*
X128569456Y-140084482D01*
X128507236Y-139998844D01*
X128450104Y-139920208D01*
X128299792Y-139769896D01*
X128127816Y-139644949D01*
X127938412Y-139548443D01*
X127736243Y-139482754D01*
X127526287Y-139449500D01*
X127313713Y-139449500D01*
X127138749Y-139477211D01*
X127103756Y-139482754D01*
X126901594Y-139548441D01*
X126901588Y-139548443D01*
X126901582Y-139548445D01*
X126901582Y-139548446D01*
X126712182Y-139644950D01*
X126712181Y-139644950D01*
X126540209Y-139769895D01*
X126540206Y-139769897D01*
X126389897Y-139920206D01*
X126389895Y-139920209D01*
X126264950Y-140092181D01*
X126264950Y-140092182D01*
X126168446Y-140281582D01*
X126168441Y-140281594D01*
X126102754Y-140483756D01*
X126096103Y-140525748D01*
X126069500Y-140693713D01*
X122245622Y-140693713D01*
X122356835Y-140582500D01*
X122982537Y-139956798D01*
X123654083Y-139285252D01*
X123733903Y-139181227D01*
X123813724Y-139077203D01*
X123944843Y-138850097D01*
X124045198Y-138607819D01*
X124113071Y-138354516D01*
X124130185Y-138224518D01*
X124147300Y-138094520D01*
X124147300Y-133358052D01*
X124167262Y-133283552D01*
X124190941Y-133252693D01*
X128645093Y-128798541D01*
X128711888Y-128759977D01*
X128750452Y-128754900D01*
X130009648Y-128754900D01*
X130084148Y-128774862D01*
X130115007Y-128798541D01*
X131711607Y-130395141D01*
X131750171Y-130461936D01*
X131750171Y-130539064D01*
X131711607Y-130605859D01*
X131644812Y-130644423D01*
X131606248Y-130649500D01*
X131433713Y-130649500D01*
X131258749Y-130677211D01*
X131223756Y-130682754D01*
X131021594Y-130748441D01*
X131021588Y-130748443D01*
X131021582Y-130748445D01*
X131021582Y-130748446D01*
X130832182Y-130844950D01*
X130832181Y-130844950D01*
X130660209Y-130969895D01*
X130660198Y-130969904D01*
X130574179Y-131055923D01*
X130507384Y-131094487D01*
X130430256Y-131094487D01*
X130363462Y-131055922D01*
X130329215Y-131002633D01*
X130317008Y-130969904D01*
X130293796Y-130907669D01*
X130293795Y-130907668D01*
X130293795Y-130907666D01*
X130207547Y-130792455D01*
X130207544Y-130792452D01*
X130092333Y-130706204D01*
X130092329Y-130706202D01*
X129957482Y-130655908D01*
X129897876Y-130649500D01*
X128102136Y-130649500D01*
X128102111Y-130649502D01*
X128042521Y-130655908D01*
X128042515Y-130655909D01*
X127907670Y-130706202D01*
X127907666Y-130706204D01*
X127792455Y-130792452D01*
X127792452Y-130792455D01*
X127706204Y-130907666D01*
X127706202Y-130907670D01*
X127655908Y-131042517D01*
X127649500Y-131102114D01*
X127649500Y-132897863D01*
X127649502Y-132897888D01*
X127655908Y-132957478D01*
X127655909Y-132957484D01*
X127706202Y-133092329D01*
X127706204Y-133092333D01*
X127792452Y-133207544D01*
X127792455Y-133207547D01*
X127907666Y-133293795D01*
X127907670Y-133293797D01*
X128042517Y-133344091D01*
X128102114Y-133350499D01*
X128102118Y-133350499D01*
X128102127Y-133350500D01*
X129897872Y-133350499D01*
X129957483Y-133344091D01*
X130053447Y-133308298D01*
X130092329Y-133293797D01*
X130092333Y-133293795D01*
X130149938Y-133250671D01*
X130207546Y-133207546D01*
X130293796Y-133092331D01*
X130293797Y-133092329D01*
X130293798Y-133092327D01*
X130329215Y-132997367D01*
X130373953Y-132934540D01*
X130444110Y-132902498D01*
X130520889Y-132909829D01*
X130574180Y-132944076D01*
X130660208Y-133030104D01*
X130832184Y-133155051D01*
X131021588Y-133251557D01*
X131223757Y-133317246D01*
X131433713Y-133350500D01*
X131433718Y-133350500D01*
X131646282Y-133350500D01*
X131646287Y-133350500D01*
X131856243Y-133317246D01*
X132058412Y-133251557D01*
X132247816Y-133155051D01*
X132419792Y-133030104D01*
X132570104Y-132879792D01*
X132689456Y-132715517D01*
X132749396Y-132666979D01*
X132825574Y-132654913D01*
X132897580Y-132682553D01*
X132930544Y-132715517D01*
X133049896Y-132879792D01*
X133200208Y-133030104D01*
X133372184Y-133155051D01*
X133561588Y-133251557D01*
X133763757Y-133317246D01*
X133973713Y-133350500D01*
X133973718Y-133350500D01*
X134186282Y-133350500D01*
X134186287Y-133350500D01*
X134396243Y-133317246D01*
X134598412Y-133251557D01*
X134787816Y-133155051D01*
X134959792Y-133030104D01*
X135110104Y-132879792D01*
X135110109Y-132879784D01*
X135113399Y-132876495D01*
X135115087Y-132874667D01*
X135120228Y-132869527D01*
X135183449Y-132782510D01*
X135245159Y-132697574D01*
X135245159Y-132697572D01*
X135245166Y-132697564D01*
X135341665Y-132508174D01*
X135352797Y-132473914D01*
X135407349Y-132306020D01*
X135440601Y-132096079D01*
X135440601Y-131883521D01*
X135440601Y-131878248D01*
X135440600Y-131878218D01*
X135440600Y-131485052D01*
X135460562Y-131410552D01*
X135484241Y-131379693D01*
X135530914Y-131333020D01*
X135597483Y-131266451D01*
X135757124Y-131058402D01*
X135888243Y-130831297D01*
X135971814Y-130629538D01*
X135988595Y-130589027D01*
X135988596Y-130589023D01*
X135988598Y-130589019D01*
X136056471Y-130335716D01*
X136090699Y-130075719D01*
X136090699Y-129813480D01*
X136056471Y-129553484D01*
X135988598Y-129300181D01*
X135988596Y-129300176D01*
X135988595Y-129300172D01*
X135935307Y-129171525D01*
X135888243Y-129057903D01*
X135757124Y-128830798D01*
X135597483Y-128622749D01*
X132944141Y-125969407D01*
X132905577Y-125902612D01*
X132900500Y-125864048D01*
X132900500Y-89868878D01*
X132900499Y-89868876D01*
X132866271Y-89608892D01*
X132866271Y-89608889D01*
X132798399Y-89355584D01*
X132798399Y-89355583D01*
X132782752Y-89317809D01*
X132698043Y-89113303D01*
X132566924Y-88886197D01*
X132566921Y-88886193D01*
X132566921Y-88886192D01*
X132407284Y-88678151D01*
X132221848Y-88492715D01*
X132013806Y-88333078D01*
X131786701Y-88201959D01*
X131786699Y-88201958D01*
X131786697Y-88201957D01*
X131711154Y-88170666D01*
X131544416Y-88101600D01*
X131318255Y-88041002D01*
X131291116Y-88033730D01*
X131291114Y-88033729D01*
X131291108Y-88033728D01*
X131031123Y-87999500D01*
X131031120Y-87999500D01*
X130768880Y-87999500D01*
X130768876Y-87999500D01*
X130508892Y-88033728D01*
X130508889Y-88033728D01*
X130255584Y-88101600D01*
X130255583Y-88101600D01*
X130013298Y-88201959D01*
X129786193Y-88333078D01*
X129786192Y-88333078D01*
X129578151Y-88492715D01*
X129578151Y-88492716D01*
X129578149Y-88492718D01*
X129392718Y-88678149D01*
X129392716Y-88678151D01*
X129392715Y-88678151D01*
X129233078Y-88886192D01*
X129233078Y-88886193D01*
X129101959Y-89113298D01*
X129001600Y-89355583D01*
X129001600Y-89355584D01*
X128933728Y-89608889D01*
X128933728Y-89608892D01*
X128899500Y-89868876D01*
X128899500Y-124604900D01*
X128879538Y-124679400D01*
X128825000Y-124733938D01*
X128750500Y-124753900D01*
X127728976Y-124753900D01*
X127581868Y-124773268D01*
X127581866Y-124773268D01*
X127468992Y-124788127D01*
X127215677Y-124856003D01*
X126973398Y-124956359D01*
X126746294Y-125087477D01*
X126655967Y-125156788D01*
X126538249Y-125247117D01*
X126538247Y-125247118D01*
X121778384Y-130006980D01*
X121711590Y-130045544D01*
X121628437Y-130067825D01*
X121502381Y-130101602D01*
X121502378Y-130101603D01*
X121502375Y-130101604D01*
X121260098Y-130201959D01*
X121032993Y-130333078D01*
X121032992Y-130333078D01*
X120824951Y-130492715D01*
X120824951Y-130492716D01*
X120794859Y-130522808D01*
X120728064Y-130561372D01*
X120650936Y-130561372D01*
X120584141Y-130522808D01*
X120545577Y-130456013D01*
X120540500Y-130417449D01*
X120540500Y-98793460D01*
X120502051Y-98600165D01*
X120502050Y-98600163D01*
X120426632Y-98418087D01*
X120426631Y-98418084D01*
X120389968Y-98363215D01*
X120317139Y-98254218D01*
X120177782Y-98114861D01*
X120122911Y-98078197D01*
X120013915Y-98005368D01*
X120013912Y-98005367D01*
X119831836Y-97929949D01*
X119831834Y-97929948D01*
X119676989Y-97899147D01*
X119638541Y-97891500D01*
X119441459Y-97891500D01*
X119409389Y-97897878D01*
X119248165Y-97929948D01*
X119248163Y-97929949D01*
X119066087Y-98005367D01*
X119066084Y-98005368D01*
X118902219Y-98114860D01*
X118902214Y-98114864D01*
X118762864Y-98254214D01*
X118762860Y-98254219D01*
X118653368Y-98418084D01*
X118653367Y-98418087D01*
X118577949Y-98600163D01*
X118577948Y-98600165D01*
X118539500Y-98793460D01*
X118539500Y-130788217D01*
X118519538Y-130862717D01*
X118465000Y-130917255D01*
X118390500Y-130937217D01*
X118316000Y-130917255D01*
X118271220Y-130877511D01*
X118236348Y-130830929D01*
X118207546Y-130792454D01*
X118207544Y-130792453D01*
X118207544Y-130792452D01*
X118092333Y-130706204D01*
X118092329Y-130706202D01*
X117957482Y-130655908D01*
X117897885Y-130649500D01*
X117897873Y-130649500D01*
X117849500Y-130649500D01*
X117775000Y-130629538D01*
X117720462Y-130575000D01*
X117700500Y-130500500D01*
X117700500Y-77875429D01*
X128999500Y-77875429D01*
X128999500Y-78124570D01*
X129032016Y-78371557D01*
X129032017Y-78371563D01*
X129032018Y-78371565D01*
X129096498Y-78612207D01*
X129191836Y-78842373D01*
X129316401Y-79058127D01*
X129468062Y-79255776D01*
X129468063Y-79255777D01*
X129605859Y-79393573D01*
X129644423Y-79460368D01*
X129649500Y-79498932D01*
X129649500Y-80985077D01*
X129629538Y-81059577D01*
X129575000Y-81114115D01*
X129547369Y-81126514D01*
X129430662Y-81165187D01*
X129281344Y-81257289D01*
X129157289Y-81381344D01*
X129065187Y-81530663D01*
X129010001Y-81697201D01*
X129010001Y-81697203D01*
X128999500Y-81799992D01*
X128999500Y-84200008D01*
X129010001Y-84302797D01*
X129065186Y-84469334D01*
X129157289Y-84618655D01*
X129281345Y-84742711D01*
X129430666Y-84834814D01*
X129597203Y-84889999D01*
X129699992Y-84900500D01*
X129699996Y-84900500D01*
X132100004Y-84900500D01*
X132100008Y-84900500D01*
X132202797Y-84889999D01*
X132369334Y-84834814D01*
X132518655Y-84742711D01*
X132642711Y-84618655D01*
X132734814Y-84469334D01*
X132789999Y-84302797D01*
X132800500Y-84200008D01*
X132800500Y-81799992D01*
X132789999Y-81697203D01*
X132734814Y-81530666D01*
X132642711Y-81381345D01*
X132518655Y-81257289D01*
X132369337Y-81165187D01*
X132252631Y-81126514D01*
X132188192Y-81084130D01*
X132153578Y-81015206D01*
X132150500Y-80985077D01*
X132150500Y-79498932D01*
X132170462Y-79424432D01*
X132194141Y-79393573D01*
X132257000Y-79330714D01*
X132331938Y-79255776D01*
X132483599Y-79058127D01*
X132608164Y-78842373D01*
X132703502Y-78612207D01*
X132767982Y-78371565D01*
X132800500Y-78124565D01*
X132800500Y-77875435D01*
X132767982Y-77628435D01*
X132703502Y-77387793D01*
X132608164Y-77157627D01*
X132483599Y-76941873D01*
X132331938Y-76744224D01*
X132155776Y-76568062D01*
X131958127Y-76416401D01*
X131886209Y-76374879D01*
X131742377Y-76291838D01*
X131742375Y-76291837D01*
X131742373Y-76291836D01*
X131607548Y-76235989D01*
X131512210Y-76196499D01*
X131512208Y-76196498D01*
X131512207Y-76196498D01*
X131271565Y-76132018D01*
X131271563Y-76132017D01*
X131271557Y-76132016D01*
X131024570Y-76099500D01*
X131024565Y-76099500D01*
X130775435Y-76099500D01*
X130775429Y-76099500D01*
X130528442Y-76132016D01*
X130287789Y-76196499D01*
X130057622Y-76291838D01*
X129841874Y-76416400D01*
X129644222Y-76568063D01*
X129468063Y-76744222D01*
X129316400Y-76941874D01*
X129191838Y-77157622D01*
X129096499Y-77387789D01*
X129032016Y-77628442D01*
X128999500Y-77875429D01*
X117700500Y-77875429D01*
X117700500Y-65875429D01*
X128999500Y-65875429D01*
X128999500Y-66124570D01*
X129032016Y-66371557D01*
X129032017Y-66371563D01*
X129032018Y-66371565D01*
X129096498Y-66612207D01*
X129191836Y-66842373D01*
X129316401Y-67058127D01*
X129368710Y-67126297D01*
X129398225Y-67197554D01*
X129399500Y-67217002D01*
X129399500Y-69101250D01*
X129379538Y-69175750D01*
X129328724Y-69228064D01*
X129281345Y-69257289D01*
X129281342Y-69257291D01*
X129157289Y-69381344D01*
X129065187Y-69530663D01*
X129010001Y-69697201D01*
X129010001Y-69697203D01*
X128999500Y-69799992D01*
X128999500Y-72200008D01*
X129010001Y-72302797D01*
X129065186Y-72469334D01*
X129157289Y-72618655D01*
X129281345Y-72742711D01*
X129430666Y-72834814D01*
X129597203Y-72889999D01*
X129699992Y-72900500D01*
X129699996Y-72900500D01*
X132100004Y-72900500D01*
X132100008Y-72900500D01*
X132202797Y-72889999D01*
X132369334Y-72834814D01*
X132518655Y-72742711D01*
X132642711Y-72618655D01*
X132734814Y-72469334D01*
X132789999Y-72302797D01*
X132800500Y-72200008D01*
X132800500Y-69799992D01*
X132789999Y-69697203D01*
X132734814Y-69530666D01*
X132642711Y-69381345D01*
X132518655Y-69257289D01*
X132471275Y-69228064D01*
X132418349Y-69171964D01*
X132400500Y-69101250D01*
X132400500Y-67217002D01*
X132420462Y-67142502D01*
X132431290Y-67126297D01*
X132483599Y-67058127D01*
X132608164Y-66842373D01*
X132703502Y-66612207D01*
X132767982Y-66371565D01*
X132800500Y-66124565D01*
X132800500Y-65875435D01*
X132767982Y-65628435D01*
X132703502Y-65387793D01*
X132608164Y-65157627D01*
X132483599Y-64941873D01*
X132331938Y-64744224D01*
X132155776Y-64568062D01*
X131958127Y-64416401D01*
X131886209Y-64374879D01*
X131742377Y-64291838D01*
X131742375Y-64291837D01*
X131742373Y-64291836D01*
X131606091Y-64235386D01*
X131512210Y-64196499D01*
X131512208Y-64196498D01*
X131512207Y-64196498D01*
X131271565Y-64132018D01*
X131271563Y-64132017D01*
X131271557Y-64132016D01*
X131024570Y-64099500D01*
X131024565Y-64099500D01*
X130775435Y-64099500D01*
X130775429Y-64099500D01*
X130528442Y-64132016D01*
X130287789Y-64196499D01*
X130057622Y-64291838D01*
X129841874Y-64416400D01*
X129644222Y-64568063D01*
X129468063Y-64744222D01*
X129316400Y-64941874D01*
X129191838Y-65157622D01*
X129096499Y-65387789D01*
X129032016Y-65628442D01*
X128999500Y-65875429D01*
X117700500Y-65875429D01*
X117700500Y-57800011D01*
X129000000Y-57800011D01*
X129000000Y-58600000D01*
X130385523Y-58600000D01*
X130323978Y-58692110D01*
X130274979Y-58810402D01*
X130250000Y-58935981D01*
X130250000Y-59064019D01*
X130274979Y-59189598D01*
X130323978Y-59307890D01*
X130385523Y-59400000D01*
X129000000Y-59400000D01*
X129000000Y-60199988D01*
X129010492Y-60302687D01*
X129010494Y-60302696D01*
X129065642Y-60469120D01*
X129157680Y-60618339D01*
X129281660Y-60742319D01*
X129430879Y-60834357D01*
X129597303Y-60889505D01*
X129597312Y-60889507D01*
X129700011Y-60899999D01*
X129700022Y-60900000D01*
X130500000Y-60900000D01*
X130500000Y-59514476D01*
X130592110Y-59576022D01*
X130710402Y-59625021D01*
X130835981Y-59650000D01*
X130964019Y-59650000D01*
X131089598Y-59625021D01*
X131207890Y-59576022D01*
X131300000Y-59514476D01*
X131300000Y-60900000D01*
X132099978Y-60900000D01*
X132099988Y-60899999D01*
X132202687Y-60889507D01*
X132202696Y-60889505D01*
X132369120Y-60834357D01*
X132518339Y-60742319D01*
X132642319Y-60618339D01*
X132734357Y-60469120D01*
X132789505Y-60302696D01*
X132789507Y-60302687D01*
X132799999Y-60199988D01*
X132800000Y-60199978D01*
X132800000Y-59400000D01*
X131414477Y-59400000D01*
X131476022Y-59307890D01*
X131525021Y-59189598D01*
X131550000Y-59064019D01*
X131550000Y-58935981D01*
X131525021Y-58810402D01*
X131476022Y-58692110D01*
X131414477Y-58600000D01*
X132800000Y-58600000D01*
X132800000Y-57800021D01*
X132799999Y-57800011D01*
X132789507Y-57697312D01*
X132789505Y-57697303D01*
X132734357Y-57530879D01*
X132642319Y-57381660D01*
X132518339Y-57257680D01*
X132369120Y-57165642D01*
X132202696Y-57110494D01*
X132202687Y-57110492D01*
X132099988Y-57100000D01*
X131300000Y-57100000D01*
X131300000Y-58485523D01*
X131207890Y-58423978D01*
X131089598Y-58374979D01*
X130964019Y-58350000D01*
X130835981Y-58350000D01*
X130710402Y-58374979D01*
X130592110Y-58423978D01*
X130500000Y-58485523D01*
X130500000Y-57100000D01*
X129700011Y-57100000D01*
X129597312Y-57110492D01*
X129597303Y-57110494D01*
X129430879Y-57165642D01*
X129281660Y-57257680D01*
X129157680Y-57381660D01*
X129065642Y-57530879D01*
X129010494Y-57697303D01*
X129010492Y-57697312D01*
X129000000Y-57800011D01*
X117700500Y-57800011D01*
X117700500Y-53875461D01*
X129000000Y-53875461D01*
X129000000Y-54124538D01*
X129032507Y-54371459D01*
X129096973Y-54612048D01*
X129192287Y-54842156D01*
X129302048Y-55032265D01*
X130253367Y-54080946D01*
X130274979Y-54189598D01*
X130323978Y-54307890D01*
X130395112Y-54414351D01*
X130485649Y-54504888D01*
X130592110Y-54576022D01*
X130710402Y-54625021D01*
X130819052Y-54646632D01*
X129867733Y-55597950D01*
X130057849Y-55707714D01*
X130287951Y-55803026D01*
X130528540Y-55867492D01*
X130775461Y-55899999D01*
X130775467Y-55900000D01*
X131024533Y-55900000D01*
X131024538Y-55899999D01*
X131271459Y-55867492D01*
X131512048Y-55803026D01*
X131742150Y-55707714D01*
X131932265Y-55597950D01*
X130980947Y-54646632D01*
X131089598Y-54625021D01*
X131207890Y-54576022D01*
X131314351Y-54504888D01*
X131404888Y-54414351D01*
X131476022Y-54307890D01*
X131525021Y-54189598D01*
X131546632Y-54080947D01*
X132497950Y-55032265D01*
X132607714Y-54842150D01*
X132703026Y-54612048D01*
X132767492Y-54371459D01*
X132799999Y-54124538D01*
X132800000Y-54124533D01*
X132800000Y-53875467D01*
X132799999Y-53875461D01*
X132767492Y-53628540D01*
X132703026Y-53387951D01*
X132607714Y-53157849D01*
X132497950Y-52967733D01*
X131546632Y-53919051D01*
X131525021Y-53810402D01*
X131476022Y-53692110D01*
X131404888Y-53585649D01*
X131314351Y-53495112D01*
X131207890Y-53423978D01*
X131089598Y-53374979D01*
X130980946Y-53353366D01*
X131932265Y-52402048D01*
X131742156Y-52292287D01*
X131512048Y-52196973D01*
X131271459Y-52132507D01*
X131024538Y-52100000D01*
X130775461Y-52100000D01*
X130528540Y-52132507D01*
X130287951Y-52196973D01*
X130057843Y-52292287D01*
X129867733Y-52402048D01*
X130819052Y-53353367D01*
X130710402Y-53374979D01*
X130592110Y-53423978D01*
X130485649Y-53495112D01*
X130395112Y-53585649D01*
X130323978Y-53692110D01*
X130274979Y-53810402D01*
X130253367Y-53919052D01*
X129302048Y-52967733D01*
X129192287Y-53157843D01*
X129096973Y-53387951D01*
X129032507Y-53628540D01*
X129000000Y-53875461D01*
X117700500Y-53875461D01*
X117700500Y-45962906D01*
X117675362Y-45836529D01*
X117675361Y-45836527D01*
X117673580Y-45827572D01*
X117662366Y-45800500D01*
X117662163Y-45800011D01*
X129000000Y-45800011D01*
X129000000Y-46600000D01*
X130385523Y-46600000D01*
X130323978Y-46692110D01*
X130274979Y-46810402D01*
X130250000Y-46935981D01*
X130250000Y-47064019D01*
X130274979Y-47189598D01*
X130323978Y-47307890D01*
X130385523Y-47400000D01*
X129000000Y-47400000D01*
X129000000Y-48199988D01*
X129010492Y-48302687D01*
X129010494Y-48302696D01*
X129065642Y-48469120D01*
X129157680Y-48618339D01*
X129281660Y-48742319D01*
X129430879Y-48834357D01*
X129597303Y-48889505D01*
X129597312Y-48889507D01*
X129700011Y-48899999D01*
X129700022Y-48900000D01*
X130500000Y-48900000D01*
X130500000Y-47514476D01*
X130592110Y-47576022D01*
X130710402Y-47625021D01*
X130835981Y-47650000D01*
X130964019Y-47650000D01*
X131089598Y-47625021D01*
X131207890Y-47576022D01*
X131300000Y-47514476D01*
X131300000Y-48900000D01*
X132099978Y-48900000D01*
X132099988Y-48899999D01*
X132202687Y-48889507D01*
X132202696Y-48889505D01*
X132369120Y-48834357D01*
X132518339Y-48742319D01*
X132642319Y-48618339D01*
X132734357Y-48469120D01*
X132789505Y-48302696D01*
X132789507Y-48302687D01*
X132799999Y-48199988D01*
X132800000Y-48199978D01*
X132800000Y-47400000D01*
X131414477Y-47400000D01*
X131476022Y-47307890D01*
X131525021Y-47189598D01*
X131550000Y-47064019D01*
X131550000Y-46935981D01*
X131525021Y-46810402D01*
X131476022Y-46692110D01*
X131414477Y-46600000D01*
X132800000Y-46600000D01*
X132800000Y-45800021D01*
X132799999Y-45800011D01*
X132789507Y-45697312D01*
X132789505Y-45697303D01*
X132734357Y-45530879D01*
X132642319Y-45381660D01*
X132518339Y-45257680D01*
X132369120Y-45165642D01*
X132202696Y-45110494D01*
X132202687Y-45110492D01*
X132099988Y-45100000D01*
X131300000Y-45100000D01*
X131300000Y-46485523D01*
X131207890Y-46423978D01*
X131089598Y-46374979D01*
X130964019Y-46350000D01*
X130835981Y-46350000D01*
X130710402Y-46374979D01*
X130592110Y-46423978D01*
X130500000Y-46485523D01*
X130500000Y-45100000D01*
X129700011Y-45100000D01*
X129597312Y-45110492D01*
X129597303Y-45110494D01*
X129430879Y-45165642D01*
X129281660Y-45257680D01*
X129157680Y-45381660D01*
X129065642Y-45530879D01*
X129010494Y-45697303D01*
X129010492Y-45697312D01*
X129000000Y-45800011D01*
X117662163Y-45800011D01*
X117648897Y-45767982D01*
X117620775Y-45700089D01*
X117618919Y-45697312D01*
X117544116Y-45585361D01*
X117544114Y-45585358D01*
X117446542Y-45487786D01*
X113834217Y-41875461D01*
X129000000Y-41875461D01*
X129000000Y-42124538D01*
X129032507Y-42371459D01*
X129096973Y-42612048D01*
X129192287Y-42842156D01*
X129302048Y-43032265D01*
X130253367Y-42080946D01*
X130274979Y-42189598D01*
X130323978Y-42307890D01*
X130395112Y-42414351D01*
X130485649Y-42504888D01*
X130592110Y-42576022D01*
X130710402Y-42625021D01*
X130819052Y-42646632D01*
X129867733Y-43597950D01*
X130057849Y-43707714D01*
X130287951Y-43803026D01*
X130528540Y-43867492D01*
X130775461Y-43899999D01*
X130775467Y-43900000D01*
X131024533Y-43900000D01*
X131024538Y-43899999D01*
X131271459Y-43867492D01*
X131512048Y-43803026D01*
X131742150Y-43707714D01*
X131932265Y-43597950D01*
X130980947Y-42646632D01*
X131089598Y-42625021D01*
X131207890Y-42576022D01*
X131314351Y-42504888D01*
X131404888Y-42414351D01*
X131476022Y-42307890D01*
X131525021Y-42189598D01*
X131546632Y-42080947D01*
X132497950Y-43032265D01*
X132607714Y-42842150D01*
X132703026Y-42612048D01*
X132767492Y-42371459D01*
X132799999Y-42124538D01*
X132800000Y-42124533D01*
X132800000Y-41875467D01*
X132799999Y-41875461D01*
X132767492Y-41628540D01*
X132703026Y-41387951D01*
X132607714Y-41157849D01*
X132497950Y-40967733D01*
X131546632Y-41919051D01*
X131525021Y-41810402D01*
X131476022Y-41692110D01*
X131404888Y-41585649D01*
X131314351Y-41495112D01*
X131207890Y-41423978D01*
X131089598Y-41374979D01*
X130980946Y-41353366D01*
X131932265Y-40402048D01*
X131742156Y-40292287D01*
X131512048Y-40196973D01*
X131271459Y-40132507D01*
X131024538Y-40100000D01*
X130775461Y-40100000D01*
X130528540Y-40132507D01*
X130287951Y-40196973D01*
X130057843Y-40292287D01*
X129867733Y-40402048D01*
X130819052Y-41353367D01*
X130710402Y-41374979D01*
X130592110Y-41423978D01*
X130485649Y-41495112D01*
X130395112Y-41585649D01*
X130323978Y-41692110D01*
X130274979Y-41810402D01*
X130253367Y-41919052D01*
X129302048Y-40967733D01*
X129192287Y-41157843D01*
X129096973Y-41387951D01*
X129032507Y-41628540D01*
X129000000Y-41875461D01*
X113834217Y-41875461D01*
X97634241Y-25675484D01*
X97595677Y-25608689D01*
X97590600Y-25570125D01*
X97590600Y-25499499D01*
X97610562Y-25424999D01*
X97665100Y-25370461D01*
X97739600Y-25350499D01*
X99057864Y-25350499D01*
X99057872Y-25350499D01*
X99117483Y-25344091D01*
X99213447Y-25308298D01*
X99252329Y-25293797D01*
X99252333Y-25293795D01*
X99309938Y-25250671D01*
X99367546Y-25207546D01*
X99410671Y-25149938D01*
X99453795Y-25092333D01*
X99453797Y-25092329D01*
X99504091Y-24957482D01*
X99510499Y-24897885D01*
X99510499Y-24897882D01*
X99510500Y-24897873D01*
X99510499Y-23102128D01*
X99504091Y-23042517D01*
X99477005Y-22969895D01*
X99453797Y-22907670D01*
X99453795Y-22907666D01*
X99367547Y-22792455D01*
X99367544Y-22792452D01*
X99252333Y-22706204D01*
X99252329Y-22706202D01*
X99117482Y-22655908D01*
X99057876Y-22649500D01*
X97262136Y-22649500D01*
X97262111Y-22649502D01*
X97202521Y-22655908D01*
X97202515Y-22655909D01*
X97172747Y-22667012D01*
X97095968Y-22674341D01*
X97025810Y-22642299D01*
X97015321Y-22632764D01*
X96562446Y-22179889D01*
X96562443Y-22179886D01*
X96447711Y-22103225D01*
X96447708Y-22103223D01*
X96447702Y-22103220D01*
X96320229Y-22050420D01*
X96320227Y-22050419D01*
X96184897Y-22023500D01*
X96184894Y-22023500D01*
X96184893Y-22023500D01*
X91884994Y-22023500D01*
X91747007Y-22023500D01*
X91611674Y-22050419D01*
X91611670Y-22050420D01*
X91484197Y-22103220D01*
X91484184Y-22103228D01*
X91369458Y-22179885D01*
X91369453Y-22179889D01*
X90918856Y-22630485D01*
X90852061Y-22669049D01*
X90790189Y-22672292D01*
X90646287Y-22649500D01*
X90433713Y-22649500D01*
X90258749Y-22677211D01*
X90223756Y-22682754D01*
X90021594Y-22748441D01*
X90021588Y-22748443D01*
X90021582Y-22748445D01*
X90021582Y-22748446D01*
X89832182Y-22844950D01*
X89832181Y-22844950D01*
X89660209Y-22969895D01*
X89660206Y-22969897D01*
X89509897Y-23120206D01*
X89509895Y-23120209D01*
X89390544Y-23284482D01*
X89330604Y-23333020D01*
X89254425Y-23345086D01*
X89182420Y-23317446D01*
X89149456Y-23284482D01*
X89087236Y-23198844D01*
X89030104Y-23120208D01*
X88879792Y-22969896D01*
X88707816Y-22844949D01*
X88518412Y-22748443D01*
X88316243Y-22682754D01*
X88106287Y-22649500D01*
X87893713Y-22649500D01*
X87718749Y-22677211D01*
X87683756Y-22682754D01*
X87481594Y-22748441D01*
X87481588Y-22748443D01*
X87481582Y-22748445D01*
X87481582Y-22748446D01*
X87292182Y-22844950D01*
X87292181Y-22844950D01*
X87120209Y-22969895D01*
X87120206Y-22969897D01*
X86969897Y-23120206D01*
X86969895Y-23120209D01*
X86850544Y-23284482D01*
X86790604Y-23333020D01*
X86714425Y-23345086D01*
X86642420Y-23317446D01*
X86609456Y-23284482D01*
X86547236Y-23198844D01*
X86490104Y-23120208D01*
X86339792Y-22969896D01*
X86167816Y-22844949D01*
X85978412Y-22748443D01*
X85776243Y-22682754D01*
X85566287Y-22649500D01*
X85353713Y-22649500D01*
X85178749Y-22677211D01*
X85143756Y-22682754D01*
X84941594Y-22748441D01*
X84941588Y-22748443D01*
X84941582Y-22748445D01*
X84941582Y-22748446D01*
X84752182Y-22844950D01*
X84752181Y-22844950D01*
X84580209Y-22969895D01*
X84580206Y-22969897D01*
X84429897Y-23120206D01*
X84429895Y-23120209D01*
X84310544Y-23284482D01*
X84250604Y-23333020D01*
X84174425Y-23345086D01*
X84102420Y-23317446D01*
X84069456Y-23284482D01*
X84007236Y-23198844D01*
X83950104Y-23120208D01*
X83799792Y-22969896D01*
X83627816Y-22844949D01*
X83438412Y-22748443D01*
X83236243Y-22682754D01*
X83026287Y-22649500D01*
X82813713Y-22649500D01*
X82638749Y-22677211D01*
X82603756Y-22682754D01*
X82401594Y-22748441D01*
X82401588Y-22748443D01*
X82401582Y-22748445D01*
X82401582Y-22748446D01*
X82212182Y-22844950D01*
X82212181Y-22844950D01*
X82040209Y-22969895D01*
X82040206Y-22969897D01*
X81889897Y-23120206D01*
X81889895Y-23120209D01*
X81770544Y-23284482D01*
X81710604Y-23333020D01*
X81634425Y-23345086D01*
X81562420Y-23317446D01*
X81529456Y-23284482D01*
X81467236Y-23198844D01*
X81410104Y-23120208D01*
X81259792Y-22969896D01*
X81087816Y-22844949D01*
X80898412Y-22748443D01*
X80696243Y-22682754D01*
X80486287Y-22649500D01*
X80273713Y-22649500D01*
X80098749Y-22677211D01*
X80063756Y-22682754D01*
X79861594Y-22748441D01*
X79861588Y-22748443D01*
X79861582Y-22748445D01*
X79861582Y-22748446D01*
X79672182Y-22844950D01*
X79672181Y-22844950D01*
X79500209Y-22969895D01*
X79500206Y-22969897D01*
X79349897Y-23120206D01*
X79349895Y-23120209D01*
X79230544Y-23284482D01*
X79170604Y-23333020D01*
X79094425Y-23345086D01*
X79022420Y-23317446D01*
X78989456Y-23284482D01*
X78927236Y-23198844D01*
X78870104Y-23120208D01*
X78719792Y-22969896D01*
X78547816Y-22844949D01*
X78358412Y-22748443D01*
X78156243Y-22682754D01*
X77946287Y-22649500D01*
X77733713Y-22649500D01*
X77558749Y-22677211D01*
X77523756Y-22682754D01*
X77321594Y-22748441D01*
X77321588Y-22748443D01*
X77321582Y-22748445D01*
X77321582Y-22748446D01*
X77132182Y-22844950D01*
X77132181Y-22844950D01*
X76960209Y-22969895D01*
X76960206Y-22969897D01*
X76809897Y-23120206D01*
X76809895Y-23120209D01*
X76690544Y-23284482D01*
X76630604Y-23333020D01*
X76554425Y-23345086D01*
X76482420Y-23317446D01*
X76449456Y-23284482D01*
X76387236Y-23198844D01*
X76330104Y-23120208D01*
X76179792Y-22969896D01*
X76007816Y-22844949D01*
X75818412Y-22748443D01*
X75616243Y-22682754D01*
X75406287Y-22649500D01*
X75193713Y-22649500D01*
X75193712Y-22649500D01*
X75172304Y-22652890D01*
X75095599Y-22644826D01*
X75033202Y-22599489D01*
X75001834Y-22529028D01*
X75000000Y-22505724D01*
X75000000Y-14649000D01*
X75019962Y-14574500D01*
X75074500Y-14519962D01*
X75149000Y-14500000D01*
X140451297Y-14500000D01*
X140487501Y-14504465D01*
G37*
%TD.AperFunction*%
%TD*%
M02*
