%TF.GenerationSoftware,KiCad,Pcbnew,10.0.0*%
%TF.CreationDate,2026-03-30T17:00:25-04:00*%
%TF.ProjectId,geodude-carrier,67656f64-7564-4652-9d63-617272696572,rev?*%
%TF.SameCoordinates,Original*%
%TF.FileFunction,Copper,L1,Top*%
%TF.FilePolarity,Positive*%
%FSLAX46Y46*%
G04 Gerber Fmt 4.6, Leading zero omitted, Abs format (unit mm)*
G04 Created by KiCad (PCBNEW 10.0.0) date 2026-03-30 17:00:25*
%MOMM*%
%LPD*%
G01*
G04 APERTURE LIST*
G04 Aperture macros list*
%AMRoundRect*
0 Rectangle with rounded corners*
0 $1 Rounding radius*
0 $2 $3 $4 $5 $6 $7 $8 $9 X,Y pos of 4 corners*
0 Add a 4 corners polygon primitive as box body*
4,1,4,$2,$3,$4,$5,$6,$7,$8,$9,$2,$3,0*
0 Add four circle primitives for the rounded corners*
1,1,$1+$1,$2,$3*
1,1,$1+$1,$4,$5*
1,1,$1+$1,$6,$7*
1,1,$1+$1,$8,$9*
0 Add four rect primitives between the rounded corners*
20,1,$1+$1,$2,$3,$4,$5,0*
20,1,$1+$1,$4,$5,$6,$7,0*
20,1,$1+$1,$6,$7,$8,$9,0*
20,1,$1+$1,$8,$9,$2,$3,0*%
G04 Aperture macros list end*
%TA.AperFunction,ComponentPad*%
%ADD10C,2.800000*%
%TD*%
%TA.AperFunction,ComponentPad*%
%ADD11R,1.700000X1.700000*%
%TD*%
%TA.AperFunction,ComponentPad*%
%ADD12C,1.700000*%
%TD*%
%TA.AperFunction,ComponentPad*%
%ADD13RoundRect,0.250001X1.149999X-1.149999X1.149999X1.149999X-1.149999X1.149999X-1.149999X-1.149999X0*%
%TD*%
%TA.AperFunction,ViaPad*%
%ADD14C,0.600000*%
%TD*%
%TA.AperFunction,Conductor*%
%ADD15C,1.699800*%
%TD*%
%TA.AperFunction,Conductor*%
%ADD16C,3.000000*%
%TD*%
%TA.AperFunction,Conductor*%
%ADD17C,2.000000*%
%TD*%
%TA.AperFunction,Conductor*%
%ADD18C,0.400000*%
%TD*%
%TA.AperFunction,Conductor*%
%ADD19C,1.000000*%
%TD*%
%TA.AperFunction,Conductor*%
%ADD20C,0.600000*%
%TD*%
%TA.AperFunction,Conductor*%
%ADD21C,1.500000*%
%TD*%
G04 APERTURE END LIST*
D10*
%TO.P,F2,1*%
%TO.N,+12V*%
X94685000Y-64000000D03*
%TO.P,F2,2*%
%TO.N,SV2_PWR*%
X117315000Y-64000000D03*
%TD*%
D11*
%TO.P,SV4,1*%
%TO.N,PWM_CH3*%
X137000000Y-152000000D03*
D12*
%TO.P,SV4,2*%
%TO.N,SV4_PWR*%
X139540000Y-152000000D03*
%TO.P,SV4,3*%
%TO.N,GND*%
X142080000Y-152000000D03*
%TD*%
D10*
%TO.P,F6,1*%
%TO.N,+12V*%
X46685000Y-48000000D03*
%TO.P,F6,2*%
%TO.N,SV6_PWR*%
X69315000Y-48000000D03*
%TD*%
D11*
%TO.P,SV2,1*%
%TO.N,PWM_CH1*%
X113000000Y-152000000D03*
D12*
%TO.P,SV2,2*%
%TO.N,SV2_PWR*%
X115540000Y-152000000D03*
%TO.P,SV2,3*%
%TO.N,GND*%
X118080000Y-152000000D03*
%TD*%
D13*
%TO.P,J4,1*%
%TO.N,GND*%
X172000000Y-113000000D03*
D10*
%TO.P,J4,2*%
X172000000Y-108000000D03*
%TD*%
D11*
%TO.P,SV6,1*%
%TO.N,PWM_CH5*%
X41000000Y-152000000D03*
D12*
%TO.P,SV6,2*%
%TO.N,SV6_PWR*%
X43540000Y-152000000D03*
%TO.P,SV6,3*%
%TO.N,GND*%
X46080000Y-152000000D03*
%TD*%
D11*
%TO.P,J41,1*%
%TO.N,SDA*%
X28000000Y-52190000D03*
D12*
%TO.P,J41,2*%
X28000000Y-54730000D03*
%TO.P,J41,3*%
X28000000Y-57270000D03*
%TO.P,J41,4*%
X28000000Y-59810000D03*
%TD*%
D13*
%TO.P,J2,1*%
%TO.N,+12V*%
X172000000Y-57000000D03*
D10*
%TO.P,J2,2*%
X172000000Y-52000000D03*
%TD*%
D13*
%TO.P,J34,1*%
%TO.N,+3V3*%
X10000000Y-80000000D03*
D10*
%TO.P,J34,2*%
X10000000Y-75000000D03*
%TD*%
D13*
%TO.P,J35,1*%
%TO.N,+3V3*%
X10000000Y-92000000D03*
D10*
%TO.P,J35,2*%
X10000000Y-87000000D03*
%TD*%
D13*
%TO.P,J32,1*%
%TO.N,SDA*%
X10000000Y-50000000D03*
D10*
%TO.P,J32,2*%
X10000000Y-45000000D03*
%TD*%
D11*
%TO.P,SV1,1*%
%TO.N,PWM_CH0*%
X101000000Y-152000000D03*
D12*
%TO.P,SV1,2*%
%TO.N,SV1_PWR*%
X103540000Y-152000000D03*
%TO.P,SV1,3*%
%TO.N,GND*%
X106080000Y-152000000D03*
%TD*%
D11*
%TO.P,J_ESC,1*%
%TO.N,PWM_CH11*%
X89000000Y-138000000D03*
D12*
%TO.P,J_ESC,2*%
%TO.N,N/C*%
X91540000Y-138000000D03*
%TO.P,J_ESC,3*%
%TO.N,GND*%
X94080000Y-138000000D03*
%TD*%
D11*
%TO.P,SV3,1*%
%TO.N,PWM_CH2*%
X125000000Y-152000000D03*
D12*
%TO.P,SV3,2*%
%TO.N,SV3_PWR*%
X127540000Y-152000000D03*
%TO.P,SV3,3*%
%TO.N,GND*%
X130080000Y-152000000D03*
%TD*%
D13*
%TO.P,J37,1*%
%TO.N,+5V_LOGIC*%
X10000000Y-110000000D03*
D10*
%TO.P,J37,2*%
X10000000Y-105000000D03*
%TD*%
D11*
%TO.P,J44,1*%
%TO.N,GND_LOGIC*%
X28000000Y-142190000D03*
D12*
%TO.P,J44,2*%
X28000000Y-144730000D03*
%TO.P,J44,3*%
X28000000Y-147270000D03*
%TO.P,J44,4*%
X28000000Y-149810000D03*
%TD*%
D11*
%TO.P,SV10,1*%
%TO.N,PWM_CH9*%
X89000000Y-152000000D03*
D12*
%TO.P,SV10,2*%
%TO.N,SV10_PWR*%
X91540000Y-152000000D03*
%TO.P,SV10,3*%
%TO.N,GND*%
X94080000Y-152000000D03*
%TD*%
D11*
%TO.P,SV7,1*%
%TO.N,PWM_CH6*%
X53000000Y-152000000D03*
D12*
%TO.P,SV7,2*%
%TO.N,SV7_PWR*%
X55540000Y-152000000D03*
%TO.P,SV7,3*%
%TO.N,GND*%
X58080000Y-152000000D03*
%TD*%
D10*
%TO.P,F7,1*%
%TO.N,+12V*%
X46685000Y-64000000D03*
%TO.P,F7,2*%
%TO.N,SV7_PWR*%
X69315000Y-64000000D03*
%TD*%
D13*
%TO.P,J1,1*%
%TO.N,+12V*%
X172000000Y-45000000D03*
D10*
%TO.P,J1,2*%
X172000000Y-40000000D03*
%TD*%
D13*
%TO.P,J36,1*%
%TO.N,+5V_LOGIC*%
X10000000Y-122000000D03*
D10*
%TO.P,J36,2*%
X10000000Y-117000000D03*
%TD*%
D11*
%TO.P,SV9,1*%
%TO.N,PWM_CH8*%
X77000000Y-152000000D03*
D12*
%TO.P,SV9,2*%
%TO.N,SV9_PWR*%
X79540000Y-152000000D03*
%TO.P,SV9,3*%
%TO.N,GND*%
X82080000Y-152000000D03*
%TD*%
D11*
%TO.P,SV5,1*%
%TO.N,PWM_CH4*%
X149000000Y-152000000D03*
D12*
%TO.P,SV5,2*%
%TO.N,SV5_PWR*%
X151540000Y-152000000D03*
%TO.P,SV5,3*%
%TO.N,GND*%
X154080000Y-152000000D03*
%TD*%
D11*
%TO.P,J43,1*%
%TO.N,+5V_LOGIC*%
X28000000Y-112190000D03*
D12*
%TO.P,J43,2*%
X28000000Y-114730000D03*
%TO.P,J43,3*%
X28000000Y-117270000D03*
%TO.P,J43,4*%
X28000000Y-119810000D03*
%TD*%
D13*
%TO.P,J39,1*%
%TO.N,GND_LOGIC*%
X10000000Y-140000000D03*
D10*
%TO.P,J39,2*%
X10000000Y-135000000D03*
%TD*%
D11*
%TO.P,SV8,1*%
%TO.N,PWM_CH7*%
X65000000Y-152000000D03*
D12*
%TO.P,SV8,2*%
%TO.N,SV8_PWR*%
X67540000Y-152000000D03*
%TO.P,SV8,3*%
%TO.N,GND*%
X70080000Y-152000000D03*
%TD*%
D11*
%TO.P,J40,1*%
%TO.N,SCL*%
X28000000Y-22190000D03*
D12*
%TO.P,J40,2*%
X28000000Y-24730000D03*
%TO.P,J40,3*%
X28000000Y-27270000D03*
%TO.P,J40,4*%
X28000000Y-29810000D03*
%TD*%
D13*
%TO.P,J6,1*%
%TO.N,+5V_SERVO*%
X172000000Y-85000000D03*
D10*
%TO.P,J6,2*%
X172000000Y-80000000D03*
%TD*%
%TO.P,F4,1*%
%TO.N,+5V_SERVO*%
X94685000Y-96000000D03*
%TO.P,F4,2*%
%TO.N,SV4_PWR*%
X117315000Y-96000000D03*
%TD*%
%TO.P,F3,1*%
%TO.N,+7V4*%
X94685000Y-80000000D03*
%TO.P,F3,2*%
%TO.N,SV3_PWR*%
X117315000Y-80000000D03*
%TD*%
D13*
%TO.P,J5,1*%
%TO.N,+7V4*%
X172000000Y-73000000D03*
D10*
%TO.P,J5,2*%
X172000000Y-68000000D03*
%TD*%
D13*
%TO.P,J31,1*%
%TO.N,SCL*%
X10000000Y-20000000D03*
D10*
%TO.P,J31,2*%
X10000000Y-15000000D03*
%TD*%
%TO.P,F5,1*%
%TO.N,+5V_SERVO*%
X94685000Y-112000000D03*
%TO.P,F5,2*%
%TO.N,SV5_PWR*%
X117315000Y-112000000D03*
%TD*%
%TO.P,F9,1*%
%TO.N,+5V_SERVO*%
X46685000Y-96000000D03*
%TO.P,F9,2*%
%TO.N,SV9_PWR*%
X69315000Y-96000000D03*
%TD*%
D11*
%TO.P,J42,1*%
%TO.N,+3V3*%
X28000000Y-82190000D03*
D12*
%TO.P,J42,2*%
X28000000Y-84730000D03*
%TO.P,J42,3*%
X28000000Y-87270000D03*
%TO.P,J42,4*%
X28000000Y-89810000D03*
%TD*%
D13*
%TO.P,J38,1*%
%TO.N,GND_LOGIC*%
X10000000Y-152000000D03*
D10*
%TO.P,J38,2*%
X10000000Y-147000000D03*
%TD*%
D13*
%TO.P,J33,1*%
%TO.N,SDA*%
X10000000Y-62000000D03*
D10*
%TO.P,J33,2*%
X10000000Y-57000000D03*
%TD*%
D13*
%TO.P,J3,1*%
%TO.N,GND*%
X172000000Y-101000000D03*
D10*
%TO.P,J3,2*%
X172000000Y-96000000D03*
%TD*%
%TO.P,F8,1*%
%TO.N,+7V4*%
X46685000Y-80000000D03*
%TO.P,F8,2*%
%TO.N,SV8_PWR*%
X69315000Y-80000000D03*
%TD*%
D11*
%TO.P,J_FAN,1*%
%TO.N,PWM_CH12*%
X101000000Y-138000000D03*
D12*
%TO.P,J_FAN,2*%
%TO.N,+12V*%
X103540000Y-138000000D03*
%TO.P,J_FAN,3*%
%TO.N,GND*%
X106080000Y-138000000D03*
%TD*%
D11*
%TO.P,J_PCA,1*%
%TO.N,PWM_CH0*%
X117860000Y-10000000D03*
D12*
%TO.P,J_PCA,2*%
%TO.N,PWM_CH1*%
X115320000Y-10000000D03*
%TO.P,J_PCA,3*%
%TO.N,PWM_CH2*%
X112780000Y-10000000D03*
%TO.P,J_PCA,4*%
%TO.N,PWM_CH3*%
X110240000Y-10000000D03*
%TO.P,J_PCA,5*%
%TO.N,N/C*%
X107700000Y-10000000D03*
%TO.P,J_PCA,6*%
%TO.N,PWM_CH4*%
X105160000Y-10000000D03*
%TO.P,J_PCA,7*%
%TO.N,PWM_CH5*%
X102620000Y-10000000D03*
%TO.P,J_PCA,8*%
%TO.N,PWM_CH6*%
X100080000Y-10000000D03*
%TO.P,J_PCA,9*%
%TO.N,PWM_CH7*%
X97540000Y-10000000D03*
%TO.P,J_PCA,10*%
%TO.N,N/C*%
X95000000Y-10000000D03*
%TO.P,J_PCA,11*%
%TO.N,PWM_CH8*%
X92460000Y-10000000D03*
%TO.P,J_PCA,12*%
%TO.N,PWM_CH9*%
X89920000Y-10000000D03*
%TO.P,J_PCA,13*%
%TO.N,PWM_CH10*%
X87380000Y-10000000D03*
%TO.P,J_PCA,14*%
%TO.N,PWM_CH11*%
X84840000Y-10000000D03*
%TO.P,J_PCA,15*%
%TO.N,N/C*%
X82300000Y-10000000D03*
%TO.P,J_PCA,16*%
%TO.N,PWM_CH12*%
X79760000Y-10000000D03*
%TO.P,J_PCA,17*%
%TO.N,PWM_CH13*%
X77220000Y-10000000D03*
%TO.P,J_PCA,18*%
%TO.N,PWM_CH14*%
X74680000Y-10000000D03*
%TO.P,J_PCA,19*%
%TO.N,PWM_CH15*%
X72140000Y-10000000D03*
%TD*%
D13*
%TO.P,J30,1*%
%TO.N,SCL*%
X10000000Y-32000000D03*
D10*
%TO.P,J30,2*%
X10000000Y-27000000D03*
%TD*%
%TO.P,F1,1*%
%TO.N,+12V*%
X94685000Y-48000000D03*
%TO.P,F1,2*%
%TO.N,SV1_PWR*%
X117315000Y-48000000D03*
%TD*%
%TO.P,F10,1*%
%TO.N,+5V_SERVO*%
X46685000Y-112000000D03*
%TO.P,F10,2*%
%TO.N,SV10_PWR*%
X69315000Y-112000000D03*
%TD*%
D14*
%TO.N,PWM_CH1*%
X108971600Y-149220000D03*
%TO.N,PWM_CH5*%
X41000000Y-8087700D03*
%TO.N,PWM_CH0*%
X106700900Y-18407800D03*
%TO.N,PWM_CH2*%
X107457800Y-138051800D03*
X107457800Y-12425600D03*
%TO.N,PWM_CH6*%
X80738900Y-12684300D03*
%TO.N,PWM_CH8*%
X87137700Y-14180700D03*
X87137700Y-147025100D03*
%TO.N,PWM_CH12*%
X90901900Y-18407800D03*
%TD*%
%TO.N,+12V*%
D15*
X103550200Y-137989800D02*
X103540000Y-138000000D01*
D16*
X172000000Y-52000000D02*
X172000000Y-57000000D01*
X172000000Y-40000000D02*
X172000000Y-45000000D01*
X172000000Y-45000000D02*
X172000000Y-52000000D01*
X46685000Y-64000000D02*
X46685000Y-48000000D01*
X103550200Y-135449800D02*
X103550200Y-72865200D01*
X94685000Y-48000000D02*
X94685000Y-64000000D01*
X103550200Y-72865200D02*
X94685000Y-64000000D01*
D15*
X103550200Y-135449800D02*
X103550200Y-137989800D01*
%TO.N,SV2_PWR*%
D17*
X115540000Y-152000000D02*
X115540000Y-142247900D01*
X112949800Y-68365200D02*
X117315000Y-64000000D01*
X115540000Y-142247900D02*
X112949800Y-139657700D01*
X112949800Y-139657700D02*
X112949800Y-68365200D01*
%TO.N,PWM_CH3*%
D18*
X137000000Y-36760000D02*
X137000000Y-152000000D01*
X110240000Y-10000000D02*
X137000000Y-36760000D01*
%TO.N,SV4_PWR*%
D19*
X139540000Y-152000000D02*
X139540000Y-152228000D01*
X139540000Y-152228000D02*
X138216300Y-153551700D01*
X135128100Y-113813100D02*
X117315000Y-96000000D01*
X138216300Y-153551700D02*
X135859300Y-153551700D01*
X135859300Y-153551700D02*
X135128100Y-152820500D01*
X135128100Y-152820500D02*
X135128100Y-113813100D01*
%TO.N,GND*%
D16*
X172000000Y-108000000D02*
X172000000Y-113000000D01*
X172000000Y-101000000D02*
X172000000Y-108000000D01*
X172000000Y-113000000D02*
X172000000Y-134080000D01*
D15*
X106080000Y-138000000D02*
X106080000Y-152000000D01*
X94080000Y-152000000D02*
X94080000Y-138000000D01*
D16*
X172000000Y-134080000D02*
X154614500Y-151465500D01*
D15*
X154614500Y-151465500D02*
X154080000Y-152000000D01*
D16*
X172000000Y-96000000D02*
X172000000Y-101000000D01*
%TO.N,SV6_PWR*%
D17*
X43540000Y-73775000D02*
X69315000Y-48000000D01*
X43540000Y-152000000D02*
X43540000Y-73775000D01*
%TO.N,PWM_CH1*%
D18*
X114007500Y-8687500D02*
X109747400Y-8687500D01*
X108971600Y-9463300D02*
X108971600Y-149220000D01*
X115320000Y-10000000D02*
X114007500Y-8687500D01*
X109747400Y-8687500D02*
X108971600Y-9463300D01*
%TO.N,PWM_CH5*%
X41000000Y-152000000D02*
X41000000Y-8087700D01*
%TO.N,SDA*%
X28000000Y-54730000D02*
X28000000Y-52190000D01*
X10000000Y-45000000D02*
X10000000Y-50000000D01*
X10000000Y-57000000D02*
X10000000Y-50000000D01*
X28000000Y-57270000D02*
X28000000Y-54730000D01*
X10000000Y-62000000D02*
X10000000Y-57000000D01*
X28000000Y-59810000D02*
X28000000Y-57270000D01*
%TO.N,+3V3*%
D20*
X28000000Y-84730000D02*
X28000000Y-82190000D01*
X10000000Y-87000000D02*
X10000000Y-80000000D01*
X28000000Y-87270000D02*
X28000000Y-84730000D01*
X10000000Y-75000000D02*
X10000000Y-80000000D01*
X28000000Y-89810000D02*
X28000000Y-87270000D01*
X10000000Y-92000000D02*
X10000000Y-87000000D01*
%TO.N,PWM_CH0*%
D18*
X101000000Y-152000000D02*
X101000000Y-150748300D01*
X106700900Y-18407800D02*
X106700900Y-134998500D01*
X104810000Y-136889400D02*
X104810000Y-146938300D01*
X104810000Y-146938300D02*
X101000000Y-150748300D01*
X106700900Y-134998500D02*
X104810000Y-136889400D01*
%TO.N,SV1_PWR*%
D17*
X110693100Y-150332100D02*
X110693100Y-54621900D01*
X110693100Y-54621900D02*
X117315000Y-48000000D01*
X106958200Y-154067000D02*
X110693100Y-150332100D01*
X103540000Y-152000000D02*
X103540000Y-152431800D01*
X103540000Y-152431800D02*
X105175200Y-154067000D01*
X105175200Y-154067000D02*
X106958200Y-154067000D01*
%TO.N,PWM_CH11*%
D18*
X89000000Y-138000000D02*
X89000000Y-14160000D01*
X89000000Y-14160000D02*
X84840000Y-10000000D01*
%TO.N,PWM_CH2*%
X107457800Y-12425600D02*
X107457800Y-138051800D01*
%TO.N,SV3_PWR*%
D21*
X114953800Y-137700300D02*
X114953800Y-82361200D01*
X114953800Y-82361200D02*
X117315000Y-80000000D01*
X127540000Y-150286500D02*
X114953800Y-137700300D01*
X127540000Y-152000000D02*
X127540000Y-150286500D01*
%TO.N,+5V_LOGIC*%
D20*
X28000000Y-119810000D02*
X28000000Y-117270000D01*
X28000000Y-114730000D02*
X28000000Y-112190000D01*
X10000000Y-117000000D02*
X10000000Y-110000000D01*
X28000000Y-117270000D02*
X28000000Y-114730000D01*
X10000000Y-105000000D02*
X10000000Y-110000000D01*
X10000000Y-122000000D02*
X10000000Y-117000000D01*
%TO.N,GND_LOGIC*%
X10000000Y-135000000D02*
X10000000Y-140000000D01*
X10000000Y-152000000D02*
X10000000Y-147000000D01*
X28000000Y-149810000D02*
X28000000Y-147270000D01*
X28000000Y-144730000D02*
X28000000Y-142190000D01*
X10000000Y-147000000D02*
X10000000Y-140000000D01*
X28000000Y-147270000D02*
X28000000Y-144730000D01*
%TO.N,PWM_CH9*%
D18*
X93730000Y-9495700D02*
X93730000Y-10630000D01*
X89920000Y-10000000D02*
X91177400Y-8742600D01*
X92976900Y-8742600D02*
X93730000Y-9495700D01*
X93730000Y-10630000D02*
X90200200Y-14159800D01*
X90251700Y-18749800D02*
X90251700Y-149496600D01*
X90200200Y-14159800D02*
X90200200Y-18698300D01*
X90251700Y-149496600D02*
X89000000Y-150748300D01*
X90200200Y-18698300D02*
X90251700Y-18749800D01*
X91177400Y-8742600D02*
X92976900Y-8742600D01*
X89000000Y-152000000D02*
X89000000Y-150748300D01*
%TO.N,SV10_PWR*%
D19*
X75807500Y-153577000D02*
X69315000Y-147084500D01*
X69315000Y-147084500D02*
X69315000Y-112000000D01*
X91540000Y-152000000D02*
X91540000Y-152276800D01*
X90239800Y-153577000D02*
X75807500Y-153577000D01*
X91540000Y-152276800D02*
X90239800Y-153577000D01*
%TO.N,PWM_CH6*%
D18*
X80738900Y-12684300D02*
X80738900Y-47962400D01*
X80738900Y-47962400D02*
X53000000Y-75701300D01*
X53000000Y-75701300D02*
X53000000Y-152000000D01*
%TO.N,SV7_PWR*%
D17*
X55540000Y-77775000D02*
X69315000Y-64000000D01*
X55540000Y-152000000D02*
X55540000Y-77775000D01*
%TO.N,PWM_CH8*%
D18*
X87137700Y-147025100D02*
X87137700Y-14180700D01*
%TO.N,SV9_PWR*%
D19*
X79540000Y-152000000D02*
X79540000Y-106225000D01*
X79540000Y-106225000D02*
X69315000Y-96000000D01*
%TO.N,PWM_CH4*%
D18*
X149000000Y-45813600D02*
X116608300Y-13421900D01*
X116608300Y-13421900D02*
X116608300Y-9452400D01*
X115218200Y-8062300D02*
X107097700Y-8062300D01*
X149000000Y-152000000D02*
X149000000Y-45813600D01*
X107097700Y-8062300D02*
X105160000Y-10000000D01*
X116608300Y-9452400D02*
X115218200Y-8062300D01*
%TO.N,SV5_PWR*%
D19*
X135361600Y-154753400D02*
X148980400Y-154753400D01*
X117315000Y-136706800D02*
X135361600Y-154753400D01*
X151540000Y-152193800D02*
X151540000Y-152000000D01*
X117315000Y-112000000D02*
X117315000Y-136706800D01*
X148980400Y-154753400D02*
X151540000Y-152193800D01*
%TO.N,PWM_CH7*%
D18*
X95662100Y-8122100D02*
X84942700Y-8122100D01*
X84942700Y-8122100D02*
X83570100Y-9494700D01*
X83570100Y-9494700D02*
X83570100Y-61414000D01*
X65000000Y-79984100D02*
X65000000Y-152000000D01*
X83570100Y-61414000D02*
X65000000Y-79984100D01*
X97540000Y-10000000D02*
X95662100Y-8122100D01*
%TO.N,SV8_PWR*%
D21*
X67540000Y-152000000D02*
X66953200Y-151413200D01*
X66953200Y-82361800D02*
X69315000Y-80000000D01*
X66953200Y-151413200D02*
X66953200Y-82361800D01*
%TO.N,SCL*%
D18*
X28000000Y-24730000D02*
X28000000Y-22190000D01*
X10000000Y-32000000D02*
X10000000Y-27000000D01*
X10000000Y-15000000D02*
X10000000Y-20000000D01*
X28000000Y-27270000D02*
X28000000Y-24730000D01*
X28000000Y-29810000D02*
X28000000Y-27270000D01*
X10000000Y-27000000D02*
X10000000Y-20000000D01*
%TO.N,+5V_SERVO*%
D21*
X172000000Y-80000000D02*
X172000000Y-85000000D01*
X46685000Y-112000000D02*
X46685000Y-96000000D01*
X94685000Y-112000000D02*
X94685000Y-96000000D01*
%TO.N,+7V4*%
D17*
X172000000Y-68000000D02*
X172000000Y-73000000D01*
%TO.N,PWM_CH12*%
D18*
X90901900Y-18407800D02*
X90901900Y-126650200D01*
X101000000Y-138000000D02*
X101000000Y-136748300D01*
X90901900Y-126650200D02*
X101000000Y-136748300D01*
%TD*%
%TA.AperFunction,Conductor*%
%TO.N,+12V*%
G36*
X179425500Y-5569962D02*
G01*
X179480038Y-5624500D01*
X179500000Y-5699000D01*
X179500000Y-156744796D01*
X179480038Y-156819296D01*
X179425500Y-156873834D01*
X179351000Y-156893796D01*
X91499000Y-156893796D01*
X91424500Y-156873834D01*
X91369962Y-156819296D01*
X91350000Y-156744796D01*
X91350000Y-153943437D01*
X91369962Y-153868937D01*
X91393641Y-153838078D01*
X91478819Y-153752900D01*
X91917208Y-153314511D01*
X91976523Y-153278164D01*
X92021522Y-153263543D01*
X92058412Y-153251557D01*
X92247816Y-153155051D01*
X92419792Y-153030104D01*
X92570104Y-152879792D01*
X92689456Y-152715517D01*
X92749396Y-152666979D01*
X92825574Y-152654913D01*
X92897580Y-152682553D01*
X92930544Y-152715517D01*
X93049896Y-152879792D01*
X93200208Y-153030104D01*
X93372184Y-153155051D01*
X93561588Y-153251557D01*
X93763757Y-153317246D01*
X93973713Y-153350500D01*
X93973718Y-153350500D01*
X94186282Y-153350500D01*
X94186287Y-153350500D01*
X94396243Y-153317246D01*
X94598412Y-153251557D01*
X94787816Y-153155051D01*
X94959792Y-153030104D01*
X95110104Y-152879792D01*
X95235051Y-152707816D01*
X95331557Y-152518412D01*
X95397246Y-152316243D01*
X95430500Y-152106287D01*
X95430500Y-151893713D01*
X95430500Y-151889141D01*
X95430400Y-151886592D01*
X95430400Y-138113414D01*
X95430500Y-138110869D01*
X95430500Y-137893717D01*
X95430500Y-137893713D01*
X95397246Y-137683757D01*
X95331557Y-137481588D01*
X95235051Y-137292184D01*
X95110104Y-137120208D01*
X94959792Y-136969896D01*
X94787816Y-136844949D01*
X94598412Y-136748443D01*
X94396243Y-136682754D01*
X94186287Y-136649500D01*
X93973713Y-136649500D01*
X93798749Y-136677211D01*
X93763756Y-136682754D01*
X93627016Y-136727184D01*
X93561588Y-136748443D01*
X93561582Y-136748445D01*
X93561582Y-136748446D01*
X93372182Y-136844950D01*
X93372181Y-136844950D01*
X93200209Y-136969895D01*
X93200206Y-136969897D01*
X93049897Y-137120206D01*
X93049895Y-137120209D01*
X92930544Y-137284482D01*
X92870604Y-137333020D01*
X92794425Y-137345086D01*
X92722420Y-137317446D01*
X92689456Y-137284482D01*
X92614064Y-137180714D01*
X92570104Y-137120208D01*
X92419792Y-136969896D01*
X92247816Y-136844949D01*
X92058412Y-136748443D01*
X91856243Y-136682754D01*
X91646287Y-136649500D01*
X91499000Y-136649500D01*
X91424500Y-136629538D01*
X91369962Y-136575000D01*
X91350000Y-136500500D01*
X91350000Y-128448675D01*
X91369962Y-128374175D01*
X91424500Y-128319637D01*
X91499000Y-128299675D01*
X91573500Y-128319637D01*
X91604359Y-128343316D01*
X99820150Y-136559107D01*
X99858714Y-136625902D01*
X99858714Y-136703030D01*
X99820150Y-136769825D01*
X99804090Y-136783742D01*
X99792455Y-136792452D01*
X99792452Y-136792455D01*
X99706204Y-136907666D01*
X99706202Y-136907670D01*
X99655908Y-137042517D01*
X99649500Y-137102114D01*
X99649500Y-138897863D01*
X99649502Y-138897888D01*
X99655908Y-138957478D01*
X99655909Y-138957484D01*
X99706202Y-139092329D01*
X99706204Y-139092333D01*
X99792452Y-139207544D01*
X99792455Y-139207547D01*
X99907666Y-139293795D01*
X99907670Y-139293797D01*
X100042517Y-139344091D01*
X100102114Y-139350499D01*
X100102118Y-139350499D01*
X100102127Y-139350500D01*
X101897872Y-139350499D01*
X101957483Y-139344091D01*
X102053447Y-139308298D01*
X102092329Y-139293797D01*
X102092333Y-139293795D01*
X102195983Y-139216202D01*
X102207546Y-139207546D01*
X102293796Y-139092331D01*
X102344091Y-138957483D01*
X102347991Y-138921213D01*
X102350499Y-138897885D01*
X102350499Y-138897882D01*
X102350500Y-138897873D01*
X102350499Y-138685529D01*
X102370461Y-138611033D01*
X102394140Y-138580173D01*
X102974314Y-137999999D01*
X102394140Y-137419825D01*
X102355576Y-137353030D01*
X102350499Y-137314466D01*
X102350499Y-137102136D01*
X102350499Y-137102128D01*
X102344091Y-137042517D01*
X102327724Y-136998635D01*
X102293797Y-136907670D01*
X102293795Y-136907666D01*
X102207547Y-136792455D01*
X102207544Y-136792452D01*
X102092333Y-136706204D01*
X102092329Y-136706202D01*
X101957482Y-136655908D01*
X101897885Y-136649500D01*
X101897873Y-136649500D01*
X101816097Y-136649500D01*
X101741597Y-136629538D01*
X101687059Y-136575000D01*
X101676516Y-136550678D01*
X101676381Y-136550734D01*
X101620779Y-136416497D01*
X101620769Y-136416479D01*
X101573199Y-136345286D01*
X101544114Y-136301757D01*
X91646041Y-126403684D01*
X91607477Y-126336889D01*
X91602400Y-126298325D01*
X91602400Y-95875429D01*
X92784500Y-95875429D01*
X92784500Y-96124570D01*
X92817016Y-96371557D01*
X92817017Y-96371563D01*
X92817018Y-96371565D01*
X92881498Y-96612207D01*
X92976836Y-96842373D01*
X93101401Y-97058127D01*
X93253062Y-97255776D01*
X93253063Y-97255777D01*
X93390859Y-97393573D01*
X93429423Y-97460368D01*
X93434500Y-97498932D01*
X93434500Y-110501068D01*
X93414538Y-110575568D01*
X93390859Y-110606427D01*
X93253063Y-110744222D01*
X93101400Y-110941874D01*
X92976838Y-111157622D01*
X92881499Y-111387789D01*
X92817016Y-111628442D01*
X92784500Y-111875429D01*
X92784500Y-112124570D01*
X92817016Y-112371557D01*
X92881499Y-112612210D01*
X92976838Y-112842377D01*
X93059879Y-112986209D01*
X93101401Y-113058127D01*
X93253062Y-113255776D01*
X93429224Y-113431938D01*
X93626873Y-113583599D01*
X93842627Y-113708164D01*
X94072793Y-113803502D01*
X94313435Y-113867982D01*
X94313441Y-113867982D01*
X94313442Y-113867983D01*
X94380586Y-113876822D01*
X94560435Y-113900500D01*
X94809565Y-113900500D01*
X95056565Y-113867982D01*
X95297207Y-113803502D01*
X95527373Y-113708164D01*
X95743127Y-113583599D01*
X95940776Y-113431938D01*
X96116938Y-113255776D01*
X96268599Y-113058127D01*
X96393164Y-112842373D01*
X96488502Y-112612207D01*
X96552982Y-112371565D01*
X96585500Y-112124565D01*
X96585500Y-111875435D01*
X96552982Y-111628435D01*
X96488502Y-111387793D01*
X96393164Y-111157627D01*
X96268599Y-110941873D01*
X96116938Y-110744224D01*
X95979141Y-110606427D01*
X95940577Y-110539632D01*
X95935500Y-110501068D01*
X95935500Y-97498932D01*
X95955462Y-97424432D01*
X95979141Y-97393573D01*
X96116938Y-97255776D01*
X96268599Y-97058127D01*
X96393164Y-96842373D01*
X96488502Y-96612207D01*
X96552982Y-96371565D01*
X96585500Y-96124565D01*
X96585500Y-95875435D01*
X96552982Y-95628435D01*
X96488502Y-95387793D01*
X96393164Y-95157627D01*
X96268599Y-94941873D01*
X96116938Y-94744224D01*
X95940776Y-94568062D01*
X95743127Y-94416401D01*
X95527380Y-94291840D01*
X95527377Y-94291838D01*
X95527375Y-94291837D01*
X95527373Y-94291836D01*
X95392548Y-94235989D01*
X95297210Y-94196499D01*
X95297208Y-94196498D01*
X95297207Y-94196498D01*
X95056565Y-94132018D01*
X95056563Y-94132017D01*
X95056557Y-94132016D01*
X94809570Y-94099500D01*
X94809565Y-94099500D01*
X94560435Y-94099500D01*
X94560429Y-94099500D01*
X94313442Y-94132016D01*
X94072789Y-94196499D01*
X93842622Y-94291838D01*
X93626874Y-94416400D01*
X93429222Y-94568063D01*
X93253063Y-94744222D01*
X93101400Y-94941874D01*
X92976838Y-95157622D01*
X92881499Y-95387789D01*
X92817016Y-95628442D01*
X92784500Y-95875429D01*
X91602400Y-95875429D01*
X91602400Y-79875429D01*
X92784500Y-79875429D01*
X92784500Y-80124570D01*
X92817016Y-80371557D01*
X92817017Y-80371563D01*
X92817018Y-80371565D01*
X92881498Y-80612207D01*
X92976836Y-80842373D01*
X93101401Y-81058127D01*
X93253062Y-81255776D01*
X93429224Y-81431938D01*
X93626873Y-81583599D01*
X93842627Y-81708164D01*
X94072793Y-81803502D01*
X94313435Y-81867982D01*
X94313441Y-81867982D01*
X94313442Y-81867983D01*
X94380586Y-81876822D01*
X94560435Y-81900500D01*
X94809565Y-81900500D01*
X95056565Y-81867982D01*
X95297207Y-81803502D01*
X95527373Y-81708164D01*
X95743127Y-81583599D01*
X95940776Y-81431938D01*
X96116938Y-81255776D01*
X96268599Y-81058127D01*
X96393164Y-80842373D01*
X96488502Y-80612207D01*
X96552982Y-80371565D01*
X96585500Y-80124565D01*
X96585500Y-79875435D01*
X96552982Y-79628435D01*
X96488502Y-79387793D01*
X96393164Y-79157627D01*
X96268599Y-78941873D01*
X96116938Y-78744224D01*
X95940776Y-78568062D01*
X95743127Y-78416401D01*
X95671209Y-78374879D01*
X95527377Y-78291838D01*
X95527375Y-78291837D01*
X95527373Y-78291836D01*
X95392548Y-78235989D01*
X95297210Y-78196499D01*
X95297208Y-78196498D01*
X95297207Y-78196498D01*
X95056565Y-78132018D01*
X95056563Y-78132017D01*
X95056557Y-78132016D01*
X94809570Y-78099500D01*
X94809565Y-78099500D01*
X94560435Y-78099500D01*
X94560429Y-78099500D01*
X94313442Y-78132016D01*
X94072789Y-78196499D01*
X93842622Y-78291838D01*
X93626874Y-78416400D01*
X93429222Y-78568063D01*
X93253063Y-78744222D01*
X93101400Y-78941874D01*
X92976838Y-79157622D01*
X92881499Y-79387789D01*
X92817016Y-79628442D01*
X92784500Y-79875429D01*
X91602400Y-79875429D01*
X91602400Y-63875461D01*
X92785000Y-63875461D01*
X92785000Y-64124538D01*
X92817507Y-64371459D01*
X92881973Y-64612048D01*
X92977287Y-64842156D01*
X93087048Y-65032265D01*
X93953323Y-64165989D01*
X93963822Y-64218767D01*
X94020359Y-64355258D01*
X94102437Y-64478097D01*
X94206903Y-64582563D01*
X94329742Y-64664641D01*
X94466233Y-64721178D01*
X94519008Y-64731675D01*
X93652733Y-65597950D01*
X93842849Y-65707714D01*
X94072951Y-65803026D01*
X94313540Y-65867492D01*
X94560461Y-65899999D01*
X94560467Y-65900000D01*
X94809533Y-65900000D01*
X94809538Y-65899999D01*
X95056459Y-65867492D01*
X95297048Y-65803026D01*
X95527150Y-65707714D01*
X95717265Y-65597950D01*
X94850990Y-64731675D01*
X94903767Y-64721178D01*
X95040258Y-64664641D01*
X95163097Y-64582563D01*
X95267563Y-64478097D01*
X95349641Y-64355258D01*
X95406178Y-64218767D01*
X95416675Y-64165990D01*
X96282950Y-65032265D01*
X96392714Y-64842150D01*
X96488026Y-64612048D01*
X96552492Y-64371459D01*
X96584999Y-64124538D01*
X96585000Y-64124533D01*
X96585000Y-63875467D01*
X96584999Y-63875461D01*
X96552492Y-63628540D01*
X96488026Y-63387951D01*
X96392714Y-63157849D01*
X96282950Y-62967733D01*
X95416675Y-63834008D01*
X95406178Y-63781233D01*
X95349641Y-63644742D01*
X95267563Y-63521903D01*
X95163097Y-63417437D01*
X95040258Y-63335359D01*
X94903767Y-63278822D01*
X94850989Y-63268323D01*
X95717265Y-62402048D01*
X95527156Y-62292287D01*
X95297048Y-62196973D01*
X95056459Y-62132507D01*
X94809538Y-62100000D01*
X94560461Y-62100000D01*
X94313540Y-62132507D01*
X94072951Y-62196973D01*
X93842843Y-62292287D01*
X93652733Y-62402048D01*
X94519009Y-63268324D01*
X94466233Y-63278822D01*
X94329742Y-63335359D01*
X94206903Y-63417437D01*
X94102437Y-63521903D01*
X94020359Y-63644742D01*
X93963822Y-63781233D01*
X93953324Y-63834009D01*
X93087048Y-62967733D01*
X92977287Y-63157843D01*
X92881973Y-63387951D01*
X92817507Y-63628540D01*
X92785000Y-63875461D01*
X91602400Y-63875461D01*
X91602400Y-47875461D01*
X92785000Y-47875461D01*
X92785000Y-48124538D01*
X92817507Y-48371459D01*
X92881973Y-48612048D01*
X92977287Y-48842156D01*
X93087048Y-49032265D01*
X93953323Y-48165989D01*
X93963822Y-48218767D01*
X94020359Y-48355258D01*
X94102437Y-48478097D01*
X94206903Y-48582563D01*
X94329742Y-48664641D01*
X94466233Y-48721178D01*
X94519008Y-48731675D01*
X93652733Y-49597950D01*
X93842849Y-49707714D01*
X94072951Y-49803026D01*
X94313540Y-49867492D01*
X94560461Y-49899999D01*
X94560467Y-49900000D01*
X94809533Y-49900000D01*
X94809538Y-49899999D01*
X95056459Y-49867492D01*
X95297048Y-49803026D01*
X95527150Y-49707714D01*
X95717265Y-49597950D01*
X94850990Y-48731675D01*
X94903767Y-48721178D01*
X95040258Y-48664641D01*
X95163097Y-48582563D01*
X95267563Y-48478097D01*
X95349641Y-48355258D01*
X95406178Y-48218767D01*
X95416675Y-48165990D01*
X96282950Y-49032265D01*
X96392714Y-48842150D01*
X96488026Y-48612048D01*
X96552492Y-48371459D01*
X96584999Y-48124538D01*
X96585000Y-48124533D01*
X96585000Y-47875467D01*
X96584999Y-47875461D01*
X96552492Y-47628540D01*
X96488026Y-47387951D01*
X96392714Y-47157849D01*
X96282950Y-46967733D01*
X95416675Y-47834008D01*
X95406178Y-47781233D01*
X95349641Y-47644742D01*
X95267563Y-47521903D01*
X95163097Y-47417437D01*
X95040258Y-47335359D01*
X94903767Y-47278822D01*
X94850989Y-47268323D01*
X95717265Y-46402048D01*
X95527156Y-46292287D01*
X95297048Y-46196973D01*
X95056459Y-46132507D01*
X94809538Y-46100000D01*
X94560461Y-46100000D01*
X94313540Y-46132507D01*
X94072951Y-46196973D01*
X93842843Y-46292287D01*
X93652733Y-46402048D01*
X94519009Y-47268324D01*
X94466233Y-47278822D01*
X94329742Y-47335359D01*
X94206903Y-47417437D01*
X94102437Y-47521903D01*
X94020359Y-47644742D01*
X93963822Y-47781233D01*
X93953324Y-47834009D01*
X93087048Y-46967733D01*
X92977287Y-47157843D01*
X92881973Y-47387951D01*
X92817507Y-47628540D01*
X92785000Y-47875461D01*
X91602400Y-47875461D01*
X91602400Y-18838089D01*
X91613742Y-18781070D01*
X91638273Y-18721844D01*
X91671637Y-18641297D01*
X91702400Y-18486642D01*
X91702400Y-18328958D01*
X91671637Y-18174303D01*
X91611294Y-18028621D01*
X91523689Y-17897511D01*
X91412189Y-17786011D01*
X91412187Y-17786010D01*
X91406530Y-17781367D01*
X91408102Y-17779450D01*
X91365361Y-17730706D01*
X91350000Y-17664815D01*
X91350000Y-14062374D01*
X91369962Y-13987874D01*
X91393638Y-13957018D01*
X94151658Y-11198997D01*
X94218451Y-11160435D01*
X94295579Y-11160435D01*
X94324657Y-11171597D01*
X94481588Y-11251557D01*
X94683757Y-11317246D01*
X94893713Y-11350500D01*
X94893718Y-11350500D01*
X95106282Y-11350500D01*
X95106287Y-11350500D01*
X95316243Y-11317246D01*
X95518412Y-11251557D01*
X95707816Y-11155051D01*
X95879792Y-11030104D01*
X96030104Y-10879792D01*
X96149456Y-10715517D01*
X96209396Y-10666979D01*
X96285574Y-10654913D01*
X96357580Y-10682553D01*
X96390544Y-10715517D01*
X96509896Y-10879792D01*
X96660208Y-11030104D01*
X96832184Y-11155051D01*
X97021588Y-11251557D01*
X97223757Y-11317246D01*
X97433713Y-11350500D01*
X97433718Y-11350500D01*
X97646282Y-11350500D01*
X97646287Y-11350500D01*
X97856243Y-11317246D01*
X98058412Y-11251557D01*
X98247816Y-11155051D01*
X98419792Y-11030104D01*
X98570104Y-10879792D01*
X98689456Y-10715517D01*
X98749396Y-10666979D01*
X98825574Y-10654913D01*
X98897580Y-10682553D01*
X98930544Y-10715517D01*
X99049896Y-10879792D01*
X99200208Y-11030104D01*
X99372184Y-11155051D01*
X99561588Y-11251557D01*
X99763757Y-11317246D01*
X99973713Y-11350500D01*
X99973718Y-11350500D01*
X100186282Y-11350500D01*
X100186287Y-11350500D01*
X100396243Y-11317246D01*
X100598412Y-11251557D01*
X100787816Y-11155051D01*
X100959792Y-11030104D01*
X101110104Y-10879792D01*
X101229456Y-10715517D01*
X101289396Y-10666979D01*
X101365574Y-10654913D01*
X101437580Y-10682553D01*
X101470544Y-10715517D01*
X101589896Y-10879792D01*
X101740208Y-11030104D01*
X101912184Y-11155051D01*
X102101588Y-11251557D01*
X102303757Y-11317246D01*
X102513713Y-11350500D01*
X102513718Y-11350500D01*
X102726282Y-11350500D01*
X102726287Y-11350500D01*
X102936243Y-11317246D01*
X103138412Y-11251557D01*
X103327816Y-11155051D01*
X103499792Y-11030104D01*
X103650104Y-10879792D01*
X103769456Y-10715517D01*
X103829396Y-10666979D01*
X103905574Y-10654913D01*
X103977580Y-10682553D01*
X104010544Y-10715517D01*
X104129896Y-10879792D01*
X104280208Y-11030104D01*
X104452184Y-11155051D01*
X104641588Y-11251557D01*
X104843757Y-11317246D01*
X105053713Y-11350500D01*
X105053718Y-11350500D01*
X105266282Y-11350500D01*
X105266287Y-11350500D01*
X105476243Y-11317246D01*
X105678412Y-11251557D01*
X105867816Y-11155051D01*
X106039792Y-11030104D01*
X106190104Y-10879792D01*
X106309456Y-10715517D01*
X106369396Y-10666979D01*
X106445574Y-10654913D01*
X106517580Y-10682553D01*
X106550544Y-10715517D01*
X106669896Y-10879792D01*
X106820208Y-11030104D01*
X106992184Y-11155051D01*
X107181588Y-11251557D01*
X107383757Y-11317246D01*
X107593713Y-11350500D01*
X107676366Y-11350500D01*
X107806282Y-11350500D01*
X107806287Y-11350500D01*
X108016243Y-11317246D01*
X108076057Y-11297810D01*
X108153078Y-11293774D01*
X108221800Y-11328789D01*
X108263807Y-11393474D01*
X108271100Y-11439518D01*
X108271100Y-11747104D01*
X108251138Y-11821604D01*
X108196600Y-11876142D01*
X108122100Y-11896104D01*
X108047600Y-11876142D01*
X108016741Y-11852463D01*
X107968092Y-11803814D01*
X107968089Y-11803811D01*
X107836979Y-11716206D01*
X107836978Y-11716205D01*
X107836976Y-11716204D01*
X107691298Y-11655863D01*
X107691294Y-11655862D01*
X107648509Y-11647351D01*
X107648501Y-11647350D01*
X107536642Y-11625100D01*
X107378958Y-11625100D01*
X107375222Y-11625843D01*
X107375221Y-11625843D01*
X107224305Y-11655862D01*
X107224301Y-11655863D01*
X107078623Y-11716204D01*
X107005621Y-11764983D01*
X106947907Y-11803547D01*
X106947507Y-11803814D01*
X106836014Y-11915307D01*
X106748404Y-12046423D01*
X106688063Y-12192101D01*
X106688062Y-12192105D01*
X106657300Y-12346757D01*
X106657300Y-12504442D01*
X106688062Y-12659094D01*
X106688063Y-12659098D01*
X106745958Y-12798870D01*
X106757300Y-12855889D01*
X106757300Y-17458934D01*
X106737338Y-17533434D01*
X106682800Y-17587972D01*
X106629108Y-17605223D01*
X106629237Y-17605872D01*
X106623603Y-17606992D01*
X106622908Y-17607216D01*
X106622060Y-17607299D01*
X106467405Y-17638062D01*
X106467401Y-17638063D01*
X106321723Y-17698404D01*
X106233912Y-17757078D01*
X106197562Y-17781367D01*
X106190607Y-17786014D01*
X106079114Y-17897507D01*
X105991504Y-18028623D01*
X105931163Y-18174301D01*
X105931162Y-18174305D01*
X105900400Y-18328957D01*
X105900400Y-18486642D01*
X105931162Y-18641294D01*
X105931163Y-18641298D01*
X105989058Y-18781070D01*
X106000400Y-18838089D01*
X106000400Y-134646625D01*
X105980438Y-134721125D01*
X105956759Y-134751984D01*
X104265889Y-136442853D01*
X104265886Y-136442856D01*
X104265886Y-136442857D01*
X104200031Y-136541416D01*
X104200030Y-136541418D01*
X104200029Y-136541417D01*
X104189228Y-136557583D01*
X104189225Y-136557588D01*
X104156547Y-136636480D01*
X104109594Y-136697669D01*
X104038336Y-136727184D01*
X103972846Y-136721167D01*
X103856122Y-136683241D01*
X103646242Y-136650000D01*
X103433758Y-136650000D01*
X103223871Y-136683242D01*
X103021789Y-136748902D01*
X103021774Y-136748908D01*
X102911024Y-136805339D01*
X103605685Y-137500000D01*
X103474174Y-137500000D01*
X103347007Y-137534075D01*
X103232993Y-137599901D01*
X103139901Y-137692993D01*
X103074075Y-137807007D01*
X103040000Y-137934174D01*
X103040000Y-138065826D01*
X103074075Y-138192993D01*
X103139901Y-138307007D01*
X103232993Y-138400099D01*
X103347007Y-138465925D01*
X103474174Y-138500000D01*
X103605684Y-138500000D01*
X102911024Y-139194659D01*
X103021782Y-139251094D01*
X103021787Y-139251096D01*
X103223871Y-139316757D01*
X103433758Y-139350000D01*
X103646242Y-139350000D01*
X103856126Y-139316757D01*
X103914456Y-139297805D01*
X103991478Y-139293768D01*
X104060200Y-139328783D01*
X104102207Y-139393468D01*
X104109500Y-139439512D01*
X104109500Y-146586425D01*
X104089538Y-146660925D01*
X104065859Y-146691784D01*
X100455884Y-150301759D01*
X100455883Y-150301761D01*
X100450023Y-150310532D01*
X100450021Y-150310535D01*
X100379225Y-150416486D01*
X100379224Y-150416490D01*
X100323619Y-150550734D01*
X100322449Y-150550249D01*
X100285746Y-150609261D01*
X100217721Y-150645611D01*
X100183904Y-150649500D01*
X100102137Y-150649500D01*
X100102111Y-150649502D01*
X100042521Y-150655908D01*
X100042515Y-150655909D01*
X99907670Y-150706202D01*
X99907666Y-150706204D01*
X99792455Y-150792452D01*
X99792452Y-150792455D01*
X99706204Y-150907666D01*
X99706202Y-150907670D01*
X99655908Y-151042517D01*
X99649500Y-151102114D01*
X99649500Y-152897863D01*
X99649502Y-152897888D01*
X99655908Y-152957478D01*
X99655909Y-152957484D01*
X99706202Y-153092329D01*
X99706204Y-153092333D01*
X99792452Y-153207544D01*
X99792455Y-153207547D01*
X99907666Y-153293795D01*
X99907670Y-153293797D01*
X100042517Y-153344091D01*
X100102114Y-153350499D01*
X100102118Y-153350499D01*
X100102127Y-153350500D01*
X101897872Y-153350499D01*
X101957483Y-153344091D01*
X102054085Y-153308061D01*
X102092329Y-153293797D01*
X102092334Y-153293794D01*
X102113328Y-153278078D01*
X102184930Y-153249410D01*
X102261274Y-153260385D01*
X102321901Y-153308061D01*
X102323165Y-153309773D01*
X102326608Y-153314513D01*
X102362487Y-153363896D01*
X102395483Y-153409310D01*
X104197690Y-155211517D01*
X104197693Y-155211519D01*
X104197696Y-155211522D01*
X104300775Y-155286413D01*
X104388766Y-155350343D01*
X104599208Y-155457568D01*
X104823832Y-155530553D01*
X105057108Y-155567500D01*
X105057113Y-155567500D01*
X107076287Y-155567500D01*
X107076292Y-155567500D01*
X107309568Y-155530553D01*
X107534192Y-155457568D01*
X107744634Y-155350343D01*
X107935710Y-155211517D01*
X111395143Y-151752082D01*
X111461936Y-151713520D01*
X111539064Y-151713520D01*
X111605859Y-151752084D01*
X111644423Y-151818879D01*
X111649500Y-151857443D01*
X111649500Y-152897863D01*
X111649502Y-152897888D01*
X111655908Y-152957478D01*
X111655909Y-152957484D01*
X111706202Y-153092329D01*
X111706204Y-153092333D01*
X111792452Y-153207544D01*
X111792455Y-153207547D01*
X111907666Y-153293795D01*
X111907670Y-153293797D01*
X112042517Y-153344091D01*
X112102114Y-153350499D01*
X112102118Y-153350499D01*
X112102127Y-153350500D01*
X113897872Y-153350499D01*
X113957483Y-153344091D01*
X114054085Y-153308061D01*
X114092329Y-153293797D01*
X114092333Y-153293795D01*
X114151623Y-153249410D01*
X114207546Y-153207546D01*
X114283438Y-153106167D01*
X114344063Y-153058491D01*
X114420406Y-153047515D01*
X114492009Y-153076180D01*
X114508068Y-153090095D01*
X114562490Y-153144517D01*
X114753567Y-153283343D01*
X114964008Y-153390568D01*
X115188632Y-153463553D01*
X115421908Y-153500500D01*
X115421913Y-153500500D01*
X115658087Y-153500500D01*
X115658092Y-153500500D01*
X115891368Y-153463553D01*
X116115992Y-153390568D01*
X116326433Y-153283343D01*
X116517510Y-153144517D01*
X116684517Y-152977510D01*
X116782164Y-152843110D01*
X116842100Y-152794576D01*
X116918279Y-152782510D01*
X116990284Y-152810150D01*
X117023248Y-152843114D01*
X117049896Y-152879792D01*
X117200208Y-153030104D01*
X117372184Y-153155051D01*
X117561588Y-153251557D01*
X117763757Y-153317246D01*
X117973713Y-153350500D01*
X117973718Y-153350500D01*
X118186282Y-153350500D01*
X118186287Y-153350500D01*
X118396243Y-153317246D01*
X118598412Y-153251557D01*
X118787816Y-153155051D01*
X118959792Y-153030104D01*
X119110104Y-152879792D01*
X119235051Y-152707816D01*
X119331557Y-152518412D01*
X119397246Y-152316243D01*
X119430500Y-152106287D01*
X119430500Y-151893713D01*
X119397246Y-151683757D01*
X119331557Y-151481588D01*
X119235051Y-151292184D01*
X119110104Y-151120208D01*
X118959792Y-150969896D01*
X118787816Y-150844949D01*
X118598412Y-150748443D01*
X118396243Y-150682754D01*
X118186287Y-150649500D01*
X117973713Y-150649500D01*
X117798749Y-150677211D01*
X117763756Y-150682754D01*
X117586480Y-150740355D01*
X117561588Y-150748443D01*
X117561582Y-150748445D01*
X117561582Y-150748446D01*
X117372182Y-150844950D01*
X117372175Y-150844954D01*
X117277079Y-150914045D01*
X117205074Y-150941685D01*
X117128895Y-150929619D01*
X117068956Y-150881080D01*
X117041316Y-150809075D01*
X117040500Y-150793501D01*
X117040500Y-142129812D01*
X117040500Y-142129808D01*
X117004152Y-141900315D01*
X117012215Y-141823613D01*
X117057549Y-141761215D01*
X117128010Y-141729844D01*
X117204715Y-141737907D01*
X117256677Y-141771651D01*
X125880167Y-150395141D01*
X125918731Y-150461936D01*
X125918731Y-150539064D01*
X125880167Y-150605859D01*
X125813372Y-150644423D01*
X125774808Y-150649500D01*
X124102136Y-150649500D01*
X124102111Y-150649502D01*
X124042521Y-150655908D01*
X124042515Y-150655909D01*
X123907670Y-150706202D01*
X123907666Y-150706204D01*
X123792455Y-150792452D01*
X123792452Y-150792455D01*
X123706204Y-150907666D01*
X123706202Y-150907670D01*
X123655908Y-151042517D01*
X123649500Y-151102114D01*
X123649500Y-152897863D01*
X123649502Y-152897888D01*
X123655908Y-152957478D01*
X123655909Y-152957484D01*
X123706202Y-153092329D01*
X123706204Y-153092333D01*
X123792452Y-153207544D01*
X123792455Y-153207547D01*
X123907666Y-153293795D01*
X123907670Y-153293797D01*
X124042517Y-153344091D01*
X124102114Y-153350499D01*
X124102118Y-153350499D01*
X124102127Y-153350500D01*
X125897872Y-153350499D01*
X125957483Y-153344091D01*
X126054085Y-153308061D01*
X126092329Y-153293797D01*
X126092333Y-153293795D01*
X126151623Y-153249410D01*
X126207546Y-153207546D01*
X126254732Y-153144514D01*
X126293795Y-153092333D01*
X126293798Y-153092327D01*
X126329215Y-152997367D01*
X126373953Y-152934540D01*
X126444110Y-152902498D01*
X126520889Y-152909829D01*
X126574180Y-152944076D01*
X126660208Y-153030104D01*
X126832184Y-153155051D01*
X127021588Y-153251557D01*
X127223757Y-153317246D01*
X127433713Y-153350500D01*
X127433718Y-153350500D01*
X127646282Y-153350500D01*
X127646287Y-153350500D01*
X127856243Y-153317246D01*
X128058412Y-153251557D01*
X128247816Y-153155051D01*
X128419792Y-153030104D01*
X128570104Y-152879792D01*
X128689456Y-152715517D01*
X128749396Y-152666979D01*
X128825574Y-152654913D01*
X128897580Y-152682553D01*
X128930544Y-152715517D01*
X129049896Y-152879792D01*
X129200208Y-153030104D01*
X129372184Y-153155051D01*
X129561588Y-153251557D01*
X129763757Y-153317246D01*
X129973713Y-153350500D01*
X129973718Y-153350500D01*
X130186282Y-153350500D01*
X130186287Y-153350500D01*
X130396243Y-153317246D01*
X130598412Y-153251557D01*
X130787816Y-153155051D01*
X130959792Y-153030104D01*
X131110104Y-152879792D01*
X131235051Y-152707816D01*
X131331557Y-152518412D01*
X131349644Y-152462743D01*
X131391648Y-152398062D01*
X131460369Y-152363046D01*
X131537391Y-152367081D01*
X131596709Y-152403430D01*
X134584460Y-155391181D01*
X134584461Y-155391182D01*
X134723818Y-155530539D01*
X134832324Y-155603040D01*
X134887681Y-155640029D01*
X134887683Y-155640030D01*
X134887686Y-155640032D01*
X134994345Y-155684211D01*
X135069764Y-155715451D01*
X135263059Y-155753900D01*
X149078937Y-155753900D01*
X149078940Y-155753900D01*
X149078941Y-155753900D01*
X149175588Y-155734675D01*
X149272236Y-155715451D01*
X149325565Y-155693361D01*
X149454314Y-155640032D01*
X149618182Y-155530539D01*
X149757539Y-155391182D01*
X149757540Y-155391180D01*
X149766025Y-155382695D01*
X149766031Y-155382688D01*
X151794258Y-153354460D01*
X151853571Y-153318114D01*
X151856241Y-153317246D01*
X151856243Y-153317246D01*
X152058412Y-153251557D01*
X152247816Y-153155051D01*
X152419792Y-153030104D01*
X152570104Y-152879792D01*
X152689456Y-152715517D01*
X152749396Y-152666979D01*
X152825574Y-152654913D01*
X152897580Y-152682553D01*
X152930544Y-152715517D01*
X153049896Y-152879792D01*
X153200208Y-153030104D01*
X153372184Y-153155051D01*
X153561588Y-153251557D01*
X153763757Y-153317246D01*
X153898047Y-153338515D01*
X153931751Y-153348020D01*
X153970081Y-153363898D01*
X154223384Y-153431771D01*
X154223390Y-153431771D01*
X154223391Y-153431772D01*
X154294079Y-153441077D01*
X154483380Y-153465999D01*
X154745620Y-153465999D01*
X155005616Y-153431771D01*
X155258919Y-153363898D01*
X155258925Y-153363895D01*
X155258927Y-153363895D01*
X155320201Y-153338514D01*
X155501197Y-153263543D01*
X155728302Y-153132424D01*
X155936351Y-152972783D01*
X173507283Y-135401851D01*
X173597611Y-135284131D01*
X173666924Y-135193803D01*
X173798043Y-134966697D01*
X173898398Y-134724419D01*
X173906494Y-134694202D01*
X173913868Y-134666688D01*
X173938844Y-134573472D01*
X173966271Y-134471116D01*
X173982328Y-134349146D01*
X174000500Y-134211120D01*
X174000500Y-112868880D01*
X174000500Y-107868880D01*
X174000500Y-100868880D01*
X174000500Y-95868880D01*
X173966270Y-95608884D01*
X173898398Y-95355581D01*
X173798043Y-95113303D01*
X173666924Y-94886197D01*
X173666921Y-94886193D01*
X173666921Y-94886192D01*
X173507284Y-94678151D01*
X173321848Y-94492715D01*
X173113806Y-94333078D01*
X173087198Y-94317716D01*
X172992734Y-94263177D01*
X172886701Y-94201959D01*
X172886699Y-94201958D01*
X172886697Y-94201957D01*
X172811154Y-94170666D01*
X172644416Y-94101600D01*
X172418255Y-94041002D01*
X172391116Y-94033730D01*
X172391114Y-94033729D01*
X172391108Y-94033728D01*
X172131123Y-93999500D01*
X172131120Y-93999500D01*
X171868880Y-93999500D01*
X171868876Y-93999500D01*
X171608892Y-94033728D01*
X171608889Y-94033728D01*
X171355584Y-94101600D01*
X171355583Y-94101600D01*
X171113298Y-94201959D01*
X170886193Y-94333078D01*
X170886192Y-94333078D01*
X170678151Y-94492715D01*
X170678151Y-94492716D01*
X170678149Y-94492718D01*
X170492718Y-94678149D01*
X170492716Y-94678151D01*
X170492715Y-94678151D01*
X170333078Y-94886192D01*
X170333078Y-94886193D01*
X170201959Y-95113298D01*
X170101600Y-95355583D01*
X170101600Y-95355584D01*
X170033728Y-95608889D01*
X170033728Y-95608892D01*
X169999500Y-95868876D01*
X169999500Y-133189648D01*
X169979538Y-133264148D01*
X169955859Y-133295007D01*
X153107218Y-150143647D01*
X152947575Y-150351699D01*
X152816459Y-150578798D01*
X152716104Y-150821072D01*
X152716103Y-150821076D01*
X152706886Y-150855476D01*
X152689601Y-150919986D01*
X152688831Y-150922858D01*
X152650267Y-150989653D01*
X152583472Y-151028217D01*
X152506344Y-151028217D01*
X152439549Y-150989653D01*
X152419793Y-150969897D01*
X152419792Y-150969896D01*
X152247816Y-150844949D01*
X152058412Y-150748443D01*
X151856243Y-150682754D01*
X151646287Y-150649500D01*
X151433713Y-150649500D01*
X151258749Y-150677211D01*
X151223756Y-150682754D01*
X151046480Y-150740355D01*
X151021588Y-150748443D01*
X151021582Y-150748445D01*
X151021582Y-150748446D01*
X150832182Y-150844950D01*
X150832181Y-150844950D01*
X150660209Y-150969895D01*
X150660198Y-150969904D01*
X150574179Y-151055923D01*
X150507384Y-151094487D01*
X150430256Y-151094487D01*
X150363462Y-151055922D01*
X150329215Y-151002633D01*
X150293796Y-150907669D01*
X150293795Y-150907668D01*
X150293795Y-150907666D01*
X150207547Y-150792455D01*
X150207544Y-150792452D01*
X150092333Y-150706204D01*
X150092329Y-150706202D01*
X149957482Y-150655908D01*
X149897885Y-150649500D01*
X149897873Y-150649500D01*
X149849500Y-150649500D01*
X149775000Y-150629538D01*
X149720462Y-150575000D01*
X149700500Y-150500500D01*
X149700500Y-79875429D01*
X170099500Y-79875429D01*
X170099500Y-80124570D01*
X170132016Y-80371557D01*
X170132017Y-80371563D01*
X170132018Y-80371565D01*
X170196498Y-80612207D01*
X170291836Y-80842373D01*
X170416401Y-81058127D01*
X170568062Y-81255776D01*
X170568063Y-81255777D01*
X170705859Y-81393573D01*
X170744423Y-81460368D01*
X170749500Y-81498932D01*
X170749500Y-82985077D01*
X170729538Y-83059577D01*
X170675000Y-83114115D01*
X170647369Y-83126514D01*
X170530662Y-83165187D01*
X170381344Y-83257289D01*
X170257289Y-83381344D01*
X170165187Y-83530663D01*
X170110001Y-83697201D01*
X170110001Y-83697203D01*
X170099500Y-83799992D01*
X170099500Y-86200008D01*
X170110001Y-86302797D01*
X170165186Y-86469334D01*
X170257289Y-86618655D01*
X170381345Y-86742711D01*
X170530666Y-86834814D01*
X170697203Y-86889999D01*
X170799992Y-86900500D01*
X170799996Y-86900500D01*
X173200004Y-86900500D01*
X173200008Y-86900500D01*
X173302797Y-86889999D01*
X173469334Y-86834814D01*
X173618655Y-86742711D01*
X173742711Y-86618655D01*
X173834814Y-86469334D01*
X173889999Y-86302797D01*
X173900500Y-86200008D01*
X173900500Y-83799992D01*
X173889999Y-83697203D01*
X173834814Y-83530666D01*
X173742711Y-83381345D01*
X173618655Y-83257289D01*
X173469337Y-83165187D01*
X173352631Y-83126514D01*
X173288192Y-83084130D01*
X173253578Y-83015206D01*
X173250500Y-82985077D01*
X173250500Y-81498932D01*
X173270462Y-81424432D01*
X173294141Y-81393573D01*
X173431938Y-81255776D01*
X173583599Y-81058127D01*
X173708164Y-80842373D01*
X173803502Y-80612207D01*
X173867982Y-80371565D01*
X173900500Y-80124565D01*
X173900500Y-79875435D01*
X173867982Y-79628435D01*
X173803502Y-79387793D01*
X173708164Y-79157627D01*
X173583599Y-78941873D01*
X173431938Y-78744224D01*
X173255776Y-78568062D01*
X173058127Y-78416401D01*
X172986209Y-78374879D01*
X172842377Y-78291838D01*
X172842375Y-78291837D01*
X172842373Y-78291836D01*
X172707548Y-78235989D01*
X172612210Y-78196499D01*
X172612208Y-78196498D01*
X172612207Y-78196498D01*
X172371565Y-78132018D01*
X172371563Y-78132017D01*
X172371557Y-78132016D01*
X172124570Y-78099500D01*
X172124565Y-78099500D01*
X171875435Y-78099500D01*
X171875429Y-78099500D01*
X171628442Y-78132016D01*
X171387789Y-78196499D01*
X171157622Y-78291838D01*
X170941874Y-78416400D01*
X170744222Y-78568063D01*
X170568063Y-78744222D01*
X170416400Y-78941874D01*
X170291838Y-79157622D01*
X170196499Y-79387789D01*
X170132016Y-79628442D01*
X170099500Y-79875429D01*
X149700500Y-79875429D01*
X149700500Y-67875429D01*
X170099500Y-67875429D01*
X170099500Y-68124570D01*
X170132016Y-68371557D01*
X170132017Y-68371563D01*
X170132018Y-68371565D01*
X170196498Y-68612207D01*
X170291836Y-68842373D01*
X170416401Y-69058127D01*
X170468710Y-69126297D01*
X170498225Y-69197554D01*
X170499500Y-69217002D01*
X170499500Y-71101250D01*
X170479538Y-71175750D01*
X170428724Y-71228064D01*
X170381345Y-71257289D01*
X170381342Y-71257291D01*
X170257289Y-71381344D01*
X170165187Y-71530663D01*
X170110001Y-71697201D01*
X170110001Y-71697203D01*
X170099500Y-71799992D01*
X170099500Y-74200008D01*
X170110001Y-74302797D01*
X170165186Y-74469334D01*
X170257289Y-74618655D01*
X170381345Y-74742711D01*
X170530666Y-74834814D01*
X170697203Y-74889999D01*
X170799992Y-74900500D01*
X170799996Y-74900500D01*
X173200004Y-74900500D01*
X173200008Y-74900500D01*
X173302797Y-74889999D01*
X173469334Y-74834814D01*
X173618655Y-74742711D01*
X173742711Y-74618655D01*
X173834814Y-74469334D01*
X173889999Y-74302797D01*
X173900500Y-74200008D01*
X173900500Y-71799992D01*
X173889999Y-71697203D01*
X173834814Y-71530666D01*
X173742711Y-71381345D01*
X173618655Y-71257289D01*
X173571275Y-71228064D01*
X173518349Y-71171964D01*
X173500500Y-71101250D01*
X173500500Y-69217002D01*
X173520462Y-69142502D01*
X173531290Y-69126297D01*
X173583599Y-69058127D01*
X173708164Y-68842373D01*
X173803502Y-68612207D01*
X173867982Y-68371565D01*
X173900500Y-68124565D01*
X173900500Y-67875435D01*
X173867982Y-67628435D01*
X173803502Y-67387793D01*
X173708164Y-67157627D01*
X173583599Y-66941873D01*
X173431938Y-66744224D01*
X173255776Y-66568062D01*
X173058127Y-66416401D01*
X172986209Y-66374879D01*
X172842377Y-66291838D01*
X172842375Y-66291837D01*
X172842373Y-66291836D01*
X172707548Y-66235989D01*
X172612210Y-66196499D01*
X172612208Y-66196498D01*
X172612207Y-66196498D01*
X172371565Y-66132018D01*
X172371563Y-66132017D01*
X172371557Y-66132016D01*
X172124570Y-66099500D01*
X172124565Y-66099500D01*
X171875435Y-66099500D01*
X171875429Y-66099500D01*
X171628442Y-66132016D01*
X171387789Y-66196499D01*
X171157622Y-66291838D01*
X170941874Y-66416400D01*
X170744222Y-66568063D01*
X170568063Y-66744222D01*
X170416400Y-66941874D01*
X170291838Y-67157622D01*
X170196499Y-67387789D01*
X170132016Y-67628442D01*
X170099500Y-67875429D01*
X149700500Y-67875429D01*
X149700500Y-55800011D01*
X170100000Y-55800011D01*
X170100000Y-56600000D01*
X171485523Y-56600000D01*
X171423978Y-56692110D01*
X171374979Y-56810402D01*
X171350000Y-56935981D01*
X171350000Y-57064019D01*
X171374979Y-57189598D01*
X171423978Y-57307890D01*
X171485523Y-57400000D01*
X170100000Y-57400000D01*
X170100000Y-58199988D01*
X170110492Y-58302687D01*
X170110494Y-58302696D01*
X170165642Y-58469120D01*
X170257680Y-58618339D01*
X170381660Y-58742319D01*
X170530879Y-58834357D01*
X170697303Y-58889505D01*
X170697312Y-58889507D01*
X170800011Y-58899999D01*
X170800022Y-58900000D01*
X171600000Y-58900000D01*
X171600000Y-57514476D01*
X171692110Y-57576022D01*
X171810402Y-57625021D01*
X171935981Y-57650000D01*
X172064019Y-57650000D01*
X172189598Y-57625021D01*
X172307890Y-57576022D01*
X172400000Y-57514476D01*
X172400000Y-58900000D01*
X173199978Y-58900000D01*
X173199988Y-58899999D01*
X173302687Y-58889507D01*
X173302696Y-58889505D01*
X173469120Y-58834357D01*
X173618339Y-58742319D01*
X173742319Y-58618339D01*
X173834357Y-58469120D01*
X173889505Y-58302696D01*
X173889507Y-58302687D01*
X173899999Y-58199988D01*
X173900000Y-58199978D01*
X173900000Y-57400000D01*
X172514477Y-57400000D01*
X172576022Y-57307890D01*
X172625021Y-57189598D01*
X172650000Y-57064019D01*
X172650000Y-56935981D01*
X172625021Y-56810402D01*
X172576022Y-56692110D01*
X172514477Y-56600000D01*
X173900000Y-56600000D01*
X173900000Y-55800021D01*
X173899999Y-55800011D01*
X173889507Y-55697312D01*
X173889505Y-55697303D01*
X173834357Y-55530879D01*
X173742319Y-55381660D01*
X173618339Y-55257680D01*
X173469120Y-55165642D01*
X173302696Y-55110494D01*
X173302687Y-55110492D01*
X173199988Y-55100000D01*
X172400000Y-55100000D01*
X172400000Y-56485523D01*
X172307890Y-56423978D01*
X172189598Y-56374979D01*
X172064019Y-56350000D01*
X171935981Y-56350000D01*
X171810402Y-56374979D01*
X171692110Y-56423978D01*
X171600000Y-56485523D01*
X171600000Y-55100000D01*
X170800011Y-55100000D01*
X170697312Y-55110492D01*
X170697303Y-55110494D01*
X170530879Y-55165642D01*
X170381660Y-55257680D01*
X170257680Y-55381660D01*
X170165642Y-55530879D01*
X170110494Y-55697303D01*
X170110492Y-55697312D01*
X170100000Y-55800011D01*
X149700500Y-55800011D01*
X149700500Y-51875461D01*
X170100000Y-51875461D01*
X170100000Y-52124538D01*
X170132507Y-52371459D01*
X170196973Y-52612048D01*
X170292287Y-52842156D01*
X170402048Y-53032265D01*
X171353367Y-52080946D01*
X171374979Y-52189598D01*
X171423978Y-52307890D01*
X171495112Y-52414351D01*
X171585649Y-52504888D01*
X171692110Y-52576022D01*
X171810402Y-52625021D01*
X171919052Y-52646632D01*
X170967733Y-53597950D01*
X171157849Y-53707714D01*
X171387951Y-53803026D01*
X171628540Y-53867492D01*
X171875461Y-53899999D01*
X171875467Y-53900000D01*
X172124533Y-53900000D01*
X172124538Y-53899999D01*
X172371459Y-53867492D01*
X172612048Y-53803026D01*
X172842150Y-53707714D01*
X173032265Y-53597950D01*
X172080947Y-52646632D01*
X172189598Y-52625021D01*
X172307890Y-52576022D01*
X172414351Y-52504888D01*
X172504888Y-52414351D01*
X172576022Y-52307890D01*
X172625021Y-52189598D01*
X172646632Y-52080947D01*
X173597950Y-53032265D01*
X173707714Y-52842150D01*
X173803026Y-52612048D01*
X173867492Y-52371459D01*
X173899999Y-52124538D01*
X173900000Y-52124533D01*
X173900000Y-51875467D01*
X173899999Y-51875461D01*
X173867492Y-51628540D01*
X173803026Y-51387951D01*
X173707714Y-51157849D01*
X173597950Y-50967733D01*
X172646632Y-51919051D01*
X172625021Y-51810402D01*
X172576022Y-51692110D01*
X172504888Y-51585649D01*
X172414351Y-51495112D01*
X172307890Y-51423978D01*
X172189598Y-51374979D01*
X172080946Y-51353366D01*
X173032265Y-50402048D01*
X172842156Y-50292287D01*
X172612048Y-50196973D01*
X172371459Y-50132507D01*
X172124538Y-50100000D01*
X171875461Y-50100000D01*
X171628540Y-50132507D01*
X171387951Y-50196973D01*
X171157843Y-50292287D01*
X170967733Y-50402048D01*
X171919052Y-51353367D01*
X171810402Y-51374979D01*
X171692110Y-51423978D01*
X171585649Y-51495112D01*
X171495112Y-51585649D01*
X171423978Y-51692110D01*
X171374979Y-51810402D01*
X171353367Y-51919052D01*
X170402048Y-50967733D01*
X170292287Y-51157843D01*
X170196973Y-51387951D01*
X170132507Y-51628540D01*
X170100000Y-51875461D01*
X149700500Y-51875461D01*
X149700500Y-45744606D01*
X149681681Y-45650000D01*
X149673580Y-45609272D01*
X149620775Y-45481789D01*
X149620774Y-45481788D01*
X149620773Y-45481784D01*
X149580199Y-45421063D01*
X149580198Y-45421062D01*
X149566125Y-45400000D01*
X149544114Y-45367058D01*
X149446542Y-45269486D01*
X147977067Y-43800011D01*
X170100000Y-43800011D01*
X170100000Y-44600000D01*
X171485523Y-44600000D01*
X171423978Y-44692110D01*
X171374979Y-44810402D01*
X171350000Y-44935981D01*
X171350000Y-45064019D01*
X171374979Y-45189598D01*
X171423978Y-45307890D01*
X171485523Y-45400000D01*
X170100000Y-45400000D01*
X170100000Y-46199988D01*
X170110492Y-46302687D01*
X170110494Y-46302696D01*
X170165642Y-46469120D01*
X170257680Y-46618339D01*
X170381660Y-46742319D01*
X170530879Y-46834357D01*
X170697303Y-46889505D01*
X170697312Y-46889507D01*
X170800011Y-46899999D01*
X170800022Y-46900000D01*
X171600000Y-46900000D01*
X171600000Y-45514476D01*
X171692110Y-45576022D01*
X171810402Y-45625021D01*
X171935981Y-45650000D01*
X172064019Y-45650000D01*
X172189598Y-45625021D01*
X172307890Y-45576022D01*
X172400000Y-45514476D01*
X172400000Y-46900000D01*
X173199978Y-46900000D01*
X173199988Y-46899999D01*
X173302687Y-46889507D01*
X173302696Y-46889505D01*
X173469120Y-46834357D01*
X173618339Y-46742319D01*
X173742319Y-46618339D01*
X173834357Y-46469120D01*
X173889505Y-46302696D01*
X173889507Y-46302687D01*
X173899999Y-46199988D01*
X173900000Y-46199978D01*
X173900000Y-45400000D01*
X172514477Y-45400000D01*
X172576022Y-45307890D01*
X172625021Y-45189598D01*
X172650000Y-45064019D01*
X172650000Y-44935981D01*
X172625021Y-44810402D01*
X172576022Y-44692110D01*
X172514477Y-44600000D01*
X173900000Y-44600000D01*
X173900000Y-43800021D01*
X173899999Y-43800011D01*
X173889507Y-43697312D01*
X173889505Y-43697303D01*
X173834357Y-43530879D01*
X173742319Y-43381660D01*
X173618339Y-43257680D01*
X173469120Y-43165642D01*
X173302696Y-43110494D01*
X173302687Y-43110492D01*
X173199988Y-43100000D01*
X172400000Y-43100000D01*
X172400000Y-44485523D01*
X172307890Y-44423978D01*
X172189598Y-44374979D01*
X172064019Y-44350000D01*
X171935981Y-44350000D01*
X171810402Y-44374979D01*
X171692110Y-44423978D01*
X171600000Y-44485523D01*
X171600000Y-43100000D01*
X170800011Y-43100000D01*
X170697312Y-43110492D01*
X170697303Y-43110494D01*
X170530879Y-43165642D01*
X170381660Y-43257680D01*
X170257680Y-43381660D01*
X170165642Y-43530879D01*
X170110494Y-43697303D01*
X170110492Y-43697312D01*
X170100000Y-43800011D01*
X147977067Y-43800011D01*
X144052517Y-39875461D01*
X170100000Y-39875461D01*
X170100000Y-40124538D01*
X170132507Y-40371459D01*
X170196973Y-40612048D01*
X170292287Y-40842156D01*
X170402048Y-41032265D01*
X171353367Y-40080946D01*
X171374979Y-40189598D01*
X171423978Y-40307890D01*
X171495112Y-40414351D01*
X171585649Y-40504888D01*
X171692110Y-40576022D01*
X171810402Y-40625021D01*
X171919052Y-40646632D01*
X170967733Y-41597950D01*
X171157849Y-41707714D01*
X171387951Y-41803026D01*
X171628540Y-41867492D01*
X171875461Y-41899999D01*
X171875467Y-41900000D01*
X172124533Y-41900000D01*
X172124538Y-41899999D01*
X172371459Y-41867492D01*
X172612048Y-41803026D01*
X172842150Y-41707714D01*
X173032265Y-41597950D01*
X172080947Y-40646632D01*
X172189598Y-40625021D01*
X172307890Y-40576022D01*
X172414351Y-40504888D01*
X172504888Y-40414351D01*
X172576022Y-40307890D01*
X172625021Y-40189598D01*
X172646632Y-40080947D01*
X173597950Y-41032265D01*
X173707714Y-40842150D01*
X173803026Y-40612048D01*
X173867492Y-40371459D01*
X173899999Y-40124538D01*
X173900000Y-40124533D01*
X173900000Y-39875467D01*
X173899999Y-39875461D01*
X173867492Y-39628540D01*
X173803026Y-39387951D01*
X173707714Y-39157849D01*
X173597950Y-38967733D01*
X172646632Y-39919051D01*
X172625021Y-39810402D01*
X172576022Y-39692110D01*
X172504888Y-39585649D01*
X172414351Y-39495112D01*
X172307890Y-39423978D01*
X172189598Y-39374979D01*
X172080946Y-39353366D01*
X173032265Y-38402048D01*
X172842156Y-38292287D01*
X172612048Y-38196973D01*
X172371459Y-38132507D01*
X172124538Y-38100000D01*
X171875461Y-38100000D01*
X171628540Y-38132507D01*
X171387951Y-38196973D01*
X171157843Y-38292287D01*
X170967733Y-38402048D01*
X171919052Y-39353367D01*
X171810402Y-39374979D01*
X171692110Y-39423978D01*
X171585649Y-39495112D01*
X171495112Y-39585649D01*
X171423978Y-39692110D01*
X171374979Y-39810402D01*
X171353367Y-39919052D01*
X170402048Y-38967733D01*
X170292287Y-39157843D01*
X170196973Y-39387951D01*
X170132507Y-39628540D01*
X170100000Y-39875461D01*
X144052517Y-39875461D01*
X117352441Y-13175384D01*
X117313877Y-13108589D01*
X117308800Y-13070025D01*
X117308800Y-11499499D01*
X117328762Y-11424999D01*
X117383300Y-11370461D01*
X117457800Y-11350499D01*
X118757864Y-11350499D01*
X118757872Y-11350499D01*
X118817483Y-11344091D01*
X118938778Y-11298851D01*
X118952329Y-11293797D01*
X118952333Y-11293795D01*
X119042439Y-11226341D01*
X119067546Y-11207546D01*
X119153796Y-11092331D01*
X119158106Y-11080777D01*
X119204091Y-10957482D01*
X119210499Y-10897885D01*
X119210499Y-10897882D01*
X119210500Y-10897873D01*
X119210499Y-9102128D01*
X119204091Y-9042517D01*
X119177005Y-8969895D01*
X119153797Y-8907670D01*
X119153795Y-8907666D01*
X119067547Y-8792455D01*
X119067544Y-8792452D01*
X118952333Y-8706204D01*
X118952329Y-8706202D01*
X118817482Y-8655908D01*
X118757876Y-8649500D01*
X116962136Y-8649500D01*
X116962111Y-8649502D01*
X116902515Y-8655908D01*
X116902439Y-8655927D01*
X116902367Y-8655924D01*
X116893250Y-8656905D01*
X116893114Y-8655648D01*
X116825345Y-8653623D01*
X116762832Y-8616275D01*
X115664746Y-7518189D01*
X115664743Y-7518186D01*
X115550011Y-7441525D01*
X115550008Y-7441523D01*
X115550002Y-7441520D01*
X115422529Y-7388720D01*
X115422527Y-7388719D01*
X115287197Y-7361800D01*
X115287194Y-7361800D01*
X115287193Y-7361800D01*
X107166694Y-7361800D01*
X107028706Y-7361800D01*
X107028702Y-7361800D01*
X106893372Y-7388719D01*
X106893370Y-7388720D01*
X106765897Y-7441520D01*
X106765884Y-7441528D01*
X106651158Y-7518185D01*
X106651153Y-7518189D01*
X105538856Y-8630485D01*
X105472061Y-8669049D01*
X105410189Y-8672292D01*
X105266287Y-8649500D01*
X105053713Y-8649500D01*
X104878749Y-8677211D01*
X104843756Y-8682754D01*
X104658724Y-8742875D01*
X104641588Y-8748443D01*
X104641582Y-8748445D01*
X104641582Y-8748446D01*
X104452182Y-8844950D01*
X104452181Y-8844950D01*
X104280209Y-8969895D01*
X104280206Y-8969897D01*
X104129897Y-9120206D01*
X104129895Y-9120209D01*
X104010544Y-9284482D01*
X103950604Y-9333020D01*
X103874425Y-9345086D01*
X103802420Y-9317446D01*
X103769456Y-9284482D01*
X103707236Y-9198844D01*
X103650104Y-9120208D01*
X103499792Y-8969896D01*
X103327816Y-8844949D01*
X103138412Y-8748443D01*
X102936243Y-8682754D01*
X102726287Y-8649500D01*
X102513713Y-8649500D01*
X102338749Y-8677211D01*
X102303756Y-8682754D01*
X102118724Y-8742875D01*
X102101588Y-8748443D01*
X102101582Y-8748445D01*
X102101582Y-8748446D01*
X101912182Y-8844950D01*
X101912181Y-8844950D01*
X101740209Y-8969895D01*
X101740206Y-8969897D01*
X101589897Y-9120206D01*
X101589895Y-9120209D01*
X101470544Y-9284482D01*
X101410604Y-9333020D01*
X101334425Y-9345086D01*
X101262420Y-9317446D01*
X101229456Y-9284482D01*
X101167236Y-9198844D01*
X101110104Y-9120208D01*
X100959792Y-8969896D01*
X100787816Y-8844949D01*
X100598412Y-8748443D01*
X100396243Y-8682754D01*
X100186287Y-8649500D01*
X99973713Y-8649500D01*
X99798749Y-8677211D01*
X99763756Y-8682754D01*
X99578724Y-8742875D01*
X99561588Y-8748443D01*
X99561582Y-8748445D01*
X99561582Y-8748446D01*
X99372182Y-8844950D01*
X99372181Y-8844950D01*
X99200209Y-8969895D01*
X99200206Y-8969897D01*
X99049897Y-9120206D01*
X99049895Y-9120209D01*
X98930544Y-9284482D01*
X98870604Y-9333020D01*
X98794425Y-9345086D01*
X98722420Y-9317446D01*
X98689456Y-9284482D01*
X98627236Y-9198844D01*
X98570104Y-9120208D01*
X98419792Y-8969896D01*
X98247816Y-8844949D01*
X98058412Y-8748443D01*
X97856243Y-8682754D01*
X97646287Y-8649500D01*
X97433713Y-8649500D01*
X97337757Y-8664698D01*
X97289809Y-8672292D01*
X97213103Y-8664229D01*
X97161142Y-8630485D01*
X96108646Y-7577989D01*
X96108643Y-7577986D01*
X95993911Y-7501325D01*
X95993908Y-7501323D01*
X95993902Y-7501320D01*
X95866429Y-7448520D01*
X95866427Y-7448519D01*
X95731097Y-7421600D01*
X95731094Y-7421600D01*
X95731093Y-7421600D01*
X91499000Y-7421600D01*
X91424500Y-7401638D01*
X91369962Y-7347100D01*
X91350000Y-7272600D01*
X91350000Y-5699000D01*
X91369962Y-5624500D01*
X91424500Y-5569962D01*
X91499000Y-5550000D01*
X179351000Y-5550000D01*
X179425500Y-5569962D01*
G37*
%TD.AperFunction*%
%TD*%
M02*
