%TF.GenerationSoftware,KiCad,Pcbnew,10.0.0*%
%TF.CreationDate,2026-03-30T18:26:12-04:00*%
%TF.ProjectId,geodude-carrier,67656f64-7564-4652-9d63-617272696572,rev?*%
%TF.SameCoordinates,Original*%
%TF.FileFunction,Copper,L1,Top*%
%TF.FilePolarity,Positive*%
%FSLAX46Y46*%
G04 Gerber Fmt 4.6, Leading zero omitted, Abs format (unit mm)*
G04 Created by KiCad (PCBNEW 10.0.0) date 2026-03-30 18:26:12*
%MOMM*%
%LPD*%
G01*
G04 APERTURE LIST*
G04 Aperture macros list*
%AMRoundRect*
0 Rectangle with rounded corners*
0 $1 Rounding radius*
0 $2 $3 $4 $5 $6 $7 $8 $9 X,Y pos of 4 corners*
0 Add a 4 corners polygon primitive as box body*
4,1,4,$2,$3,$4,$5,$6,$7,$8,$9,$2,$3,0*
0 Add four circle primitives for the rounded corners*
1,1,$1+$1,$2,$3*
1,1,$1+$1,$4,$5*
1,1,$1+$1,$6,$7*
1,1,$1+$1,$8,$9*
0 Add four rect primitives between the rounded corners*
20,1,$1+$1,$2,$3,$4,$5,0*
20,1,$1+$1,$4,$5,$6,$7,0*
20,1,$1+$1,$6,$7,$8,$9,0*
20,1,$1+$1,$8,$9,$2,$3,0*%
G04 Aperture macros list end*
%TA.AperFunction,ComponentPad*%
%ADD10C,2.800000*%
%TD*%
%TA.AperFunction,ComponentPad*%
%ADD11R,1.700000X1.700000*%
%TD*%
%TA.AperFunction,ComponentPad*%
%ADD12C,1.700000*%
%TD*%
%TA.AperFunction,ComponentPad*%
%ADD13RoundRect,0.250001X1.149999X-1.149999X1.149999X1.149999X-1.149999X1.149999X-1.149999X-1.149999X0*%
%TD*%
%TA.AperFunction,ViaPad*%
%ADD14C,0.600000*%
%TD*%
%TA.AperFunction,Conductor*%
%ADD15C,3.000000*%
%TD*%
%TA.AperFunction,Conductor*%
%ADD16C,1.699800*%
%TD*%
%TA.AperFunction,Conductor*%
%ADD17C,0.400000*%
%TD*%
%TA.AperFunction,Conductor*%
%ADD18C,1.000000*%
%TD*%
%TA.AperFunction,Conductor*%
%ADD19C,2.000000*%
%TD*%
%TA.AperFunction,Conductor*%
%ADD20C,0.600000*%
%TD*%
%TA.AperFunction,Conductor*%
%ADD21C,1.500000*%
%TD*%
G04 APERTURE END LIST*
D10*
%TO.P,F2,1*%
%TO.N,+12V*%
X83185000Y-60900000D03*
%TO.P,F2,2*%
%TO.N,SV2_PWR*%
X105385000Y-60900000D03*
%TD*%
D11*
%TO.P,SV4,1*%
%TO.N,PWM_CH3*%
X91220000Y-124300000D03*
D12*
%TO.P,SV4,2*%
%TO.N,SV4_PWR*%
X93760000Y-124300000D03*
%TO.P,SV4,3*%
%TO.N,GND*%
X96300000Y-124300000D03*
%TD*%
D10*
%TO.P,F6,1*%
%TO.N,+12V*%
X46685000Y-43900000D03*
%TO.P,F6,2*%
%TO.N,SV6_PWR*%
X68885000Y-43900000D03*
%TD*%
D11*
%TO.P,SV2,1*%
%TO.N,PWM_CH1*%
X63220000Y-124300000D03*
D12*
%TO.P,SV2,2*%
%TO.N,SV2_PWR*%
X65760000Y-124300000D03*
%TO.P,SV2,3*%
%TO.N,GND*%
X68300000Y-124300000D03*
%TD*%
D13*
%TO.P,J4,1*%
%TO.N,GND*%
X122900000Y-107000000D03*
D10*
%TO.P,J4,2*%
X122900000Y-102000000D03*
%TD*%
D11*
%TO.P,SV6,1*%
%TO.N,PWM_CH5*%
X48960000Y-132500000D03*
D12*
%TO.P,SV6,2*%
%TO.N,SV6_PWR*%
X51500000Y-132500000D03*
%TO.P,SV6,3*%
%TO.N,GND*%
X54040000Y-132500000D03*
%TD*%
D11*
%TO.P,J41,1*%
%TO.N,SDA*%
X37000000Y-68100000D03*
D12*
%TO.P,J41,2*%
X37000000Y-70640000D03*
%TO.P,J41,3*%
X37000000Y-73180000D03*
%TO.P,J41,4*%
X37000000Y-75720000D03*
%TD*%
D13*
%TO.P,J2,1*%
%TO.N,+12V*%
X122900000Y-59000000D03*
D10*
%TO.P,J2,2*%
X122900000Y-54000000D03*
%TD*%
D13*
%TO.P,J34,1*%
%TO.N,+3V3*%
X25000000Y-81400000D03*
D10*
%TO.P,J34,2*%
X25000000Y-76400000D03*
%TD*%
D13*
%TO.P,J32,1*%
%TO.N,SDA*%
X25000000Y-69400000D03*
D10*
%TO.P,J32,2*%
X25000000Y-64400000D03*
%TD*%
D11*
%TO.P,SV1,1*%
%TO.N,PWM_CH0*%
X49220000Y-124300000D03*
D12*
%TO.P,SV1,2*%
%TO.N,SV1_PWR*%
X51760000Y-124300000D03*
%TO.P,SV1,3*%
%TO.N,GND*%
X54300000Y-124300000D03*
%TD*%
D11*
%TO.P,J_ESC,1*%
%TO.N,PWM_CH11*%
X116460000Y-132500000D03*
D12*
%TO.P,J_ESC,2*%
%TO.N,N/C*%
X119000000Y-132500000D03*
%TO.P,J_ESC,3*%
%TO.N,GND*%
X121540000Y-132500000D03*
%TD*%
D11*
%TO.P,SV3,1*%
%TO.N,PWM_CH2*%
X77220000Y-124300000D03*
D12*
%TO.P,SV3,2*%
%TO.N,SV3_PWR*%
X79760000Y-124300000D03*
%TO.P,SV3,3*%
%TO.N,GND*%
X82300000Y-124300000D03*
%TD*%
D13*
%TO.P,J37,1*%
%TO.N,+5V_LOGIC*%
X25000000Y-93400000D03*
D10*
%TO.P,J37,2*%
X25000000Y-88400000D03*
%TD*%
D11*
%TO.P,J44,1*%
%TO.N,GND_LOGIC*%
X37000000Y-104100000D03*
D12*
%TO.P,J44,2*%
X37000000Y-106640000D03*
%TO.P,J44,3*%
X37000000Y-109180000D03*
%TO.P,J44,4*%
X37000000Y-111720000D03*
%TD*%
D11*
%TO.P,SV10,1*%
%TO.N,PWM_CH9*%
X104960000Y-132500000D03*
D12*
%TO.P,SV10,2*%
%TO.N,SV10_PWR*%
X107500000Y-132500000D03*
%TO.P,SV10,3*%
%TO.N,GND*%
X110040000Y-132500000D03*
%TD*%
D11*
%TO.P,SV7,1*%
%TO.N,PWM_CH6*%
X62960000Y-132500000D03*
D12*
%TO.P,SV7,2*%
%TO.N,SV7_PWR*%
X65500000Y-132500000D03*
%TO.P,SV7,3*%
%TO.N,GND*%
X68040000Y-132500000D03*
%TD*%
D10*
%TO.P,F7,1*%
%TO.N,+12V*%
X46685000Y-60900000D03*
%TO.P,F7,2*%
%TO.N,SV7_PWR*%
X68885000Y-60900000D03*
%TD*%
D13*
%TO.P,J1,1*%
%TO.N,+12V*%
X122900000Y-47000000D03*
D10*
%TO.P,J1,2*%
X122900000Y-42000000D03*
%TD*%
D11*
%TO.P,SV9,1*%
%TO.N,PWM_CH8*%
X90960000Y-132500000D03*
D12*
%TO.P,SV9,2*%
%TO.N,SV9_PWR*%
X93500000Y-132500000D03*
%TO.P,SV9,3*%
%TO.N,GND*%
X96040000Y-132500000D03*
%TD*%
D11*
%TO.P,SV5,1*%
%TO.N,PWM_CH4*%
X105220000Y-124300000D03*
D12*
%TO.P,SV5,2*%
%TO.N,SV5_PWR*%
X107760000Y-124300000D03*
%TO.P,SV5,3*%
%TO.N,GND*%
X110300000Y-124300000D03*
%TD*%
D11*
%TO.P,J43,1*%
%TO.N,+5V_LOGIC*%
X37000000Y-92100000D03*
D12*
%TO.P,J43,2*%
X37000000Y-94640000D03*
%TO.P,J43,3*%
X37000000Y-97180000D03*
%TO.P,J43,4*%
X37000000Y-99720000D03*
%TD*%
D13*
%TO.P,J39,1*%
%TO.N,GND_LOGIC*%
X25000000Y-105400000D03*
D10*
%TO.P,J39,2*%
X25000000Y-100400000D03*
%TD*%
D11*
%TO.P,SV8,1*%
%TO.N,PWM_CH7*%
X76960000Y-132500000D03*
D12*
%TO.P,SV8,2*%
%TO.N,SV8_PWR*%
X79500000Y-132500000D03*
%TO.P,SV8,3*%
%TO.N,GND*%
X82040000Y-132500000D03*
%TD*%
D11*
%TO.P,J40,1*%
%TO.N,SCL*%
X37000000Y-56100000D03*
D12*
%TO.P,J40,2*%
X37000000Y-58640000D03*
%TO.P,J40,3*%
X37000000Y-61180000D03*
%TO.P,J40,4*%
X37000000Y-63720000D03*
%TD*%
D13*
%TO.P,J6,1*%
%TO.N,+5V_SERVO*%
X122900000Y-83000000D03*
D10*
%TO.P,J6,2*%
X122900000Y-78000000D03*
%TD*%
%TO.P,F4,1*%
%TO.N,+5V_SERVO*%
X83185000Y-94900000D03*
%TO.P,F4,2*%
%TO.N,SV4_PWR*%
X105385000Y-94900000D03*
%TD*%
%TO.P,F3,1*%
%TO.N,+7V4*%
X83185000Y-77900000D03*
%TO.P,F3,2*%
%TO.N,SV3_PWR*%
X105385000Y-77900000D03*
%TD*%
D13*
%TO.P,J5,1*%
%TO.N,+7V4*%
X122900000Y-71000000D03*
D10*
%TO.P,J5,2*%
X122900000Y-66000000D03*
%TD*%
D13*
%TO.P,J31,1*%
%TO.N,SCL*%
X25000000Y-57400000D03*
D10*
%TO.P,J31,2*%
X25000000Y-52400000D03*
%TD*%
%TO.P,F5,1*%
%TO.N,+5V_SERVO*%
X83185000Y-111900000D03*
%TO.P,F5,2*%
%TO.N,SV5_PWR*%
X105385000Y-111900000D03*
%TD*%
%TO.P,F9,1*%
%TO.N,+5V_SERVO*%
X46685000Y-94900000D03*
%TO.P,F9,2*%
%TO.N,SV9_PWR*%
X68885000Y-94900000D03*
%TD*%
D11*
%TO.P,J42,1*%
%TO.N,+3V3*%
X37000000Y-80100000D03*
D12*
%TO.P,J42,2*%
X37000000Y-82640000D03*
%TO.P,J42,3*%
X37000000Y-85180000D03*
%TO.P,J42,4*%
X37000000Y-87720000D03*
%TD*%
D13*
%TO.P,J3,1*%
%TO.N,GND*%
X122900000Y-95000000D03*
D10*
%TO.P,J3,2*%
X122900000Y-90000000D03*
%TD*%
%TO.P,F8,1*%
%TO.N,+7V4*%
X46685000Y-77900000D03*
%TO.P,F8,2*%
%TO.N,SV8_PWR*%
X68885000Y-77900000D03*
%TD*%
D11*
%TO.P,J_FAN,1*%
%TO.N,PWM_CH12*%
X116460000Y-120500000D03*
D12*
%TO.P,J_FAN,2*%
%TO.N,+12V*%
X119000000Y-120500000D03*
%TO.P,J_FAN,3*%
%TO.N,GND*%
X121540000Y-120500000D03*
%TD*%
D11*
%TO.P,J_PCA,1*%
%TO.N,PWM_CH0*%
X98160000Y-24000000D03*
D12*
%TO.P,J_PCA,2*%
%TO.N,PWM_CH1*%
X95620000Y-24000000D03*
%TO.P,J_PCA,3*%
%TO.N,PWM_CH2*%
X93080000Y-24000000D03*
%TO.P,J_PCA,4*%
%TO.N,PWM_CH3*%
X90540000Y-24000000D03*
%TO.P,J_PCA,5*%
%TO.N,N/C*%
X88000000Y-24000000D03*
%TO.P,J_PCA,6*%
%TO.N,PWM_CH4*%
X85460000Y-24000000D03*
%TO.P,J_PCA,7*%
%TO.N,PWM_CH5*%
X82920000Y-24000000D03*
%TO.P,J_PCA,8*%
%TO.N,PWM_CH6*%
X80380000Y-24000000D03*
%TO.P,J_PCA,9*%
%TO.N,PWM_CH7*%
X77840000Y-24000000D03*
%TO.P,J_PCA,10*%
%TO.N,N/C*%
X75300000Y-24000000D03*
%TO.P,J_PCA,11*%
%TO.N,PWM_CH8*%
X72760000Y-24000000D03*
%TO.P,J_PCA,12*%
%TO.N,PWM_CH9*%
X70220000Y-24000000D03*
%TO.P,J_PCA,13*%
%TO.N,PWM_CH10*%
X67680000Y-24000000D03*
%TO.P,J_PCA,14*%
%TO.N,PWM_CH11*%
X65140000Y-24000000D03*
%TO.P,J_PCA,15*%
%TO.N,N/C*%
X62600000Y-24000000D03*
%TO.P,J_PCA,16*%
%TO.N,PWM_CH12*%
X60060000Y-24000000D03*
%TO.P,J_PCA,17*%
%TO.N,PWM_CH13*%
X57520000Y-24000000D03*
%TO.P,J_PCA,18*%
%TO.N,PWM_CH14*%
X54980000Y-24000000D03*
%TO.P,J_PCA,19*%
%TO.N,PWM_CH15*%
X52440000Y-24000000D03*
%TD*%
D10*
%TO.P,F1,1*%
%TO.N,+12V*%
X83185000Y-43900000D03*
%TO.P,F1,2*%
%TO.N,SV1_PWR*%
X105385000Y-43900000D03*
%TD*%
%TO.P,F10,1*%
%TO.N,+5V_SERVO*%
X46685000Y-111900000D03*
%TO.P,F10,2*%
%TO.N,SV10_PWR*%
X68885000Y-111900000D03*
%TD*%
D14*
%TO.N,PWM_CH1*%
X72456000Y-29794300D03*
%TO.N,PWM_CH0*%
X57311700Y-26715000D03*
%TO.N,PWM_CH11*%
X112733300Y-24091100D03*
%TO.N,PWM_CH2*%
X76922200Y-29230300D03*
%TO.N,PWM_CH9*%
X78489800Y-26605900D03*
X85081600Y-131315700D03*
%TO.N,SV10_PWR*%
X71547300Y-130265400D03*
%TO.N,SV7_PWR*%
X65277800Y-119684500D03*
%TO.N,PWM_CH8*%
X86203600Y-132500000D03*
%TO.N,+5V_SERVO*%
X77560100Y-73384400D03*
%TO.N,+7V4*%
X78925600Y-70931800D03*
%TO.N,PWM_CH12*%
X116460000Y-21544900D03*
%TD*%
%TO.N,+12V*%
D15*
X119000000Y-62900000D02*
X119000000Y-117948100D01*
X83185000Y-43900000D02*
X83185000Y-60900000D01*
D16*
X119000000Y-117948100D02*
X119000000Y-120500000D01*
D15*
X122900000Y-42000000D02*
X122900000Y-47000000D01*
X122900000Y-54000000D02*
X122900000Y-59000000D01*
X122900000Y-59000000D02*
X119000000Y-62900000D01*
X122900000Y-47000000D02*
X122900000Y-54000000D01*
X46685000Y-60900000D02*
X46685000Y-43900000D01*
%TO.N,PWM_CH3*%
D17*
X91218500Y-123046800D02*
X91220000Y-123048300D01*
X89247200Y-22707200D02*
X84970600Y-22707200D01*
X91218500Y-44996400D02*
X91218500Y-123046800D01*
X84970600Y-22707200D02*
X84190000Y-23487800D01*
X84190000Y-23487800D02*
X84190000Y-37967900D01*
X84190000Y-37967900D02*
X91218500Y-44996400D01*
X91220000Y-124300000D02*
X91220000Y-123048300D01*
X90540000Y-24000000D02*
X89247200Y-22707200D01*
%TO.N,SV4_PWR*%
D18*
X93760000Y-106525000D02*
X105385000Y-94900000D01*
X93760000Y-124300000D02*
X93760000Y-106525000D01*
%TO.N,GND*%
D15*
X110833100Y-131706900D02*
X110574500Y-131965500D01*
D16*
X82300000Y-132500000D02*
X82300000Y-124300000D01*
X122074500Y-119965500D02*
X121540000Y-120500000D01*
D15*
X68051900Y-132500000D02*
X68300000Y-132500000D01*
X122900000Y-102000000D02*
X122900000Y-107000000D01*
D16*
X68300000Y-132500000D02*
X68300000Y-129937500D01*
D15*
X96051900Y-132500000D02*
X96300000Y-132500000D01*
D16*
X68051900Y-132500000D02*
X68040000Y-132500000D01*
D15*
X122900000Y-107000000D02*
X122900000Y-119140000D01*
D16*
X54051900Y-132500000D02*
X54040000Y-132500000D01*
X96300000Y-132500000D02*
X96300000Y-124300000D01*
D15*
X54051900Y-132500000D02*
X56614400Y-129937500D01*
X56614400Y-129937500D02*
X68300000Y-129937500D01*
D16*
X96051900Y-132500000D02*
X96040000Y-132500000D01*
X110833100Y-124833100D02*
X110300000Y-124300000D01*
X82051900Y-132500000D02*
X82040000Y-132500000D01*
D15*
X82051900Y-132500000D02*
X82300000Y-132500000D01*
D16*
X121540000Y-132500000D02*
X121540000Y-120500000D01*
D15*
X122900000Y-90000000D02*
X122900000Y-95000000D01*
X122900000Y-119140000D02*
X122074500Y-119965500D01*
X122900000Y-95000000D02*
X122900000Y-102000000D01*
D16*
X68300000Y-129937500D02*
X68300000Y-124300000D01*
X110574500Y-131965500D02*
X110040000Y-132500000D01*
D15*
X110833100Y-124833100D02*
X110833100Y-131706900D01*
%TO.N,SV6_PWR*%
D19*
X62523700Y-50261300D02*
X62523700Y-119937200D01*
D16*
X51160300Y-132160300D02*
X51500000Y-132500000D01*
X51160300Y-131300600D02*
X51160300Y-132160300D01*
D19*
X68885000Y-43900000D02*
X62523700Y-50261300D01*
X62523700Y-119937200D02*
X51160300Y-131300600D01*
%TO.N,PWM_CH1*%
D17*
X63924100Y-123048300D02*
X63220000Y-123048300D01*
X66728800Y-120243600D02*
X63924100Y-123048300D01*
X72456000Y-29794300D02*
X72456000Y-68169800D01*
X66728800Y-73897000D02*
X66728800Y-120243600D01*
X72456000Y-68169800D02*
X66728800Y-73897000D01*
X63220000Y-124300000D02*
X63220000Y-123048300D01*
%TO.N,PWM_CH5*%
X81073500Y-22069500D02*
X72854400Y-22069500D01*
X82920000Y-23916000D02*
X81073500Y-22069500D01*
X82920000Y-24000000D02*
X82920000Y-23916000D01*
X72854400Y-22069500D02*
X71490000Y-23433900D01*
X53028500Y-46040100D02*
X53028500Y-127179800D01*
X48960000Y-132500000D02*
X48960000Y-131248300D01*
X53028500Y-127179800D02*
X48960000Y-131248300D01*
X71490000Y-27578600D02*
X53028500Y-46040100D01*
X71490000Y-23433900D02*
X71490000Y-27578600D01*
%TO.N,SDA*%
X37000000Y-73180000D02*
X37000000Y-70640000D01*
X37000000Y-75720000D02*
X37000000Y-73180000D01*
X25000000Y-64400000D02*
X25000000Y-69400000D01*
X37000000Y-70640000D02*
X37000000Y-68100000D01*
%TO.N,+3V3*%
D20*
X37000000Y-82640000D02*
X37000000Y-80100000D01*
X37000000Y-87720000D02*
X37000000Y-85180000D01*
X25000000Y-76400000D02*
X25000000Y-81400000D01*
X37000000Y-85180000D02*
X37000000Y-82640000D01*
%TO.N,PWM_CH0*%
D17*
X57311700Y-26715000D02*
X49220000Y-34806700D01*
X49220000Y-34806700D02*
X49220000Y-124300000D01*
%TO.N,PWM_CH11*%
X116460000Y-125476900D02*
X112733300Y-121750200D01*
X116460000Y-132500000D02*
X116460000Y-125476900D01*
X112733300Y-121750200D02*
X112733300Y-24091100D01*
%TO.N,PWM_CH2*%
X77220000Y-123048300D02*
X76408400Y-122236700D01*
X77220000Y-124300000D02*
X77220000Y-123048300D01*
X76408400Y-122236700D02*
X76408400Y-29744100D01*
X76408400Y-29744100D02*
X76922200Y-29230300D01*
%TO.N,+5V_LOGIC*%
D20*
X25000000Y-88400000D02*
X25000000Y-93400000D01*
X37000000Y-97180000D02*
X37000000Y-94640000D01*
X37000000Y-94640000D02*
X37000000Y-92100000D01*
X37000000Y-99720000D02*
X37000000Y-97180000D01*
%TO.N,GND_LOGIC*%
X37000000Y-111720000D02*
X37000000Y-109180000D01*
X37000000Y-106640000D02*
X37000000Y-104100000D01*
X37000000Y-109180000D02*
X37000000Y-106640000D01*
X25000000Y-100400000D02*
X25000000Y-105400000D01*
%TO.N,PWM_CH9*%
D17*
X78489800Y-60282400D02*
X85081600Y-66874200D01*
X85081600Y-66874200D02*
X85081600Y-131315700D01*
X78489800Y-26605900D02*
X78489800Y-60282400D01*
%TO.N,SV10_PWR*%
D18*
X71547300Y-114562300D02*
X71547300Y-130265400D01*
X68885000Y-111900000D02*
X71547300Y-114562300D01*
%TO.N,SV7_PWR*%
D19*
X68885000Y-60900000D02*
X65277800Y-64507200D01*
X65277800Y-64507200D02*
X65277800Y-119684500D01*
%TO.N,PWM_CH8*%
D17*
X81650000Y-36444100D02*
X86203600Y-40997700D01*
X80883000Y-22729800D02*
X81650000Y-23496800D01*
X72760000Y-24000000D02*
X74030200Y-22729800D01*
X86203600Y-40997700D02*
X86203600Y-132500000D01*
X74030200Y-22729800D02*
X80883000Y-22729800D01*
X81650000Y-23496800D02*
X81650000Y-36444100D01*
%TO.N,SV9_PWR*%
D18*
X93500000Y-132286600D02*
X92093700Y-130880300D01*
X72749000Y-133392600D02*
X72749000Y-98764000D01*
X89399700Y-130880300D02*
X84487200Y-135792800D01*
X75149200Y-135792800D02*
X72749000Y-133392600D01*
X92093700Y-130880300D02*
X89399700Y-130880300D01*
X84487200Y-135792800D02*
X75149200Y-135792800D01*
X72749000Y-98764000D02*
X68885000Y-94900000D01*
X93500000Y-132500000D02*
X93500000Y-132286600D01*
%TO.N,PWM_CH4*%
D17*
X103550100Y-108825700D02*
X103550100Y-121378400D01*
X85460000Y-24000000D02*
X91820200Y-30360200D01*
X103550100Y-121378400D02*
X105220000Y-123048300D01*
X107233600Y-105142200D02*
X103550100Y-108825700D01*
X107233600Y-84869900D02*
X107233600Y-105142200D01*
X91820200Y-69456500D02*
X107233600Y-84869900D01*
X105220000Y-124300000D02*
X105220000Y-123048300D01*
X91820200Y-30360200D02*
X91820200Y-69456500D01*
%TO.N,SV5_PWR*%
D18*
X107760000Y-114275000D02*
X105385000Y-111900000D01*
X107760000Y-124300000D02*
X107760000Y-114275000D01*
%TO.N,PWM_CH7*%
D17*
X76960000Y-132500000D02*
X76960000Y-131248300D01*
X76960000Y-131248300D02*
X75806700Y-130095000D01*
X75806700Y-26033300D02*
X77840000Y-24000000D01*
X75806700Y-130095000D02*
X75806700Y-26033300D01*
%TO.N,SV8_PWR*%
D21*
X74253700Y-132839700D02*
X75715700Y-134301700D01*
X75715700Y-134301700D02*
X78260900Y-134301700D01*
X68885000Y-77900000D02*
X74253700Y-83268700D01*
X79500000Y-133062600D02*
X79500000Y-132500000D01*
X78260900Y-134301700D02*
X79500000Y-133062600D01*
X74253700Y-83268700D02*
X74253700Y-132839700D01*
%TO.N,SCL*%
D17*
X25000000Y-52400000D02*
X25000000Y-57400000D01*
X37000000Y-63720000D02*
X37000000Y-61180000D01*
X37000000Y-58640000D02*
X37000000Y-56100000D01*
X37000000Y-61180000D02*
X37000000Y-58640000D01*
%TO.N,+5V_SERVO*%
D21*
X77560100Y-73384400D02*
X77560100Y-89275100D01*
X46685000Y-111900000D02*
X46685000Y-94900000D01*
X83185000Y-111900000D02*
X83185000Y-94900000D01*
X122900000Y-78000000D02*
X122900000Y-83000000D01*
X77560100Y-89275100D02*
X83185000Y-94900000D01*
%TO.N,+7V4*%
D19*
X78925600Y-70931800D02*
X83185000Y-75191200D01*
X122900000Y-66000000D02*
X122900000Y-71000000D01*
X83185000Y-75191200D02*
X83185000Y-77900000D01*
%TO.N,PWM_CH12*%
D17*
X116460000Y-120500000D02*
X116460000Y-21544900D01*
%TD*%
%TA.AperFunction,Conductor*%
%TO.N,+12V*%
G36*
X137325500Y-5119962D02*
G01*
X137380038Y-5174500D01*
X137400000Y-5249000D01*
X137400000Y-151851000D01*
X137380038Y-151925500D01*
X137325500Y-151980038D01*
X137251000Y-152000000D01*
X77999000Y-152000000D01*
X77924500Y-151980038D01*
X77869962Y-151925500D01*
X77850000Y-151851000D01*
X77850000Y-140378706D01*
X97449500Y-140378706D01*
X97449500Y-140621293D01*
X97481160Y-140861781D01*
X97481161Y-140861787D01*
X97481162Y-140861789D01*
X97543946Y-141096100D01*
X97636776Y-141320212D01*
X97758064Y-141530289D01*
X97905735Y-141722738D01*
X98077262Y-141894265D01*
X98269711Y-142041936D01*
X98479788Y-142163224D01*
X98703900Y-142256054D01*
X98938211Y-142318838D01*
X98938217Y-142318838D01*
X98938218Y-142318839D01*
X99003600Y-142327446D01*
X99178712Y-142350500D01*
X99421288Y-142350500D01*
X99661789Y-142318838D01*
X99896100Y-142256054D01*
X100120212Y-142163224D01*
X100330289Y-142041936D01*
X100522738Y-141894265D01*
X100694265Y-141722738D01*
X100841936Y-141530289D01*
X100963224Y-141320212D01*
X101056054Y-141096100D01*
X101118838Y-140861789D01*
X101150500Y-140621288D01*
X101150500Y-140378712D01*
X101118838Y-140138211D01*
X101056054Y-139903900D01*
X100963224Y-139679788D01*
X100841936Y-139469711D01*
X100694265Y-139277262D01*
X100522738Y-139105735D01*
X100330289Y-138958064D01*
X100260263Y-138917634D01*
X100120216Y-138836778D01*
X100120214Y-138836777D01*
X100120212Y-138836776D01*
X99988932Y-138782398D01*
X99896103Y-138743947D01*
X99896101Y-138743946D01*
X99896100Y-138743946D01*
X99661789Y-138681162D01*
X99661787Y-138681161D01*
X99661781Y-138681160D01*
X99421293Y-138649500D01*
X99421288Y-138649500D01*
X99178712Y-138649500D01*
X99178706Y-138649500D01*
X98938218Y-138681160D01*
X98703896Y-138743947D01*
X98479783Y-138836778D01*
X98269712Y-138958063D01*
X98269711Y-138958064D01*
X98077262Y-139105735D01*
X98077260Y-139105736D01*
X98077256Y-139105740D01*
X97905740Y-139277256D01*
X97758063Y-139469712D01*
X97636778Y-139679783D01*
X97543947Y-139903896D01*
X97481160Y-140138218D01*
X97449500Y-140378706D01*
X77850000Y-140378706D01*
X77850000Y-136942300D01*
X77869962Y-136867800D01*
X77924500Y-136813262D01*
X77999000Y-136793300D01*
X84585737Y-136793300D01*
X84585740Y-136793300D01*
X84585741Y-136793300D01*
X84682388Y-136774075D01*
X84779036Y-136754851D01*
X84832365Y-136732761D01*
X84961114Y-136679432D01*
X85124982Y-136569939D01*
X85264339Y-136430582D01*
X85264340Y-136430580D01*
X85272825Y-136422095D01*
X85272831Y-136422088D01*
X89355143Y-132339775D01*
X89421936Y-132301213D01*
X89499064Y-132301213D01*
X89565859Y-132339777D01*
X89604423Y-132406572D01*
X89609500Y-132445136D01*
X89609500Y-133397863D01*
X89609502Y-133397888D01*
X89615908Y-133457478D01*
X89615909Y-133457484D01*
X89666202Y-133592329D01*
X89666204Y-133592333D01*
X89752452Y-133707544D01*
X89752455Y-133707547D01*
X89867666Y-133793795D01*
X89867670Y-133793797D01*
X90002517Y-133844091D01*
X90062114Y-133850499D01*
X90062118Y-133850499D01*
X90062127Y-133850500D01*
X91857872Y-133850499D01*
X91917483Y-133844091D01*
X92013447Y-133808298D01*
X92052329Y-133793797D01*
X92052333Y-133793795D01*
X92109938Y-133750671D01*
X92167546Y-133707546D01*
X92215893Y-133642963D01*
X92253795Y-133592333D01*
X92253798Y-133592327D01*
X92289215Y-133497367D01*
X92333953Y-133434540D01*
X92404110Y-133402498D01*
X92480889Y-133409829D01*
X92534180Y-133444076D01*
X92620208Y-133530104D01*
X92792184Y-133655051D01*
X92981588Y-133751557D01*
X93183757Y-133817246D01*
X93393713Y-133850500D01*
X93393718Y-133850500D01*
X93606282Y-133850500D01*
X93606287Y-133850500D01*
X93816243Y-133817246D01*
X94018412Y-133751557D01*
X94207816Y-133655051D01*
X94224454Y-133642963D01*
X94296459Y-133615321D01*
X94372638Y-133627386D01*
X94430245Y-133672799D01*
X94544615Y-133821847D01*
X94544616Y-133821849D01*
X94730051Y-134007284D01*
X94938093Y-134166921D01*
X94938097Y-134166924D01*
X95165203Y-134298043D01*
X95369709Y-134382752D01*
X95407483Y-134398399D01*
X95495232Y-134421910D01*
X95660784Y-134466270D01*
X95660790Y-134466270D01*
X95660791Y-134466271D01*
X95697734Y-134471134D01*
X95920777Y-134500499D01*
X95920778Y-134500500D01*
X95920780Y-134500500D01*
X96431122Y-134500500D01*
X96431122Y-134500499D01*
X96691108Y-134466271D01*
X96691110Y-134466271D01*
X96691111Y-134466270D01*
X96691116Y-134466270D01*
X96944415Y-134398399D01*
X96944416Y-134398399D01*
X96944417Y-134398398D01*
X96944419Y-134398398D01*
X97186697Y-134298043D01*
X97413803Y-134166924D01*
X97621848Y-134007284D01*
X97621849Y-134007284D01*
X97807284Y-133821849D01*
X97807284Y-133821848D01*
X97810816Y-133817246D01*
X97966924Y-133613803D01*
X98098043Y-133386697D01*
X98198398Y-133144419D01*
X98266270Y-132891116D01*
X98300500Y-132631120D01*
X98300500Y-132368880D01*
X98266270Y-132108884D01*
X98215139Y-131918060D01*
X98198399Y-131855584D01*
X98198399Y-131855583D01*
X98135699Y-131704213D01*
X98098043Y-131613303D01*
X97966924Y-131386197D01*
X97966921Y-131386193D01*
X97966921Y-131386192D01*
X97807284Y-131178151D01*
X97694041Y-131064908D01*
X97655477Y-130998113D01*
X97650400Y-130959549D01*
X97650400Y-124413414D01*
X97650500Y-124410869D01*
X97650500Y-124193717D01*
X97650500Y-124193713D01*
X97617246Y-123983757D01*
X97551557Y-123781588D01*
X97455051Y-123592184D01*
X97330104Y-123420208D01*
X97179792Y-123269896D01*
X97007816Y-123144949D01*
X96818412Y-123048443D01*
X96616243Y-122982754D01*
X96406287Y-122949500D01*
X96193713Y-122949500D01*
X96018749Y-122977211D01*
X95983756Y-122982754D01*
X95781594Y-123048441D01*
X95781588Y-123048443D01*
X95781582Y-123048445D01*
X95781582Y-123048446D01*
X95592182Y-123144950D01*
X95592181Y-123144950D01*
X95420209Y-123269895D01*
X95420206Y-123269897D01*
X95269897Y-123420206D01*
X95269895Y-123420209D01*
X95150544Y-123584482D01*
X95090604Y-123633020D01*
X95014425Y-123645086D01*
X94942420Y-123617446D01*
X94909456Y-123584482D01*
X94788956Y-123418628D01*
X94761316Y-123346623D01*
X94760500Y-123331048D01*
X94760500Y-107001138D01*
X94780462Y-106926638D01*
X94804141Y-106895779D01*
X99831040Y-101868880D01*
X104889463Y-96810456D01*
X104956256Y-96771894D01*
X105014268Y-96768092D01*
X105165384Y-96787986D01*
X105260435Y-96800500D01*
X105509565Y-96800500D01*
X105756565Y-96767982D01*
X105997207Y-96703502D01*
X106227373Y-96608164D01*
X106309599Y-96560690D01*
X106384099Y-96540728D01*
X106458599Y-96560690D01*
X106513137Y-96615227D01*
X106533100Y-96689727D01*
X106533100Y-104790325D01*
X106513138Y-104864825D01*
X106489459Y-104895684D01*
X103005989Y-108379153D01*
X103005985Y-108379158D01*
X102945732Y-108469332D01*
X102945733Y-108469333D01*
X102929326Y-108493886D01*
X102929320Y-108493897D01*
X102876520Y-108621370D01*
X102876519Y-108621374D01*
X102849600Y-108756706D01*
X102849600Y-121447397D01*
X102876519Y-121582727D01*
X102876520Y-121582729D01*
X102929320Y-121710202D01*
X102929323Y-121710208D01*
X102929325Y-121710211D01*
X103005986Y-121824943D01*
X103005989Y-121824946D01*
X104040150Y-122859107D01*
X104078714Y-122925902D01*
X104078714Y-123003030D01*
X104040150Y-123069825D01*
X104024090Y-123083742D01*
X104012455Y-123092452D01*
X104012452Y-123092455D01*
X103926204Y-123207666D01*
X103926202Y-123207670D01*
X103875908Y-123342517D01*
X103869500Y-123402114D01*
X103869500Y-125197863D01*
X103869502Y-125197888D01*
X103875908Y-125257478D01*
X103875909Y-125257484D01*
X103926202Y-125392329D01*
X103926204Y-125392333D01*
X104012452Y-125507544D01*
X104012455Y-125507547D01*
X104127666Y-125593795D01*
X104127670Y-125593797D01*
X104262517Y-125644091D01*
X104322114Y-125650499D01*
X104322118Y-125650499D01*
X104322127Y-125650500D01*
X106117872Y-125650499D01*
X106177483Y-125644091D01*
X106273447Y-125608298D01*
X106312329Y-125593797D01*
X106312333Y-125593795D01*
X106369938Y-125550671D01*
X106427546Y-125507546D01*
X106502139Y-125407903D01*
X106513795Y-125392333D01*
X106513798Y-125392327D01*
X106549215Y-125297367D01*
X106593953Y-125234540D01*
X106664110Y-125202498D01*
X106740889Y-125209829D01*
X106794180Y-125244076D01*
X106880208Y-125330104D01*
X107052184Y-125455051D01*
X107241588Y-125551557D01*
X107443757Y-125617246D01*
X107653713Y-125650500D01*
X107653718Y-125650500D01*
X107866282Y-125650500D01*
X107866287Y-125650500D01*
X108076243Y-125617246D01*
X108278412Y-125551557D01*
X108467816Y-125455051D01*
X108596020Y-125361906D01*
X108668025Y-125334265D01*
X108744203Y-125346331D01*
X108804143Y-125394869D01*
X108831784Y-125466874D01*
X108832600Y-125482449D01*
X108832600Y-130941635D01*
X108812638Y-131016135D01*
X108776459Y-131078798D01*
X108676104Y-131321072D01*
X108676103Y-131321076D01*
X108669706Y-131344950D01*
X108649601Y-131419986D01*
X108648831Y-131422858D01*
X108610267Y-131489653D01*
X108543472Y-131528217D01*
X108466344Y-131528217D01*
X108399549Y-131489653D01*
X108379793Y-131469897D01*
X108379792Y-131469896D01*
X108207816Y-131344949D01*
X108018412Y-131248443D01*
X107816243Y-131182754D01*
X107606287Y-131149500D01*
X107393713Y-131149500D01*
X107218749Y-131177211D01*
X107183756Y-131182754D01*
X106981594Y-131248441D01*
X106981588Y-131248443D01*
X106981582Y-131248445D01*
X106981582Y-131248446D01*
X106792182Y-131344950D01*
X106792181Y-131344950D01*
X106620209Y-131469895D01*
X106620198Y-131469904D01*
X106534179Y-131555923D01*
X106467384Y-131594487D01*
X106390256Y-131594487D01*
X106323462Y-131555922D01*
X106289215Y-131502633D01*
X106253796Y-131407669D01*
X106253795Y-131407668D01*
X106253795Y-131407666D01*
X106167547Y-131292455D01*
X106167544Y-131292452D01*
X106052333Y-131206204D01*
X106052329Y-131206202D01*
X105917482Y-131155908D01*
X105857876Y-131149500D01*
X104062136Y-131149500D01*
X104062111Y-131149502D01*
X104002521Y-131155908D01*
X104002515Y-131155909D01*
X103867670Y-131206202D01*
X103867666Y-131206204D01*
X103752455Y-131292452D01*
X103752452Y-131292455D01*
X103666204Y-131407666D01*
X103666202Y-131407670D01*
X103615908Y-131542517D01*
X103609500Y-131602114D01*
X103609500Y-133397863D01*
X103609502Y-133397888D01*
X103615908Y-133457478D01*
X103615909Y-133457484D01*
X103666202Y-133592329D01*
X103666204Y-133592333D01*
X103752452Y-133707544D01*
X103752455Y-133707547D01*
X103867666Y-133793795D01*
X103867670Y-133793797D01*
X104002517Y-133844091D01*
X104062114Y-133850499D01*
X104062118Y-133850499D01*
X104062127Y-133850500D01*
X105857872Y-133850499D01*
X105917483Y-133844091D01*
X106013447Y-133808298D01*
X106052329Y-133793797D01*
X106052333Y-133793795D01*
X106109938Y-133750671D01*
X106167546Y-133707546D01*
X106215893Y-133642963D01*
X106253795Y-133592333D01*
X106253798Y-133592327D01*
X106289215Y-133497367D01*
X106333953Y-133434540D01*
X106404110Y-133402498D01*
X106480889Y-133409829D01*
X106534180Y-133444076D01*
X106620208Y-133530104D01*
X106792184Y-133655051D01*
X106981588Y-133751557D01*
X107183757Y-133817246D01*
X107393713Y-133850500D01*
X107393718Y-133850500D01*
X107606282Y-133850500D01*
X107606287Y-133850500D01*
X107816243Y-133817246D01*
X108018412Y-133751557D01*
X108207816Y-133655051D01*
X108379792Y-133530104D01*
X108530104Y-133379792D01*
X108649456Y-133215517D01*
X108709396Y-133166979D01*
X108785574Y-133154913D01*
X108857580Y-133182553D01*
X108890544Y-133215517D01*
X109009896Y-133379792D01*
X109160208Y-133530104D01*
X109332184Y-133655051D01*
X109521588Y-133751557D01*
X109723757Y-133817246D01*
X109858047Y-133838515D01*
X109891751Y-133848020D01*
X109930081Y-133863898D01*
X110183384Y-133931771D01*
X110183390Y-133931771D01*
X110183391Y-133931772D01*
X110254079Y-133941077D01*
X110443380Y-133965999D01*
X110705620Y-133965999D01*
X110965616Y-133931771D01*
X111218919Y-133863898D01*
X111218925Y-133863895D01*
X111218927Y-133863895D01*
X111280201Y-133838514D01*
X111461197Y-133763543D01*
X111688302Y-133632424D01*
X111896351Y-133472783D01*
X112340383Y-133028751D01*
X112455153Y-132879179D01*
X112500024Y-132820703D01*
X112631143Y-132593597D01*
X112731498Y-132351319D01*
X112750147Y-132281720D01*
X112799371Y-132098015D01*
X112819015Y-131948800D01*
X112833600Y-131838020D01*
X112833600Y-124701980D01*
X112799370Y-124441984D01*
X112756342Y-124281402D01*
X112731499Y-124188684D01*
X112731499Y-124188683D01*
X112715852Y-124150909D01*
X112631143Y-123946403D01*
X112500024Y-123719297D01*
X112500021Y-123719293D01*
X112500021Y-123719292D01*
X112340384Y-123511251D01*
X112154948Y-123325815D01*
X111946906Y-123166178D01*
X111940911Y-123162717D01*
X111811873Y-123088217D01*
X111719801Y-123035059D01*
X111719799Y-123035058D01*
X111719797Y-123035057D01*
X111593522Y-122982752D01*
X111477516Y-122934700D01*
X111251355Y-122874102D01*
X111224216Y-122866830D01*
X111224214Y-122866829D01*
X111224208Y-122866828D01*
X110964223Y-122832600D01*
X110964220Y-122832600D01*
X110701980Y-122832600D01*
X110701976Y-122832600D01*
X110441992Y-122866828D01*
X110441989Y-122866828D01*
X110188684Y-122934700D01*
X110144009Y-122953204D01*
X110110304Y-122962709D01*
X109983762Y-122982752D01*
X109781594Y-123048441D01*
X109781588Y-123048443D01*
X109781582Y-123048445D01*
X109781582Y-123048446D01*
X109592182Y-123144950D01*
X109592181Y-123144950D01*
X109420209Y-123269895D01*
X109420206Y-123269897D01*
X109269897Y-123420206D01*
X109269895Y-123420209D01*
X109150544Y-123584482D01*
X109090604Y-123633020D01*
X109014425Y-123645086D01*
X108942420Y-123617446D01*
X108909456Y-123584482D01*
X108788956Y-123418628D01*
X108761316Y-123346623D01*
X108760500Y-123331048D01*
X108760500Y-114176460D01*
X108722051Y-113983165D01*
X108722050Y-113983163D01*
X108646632Y-113801087D01*
X108646631Y-113801084D01*
X108609968Y-113746215D01*
X108537139Y-113637218D01*
X108397782Y-113497861D01*
X108394050Y-113494129D01*
X108394035Y-113494115D01*
X107295458Y-112395538D01*
X107256894Y-112328743D01*
X107253092Y-112270731D01*
X107285499Y-112024569D01*
X107285500Y-112024565D01*
X107285500Y-111775435D01*
X107285499Y-111775429D01*
X107252983Y-111528442D01*
X107252982Y-111528441D01*
X107252982Y-111528435D01*
X107188502Y-111287793D01*
X107093164Y-111057627D01*
X106968599Y-110841873D01*
X106816938Y-110644224D01*
X106640776Y-110468062D01*
X106443127Y-110316401D01*
X106330474Y-110251361D01*
X106227377Y-110191838D01*
X106227375Y-110191837D01*
X106227373Y-110191836D01*
X106011362Y-110102361D01*
X105997210Y-110096499D01*
X105997208Y-110096498D01*
X105997207Y-110096498D01*
X105756565Y-110032018D01*
X105756563Y-110032017D01*
X105756557Y-110032016D01*
X105509570Y-109999500D01*
X105509565Y-109999500D01*
X105260435Y-109999500D01*
X105260429Y-109999500D01*
X105013442Y-110032016D01*
X104772789Y-110096499D01*
X104610032Y-110163915D01*
X104542627Y-110191836D01*
X104542625Y-110191836D01*
X104542618Y-110191840D01*
X104474099Y-110231399D01*
X104399599Y-110251361D01*
X104325099Y-110231398D01*
X104270562Y-110176860D01*
X104250600Y-110102361D01*
X104250600Y-109177575D01*
X104270562Y-109103075D01*
X104294241Y-109072216D01*
X104987304Y-108379153D01*
X107777714Y-105588743D01*
X107854375Y-105474011D01*
X107907180Y-105346528D01*
X107934100Y-105211194D01*
X107934100Y-105073206D01*
X107934100Y-84800907D01*
X107907180Y-84665572D01*
X107854375Y-84538089D01*
X107777714Y-84423358D01*
X107680142Y-84325786D01*
X101129785Y-77775429D01*
X103484500Y-77775429D01*
X103484500Y-78024570D01*
X103517016Y-78271557D01*
X103517017Y-78271563D01*
X103517018Y-78271565D01*
X103581498Y-78512207D01*
X103676836Y-78742373D01*
X103801401Y-78958127D01*
X103953062Y-79155776D01*
X104129224Y-79331938D01*
X104326873Y-79483599D01*
X104542627Y-79608164D01*
X104772793Y-79703502D01*
X105013435Y-79767982D01*
X105013441Y-79767982D01*
X105013442Y-79767983D01*
X105080586Y-79776822D01*
X105260435Y-79800500D01*
X105509565Y-79800500D01*
X105756565Y-79767982D01*
X105997207Y-79703502D01*
X106227373Y-79608164D01*
X106443127Y-79483599D01*
X106640776Y-79331938D01*
X106816938Y-79155776D01*
X106968599Y-78958127D01*
X107093164Y-78742373D01*
X107188502Y-78512207D01*
X107252982Y-78271565D01*
X107285500Y-78024565D01*
X107285500Y-77775435D01*
X107252982Y-77528435D01*
X107188502Y-77287793D01*
X107093164Y-77057627D01*
X106968599Y-76841873D01*
X106816938Y-76644224D01*
X106640776Y-76468062D01*
X106443127Y-76316401D01*
X106235448Y-76196498D01*
X106227377Y-76191838D01*
X106227375Y-76191837D01*
X106227373Y-76191836D01*
X106082955Y-76132016D01*
X105997210Y-76096499D01*
X105997208Y-76096498D01*
X105997207Y-76096498D01*
X105756565Y-76032018D01*
X105756563Y-76032017D01*
X105756557Y-76032016D01*
X105509570Y-75999500D01*
X105509565Y-75999500D01*
X105260435Y-75999500D01*
X105260429Y-75999500D01*
X105013442Y-76032016D01*
X104772789Y-76096499D01*
X104542622Y-76191838D01*
X104326874Y-76316400D01*
X104129222Y-76468063D01*
X103953063Y-76644222D01*
X103801400Y-76841874D01*
X103676838Y-77057622D01*
X103581499Y-77287789D01*
X103517016Y-77528442D01*
X103484500Y-77775429D01*
X101129785Y-77775429D01*
X92564341Y-69209984D01*
X92525777Y-69143189D01*
X92520700Y-69104625D01*
X92520700Y-60775429D01*
X103484500Y-60775429D01*
X103484500Y-61024570D01*
X103517016Y-61271557D01*
X103517017Y-61271563D01*
X103517018Y-61271565D01*
X103581498Y-61512207D01*
X103676836Y-61742373D01*
X103801401Y-61958127D01*
X103953062Y-62155776D01*
X104129224Y-62331938D01*
X104326873Y-62483599D01*
X104542627Y-62608164D01*
X104772793Y-62703502D01*
X105013435Y-62767982D01*
X105013441Y-62767982D01*
X105013442Y-62767983D01*
X105080586Y-62776822D01*
X105260435Y-62800500D01*
X105509565Y-62800500D01*
X105756565Y-62767982D01*
X105997207Y-62703502D01*
X106227373Y-62608164D01*
X106443127Y-62483599D01*
X106640776Y-62331938D01*
X106816938Y-62155776D01*
X106968599Y-61958127D01*
X107093164Y-61742373D01*
X107188502Y-61512207D01*
X107252982Y-61271565D01*
X107285500Y-61024565D01*
X107285500Y-60775435D01*
X107252982Y-60528435D01*
X107188502Y-60287793D01*
X107093164Y-60057627D01*
X106968599Y-59841873D01*
X106816938Y-59644224D01*
X106640776Y-59468062D01*
X106443127Y-59316401D01*
X106371209Y-59274879D01*
X106227377Y-59191838D01*
X106227375Y-59191837D01*
X106227373Y-59191836D01*
X105998354Y-59096973D01*
X105997210Y-59096499D01*
X105997208Y-59096498D01*
X105997207Y-59096498D01*
X105756565Y-59032018D01*
X105756563Y-59032017D01*
X105756557Y-59032016D01*
X105509570Y-58999500D01*
X105509565Y-58999500D01*
X105260435Y-58999500D01*
X105260429Y-58999500D01*
X105013442Y-59032016D01*
X104772789Y-59096499D01*
X104542622Y-59191838D01*
X104326874Y-59316400D01*
X104129222Y-59468063D01*
X103953063Y-59644222D01*
X103801400Y-59841874D01*
X103676838Y-60057622D01*
X103581499Y-60287789D01*
X103517016Y-60528442D01*
X103484500Y-60775429D01*
X92520700Y-60775429D01*
X92520700Y-43775429D01*
X103484500Y-43775429D01*
X103484500Y-44024570D01*
X103517016Y-44271557D01*
X103517017Y-44271563D01*
X103517018Y-44271565D01*
X103581498Y-44512207D01*
X103676836Y-44742373D01*
X103801401Y-44958127D01*
X103953062Y-45155776D01*
X104129224Y-45331938D01*
X104326873Y-45483599D01*
X104542627Y-45608164D01*
X104772793Y-45703502D01*
X105013435Y-45767982D01*
X105013441Y-45767982D01*
X105013442Y-45767983D01*
X105080586Y-45776822D01*
X105260435Y-45800500D01*
X105509565Y-45800500D01*
X105756565Y-45767982D01*
X105997207Y-45703502D01*
X106227373Y-45608164D01*
X106443127Y-45483599D01*
X106640776Y-45331938D01*
X106816938Y-45155776D01*
X106968599Y-44958127D01*
X107093164Y-44742373D01*
X107188502Y-44512207D01*
X107252982Y-44271565D01*
X107285500Y-44024565D01*
X107285500Y-43775435D01*
X107252982Y-43528435D01*
X107188502Y-43287793D01*
X107093164Y-43057627D01*
X106968599Y-42841873D01*
X106816938Y-42644224D01*
X106640776Y-42468062D01*
X106443127Y-42316401D01*
X106371209Y-42274879D01*
X106227377Y-42191838D01*
X106227375Y-42191837D01*
X106227373Y-42191836D01*
X106092548Y-42135989D01*
X105997210Y-42096499D01*
X105997208Y-42096498D01*
X105997207Y-42096498D01*
X105756565Y-42032018D01*
X105756563Y-42032017D01*
X105756557Y-42032016D01*
X105509570Y-41999500D01*
X105509565Y-41999500D01*
X105260435Y-41999500D01*
X105260429Y-41999500D01*
X105013442Y-42032016D01*
X104772789Y-42096499D01*
X104542622Y-42191838D01*
X104326874Y-42316400D01*
X104129222Y-42468063D01*
X103953063Y-42644222D01*
X103801400Y-42841874D01*
X103676838Y-43057622D01*
X103581499Y-43287789D01*
X103517016Y-43528442D01*
X103484500Y-43775429D01*
X92520700Y-43775429D01*
X92520700Y-31478706D01*
X97949500Y-31478706D01*
X97949500Y-31721293D01*
X97981160Y-31961781D01*
X97981161Y-31961787D01*
X97981162Y-31961789D01*
X98043946Y-32196100D01*
X98136776Y-32420212D01*
X98258064Y-32630289D01*
X98405735Y-32822738D01*
X98577262Y-32994265D01*
X98769711Y-33141936D01*
X98979788Y-33263224D01*
X99203900Y-33356054D01*
X99438211Y-33418838D01*
X99438217Y-33418838D01*
X99438218Y-33418839D01*
X99503600Y-33427446D01*
X99678712Y-33450500D01*
X99921288Y-33450500D01*
X100161789Y-33418838D01*
X100396100Y-33356054D01*
X100620212Y-33263224D01*
X100830289Y-33141936D01*
X101022738Y-32994265D01*
X101194265Y-32822738D01*
X101341936Y-32630289D01*
X101463224Y-32420212D01*
X101556054Y-32196100D01*
X101618838Y-31961789D01*
X101650500Y-31721288D01*
X101650500Y-31478712D01*
X101618838Y-31238211D01*
X101556054Y-31003900D01*
X101463224Y-30779788D01*
X101341936Y-30569711D01*
X101194265Y-30377262D01*
X101022738Y-30205735D01*
X100830289Y-30058064D01*
X100640394Y-29948428D01*
X100620216Y-29936778D01*
X100620214Y-29936777D01*
X100620212Y-29936776D01*
X100415759Y-29852089D01*
X100396103Y-29843947D01*
X100396101Y-29843946D01*
X100396100Y-29843946D01*
X100161789Y-29781162D01*
X100161787Y-29781161D01*
X100161781Y-29781160D01*
X99921293Y-29749500D01*
X99921288Y-29749500D01*
X99678712Y-29749500D01*
X99678706Y-29749500D01*
X99438218Y-29781160D01*
X99203896Y-29843947D01*
X98979783Y-29936778D01*
X98769712Y-30058063D01*
X98769711Y-30058064D01*
X98577262Y-30205735D01*
X98577260Y-30205736D01*
X98577256Y-30205740D01*
X98405740Y-30377256D01*
X98405736Y-30377260D01*
X98405735Y-30377262D01*
X98354065Y-30444600D01*
X98258063Y-30569712D01*
X98136778Y-30779783D01*
X98043947Y-31003896D01*
X97981160Y-31238218D01*
X97949500Y-31478706D01*
X92520700Y-31478706D01*
X92520700Y-30291211D01*
X92520699Y-30291203D01*
X92520104Y-30288214D01*
X92503698Y-30205735D01*
X92493780Y-30155872D01*
X92453267Y-30058064D01*
X92440979Y-30028397D01*
X92440976Y-30028393D01*
X92440975Y-30028389D01*
X92364314Y-29913657D01*
X88049655Y-25598998D01*
X88011091Y-25532203D01*
X88011091Y-25455075D01*
X88049655Y-25388280D01*
X88116450Y-25349716D01*
X88131687Y-25346476D01*
X88316243Y-25317246D01*
X88518412Y-25251557D01*
X88707816Y-25155051D01*
X88879792Y-25030104D01*
X89030104Y-24879792D01*
X89149456Y-24715517D01*
X89209396Y-24666979D01*
X89285574Y-24654913D01*
X89357580Y-24682553D01*
X89390544Y-24715517D01*
X89509896Y-24879792D01*
X89660208Y-25030104D01*
X89832184Y-25155051D01*
X90021588Y-25251557D01*
X90223757Y-25317246D01*
X90433713Y-25350500D01*
X90433718Y-25350500D01*
X90646282Y-25350500D01*
X90646287Y-25350500D01*
X90856243Y-25317246D01*
X91058412Y-25251557D01*
X91247816Y-25155051D01*
X91419792Y-25030104D01*
X91570104Y-24879792D01*
X91689456Y-24715517D01*
X91749396Y-24666979D01*
X91825574Y-24654913D01*
X91897580Y-24682553D01*
X91930544Y-24715517D01*
X92049896Y-24879792D01*
X92200208Y-25030104D01*
X92372184Y-25155051D01*
X92561588Y-25251557D01*
X92763757Y-25317246D01*
X92973713Y-25350500D01*
X92973718Y-25350500D01*
X93186282Y-25350500D01*
X93186287Y-25350500D01*
X93396243Y-25317246D01*
X93598412Y-25251557D01*
X93787816Y-25155051D01*
X93959792Y-25030104D01*
X94110104Y-24879792D01*
X94229456Y-24715517D01*
X94289396Y-24666979D01*
X94365574Y-24654913D01*
X94437580Y-24682553D01*
X94470544Y-24715517D01*
X94589896Y-24879792D01*
X94740208Y-25030104D01*
X94912184Y-25155051D01*
X95101588Y-25251557D01*
X95303757Y-25317246D01*
X95513713Y-25350500D01*
X95513718Y-25350500D01*
X95726282Y-25350500D01*
X95726287Y-25350500D01*
X95936243Y-25317246D01*
X96138412Y-25251557D01*
X96327816Y-25155051D01*
X96499792Y-25030104D01*
X96585819Y-24944077D01*
X96652613Y-24905512D01*
X96729741Y-24905512D01*
X96796536Y-24944076D01*
X96830784Y-24997366D01*
X96866202Y-25092329D01*
X96866204Y-25092333D01*
X96952452Y-25207544D01*
X96952455Y-25207547D01*
X97067666Y-25293795D01*
X97067670Y-25293797D01*
X97202517Y-25344091D01*
X97262114Y-25350499D01*
X97262118Y-25350499D01*
X97262127Y-25350500D01*
X99057872Y-25350499D01*
X99117483Y-25344091D01*
X99250996Y-25294294D01*
X99252329Y-25293797D01*
X99252333Y-25293795D01*
X99309938Y-25250671D01*
X99367546Y-25207546D01*
X99453796Y-25092331D01*
X99504091Y-24957483D01*
X99510500Y-24897873D01*
X99510499Y-24012257D01*
X111932800Y-24012257D01*
X111932800Y-24169942D01*
X111963562Y-24324594D01*
X111963563Y-24324598D01*
X112021458Y-24464370D01*
X112032800Y-24521389D01*
X112032800Y-121819197D01*
X112059719Y-121954527D01*
X112059720Y-121954529D01*
X112112520Y-122082002D01*
X112112523Y-122082008D01*
X112112525Y-122082011D01*
X112189186Y-122196743D01*
X112189189Y-122196746D01*
X115715859Y-125723416D01*
X115754423Y-125790211D01*
X115759500Y-125828775D01*
X115759500Y-131000500D01*
X115739538Y-131075000D01*
X115685000Y-131129538D01*
X115610503Y-131149500D01*
X115562137Y-131149500D01*
X115562111Y-131149502D01*
X115502521Y-131155908D01*
X115502515Y-131155909D01*
X115367670Y-131206202D01*
X115367666Y-131206204D01*
X115252455Y-131292452D01*
X115252452Y-131292455D01*
X115166204Y-131407666D01*
X115166202Y-131407670D01*
X115115908Y-131542517D01*
X115109500Y-131602114D01*
X115109500Y-133397863D01*
X115109502Y-133397888D01*
X115115908Y-133457478D01*
X115115909Y-133457484D01*
X115166202Y-133592329D01*
X115166204Y-133592333D01*
X115252452Y-133707544D01*
X115252455Y-133707547D01*
X115367666Y-133793795D01*
X115367670Y-133793797D01*
X115502517Y-133844091D01*
X115562114Y-133850499D01*
X115562118Y-133850499D01*
X115562127Y-133850500D01*
X117357872Y-133850499D01*
X117417483Y-133844091D01*
X117513447Y-133808298D01*
X117552329Y-133793797D01*
X117552333Y-133793795D01*
X117609938Y-133750671D01*
X117667546Y-133707546D01*
X117715893Y-133642963D01*
X117753795Y-133592333D01*
X117753798Y-133592327D01*
X117789215Y-133497367D01*
X117833953Y-133434540D01*
X117904110Y-133402498D01*
X117980889Y-133409829D01*
X118034180Y-133444076D01*
X118120208Y-133530104D01*
X118292184Y-133655051D01*
X118481588Y-133751557D01*
X118683757Y-133817246D01*
X118893713Y-133850500D01*
X118893718Y-133850500D01*
X119106282Y-133850500D01*
X119106287Y-133850500D01*
X119316243Y-133817246D01*
X119518412Y-133751557D01*
X119707816Y-133655051D01*
X119879792Y-133530104D01*
X120030104Y-133379792D01*
X120149456Y-133215517D01*
X120209396Y-133166979D01*
X120285574Y-133154913D01*
X120357580Y-133182553D01*
X120390544Y-133215517D01*
X120509896Y-133379792D01*
X120660208Y-133530104D01*
X120832184Y-133655051D01*
X121021588Y-133751557D01*
X121223757Y-133817246D01*
X121433713Y-133850500D01*
X121433718Y-133850500D01*
X121646282Y-133850500D01*
X121646287Y-133850500D01*
X121856243Y-133817246D01*
X122058412Y-133751557D01*
X122247816Y-133655051D01*
X122419792Y-133530104D01*
X122570104Y-133379792D01*
X122695051Y-133207816D01*
X122791557Y-133018412D01*
X122857246Y-132816243D01*
X122890500Y-132606287D01*
X122890500Y-132393713D01*
X122890500Y-132389141D01*
X122890400Y-132386592D01*
X122890400Y-121890443D01*
X122910362Y-121815943D01*
X122964900Y-121761405D01*
X122982763Y-121751092D01*
X123188302Y-121632424D01*
X123396351Y-121472783D01*
X124407283Y-120461851D01*
X124488032Y-120356616D01*
X124566924Y-120253803D01*
X124698043Y-120026697D01*
X124798398Y-119784419D01*
X124866271Y-119531116D01*
X124869147Y-119509263D01*
X124883385Y-119401120D01*
X124883385Y-119401118D01*
X124893923Y-119321076D01*
X124900500Y-119271120D01*
X124900500Y-106868880D01*
X124900500Y-101868880D01*
X124900500Y-94868880D01*
X124900500Y-89868880D01*
X124866270Y-89608884D01*
X124798398Y-89355581D01*
X124698043Y-89113303D01*
X124566924Y-88886197D01*
X124566921Y-88886193D01*
X124566921Y-88886192D01*
X124407284Y-88678151D01*
X124221848Y-88492715D01*
X124013806Y-88333078D01*
X123786701Y-88201959D01*
X123786699Y-88201958D01*
X123786697Y-88201957D01*
X123711154Y-88170666D01*
X123544416Y-88101600D01*
X123318255Y-88041002D01*
X123291116Y-88033730D01*
X123291114Y-88033729D01*
X123291108Y-88033728D01*
X123031123Y-87999500D01*
X123031120Y-87999500D01*
X122768880Y-87999500D01*
X122768876Y-87999500D01*
X122508892Y-88033728D01*
X122508889Y-88033728D01*
X122255584Y-88101600D01*
X122255583Y-88101600D01*
X122013298Y-88201959D01*
X121786193Y-88333078D01*
X121786192Y-88333078D01*
X121578151Y-88492715D01*
X121578151Y-88492716D01*
X121578149Y-88492718D01*
X121392718Y-88678149D01*
X121392716Y-88678151D01*
X121392715Y-88678151D01*
X121233078Y-88886192D01*
X121233078Y-88886193D01*
X121101959Y-89113298D01*
X121001600Y-89355583D01*
X121001600Y-89355584D01*
X120933728Y-89608889D01*
X120933728Y-89608892D01*
X120899500Y-89868876D01*
X120899500Y-118249648D01*
X120879538Y-118324148D01*
X120855859Y-118355007D01*
X120567218Y-118643647D01*
X120407575Y-118851699D01*
X120276459Y-119078798D01*
X120176104Y-119321072D01*
X120176103Y-119321076D01*
X120108227Y-119574391D01*
X120074001Y-119834374D01*
X120074001Y-119929966D01*
X120054039Y-120004466D01*
X120030360Y-120035325D01*
X119565685Y-120499999D01*
X120145959Y-121080273D01*
X120184523Y-121147068D01*
X120189600Y-121185632D01*
X120189600Y-131419986D01*
X120169638Y-131494486D01*
X120115100Y-131549024D01*
X120040600Y-131568986D01*
X119966100Y-131549024D01*
X119935241Y-131525345D01*
X119879793Y-131469897D01*
X119879792Y-131469896D01*
X119707816Y-131344949D01*
X119518412Y-131248443D01*
X119316243Y-131182754D01*
X119106287Y-131149500D01*
X118893713Y-131149500D01*
X118718749Y-131177211D01*
X118683756Y-131182754D01*
X118481594Y-131248441D01*
X118481588Y-131248443D01*
X118481582Y-131248445D01*
X118481582Y-131248446D01*
X118292182Y-131344950D01*
X118292181Y-131344950D01*
X118120209Y-131469895D01*
X118120198Y-131469904D01*
X118034179Y-131555923D01*
X117967384Y-131594487D01*
X117890256Y-131594487D01*
X117823462Y-131555922D01*
X117789215Y-131502633D01*
X117753796Y-131407669D01*
X117753795Y-131407668D01*
X117753795Y-131407666D01*
X117667547Y-131292455D01*
X117667544Y-131292452D01*
X117552333Y-131206204D01*
X117552329Y-131206202D01*
X117417482Y-131155908D01*
X117357885Y-131149500D01*
X117357873Y-131149500D01*
X117309500Y-131149500D01*
X117235000Y-131129538D01*
X117180462Y-131075000D01*
X117160500Y-131000500D01*
X117160500Y-125407911D01*
X117160499Y-125407903D01*
X117157401Y-125392331D01*
X117149274Y-125351473D01*
X117148251Y-125346331D01*
X117133580Y-125272574D01*
X117133580Y-125272572D01*
X117102639Y-125197873D01*
X117080779Y-125145097D01*
X117080776Y-125145093D01*
X117080775Y-125145089D01*
X117004114Y-125030357D01*
X113477441Y-121503684D01*
X113438877Y-121436889D01*
X113433800Y-121398325D01*
X113433800Y-119602114D01*
X115109500Y-119602114D01*
X115109500Y-121397863D01*
X115109502Y-121397888D01*
X115115908Y-121457478D01*
X115115909Y-121457484D01*
X115166202Y-121592329D01*
X115166204Y-121592333D01*
X115252452Y-121707544D01*
X115252455Y-121707547D01*
X115367666Y-121793795D01*
X115367670Y-121793797D01*
X115502517Y-121844091D01*
X115562114Y-121850499D01*
X115562118Y-121850499D01*
X115562127Y-121850500D01*
X117357872Y-121850499D01*
X117417483Y-121844091D01*
X117513447Y-121808298D01*
X117552329Y-121793797D01*
X117552333Y-121793795D01*
X117609938Y-121750671D01*
X117667546Y-121707546D01*
X117677192Y-121694660D01*
X118371024Y-121694660D01*
X118481782Y-121751094D01*
X118481787Y-121751096D01*
X118683871Y-121816757D01*
X118893758Y-121850000D01*
X119106242Y-121850000D01*
X119316128Y-121816757D01*
X119518212Y-121751096D01*
X119518222Y-121751092D01*
X119628974Y-121694660D01*
X119628975Y-121694660D01*
X119000000Y-121065685D01*
X118371024Y-121694660D01*
X117677192Y-121694660D01*
X117710671Y-121649938D01*
X117753795Y-121592333D01*
X117753799Y-121592324D01*
X117754324Y-121590917D01*
X117754325Y-121590915D01*
X117803136Y-121460043D01*
X117804091Y-121457483D01*
X117806305Y-121436889D01*
X117810499Y-121397885D01*
X117810499Y-121397882D01*
X117810500Y-121397873D01*
X117810499Y-121185529D01*
X117830461Y-121111033D01*
X117854140Y-121080173D01*
X118434314Y-120499999D01*
X118368489Y-120434174D01*
X118500000Y-120434174D01*
X118500000Y-120565826D01*
X118534075Y-120692993D01*
X118599901Y-120807007D01*
X118692993Y-120900099D01*
X118807007Y-120965925D01*
X118934174Y-121000000D01*
X119065826Y-121000000D01*
X119192993Y-120965925D01*
X119307007Y-120900099D01*
X119400099Y-120807007D01*
X119465925Y-120692993D01*
X119500000Y-120565826D01*
X119500000Y-120434174D01*
X119465925Y-120307007D01*
X119400099Y-120192993D01*
X119307007Y-120099901D01*
X119192993Y-120034075D01*
X119065826Y-120000000D01*
X118934174Y-120000000D01*
X118807007Y-120034075D01*
X118692993Y-120099901D01*
X118599901Y-120192993D01*
X118534075Y-120307007D01*
X118500000Y-120434174D01*
X118368489Y-120434174D01*
X117854140Y-119919825D01*
X117815576Y-119853030D01*
X117810499Y-119814466D01*
X117810499Y-119602136D01*
X117810499Y-119602128D01*
X117804091Y-119542517D01*
X117753796Y-119407669D01*
X117753795Y-119407666D01*
X117677192Y-119305339D01*
X118371024Y-119305339D01*
X118999999Y-119934314D01*
X119628974Y-119305339D01*
X119628974Y-119305338D01*
X119518220Y-119248906D01*
X119316128Y-119183242D01*
X119106242Y-119150000D01*
X118893758Y-119150000D01*
X118683871Y-119183242D01*
X118481789Y-119248902D01*
X118481774Y-119248908D01*
X118371024Y-119305339D01*
X117677192Y-119305339D01*
X117667547Y-119292455D01*
X117667544Y-119292452D01*
X117552333Y-119206204D01*
X117552329Y-119206202D01*
X117417482Y-119155908D01*
X117357885Y-119149500D01*
X117357873Y-119149500D01*
X117309500Y-119149500D01*
X117235000Y-119129538D01*
X117180462Y-119075000D01*
X117160500Y-119000500D01*
X117160500Y-77875429D01*
X120999500Y-77875429D01*
X120999500Y-78124570D01*
X121032016Y-78371557D01*
X121032017Y-78371563D01*
X121032018Y-78371565D01*
X121096498Y-78612207D01*
X121191836Y-78842373D01*
X121316401Y-79058127D01*
X121468062Y-79255776D01*
X121468063Y-79255777D01*
X121605859Y-79393573D01*
X121644423Y-79460368D01*
X121649500Y-79498932D01*
X121649500Y-80985077D01*
X121629538Y-81059577D01*
X121575000Y-81114115D01*
X121547369Y-81126514D01*
X121430662Y-81165187D01*
X121281344Y-81257289D01*
X121157289Y-81381344D01*
X121065187Y-81530663D01*
X121010001Y-81697201D01*
X121010001Y-81697203D01*
X120999500Y-81799992D01*
X120999500Y-84200008D01*
X121008250Y-84285665D01*
X121010001Y-84302798D01*
X121065187Y-84469336D01*
X121157289Y-84618655D01*
X121281345Y-84742711D01*
X121430666Y-84834814D01*
X121597203Y-84889999D01*
X121699992Y-84900500D01*
X121699996Y-84900500D01*
X124100004Y-84900500D01*
X124100008Y-84900500D01*
X124202797Y-84889999D01*
X124369334Y-84834814D01*
X124518655Y-84742711D01*
X124642711Y-84618655D01*
X124734814Y-84469334D01*
X124789999Y-84302797D01*
X124800500Y-84200008D01*
X124800500Y-81799992D01*
X124789999Y-81697203D01*
X124734814Y-81530666D01*
X124642711Y-81381345D01*
X124518655Y-81257289D01*
X124369337Y-81165187D01*
X124252631Y-81126514D01*
X124188192Y-81084130D01*
X124153578Y-81015206D01*
X124150500Y-80985077D01*
X124150500Y-79498932D01*
X124170462Y-79424432D01*
X124194141Y-79393573D01*
X124255778Y-79331936D01*
X124331938Y-79255776D01*
X124483599Y-79058127D01*
X124608164Y-78842373D01*
X124703502Y-78612207D01*
X124767982Y-78371565D01*
X124800500Y-78124565D01*
X124800500Y-77875435D01*
X124767982Y-77628435D01*
X124703502Y-77387793D01*
X124608164Y-77157627D01*
X124483599Y-76941873D01*
X124331938Y-76744224D01*
X124155776Y-76568062D01*
X123958127Y-76416401D01*
X123784921Y-76316401D01*
X123742377Y-76291838D01*
X123742375Y-76291837D01*
X123742373Y-76291836D01*
X123607548Y-76235989D01*
X123512210Y-76196499D01*
X123512208Y-76196498D01*
X123512207Y-76196498D01*
X123271565Y-76132018D01*
X123271563Y-76132017D01*
X123271557Y-76132016D01*
X123024570Y-76099500D01*
X123024565Y-76099500D01*
X122775435Y-76099500D01*
X122775429Y-76099500D01*
X122528442Y-76132016D01*
X122287789Y-76196499D01*
X122057622Y-76291838D01*
X121841874Y-76416400D01*
X121644222Y-76568063D01*
X121468063Y-76744222D01*
X121316400Y-76941874D01*
X121191838Y-77157622D01*
X121096499Y-77387789D01*
X121032016Y-77628442D01*
X120999500Y-77875429D01*
X117160500Y-77875429D01*
X117160500Y-65875429D01*
X120999500Y-65875429D01*
X120999500Y-66124570D01*
X121032016Y-66371557D01*
X121032017Y-66371563D01*
X121032018Y-66371565D01*
X121096498Y-66612207D01*
X121191836Y-66842373D01*
X121316401Y-67058127D01*
X121368710Y-67126297D01*
X121398225Y-67197554D01*
X121399500Y-67217002D01*
X121399500Y-69101250D01*
X121379538Y-69175750D01*
X121328724Y-69228064D01*
X121281345Y-69257289D01*
X121281342Y-69257291D01*
X121157289Y-69381344D01*
X121065187Y-69530663D01*
X121010001Y-69697201D01*
X121008254Y-69714304D01*
X120999500Y-69799992D01*
X120999500Y-72200008D01*
X121002106Y-72225516D01*
X121010001Y-72302798D01*
X121037350Y-72385332D01*
X121065186Y-72469334D01*
X121157289Y-72618655D01*
X121281345Y-72742711D01*
X121430666Y-72834814D01*
X121597203Y-72889999D01*
X121699992Y-72900500D01*
X121699996Y-72900500D01*
X124100004Y-72900500D01*
X124100008Y-72900500D01*
X124202797Y-72889999D01*
X124369334Y-72834814D01*
X124518655Y-72742711D01*
X124642711Y-72618655D01*
X124734814Y-72469334D01*
X124789999Y-72302797D01*
X124800500Y-72200008D01*
X124800500Y-69799992D01*
X124789999Y-69697203D01*
X124734814Y-69530666D01*
X124642711Y-69381345D01*
X124518655Y-69257289D01*
X124471275Y-69228064D01*
X124418349Y-69171964D01*
X124400500Y-69101250D01*
X124400500Y-67217002D01*
X124420462Y-67142502D01*
X124431290Y-67126297D01*
X124483599Y-67058127D01*
X124608164Y-66842373D01*
X124703502Y-66612207D01*
X124767982Y-66371565D01*
X124800500Y-66124565D01*
X124800500Y-65875435D01*
X124767982Y-65628435D01*
X124703502Y-65387793D01*
X124608164Y-65157627D01*
X124483599Y-64941873D01*
X124331938Y-64744224D01*
X124155776Y-64568062D01*
X123958127Y-64416401D01*
X123886209Y-64374879D01*
X123742377Y-64291838D01*
X123742375Y-64291837D01*
X123742373Y-64291836D01*
X123607548Y-64235989D01*
X123512210Y-64196499D01*
X123512208Y-64196498D01*
X123512207Y-64196498D01*
X123271565Y-64132018D01*
X123271563Y-64132017D01*
X123271557Y-64132016D01*
X123024570Y-64099500D01*
X123024565Y-64099500D01*
X122775435Y-64099500D01*
X122775429Y-64099500D01*
X122528442Y-64132016D01*
X122287789Y-64196499D01*
X122057622Y-64291838D01*
X121841874Y-64416400D01*
X121644222Y-64568063D01*
X121468063Y-64744222D01*
X121316400Y-64941874D01*
X121191838Y-65157622D01*
X121096499Y-65387789D01*
X121032016Y-65628442D01*
X120999500Y-65875429D01*
X117160500Y-65875429D01*
X117160500Y-57800011D01*
X121000000Y-57800011D01*
X121000000Y-58600000D01*
X122385523Y-58600000D01*
X122323978Y-58692110D01*
X122274979Y-58810402D01*
X122250000Y-58935981D01*
X122250000Y-59064019D01*
X122274979Y-59189598D01*
X122323978Y-59307890D01*
X122385523Y-59400000D01*
X121000000Y-59400000D01*
X121000000Y-60199988D01*
X121010492Y-60302687D01*
X121010494Y-60302696D01*
X121065642Y-60469120D01*
X121157680Y-60618339D01*
X121281660Y-60742319D01*
X121430879Y-60834357D01*
X121597303Y-60889505D01*
X121597312Y-60889507D01*
X121700011Y-60899999D01*
X121700022Y-60900000D01*
X122500000Y-60900000D01*
X122500000Y-59514476D01*
X122592110Y-59576022D01*
X122710402Y-59625021D01*
X122835981Y-59650000D01*
X122964019Y-59650000D01*
X123089598Y-59625021D01*
X123207890Y-59576022D01*
X123300000Y-59514476D01*
X123300000Y-60900000D01*
X124099978Y-60900000D01*
X124099988Y-60899999D01*
X124202687Y-60889507D01*
X124202696Y-60889505D01*
X124369120Y-60834357D01*
X124518339Y-60742319D01*
X124642319Y-60618339D01*
X124734357Y-60469120D01*
X124789505Y-60302696D01*
X124789507Y-60302687D01*
X124799999Y-60199988D01*
X124800000Y-60199978D01*
X124800000Y-59400000D01*
X123414477Y-59400000D01*
X123476022Y-59307890D01*
X123525021Y-59189598D01*
X123550000Y-59064019D01*
X123550000Y-58935981D01*
X123525021Y-58810402D01*
X123476022Y-58692110D01*
X123414477Y-58600000D01*
X124800000Y-58600000D01*
X124800000Y-57800021D01*
X124799999Y-57800011D01*
X124789507Y-57697312D01*
X124789505Y-57697303D01*
X124734357Y-57530879D01*
X124642319Y-57381660D01*
X124518339Y-57257680D01*
X124369120Y-57165642D01*
X124202696Y-57110494D01*
X124202687Y-57110492D01*
X124099988Y-57100000D01*
X123300000Y-57100000D01*
X123300000Y-58485523D01*
X123207890Y-58423978D01*
X123089598Y-58374979D01*
X122964019Y-58350000D01*
X122835981Y-58350000D01*
X122710402Y-58374979D01*
X122592110Y-58423978D01*
X122500000Y-58485523D01*
X122500000Y-57100000D01*
X121700011Y-57100000D01*
X121597312Y-57110492D01*
X121597303Y-57110494D01*
X121430879Y-57165642D01*
X121281660Y-57257680D01*
X121157680Y-57381660D01*
X121065642Y-57530879D01*
X121010494Y-57697303D01*
X121010492Y-57697312D01*
X121000000Y-57800011D01*
X117160500Y-57800011D01*
X117160500Y-53875461D01*
X121000000Y-53875461D01*
X121000000Y-54124538D01*
X121032507Y-54371459D01*
X121096973Y-54612048D01*
X121192287Y-54842156D01*
X121302048Y-55032265D01*
X122253367Y-54080946D01*
X122274979Y-54189598D01*
X122323978Y-54307890D01*
X122395112Y-54414351D01*
X122485649Y-54504888D01*
X122592110Y-54576022D01*
X122710402Y-54625021D01*
X122819052Y-54646632D01*
X121867733Y-55597950D01*
X122057849Y-55707714D01*
X122287951Y-55803026D01*
X122528540Y-55867492D01*
X122775461Y-55899999D01*
X122775467Y-55900000D01*
X123024533Y-55900000D01*
X123024538Y-55899999D01*
X123271459Y-55867492D01*
X123512048Y-55803026D01*
X123742150Y-55707714D01*
X123932265Y-55597950D01*
X122980947Y-54646632D01*
X123089598Y-54625021D01*
X123207890Y-54576022D01*
X123314351Y-54504888D01*
X123404888Y-54414351D01*
X123476022Y-54307890D01*
X123525021Y-54189598D01*
X123546632Y-54080947D01*
X124497950Y-55032265D01*
X124607714Y-54842150D01*
X124703026Y-54612048D01*
X124767492Y-54371459D01*
X124799999Y-54124538D01*
X124800000Y-54124533D01*
X124800000Y-53875467D01*
X124799999Y-53875461D01*
X124767492Y-53628540D01*
X124703026Y-53387951D01*
X124607714Y-53157849D01*
X124497950Y-52967733D01*
X123546632Y-53919051D01*
X123525021Y-53810402D01*
X123476022Y-53692110D01*
X123404888Y-53585649D01*
X123314351Y-53495112D01*
X123207890Y-53423978D01*
X123089598Y-53374979D01*
X122980946Y-53353366D01*
X123932265Y-52402048D01*
X123742156Y-52292287D01*
X123512048Y-52196973D01*
X123271459Y-52132507D01*
X123024538Y-52100000D01*
X122775461Y-52100000D01*
X122528540Y-52132507D01*
X122287951Y-52196973D01*
X122057843Y-52292287D01*
X121867733Y-52402048D01*
X122819052Y-53353367D01*
X122710402Y-53374979D01*
X122592110Y-53423978D01*
X122485649Y-53495112D01*
X122395112Y-53585649D01*
X122323978Y-53692110D01*
X122274979Y-53810402D01*
X122253367Y-53919052D01*
X121302048Y-52967733D01*
X121192287Y-53157843D01*
X121096973Y-53387951D01*
X121032507Y-53628540D01*
X121000000Y-53875461D01*
X117160500Y-53875461D01*
X117160500Y-45800011D01*
X121000000Y-45800011D01*
X121000000Y-46600000D01*
X122385523Y-46600000D01*
X122323978Y-46692110D01*
X122274979Y-46810402D01*
X122250000Y-46935981D01*
X122250000Y-47064019D01*
X122274979Y-47189598D01*
X122323978Y-47307890D01*
X122385523Y-47400000D01*
X121000000Y-47400000D01*
X121000000Y-48199988D01*
X121010492Y-48302687D01*
X121010494Y-48302696D01*
X121065642Y-48469120D01*
X121157680Y-48618339D01*
X121281660Y-48742319D01*
X121430879Y-48834357D01*
X121597303Y-48889505D01*
X121597312Y-48889507D01*
X121700011Y-48899999D01*
X121700022Y-48900000D01*
X122500000Y-48900000D01*
X122500000Y-47514476D01*
X122592110Y-47576022D01*
X122710402Y-47625021D01*
X122835981Y-47650000D01*
X122964019Y-47650000D01*
X123089598Y-47625021D01*
X123207890Y-47576022D01*
X123300000Y-47514476D01*
X123300000Y-48900000D01*
X124099978Y-48900000D01*
X124099988Y-48899999D01*
X124202687Y-48889507D01*
X124202696Y-48889505D01*
X124369120Y-48834357D01*
X124518339Y-48742319D01*
X124642319Y-48618339D01*
X124734357Y-48469120D01*
X124789505Y-48302696D01*
X124789507Y-48302687D01*
X124799999Y-48199988D01*
X124800000Y-48199978D01*
X124800000Y-47400000D01*
X123414477Y-47400000D01*
X123476022Y-47307890D01*
X123525021Y-47189598D01*
X123550000Y-47064019D01*
X123550000Y-46935981D01*
X123525021Y-46810402D01*
X123476022Y-46692110D01*
X123414477Y-46600000D01*
X124800000Y-46600000D01*
X124800000Y-45800021D01*
X124799999Y-45800011D01*
X124789507Y-45697312D01*
X124789505Y-45697303D01*
X124734357Y-45530879D01*
X124642319Y-45381660D01*
X124518339Y-45257680D01*
X124369120Y-45165642D01*
X124202696Y-45110494D01*
X124202687Y-45110492D01*
X124099988Y-45100000D01*
X123300000Y-45100000D01*
X123300000Y-46485523D01*
X123207890Y-46423978D01*
X123089598Y-46374979D01*
X122964019Y-46350000D01*
X122835981Y-46350000D01*
X122710402Y-46374979D01*
X122592110Y-46423978D01*
X122500000Y-46485523D01*
X122500000Y-45100000D01*
X121700011Y-45100000D01*
X121597312Y-45110492D01*
X121597303Y-45110494D01*
X121430879Y-45165642D01*
X121281660Y-45257680D01*
X121157680Y-45381660D01*
X121065642Y-45530879D01*
X121010494Y-45697303D01*
X121010492Y-45697312D01*
X121000000Y-45800011D01*
X117160500Y-45800011D01*
X117160500Y-41875461D01*
X121000000Y-41875461D01*
X121000000Y-42124538D01*
X121032507Y-42371459D01*
X121096973Y-42612048D01*
X121192287Y-42842156D01*
X121302048Y-43032265D01*
X122253367Y-42080946D01*
X122274979Y-42189598D01*
X122323978Y-42307890D01*
X122395112Y-42414351D01*
X122485649Y-42504888D01*
X122592110Y-42576022D01*
X122710402Y-42625021D01*
X122819052Y-42646632D01*
X121867733Y-43597950D01*
X122057849Y-43707714D01*
X122287951Y-43803026D01*
X122528540Y-43867492D01*
X122775461Y-43899999D01*
X122775467Y-43900000D01*
X123024533Y-43900000D01*
X123024538Y-43899999D01*
X123271459Y-43867492D01*
X123512048Y-43803026D01*
X123742150Y-43707714D01*
X123932265Y-43597950D01*
X122980947Y-42646632D01*
X123089598Y-42625021D01*
X123207890Y-42576022D01*
X123314351Y-42504888D01*
X123404888Y-42414351D01*
X123476022Y-42307890D01*
X123525021Y-42189598D01*
X123546632Y-42080947D01*
X124497950Y-43032265D01*
X124607714Y-42842150D01*
X124703026Y-42612048D01*
X124767492Y-42371459D01*
X124799999Y-42124538D01*
X124800000Y-42124533D01*
X124800000Y-41875467D01*
X124799999Y-41875461D01*
X124767492Y-41628540D01*
X124703026Y-41387951D01*
X124607714Y-41157849D01*
X124497950Y-40967733D01*
X123546632Y-41919051D01*
X123525021Y-41810402D01*
X123476022Y-41692110D01*
X123404888Y-41585649D01*
X123314351Y-41495112D01*
X123207890Y-41423978D01*
X123089598Y-41374979D01*
X122980946Y-41353366D01*
X123932265Y-40402048D01*
X123742156Y-40292287D01*
X123512048Y-40196973D01*
X123271459Y-40132507D01*
X123024538Y-40100000D01*
X122775461Y-40100000D01*
X122528540Y-40132507D01*
X122287951Y-40196973D01*
X122057843Y-40292287D01*
X121867733Y-40402048D01*
X122819052Y-41353367D01*
X122710402Y-41374979D01*
X122592110Y-41423978D01*
X122485649Y-41495112D01*
X122395112Y-41585649D01*
X122323978Y-41692110D01*
X122274979Y-41810402D01*
X122253367Y-41919052D01*
X121302048Y-40967733D01*
X121192287Y-41157843D01*
X121096973Y-41387951D01*
X121032507Y-41628540D01*
X121000000Y-41875461D01*
X117160500Y-41875461D01*
X117160500Y-21975189D01*
X117171842Y-21918170D01*
X117196373Y-21858944D01*
X117229737Y-21778397D01*
X117260500Y-21623742D01*
X117260500Y-21466058D01*
X117229737Y-21311403D01*
X117169394Y-21165721D01*
X117081789Y-21034611D01*
X116970289Y-20923111D01*
X116839179Y-20835506D01*
X116839178Y-20835505D01*
X116839176Y-20835504D01*
X116693498Y-20775163D01*
X116693494Y-20775162D01*
X116538842Y-20744400D01*
X116381158Y-20744400D01*
X116226505Y-20775162D01*
X116226501Y-20775163D01*
X116080823Y-20835504D01*
X115949707Y-20923114D01*
X115838214Y-21034607D01*
X115750604Y-21165723D01*
X115690263Y-21311401D01*
X115690262Y-21311405D01*
X115659500Y-21466057D01*
X115659500Y-21623742D01*
X115690262Y-21778394D01*
X115690263Y-21778398D01*
X115748158Y-21918170D01*
X115759500Y-21975189D01*
X115759500Y-119000500D01*
X115739538Y-119075000D01*
X115685000Y-119129538D01*
X115610503Y-119149500D01*
X115562137Y-119149500D01*
X115562111Y-119149502D01*
X115502521Y-119155908D01*
X115502515Y-119155909D01*
X115367670Y-119206202D01*
X115367666Y-119206204D01*
X115252455Y-119292452D01*
X115252452Y-119292455D01*
X115166204Y-119407666D01*
X115166202Y-119407670D01*
X115115908Y-119542517D01*
X115109500Y-119602114D01*
X113433800Y-119602114D01*
X113433800Y-24521389D01*
X113445142Y-24464370D01*
X113469673Y-24405144D01*
X113503037Y-24324597D01*
X113533800Y-24169942D01*
X113533800Y-24012258D01*
X113503037Y-23857603D01*
X113442694Y-23711921D01*
X113355089Y-23580811D01*
X113243589Y-23469311D01*
X113112479Y-23381706D01*
X113112478Y-23381705D01*
X113112476Y-23381704D01*
X112966798Y-23321363D01*
X112966794Y-23321362D01*
X112812142Y-23290600D01*
X112654458Y-23290600D01*
X112499805Y-23321362D01*
X112499801Y-23321363D01*
X112354123Y-23381704D01*
X112223007Y-23469314D01*
X112111514Y-23580807D01*
X112023904Y-23711923D01*
X111963563Y-23857601D01*
X111963562Y-23857605D01*
X111932800Y-24012257D01*
X99510499Y-24012257D01*
X99510499Y-23893713D01*
X99510499Y-23102136D01*
X99510499Y-23102128D01*
X99504091Y-23042517D01*
X99477005Y-22969895D01*
X99453797Y-22907670D01*
X99453795Y-22907666D01*
X99367547Y-22792455D01*
X99367544Y-22792452D01*
X99252333Y-22706204D01*
X99252329Y-22706202D01*
X99117482Y-22655908D01*
X99057876Y-22649500D01*
X97262136Y-22649500D01*
X97262111Y-22649502D01*
X97202521Y-22655908D01*
X97202515Y-22655909D01*
X97067670Y-22706202D01*
X97067666Y-22706204D01*
X96952455Y-22792452D01*
X96952452Y-22792455D01*
X96866204Y-22907666D01*
X96866203Y-22907668D01*
X96830784Y-23002634D01*
X96786045Y-23065461D01*
X96715887Y-23097501D01*
X96639108Y-23090170D01*
X96585819Y-23055923D01*
X96499793Y-22969897D01*
X96499792Y-22969896D01*
X96327816Y-22844949D01*
X96138412Y-22748443D01*
X95936243Y-22682754D01*
X95726287Y-22649500D01*
X95513713Y-22649500D01*
X95338749Y-22677211D01*
X95303756Y-22682754D01*
X95101594Y-22748441D01*
X95101588Y-22748443D01*
X95101582Y-22748445D01*
X95101582Y-22748446D01*
X94912182Y-22844950D01*
X94912181Y-22844950D01*
X94740209Y-22969895D01*
X94740206Y-22969897D01*
X94589897Y-23120206D01*
X94589895Y-23120209D01*
X94470544Y-23284482D01*
X94410604Y-23333020D01*
X94334425Y-23345086D01*
X94262420Y-23317446D01*
X94229456Y-23284482D01*
X94150887Y-23176342D01*
X94110104Y-23120208D01*
X93959792Y-22969896D01*
X93787816Y-22844949D01*
X93598412Y-22748443D01*
X93396243Y-22682754D01*
X93186287Y-22649500D01*
X92973713Y-22649500D01*
X92798749Y-22677211D01*
X92763756Y-22682754D01*
X92561594Y-22748441D01*
X92561588Y-22748443D01*
X92561582Y-22748445D01*
X92561582Y-22748446D01*
X92372182Y-22844950D01*
X92372181Y-22844950D01*
X92200209Y-22969895D01*
X92200206Y-22969897D01*
X92049897Y-23120206D01*
X92049895Y-23120209D01*
X91930544Y-23284482D01*
X91870604Y-23333020D01*
X91794425Y-23345086D01*
X91722420Y-23317446D01*
X91689456Y-23284482D01*
X91610887Y-23176342D01*
X91570104Y-23120208D01*
X91419792Y-22969896D01*
X91247816Y-22844949D01*
X91058412Y-22748443D01*
X90856243Y-22682754D01*
X90646287Y-22649500D01*
X90433713Y-22649500D01*
X90337757Y-22664698D01*
X90289809Y-22672292D01*
X90213103Y-22664229D01*
X90161142Y-22630485D01*
X89693746Y-22163089D01*
X89693743Y-22163086D01*
X89579011Y-22086425D01*
X89579008Y-22086423D01*
X89579002Y-22086420D01*
X89451529Y-22033620D01*
X89451527Y-22033619D01*
X89316197Y-22006700D01*
X89316194Y-22006700D01*
X89316193Y-22006700D01*
X84901607Y-22006700D01*
X84766274Y-22033619D01*
X84766270Y-22033620D01*
X84638797Y-22086420D01*
X84638784Y-22086428D01*
X84524058Y-22163085D01*
X84524053Y-22163089D01*
X83841966Y-22845175D01*
X83775171Y-22883739D01*
X83698043Y-22883739D01*
X83649028Y-22860360D01*
X83627818Y-22844950D01*
X83620164Y-22841050D01*
X83438412Y-22748443D01*
X83236243Y-22682754D01*
X83026287Y-22649500D01*
X82813713Y-22649500D01*
X82742322Y-22660807D01*
X82665617Y-22652744D01*
X82613656Y-22619000D01*
X82081084Y-22086428D01*
X81520043Y-21525386D01*
X81405311Y-21448725D01*
X81405308Y-21448723D01*
X81405302Y-21448720D01*
X81277829Y-21395920D01*
X81277827Y-21395919D01*
X81142497Y-21369000D01*
X81142494Y-21369000D01*
X81142493Y-21369000D01*
X77999000Y-21369000D01*
X77924500Y-21349038D01*
X77869962Y-21294500D01*
X77850000Y-21220000D01*
X77850000Y-5249000D01*
X77869962Y-5174500D01*
X77924500Y-5119962D01*
X77999000Y-5100000D01*
X137251000Y-5100000D01*
X137325500Y-5119962D01*
G37*
%TD.AperFunction*%
%TA.AperFunction,Conductor*%
G36*
X79147455Y-24663312D02*
G01*
X79170604Y-24666979D01*
X79182957Y-24676939D01*
X79197580Y-24682553D01*
X79229480Y-24714453D01*
X79230178Y-24715016D01*
X79230415Y-24715340D01*
X79349896Y-24879792D01*
X79500208Y-25030104D01*
X79672184Y-25155051D01*
X79861588Y-25251557D01*
X80063757Y-25317246D01*
X80273713Y-25350500D01*
X80273718Y-25350500D01*
X80486282Y-25350500D01*
X80486287Y-25350500D01*
X80696243Y-25317246D01*
X80754457Y-25298330D01*
X80831478Y-25294294D01*
X80900200Y-25329309D01*
X80942207Y-25393994D01*
X80949500Y-25440038D01*
X80949500Y-36513097D01*
X80976419Y-36648427D01*
X80976420Y-36648429D01*
X81029220Y-36775902D01*
X81029223Y-36775908D01*
X81029225Y-36775911D01*
X81105886Y-36890643D01*
X81105889Y-36890646D01*
X85459459Y-41244216D01*
X85498023Y-41311011D01*
X85503100Y-41349575D01*
X85503100Y-65945325D01*
X85483138Y-66019825D01*
X85428600Y-66074363D01*
X85354100Y-66094325D01*
X85279600Y-66074363D01*
X85248741Y-66050684D01*
X81818141Y-62620084D01*
X81779577Y-62553289D01*
X81779577Y-62476161D01*
X81818141Y-62409366D01*
X81884936Y-62370802D01*
X81962064Y-62370802D01*
X82014206Y-62396516D01*
X82127146Y-62483179D01*
X82127148Y-62483180D01*
X82342843Y-62607712D01*
X82572951Y-62703026D01*
X82813540Y-62767492D01*
X83060461Y-62799999D01*
X83060467Y-62800000D01*
X83309533Y-62800000D01*
X83309538Y-62799999D01*
X83556459Y-62767492D01*
X83797048Y-62703026D01*
X84027150Y-62607714D01*
X84217265Y-62497951D01*
X83350989Y-61631675D01*
X83403767Y-61621178D01*
X83540258Y-61564641D01*
X83663097Y-61482563D01*
X83767563Y-61378097D01*
X83849641Y-61255258D01*
X83906178Y-61118767D01*
X83916675Y-61065990D01*
X84782950Y-61932265D01*
X84892714Y-61742150D01*
X84988026Y-61512048D01*
X85052492Y-61271459D01*
X85084999Y-61024538D01*
X85085000Y-61024533D01*
X85085000Y-60775467D01*
X85084999Y-60775461D01*
X85052492Y-60528540D01*
X84988026Y-60287951D01*
X84892714Y-60057849D01*
X84782950Y-59867733D01*
X83916675Y-60734008D01*
X83906178Y-60681233D01*
X83849641Y-60544742D01*
X83767563Y-60421903D01*
X83663097Y-60317437D01*
X83540258Y-60235359D01*
X83403767Y-60178822D01*
X83350989Y-60168323D01*
X84217265Y-59302048D01*
X84027156Y-59192287D01*
X83797048Y-59096973D01*
X83556459Y-59032507D01*
X83309538Y-59000000D01*
X83060461Y-59000000D01*
X82813540Y-59032507D01*
X82572951Y-59096973D01*
X82342843Y-59192287D01*
X82152733Y-59302048D01*
X83019009Y-60168324D01*
X82966233Y-60178822D01*
X82829742Y-60235359D01*
X82706903Y-60317437D01*
X82602437Y-60421903D01*
X82520359Y-60544742D01*
X82463822Y-60681233D01*
X82453324Y-60734009D01*
X81587048Y-59867733D01*
X81477287Y-60057843D01*
X81381973Y-60287951D01*
X81317507Y-60528540D01*
X81285000Y-60775461D01*
X81285000Y-61024538D01*
X81317507Y-61271459D01*
X81381973Y-61512048D01*
X81477287Y-61742156D01*
X81601819Y-61957851D01*
X81601820Y-61957853D01*
X81688483Y-62070793D01*
X81717999Y-62142050D01*
X81707932Y-62218518D01*
X81660980Y-62279708D01*
X81589723Y-62309224D01*
X81513255Y-62299157D01*
X81464915Y-62266858D01*
X79233941Y-60035884D01*
X79195377Y-59969089D01*
X79190300Y-59930525D01*
X79190300Y-43775461D01*
X81285000Y-43775461D01*
X81285000Y-44024538D01*
X81317507Y-44271459D01*
X81381973Y-44512048D01*
X81477287Y-44742156D01*
X81587048Y-44932265D01*
X82453323Y-44065989D01*
X82463822Y-44118767D01*
X82520359Y-44255258D01*
X82602437Y-44378097D01*
X82706903Y-44482563D01*
X82829742Y-44564641D01*
X82966233Y-44621178D01*
X83019008Y-44631675D01*
X82152733Y-45497950D01*
X82342849Y-45607714D01*
X82572951Y-45703026D01*
X82813540Y-45767492D01*
X83060461Y-45799999D01*
X83060467Y-45800000D01*
X83309533Y-45800000D01*
X83309538Y-45799999D01*
X83556459Y-45767492D01*
X83797048Y-45703026D01*
X84027150Y-45607714D01*
X84217265Y-45497950D01*
X83350990Y-44631675D01*
X83403767Y-44621178D01*
X83540258Y-44564641D01*
X83663097Y-44482563D01*
X83767563Y-44378097D01*
X83849641Y-44255258D01*
X83906178Y-44118767D01*
X83916675Y-44065990D01*
X84782950Y-44932265D01*
X84892714Y-44742150D01*
X84988026Y-44512048D01*
X85052492Y-44271459D01*
X85084999Y-44024538D01*
X85085000Y-44024533D01*
X85085000Y-43775467D01*
X85084999Y-43775461D01*
X85052492Y-43528540D01*
X84988026Y-43287951D01*
X84892714Y-43057849D01*
X84782950Y-42867733D01*
X83916675Y-43734008D01*
X83906178Y-43681233D01*
X83849641Y-43544742D01*
X83767563Y-43421903D01*
X83663097Y-43317437D01*
X83540258Y-43235359D01*
X83403767Y-43178822D01*
X83350989Y-43168323D01*
X84217265Y-42302048D01*
X84027156Y-42192287D01*
X83797048Y-42096973D01*
X83556459Y-42032507D01*
X83309538Y-42000000D01*
X83060461Y-42000000D01*
X82813540Y-42032507D01*
X82572951Y-42096973D01*
X82342843Y-42192287D01*
X82152733Y-42302048D01*
X83019009Y-43168324D01*
X82966233Y-43178822D01*
X82829742Y-43235359D01*
X82706903Y-43317437D01*
X82602437Y-43421903D01*
X82520359Y-43544742D01*
X82463822Y-43681233D01*
X82453324Y-43734009D01*
X81587048Y-42867733D01*
X81477287Y-43057843D01*
X81381973Y-43287951D01*
X81317507Y-43528540D01*
X81285000Y-43775461D01*
X79190300Y-43775461D01*
X79190300Y-27036189D01*
X79201642Y-26979170D01*
X79226173Y-26919944D01*
X79259537Y-26839397D01*
X79290300Y-26684742D01*
X79290300Y-26527058D01*
X79259537Y-26372403D01*
X79199194Y-26226721D01*
X79111589Y-26095611D01*
X79000089Y-25984111D01*
X78868979Y-25896506D01*
X78868978Y-25896505D01*
X78868976Y-25896504D01*
X78723298Y-25836163D01*
X78723294Y-25836162D01*
X78568642Y-25805400D01*
X78410958Y-25805400D01*
X78256305Y-25836162D01*
X78256301Y-25836163D01*
X78110622Y-25896505D01*
X78110620Y-25896506D01*
X78081779Y-25915777D01*
X78008744Y-25940568D01*
X77933098Y-25925520D01*
X77875110Y-25874666D01*
X77850319Y-25801631D01*
X77850000Y-25791887D01*
X77850000Y-25493008D01*
X77869962Y-25418508D01*
X77924500Y-25363970D01*
X77975688Y-25345843D01*
X78156243Y-25317246D01*
X78358412Y-25251557D01*
X78547816Y-25155051D01*
X78719792Y-25030104D01*
X78870104Y-24879792D01*
X78989456Y-24715517D01*
X79007670Y-24700767D01*
X79022420Y-24682553D01*
X79037142Y-24676901D01*
X79049396Y-24666979D01*
X79072544Y-24663312D01*
X79094426Y-24654913D01*
X79110000Y-24657379D01*
X79125574Y-24654913D01*
X79147455Y-24663312D01*
G37*
%TD.AperFunction*%
%TD*%
M02*
