%TF.GenerationSoftware,KiCad,Pcbnew,10.0.0*%
%TF.CreationDate,2026-03-30T18:49:50-04:00*%
%TF.ProjectId,geodude-carrier,67656f64-7564-4652-9d63-617272696572,rev?*%
%TF.SameCoordinates,Original*%
%TF.FileFunction,Copper,L2,Bot*%
%TF.FilePolarity,Positive*%
%FSLAX46Y46*%
G04 Gerber Fmt 4.6, Leading zero omitted, Abs format (unit mm)*
G04 Created by KiCad (PCBNEW 10.0.0) date 2026-03-30 18:49:50*
%MOMM*%
%LPD*%
G01*
G04 APERTURE LIST*
G04 Aperture macros list*
%AMRoundRect*
0 Rectangle with rounded corners*
0 $1 Rounding radius*
0 $2 $3 $4 $5 $6 $7 $8 $9 X,Y pos of 4 corners*
0 Add a 4 corners polygon primitive as box body*
4,1,4,$2,$3,$4,$5,$6,$7,$8,$9,$2,$3,0*
0 Add four circle primitives for the rounded corners*
1,1,$1+$1,$2,$3*
1,1,$1+$1,$4,$5*
1,1,$1+$1,$6,$7*
1,1,$1+$1,$8,$9*
0 Add four rect primitives between the rounded corners*
20,1,$1+$1,$2,$3,$4,$5,0*
20,1,$1+$1,$4,$5,$6,$7,0*
20,1,$1+$1,$6,$7,$8,$9,0*
20,1,$1+$1,$8,$9,$2,$3,0*%
G04 Aperture macros list end*
%TA.AperFunction,ComponentPad*%
%ADD10C,2.800000*%
%TD*%
%TA.AperFunction,ComponentPad*%
%ADD11R,1.700000X1.700000*%
%TD*%
%TA.AperFunction,ComponentPad*%
%ADD12C,1.700000*%
%TD*%
%TA.AperFunction,ComponentPad*%
%ADD13RoundRect,0.250001X1.149999X-1.149999X1.149999X1.149999X-1.149999X1.149999X-1.149999X-1.149999X0*%
%TD*%
%TA.AperFunction,ViaPad*%
%ADD14C,0.600000*%
%TD*%
%TA.AperFunction,Conductor*%
%ADD15C,3.000000*%
%TD*%
%TA.AperFunction,Conductor*%
%ADD16C,2.000000*%
%TD*%
%TA.AperFunction,Conductor*%
%ADD17C,1.699800*%
%TD*%
%TA.AperFunction,Conductor*%
%ADD18C,0.400000*%
%TD*%
%TA.AperFunction,Conductor*%
%ADD19C,0.600000*%
%TD*%
%TA.AperFunction,Conductor*%
%ADD20C,1.500000*%
%TD*%
%TA.AperFunction,Conductor*%
%ADD21C,1.000000*%
%TD*%
G04 APERTURE END LIST*
D10*
%TO.P,F2,1*%
%TO.N,+12V*%
X83185000Y-60900000D03*
%TO.P,F2,2*%
%TO.N,SV2_PWR*%
X105385000Y-60900000D03*
%TD*%
D11*
%TO.P,SV4,1*%
%TO.N,PWM_CH3*%
X91220000Y-124300000D03*
D12*
%TO.P,SV4,2*%
%TO.N,SV4_PWR*%
X93760000Y-124300000D03*
%TO.P,SV4,3*%
%TO.N,GND*%
X96300000Y-124300000D03*
%TD*%
D11*
%TO.P,J_FAN,1*%
%TO.N,GND*%
X116460000Y-120500000D03*
D12*
%TO.P,J_FAN,2*%
%TO.N,N/C*%
X116460000Y-117960000D03*
%TO.P,J_FAN,3*%
%TO.N,+12V*%
X119000000Y-120500000D03*
%TO.P,J_FAN,4*%
%TO.N,N/C*%
X119000000Y-117960000D03*
%TO.P,J_FAN,5*%
%TO.N,TACH*%
X121540000Y-120500000D03*
%TO.P,J_FAN,6*%
X121540000Y-117960000D03*
%TO.P,J_FAN,7*%
%TO.N,PWM_CH12*%
X124080000Y-120500000D03*
%TO.P,J_FAN,8*%
X124080000Y-117960000D03*
%TD*%
D10*
%TO.P,F6,1*%
%TO.N,+12V*%
X46685000Y-43900000D03*
%TO.P,F6,2*%
%TO.N,SV6_PWR*%
X68885000Y-43900000D03*
%TD*%
D11*
%TO.P,SV2,1*%
%TO.N,PWM_CH1*%
X63220000Y-124300000D03*
D12*
%TO.P,SV2,2*%
%TO.N,SV2_PWR*%
X65760000Y-124300000D03*
%TO.P,SV2,3*%
%TO.N,GND*%
X68300000Y-124300000D03*
%TD*%
D13*
%TO.P,J4,1*%
%TO.N,GND*%
X122900000Y-107000000D03*
D10*
%TO.P,J4,2*%
X122900000Y-102000000D03*
%TD*%
D11*
%TO.P,SV6,1*%
%TO.N,PWM_CH5*%
X48960000Y-132500000D03*
D12*
%TO.P,SV6,2*%
%TO.N,SV6_PWR*%
X51500000Y-132500000D03*
%TO.P,SV6,3*%
%TO.N,GND*%
X54040000Y-132500000D03*
%TD*%
D11*
%TO.P,J41,1*%
%TO.N,SDA*%
X37000000Y-68100000D03*
D12*
%TO.P,J41,2*%
X37000000Y-70640000D03*
%TO.P,J41,3*%
X37000000Y-73180000D03*
%TO.P,J41,4*%
X37000000Y-75720000D03*
%TD*%
D13*
%TO.P,J2,1*%
%TO.N,+12V*%
X122900000Y-59000000D03*
D10*
%TO.P,J2,2*%
X122900000Y-54000000D03*
%TD*%
D13*
%TO.P,J34,1*%
%TO.N,+3V3*%
X25000000Y-81400000D03*
D10*
%TO.P,J34,2*%
X25000000Y-76400000D03*
%TD*%
D13*
%TO.P,J32,1*%
%TO.N,SDA*%
X25000000Y-69400000D03*
D10*
%TO.P,J32,2*%
X25000000Y-64400000D03*
%TD*%
D11*
%TO.P,SV1,1*%
%TO.N,PWM_CH0*%
X49220000Y-124300000D03*
D12*
%TO.P,SV1,2*%
%TO.N,SV1_PWR*%
X51760000Y-124300000D03*
%TO.P,SV1,3*%
%TO.N,GND*%
X54300000Y-124300000D03*
%TD*%
D11*
%TO.P,J_ESC,1*%
%TO.N,PWM_CH11*%
X116460000Y-132500000D03*
D12*
%TO.P,J_ESC,2*%
%TO.N,N/C*%
X119000000Y-132500000D03*
%TO.P,J_ESC,3*%
%TO.N,GND*%
X121540000Y-132500000D03*
%TD*%
D11*
%TO.P,SV3,1*%
%TO.N,PWM_CH2*%
X77220000Y-124300000D03*
D12*
%TO.P,SV3,2*%
%TO.N,SV3_PWR*%
X79760000Y-124300000D03*
%TO.P,SV3,3*%
%TO.N,GND*%
X82300000Y-124300000D03*
%TD*%
D13*
%TO.P,J37,1*%
%TO.N,+5V_LOGIC*%
X25000000Y-93400000D03*
D10*
%TO.P,J37,2*%
X25000000Y-88400000D03*
%TD*%
D11*
%TO.P,J44,1*%
%TO.N,GND_LOGIC*%
X37000000Y-104100000D03*
D12*
%TO.P,J44,2*%
X37000000Y-106640000D03*
%TO.P,J44,3*%
X37000000Y-109180000D03*
%TO.P,J44,4*%
X37000000Y-111720000D03*
%TD*%
D11*
%TO.P,SV10,1*%
%TO.N,PWM_CH9*%
X104960000Y-132500000D03*
D12*
%TO.P,SV10,2*%
%TO.N,SV10_PWR*%
X107500000Y-132500000D03*
%TO.P,SV10,3*%
%TO.N,GND*%
X110040000Y-132500000D03*
%TD*%
D11*
%TO.P,SV7,1*%
%TO.N,PWM_CH6*%
X62960000Y-132500000D03*
D12*
%TO.P,SV7,2*%
%TO.N,SV7_PWR*%
X65500000Y-132500000D03*
%TO.P,SV7,3*%
%TO.N,GND*%
X68040000Y-132500000D03*
%TD*%
D10*
%TO.P,F7,1*%
%TO.N,+12V*%
X46685000Y-60900000D03*
%TO.P,F7,2*%
%TO.N,SV7_PWR*%
X68885000Y-60900000D03*
%TD*%
D13*
%TO.P,J1,1*%
%TO.N,+12V*%
X122900000Y-47000000D03*
D10*
%TO.P,J1,2*%
X122900000Y-42000000D03*
%TD*%
D11*
%TO.P,SV9,1*%
%TO.N,PWM_CH8*%
X90960000Y-132500000D03*
D12*
%TO.P,SV9,2*%
%TO.N,SV9_PWR*%
X93500000Y-132500000D03*
%TO.P,SV9,3*%
%TO.N,GND*%
X96040000Y-132500000D03*
%TD*%
D11*
%TO.P,SV5,1*%
%TO.N,PWM_CH4*%
X105220000Y-124300000D03*
D12*
%TO.P,SV5,2*%
%TO.N,SV5_PWR*%
X107760000Y-124300000D03*
%TO.P,SV5,3*%
%TO.N,GND*%
X110300000Y-124300000D03*
%TD*%
D11*
%TO.P,J43,1*%
%TO.N,+5V_LOGIC*%
X37000000Y-92100000D03*
D12*
%TO.P,J43,2*%
X37000000Y-94640000D03*
%TO.P,J43,3*%
X37000000Y-97180000D03*
%TO.P,J43,4*%
X37000000Y-99720000D03*
%TD*%
D13*
%TO.P,J39,1*%
%TO.N,GND_LOGIC*%
X25000000Y-105400000D03*
D10*
%TO.P,J39,2*%
X25000000Y-100400000D03*
%TD*%
D11*
%TO.P,SV8,1*%
%TO.N,PWM_CH7*%
X76960000Y-132500000D03*
D12*
%TO.P,SV8,2*%
%TO.N,SV8_PWR*%
X79500000Y-132500000D03*
%TO.P,SV8,3*%
%TO.N,GND*%
X82040000Y-132500000D03*
%TD*%
D11*
%TO.P,J40,1*%
%TO.N,SCL*%
X37000000Y-56100000D03*
D12*
%TO.P,J40,2*%
X37000000Y-58640000D03*
%TO.P,J40,3*%
X37000000Y-61180000D03*
%TO.P,J40,4*%
X37000000Y-63720000D03*
%TD*%
D13*
%TO.P,J6,1*%
%TO.N,+5V_SERVO*%
X122900000Y-83000000D03*
D10*
%TO.P,J6,2*%
X122900000Y-78000000D03*
%TD*%
%TO.P,F4,1*%
%TO.N,+5V_SERVO*%
X83185000Y-94900000D03*
%TO.P,F4,2*%
%TO.N,SV4_PWR*%
X105385000Y-94900000D03*
%TD*%
%TO.P,F3,1*%
%TO.N,+7V4*%
X83185000Y-77900000D03*
%TO.P,F3,2*%
%TO.N,SV3_PWR*%
X105385000Y-77900000D03*
%TD*%
D13*
%TO.P,J5,1*%
%TO.N,+7V4*%
X122900000Y-71000000D03*
D10*
%TO.P,J5,2*%
X122900000Y-66000000D03*
%TD*%
D13*
%TO.P,J31,1*%
%TO.N,SCL*%
X25000000Y-57400000D03*
D10*
%TO.P,J31,2*%
X25000000Y-52400000D03*
%TD*%
%TO.P,F5,1*%
%TO.N,+5V_SERVO*%
X83185000Y-111900000D03*
%TO.P,F5,2*%
%TO.N,SV5_PWR*%
X105385000Y-111900000D03*
%TD*%
%TO.P,F9,1*%
%TO.N,+5V_SERVO*%
X46685000Y-94900000D03*
%TO.P,F9,2*%
%TO.N,SV9_PWR*%
X68885000Y-94900000D03*
%TD*%
D11*
%TO.P,J42,1*%
%TO.N,+3V3*%
X37000000Y-80100000D03*
D12*
%TO.P,J42,2*%
X37000000Y-82640000D03*
%TO.P,J42,3*%
X37000000Y-85180000D03*
%TO.P,J42,4*%
X37000000Y-87720000D03*
%TD*%
D13*
%TO.P,J3,1*%
%TO.N,GND*%
X122900000Y-95000000D03*
D10*
%TO.P,J3,2*%
X122900000Y-90000000D03*
%TD*%
%TO.P,F8,1*%
%TO.N,+7V4*%
X46685000Y-77900000D03*
%TO.P,F8,2*%
%TO.N,SV8_PWR*%
X68885000Y-77900000D03*
%TD*%
D11*
%TO.P,J_PCA,1*%
%TO.N,PWM_CH0*%
X98160000Y-24000000D03*
D12*
%TO.P,J_PCA,2*%
%TO.N,PWM_CH1*%
X95620000Y-24000000D03*
%TO.P,J_PCA,3*%
%TO.N,PWM_CH2*%
X93080000Y-24000000D03*
%TO.P,J_PCA,4*%
%TO.N,PWM_CH3*%
X90540000Y-24000000D03*
%TO.P,J_PCA,5*%
%TO.N,N/C*%
X88000000Y-24000000D03*
%TO.P,J_PCA,6*%
%TO.N,PWM_CH4*%
X85460000Y-24000000D03*
%TO.P,J_PCA,7*%
%TO.N,PWM_CH5*%
X82920000Y-24000000D03*
%TO.P,J_PCA,8*%
%TO.N,PWM_CH6*%
X80380000Y-24000000D03*
%TO.P,J_PCA,9*%
%TO.N,PWM_CH7*%
X77840000Y-24000000D03*
%TO.P,J_PCA,10*%
%TO.N,N/C*%
X75300000Y-24000000D03*
%TO.P,J_PCA,11*%
%TO.N,PWM_CH8*%
X72760000Y-24000000D03*
%TO.P,J_PCA,12*%
%TO.N,PWM_CH9*%
X70220000Y-24000000D03*
%TO.P,J_PCA,13*%
%TO.N,PWM_CH10*%
X67680000Y-24000000D03*
%TO.P,J_PCA,14*%
%TO.N,PWM_CH11*%
X65140000Y-24000000D03*
%TO.P,J_PCA,15*%
%TO.N,N/C*%
X62600000Y-24000000D03*
%TO.P,J_PCA,16*%
%TO.N,PWM_CH12*%
X60060000Y-24000000D03*
%TO.P,J_PCA,17*%
%TO.N,PWM_CH13*%
X57520000Y-24000000D03*
%TO.P,J_PCA,18*%
%TO.N,PWM_CH14*%
X54980000Y-24000000D03*
%TO.P,J_PCA,19*%
%TO.N,PWM_CH15*%
X52440000Y-24000000D03*
%TD*%
D10*
%TO.P,F1,1*%
%TO.N,+12V*%
X83185000Y-43900000D03*
%TO.P,F1,2*%
%TO.N,SV1_PWR*%
X105385000Y-43900000D03*
%TD*%
%TO.P,F10,1*%
%TO.N,+5V_SERVO*%
X46685000Y-111900000D03*
%TO.P,F10,2*%
%TO.N,SV10_PWR*%
X68885000Y-111900000D03*
%TD*%
D14*
%TO.N,SV6_PWR*%
X50169700Y-62259000D03*
%TO.N,PWM_CH1*%
X66006900Y-30807700D03*
%TO.N,PWM_CH0*%
X62103200Y-33785900D03*
%TO.N,PWM_CH11*%
X71319600Y-112454200D03*
X68815900Y-27675900D03*
%TO.N,PWM_CH2*%
X89456800Y-25415800D03*
%TO.N,PWM_CH9*%
X92522100Y-26715000D03*
%TO.N,PWM_CH6*%
X72251300Y-25542700D03*
%TO.N,SV7_PWR*%
X59448100Y-60900000D03*
%TO.N,PWM_CH8*%
X73913500Y-124461000D03*
%TO.N,+5V_SERVO*%
X72012000Y-78994300D03*
%TO.N,+7V4*%
X80392500Y-70258100D03*
%TD*%
%TO.N,+12V*%
D15*
X121633600Y-40733600D02*
X86351400Y-40733600D01*
X49786700Y-40798300D02*
X80083300Y-40798300D01*
X46685000Y-43900000D02*
X49786700Y-40798300D01*
X86351400Y-40733600D02*
X83185000Y-43900000D01*
X80083300Y-40798300D02*
X83185000Y-43900000D01*
X122900000Y-42000000D02*
X121633600Y-40733600D01*
%TO.N,SV2_PWR*%
D16*
X61086100Y-125596100D02*
X61086100Y-96238600D01*
X65760000Y-124300000D02*
X65760000Y-125170800D01*
X96424700Y-60900000D02*
X105385000Y-60900000D01*
X61086100Y-96238600D02*
X96424700Y-60900000D01*
X61843800Y-126353800D02*
X61086100Y-125596100D01*
X65760000Y-125170800D02*
X64577000Y-126353800D01*
X64577000Y-126353800D02*
X61843800Y-126353800D01*
%TO.N,GND*%
D17*
X114558400Y-119664800D02*
X114558400Y-120500000D01*
D15*
X94557300Y-135051700D02*
X84603600Y-135051700D01*
D17*
X54051900Y-132500000D02*
X54040000Y-132500000D01*
D15*
X68834500Y-124834500D02*
X72939200Y-128939200D01*
X66608500Y-135051700D02*
X68107500Y-133552700D01*
X110834500Y-123765500D02*
X114871100Y-123765500D01*
X115927000Y-121033000D02*
X114871100Y-122088900D01*
X54051900Y-132500000D02*
X56603600Y-135051700D01*
X72939200Y-128939200D02*
X80544800Y-128939200D01*
D17*
X82051900Y-132500000D02*
X82040000Y-132500000D01*
D15*
X84603600Y-135051700D02*
X82051900Y-132500000D01*
D17*
X82040000Y-130434400D02*
X82040000Y-132500000D01*
X113203400Y-118309800D02*
X114558400Y-119664800D01*
D15*
X110040000Y-134565600D02*
X109500900Y-135104700D01*
X113203400Y-116696600D02*
X113203400Y-118309800D01*
X122900000Y-107000000D02*
X113203400Y-116696600D01*
X114871100Y-122088900D02*
X114871100Y-123765500D01*
X114871100Y-123765500D02*
X121550200Y-130444600D01*
X98644700Y-135104700D02*
X96574500Y-133034500D01*
D17*
X96574500Y-133034500D02*
X96040000Y-132500000D01*
X115927000Y-121033000D02*
X116460000Y-120500000D01*
D15*
X56603600Y-135051700D02*
X66608500Y-135051700D01*
X96574500Y-133034500D02*
X94557300Y-135051700D01*
D17*
X110834500Y-123765500D02*
X110300000Y-124300000D01*
X68834500Y-124834500D02*
X68300000Y-124300000D01*
X110040000Y-134565600D02*
X110040000Y-132500000D01*
D15*
X109500900Y-135104700D02*
X98644700Y-135104700D01*
X80544800Y-128939200D02*
X82040000Y-130434400D01*
D17*
X68107500Y-132500000D02*
X68040000Y-132500000D01*
X121550200Y-132489800D02*
X121540000Y-132500000D01*
X121550200Y-130444600D02*
X121550200Y-132489800D01*
D15*
X68107500Y-133552700D02*
X68107500Y-132500000D01*
D17*
X116460000Y-120500000D02*
X114558400Y-120500000D01*
%TO.N,SV6_PWR*%
D16*
X68885000Y-43900000D02*
X50526000Y-62259000D01*
X50526000Y-62259000D02*
X50169700Y-62259000D01*
%TO.N,PWM_CH1*%
D18*
X89484200Y-30807700D02*
X66006900Y-30807700D01*
X95620000Y-24671900D02*
X89484200Y-30807700D01*
X95620000Y-24000000D02*
X95620000Y-24671900D01*
%TO.N,SDA*%
X26240000Y-70640000D02*
X25000000Y-69400000D01*
X37000000Y-70640000D02*
X26240000Y-70640000D01*
%TO.N,+3V3*%
D19*
X26300000Y-80100000D02*
X25000000Y-81400000D01*
X37000000Y-80100000D02*
X26300000Y-80100000D01*
%TO.N,PWM_CH0*%
D18*
X87670000Y-33785900D02*
X62103200Y-33785900D01*
X96908300Y-24000000D02*
X96908300Y-24547600D01*
X96908300Y-24547600D02*
X87670000Y-33785900D01*
X98160000Y-24000000D02*
X96908300Y-24000000D01*
%TO.N,SV1_PWR*%
D16*
X105385000Y-48435900D02*
X105385000Y-43900000D01*
X51760000Y-124300000D02*
X51760000Y-102060900D01*
X51760000Y-102060900D02*
X105385000Y-48435900D01*
%TO.N,PWM_CH11*%
D18*
X113956600Y-131248300D02*
X115208300Y-132500000D01*
X71319600Y-112454200D02*
X72572300Y-113706900D01*
X65140000Y-24000000D02*
X68815900Y-27675900D01*
X72572300Y-113706900D02*
X90926300Y-113706900D01*
X116460000Y-132500000D02*
X115208300Y-132500000D01*
X90926300Y-113706900D02*
X108467700Y-131248300D01*
X108467700Y-131248300D02*
X113956600Y-131248300D01*
%TO.N,PWM_CH2*%
X91664200Y-25415800D02*
X89456800Y-25415800D01*
X93080000Y-24000000D02*
X91664200Y-25415800D01*
%TO.N,SV3_PWR*%
D20*
X66529900Y-112942000D02*
X66529900Y-108206200D01*
X79760000Y-124300000D02*
X79760000Y-123792600D01*
X79760000Y-123792600D02*
X75828900Y-119861500D01*
X75828900Y-119861500D02*
X73449400Y-119861500D01*
X96836100Y-77900000D02*
X105385000Y-77900000D01*
X73449400Y-119861500D02*
X66529900Y-112942000D01*
X66529900Y-108206200D02*
X96836100Y-77900000D01*
%TO.N,+5V_LOGIC*%
D19*
X26300000Y-92100000D02*
X25000000Y-93400000D01*
X37000000Y-92100000D02*
X26300000Y-92100000D01*
%TO.N,GND_LOGIC*%
X37000000Y-106640000D02*
X26240000Y-106640000D01*
X26240000Y-106640000D02*
X25000000Y-105400000D01*
%TO.N,PWM_CH9*%
D18*
X72431400Y-26715000D02*
X92522100Y-26715000D01*
X70220000Y-24000000D02*
X70220000Y-24503600D01*
X70220000Y-24503600D02*
X72431400Y-26715000D01*
%TO.N,SV10_PWR*%
D21*
X107500000Y-132500000D02*
X107500000Y-132329300D01*
X73396800Y-116411800D02*
X68885000Y-111900000D01*
X91582500Y-116411800D02*
X73396800Y-116411800D01*
X107500000Y-132329300D02*
X91582500Y-116411800D01*
%TO.N,PWM_CH6*%
D18*
X72251300Y-25542700D02*
X78837300Y-25542700D01*
X78837300Y-25542700D02*
X80380000Y-24000000D01*
%TO.N,SV7_PWR*%
D16*
X68885000Y-60900000D02*
X59448100Y-60900000D01*
%TO.N,PWM_CH8*%
D18*
X90960000Y-132500000D02*
X89708300Y-132500000D01*
X75265200Y-125812700D02*
X83021000Y-125812700D01*
X73913500Y-124461000D02*
X75265200Y-125812700D01*
X83021000Y-125812700D02*
X89708300Y-132500000D01*
%TO.N,SCL*%
X26240000Y-58640000D02*
X25000000Y-57400000D01*
X37000000Y-58640000D02*
X26240000Y-58640000D01*
%TO.N,+5V_SERVO*%
D20*
X95085000Y-83000000D02*
X122900000Y-83000000D01*
X83185000Y-94900000D02*
X95085000Y-83000000D01*
X83185000Y-111900000D02*
X83185000Y-94900000D01*
X46685000Y-94900000D02*
X56106300Y-94900000D01*
X56106300Y-94900000D02*
X72012000Y-78994300D01*
%TO.N,+7V4*%
D16*
X90085000Y-71000000D02*
X83185000Y-77900000D01*
X54326900Y-70258100D02*
X80392500Y-70258100D01*
X122900000Y-71000000D02*
X90085000Y-71000000D01*
X46685000Y-77900000D02*
X54326900Y-70258100D01*
%TD*%
%TA.AperFunction,Conductor*%
%TO.N,GND*%
G36*
X134279472Y-5108710D02*
G01*
X134691398Y-5256098D01*
X134704886Y-5261685D01*
X135108545Y-5452603D01*
X135121425Y-5459487D01*
X135366305Y-5606261D01*
X135504419Y-5689043D01*
X135516577Y-5697167D01*
X135875222Y-5963156D01*
X135886512Y-5972421D01*
X136217377Y-6272300D01*
X136227706Y-6282630D01*
X136527565Y-6613473D01*
X136536840Y-6624775D01*
X136559256Y-6654999D01*
X136802824Y-6983412D01*
X136810948Y-6995570D01*
X137040506Y-7378565D01*
X137047398Y-7391460D01*
X137238307Y-7795100D01*
X137243903Y-7808610D01*
X137391290Y-8220531D01*
X137400000Y-8270727D01*
X137400000Y-148829270D01*
X137391290Y-148879466D01*
X137243903Y-149291387D01*
X137238307Y-149304897D01*
X137047398Y-149708537D01*
X137040506Y-149721432D01*
X136810948Y-150104427D01*
X136802824Y-150116585D01*
X136536841Y-150475221D01*
X136527565Y-150486524D01*
X136227706Y-150817367D01*
X136217367Y-150827707D01*
X135886526Y-151127565D01*
X135875222Y-151136841D01*
X135516577Y-151402830D01*
X135504419Y-151410954D01*
X135121433Y-151640506D01*
X135108538Y-151647398D01*
X134704897Y-151838307D01*
X134691387Y-151843903D01*
X134279467Y-151991290D01*
X134229271Y-152000000D01*
X21470727Y-152000000D01*
X21420531Y-151991290D01*
X21008610Y-151843903D01*
X20995100Y-151838307D01*
X20591460Y-151647398D01*
X20578565Y-151640506D01*
X20195570Y-151410948D01*
X20183412Y-151402824D01*
X19824776Y-151136841D01*
X19813473Y-151127565D01*
X19482630Y-150827706D01*
X19472300Y-150817377D01*
X19172421Y-150486512D01*
X19163156Y-150475222D01*
X19163155Y-150475221D01*
X18897167Y-150116577D01*
X18889043Y-150104419D01*
X18659491Y-149721433D01*
X18659490Y-149721432D01*
X18659487Y-149721425D01*
X18652599Y-149708538D01*
X18584318Y-149564170D01*
X18461685Y-149304886D01*
X18456098Y-149291398D01*
X18308710Y-148879472D01*
X18300000Y-148829276D01*
X18300000Y-140378706D01*
X47449500Y-140378706D01*
X47449500Y-140621293D01*
X47481160Y-140861781D01*
X47481161Y-140861787D01*
X47481162Y-140861789D01*
X47543946Y-141096100D01*
X47636776Y-141320212D01*
X47758064Y-141530289D01*
X47905735Y-141722738D01*
X48077262Y-141894265D01*
X48269711Y-142041936D01*
X48479788Y-142163224D01*
X48703900Y-142256054D01*
X48938211Y-142318838D01*
X48938217Y-142318838D01*
X48938218Y-142318839D01*
X49003600Y-142327446D01*
X49178712Y-142350500D01*
X49421288Y-142350500D01*
X49661789Y-142318838D01*
X49896100Y-142256054D01*
X50120212Y-142163224D01*
X50330289Y-142041936D01*
X50522738Y-141894265D01*
X50694265Y-141722738D01*
X50841936Y-141530289D01*
X50963224Y-141320212D01*
X51056054Y-141096100D01*
X51118838Y-140861789D01*
X51150500Y-140621288D01*
X51150500Y-140378712D01*
X51150499Y-140378706D01*
X97449500Y-140378706D01*
X97449500Y-140621293D01*
X97481160Y-140861781D01*
X97481161Y-140861787D01*
X97481162Y-140861789D01*
X97543946Y-141096100D01*
X97636776Y-141320212D01*
X97758064Y-141530289D01*
X97905735Y-141722738D01*
X98077262Y-141894265D01*
X98269711Y-142041936D01*
X98479788Y-142163224D01*
X98703900Y-142256054D01*
X98938211Y-142318838D01*
X98938217Y-142318838D01*
X98938218Y-142318839D01*
X99003600Y-142327446D01*
X99178712Y-142350500D01*
X99421288Y-142350500D01*
X99661789Y-142318838D01*
X99896100Y-142256054D01*
X100120212Y-142163224D01*
X100330289Y-142041936D01*
X100522738Y-141894265D01*
X100694265Y-141722738D01*
X100841936Y-141530289D01*
X100963224Y-141320212D01*
X101056054Y-141096100D01*
X101118838Y-140861789D01*
X101150500Y-140621288D01*
X101150500Y-140378712D01*
X101118838Y-140138211D01*
X101056054Y-139903900D01*
X100963224Y-139679788D01*
X100841936Y-139469711D01*
X100694265Y-139277262D01*
X100522738Y-139105735D01*
X100330289Y-138958064D01*
X100260263Y-138917634D01*
X100120216Y-138836778D01*
X100120214Y-138836777D01*
X100120212Y-138836776D01*
X99988932Y-138782398D01*
X99896103Y-138743947D01*
X99896101Y-138743946D01*
X99896100Y-138743946D01*
X99661789Y-138681162D01*
X99661787Y-138681161D01*
X99661781Y-138681160D01*
X99421293Y-138649500D01*
X99421288Y-138649500D01*
X99178712Y-138649500D01*
X99178706Y-138649500D01*
X98938218Y-138681160D01*
X98703896Y-138743947D01*
X98479783Y-138836778D01*
X98269712Y-138958063D01*
X98269711Y-138958064D01*
X98077262Y-139105735D01*
X98077260Y-139105736D01*
X98077256Y-139105740D01*
X97905740Y-139277256D01*
X97758063Y-139469712D01*
X97636778Y-139679783D01*
X97543947Y-139903896D01*
X97481160Y-140138218D01*
X97449500Y-140378706D01*
X51150499Y-140378706D01*
X51118838Y-140138211D01*
X51056054Y-139903900D01*
X50963224Y-139679788D01*
X50841936Y-139469711D01*
X50694265Y-139277262D01*
X50522738Y-139105735D01*
X50330289Y-138958064D01*
X50260263Y-138917634D01*
X50120216Y-138836778D01*
X50120214Y-138836777D01*
X50120212Y-138836776D01*
X49988932Y-138782398D01*
X49896103Y-138743947D01*
X49896101Y-138743946D01*
X49896100Y-138743946D01*
X49661789Y-138681162D01*
X49661787Y-138681161D01*
X49661781Y-138681160D01*
X49421293Y-138649500D01*
X49421288Y-138649500D01*
X49178712Y-138649500D01*
X49178706Y-138649500D01*
X48938218Y-138681160D01*
X48703896Y-138743947D01*
X48479783Y-138836778D01*
X48269712Y-138958063D01*
X48269711Y-138958064D01*
X48077262Y-139105735D01*
X48077260Y-139105736D01*
X48077256Y-139105740D01*
X47905740Y-139277256D01*
X47758063Y-139469712D01*
X47636778Y-139679783D01*
X47543947Y-139903896D01*
X47481160Y-140138218D01*
X47449500Y-140378706D01*
X18300000Y-140378706D01*
X18300000Y-131602114D01*
X47609500Y-131602114D01*
X47609500Y-133397863D01*
X47609502Y-133397888D01*
X47615908Y-133457478D01*
X47615909Y-133457484D01*
X47666202Y-133592329D01*
X47666204Y-133592333D01*
X47752452Y-133707544D01*
X47752455Y-133707547D01*
X47867666Y-133793795D01*
X47867670Y-133793797D01*
X48002517Y-133844091D01*
X48062114Y-133850499D01*
X48062118Y-133850499D01*
X48062127Y-133850500D01*
X49857872Y-133850499D01*
X49917483Y-133844091D01*
X50013447Y-133808298D01*
X50052329Y-133793797D01*
X50052333Y-133793795D01*
X50109938Y-133750671D01*
X50167546Y-133707546D01*
X50253796Y-133592331D01*
X50253797Y-133592329D01*
X50253798Y-133592327D01*
X50289215Y-133497367D01*
X50333953Y-133434540D01*
X50404110Y-133402498D01*
X50480889Y-133409829D01*
X50534180Y-133444076D01*
X50620208Y-133530104D01*
X50792184Y-133655051D01*
X50981588Y-133751557D01*
X51183757Y-133817246D01*
X51393713Y-133850500D01*
X51393718Y-133850500D01*
X51606282Y-133850500D01*
X51606287Y-133850500D01*
X51816243Y-133817246D01*
X52018412Y-133751557D01*
X52207816Y-133655051D01*
X52379792Y-133530104D01*
X52530104Y-133379792D01*
X52649767Y-133215089D01*
X52709704Y-133166552D01*
X52785883Y-133154486D01*
X52857888Y-133182126D01*
X52890852Y-133215089D01*
X52924729Y-133261716D01*
X53557037Y-132629408D01*
X53574075Y-132692993D01*
X53639901Y-132807007D01*
X53732993Y-132900099D01*
X53847007Y-132965925D01*
X53910590Y-132982962D01*
X53278281Y-133615270D01*
X53332444Y-133654621D01*
X53332444Y-133654622D01*
X53521779Y-133751093D01*
X53723871Y-133816757D01*
X53933758Y-133850000D01*
X54146242Y-133850000D01*
X54356128Y-133816757D01*
X54558220Y-133751093D01*
X54747555Y-133654622D01*
X54747557Y-133654620D01*
X54801716Y-133615270D01*
X54801716Y-133615269D01*
X54169409Y-132982962D01*
X54232993Y-132965925D01*
X54347007Y-132900099D01*
X54440099Y-132807007D01*
X54505925Y-132692993D01*
X54522962Y-132629409D01*
X55155269Y-133261716D01*
X55155270Y-133261716D01*
X55194620Y-133207557D01*
X55194622Y-133207555D01*
X55291093Y-133018220D01*
X55356757Y-132816128D01*
X55390000Y-132606242D01*
X55390000Y-132393757D01*
X55356757Y-132183871D01*
X55291093Y-131981779D01*
X55194621Y-131792444D01*
X55155270Y-131738282D01*
X54522962Y-132370589D01*
X54505925Y-132307007D01*
X54440099Y-132192993D01*
X54347007Y-132099901D01*
X54232993Y-132034075D01*
X54169407Y-132017037D01*
X54584331Y-131602114D01*
X61609500Y-131602114D01*
X61609500Y-133397863D01*
X61609502Y-133397888D01*
X61615908Y-133457478D01*
X61615909Y-133457484D01*
X61666202Y-133592329D01*
X61666204Y-133592333D01*
X61752452Y-133707544D01*
X61752455Y-133707547D01*
X61867666Y-133793795D01*
X61867670Y-133793797D01*
X62002517Y-133844091D01*
X62062114Y-133850499D01*
X62062118Y-133850499D01*
X62062127Y-133850500D01*
X63857872Y-133850499D01*
X63917483Y-133844091D01*
X64013447Y-133808298D01*
X64052329Y-133793797D01*
X64052333Y-133793795D01*
X64109938Y-133750671D01*
X64167546Y-133707546D01*
X64253796Y-133592331D01*
X64253797Y-133592329D01*
X64253798Y-133592327D01*
X64289215Y-133497367D01*
X64333953Y-133434540D01*
X64404110Y-133402498D01*
X64480889Y-133409829D01*
X64534180Y-133444076D01*
X64620208Y-133530104D01*
X64792184Y-133655051D01*
X64981588Y-133751557D01*
X65183757Y-133817246D01*
X65393713Y-133850500D01*
X65393718Y-133850500D01*
X65606282Y-133850500D01*
X65606287Y-133850500D01*
X65816243Y-133817246D01*
X66018412Y-133751557D01*
X66207816Y-133655051D01*
X66379792Y-133530104D01*
X66530104Y-133379792D01*
X66649767Y-133215089D01*
X66709704Y-133166552D01*
X66785883Y-133154486D01*
X66857888Y-133182126D01*
X66890852Y-133215089D01*
X66924729Y-133261716D01*
X67557037Y-132629408D01*
X67574075Y-132692993D01*
X67639901Y-132807007D01*
X67732993Y-132900099D01*
X67847007Y-132965925D01*
X67910590Y-132982962D01*
X67278282Y-133615270D01*
X67332444Y-133654621D01*
X67332444Y-133654622D01*
X67521779Y-133751093D01*
X67723871Y-133816757D01*
X67933758Y-133850000D01*
X68146242Y-133850000D01*
X68356128Y-133816757D01*
X68558220Y-133751093D01*
X68747555Y-133654622D01*
X68747557Y-133654620D01*
X68801716Y-133615270D01*
X68801716Y-133615269D01*
X68169409Y-132982962D01*
X68232993Y-132965925D01*
X68347007Y-132900099D01*
X68440099Y-132807007D01*
X68505925Y-132692993D01*
X68522962Y-132629409D01*
X69155269Y-133261716D01*
X69155270Y-133261716D01*
X69194620Y-133207557D01*
X69194622Y-133207555D01*
X69291093Y-133018220D01*
X69356757Y-132816128D01*
X69390000Y-132606242D01*
X69390000Y-132393757D01*
X69356757Y-132183871D01*
X69291093Y-131981779D01*
X69194621Y-131792444D01*
X69155270Y-131738282D01*
X68522962Y-132370589D01*
X68505925Y-132307007D01*
X68440099Y-132192993D01*
X68347007Y-132099901D01*
X68232993Y-132034075D01*
X68169407Y-132017037D01*
X68584331Y-131602114D01*
X75609500Y-131602114D01*
X75609500Y-133397863D01*
X75609502Y-133397888D01*
X75615908Y-133457478D01*
X75615909Y-133457484D01*
X75666202Y-133592329D01*
X75666204Y-133592333D01*
X75752452Y-133707544D01*
X75752455Y-133707547D01*
X75867666Y-133793795D01*
X75867670Y-133793797D01*
X76002517Y-133844091D01*
X76062114Y-133850499D01*
X76062118Y-133850499D01*
X76062127Y-133850500D01*
X77857872Y-133850499D01*
X77917483Y-133844091D01*
X78013447Y-133808298D01*
X78052329Y-133793797D01*
X78052333Y-133793795D01*
X78109938Y-133750671D01*
X78167546Y-133707546D01*
X78253796Y-133592331D01*
X78253797Y-133592329D01*
X78253798Y-133592327D01*
X78289215Y-133497367D01*
X78333953Y-133434540D01*
X78404110Y-133402498D01*
X78480889Y-133409829D01*
X78534180Y-133444076D01*
X78620208Y-133530104D01*
X78792184Y-133655051D01*
X78981588Y-133751557D01*
X79183757Y-133817246D01*
X79393713Y-133850500D01*
X79393718Y-133850500D01*
X79606282Y-133850500D01*
X79606287Y-133850500D01*
X79816243Y-133817246D01*
X80018412Y-133751557D01*
X80207816Y-133655051D01*
X80379792Y-133530104D01*
X80530104Y-133379792D01*
X80649767Y-133215089D01*
X80709704Y-133166552D01*
X80785883Y-133154486D01*
X80857888Y-133182126D01*
X80890852Y-133215089D01*
X80924729Y-133261716D01*
X81557037Y-132629408D01*
X81574075Y-132692993D01*
X81639901Y-132807007D01*
X81732993Y-132900099D01*
X81847007Y-132965925D01*
X81910590Y-132982962D01*
X81278282Y-133615270D01*
X81332444Y-133654621D01*
X81332444Y-133654622D01*
X81521779Y-133751093D01*
X81723871Y-133816757D01*
X81933758Y-133850000D01*
X82146242Y-133850000D01*
X82356128Y-133816757D01*
X82558220Y-133751093D01*
X82747555Y-133654622D01*
X82747557Y-133654620D01*
X82801716Y-133615270D01*
X82801716Y-133615269D01*
X82169409Y-132982962D01*
X82232993Y-132965925D01*
X82347007Y-132900099D01*
X82440099Y-132807007D01*
X82505925Y-132692993D01*
X82522962Y-132629409D01*
X83155269Y-133261716D01*
X83155270Y-133261716D01*
X83194620Y-133207557D01*
X83194622Y-133207555D01*
X83291093Y-133018220D01*
X83356757Y-132816128D01*
X83390000Y-132606242D01*
X83390000Y-132393757D01*
X83356757Y-132183871D01*
X83291093Y-131981779D01*
X83194621Y-131792444D01*
X83155270Y-131738282D01*
X82522962Y-132370589D01*
X82505925Y-132307007D01*
X82440099Y-132192993D01*
X82347007Y-132099901D01*
X82232993Y-132034075D01*
X82169407Y-132017037D01*
X82801716Y-131384729D01*
X82801716Y-131384728D01*
X82747555Y-131345378D01*
X82747555Y-131345377D01*
X82558220Y-131248906D01*
X82356128Y-131183242D01*
X82146242Y-131150000D01*
X81933758Y-131150000D01*
X81723871Y-131183242D01*
X81521779Y-131248906D01*
X81332444Y-131345378D01*
X81278282Y-131384728D01*
X81278282Y-131384729D01*
X81910590Y-132017037D01*
X81847007Y-132034075D01*
X81732993Y-132099901D01*
X81639901Y-132192993D01*
X81574075Y-132307007D01*
X81557037Y-132370590D01*
X80924729Y-131738282D01*
X80924727Y-131738282D01*
X80890852Y-131784908D01*
X80830912Y-131833446D01*
X80754734Y-131845512D01*
X80682729Y-131817871D01*
X80649765Y-131784908D01*
X80615889Y-131738282D01*
X80530104Y-131620208D01*
X80379792Y-131469896D01*
X80207816Y-131344949D01*
X80018412Y-131248443D01*
X79816243Y-131182754D01*
X79606287Y-131149500D01*
X79393713Y-131149500D01*
X79218749Y-131177211D01*
X79183756Y-131182754D01*
X78981594Y-131248441D01*
X78981588Y-131248443D01*
X78981582Y-131248445D01*
X78981582Y-131248446D01*
X78792182Y-131344950D01*
X78792181Y-131344950D01*
X78620209Y-131469895D01*
X78620198Y-131469904D01*
X78534179Y-131555923D01*
X78467384Y-131594487D01*
X78390256Y-131594487D01*
X78323462Y-131555922D01*
X78289215Y-131502633D01*
X78277008Y-131469904D01*
X78253796Y-131407669D01*
X78253795Y-131407668D01*
X78253795Y-131407666D01*
X78167547Y-131292455D01*
X78167544Y-131292452D01*
X78052333Y-131206204D01*
X78052329Y-131206202D01*
X77917482Y-131155908D01*
X77857876Y-131149500D01*
X76062136Y-131149500D01*
X76062111Y-131149502D01*
X76002521Y-131155908D01*
X76002515Y-131155909D01*
X75867670Y-131206202D01*
X75867666Y-131206204D01*
X75752455Y-131292452D01*
X75752452Y-131292455D01*
X75666204Y-131407666D01*
X75666202Y-131407670D01*
X75615908Y-131542517D01*
X75609500Y-131602114D01*
X68584331Y-131602114D01*
X68801716Y-131384729D01*
X68801716Y-131384728D01*
X68747555Y-131345378D01*
X68747555Y-131345377D01*
X68558220Y-131248906D01*
X68356128Y-131183242D01*
X68146242Y-131150000D01*
X67933758Y-131150000D01*
X67723871Y-131183242D01*
X67521779Y-131248906D01*
X67332444Y-131345378D01*
X67278282Y-131384728D01*
X67278282Y-131384729D01*
X67910590Y-132017037D01*
X67847007Y-132034075D01*
X67732993Y-132099901D01*
X67639901Y-132192993D01*
X67574075Y-132307007D01*
X67557037Y-132370590D01*
X66924729Y-131738282D01*
X66924727Y-131738282D01*
X66890852Y-131784908D01*
X66830912Y-131833446D01*
X66754734Y-131845512D01*
X66682729Y-131817871D01*
X66649765Y-131784908D01*
X66615889Y-131738282D01*
X66530104Y-131620208D01*
X66379792Y-131469896D01*
X66207816Y-131344949D01*
X66018412Y-131248443D01*
X65816243Y-131182754D01*
X65606287Y-131149500D01*
X65393713Y-131149500D01*
X65218749Y-131177211D01*
X65183756Y-131182754D01*
X64981594Y-131248441D01*
X64981588Y-131248443D01*
X64981582Y-131248445D01*
X64981582Y-131248446D01*
X64792182Y-131344950D01*
X64792181Y-131344950D01*
X64620209Y-131469895D01*
X64620198Y-131469904D01*
X64534179Y-131555923D01*
X64467384Y-131594487D01*
X64390256Y-131594487D01*
X64323462Y-131555922D01*
X64289215Y-131502633D01*
X64277008Y-131469904D01*
X64253796Y-131407669D01*
X64253795Y-131407668D01*
X64253795Y-131407666D01*
X64167547Y-131292455D01*
X64167544Y-131292452D01*
X64052333Y-131206204D01*
X64052329Y-131206202D01*
X63917482Y-131155908D01*
X63857876Y-131149500D01*
X62062136Y-131149500D01*
X62062111Y-131149502D01*
X62002521Y-131155908D01*
X62002515Y-131155909D01*
X61867670Y-131206202D01*
X61867666Y-131206204D01*
X61752455Y-131292452D01*
X61752452Y-131292455D01*
X61666204Y-131407666D01*
X61666202Y-131407670D01*
X61615908Y-131542517D01*
X61609500Y-131602114D01*
X54584331Y-131602114D01*
X54801716Y-131384729D01*
X54801716Y-131384728D01*
X54747555Y-131345378D01*
X54747555Y-131345377D01*
X54558220Y-131248906D01*
X54356128Y-131183242D01*
X54146242Y-131150000D01*
X53933758Y-131150000D01*
X53723871Y-131183242D01*
X53521779Y-131248906D01*
X53332444Y-131345378D01*
X53278282Y-131384728D01*
X53278282Y-131384729D01*
X53910590Y-132017037D01*
X53847007Y-132034075D01*
X53732993Y-132099901D01*
X53639901Y-132192993D01*
X53574075Y-132307007D01*
X53557037Y-132370590D01*
X52924729Y-131738282D01*
X52924727Y-131738282D01*
X52890852Y-131784908D01*
X52830912Y-131833446D01*
X52754734Y-131845512D01*
X52682729Y-131817871D01*
X52649765Y-131784908D01*
X52615889Y-131738282D01*
X52530104Y-131620208D01*
X52379792Y-131469896D01*
X52207816Y-131344949D01*
X52018412Y-131248443D01*
X51816243Y-131182754D01*
X51606287Y-131149500D01*
X51393713Y-131149500D01*
X51218749Y-131177211D01*
X51183756Y-131182754D01*
X50981594Y-131248441D01*
X50981588Y-131248443D01*
X50981582Y-131248445D01*
X50981582Y-131248446D01*
X50792182Y-131344950D01*
X50792181Y-131344950D01*
X50620209Y-131469895D01*
X50620198Y-131469904D01*
X50534179Y-131555923D01*
X50467384Y-131594487D01*
X50390256Y-131594487D01*
X50323462Y-131555922D01*
X50289215Y-131502633D01*
X50277008Y-131469904D01*
X50253796Y-131407669D01*
X50253795Y-131407668D01*
X50253795Y-131407666D01*
X50167547Y-131292455D01*
X50167544Y-131292452D01*
X50052333Y-131206204D01*
X50052329Y-131206202D01*
X49917482Y-131155908D01*
X49857876Y-131149500D01*
X48062136Y-131149500D01*
X48062111Y-131149502D01*
X48002521Y-131155908D01*
X48002515Y-131155909D01*
X47867670Y-131206202D01*
X47867666Y-131206204D01*
X47752455Y-131292452D01*
X47752452Y-131292455D01*
X47666204Y-131407666D01*
X47666202Y-131407670D01*
X47615908Y-131542517D01*
X47609500Y-131602114D01*
X18300000Y-131602114D01*
X18300000Y-104199992D01*
X23099500Y-104199992D01*
X23099500Y-106600008D01*
X23108250Y-106685665D01*
X23110001Y-106702798D01*
X23165187Y-106869336D01*
X23257289Y-107018655D01*
X23381345Y-107142711D01*
X23530666Y-107234814D01*
X23697203Y-107289999D01*
X23799992Y-107300500D01*
X25742447Y-107300500D01*
X25816947Y-107320462D01*
X25825217Y-107325604D01*
X25860821Y-107349394D01*
X26006503Y-107409737D01*
X26161158Y-107440500D01*
X35836367Y-107440500D01*
X35910867Y-107460462D01*
X35956910Y-107501919D01*
X35969892Y-107519787D01*
X35969896Y-107519792D01*
X36120208Y-107670104D01*
X36197374Y-107726168D01*
X36284482Y-107789456D01*
X36333020Y-107849396D01*
X36345086Y-107925575D01*
X36317446Y-107997580D01*
X36284482Y-108030544D01*
X36120209Y-108149895D01*
X36120206Y-108149897D01*
X35969897Y-108300206D01*
X35969895Y-108300209D01*
X35844950Y-108472181D01*
X35844950Y-108472182D01*
X35748446Y-108661582D01*
X35748441Y-108661594D01*
X35692307Y-108834357D01*
X35682754Y-108863757D01*
X35649500Y-109073713D01*
X35649500Y-109286287D01*
X35682754Y-109496243D01*
X35748443Y-109698412D01*
X35844949Y-109887816D01*
X35969896Y-110059792D01*
X36120208Y-110210104D01*
X36198844Y-110267236D01*
X36284482Y-110329456D01*
X36333020Y-110389396D01*
X36345086Y-110465575D01*
X36317446Y-110537580D01*
X36284482Y-110570544D01*
X36120209Y-110689895D01*
X36120206Y-110689897D01*
X35969897Y-110840206D01*
X35969895Y-110840209D01*
X35844950Y-111012181D01*
X35844950Y-111012182D01*
X35844949Y-111012184D01*
X35748443Y-111201588D01*
X35682754Y-111403757D01*
X35649500Y-111613713D01*
X35649500Y-111826287D01*
X35682754Y-112036243D01*
X35748443Y-112238412D01*
X35844949Y-112427816D01*
X35969896Y-112599792D01*
X36120208Y-112750104D01*
X36292184Y-112875051D01*
X36481588Y-112971557D01*
X36683757Y-113037246D01*
X36893713Y-113070500D01*
X36893718Y-113070500D01*
X37106282Y-113070500D01*
X37106287Y-113070500D01*
X37316243Y-113037246D01*
X37518412Y-112971557D01*
X37707816Y-112875051D01*
X37879792Y-112750104D01*
X38030104Y-112599792D01*
X38155051Y-112427816D01*
X38251557Y-112238412D01*
X38317246Y-112036243D01*
X38350500Y-111826287D01*
X38350500Y-111775429D01*
X44784500Y-111775429D01*
X44784500Y-112024570D01*
X44817016Y-112271557D01*
X44817017Y-112271563D01*
X44817018Y-112271565D01*
X44858885Y-112427816D01*
X44881499Y-112512210D01*
X44976838Y-112742377D01*
X45053436Y-112875049D01*
X45101401Y-112958127D01*
X45253062Y-113155776D01*
X45429224Y-113331938D01*
X45626873Y-113483599D01*
X45842627Y-113608164D01*
X46072793Y-113703502D01*
X46313435Y-113767982D01*
X46313441Y-113767982D01*
X46313442Y-113767983D01*
X46380586Y-113776822D01*
X46560435Y-113800500D01*
X46809565Y-113800500D01*
X47056565Y-113767982D01*
X47297207Y-113703502D01*
X47527373Y-113608164D01*
X47743127Y-113483599D01*
X47940776Y-113331938D01*
X48116938Y-113155776D01*
X48268599Y-112958127D01*
X48393164Y-112742373D01*
X48488502Y-112512207D01*
X48552982Y-112271565D01*
X48585500Y-112024565D01*
X48585500Y-111775435D01*
X48552982Y-111528435D01*
X48488502Y-111287793D01*
X48393164Y-111057627D01*
X48268599Y-110841873D01*
X48116938Y-110644224D01*
X47940776Y-110468062D01*
X47743127Y-110316401D01*
X47600674Y-110234156D01*
X47527377Y-110191838D01*
X47527375Y-110191837D01*
X47527373Y-110191836D01*
X47392548Y-110135989D01*
X47297210Y-110096499D01*
X47297208Y-110096498D01*
X47297207Y-110096498D01*
X47056565Y-110032018D01*
X47056563Y-110032017D01*
X47056557Y-110032016D01*
X46809570Y-109999500D01*
X46809565Y-109999500D01*
X46560435Y-109999500D01*
X46560429Y-109999500D01*
X46313442Y-110032016D01*
X46072789Y-110096499D01*
X45842622Y-110191838D01*
X45626874Y-110316400D01*
X45429222Y-110468063D01*
X45253063Y-110644222D01*
X45101400Y-110841874D01*
X44976838Y-111057622D01*
X44881499Y-111287789D01*
X44817016Y-111528442D01*
X44784500Y-111775429D01*
X38350500Y-111775429D01*
X38350500Y-111613713D01*
X38317246Y-111403757D01*
X38251557Y-111201588D01*
X38155051Y-111012184D01*
X38030104Y-110840208D01*
X37879792Y-110689896D01*
X37715517Y-110570544D01*
X37666979Y-110510604D01*
X37654913Y-110434426D01*
X37682553Y-110362420D01*
X37715517Y-110329456D01*
X37733487Y-110316400D01*
X37879792Y-110210104D01*
X38030104Y-110059792D01*
X38155051Y-109887816D01*
X38251557Y-109698412D01*
X38317246Y-109496243D01*
X38350500Y-109286287D01*
X38350500Y-109073713D01*
X38317246Y-108863757D01*
X38251557Y-108661588D01*
X38155051Y-108472184D01*
X38030104Y-108300208D01*
X37879792Y-108149896D01*
X37715517Y-108030544D01*
X37666979Y-107970604D01*
X37654913Y-107894426D01*
X37682553Y-107822420D01*
X37715517Y-107789456D01*
X37722519Y-107784368D01*
X37879792Y-107670104D01*
X38030104Y-107519792D01*
X38155051Y-107347816D01*
X38251557Y-107158412D01*
X38317246Y-106956243D01*
X38350500Y-106746287D01*
X38350500Y-106533713D01*
X38317246Y-106323757D01*
X38251557Y-106121588D01*
X38155051Y-105932184D01*
X38030104Y-105760208D01*
X37944076Y-105674180D01*
X37905512Y-105607385D01*
X37905512Y-105530257D01*
X37944076Y-105463462D01*
X37997366Y-105429215D01*
X38028278Y-105417685D01*
X38092327Y-105393798D01*
X38092333Y-105393795D01*
X38149938Y-105350671D01*
X38207546Y-105307546D01*
X38293796Y-105192331D01*
X38344091Y-105057483D01*
X38345823Y-105041370D01*
X38350499Y-104997885D01*
X38350499Y-104997882D01*
X38350500Y-104997873D01*
X38350499Y-103202128D01*
X38344091Y-103142517D01*
X38329588Y-103103633D01*
X38293797Y-103007670D01*
X38293795Y-103007666D01*
X38207547Y-102892455D01*
X38207544Y-102892452D01*
X38092333Y-102806204D01*
X38092329Y-102806202D01*
X37957482Y-102755908D01*
X37897876Y-102749500D01*
X36102136Y-102749500D01*
X36102111Y-102749502D01*
X36042521Y-102755908D01*
X36042515Y-102755909D01*
X35907670Y-102806202D01*
X35907666Y-102806204D01*
X35792455Y-102892452D01*
X35792452Y-102892455D01*
X35706204Y-103007666D01*
X35706202Y-103007670D01*
X35655908Y-103142517D01*
X35649500Y-103202114D01*
X35649500Y-104997863D01*
X35649502Y-104997888D01*
X35655908Y-105057478D01*
X35655909Y-105057484D01*
X35706202Y-105192329D01*
X35706204Y-105192333D01*
X35792452Y-105307544D01*
X35792455Y-105307547D01*
X35907666Y-105393795D01*
X35907668Y-105393795D01*
X35907669Y-105393796D01*
X36002633Y-105429215D01*
X36065460Y-105473953D01*
X36097501Y-105544111D01*
X36090170Y-105620890D01*
X36059210Y-105670787D01*
X36057576Y-105672527D01*
X35969896Y-105760208D01*
X35951416Y-105785643D01*
X35945013Y-105792466D01*
X35919917Y-105808035D01*
X35896969Y-105826619D01*
X35886316Y-105828883D01*
X35879475Y-105833128D01*
X35864043Y-105833617D01*
X35836367Y-105839500D01*
X27049500Y-105839500D01*
X26975000Y-105819538D01*
X26920462Y-105765000D01*
X26900500Y-105690500D01*
X26900500Y-104199996D01*
X26900500Y-104199992D01*
X26889999Y-104097203D01*
X26834814Y-103930666D01*
X26742711Y-103781345D01*
X26618655Y-103657289D01*
X26469334Y-103565186D01*
X26385332Y-103537350D01*
X26302798Y-103510001D01*
X26302799Y-103510001D01*
X26268534Y-103506500D01*
X26200008Y-103499500D01*
X23799992Y-103499500D01*
X23731466Y-103506500D01*
X23697201Y-103510001D01*
X23530663Y-103565187D01*
X23381344Y-103657289D01*
X23257289Y-103781344D01*
X23165187Y-103930663D01*
X23110001Y-104097201D01*
X23110001Y-104097203D01*
X23099500Y-104199992D01*
X18300000Y-104199992D01*
X18300000Y-100275429D01*
X23099500Y-100275429D01*
X23099500Y-100524570D01*
X23132016Y-100771557D01*
X23196499Y-101012210D01*
X23220644Y-101070500D01*
X23256822Y-101157843D01*
X23291838Y-101242377D01*
X23353974Y-101350000D01*
X23416401Y-101458127D01*
X23568062Y-101655776D01*
X23744224Y-101831938D01*
X23941873Y-101983599D01*
X24157627Y-102108164D01*
X24387793Y-102203502D01*
X24628435Y-102267982D01*
X24628441Y-102267982D01*
X24628442Y-102267983D01*
X24695586Y-102276822D01*
X24875435Y-102300500D01*
X25124565Y-102300500D01*
X25371565Y-102267982D01*
X25612207Y-102203502D01*
X25842373Y-102108164D01*
X26058127Y-101983599D01*
X26255776Y-101831938D01*
X26431938Y-101655776D01*
X26583599Y-101458127D01*
X26708164Y-101242373D01*
X26803502Y-101012207D01*
X26867982Y-100771565D01*
X26900500Y-100524565D01*
X26900500Y-100275435D01*
X26867982Y-100028435D01*
X26803502Y-99787793D01*
X26708164Y-99557627D01*
X26583599Y-99341873D01*
X26431938Y-99144224D01*
X26255776Y-98968062D01*
X26058127Y-98816401D01*
X25986209Y-98774879D01*
X25842377Y-98691838D01*
X25842375Y-98691837D01*
X25842373Y-98691836D01*
X25707548Y-98635989D01*
X25612210Y-98596499D01*
X25612208Y-98596498D01*
X25612207Y-98596498D01*
X25371565Y-98532018D01*
X25371563Y-98532017D01*
X25371557Y-98532016D01*
X25124570Y-98499500D01*
X25124565Y-98499500D01*
X24875435Y-98499500D01*
X24875429Y-98499500D01*
X24628442Y-98532016D01*
X24387789Y-98596499D01*
X24157622Y-98691838D01*
X23941874Y-98816400D01*
X23744222Y-98968063D01*
X23568063Y-99144222D01*
X23416400Y-99341874D01*
X23291838Y-99557622D01*
X23196499Y-99787789D01*
X23132016Y-100028442D01*
X23099500Y-100275429D01*
X18300000Y-100275429D01*
X18300000Y-92199992D01*
X23099500Y-92199992D01*
X23099500Y-94600008D01*
X23106160Y-94665198D01*
X23110001Y-94702798D01*
X23165187Y-94869336D01*
X23257289Y-95018655D01*
X23381345Y-95142711D01*
X23530666Y-95234814D01*
X23697203Y-95289999D01*
X23799992Y-95300500D01*
X23799996Y-95300500D01*
X26200004Y-95300500D01*
X26200008Y-95300500D01*
X26302797Y-95289999D01*
X26469334Y-95234814D01*
X26618655Y-95142711D01*
X26742711Y-95018655D01*
X26834814Y-94869334D01*
X26889999Y-94702797D01*
X26900500Y-94600008D01*
X26900500Y-93049500D01*
X26920462Y-92975000D01*
X26975000Y-92920462D01*
X27049500Y-92900500D01*
X35505193Y-92900500D01*
X35579693Y-92920462D01*
X35634231Y-92975000D01*
X35653338Y-93033571D01*
X35655051Y-93049500D01*
X35655909Y-93057485D01*
X35706202Y-93192329D01*
X35706204Y-93192333D01*
X35792452Y-93307544D01*
X35792455Y-93307547D01*
X35907666Y-93393795D01*
X35907668Y-93393795D01*
X35907669Y-93393796D01*
X36002633Y-93429215D01*
X36065460Y-93473953D01*
X36097501Y-93544111D01*
X36090170Y-93620890D01*
X36055923Y-93674179D01*
X35969904Y-93760198D01*
X35969895Y-93760209D01*
X35844950Y-93932181D01*
X35844950Y-93932182D01*
X35748446Y-94121582D01*
X35748441Y-94121594D01*
X35694441Y-94287789D01*
X35682754Y-94323757D01*
X35649500Y-94533713D01*
X35649500Y-94746287D01*
X35682754Y-94956243D01*
X35748443Y-95158412D01*
X35844949Y-95347816D01*
X35969896Y-95519792D01*
X36120208Y-95670104D01*
X36198844Y-95727236D01*
X36284482Y-95789456D01*
X36333020Y-95849396D01*
X36345086Y-95925575D01*
X36317446Y-95997580D01*
X36284482Y-96030544D01*
X36120209Y-96149895D01*
X36120206Y-96149897D01*
X35969897Y-96300206D01*
X35969895Y-96300209D01*
X35844950Y-96472181D01*
X35844950Y-96472182D01*
X35748446Y-96661582D01*
X35748441Y-96661594D01*
X35692307Y-96834357D01*
X35682754Y-96863757D01*
X35649500Y-97073713D01*
X35649500Y-97286287D01*
X35682754Y-97496243D01*
X35748443Y-97698412D01*
X35844949Y-97887816D01*
X35969896Y-98059792D01*
X36120208Y-98210104D01*
X36198844Y-98267236D01*
X36284482Y-98329456D01*
X36333020Y-98389396D01*
X36345086Y-98465575D01*
X36317446Y-98537580D01*
X36284482Y-98570544D01*
X36120209Y-98689895D01*
X36120206Y-98689897D01*
X35969897Y-98840206D01*
X35969895Y-98840209D01*
X35844950Y-99012181D01*
X35844950Y-99012182D01*
X35844949Y-99012184D01*
X35748443Y-99201588D01*
X35682754Y-99403757D01*
X35649500Y-99613713D01*
X35649500Y-99826287D01*
X35682754Y-100036243D01*
X35748443Y-100238412D01*
X35844949Y-100427816D01*
X35969896Y-100599792D01*
X36120208Y-100750104D01*
X36292184Y-100875051D01*
X36481588Y-100971557D01*
X36683757Y-101037246D01*
X36893713Y-101070500D01*
X36893718Y-101070500D01*
X37106282Y-101070500D01*
X37106287Y-101070500D01*
X37316243Y-101037246D01*
X37518412Y-100971557D01*
X37707816Y-100875051D01*
X37879792Y-100750104D01*
X38030104Y-100599792D01*
X38155051Y-100427816D01*
X38251557Y-100238412D01*
X38317246Y-100036243D01*
X38350500Y-99826287D01*
X38350500Y-99613713D01*
X38317246Y-99403757D01*
X38251557Y-99201588D01*
X38155051Y-99012184D01*
X38030104Y-98840208D01*
X37879792Y-98689896D01*
X37715517Y-98570544D01*
X37666979Y-98510604D01*
X37654913Y-98434426D01*
X37682553Y-98362420D01*
X37715517Y-98329456D01*
X37722519Y-98324368D01*
X37879792Y-98210104D01*
X38030104Y-98059792D01*
X38155051Y-97887816D01*
X38251557Y-97698412D01*
X38317246Y-97496243D01*
X38350500Y-97286287D01*
X38350500Y-97073713D01*
X38317246Y-96863757D01*
X38251557Y-96661588D01*
X38155051Y-96472184D01*
X38030104Y-96300208D01*
X37879792Y-96149896D01*
X37715517Y-96030544D01*
X37666979Y-95970604D01*
X37654913Y-95894426D01*
X37682553Y-95822420D01*
X37715517Y-95789456D01*
X37722519Y-95784368D01*
X37879792Y-95670104D01*
X38030104Y-95519792D01*
X38155051Y-95347816D01*
X38251557Y-95158412D01*
X38317246Y-94956243D01*
X38350500Y-94746287D01*
X38350500Y-94533713D01*
X38317246Y-94323757D01*
X38251557Y-94121588D01*
X38155051Y-93932184D01*
X38030104Y-93760208D01*
X37944075Y-93674179D01*
X37905512Y-93607385D01*
X37905512Y-93530257D01*
X37944076Y-93463462D01*
X37997366Y-93429215D01*
X38028278Y-93417685D01*
X38092327Y-93393798D01*
X38092333Y-93393795D01*
X38195717Y-93316401D01*
X38207546Y-93307546D01*
X38293796Y-93192331D01*
X38344091Y-93057483D01*
X38350500Y-92997873D01*
X38350499Y-91202128D01*
X38344091Y-91142517D01*
X38329588Y-91103633D01*
X38293797Y-91007670D01*
X38293795Y-91007666D01*
X38207547Y-90892455D01*
X38207544Y-90892452D01*
X38092333Y-90806204D01*
X38092329Y-90806202D01*
X37957482Y-90755908D01*
X37897876Y-90749500D01*
X36102136Y-90749500D01*
X36102111Y-90749502D01*
X36042521Y-90755908D01*
X36042515Y-90755909D01*
X35907670Y-90806202D01*
X35907666Y-90806204D01*
X35792455Y-90892452D01*
X35792452Y-90892455D01*
X35706204Y-91007666D01*
X35706202Y-91007670D01*
X35655908Y-91142517D01*
X35653338Y-91166427D01*
X35625527Y-91238367D01*
X35565472Y-91286762D01*
X35505192Y-91299500D01*
X26221158Y-91299500D01*
X26066505Y-91330261D01*
X26066503Y-91330262D01*
X25920825Y-91390603D01*
X25920813Y-91390610D01*
X25795433Y-91474388D01*
X25722398Y-91499181D01*
X25712652Y-91499500D01*
X23799992Y-91499500D01*
X23731466Y-91506500D01*
X23697201Y-91510001D01*
X23530663Y-91565187D01*
X23381344Y-91657289D01*
X23257289Y-91781344D01*
X23165187Y-91930663D01*
X23110001Y-92097201D01*
X23110001Y-92097203D01*
X23099500Y-92199992D01*
X18300000Y-92199992D01*
X18300000Y-88275429D01*
X23099500Y-88275429D01*
X23099500Y-88524570D01*
X23132016Y-88771557D01*
X23196499Y-89012210D01*
X23220644Y-89070500D01*
X23291836Y-89242373D01*
X23416401Y-89458127D01*
X23568062Y-89655776D01*
X23744224Y-89831938D01*
X23941873Y-89983599D01*
X24157627Y-90108164D01*
X24387793Y-90203502D01*
X24628435Y-90267982D01*
X24628441Y-90267982D01*
X24628442Y-90267983D01*
X24695586Y-90276822D01*
X24875435Y-90300500D01*
X25124565Y-90300500D01*
X25371565Y-90267982D01*
X25612207Y-90203502D01*
X25842373Y-90108164D01*
X26058127Y-89983599D01*
X26255776Y-89831938D01*
X26431938Y-89655776D01*
X26583599Y-89458127D01*
X26708164Y-89242373D01*
X26803502Y-89012207D01*
X26867982Y-88771565D01*
X26900500Y-88524565D01*
X26900500Y-88275435D01*
X26867982Y-88028435D01*
X26803502Y-87787793D01*
X26708164Y-87557627D01*
X26583599Y-87341873D01*
X26431938Y-87144224D01*
X26255776Y-86968062D01*
X26058127Y-86816401D01*
X25986209Y-86774879D01*
X25842377Y-86691838D01*
X25842375Y-86691837D01*
X25842373Y-86691836D01*
X25707548Y-86635989D01*
X25612210Y-86596499D01*
X25612208Y-86596498D01*
X25612207Y-86596498D01*
X25371565Y-86532018D01*
X25371563Y-86532017D01*
X25371557Y-86532016D01*
X25124570Y-86499500D01*
X25124565Y-86499500D01*
X24875435Y-86499500D01*
X24875429Y-86499500D01*
X24628442Y-86532016D01*
X24387789Y-86596499D01*
X24157622Y-86691838D01*
X23941874Y-86816400D01*
X23744222Y-86968063D01*
X23568063Y-87144222D01*
X23416400Y-87341874D01*
X23291838Y-87557622D01*
X23196499Y-87787789D01*
X23132016Y-88028442D01*
X23099500Y-88275429D01*
X18300000Y-88275429D01*
X18300000Y-80199992D01*
X23099500Y-80199992D01*
X23099500Y-82600008D01*
X23108250Y-82685665D01*
X23110001Y-82702798D01*
X23165187Y-82869336D01*
X23257289Y-83018655D01*
X23381345Y-83142711D01*
X23530666Y-83234814D01*
X23697203Y-83289999D01*
X23799992Y-83300500D01*
X23799996Y-83300500D01*
X26200004Y-83300500D01*
X26200008Y-83300500D01*
X26302797Y-83289999D01*
X26469334Y-83234814D01*
X26618655Y-83142711D01*
X26742711Y-83018655D01*
X26834814Y-82869334D01*
X26889999Y-82702797D01*
X26900500Y-82600008D01*
X26900500Y-81049500D01*
X26920462Y-80975000D01*
X26975000Y-80920462D01*
X27049500Y-80900500D01*
X35505193Y-80900500D01*
X35579693Y-80920462D01*
X35634231Y-80975000D01*
X35653338Y-81033571D01*
X35655051Y-81049500D01*
X35655909Y-81057485D01*
X35706202Y-81192329D01*
X35706204Y-81192333D01*
X35792452Y-81307544D01*
X35792455Y-81307547D01*
X35907666Y-81393795D01*
X35907668Y-81393795D01*
X35907669Y-81393796D01*
X36002633Y-81429215D01*
X36065460Y-81473953D01*
X36097501Y-81544111D01*
X36090170Y-81620890D01*
X36055923Y-81674179D01*
X35969904Y-81760198D01*
X35969895Y-81760209D01*
X35844950Y-81932181D01*
X35844950Y-81932182D01*
X35844949Y-81932184D01*
X35748443Y-82121588D01*
X35682754Y-82323757D01*
X35649500Y-82533713D01*
X35649500Y-82746287D01*
X35682754Y-82956243D01*
X35748443Y-83158412D01*
X35844949Y-83347816D01*
X35969896Y-83519792D01*
X36120208Y-83670104D01*
X36198844Y-83727236D01*
X36284482Y-83789456D01*
X36333020Y-83849396D01*
X36345086Y-83925575D01*
X36317446Y-83997580D01*
X36284482Y-84030544D01*
X36120209Y-84149895D01*
X36120206Y-84149897D01*
X35969897Y-84300206D01*
X35969895Y-84300209D01*
X35844950Y-84472181D01*
X35844950Y-84472182D01*
X35844949Y-84472184D01*
X35748443Y-84661588D01*
X35682754Y-84863757D01*
X35649500Y-85073713D01*
X35649500Y-85286287D01*
X35682754Y-85496243D01*
X35748443Y-85698412D01*
X35844949Y-85887816D01*
X35969896Y-86059792D01*
X36120208Y-86210104D01*
X36198844Y-86267236D01*
X36284482Y-86329456D01*
X36333020Y-86389396D01*
X36345086Y-86465575D01*
X36317446Y-86537580D01*
X36284482Y-86570544D01*
X36120209Y-86689895D01*
X36120206Y-86689897D01*
X35969897Y-86840206D01*
X35969895Y-86840209D01*
X35844950Y-87012181D01*
X35844950Y-87012182D01*
X35844949Y-87012184D01*
X35748443Y-87201588D01*
X35682754Y-87403757D01*
X35649500Y-87613713D01*
X35649500Y-87826287D01*
X35682754Y-88036243D01*
X35748443Y-88238412D01*
X35839346Y-88416820D01*
X35844950Y-88427817D01*
X35844950Y-88427818D01*
X35891144Y-88491399D01*
X35969896Y-88599792D01*
X36120208Y-88750104D01*
X36292184Y-88875051D01*
X36481588Y-88971557D01*
X36683757Y-89037246D01*
X36893713Y-89070500D01*
X36893718Y-89070500D01*
X37106282Y-89070500D01*
X37106287Y-89070500D01*
X37316243Y-89037246D01*
X37518412Y-88971557D01*
X37707816Y-88875051D01*
X37879792Y-88750104D01*
X38030104Y-88599792D01*
X38155051Y-88427816D01*
X38251557Y-88238412D01*
X38317246Y-88036243D01*
X38350500Y-87826287D01*
X38350500Y-87613713D01*
X38317246Y-87403757D01*
X38251557Y-87201588D01*
X38155051Y-87012184D01*
X38030104Y-86840208D01*
X37879792Y-86689896D01*
X37715517Y-86570544D01*
X37666979Y-86510604D01*
X37654913Y-86434426D01*
X37682553Y-86362420D01*
X37715517Y-86329456D01*
X37722519Y-86324368D01*
X37879792Y-86210104D01*
X38030104Y-86059792D01*
X38155051Y-85887816D01*
X38251557Y-85698412D01*
X38317246Y-85496243D01*
X38350500Y-85286287D01*
X38350500Y-85073713D01*
X38317246Y-84863757D01*
X38251557Y-84661588D01*
X38155051Y-84472184D01*
X38152980Y-84469334D01*
X38048116Y-84325000D01*
X38030104Y-84300208D01*
X37879792Y-84149896D01*
X37715517Y-84030544D01*
X37666979Y-83970604D01*
X37654913Y-83894426D01*
X37682553Y-83822420D01*
X37715517Y-83789456D01*
X37722519Y-83784368D01*
X37879792Y-83670104D01*
X38030104Y-83519792D01*
X38155051Y-83347816D01*
X38251557Y-83158412D01*
X38317246Y-82956243D01*
X38350500Y-82746287D01*
X38350500Y-82533713D01*
X38317246Y-82323757D01*
X38251557Y-82121588D01*
X38155051Y-81932184D01*
X38030104Y-81760208D01*
X37944075Y-81674179D01*
X37905512Y-81607385D01*
X37905512Y-81530257D01*
X37944076Y-81463462D01*
X37997366Y-81429215D01*
X38028278Y-81417685D01*
X38092327Y-81393798D01*
X38092333Y-81393795D01*
X38149938Y-81350671D01*
X38207546Y-81307546D01*
X38293796Y-81192331D01*
X38303921Y-81165186D01*
X38344091Y-81057482D01*
X38350499Y-80997885D01*
X38350499Y-80997882D01*
X38350500Y-80997873D01*
X38350499Y-79202128D01*
X38344091Y-79142517D01*
X38312615Y-79058125D01*
X38293797Y-79007670D01*
X38293795Y-79007666D01*
X38207547Y-78892455D01*
X38207544Y-78892452D01*
X38092333Y-78806204D01*
X38092329Y-78806202D01*
X37957482Y-78755908D01*
X37897876Y-78749500D01*
X36102136Y-78749500D01*
X36102111Y-78749502D01*
X36042521Y-78755908D01*
X36042515Y-78755909D01*
X35907670Y-78806202D01*
X35907666Y-78806204D01*
X35792455Y-78892452D01*
X35792452Y-78892455D01*
X35706204Y-79007666D01*
X35706202Y-79007670D01*
X35655908Y-79142517D01*
X35653338Y-79166427D01*
X35625527Y-79238367D01*
X35565472Y-79286762D01*
X35505192Y-79299500D01*
X26221158Y-79299500D01*
X26066505Y-79330261D01*
X26066503Y-79330262D01*
X25920825Y-79390603D01*
X25920813Y-79390610D01*
X25795433Y-79474388D01*
X25722398Y-79499181D01*
X25712652Y-79499500D01*
X23799992Y-79499500D01*
X23731466Y-79506500D01*
X23697201Y-79510001D01*
X23530663Y-79565187D01*
X23381344Y-79657289D01*
X23257289Y-79781344D01*
X23165187Y-79930663D01*
X23110001Y-80097201D01*
X23110001Y-80097203D01*
X23099500Y-80199992D01*
X18300000Y-80199992D01*
X18300000Y-76275429D01*
X23099500Y-76275429D01*
X23099500Y-76524570D01*
X23132016Y-76771557D01*
X23132017Y-76771563D01*
X23132018Y-76771565D01*
X23178804Y-76946174D01*
X23196499Y-77012210D01*
X23220644Y-77070500D01*
X23291836Y-77242373D01*
X23416401Y-77458127D01*
X23568062Y-77655776D01*
X23744224Y-77831938D01*
X23941873Y-77983599D01*
X24157627Y-78108164D01*
X24387793Y-78203502D01*
X24628435Y-78267982D01*
X24628441Y-78267982D01*
X24628442Y-78267983D01*
X24695586Y-78276822D01*
X24875435Y-78300500D01*
X25124565Y-78300500D01*
X25371565Y-78267982D01*
X25612207Y-78203502D01*
X25842373Y-78108164D01*
X26058127Y-77983599D01*
X26255776Y-77831938D01*
X26431938Y-77655776D01*
X26583599Y-77458127D01*
X26708164Y-77242373D01*
X26803502Y-77012207D01*
X26867982Y-76771565D01*
X26900500Y-76524565D01*
X26900500Y-76275435D01*
X26868454Y-76032017D01*
X26867983Y-76028442D01*
X26867982Y-76028441D01*
X26867982Y-76028435D01*
X26803502Y-75787793D01*
X26708164Y-75557627D01*
X26583599Y-75341873D01*
X26431938Y-75144224D01*
X26255776Y-74968062D01*
X26058127Y-74816401D01*
X25986209Y-74774879D01*
X25842377Y-74691838D01*
X25842375Y-74691837D01*
X25842373Y-74691836D01*
X25707548Y-74635989D01*
X25612210Y-74596499D01*
X25612208Y-74596498D01*
X25612207Y-74596498D01*
X25371565Y-74532018D01*
X25371563Y-74532017D01*
X25371557Y-74532016D01*
X25124570Y-74499500D01*
X25124565Y-74499500D01*
X24875435Y-74499500D01*
X24875429Y-74499500D01*
X24628442Y-74532016D01*
X24387789Y-74596499D01*
X24157622Y-74691838D01*
X23941874Y-74816400D01*
X23744222Y-74968063D01*
X23568063Y-75144222D01*
X23416400Y-75341874D01*
X23291838Y-75557622D01*
X23196499Y-75787789D01*
X23132016Y-76028442D01*
X23099500Y-76275429D01*
X18300000Y-76275429D01*
X18300000Y-68199992D01*
X23099500Y-68199992D01*
X23099500Y-70600008D01*
X23108250Y-70685665D01*
X23110001Y-70702798D01*
X23165187Y-70869336D01*
X23257289Y-71018655D01*
X23381345Y-71142711D01*
X23530666Y-71234814D01*
X23697203Y-71289999D01*
X23799992Y-71300500D01*
X25974457Y-71300500D01*
X26031475Y-71311841D01*
X26035672Y-71313580D01*
X26171006Y-71340500D01*
X26171007Y-71340500D01*
X35763714Y-71340500D01*
X35838214Y-71360462D01*
X35884258Y-71401921D01*
X35969890Y-71519785D01*
X35969895Y-71519791D01*
X35969896Y-71519792D01*
X36120208Y-71670104D01*
X36198844Y-71727236D01*
X36284482Y-71789456D01*
X36333020Y-71849396D01*
X36345086Y-71925575D01*
X36317446Y-71997580D01*
X36284482Y-72030544D01*
X36120209Y-72149895D01*
X36120206Y-72149897D01*
X35969897Y-72300206D01*
X35969895Y-72300209D01*
X35844950Y-72472181D01*
X35844950Y-72472182D01*
X35844949Y-72472184D01*
X35748443Y-72661588D01*
X35682754Y-72863757D01*
X35649500Y-73073713D01*
X35649500Y-73286287D01*
X35682754Y-73496243D01*
X35748443Y-73698412D01*
X35844949Y-73887816D01*
X35969896Y-74059792D01*
X36120208Y-74210104D01*
X36198844Y-74267236D01*
X36284482Y-74329456D01*
X36333020Y-74389396D01*
X36345086Y-74465575D01*
X36317446Y-74537580D01*
X36284482Y-74570544D01*
X36120209Y-74689895D01*
X36120206Y-74689897D01*
X35969897Y-74840206D01*
X35969895Y-74840209D01*
X35844950Y-75012181D01*
X35844950Y-75012182D01*
X35844949Y-75012184D01*
X35748443Y-75201588D01*
X35682754Y-75403757D01*
X35649500Y-75613713D01*
X35649500Y-75826287D01*
X35682754Y-76036243D01*
X35748443Y-76238412D01*
X35844949Y-76427816D01*
X35969896Y-76599792D01*
X36120208Y-76750104D01*
X36292184Y-76875051D01*
X36481588Y-76971557D01*
X36683757Y-77037246D01*
X36893713Y-77070500D01*
X36893718Y-77070500D01*
X37106282Y-77070500D01*
X37106287Y-77070500D01*
X37316243Y-77037246D01*
X37518412Y-76971557D01*
X37707816Y-76875051D01*
X37879792Y-76750104D01*
X38030104Y-76599792D01*
X38155051Y-76427816D01*
X38251557Y-76238412D01*
X38317246Y-76036243D01*
X38350500Y-75826287D01*
X38350500Y-75613713D01*
X38317246Y-75403757D01*
X38251557Y-75201588D01*
X38155051Y-75012184D01*
X38030104Y-74840208D01*
X37879792Y-74689896D01*
X37715517Y-74570544D01*
X37666979Y-74510604D01*
X37654913Y-74434426D01*
X37682553Y-74362420D01*
X37715517Y-74329456D01*
X37722519Y-74324368D01*
X37879792Y-74210104D01*
X38030104Y-74059792D01*
X38155051Y-73887816D01*
X38251557Y-73698412D01*
X38317246Y-73496243D01*
X38350500Y-73286287D01*
X38350500Y-73073713D01*
X38317246Y-72863757D01*
X38251557Y-72661588D01*
X38155051Y-72472184D01*
X38152980Y-72469334D01*
X38130283Y-72438093D01*
X38030104Y-72300208D01*
X37879792Y-72149896D01*
X37715517Y-72030544D01*
X37666979Y-71970604D01*
X37654913Y-71894426D01*
X37682553Y-71822420D01*
X37715517Y-71789456D01*
X37750999Y-71763677D01*
X37879792Y-71670104D01*
X38030104Y-71519792D01*
X38155051Y-71347816D01*
X38251557Y-71158412D01*
X38317246Y-70956243D01*
X38350500Y-70746287D01*
X38350500Y-70533713D01*
X38317246Y-70323757D01*
X38251557Y-70121588D01*
X38155051Y-69932184D01*
X38030104Y-69760208D01*
X37944076Y-69674180D01*
X37905512Y-69607385D01*
X37905512Y-69530257D01*
X37944076Y-69463462D01*
X37997366Y-69429215D01*
X38028278Y-69417685D01*
X38092327Y-69393798D01*
X38092333Y-69393795D01*
X38150167Y-69350500D01*
X38207546Y-69307546D01*
X38293796Y-69192331D01*
X38303921Y-69165186D01*
X38328420Y-69099500D01*
X38344091Y-69057483D01*
X38345823Y-69041370D01*
X38350499Y-68997885D01*
X38350499Y-68997882D01*
X38350500Y-68997873D01*
X38350499Y-67202128D01*
X38344091Y-67142517D01*
X38312615Y-67058125D01*
X38293797Y-67007670D01*
X38293795Y-67007666D01*
X38207547Y-66892455D01*
X38207544Y-66892452D01*
X38092333Y-66806204D01*
X38092329Y-66806202D01*
X37957482Y-66755908D01*
X37897876Y-66749500D01*
X36102136Y-66749500D01*
X36102111Y-66749502D01*
X36042521Y-66755908D01*
X36042515Y-66755909D01*
X35907670Y-66806202D01*
X35907666Y-66806204D01*
X35792455Y-66892452D01*
X35792452Y-66892455D01*
X35706204Y-67007666D01*
X35706202Y-67007670D01*
X35655908Y-67142517D01*
X35649500Y-67202114D01*
X35649500Y-68997863D01*
X35649502Y-68997888D01*
X35655908Y-69057478D01*
X35655909Y-69057484D01*
X35706202Y-69192329D01*
X35706204Y-69192333D01*
X35792452Y-69307544D01*
X35792455Y-69307547D01*
X35907666Y-69393795D01*
X35907668Y-69393795D01*
X35907669Y-69393796D01*
X36002633Y-69429215D01*
X36065460Y-69473953D01*
X36097501Y-69544111D01*
X36090170Y-69620890D01*
X36064492Y-69664849D01*
X36060398Y-69669705D01*
X35969896Y-69760208D01*
X35881103Y-69882421D01*
X35877642Y-69886528D01*
X35850256Y-69905613D01*
X35824318Y-69926618D01*
X35818272Y-69927902D01*
X35814364Y-69930627D01*
X35799492Y-69931894D01*
X35763714Y-69939500D01*
X27049500Y-69939500D01*
X26975000Y-69919538D01*
X26920462Y-69865000D01*
X26900500Y-69790500D01*
X26900500Y-68199996D01*
X26900500Y-68199992D01*
X26889999Y-68097203D01*
X26834814Y-67930666D01*
X26742711Y-67781345D01*
X26618655Y-67657289D01*
X26469334Y-67565186D01*
X26385332Y-67537350D01*
X26302798Y-67510001D01*
X26302799Y-67510001D01*
X26268534Y-67506500D01*
X26200008Y-67499500D01*
X23799992Y-67499500D01*
X23731466Y-67506500D01*
X23697201Y-67510001D01*
X23530663Y-67565187D01*
X23381344Y-67657289D01*
X23257289Y-67781344D01*
X23165187Y-67930663D01*
X23110001Y-68097201D01*
X23110001Y-68097203D01*
X23099500Y-68199992D01*
X18300000Y-68199992D01*
X18300000Y-64275429D01*
X23099500Y-64275429D01*
X23099500Y-64524570D01*
X23132016Y-64771557D01*
X23196499Y-65012210D01*
X23220644Y-65070500D01*
X23291836Y-65242373D01*
X23416401Y-65458127D01*
X23568062Y-65655776D01*
X23744224Y-65831938D01*
X23941873Y-65983599D01*
X24157627Y-66108164D01*
X24387793Y-66203502D01*
X24628435Y-66267982D01*
X24628441Y-66267982D01*
X24628442Y-66267983D01*
X24695586Y-66276822D01*
X24875435Y-66300500D01*
X25124565Y-66300500D01*
X25371565Y-66267982D01*
X25612207Y-66203502D01*
X25842373Y-66108164D01*
X26058127Y-65983599D01*
X26255776Y-65831938D01*
X26431938Y-65655776D01*
X26583599Y-65458127D01*
X26708164Y-65242373D01*
X26803502Y-65012207D01*
X26867982Y-64771565D01*
X26900500Y-64524565D01*
X26900500Y-64275435D01*
X26867982Y-64028435D01*
X26803502Y-63787793D01*
X26708164Y-63557627D01*
X26583599Y-63341873D01*
X26431938Y-63144224D01*
X26255776Y-62968062D01*
X26058127Y-62816401D01*
X25974262Y-62767982D01*
X25842377Y-62691838D01*
X25842375Y-62691837D01*
X25842373Y-62691836D01*
X25645690Y-62610367D01*
X25612210Y-62596499D01*
X25612208Y-62596498D01*
X25612207Y-62596498D01*
X25371565Y-62532018D01*
X25371563Y-62532017D01*
X25371557Y-62532016D01*
X25124570Y-62499500D01*
X25124565Y-62499500D01*
X24875435Y-62499500D01*
X24875429Y-62499500D01*
X24628442Y-62532016D01*
X24387789Y-62596499D01*
X24157622Y-62691838D01*
X23941874Y-62816400D01*
X23744222Y-62968063D01*
X23568063Y-63144222D01*
X23416400Y-63341874D01*
X23291838Y-63557622D01*
X23196499Y-63787789D01*
X23132016Y-64028442D01*
X23099500Y-64275429D01*
X18300000Y-64275429D01*
X18300000Y-56199992D01*
X23099500Y-56199992D01*
X23099500Y-58600008D01*
X23108250Y-58685665D01*
X23110001Y-58702798D01*
X23165187Y-58869336D01*
X23245474Y-58999500D01*
X23257289Y-59018655D01*
X23381345Y-59142711D01*
X23530666Y-59234814D01*
X23697203Y-59289999D01*
X23799992Y-59300500D01*
X25974457Y-59300500D01*
X26031475Y-59311841D01*
X26035672Y-59313580D01*
X26171006Y-59340500D01*
X26171007Y-59340500D01*
X35763714Y-59340500D01*
X35838214Y-59360462D01*
X35884258Y-59401921D01*
X35969890Y-59519785D01*
X35969895Y-59519791D01*
X35969896Y-59519792D01*
X36120208Y-59670104D01*
X36198844Y-59727236D01*
X36284482Y-59789456D01*
X36333020Y-59849396D01*
X36345086Y-59925575D01*
X36317446Y-59997580D01*
X36284482Y-60030544D01*
X36120209Y-60149895D01*
X36120206Y-60149897D01*
X35969897Y-60300206D01*
X35969895Y-60300209D01*
X35844950Y-60472181D01*
X35844950Y-60472182D01*
X35748446Y-60661582D01*
X35748441Y-60661594D01*
X35682754Y-60863756D01*
X35682013Y-60868435D01*
X35649500Y-61073713D01*
X35649500Y-61286287D01*
X35682754Y-61496243D01*
X35748443Y-61698412D01*
X35839698Y-61877511D01*
X35844950Y-61887817D01*
X35844950Y-61887818D01*
X35907422Y-61973804D01*
X35969896Y-62059792D01*
X36120208Y-62210104D01*
X36198844Y-62267236D01*
X36284482Y-62329456D01*
X36333020Y-62389396D01*
X36345086Y-62465575D01*
X36317446Y-62537580D01*
X36284482Y-62570544D01*
X36120209Y-62689895D01*
X36120206Y-62689897D01*
X35969897Y-62840206D01*
X35969895Y-62840209D01*
X35844950Y-63012181D01*
X35844950Y-63012182D01*
X35844949Y-63012184D01*
X35748443Y-63201588D01*
X35682754Y-63403757D01*
X35649500Y-63613713D01*
X35649500Y-63826287D01*
X35682754Y-64036243D01*
X35748443Y-64238412D01*
X35844949Y-64427816D01*
X35969896Y-64599792D01*
X36120208Y-64750104D01*
X36292184Y-64875051D01*
X36481588Y-64971557D01*
X36683757Y-65037246D01*
X36893713Y-65070500D01*
X36893718Y-65070500D01*
X37106282Y-65070500D01*
X37106287Y-65070500D01*
X37316243Y-65037246D01*
X37518412Y-64971557D01*
X37707816Y-64875051D01*
X37879792Y-64750104D01*
X38030104Y-64599792D01*
X38155051Y-64427816D01*
X38251557Y-64238412D01*
X38317246Y-64036243D01*
X38350500Y-63826287D01*
X38350500Y-63613713D01*
X38317246Y-63403757D01*
X38251557Y-63201588D01*
X38155051Y-63012184D01*
X38030104Y-62840208D01*
X37879792Y-62689896D01*
X37715517Y-62570544D01*
X37666979Y-62510604D01*
X37654913Y-62434426D01*
X37682553Y-62362420D01*
X37715517Y-62329456D01*
X37722519Y-62324368D01*
X37879792Y-62210104D01*
X38030104Y-62059792D01*
X38155051Y-61887816D01*
X38251557Y-61698412D01*
X38317246Y-61496243D01*
X38350500Y-61286287D01*
X38350500Y-61073713D01*
X38317246Y-60863757D01*
X38288546Y-60775429D01*
X44784500Y-60775429D01*
X44784500Y-61024570D01*
X44817016Y-61271557D01*
X44817017Y-61271563D01*
X44817018Y-61271565D01*
X44881498Y-61512207D01*
X44976836Y-61742373D01*
X45101401Y-61958127D01*
X45253062Y-62155776D01*
X45429224Y-62331938D01*
X45626873Y-62483599D01*
X45842627Y-62608164D01*
X46072793Y-62703502D01*
X46313435Y-62767982D01*
X46313441Y-62767982D01*
X46313442Y-62767983D01*
X46380586Y-62776822D01*
X46560435Y-62800500D01*
X46809565Y-62800500D01*
X47056565Y-62767982D01*
X47297207Y-62703502D01*
X47527373Y-62608164D01*
X47743127Y-62483599D01*
X47940776Y-62331938D01*
X48116938Y-62155776D01*
X48268599Y-61958127D01*
X48393164Y-61742373D01*
X48488502Y-61512207D01*
X48552982Y-61271565D01*
X48585500Y-61024565D01*
X48585500Y-60775435D01*
X48552982Y-60528435D01*
X48488502Y-60287793D01*
X48393164Y-60057627D01*
X48268599Y-59841873D01*
X48116938Y-59644224D01*
X47940776Y-59468062D01*
X47743127Y-59316401D01*
X47628983Y-59250500D01*
X47527377Y-59191838D01*
X47527375Y-59191837D01*
X47527373Y-59191836D01*
X47392548Y-59135989D01*
X47297210Y-59096499D01*
X47297208Y-59096498D01*
X47297207Y-59096498D01*
X47056565Y-59032018D01*
X47056563Y-59032017D01*
X47056557Y-59032016D01*
X46809570Y-58999500D01*
X46809565Y-58999500D01*
X46560435Y-58999500D01*
X46560429Y-58999500D01*
X46313442Y-59032016D01*
X46072789Y-59096499D01*
X45842622Y-59191838D01*
X45626874Y-59316400D01*
X45429222Y-59468063D01*
X45253063Y-59644222D01*
X45101400Y-59841874D01*
X44976838Y-60057622D01*
X44881499Y-60287789D01*
X44817016Y-60528442D01*
X44784500Y-60775429D01*
X38288546Y-60775429D01*
X38251557Y-60661588D01*
X38155051Y-60472184D01*
X38152980Y-60469334D01*
X38130283Y-60438093D01*
X38030104Y-60300208D01*
X37879792Y-60149896D01*
X37715517Y-60030544D01*
X37666979Y-59970604D01*
X37654913Y-59894426D01*
X37682553Y-59822420D01*
X37715517Y-59789456D01*
X37762277Y-59755483D01*
X37879792Y-59670104D01*
X38030104Y-59519792D01*
X38155051Y-59347816D01*
X38251557Y-59158412D01*
X38317246Y-58956243D01*
X38350500Y-58746287D01*
X38350500Y-58533713D01*
X38317246Y-58323757D01*
X38251557Y-58121588D01*
X38155051Y-57932184D01*
X38030104Y-57760208D01*
X37944076Y-57674180D01*
X37905512Y-57607385D01*
X37905512Y-57530257D01*
X37944076Y-57463462D01*
X37997366Y-57429215D01*
X38028278Y-57417685D01*
X38092327Y-57393798D01*
X38092333Y-57393795D01*
X38149938Y-57350671D01*
X38207546Y-57307546D01*
X38293796Y-57192331D01*
X38303921Y-57165186D01*
X38328420Y-57099500D01*
X38344091Y-57057483D01*
X38345823Y-57041370D01*
X38350499Y-56997885D01*
X38350499Y-56997882D01*
X38350500Y-56997873D01*
X38350499Y-55202128D01*
X38344091Y-55142517D01*
X38312615Y-55058125D01*
X38293797Y-55007670D01*
X38293795Y-55007666D01*
X38207547Y-54892455D01*
X38207544Y-54892452D01*
X38092333Y-54806204D01*
X38092329Y-54806202D01*
X37957482Y-54755908D01*
X37897876Y-54749500D01*
X36102136Y-54749500D01*
X36102111Y-54749502D01*
X36042521Y-54755908D01*
X36042515Y-54755909D01*
X35907670Y-54806202D01*
X35907666Y-54806204D01*
X35792455Y-54892452D01*
X35792452Y-54892455D01*
X35706204Y-55007666D01*
X35706202Y-55007670D01*
X35655908Y-55142517D01*
X35649500Y-55202114D01*
X35649500Y-56997863D01*
X35649502Y-56997888D01*
X35655908Y-57057478D01*
X35655909Y-57057484D01*
X35706202Y-57192329D01*
X35706204Y-57192333D01*
X35792452Y-57307544D01*
X35792455Y-57307547D01*
X35907666Y-57393795D01*
X35907668Y-57393795D01*
X35907669Y-57393796D01*
X36002633Y-57429215D01*
X36065460Y-57473953D01*
X36097501Y-57544111D01*
X36090170Y-57620890D01*
X36064492Y-57664849D01*
X36060398Y-57669705D01*
X35969896Y-57760208D01*
X35881103Y-57882421D01*
X35877642Y-57886528D01*
X35850256Y-57905613D01*
X35824318Y-57926618D01*
X35818272Y-57927902D01*
X35814364Y-57930627D01*
X35799492Y-57931894D01*
X35763714Y-57939500D01*
X27049500Y-57939500D01*
X26975000Y-57919538D01*
X26920462Y-57865000D01*
X26900500Y-57790500D01*
X26900500Y-56199996D01*
X26900500Y-56199992D01*
X26889999Y-56097203D01*
X26834814Y-55930666D01*
X26742711Y-55781345D01*
X26618655Y-55657289D01*
X26469334Y-55565186D01*
X26385332Y-55537350D01*
X26302798Y-55510001D01*
X26302799Y-55510001D01*
X26268534Y-55506500D01*
X26200008Y-55499500D01*
X23799992Y-55499500D01*
X23731466Y-55506500D01*
X23697201Y-55510001D01*
X23530663Y-55565187D01*
X23381344Y-55657289D01*
X23257289Y-55781344D01*
X23165187Y-55930663D01*
X23110001Y-56097201D01*
X23110001Y-56097203D01*
X23099500Y-56199992D01*
X18300000Y-56199992D01*
X18300000Y-52275429D01*
X23099500Y-52275429D01*
X23099500Y-52524570D01*
X23132016Y-52771557D01*
X23132017Y-52771563D01*
X23132018Y-52771565D01*
X23196498Y-53012207D01*
X23291836Y-53242373D01*
X23416401Y-53458127D01*
X23568062Y-53655776D01*
X23744224Y-53831938D01*
X23941873Y-53983599D01*
X24157627Y-54108164D01*
X24387793Y-54203502D01*
X24628435Y-54267982D01*
X24628441Y-54267982D01*
X24628442Y-54267983D01*
X24695586Y-54276822D01*
X24875435Y-54300500D01*
X25124565Y-54300500D01*
X25371565Y-54267982D01*
X25612207Y-54203502D01*
X25842373Y-54108164D01*
X26058127Y-53983599D01*
X26255776Y-53831938D01*
X26431938Y-53655776D01*
X26583599Y-53458127D01*
X26708164Y-53242373D01*
X26803502Y-53012207D01*
X26867982Y-52771565D01*
X26900500Y-52524565D01*
X26900500Y-52275435D01*
X26867982Y-52028435D01*
X26803502Y-51787793D01*
X26708164Y-51557627D01*
X26583599Y-51341873D01*
X26431938Y-51144224D01*
X26255776Y-50968062D01*
X26058127Y-50816401D01*
X25986209Y-50774879D01*
X25842377Y-50691838D01*
X25842375Y-50691837D01*
X25842373Y-50691836D01*
X25707548Y-50635989D01*
X25612210Y-50596499D01*
X25612208Y-50596498D01*
X25612207Y-50596498D01*
X25371565Y-50532018D01*
X25371563Y-50532017D01*
X25371557Y-50532016D01*
X25124570Y-50499500D01*
X25124565Y-50499500D01*
X24875435Y-50499500D01*
X24875429Y-50499500D01*
X24628442Y-50532016D01*
X24387789Y-50596499D01*
X24157622Y-50691838D01*
X23941874Y-50816400D01*
X23744222Y-50968063D01*
X23568063Y-51144222D01*
X23416400Y-51341874D01*
X23291838Y-51557622D01*
X23196499Y-51787789D01*
X23132016Y-52028442D01*
X23099500Y-52275429D01*
X18300000Y-52275429D01*
X18300000Y-43768874D01*
X44684501Y-43768874D01*
X44684501Y-44031125D01*
X44718727Y-44291108D01*
X44786603Y-44544423D01*
X44786604Y-44544427D01*
X44866175Y-44736524D01*
X44886957Y-44786697D01*
X45018076Y-45013802D01*
X45177717Y-45221851D01*
X45363149Y-45407283D01*
X45571198Y-45566924D01*
X45798303Y-45698043D01*
X45934130Y-45754304D01*
X46040572Y-45798395D01*
X46040576Y-45798396D01*
X46040581Y-45798398D01*
X46293884Y-45866271D01*
X46293890Y-45866271D01*
X46293891Y-45866272D01*
X46364579Y-45875577D01*
X46553880Y-45900499D01*
X46816120Y-45900499D01*
X47076116Y-45866271D01*
X47329419Y-45798398D01*
X47329425Y-45798395D01*
X47329427Y-45798395D01*
X47375777Y-45779196D01*
X47571697Y-45698043D01*
X47798802Y-45566924D01*
X48006851Y-45407283D01*
X50571693Y-42842441D01*
X50638488Y-42803877D01*
X50677052Y-42798800D01*
X67068194Y-42798800D01*
X67142694Y-42818762D01*
X67197232Y-42873300D01*
X67217194Y-42947800D01*
X67197232Y-43022300D01*
X67197231Y-43022301D01*
X67176839Y-43057619D01*
X67081499Y-43287789D01*
X67017017Y-43528436D01*
X67017015Y-43528446D01*
X67005801Y-43613626D01*
X66976285Y-43684883D01*
X66963435Y-43699535D01*
X49911015Y-60751956D01*
X49844220Y-60790520D01*
X49828966Y-60793762D01*
X49818340Y-60795444D01*
X49818333Y-60795446D01*
X49608105Y-60863754D01*
X49593708Y-60868432D01*
X49593702Y-60868434D01*
X49593702Y-60868435D01*
X49383265Y-60975658D01*
X49192199Y-61114476D01*
X49192188Y-61114485D01*
X49025185Y-61281488D01*
X49025176Y-61281499D01*
X48886358Y-61472565D01*
X48886357Y-61472567D01*
X48779132Y-61683008D01*
X48706147Y-61907632D01*
X48669200Y-62140908D01*
X48669200Y-62377092D01*
X48706147Y-62610368D01*
X48779132Y-62834992D01*
X48886357Y-63045433D01*
X49025183Y-63236510D01*
X49192190Y-63403517D01*
X49383267Y-63542343D01*
X49593708Y-63649568D01*
X49818332Y-63722553D01*
X50051608Y-63759500D01*
X50051613Y-63759500D01*
X50644087Y-63759500D01*
X50644092Y-63759500D01*
X50877368Y-63722553D01*
X51101992Y-63649568D01*
X51312434Y-63542343D01*
X51503510Y-63403517D01*
X54125119Y-60781908D01*
X57947600Y-60781908D01*
X57947600Y-61018092D01*
X57984547Y-61251368D01*
X58057532Y-61475992D01*
X58164757Y-61686433D01*
X58303583Y-61877510D01*
X58470590Y-62044517D01*
X58661667Y-62183343D01*
X58872108Y-62290568D01*
X59096732Y-62363553D01*
X59330008Y-62400500D01*
X67667998Y-62400500D01*
X67742498Y-62420462D01*
X67758698Y-62431286D01*
X67826873Y-62483599D01*
X68042627Y-62608164D01*
X68272793Y-62703502D01*
X68513435Y-62767982D01*
X68513441Y-62767982D01*
X68513442Y-62767983D01*
X68580586Y-62776822D01*
X68760435Y-62800500D01*
X69009565Y-62800500D01*
X69256565Y-62767982D01*
X69497207Y-62703502D01*
X69727373Y-62608164D01*
X69943127Y-62483599D01*
X70140776Y-62331938D01*
X70316938Y-62155776D01*
X70468599Y-61958127D01*
X70593164Y-61742373D01*
X70688502Y-61512207D01*
X70752982Y-61271565D01*
X70785500Y-61024565D01*
X70785500Y-60775435D01*
X70785499Y-60775429D01*
X81284500Y-60775429D01*
X81284500Y-61024570D01*
X81317016Y-61271557D01*
X81317017Y-61271563D01*
X81317018Y-61271565D01*
X81381498Y-61512207D01*
X81476836Y-61742373D01*
X81601401Y-61958127D01*
X81753062Y-62155776D01*
X81929224Y-62331938D01*
X82126873Y-62483599D01*
X82342627Y-62608164D01*
X82572793Y-62703502D01*
X82813435Y-62767982D01*
X82813441Y-62767982D01*
X82813442Y-62767983D01*
X82880586Y-62776822D01*
X83060435Y-62800500D01*
X83309565Y-62800500D01*
X83556565Y-62767982D01*
X83797207Y-62703502D01*
X84027373Y-62608164D01*
X84243127Y-62483599D01*
X84440776Y-62331938D01*
X84616938Y-62155776D01*
X84768599Y-61958127D01*
X84893164Y-61742373D01*
X84988502Y-61512207D01*
X85052982Y-61271565D01*
X85085500Y-61024565D01*
X85085500Y-60775435D01*
X85052982Y-60528435D01*
X84988502Y-60287793D01*
X84893164Y-60057627D01*
X84768599Y-59841873D01*
X84616938Y-59644224D01*
X84440776Y-59468062D01*
X84243127Y-59316401D01*
X84128983Y-59250500D01*
X84027377Y-59191838D01*
X84027375Y-59191837D01*
X84027373Y-59191836D01*
X83892548Y-59135989D01*
X83797210Y-59096499D01*
X83797208Y-59096498D01*
X83797207Y-59096498D01*
X83556565Y-59032018D01*
X83556563Y-59032017D01*
X83556557Y-59032016D01*
X83309570Y-58999500D01*
X83309565Y-58999500D01*
X83060435Y-58999500D01*
X83060429Y-58999500D01*
X82813442Y-59032016D01*
X82572789Y-59096499D01*
X82342622Y-59191838D01*
X82126874Y-59316400D01*
X81929222Y-59468063D01*
X81753063Y-59644222D01*
X81601400Y-59841874D01*
X81476838Y-60057622D01*
X81381499Y-60287789D01*
X81317016Y-60528442D01*
X81284500Y-60775429D01*
X70785499Y-60775429D01*
X70752982Y-60528435D01*
X70688502Y-60287793D01*
X70593164Y-60057627D01*
X70468599Y-59841873D01*
X70316938Y-59644224D01*
X70140776Y-59468062D01*
X69943127Y-59316401D01*
X69828983Y-59250500D01*
X69727377Y-59191838D01*
X69727375Y-59191837D01*
X69727373Y-59191836D01*
X69592548Y-59135989D01*
X69497210Y-59096499D01*
X69497208Y-59096498D01*
X69497207Y-59096498D01*
X69256565Y-59032018D01*
X69256563Y-59032017D01*
X69256557Y-59032016D01*
X69009570Y-58999500D01*
X69009565Y-58999500D01*
X68760435Y-58999500D01*
X68760429Y-58999500D01*
X68513442Y-59032016D01*
X68272789Y-59096499D01*
X68042622Y-59191838D01*
X67826874Y-59316400D01*
X67803704Y-59334178D01*
X67758701Y-59368710D01*
X67687446Y-59398225D01*
X67667998Y-59399500D01*
X59330008Y-59399500D01*
X59096732Y-59436447D01*
X58872108Y-59509432D01*
X58872102Y-59509434D01*
X58872102Y-59509435D01*
X58661665Y-59616658D01*
X58470599Y-59755476D01*
X58470588Y-59755485D01*
X58303585Y-59922488D01*
X58303576Y-59922499D01*
X58164758Y-60113565D01*
X58057535Y-60324002D01*
X58057530Y-60324014D01*
X58009387Y-60472182D01*
X57984547Y-60548632D01*
X57947600Y-60781908D01*
X54125119Y-60781908D01*
X69085465Y-45821561D01*
X69152258Y-45782999D01*
X69171360Y-45779199D01*
X69256565Y-45767982D01*
X69497207Y-45703502D01*
X69727373Y-45608164D01*
X69943127Y-45483599D01*
X70140776Y-45331938D01*
X70316938Y-45155776D01*
X70468599Y-44958127D01*
X70593164Y-44742373D01*
X70688502Y-44512207D01*
X70752982Y-44271565D01*
X70785500Y-44024565D01*
X70785500Y-43775435D01*
X70761822Y-43595586D01*
X70752983Y-43528442D01*
X70752982Y-43528441D01*
X70752982Y-43528435D01*
X70688502Y-43287793D01*
X70593164Y-43057627D01*
X70593161Y-43057621D01*
X70593160Y-43057619D01*
X70572769Y-43022301D01*
X70552806Y-42947801D01*
X70572768Y-42873301D01*
X70627305Y-42818763D01*
X70701805Y-42798800D01*
X79192948Y-42798800D01*
X79267448Y-42818762D01*
X79298307Y-42842441D01*
X81677717Y-45221851D01*
X81863149Y-45407283D01*
X82071198Y-45566924D01*
X82296848Y-45697203D01*
X82296850Y-45697204D01*
X82296849Y-45697204D01*
X82298303Y-45698043D01*
X82298304Y-45698044D01*
X82540572Y-45798395D01*
X82540576Y-45798396D01*
X82540581Y-45798398D01*
X82793884Y-45866271D01*
X82793890Y-45866271D01*
X82793891Y-45866272D01*
X82864579Y-45875577D01*
X83053880Y-45900499D01*
X83316120Y-45900499D01*
X83576116Y-45866271D01*
X83829419Y-45798398D01*
X83829425Y-45798395D01*
X83829427Y-45798395D01*
X83875777Y-45779196D01*
X84071697Y-45698043D01*
X84298802Y-45566924D01*
X84506851Y-45407283D01*
X87136393Y-42777741D01*
X87203188Y-42739177D01*
X87241752Y-42734100D01*
X103605548Y-42734100D01*
X103680048Y-42754062D01*
X103734586Y-42808600D01*
X103754548Y-42883100D01*
X103734586Y-42957600D01*
X103676838Y-43057621D01*
X103581499Y-43287789D01*
X103517016Y-43528442D01*
X103484500Y-43775429D01*
X103484500Y-44024570D01*
X103517016Y-44271557D01*
X103581499Y-44512210D01*
X103676838Y-44742377D01*
X103759879Y-44886209D01*
X103801401Y-44958127D01*
X103844122Y-45013802D01*
X103853710Y-45026297D01*
X103883225Y-45097554D01*
X103884500Y-45117002D01*
X103884500Y-47752654D01*
X103864538Y-47827154D01*
X103840859Y-47858013D01*
X82006963Y-69691908D01*
X81940168Y-69730472D01*
X81863040Y-69730472D01*
X81796245Y-69691908D01*
X81768846Y-69654195D01*
X81675843Y-69471667D01*
X81537017Y-69280590D01*
X81370010Y-69113583D01*
X81178933Y-68974757D01*
X80968492Y-68867532D01*
X80743868Y-68794547D01*
X80510592Y-68757600D01*
X54444992Y-68757600D01*
X54208808Y-68757600D01*
X53975532Y-68794547D01*
X53750908Y-68867532D01*
X53750902Y-68867534D01*
X53750902Y-68867535D01*
X53540465Y-68974758D01*
X53540464Y-68974758D01*
X53349391Y-69113581D01*
X53349388Y-69113583D01*
X46484536Y-75978435D01*
X46417741Y-76016999D01*
X46398627Y-76020801D01*
X46313446Y-76032015D01*
X46313436Y-76032017D01*
X46072789Y-76096499D01*
X45842622Y-76191838D01*
X45626874Y-76316400D01*
X45429222Y-76468063D01*
X45253063Y-76644222D01*
X45101400Y-76841874D01*
X44976838Y-77057622D01*
X44881499Y-77287789D01*
X44817016Y-77528442D01*
X44784500Y-77775429D01*
X44784500Y-78024570D01*
X44817016Y-78271557D01*
X44817017Y-78271563D01*
X44817018Y-78271565D01*
X44845629Y-78378344D01*
X44881499Y-78512210D01*
X44976838Y-78742377D01*
X45034571Y-78842373D01*
X45101401Y-78958127D01*
X45253062Y-79155776D01*
X45429224Y-79331938D01*
X45626873Y-79483599D01*
X45842627Y-79608164D01*
X46072793Y-79703502D01*
X46313435Y-79767982D01*
X46313441Y-79767982D01*
X46313442Y-79767983D01*
X46380586Y-79776822D01*
X46560435Y-79800500D01*
X46809565Y-79800500D01*
X47056565Y-79767982D01*
X47297207Y-79703502D01*
X47527373Y-79608164D01*
X47743127Y-79483599D01*
X47940776Y-79331938D01*
X48116938Y-79155776D01*
X48268599Y-78958127D01*
X48393164Y-78742373D01*
X48488502Y-78512207D01*
X48552982Y-78271565D01*
X48564197Y-78186371D01*
X48593711Y-78115117D01*
X48606555Y-78100470D01*
X54904787Y-71802241D01*
X54971582Y-71763677D01*
X55010146Y-71758600D01*
X79580555Y-71758600D01*
X79655055Y-71778562D01*
X79709593Y-71833100D01*
X79729555Y-71907600D01*
X79709593Y-71982100D01*
X79685914Y-72012959D01*
X73320527Y-78378344D01*
X73253732Y-78416908D01*
X73176604Y-78416908D01*
X73109809Y-78378344D01*
X73084710Y-78343800D01*
X73084579Y-78343881D01*
X73083555Y-78342210D01*
X73082410Y-78340634D01*
X73081523Y-78338894D01*
X73081522Y-78338892D01*
X73032600Y-78271557D01*
X72965829Y-78179654D01*
X72826646Y-78040471D01*
X72667405Y-77924776D01*
X72492026Y-77835416D01*
X72304827Y-77774591D01*
X72110417Y-77743800D01*
X71913584Y-77743800D01*
X71825215Y-77757795D01*
X71719168Y-77774591D01*
X71719168Y-77774592D01*
X71542684Y-77831936D01*
X71531974Y-77835416D01*
X71531968Y-77835418D01*
X71531968Y-77835419D01*
X71356593Y-77924777D01*
X71197354Y-78040471D01*
X71031023Y-78206802D01*
X70964228Y-78245366D01*
X70887100Y-78245366D01*
X70820305Y-78206802D01*
X70781741Y-78140007D01*
X70777939Y-78081993D01*
X70785500Y-78024565D01*
X70785500Y-77775435D01*
X70752982Y-77528435D01*
X70688502Y-77287793D01*
X70593164Y-77057627D01*
X70468599Y-76841873D01*
X70316938Y-76644224D01*
X70140776Y-76468062D01*
X69943127Y-76316401D01*
X69808054Y-76238417D01*
X69727377Y-76191838D01*
X69727375Y-76191837D01*
X69727373Y-76191836D01*
X69582955Y-76132016D01*
X69497210Y-76096499D01*
X69497208Y-76096498D01*
X69497207Y-76096498D01*
X69256565Y-76032018D01*
X69256563Y-76032017D01*
X69256557Y-76032016D01*
X69009570Y-75999500D01*
X69009565Y-75999500D01*
X68760435Y-75999500D01*
X68760429Y-75999500D01*
X68513442Y-76032016D01*
X68272789Y-76096499D01*
X68042622Y-76191838D01*
X67826874Y-76316400D01*
X67629222Y-76468063D01*
X67453063Y-76644222D01*
X67301400Y-76841874D01*
X67176838Y-77057622D01*
X67081499Y-77287789D01*
X67017016Y-77528442D01*
X66984500Y-77775429D01*
X66984500Y-78024570D01*
X67017016Y-78271557D01*
X67017017Y-78271563D01*
X67017018Y-78271565D01*
X67045629Y-78378344D01*
X67081499Y-78512210D01*
X67176838Y-78742377D01*
X67234571Y-78842373D01*
X67301401Y-78958127D01*
X67453062Y-79155776D01*
X67629224Y-79331938D01*
X67826873Y-79483599D01*
X68042627Y-79608164D01*
X68272793Y-79703502D01*
X68513435Y-79767982D01*
X68513441Y-79767982D01*
X68513442Y-79767983D01*
X68580586Y-79776822D01*
X68760435Y-79800500D01*
X69009565Y-79800500D01*
X69066994Y-79792939D01*
X69143460Y-79803005D01*
X69204651Y-79849957D01*
X69234167Y-79921214D01*
X69224101Y-79997682D01*
X69191801Y-80046023D01*
X55631967Y-93605859D01*
X55565172Y-93644423D01*
X55526608Y-93649500D01*
X48183932Y-93649500D01*
X48109432Y-93629538D01*
X48078573Y-93605859D01*
X47940777Y-93468063D01*
X47934781Y-93463462D01*
X47743127Y-93316401D01*
X47528234Y-93192333D01*
X47527377Y-93191838D01*
X47527375Y-93191837D01*
X47527373Y-93191836D01*
X47392548Y-93135989D01*
X47297210Y-93096499D01*
X47297208Y-93096498D01*
X47297207Y-93096498D01*
X47056565Y-93032018D01*
X47056563Y-93032017D01*
X47056557Y-93032016D01*
X46809570Y-92999500D01*
X46809565Y-92999500D01*
X46560435Y-92999500D01*
X46560429Y-92999500D01*
X46313442Y-93032016D01*
X46072789Y-93096499D01*
X45842622Y-93191838D01*
X45626874Y-93316400D01*
X45429222Y-93468063D01*
X45253063Y-93644222D01*
X45101400Y-93841874D01*
X44976838Y-94057622D01*
X44881499Y-94287789D01*
X44817016Y-94528442D01*
X44784500Y-94775429D01*
X44784500Y-95024570D01*
X44817016Y-95271557D01*
X44817017Y-95271563D01*
X44817018Y-95271565D01*
X44855277Y-95414351D01*
X44881499Y-95512210D01*
X44976838Y-95742377D01*
X45023051Y-95822420D01*
X45101401Y-95958127D01*
X45253062Y-96155776D01*
X45429224Y-96331938D01*
X45626873Y-96483599D01*
X45842627Y-96608164D01*
X46072793Y-96703502D01*
X46313435Y-96767982D01*
X46313441Y-96767982D01*
X46313442Y-96767983D01*
X46380586Y-96776822D01*
X46560435Y-96800500D01*
X46809565Y-96800500D01*
X47056565Y-96767982D01*
X47297207Y-96703502D01*
X47527373Y-96608164D01*
X47743127Y-96483599D01*
X47940776Y-96331938D01*
X48078573Y-96194141D01*
X48145368Y-96155577D01*
X48183932Y-96150500D01*
X55188655Y-96150500D01*
X55263155Y-96170462D01*
X55317693Y-96225000D01*
X55337655Y-96299500D01*
X55317693Y-96374000D01*
X55294014Y-96404859D01*
X50615477Y-101083396D01*
X50499971Y-101242377D01*
X50476657Y-101274466D01*
X50420849Y-101383996D01*
X50418834Y-101387951D01*
X50369434Y-101484902D01*
X50369430Y-101484914D01*
X50336699Y-101585649D01*
X50296447Y-101709532D01*
X50259500Y-101942808D01*
X50259500Y-101942812D01*
X50259500Y-122800500D01*
X50239538Y-122875000D01*
X50185000Y-122929538D01*
X50110500Y-122949500D01*
X48322136Y-122949500D01*
X48322111Y-122949502D01*
X48262521Y-122955908D01*
X48262515Y-122955909D01*
X48127670Y-123006202D01*
X48127666Y-123006204D01*
X48012455Y-123092452D01*
X48012452Y-123092455D01*
X47926204Y-123207666D01*
X47926202Y-123207670D01*
X47875908Y-123342517D01*
X47869500Y-123402114D01*
X47869500Y-125197863D01*
X47869502Y-125197888D01*
X47875908Y-125257478D01*
X47875909Y-125257484D01*
X47926202Y-125392329D01*
X47926204Y-125392333D01*
X48012452Y-125507544D01*
X48012455Y-125507547D01*
X48127666Y-125593795D01*
X48127670Y-125593797D01*
X48262517Y-125644091D01*
X48322114Y-125650499D01*
X48322118Y-125650499D01*
X48322127Y-125650500D01*
X50117872Y-125650499D01*
X50177483Y-125644091D01*
X50273447Y-125608298D01*
X50312329Y-125593797D01*
X50312333Y-125593795D01*
X50369938Y-125550671D01*
X50427546Y-125507546D01*
X50503438Y-125406167D01*
X50564063Y-125358491D01*
X50640406Y-125347515D01*
X50712009Y-125376180D01*
X50728068Y-125390095D01*
X50782490Y-125444517D01*
X50973567Y-125583343D01*
X51184008Y-125690568D01*
X51408632Y-125763553D01*
X51641908Y-125800500D01*
X51641913Y-125800500D01*
X51878087Y-125800500D01*
X51878092Y-125800500D01*
X52111368Y-125763553D01*
X52335992Y-125690568D01*
X52546433Y-125583343D01*
X52737510Y-125444517D01*
X52904517Y-125277510D01*
X53018931Y-125120031D01*
X53078868Y-125071497D01*
X53151164Y-125059074D01*
X53184730Y-125061715D01*
X53817037Y-124429408D01*
X53834075Y-124492993D01*
X53899901Y-124607007D01*
X53992993Y-124700099D01*
X54107007Y-124765925D01*
X54170590Y-124782962D01*
X53538282Y-125415270D01*
X53592444Y-125454621D01*
X53592444Y-125454622D01*
X53781779Y-125551093D01*
X53983871Y-125616757D01*
X54193758Y-125650000D01*
X54406242Y-125650000D01*
X54616128Y-125616757D01*
X54818220Y-125551093D01*
X55007555Y-125454622D01*
X55007557Y-125454620D01*
X55061716Y-125415270D01*
X55061716Y-125415269D01*
X54429409Y-124782962D01*
X54492993Y-124765925D01*
X54607007Y-124700099D01*
X54700099Y-124607007D01*
X54765925Y-124492993D01*
X54782962Y-124429409D01*
X55415269Y-125061716D01*
X55415270Y-125061716D01*
X55454620Y-125007557D01*
X55454622Y-125007555D01*
X55551093Y-124818220D01*
X55616757Y-124616128D01*
X55650000Y-124406242D01*
X55650000Y-124193757D01*
X55616757Y-123983871D01*
X55551093Y-123781779D01*
X55454621Y-123592444D01*
X55415270Y-123538282D01*
X54782962Y-124170589D01*
X54765925Y-124107007D01*
X54700099Y-123992993D01*
X54607007Y-123899901D01*
X54492993Y-123834075D01*
X54429408Y-123817037D01*
X55061716Y-123184729D01*
X55061716Y-123184728D01*
X55007555Y-123145378D01*
X55007555Y-123145377D01*
X54818220Y-123048906D01*
X54616128Y-122983242D01*
X54406242Y-122950000D01*
X54193758Y-122950000D01*
X53983871Y-122983242D01*
X53781779Y-123048906D01*
X53592444Y-123145378D01*
X53592443Y-123145378D01*
X53497080Y-123214664D01*
X53425074Y-123242304D01*
X53348896Y-123230238D01*
X53288956Y-123181700D01*
X53261316Y-123109694D01*
X53260500Y-123094120D01*
X53260500Y-102744145D01*
X53280462Y-102669645D01*
X53304141Y-102638786D01*
X59331241Y-96611686D01*
X59398036Y-96573122D01*
X59475164Y-96573122D01*
X59541959Y-96611686D01*
X59580523Y-96678481D01*
X59585600Y-96717045D01*
X59585600Y-125478008D01*
X59585600Y-125714192D01*
X59622547Y-125947468D01*
X59695532Y-126172092D01*
X59695536Y-126172101D01*
X59695537Y-126172102D01*
X59802754Y-126382530D01*
X59929400Y-126556841D01*
X59941583Y-126573610D01*
X60866290Y-127498318D01*
X61057367Y-127637143D01*
X61267808Y-127744368D01*
X61492432Y-127817353D01*
X61725708Y-127854300D01*
X61725713Y-127854300D01*
X64695087Y-127854300D01*
X64695092Y-127854300D01*
X64928368Y-127817353D01*
X65152992Y-127744368D01*
X65363434Y-127637143D01*
X65554510Y-127498317D01*
X66904518Y-126148310D01*
X67043343Y-125957233D01*
X67150568Y-125746792D01*
X67223553Y-125522168D01*
X67233179Y-125461387D01*
X67264550Y-125390929D01*
X67326947Y-125345594D01*
X67403653Y-125337531D01*
X67467925Y-125364154D01*
X67592435Y-125454616D01*
X67592444Y-125454621D01*
X67781779Y-125551093D01*
X67983871Y-125616757D01*
X68193758Y-125650000D01*
X68406242Y-125650000D01*
X68616128Y-125616757D01*
X68818220Y-125551093D01*
X69007555Y-125454622D01*
X69007557Y-125454620D01*
X69061716Y-125415270D01*
X68429408Y-124782962D01*
X68492993Y-124765925D01*
X68607007Y-124700099D01*
X68700099Y-124607007D01*
X68765925Y-124492993D01*
X68782962Y-124429409D01*
X69415269Y-125061716D01*
X69415270Y-125061716D01*
X69454620Y-125007557D01*
X69454622Y-125007555D01*
X69551093Y-124818220D01*
X69616757Y-124616128D01*
X69650000Y-124406242D01*
X69650000Y-124193757D01*
X69616757Y-123983871D01*
X69551093Y-123781779D01*
X69454621Y-123592444D01*
X69415270Y-123538282D01*
X68782962Y-124170589D01*
X68765925Y-124107007D01*
X68700099Y-123992993D01*
X68607007Y-123899901D01*
X68492993Y-123834075D01*
X68429407Y-123817037D01*
X69061716Y-123184729D01*
X69061716Y-123184728D01*
X69007555Y-123145378D01*
X69007555Y-123145377D01*
X68818220Y-123048906D01*
X68616128Y-122983242D01*
X68406242Y-122950000D01*
X68193758Y-122950000D01*
X67983871Y-122983242D01*
X67781779Y-123048906D01*
X67592444Y-123145378D01*
X67538282Y-123184728D01*
X67538282Y-123184729D01*
X68170590Y-123817037D01*
X68107007Y-123834075D01*
X67992993Y-123899901D01*
X67899901Y-123992993D01*
X67834075Y-124107007D01*
X67817037Y-124170591D01*
X67184729Y-123538282D01*
X67151161Y-123540924D01*
X67075325Y-123526868D01*
X67018928Y-123479963D01*
X66975514Y-123420209D01*
X66904517Y-123322490D01*
X66737510Y-123155483D01*
X66546433Y-123016657D01*
X66335992Y-122909432D01*
X66111368Y-122836447D01*
X65878092Y-122799500D01*
X65641908Y-122799500D01*
X65408632Y-122836447D01*
X65195005Y-122905859D01*
X65184008Y-122909432D01*
X65184002Y-122909434D01*
X65184002Y-122909435D01*
X64973565Y-123016658D01*
X64782499Y-123155476D01*
X64782494Y-123155479D01*
X64782490Y-123155483D01*
X64782488Y-123155485D01*
X64782487Y-123155486D01*
X64728075Y-123209898D01*
X64661280Y-123248461D01*
X64584152Y-123248461D01*
X64517357Y-123209896D01*
X64503437Y-123193831D01*
X64427547Y-123092455D01*
X64427544Y-123092452D01*
X64312333Y-123006204D01*
X64312329Y-123006202D01*
X64177482Y-122955908D01*
X64117885Y-122949500D01*
X64117873Y-122949500D01*
X62735600Y-122949500D01*
X62661100Y-122929538D01*
X62606562Y-122875000D01*
X62586600Y-122800500D01*
X62586600Y-108107783D01*
X65279400Y-108107783D01*
X65279400Y-112843583D01*
X65279400Y-113040417D01*
X65310191Y-113234826D01*
X65371016Y-113422026D01*
X65460376Y-113597405D01*
X65576072Y-113756646D01*
X72634754Y-120815329D01*
X72793995Y-120931024D01*
X72969374Y-121020384D01*
X73156574Y-121081209D01*
X73350983Y-121112000D01*
X73350984Y-121112000D01*
X73547817Y-121112000D01*
X75249208Y-121112000D01*
X75323708Y-121131962D01*
X75354567Y-121155641D01*
X76894067Y-122695141D01*
X76932631Y-122761936D01*
X76932631Y-122839064D01*
X76894067Y-122905859D01*
X76827272Y-122944423D01*
X76788708Y-122949500D01*
X76322136Y-122949500D01*
X76322111Y-122949502D01*
X76262521Y-122955908D01*
X76262515Y-122955909D01*
X76127670Y-123006202D01*
X76127666Y-123006204D01*
X76012455Y-123092452D01*
X76012452Y-123092455D01*
X75926204Y-123207666D01*
X75926202Y-123207670D01*
X75875908Y-123342517D01*
X75869500Y-123402114D01*
X75869500Y-123402127D01*
X75869500Y-124253938D01*
X75869501Y-124963200D01*
X75849539Y-125037700D01*
X75795001Y-125092238D01*
X75720501Y-125112200D01*
X75617074Y-125112200D01*
X75542574Y-125092238D01*
X75511715Y-125068559D01*
X74713087Y-124269931D01*
X74680788Y-124221591D01*
X74622895Y-124081823D01*
X74622894Y-124081821D01*
X74535289Y-123950711D01*
X74423789Y-123839211D01*
X74292679Y-123751606D01*
X74292678Y-123751605D01*
X74292676Y-123751604D01*
X74146998Y-123691263D01*
X74146994Y-123691262D01*
X73992342Y-123660500D01*
X73834658Y-123660500D01*
X73680005Y-123691262D01*
X73680001Y-123691263D01*
X73534323Y-123751604D01*
X73403207Y-123839214D01*
X73291714Y-123950707D01*
X73204104Y-124081823D01*
X73143763Y-124227501D01*
X73143762Y-124227505D01*
X73113000Y-124382157D01*
X73113000Y-124539842D01*
X73143762Y-124694494D01*
X73143763Y-124694498D01*
X73204104Y-124840176D01*
X73204105Y-124840178D01*
X73204106Y-124840179D01*
X73291711Y-124971289D01*
X73403211Y-125082789D01*
X73534321Y-125170394D01*
X73534322Y-125170394D01*
X73534323Y-125170395D01*
X73674091Y-125228288D01*
X73722431Y-125260587D01*
X74721086Y-126259242D01*
X74818658Y-126356814D01*
X74818661Y-126356816D01*
X74933384Y-126433472D01*
X74933389Y-126433475D01*
X75008066Y-126464407D01*
X75060871Y-126486280D01*
X75087791Y-126491634D01*
X75196207Y-126513200D01*
X82669125Y-126513200D01*
X82743625Y-126533162D01*
X82774484Y-126556841D01*
X89164186Y-132946542D01*
X89261758Y-133044114D01*
X89261761Y-133044116D01*
X89376484Y-133120772D01*
X89376487Y-133120774D01*
X89376488Y-133120774D01*
X89376489Y-133120775D01*
X89417548Y-133137782D01*
X89503971Y-133173580D01*
X89507121Y-133174206D01*
X89516633Y-133178075D01*
X89542103Y-133197359D01*
X89569243Y-133214234D01*
X89572543Y-133220408D01*
X89578123Y-133224633D01*
X89590539Y-133254072D01*
X89605605Y-133282253D01*
X89606797Y-133292618D01*
X89608097Y-133295698D01*
X89607605Y-133299630D01*
X89609500Y-133316095D01*
X89609500Y-133397862D01*
X89609502Y-133397888D01*
X89615908Y-133457478D01*
X89615909Y-133457484D01*
X89666202Y-133592329D01*
X89666204Y-133592333D01*
X89752452Y-133707544D01*
X89752455Y-133707547D01*
X89867666Y-133793795D01*
X89867670Y-133793797D01*
X90002517Y-133844091D01*
X90062114Y-133850499D01*
X90062118Y-133850499D01*
X90062127Y-133850500D01*
X91857872Y-133850499D01*
X91917483Y-133844091D01*
X92013447Y-133808298D01*
X92052329Y-133793797D01*
X92052333Y-133793795D01*
X92109938Y-133750671D01*
X92167546Y-133707546D01*
X92253796Y-133592331D01*
X92253797Y-133592329D01*
X92253798Y-133592327D01*
X92289215Y-133497367D01*
X92333953Y-133434540D01*
X92404110Y-133402498D01*
X92480889Y-133409829D01*
X92534180Y-133444076D01*
X92620208Y-133530104D01*
X92792184Y-133655051D01*
X92981588Y-133751557D01*
X93183757Y-133817246D01*
X93393713Y-133850500D01*
X93393718Y-133850500D01*
X93606282Y-133850500D01*
X93606287Y-133850500D01*
X93816243Y-133817246D01*
X94018412Y-133751557D01*
X94207816Y-133655051D01*
X94379792Y-133530104D01*
X94530104Y-133379792D01*
X94649767Y-133215089D01*
X94709704Y-133166552D01*
X94785883Y-133154486D01*
X94857888Y-133182126D01*
X94890852Y-133215089D01*
X94924729Y-133261716D01*
X95557037Y-132629408D01*
X95574075Y-132692993D01*
X95639901Y-132807007D01*
X95732993Y-132900099D01*
X95847007Y-132965925D01*
X95910590Y-132982962D01*
X95278281Y-133615270D01*
X95332444Y-133654621D01*
X95332444Y-133654622D01*
X95521779Y-133751093D01*
X95723871Y-133816757D01*
X95933758Y-133850000D01*
X96146242Y-133850000D01*
X96356128Y-133816757D01*
X96558220Y-133751093D01*
X96747555Y-133654622D01*
X96747557Y-133654620D01*
X96801716Y-133615270D01*
X96801716Y-133615269D01*
X96169409Y-132982962D01*
X96232993Y-132965925D01*
X96347007Y-132900099D01*
X96440099Y-132807007D01*
X96505925Y-132692993D01*
X96522962Y-132629409D01*
X97155269Y-133261716D01*
X97155270Y-133261716D01*
X97194620Y-133207557D01*
X97194622Y-133207555D01*
X97291093Y-133018220D01*
X97356757Y-132816128D01*
X97390000Y-132606242D01*
X97390000Y-132393757D01*
X97356757Y-132183871D01*
X97291093Y-131981779D01*
X97194621Y-131792444D01*
X97155270Y-131738282D01*
X96522962Y-132370589D01*
X96505925Y-132307007D01*
X96440099Y-132192993D01*
X96347007Y-132099901D01*
X96232993Y-132034075D01*
X96169407Y-132017037D01*
X96801716Y-131384729D01*
X96801716Y-131384728D01*
X96747555Y-131345378D01*
X96747555Y-131345377D01*
X96558220Y-131248906D01*
X96356128Y-131183242D01*
X96146242Y-131150000D01*
X95933758Y-131150000D01*
X95723871Y-131183242D01*
X95521779Y-131248906D01*
X95332444Y-131345378D01*
X95278282Y-131384728D01*
X95278282Y-131384729D01*
X95910590Y-132017037D01*
X95847007Y-132034075D01*
X95732993Y-132099901D01*
X95639901Y-132192993D01*
X95574075Y-132307007D01*
X95557037Y-132370590D01*
X94924729Y-131738282D01*
X94924727Y-131738282D01*
X94890852Y-131784908D01*
X94830912Y-131833446D01*
X94754734Y-131845512D01*
X94682729Y-131817871D01*
X94649765Y-131784908D01*
X94615889Y-131738282D01*
X94530104Y-131620208D01*
X94379792Y-131469896D01*
X94207816Y-131344949D01*
X94018412Y-131248443D01*
X93816243Y-131182754D01*
X93606287Y-131149500D01*
X93393713Y-131149500D01*
X93218749Y-131177211D01*
X93183756Y-131182754D01*
X92981594Y-131248441D01*
X92981588Y-131248443D01*
X92981582Y-131248445D01*
X92981582Y-131248446D01*
X92792182Y-131344950D01*
X92792181Y-131344950D01*
X92620209Y-131469895D01*
X92620198Y-131469904D01*
X92534179Y-131555923D01*
X92467384Y-131594487D01*
X92390256Y-131594487D01*
X92323462Y-131555922D01*
X92289215Y-131502633D01*
X92277008Y-131469904D01*
X92253796Y-131407669D01*
X92253795Y-131407668D01*
X92253795Y-131407666D01*
X92167547Y-131292455D01*
X92167544Y-131292452D01*
X92052333Y-131206204D01*
X92052329Y-131206202D01*
X91917482Y-131155908D01*
X91857876Y-131149500D01*
X90062136Y-131149500D01*
X90062111Y-131149502D01*
X90002521Y-131155908D01*
X90002515Y-131155909D01*
X89867670Y-131206202D01*
X89867666Y-131206204D01*
X89752455Y-131292452D01*
X89752452Y-131292455D01*
X89743744Y-131304088D01*
X89683116Y-131351763D01*
X89606773Y-131362738D01*
X89535170Y-131334070D01*
X89519107Y-131320151D01*
X83467546Y-125268589D01*
X83467545Y-125268588D01*
X83467543Y-125268586D01*
X83460020Y-125263559D01*
X83409169Y-125205570D01*
X83394125Y-125129923D01*
X83418920Y-125056889D01*
X83422264Y-125052093D01*
X83454615Y-125007566D01*
X83454621Y-125007555D01*
X83551093Y-124818220D01*
X83616757Y-124616128D01*
X83650000Y-124406242D01*
X83650000Y-124193757D01*
X83616757Y-123983871D01*
X83551093Y-123781779D01*
X83454621Y-123592444D01*
X83415270Y-123538282D01*
X82782962Y-124170589D01*
X82765925Y-124107007D01*
X82700099Y-123992993D01*
X82607007Y-123899901D01*
X82492993Y-123834075D01*
X82429407Y-123817037D01*
X83061716Y-123184729D01*
X83061716Y-123184728D01*
X83007555Y-123145378D01*
X83007555Y-123145377D01*
X82818220Y-123048906D01*
X82616128Y-122983242D01*
X82406242Y-122950000D01*
X82193758Y-122950000D01*
X81983871Y-122983242D01*
X81781779Y-123048906D01*
X81592444Y-123145378D01*
X81538282Y-123184728D01*
X81538282Y-123184729D01*
X82170590Y-123817037D01*
X82107007Y-123834075D01*
X81992993Y-123899901D01*
X81899901Y-123992993D01*
X81834075Y-124107007D01*
X81817037Y-124170590D01*
X81184729Y-123538282D01*
X81116251Y-123543672D01*
X81116030Y-123540866D01*
X81087444Y-123545387D01*
X81015444Y-123517731D01*
X80966919Y-123457781D01*
X80961344Y-123443252D01*
X80953857Y-123420209D01*
X80947982Y-123402128D01*
X80918884Y-123312574D01*
X80829524Y-123137195D01*
X80713828Y-122977954D01*
X76643546Y-118907672D01*
X76484305Y-118791976D01*
X76308926Y-118702616D01*
X76121726Y-118641791D01*
X75927317Y-118611000D01*
X75927312Y-118611000D01*
X74029093Y-118611000D01*
X73954593Y-118591038D01*
X73923734Y-118567359D01*
X73632618Y-118276243D01*
X72984496Y-117628122D01*
X72945934Y-117561329D01*
X72945934Y-117484201D01*
X72984498Y-117417406D01*
X73051293Y-117378842D01*
X73118924Y-117376628D01*
X73150802Y-117382968D01*
X73201610Y-117393074D01*
X73201611Y-117393075D01*
X73249285Y-117402558D01*
X73298259Y-117412300D01*
X73298260Y-117412300D01*
X73495340Y-117412300D01*
X91106362Y-117412300D01*
X91180862Y-117432262D01*
X91211721Y-117455941D01*
X96451421Y-122695641D01*
X96489985Y-122762436D01*
X96489985Y-122839564D01*
X96451421Y-122906359D01*
X96384626Y-122944923D01*
X96346062Y-122950000D01*
X96193758Y-122950000D01*
X95983871Y-122983242D01*
X95781779Y-123048906D01*
X95592444Y-123145378D01*
X95538282Y-123184728D01*
X95538282Y-123184729D01*
X96170591Y-123817037D01*
X96107007Y-123834075D01*
X95992993Y-123899901D01*
X95899901Y-123992993D01*
X95834075Y-124107007D01*
X95817037Y-124170590D01*
X95184729Y-123538282D01*
X95184727Y-123538282D01*
X95150852Y-123584908D01*
X95090912Y-123633446D01*
X95014734Y-123645512D01*
X94942729Y-123617871D01*
X94909765Y-123584908D01*
X94857933Y-123513567D01*
X94790104Y-123420208D01*
X94639792Y-123269896D01*
X94467816Y-123144949D01*
X94278412Y-123048443D01*
X94076243Y-122982754D01*
X93866287Y-122949500D01*
X93653713Y-122949500D01*
X93478749Y-122977211D01*
X93443756Y-122982754D01*
X93241594Y-123048441D01*
X93241588Y-123048443D01*
X93241582Y-123048445D01*
X93241582Y-123048446D01*
X93052182Y-123144950D01*
X93052181Y-123144950D01*
X92880209Y-123269895D01*
X92880198Y-123269904D01*
X92794179Y-123355923D01*
X92727384Y-123394487D01*
X92650256Y-123394487D01*
X92583462Y-123355922D01*
X92549215Y-123302633D01*
X92537008Y-123269904D01*
X92513796Y-123207669D01*
X92513795Y-123207668D01*
X92513795Y-123207666D01*
X92427547Y-123092455D01*
X92427544Y-123092452D01*
X92312333Y-123006204D01*
X92312329Y-123006202D01*
X92177482Y-122955908D01*
X92117876Y-122949500D01*
X90322136Y-122949500D01*
X90322111Y-122949502D01*
X90262521Y-122955908D01*
X90262515Y-122955909D01*
X90127670Y-123006202D01*
X90127666Y-123006204D01*
X90012455Y-123092452D01*
X90012452Y-123092455D01*
X89926204Y-123207666D01*
X89926202Y-123207670D01*
X89875908Y-123342517D01*
X89869500Y-123402114D01*
X89869500Y-125197863D01*
X89869502Y-125197888D01*
X89875908Y-125257478D01*
X89875909Y-125257484D01*
X89926202Y-125392329D01*
X89926204Y-125392333D01*
X90012452Y-125507544D01*
X90012455Y-125507547D01*
X90127666Y-125593795D01*
X90127670Y-125593797D01*
X90262517Y-125644091D01*
X90322114Y-125650499D01*
X90322118Y-125650499D01*
X90322127Y-125650500D01*
X92117872Y-125650499D01*
X92177483Y-125644091D01*
X92273447Y-125608298D01*
X92312329Y-125593797D01*
X92312333Y-125593795D01*
X92369938Y-125550671D01*
X92427546Y-125507546D01*
X92482621Y-125433975D01*
X92513795Y-125392333D01*
X92513798Y-125392327D01*
X92549215Y-125297367D01*
X92593953Y-125234540D01*
X92664110Y-125202498D01*
X92740889Y-125209829D01*
X92794180Y-125244076D01*
X92880208Y-125330104D01*
X93052184Y-125455051D01*
X93241588Y-125551557D01*
X93443757Y-125617246D01*
X93653713Y-125650500D01*
X93653718Y-125650500D01*
X93866282Y-125650500D01*
X93866287Y-125650500D01*
X94076243Y-125617246D01*
X94278412Y-125551557D01*
X94467816Y-125455051D01*
X94639792Y-125330104D01*
X94790104Y-125179792D01*
X94909767Y-125015089D01*
X94969704Y-124966552D01*
X95045883Y-124954486D01*
X95117888Y-124982126D01*
X95150852Y-125015089D01*
X95184729Y-125061716D01*
X95817037Y-124429408D01*
X95834075Y-124492993D01*
X95899901Y-124607007D01*
X95992993Y-124700099D01*
X96107007Y-124765925D01*
X96170590Y-124782962D01*
X95538282Y-125415270D01*
X95592444Y-125454621D01*
X95592444Y-125454622D01*
X95781779Y-125551093D01*
X95983871Y-125616757D01*
X96193758Y-125650000D01*
X96406242Y-125650000D01*
X96616128Y-125616757D01*
X96818220Y-125551093D01*
X97007555Y-125454622D01*
X97007557Y-125454620D01*
X97061716Y-125415270D01*
X97061716Y-125415269D01*
X96429409Y-124782962D01*
X96492993Y-124765925D01*
X96607007Y-124700099D01*
X96700099Y-124607007D01*
X96765925Y-124492993D01*
X96782962Y-124429408D01*
X97415270Y-125061716D01*
X97454620Y-125007557D01*
X97454622Y-125007555D01*
X97551093Y-124818220D01*
X97616757Y-124616128D01*
X97650000Y-124406242D01*
X97650000Y-124253938D01*
X97669962Y-124179438D01*
X97724500Y-124124900D01*
X97799000Y-124104938D01*
X97873500Y-124124900D01*
X97904356Y-124148577D01*
X101392920Y-127637141D01*
X104650920Y-130895141D01*
X104689484Y-130961936D01*
X104689484Y-131039064D01*
X104650920Y-131105859D01*
X104584125Y-131144423D01*
X104545561Y-131149500D01*
X104062136Y-131149500D01*
X104062111Y-131149502D01*
X104002521Y-131155908D01*
X104002515Y-131155909D01*
X103867670Y-131206202D01*
X103867666Y-131206204D01*
X103752455Y-131292452D01*
X103752452Y-131292455D01*
X103666204Y-131407666D01*
X103666202Y-131407670D01*
X103615908Y-131542517D01*
X103609500Y-131602114D01*
X103609500Y-133397863D01*
X103609502Y-133397888D01*
X103615908Y-133457478D01*
X103615909Y-133457484D01*
X103666202Y-133592329D01*
X103666204Y-133592333D01*
X103752452Y-133707544D01*
X103752455Y-133707547D01*
X103867666Y-133793795D01*
X103867670Y-133793797D01*
X104002517Y-133844091D01*
X104062114Y-133850499D01*
X104062118Y-133850499D01*
X104062127Y-133850500D01*
X105857872Y-133850499D01*
X105917483Y-133844091D01*
X106013447Y-133808298D01*
X106052329Y-133793797D01*
X106052333Y-133793795D01*
X106109938Y-133750671D01*
X106167546Y-133707546D01*
X106253796Y-133592331D01*
X106253797Y-133592329D01*
X106253798Y-133592327D01*
X106289215Y-133497367D01*
X106333953Y-133434540D01*
X106404110Y-133402498D01*
X106480889Y-133409829D01*
X106534180Y-133444076D01*
X106620208Y-133530104D01*
X106792184Y-133655051D01*
X106981588Y-133751557D01*
X107183757Y-133817246D01*
X107393713Y-133850500D01*
X107393718Y-133850500D01*
X107606282Y-133850500D01*
X107606287Y-133850500D01*
X107816243Y-133817246D01*
X108018412Y-133751557D01*
X108207816Y-133655051D01*
X108379792Y-133530104D01*
X108530104Y-133379792D01*
X108649767Y-133215089D01*
X108709704Y-133166552D01*
X108785883Y-133154486D01*
X108857888Y-133182126D01*
X108890852Y-133215089D01*
X108924729Y-133261716D01*
X109557037Y-132629408D01*
X109574075Y-132692993D01*
X109639901Y-132807007D01*
X109732993Y-132900099D01*
X109847007Y-132965925D01*
X109910590Y-132982962D01*
X109278281Y-133615270D01*
X109332444Y-133654621D01*
X109332444Y-133654622D01*
X109521779Y-133751093D01*
X109723871Y-133816757D01*
X109933758Y-133850000D01*
X110146242Y-133850000D01*
X110356128Y-133816757D01*
X110558220Y-133751093D01*
X110747555Y-133654622D01*
X110747557Y-133654620D01*
X110801716Y-133615270D01*
X110801716Y-133615269D01*
X110169409Y-132982962D01*
X110232993Y-132965925D01*
X110347007Y-132900099D01*
X110440099Y-132807007D01*
X110505925Y-132692993D01*
X110522962Y-132629409D01*
X111155269Y-133261716D01*
X111155270Y-133261716D01*
X111194620Y-133207557D01*
X111194622Y-133207555D01*
X111291093Y-133018220D01*
X111356757Y-132816128D01*
X111390000Y-132606242D01*
X111390000Y-132393757D01*
X111356757Y-132183873D01*
X111343751Y-132143844D01*
X111339714Y-132066822D01*
X111374729Y-131998100D01*
X111439414Y-131956093D01*
X111485458Y-131948800D01*
X113604725Y-131948800D01*
X113679225Y-131968762D01*
X113710084Y-131992441D01*
X114761756Y-133044113D01*
X114761762Y-133044118D01*
X114822554Y-133084737D01*
X114855034Y-133106439D01*
X114876489Y-133120775D01*
X115003972Y-133173580D01*
X115009475Y-133174674D01*
X115022278Y-133180508D01*
X115044638Y-133198937D01*
X115069247Y-133214239D01*
X115074006Y-133223142D01*
X115081796Y-133229563D01*
X115091945Y-133256702D01*
X115105607Y-133282259D01*
X115107430Y-133298107D01*
X115108813Y-133301804D01*
X115108245Y-133305194D01*
X115109500Y-133316095D01*
X115109500Y-133397862D01*
X115109502Y-133397888D01*
X115115908Y-133457478D01*
X115115909Y-133457484D01*
X115166202Y-133592329D01*
X115166204Y-133592333D01*
X115252452Y-133707544D01*
X115252455Y-133707547D01*
X115367666Y-133793795D01*
X115367670Y-133793797D01*
X115502517Y-133844091D01*
X115562114Y-133850499D01*
X115562118Y-133850499D01*
X115562127Y-133850500D01*
X117357872Y-133850499D01*
X117417483Y-133844091D01*
X117513447Y-133808298D01*
X117552329Y-133793797D01*
X117552333Y-133793795D01*
X117609938Y-133750671D01*
X117667546Y-133707546D01*
X117753796Y-133592331D01*
X117753797Y-133592329D01*
X117753798Y-133592327D01*
X117789215Y-133497367D01*
X117833953Y-133434540D01*
X117904110Y-133402498D01*
X117980889Y-133409829D01*
X118034180Y-133444076D01*
X118120208Y-133530104D01*
X118292184Y-133655051D01*
X118481588Y-133751557D01*
X118683757Y-133817246D01*
X118893713Y-133850500D01*
X118893718Y-133850500D01*
X119106282Y-133850500D01*
X119106287Y-133850500D01*
X119316243Y-133817246D01*
X119518412Y-133751557D01*
X119707816Y-133655051D01*
X119879792Y-133530104D01*
X120030104Y-133379792D01*
X120149767Y-133215089D01*
X120209704Y-133166552D01*
X120285883Y-133154486D01*
X120357888Y-133182126D01*
X120390852Y-133215089D01*
X120424729Y-133261716D01*
X121057037Y-132629408D01*
X121074075Y-132692993D01*
X121139901Y-132807007D01*
X121232993Y-132900099D01*
X121347007Y-132965925D01*
X121410590Y-132982962D01*
X120778281Y-133615270D01*
X120832444Y-133654621D01*
X120832444Y-133654622D01*
X121021779Y-133751093D01*
X121223871Y-133816757D01*
X121433758Y-133850000D01*
X121646242Y-133850000D01*
X121856128Y-133816757D01*
X122058220Y-133751093D01*
X122247555Y-133654622D01*
X122247557Y-133654620D01*
X122301716Y-133615270D01*
X122301716Y-133615269D01*
X121669409Y-132982962D01*
X121732993Y-132965925D01*
X121847007Y-132900099D01*
X121940099Y-132807007D01*
X122005925Y-132692993D01*
X122022962Y-132629409D01*
X122655269Y-133261716D01*
X122655270Y-133261716D01*
X122694620Y-133207557D01*
X122694622Y-133207555D01*
X122791093Y-133018220D01*
X122856757Y-132816128D01*
X122890000Y-132606242D01*
X122890000Y-132393757D01*
X122856757Y-132183871D01*
X122791093Y-131981779D01*
X122694621Y-131792444D01*
X122655270Y-131738282D01*
X122022962Y-132370589D01*
X122005925Y-132307007D01*
X121940099Y-132192993D01*
X121847007Y-132099901D01*
X121732993Y-132034075D01*
X121669407Y-132017037D01*
X122301716Y-131384729D01*
X122301716Y-131384728D01*
X122247555Y-131345378D01*
X122247555Y-131345377D01*
X122058220Y-131248906D01*
X121856128Y-131183242D01*
X121646242Y-131150000D01*
X121433758Y-131150000D01*
X121223871Y-131183242D01*
X121021779Y-131248906D01*
X120832444Y-131345378D01*
X120778282Y-131384728D01*
X120778282Y-131384729D01*
X121410590Y-132017037D01*
X121347007Y-132034075D01*
X121232993Y-132099901D01*
X121139901Y-132192993D01*
X121074075Y-132307007D01*
X121057037Y-132370590D01*
X120424729Y-131738282D01*
X120424727Y-131738282D01*
X120390852Y-131784908D01*
X120330912Y-131833446D01*
X120254734Y-131845512D01*
X120182729Y-131817871D01*
X120149765Y-131784908D01*
X120115889Y-131738282D01*
X120030104Y-131620208D01*
X119879792Y-131469896D01*
X119707816Y-131344949D01*
X119518412Y-131248443D01*
X119316243Y-131182754D01*
X119106287Y-131149500D01*
X118893713Y-131149500D01*
X118718749Y-131177211D01*
X118683756Y-131182754D01*
X118481594Y-131248441D01*
X118481588Y-131248443D01*
X118481582Y-131248445D01*
X118481582Y-131248446D01*
X118292182Y-131344950D01*
X118292181Y-131344950D01*
X118120209Y-131469895D01*
X118120198Y-131469904D01*
X118034179Y-131555923D01*
X117967384Y-131594487D01*
X117890256Y-131594487D01*
X117823462Y-131555922D01*
X117789215Y-131502633D01*
X117777008Y-131469904D01*
X117753796Y-131407669D01*
X117753795Y-131407668D01*
X117753795Y-131407666D01*
X117667547Y-131292455D01*
X117667544Y-131292452D01*
X117552333Y-131206204D01*
X117552329Y-131206202D01*
X117417482Y-131155908D01*
X117357876Y-131149500D01*
X115562136Y-131149500D01*
X115562111Y-131149502D01*
X115502521Y-131155908D01*
X115502515Y-131155909D01*
X115367670Y-131206202D01*
X115367666Y-131206204D01*
X115252455Y-131292452D01*
X115252452Y-131292455D01*
X115243742Y-131304090D01*
X115183113Y-131351764D01*
X115106769Y-131362736D01*
X115035167Y-131334067D01*
X115019107Y-131320150D01*
X114403146Y-130704189D01*
X114403143Y-130704186D01*
X114288411Y-130627525D01*
X114288408Y-130627523D01*
X114288402Y-130627520D01*
X114160929Y-130574720D01*
X114160927Y-130574719D01*
X114025597Y-130547800D01*
X114025594Y-130547800D01*
X114025593Y-130547800D01*
X108819575Y-130547800D01*
X108745075Y-130527838D01*
X108714216Y-130504159D01*
X104095558Y-125885501D01*
X104056994Y-125818706D01*
X104056994Y-125741578D01*
X104095558Y-125674783D01*
X104162353Y-125636219D01*
X104239481Y-125636219D01*
X104252983Y-125640535D01*
X104262517Y-125644091D01*
X104275200Y-125645454D01*
X104322114Y-125650499D01*
X104322118Y-125650499D01*
X104322127Y-125650500D01*
X106117872Y-125650499D01*
X106177483Y-125644091D01*
X106273447Y-125608298D01*
X106312329Y-125593797D01*
X106312333Y-125593795D01*
X106369938Y-125550671D01*
X106427546Y-125507546D01*
X106482621Y-125433975D01*
X106513795Y-125392333D01*
X106513798Y-125392327D01*
X106549215Y-125297367D01*
X106593953Y-125234540D01*
X106664110Y-125202498D01*
X106740889Y-125209829D01*
X106794180Y-125244076D01*
X106880208Y-125330104D01*
X107052184Y-125455051D01*
X107241588Y-125551557D01*
X107443757Y-125617246D01*
X107653713Y-125650500D01*
X107653718Y-125650500D01*
X107866282Y-125650500D01*
X107866287Y-125650500D01*
X108076243Y-125617246D01*
X108278412Y-125551557D01*
X108467816Y-125455051D01*
X108639792Y-125330104D01*
X108790104Y-125179792D01*
X108909767Y-125015089D01*
X108969704Y-124966552D01*
X109045883Y-124954486D01*
X109117888Y-124982126D01*
X109150852Y-125015089D01*
X109184729Y-125061716D01*
X109817037Y-124429408D01*
X109834075Y-124492993D01*
X109899901Y-124607007D01*
X109992993Y-124700099D01*
X110107007Y-124765925D01*
X110170590Y-124782962D01*
X109538282Y-125415270D01*
X109592444Y-125454621D01*
X109592444Y-125454622D01*
X109781779Y-125551093D01*
X109983871Y-125616757D01*
X110193758Y-125650000D01*
X110406242Y-125650000D01*
X110616128Y-125616757D01*
X110818220Y-125551093D01*
X111007555Y-125454622D01*
X111007557Y-125454620D01*
X111061716Y-125415270D01*
X111061716Y-125415269D01*
X110429409Y-124782962D01*
X110492993Y-124765925D01*
X110607007Y-124700099D01*
X110700099Y-124607007D01*
X110765925Y-124492993D01*
X110782962Y-124429409D01*
X111415269Y-125061716D01*
X111415270Y-125061716D01*
X111454620Y-125007557D01*
X111454622Y-125007555D01*
X111551093Y-124818220D01*
X111616757Y-124616128D01*
X111650000Y-124406242D01*
X111650000Y-124193757D01*
X111616757Y-123983871D01*
X111551093Y-123781779D01*
X111454621Y-123592444D01*
X111415270Y-123538282D01*
X110782962Y-124170589D01*
X110765925Y-124107007D01*
X110700099Y-123992993D01*
X110607007Y-123899901D01*
X110492993Y-123834075D01*
X110429407Y-123817037D01*
X111061716Y-123184729D01*
X111061716Y-123184728D01*
X111007555Y-123145378D01*
X111007555Y-123145377D01*
X110818220Y-123048906D01*
X110616128Y-122983242D01*
X110406242Y-122950000D01*
X110193758Y-122950000D01*
X109983871Y-122983242D01*
X109781779Y-123048906D01*
X109592444Y-123145378D01*
X109538282Y-123184728D01*
X109538282Y-123184729D01*
X110170590Y-123817037D01*
X110107007Y-123834075D01*
X109992993Y-123899901D01*
X109899901Y-123992993D01*
X109834075Y-124107007D01*
X109817037Y-124170590D01*
X109184729Y-123538282D01*
X109184727Y-123538282D01*
X109150852Y-123584908D01*
X109090912Y-123633446D01*
X109014734Y-123645512D01*
X108942729Y-123617871D01*
X108909765Y-123584908D01*
X108857933Y-123513567D01*
X108790104Y-123420208D01*
X108639792Y-123269896D01*
X108467816Y-123144949D01*
X108278412Y-123048443D01*
X108076243Y-122982754D01*
X107866287Y-122949500D01*
X107653713Y-122949500D01*
X107478749Y-122977211D01*
X107443756Y-122982754D01*
X107241594Y-123048441D01*
X107241588Y-123048443D01*
X107241582Y-123048445D01*
X107241582Y-123048446D01*
X107052182Y-123144950D01*
X107052181Y-123144950D01*
X106880209Y-123269895D01*
X106880198Y-123269904D01*
X106794179Y-123355923D01*
X106727384Y-123394487D01*
X106650256Y-123394487D01*
X106583462Y-123355922D01*
X106549215Y-123302633D01*
X106537008Y-123269904D01*
X106513796Y-123207669D01*
X106513795Y-123207668D01*
X106513795Y-123207666D01*
X106427547Y-123092455D01*
X106427544Y-123092452D01*
X106312333Y-123006204D01*
X106312329Y-123006202D01*
X106177482Y-122955908D01*
X106117876Y-122949500D01*
X104322136Y-122949500D01*
X104322111Y-122949502D01*
X104262521Y-122955908D01*
X104262515Y-122955909D01*
X104127670Y-123006202D01*
X104127666Y-123006204D01*
X104012455Y-123092452D01*
X104012452Y-123092455D01*
X103926204Y-123207666D01*
X103926202Y-123207670D01*
X103875908Y-123342517D01*
X103869500Y-123402114D01*
X103869500Y-125197863D01*
X103869502Y-125197888D01*
X103875908Y-125257478D01*
X103875911Y-125257490D01*
X103879464Y-125267017D01*
X103886793Y-125343796D01*
X103854750Y-125413953D01*
X103791922Y-125458689D01*
X103715143Y-125466018D01*
X103644986Y-125433975D01*
X103634498Y-125424441D01*
X96063770Y-117853713D01*
X115109500Y-117853713D01*
X115109500Y-118066287D01*
X115142754Y-118276243D01*
X115208443Y-118478412D01*
X115301357Y-118660767D01*
X115304950Y-118667817D01*
X115304950Y-118667818D01*
X115429895Y-118839790D01*
X115429897Y-118839793D01*
X115516311Y-118926207D01*
X115554875Y-118993002D01*
X115554875Y-119070130D01*
X115516311Y-119136925D01*
X115463024Y-119171171D01*
X115367911Y-119206647D01*
X115367905Y-119206650D01*
X115252812Y-119292809D01*
X115252809Y-119292812D01*
X115166650Y-119407905D01*
X115166645Y-119407915D01*
X115116401Y-119542622D01*
X115110001Y-119602157D01*
X115110000Y-119602177D01*
X115110000Y-120250000D01*
X116026988Y-120250000D01*
X115994075Y-120307007D01*
X115960000Y-120434174D01*
X115960000Y-120565826D01*
X115994075Y-120692993D01*
X116026988Y-120750000D01*
X115110000Y-120750000D01*
X115110000Y-121397822D01*
X115110001Y-121397842D01*
X115116401Y-121457377D01*
X115166645Y-121592084D01*
X115166650Y-121592094D01*
X115252809Y-121707187D01*
X115252812Y-121707190D01*
X115367905Y-121793349D01*
X115367915Y-121793354D01*
X115502623Y-121843598D01*
X115502621Y-121843598D01*
X115562157Y-121849998D01*
X115562177Y-121850000D01*
X116210000Y-121850000D01*
X116210000Y-120933012D01*
X116267007Y-120965925D01*
X116394174Y-121000000D01*
X116525826Y-121000000D01*
X116652993Y-120965925D01*
X116710000Y-120933012D01*
X116710000Y-121850000D01*
X117357823Y-121850000D01*
X117357842Y-121849998D01*
X117417377Y-121843598D01*
X117552084Y-121793354D01*
X117552094Y-121793349D01*
X117667187Y-121707190D01*
X117667190Y-121707187D01*
X117753349Y-121592094D01*
X117753351Y-121592090D01*
X117788827Y-121496977D01*
X117833566Y-121434150D01*
X117903724Y-121402110D01*
X117980503Y-121409441D01*
X118033792Y-121443688D01*
X118120208Y-121530104D01*
X118292184Y-121655051D01*
X118481588Y-121751557D01*
X118683757Y-121817246D01*
X118893713Y-121850500D01*
X118893718Y-121850500D01*
X119106282Y-121850500D01*
X119106287Y-121850500D01*
X119316243Y-121817246D01*
X119518412Y-121751557D01*
X119707816Y-121655051D01*
X119879792Y-121530104D01*
X120030104Y-121379792D01*
X120149456Y-121215517D01*
X120209396Y-121166979D01*
X120285574Y-121154913D01*
X120357580Y-121182553D01*
X120390544Y-121215517D01*
X120509896Y-121379792D01*
X120660208Y-121530104D01*
X120832184Y-121655051D01*
X121021588Y-121751557D01*
X121223757Y-121817246D01*
X121433713Y-121850500D01*
X121433718Y-121850500D01*
X121646282Y-121850500D01*
X121646287Y-121850500D01*
X121856243Y-121817246D01*
X122058412Y-121751557D01*
X122247816Y-121655051D01*
X122419792Y-121530104D01*
X122570104Y-121379792D01*
X122689456Y-121215517D01*
X122749396Y-121166979D01*
X122825574Y-121154913D01*
X122897580Y-121182553D01*
X122930544Y-121215517D01*
X123049896Y-121379792D01*
X123200208Y-121530104D01*
X123372184Y-121655051D01*
X123561588Y-121751557D01*
X123763757Y-121817246D01*
X123973713Y-121850500D01*
X123973718Y-121850500D01*
X124186282Y-121850500D01*
X124186287Y-121850500D01*
X124396243Y-121817246D01*
X124598412Y-121751557D01*
X124787816Y-121655051D01*
X124959792Y-121530104D01*
X125110104Y-121379792D01*
X125235051Y-121207816D01*
X125331557Y-121018412D01*
X125397246Y-120816243D01*
X125430500Y-120606287D01*
X125430500Y-120393713D01*
X125397246Y-120183757D01*
X125331557Y-119981588D01*
X125235051Y-119792184D01*
X125110104Y-119620208D01*
X124959792Y-119469896D01*
X124795517Y-119350544D01*
X124746979Y-119290604D01*
X124734913Y-119214426D01*
X124762553Y-119142420D01*
X124795517Y-119109456D01*
X124802519Y-119104368D01*
X124959792Y-118990104D01*
X125110104Y-118839792D01*
X125235051Y-118667816D01*
X125331557Y-118478412D01*
X125397246Y-118276243D01*
X125430500Y-118066287D01*
X125430500Y-117853713D01*
X125397246Y-117643757D01*
X125331557Y-117441588D01*
X125235051Y-117252184D01*
X125110104Y-117080208D01*
X124959792Y-116929896D01*
X124787816Y-116804949D01*
X124598412Y-116708443D01*
X124396243Y-116642754D01*
X124186287Y-116609500D01*
X123973713Y-116609500D01*
X123798749Y-116637211D01*
X123763756Y-116642754D01*
X123561594Y-116708441D01*
X123561588Y-116708443D01*
X123561582Y-116708445D01*
X123561582Y-116708446D01*
X123372182Y-116804950D01*
X123372181Y-116804950D01*
X123200209Y-116929895D01*
X123200206Y-116929897D01*
X123049897Y-117080206D01*
X123049895Y-117080209D01*
X122930544Y-117244482D01*
X122870604Y-117293020D01*
X122794425Y-117305086D01*
X122722420Y-117277446D01*
X122689456Y-117244482D01*
X122627236Y-117158844D01*
X122570104Y-117080208D01*
X122419792Y-116929896D01*
X122247816Y-116804949D01*
X122058412Y-116708443D01*
X121856243Y-116642754D01*
X121646287Y-116609500D01*
X121433713Y-116609500D01*
X121258749Y-116637211D01*
X121223756Y-116642754D01*
X121021594Y-116708441D01*
X121021588Y-116708443D01*
X121021582Y-116708445D01*
X121021582Y-116708446D01*
X120832182Y-116804950D01*
X120832181Y-116804950D01*
X120660209Y-116929895D01*
X120660206Y-116929897D01*
X120509897Y-117080206D01*
X120509895Y-117080209D01*
X120390544Y-117244482D01*
X120330604Y-117293020D01*
X120254425Y-117305086D01*
X120182420Y-117277446D01*
X120149456Y-117244482D01*
X120087236Y-117158844D01*
X120030104Y-117080208D01*
X119879792Y-116929896D01*
X119707816Y-116804949D01*
X119518412Y-116708443D01*
X119316243Y-116642754D01*
X119106287Y-116609500D01*
X118893713Y-116609500D01*
X118718749Y-116637211D01*
X118683756Y-116642754D01*
X118481594Y-116708441D01*
X118481588Y-116708443D01*
X118481582Y-116708445D01*
X118481582Y-116708446D01*
X118292182Y-116804950D01*
X118292181Y-116804950D01*
X118120209Y-116929895D01*
X118120206Y-116929897D01*
X117969897Y-117080206D01*
X117969895Y-117080209D01*
X117850544Y-117244482D01*
X117790604Y-117293020D01*
X117714425Y-117305086D01*
X117642420Y-117277446D01*
X117609456Y-117244482D01*
X117547236Y-117158844D01*
X117490104Y-117080208D01*
X117339792Y-116929896D01*
X117167816Y-116804949D01*
X116978412Y-116708443D01*
X116776243Y-116642754D01*
X116566287Y-116609500D01*
X116353713Y-116609500D01*
X116178749Y-116637211D01*
X116143756Y-116642754D01*
X115941594Y-116708441D01*
X115941588Y-116708443D01*
X115941582Y-116708445D01*
X115941582Y-116708446D01*
X115752182Y-116804950D01*
X115752181Y-116804950D01*
X115580209Y-116929895D01*
X115580206Y-116929897D01*
X115429897Y-117080206D01*
X115429895Y-117080209D01*
X115304950Y-117252181D01*
X115304950Y-117252182D01*
X115208446Y-117441582D01*
X115208441Y-117441594D01*
X115169537Y-117561329D01*
X115142754Y-117643757D01*
X115109500Y-117853713D01*
X96063770Y-117853713D01*
X91372846Y-113162789D01*
X91372843Y-113162786D01*
X91258111Y-113086125D01*
X91258108Y-113086123D01*
X91258102Y-113086120D01*
X91130629Y-113033320D01*
X91130627Y-113033319D01*
X90995297Y-113006400D01*
X90995294Y-113006400D01*
X90995293Y-113006400D01*
X84998804Y-113006400D01*
X84924304Y-112986438D01*
X84869766Y-112931900D01*
X84849804Y-112857400D01*
X84869766Y-112782900D01*
X84874077Y-112775432D01*
X84893164Y-112742373D01*
X84988502Y-112512207D01*
X85052982Y-112271565D01*
X85085500Y-112024565D01*
X85085500Y-111775435D01*
X85085499Y-111775429D01*
X103484500Y-111775429D01*
X103484500Y-112024570D01*
X103517016Y-112271557D01*
X103517017Y-112271563D01*
X103517018Y-112271565D01*
X103558885Y-112427816D01*
X103581499Y-112512210D01*
X103676838Y-112742377D01*
X103753436Y-112875049D01*
X103801401Y-112958127D01*
X103953062Y-113155776D01*
X104129224Y-113331938D01*
X104326873Y-113483599D01*
X104542627Y-113608164D01*
X104772793Y-113703502D01*
X105013435Y-113767982D01*
X105013441Y-113767982D01*
X105013442Y-113767983D01*
X105080586Y-113776822D01*
X105260435Y-113800500D01*
X105509565Y-113800500D01*
X105756565Y-113767982D01*
X105997207Y-113703502D01*
X106227373Y-113608164D01*
X106443127Y-113483599D01*
X106640776Y-113331938D01*
X106816938Y-113155776D01*
X106968599Y-112958127D01*
X107093164Y-112742373D01*
X107188502Y-112512207D01*
X107252982Y-112271565D01*
X107285500Y-112024565D01*
X107285500Y-111775435D01*
X107252982Y-111528435D01*
X107188502Y-111287793D01*
X107093164Y-111057627D01*
X106968599Y-110841873D01*
X106816938Y-110644224D01*
X106640776Y-110468062D01*
X106443127Y-110316401D01*
X106300674Y-110234156D01*
X106227377Y-110191838D01*
X106227375Y-110191837D01*
X106227373Y-110191836D01*
X106092548Y-110135989D01*
X105997210Y-110096499D01*
X105997208Y-110096498D01*
X105997207Y-110096498D01*
X105756565Y-110032018D01*
X105756563Y-110032017D01*
X105756557Y-110032016D01*
X105509570Y-109999500D01*
X105509565Y-109999500D01*
X105260435Y-109999500D01*
X105260429Y-109999500D01*
X105013442Y-110032016D01*
X104772789Y-110096499D01*
X104542622Y-110191838D01*
X104326874Y-110316400D01*
X104129222Y-110468063D01*
X103953063Y-110644222D01*
X103801400Y-110841874D01*
X103676838Y-111057622D01*
X103581499Y-111287789D01*
X103517016Y-111528442D01*
X103484500Y-111775429D01*
X85085499Y-111775429D01*
X85052982Y-111528435D01*
X84988502Y-111287793D01*
X84893164Y-111057627D01*
X84768599Y-110841873D01*
X84616938Y-110644224D01*
X84479141Y-110506427D01*
X84440577Y-110439632D01*
X84435500Y-110401068D01*
X84435500Y-105800011D01*
X121000000Y-105800011D01*
X121000000Y-106750000D01*
X122299999Y-106750000D01*
X122274979Y-106810402D01*
X122250000Y-106935981D01*
X122250000Y-107064019D01*
X122274979Y-107189598D01*
X122299999Y-107250000D01*
X121000000Y-107250000D01*
X121000000Y-108199988D01*
X121010492Y-108302687D01*
X121010494Y-108302696D01*
X121065642Y-108469120D01*
X121157680Y-108618339D01*
X121281660Y-108742319D01*
X121430879Y-108834357D01*
X121597303Y-108889505D01*
X121597312Y-108889507D01*
X121700011Y-108899999D01*
X121700022Y-108900000D01*
X122650000Y-108900000D01*
X122650000Y-107600001D01*
X122710402Y-107625021D01*
X122835981Y-107650000D01*
X122964019Y-107650000D01*
X123089598Y-107625021D01*
X123150000Y-107600001D01*
X123150000Y-108900000D01*
X124099978Y-108900000D01*
X124099988Y-108899999D01*
X124202687Y-108889507D01*
X124202696Y-108889505D01*
X124369120Y-108834357D01*
X124518339Y-108742319D01*
X124642319Y-108618339D01*
X124734357Y-108469120D01*
X124789505Y-108302696D01*
X124789507Y-108302687D01*
X124799999Y-108199988D01*
X124800000Y-108199978D01*
X124800000Y-107250000D01*
X123500001Y-107250000D01*
X123525021Y-107189598D01*
X123550000Y-107064019D01*
X123550000Y-106935981D01*
X123525021Y-106810402D01*
X123500001Y-106750000D01*
X124800000Y-106750000D01*
X124800000Y-105800021D01*
X124799999Y-105800011D01*
X124789507Y-105697312D01*
X124789505Y-105697303D01*
X124734357Y-105530879D01*
X124642319Y-105381660D01*
X124518339Y-105257680D01*
X124369120Y-105165642D01*
X124202696Y-105110494D01*
X124202687Y-105110492D01*
X124099988Y-105100000D01*
X123150000Y-105100000D01*
X123150000Y-106399998D01*
X123089598Y-106374979D01*
X122964019Y-106350000D01*
X122835981Y-106350000D01*
X122710402Y-106374979D01*
X122650000Y-106399998D01*
X122650000Y-105100000D01*
X121700011Y-105100000D01*
X121597312Y-105110492D01*
X121597303Y-105110494D01*
X121430879Y-105165642D01*
X121281660Y-105257680D01*
X121157680Y-105381660D01*
X121065642Y-105530879D01*
X121010494Y-105697303D01*
X121010492Y-105697312D01*
X121000000Y-105800011D01*
X84435500Y-105800011D01*
X84435500Y-101875461D01*
X121000000Y-101875461D01*
X121000000Y-102124538D01*
X121032507Y-102371459D01*
X121096973Y-102612048D01*
X121192287Y-102842156D01*
X121316819Y-103057851D01*
X121316820Y-103057853D01*
X121391399Y-103155045D01*
X122298957Y-102247486D01*
X122323978Y-102307890D01*
X122395112Y-102414351D01*
X122485649Y-102504888D01*
X122592110Y-102576022D01*
X122652511Y-102601041D01*
X121744952Y-103508599D01*
X121842146Y-103583179D01*
X121842148Y-103583180D01*
X122057843Y-103707712D01*
X122287951Y-103803026D01*
X122528540Y-103867492D01*
X122775461Y-103899999D01*
X122775467Y-103900000D01*
X123024533Y-103900000D01*
X123024538Y-103899999D01*
X123271459Y-103867492D01*
X123512048Y-103803026D01*
X123742157Y-103707712D01*
X123957849Y-103583182D01*
X124055045Y-103508599D01*
X124055046Y-103508599D01*
X123147488Y-102601041D01*
X123207890Y-102576022D01*
X123314351Y-102504888D01*
X123404888Y-102414351D01*
X123476022Y-102307890D01*
X123501041Y-102247488D01*
X124408599Y-103155046D01*
X124408599Y-103155045D01*
X124483182Y-103057849D01*
X124607712Y-102842157D01*
X124703026Y-102612048D01*
X124767492Y-102371459D01*
X124799999Y-102124538D01*
X124800000Y-102124533D01*
X124800000Y-101875467D01*
X124799999Y-101875461D01*
X124767492Y-101628540D01*
X124703026Y-101387951D01*
X124607712Y-101157843D01*
X124483180Y-100942148D01*
X124483179Y-100942146D01*
X124408599Y-100844952D01*
X123501041Y-101752510D01*
X123476022Y-101692110D01*
X123404888Y-101585649D01*
X123314351Y-101495112D01*
X123207890Y-101423978D01*
X123147487Y-101398957D01*
X124055046Y-100491399D01*
X123957853Y-100416820D01*
X123957851Y-100416819D01*
X123742156Y-100292287D01*
X123512048Y-100196973D01*
X123271459Y-100132507D01*
X123024538Y-100100000D01*
X122775461Y-100100000D01*
X122528540Y-100132507D01*
X122287951Y-100196973D01*
X122057843Y-100292287D01*
X121842152Y-100416817D01*
X121744953Y-100491400D01*
X122652511Y-101398958D01*
X122592110Y-101423978D01*
X122485649Y-101495112D01*
X122395112Y-101585649D01*
X122323978Y-101692110D01*
X122298958Y-101752511D01*
X121391399Y-100844953D01*
X121316817Y-100942152D01*
X121192287Y-101157843D01*
X121096973Y-101387951D01*
X121032507Y-101628540D01*
X121000000Y-101875461D01*
X84435500Y-101875461D01*
X84435500Y-96398932D01*
X84455462Y-96324432D01*
X84479141Y-96293573D01*
X84547714Y-96225000D01*
X84616938Y-96155776D01*
X84768599Y-95958127D01*
X84893164Y-95742373D01*
X84988502Y-95512207D01*
X85052982Y-95271565D01*
X85085500Y-95024565D01*
X85085500Y-94829691D01*
X85100039Y-94775429D01*
X103484500Y-94775429D01*
X103484500Y-95024570D01*
X103517016Y-95271557D01*
X103517017Y-95271563D01*
X103517018Y-95271565D01*
X103555277Y-95414351D01*
X103581499Y-95512210D01*
X103676838Y-95742377D01*
X103723051Y-95822420D01*
X103801401Y-95958127D01*
X103953062Y-96155776D01*
X104129224Y-96331938D01*
X104326873Y-96483599D01*
X104542627Y-96608164D01*
X104772793Y-96703502D01*
X105013435Y-96767982D01*
X105013441Y-96767982D01*
X105013442Y-96767983D01*
X105080586Y-96776822D01*
X105260435Y-96800500D01*
X105509565Y-96800500D01*
X105756565Y-96767982D01*
X105997207Y-96703502D01*
X106227373Y-96608164D01*
X106443127Y-96483599D01*
X106640776Y-96331938D01*
X106816938Y-96155776D01*
X106968599Y-95958127D01*
X107093164Y-95742373D01*
X107188502Y-95512207D01*
X107252982Y-95271565D01*
X107285500Y-95024565D01*
X107285500Y-94775435D01*
X107252982Y-94528435D01*
X107188502Y-94287793D01*
X107093164Y-94057627D01*
X106968599Y-93841873D01*
X106936477Y-93800011D01*
X121000000Y-93800011D01*
X121000000Y-94750000D01*
X122299999Y-94750000D01*
X122274979Y-94810402D01*
X122250000Y-94935981D01*
X122250000Y-95064019D01*
X122274979Y-95189598D01*
X122299999Y-95250000D01*
X121000000Y-95250000D01*
X121000000Y-96199988D01*
X121010492Y-96302687D01*
X121010494Y-96302696D01*
X121065642Y-96469120D01*
X121157680Y-96618339D01*
X121281660Y-96742319D01*
X121430879Y-96834357D01*
X121597303Y-96889505D01*
X121597312Y-96889507D01*
X121700011Y-96899999D01*
X121700022Y-96900000D01*
X122650000Y-96900000D01*
X122650000Y-95600001D01*
X122710402Y-95625021D01*
X122835981Y-95650000D01*
X122964019Y-95650000D01*
X123089598Y-95625021D01*
X123150000Y-95600001D01*
X123150000Y-96900000D01*
X124099978Y-96900000D01*
X124099988Y-96899999D01*
X124202687Y-96889507D01*
X124202696Y-96889505D01*
X124369120Y-96834357D01*
X124518339Y-96742319D01*
X124642319Y-96618339D01*
X124734357Y-96469120D01*
X124789505Y-96302696D01*
X124789507Y-96302687D01*
X124799999Y-96199988D01*
X124800000Y-96199978D01*
X124800000Y-95250000D01*
X123500001Y-95250000D01*
X123525021Y-95189598D01*
X123550000Y-95064019D01*
X123550000Y-94935981D01*
X123525021Y-94810402D01*
X123500001Y-94750000D01*
X124800000Y-94750000D01*
X124800000Y-93800021D01*
X124799999Y-93800011D01*
X124789507Y-93697312D01*
X124789505Y-93697303D01*
X124734357Y-93530879D01*
X124642319Y-93381660D01*
X124518339Y-93257680D01*
X124369120Y-93165642D01*
X124202696Y-93110494D01*
X124202687Y-93110492D01*
X124099988Y-93100000D01*
X123150000Y-93100000D01*
X123150000Y-94399998D01*
X123089598Y-94374979D01*
X122964019Y-94350000D01*
X122835981Y-94350000D01*
X122710402Y-94374979D01*
X122650000Y-94399998D01*
X122650000Y-93100000D01*
X121700011Y-93100000D01*
X121597312Y-93110492D01*
X121597303Y-93110494D01*
X121430879Y-93165642D01*
X121281660Y-93257680D01*
X121157680Y-93381660D01*
X121065642Y-93530879D01*
X121010494Y-93697303D01*
X121010492Y-93697312D01*
X121000000Y-93800011D01*
X106936477Y-93800011D01*
X106816938Y-93644224D01*
X106640776Y-93468062D01*
X106443127Y-93316401D01*
X106228234Y-93192333D01*
X106227377Y-93191838D01*
X106227375Y-93191837D01*
X106227373Y-93191836D01*
X106092548Y-93135989D01*
X105997210Y-93096499D01*
X105997208Y-93096498D01*
X105997207Y-93096498D01*
X105756565Y-93032018D01*
X105756563Y-93032017D01*
X105756557Y-93032016D01*
X105509570Y-92999500D01*
X105509565Y-92999500D01*
X105260435Y-92999500D01*
X105260429Y-92999500D01*
X105013442Y-93032016D01*
X104772789Y-93096499D01*
X104542622Y-93191838D01*
X104326874Y-93316400D01*
X104129222Y-93468063D01*
X103953063Y-93644222D01*
X103801400Y-93841874D01*
X103676838Y-94057622D01*
X103581499Y-94287789D01*
X103517016Y-94528442D01*
X103484500Y-94775429D01*
X85100039Y-94775429D01*
X85105462Y-94755191D01*
X85129141Y-94724332D01*
X89978012Y-89875461D01*
X121000000Y-89875461D01*
X121000000Y-90124538D01*
X121032507Y-90371459D01*
X121096973Y-90612048D01*
X121192287Y-90842156D01*
X121316819Y-91057851D01*
X121316820Y-91057853D01*
X121391399Y-91155045D01*
X122298957Y-90247486D01*
X122323978Y-90307890D01*
X122395112Y-90414351D01*
X122485649Y-90504888D01*
X122592110Y-90576022D01*
X122652511Y-90601041D01*
X121744952Y-91508599D01*
X121842146Y-91583179D01*
X121842148Y-91583180D01*
X122057843Y-91707712D01*
X122287951Y-91803026D01*
X122528540Y-91867492D01*
X122775461Y-91899999D01*
X122775467Y-91900000D01*
X123024533Y-91900000D01*
X123024538Y-91899999D01*
X123271459Y-91867492D01*
X123512048Y-91803026D01*
X123742157Y-91707712D01*
X123957849Y-91583182D01*
X124055045Y-91508599D01*
X124055046Y-91508599D01*
X123147488Y-90601041D01*
X123207890Y-90576022D01*
X123314351Y-90504888D01*
X123404888Y-90414351D01*
X123476022Y-90307890D01*
X123501041Y-90247488D01*
X124408599Y-91155046D01*
X124408599Y-91155045D01*
X124483182Y-91057849D01*
X124607712Y-90842157D01*
X124703026Y-90612048D01*
X124767492Y-90371459D01*
X124799999Y-90124538D01*
X124800000Y-90124533D01*
X124800000Y-89875467D01*
X124799999Y-89875461D01*
X124767492Y-89628540D01*
X124703026Y-89387951D01*
X124607712Y-89157843D01*
X124483180Y-88942148D01*
X124483179Y-88942146D01*
X124408599Y-88844952D01*
X123501041Y-89752510D01*
X123476022Y-89692110D01*
X123404888Y-89585649D01*
X123314351Y-89495112D01*
X123207890Y-89423978D01*
X123147487Y-89398957D01*
X124055046Y-88491399D01*
X123957853Y-88416820D01*
X123957851Y-88416819D01*
X123742156Y-88292287D01*
X123512048Y-88196973D01*
X123271459Y-88132507D01*
X123024538Y-88100000D01*
X122775461Y-88100000D01*
X122528540Y-88132507D01*
X122287951Y-88196973D01*
X122057843Y-88292287D01*
X121842152Y-88416817D01*
X121744953Y-88491400D01*
X122652511Y-89398958D01*
X122592110Y-89423978D01*
X122485649Y-89495112D01*
X122395112Y-89585649D01*
X122323978Y-89692110D01*
X122298958Y-89752511D01*
X121391399Y-88844953D01*
X121316817Y-88942152D01*
X121192287Y-89157843D01*
X121096973Y-89387951D01*
X121032507Y-89628540D01*
X121000000Y-89875461D01*
X89978012Y-89875461D01*
X90267824Y-89585649D01*
X95559333Y-84294141D01*
X95626128Y-84255577D01*
X95664692Y-84250500D01*
X120885078Y-84250500D01*
X120959578Y-84270462D01*
X121014116Y-84325000D01*
X121026515Y-84352632D01*
X121065187Y-84469336D01*
X121066944Y-84472184D01*
X121157289Y-84618655D01*
X121281345Y-84742711D01*
X121430666Y-84834814D01*
X121597203Y-84889999D01*
X121699992Y-84900500D01*
X121699996Y-84900500D01*
X124100004Y-84900500D01*
X124100008Y-84900500D01*
X124202797Y-84889999D01*
X124369334Y-84834814D01*
X124518655Y-84742711D01*
X124642711Y-84618655D01*
X124734814Y-84469334D01*
X124789999Y-84302797D01*
X124800500Y-84200008D01*
X124800500Y-81799992D01*
X124789999Y-81697203D01*
X124734814Y-81530666D01*
X124642711Y-81381345D01*
X124518655Y-81257289D01*
X124413343Y-81192331D01*
X124369336Y-81165187D01*
X124369335Y-81165186D01*
X124369334Y-81165186D01*
X124285332Y-81137350D01*
X124202798Y-81110001D01*
X124202799Y-81110001D01*
X124168534Y-81106500D01*
X124100008Y-81099500D01*
X121699992Y-81099500D01*
X121631466Y-81106500D01*
X121597201Y-81110001D01*
X121430663Y-81165187D01*
X121281344Y-81257289D01*
X121157289Y-81381344D01*
X121065187Y-81530663D01*
X121026515Y-81647368D01*
X120984132Y-81711807D01*
X120915208Y-81746422D01*
X120885078Y-81749500D01*
X95114791Y-81749500D01*
X95040291Y-81729538D01*
X94985753Y-81675000D01*
X94965791Y-81600500D01*
X94985753Y-81526000D01*
X95009432Y-81495141D01*
X97310433Y-79194141D01*
X97377228Y-79155577D01*
X97415792Y-79150500D01*
X103886068Y-79150500D01*
X103960568Y-79170462D01*
X103991427Y-79194141D01*
X104129224Y-79331938D01*
X104326873Y-79483599D01*
X104542627Y-79608164D01*
X104772793Y-79703502D01*
X105013435Y-79767982D01*
X105013441Y-79767982D01*
X105013442Y-79767983D01*
X105080586Y-79776822D01*
X105260435Y-79800500D01*
X105509565Y-79800500D01*
X105756565Y-79767982D01*
X105997207Y-79703502D01*
X106227373Y-79608164D01*
X106443127Y-79483599D01*
X106640776Y-79331938D01*
X106816938Y-79155776D01*
X106968599Y-78958127D01*
X107093164Y-78742373D01*
X107188502Y-78512207D01*
X107252982Y-78271565D01*
X107285500Y-78024565D01*
X107285500Y-77875429D01*
X120999500Y-77875429D01*
X120999500Y-78124570D01*
X121032016Y-78371557D01*
X121032017Y-78371563D01*
X121032018Y-78371565D01*
X121096498Y-78612207D01*
X121191836Y-78842373D01*
X121316401Y-79058127D01*
X121468062Y-79255776D01*
X121644224Y-79431938D01*
X121841873Y-79583599D01*
X122057627Y-79708164D01*
X122287793Y-79803502D01*
X122528435Y-79867982D01*
X122528441Y-79867982D01*
X122528442Y-79867983D01*
X122595586Y-79876822D01*
X122775435Y-79900500D01*
X123024565Y-79900500D01*
X123271565Y-79867982D01*
X123512207Y-79803502D01*
X123742373Y-79708164D01*
X123958127Y-79583599D01*
X124155776Y-79431938D01*
X124331938Y-79255776D01*
X124483599Y-79058127D01*
X124608164Y-78842373D01*
X124703502Y-78612207D01*
X124767982Y-78371565D01*
X124800500Y-78124565D01*
X124800500Y-77875435D01*
X124771582Y-77655777D01*
X124767983Y-77628442D01*
X124767982Y-77628441D01*
X124767982Y-77628435D01*
X124703502Y-77387793D01*
X124608164Y-77157627D01*
X124483599Y-76941873D01*
X124331938Y-76744224D01*
X124155776Y-76568062D01*
X123958127Y-76416401D01*
X123784921Y-76316401D01*
X123742377Y-76291838D01*
X123742375Y-76291837D01*
X123742373Y-76291836D01*
X123607548Y-76235989D01*
X123512210Y-76196499D01*
X123512208Y-76196498D01*
X123512207Y-76196498D01*
X123271565Y-76132018D01*
X123271563Y-76132017D01*
X123271557Y-76132016D01*
X123024570Y-76099500D01*
X123024565Y-76099500D01*
X122775435Y-76099500D01*
X122775429Y-76099500D01*
X122528442Y-76132016D01*
X122287789Y-76196499D01*
X122057622Y-76291838D01*
X121841874Y-76416400D01*
X121644222Y-76568063D01*
X121468063Y-76744222D01*
X121316400Y-76941874D01*
X121191838Y-77157622D01*
X121096499Y-77387789D01*
X121032016Y-77628442D01*
X120999500Y-77875429D01*
X107285500Y-77875429D01*
X107285500Y-77775435D01*
X107252982Y-77528435D01*
X107188502Y-77287793D01*
X107093164Y-77057627D01*
X106968599Y-76841873D01*
X106816938Y-76644224D01*
X106640776Y-76468062D01*
X106443127Y-76316401D01*
X106308054Y-76238417D01*
X106227377Y-76191838D01*
X106227375Y-76191837D01*
X106227373Y-76191836D01*
X106082955Y-76132016D01*
X105997210Y-76096499D01*
X105997208Y-76096498D01*
X105997207Y-76096498D01*
X105756565Y-76032018D01*
X105756563Y-76032017D01*
X105756557Y-76032016D01*
X105509570Y-75999500D01*
X105509565Y-75999500D01*
X105260435Y-75999500D01*
X105260429Y-75999500D01*
X105013442Y-76032016D01*
X104772789Y-76096499D01*
X104542622Y-76191838D01*
X104326874Y-76316400D01*
X104129222Y-76468063D01*
X103991427Y-76605859D01*
X103924632Y-76644423D01*
X103886068Y-76649500D01*
X96934516Y-76649500D01*
X96737683Y-76649500D01*
X96543274Y-76680291D01*
X96356074Y-76741116D01*
X96356068Y-76741118D01*
X96356068Y-76741119D01*
X96180693Y-76830477D01*
X96021463Y-76946165D01*
X96021452Y-76946174D01*
X65576074Y-107391552D01*
X65576065Y-107391563D01*
X65460377Y-107550793D01*
X65371019Y-107726168D01*
X65371014Y-107726180D01*
X65324367Y-107869742D01*
X65324366Y-107869745D01*
X65317280Y-107891557D01*
X65310191Y-107913374D01*
X65279400Y-108107783D01*
X62586600Y-108107783D01*
X62586600Y-96921844D01*
X62606562Y-96847344D01*
X62630237Y-96816489D01*
X64671297Y-94775429D01*
X66984500Y-94775429D01*
X66984500Y-95024570D01*
X67017016Y-95271557D01*
X67017017Y-95271563D01*
X67017018Y-95271565D01*
X67055277Y-95414351D01*
X67081499Y-95512210D01*
X67176838Y-95742377D01*
X67223051Y-95822420D01*
X67301401Y-95958127D01*
X67453062Y-96155776D01*
X67629224Y-96331938D01*
X67826873Y-96483599D01*
X68042627Y-96608164D01*
X68272793Y-96703502D01*
X68513435Y-96767982D01*
X68513441Y-96767982D01*
X68513442Y-96767983D01*
X68580586Y-96776822D01*
X68760435Y-96800500D01*
X69009565Y-96800500D01*
X69256565Y-96767982D01*
X69497207Y-96703502D01*
X69727373Y-96608164D01*
X69943127Y-96483599D01*
X70140776Y-96331938D01*
X70316938Y-96155776D01*
X70468599Y-95958127D01*
X70593164Y-95742373D01*
X70688502Y-95512207D01*
X70752982Y-95271565D01*
X70785500Y-95024565D01*
X70785500Y-94775435D01*
X70752982Y-94528435D01*
X70688502Y-94287793D01*
X70593164Y-94057627D01*
X70468599Y-93841873D01*
X70316938Y-93644224D01*
X70140776Y-93468062D01*
X69943127Y-93316401D01*
X69728234Y-93192333D01*
X69727377Y-93191838D01*
X69727375Y-93191837D01*
X69727373Y-93191836D01*
X69592548Y-93135989D01*
X69497210Y-93096499D01*
X69497208Y-93096498D01*
X69497207Y-93096498D01*
X69256565Y-93032018D01*
X69256563Y-93032017D01*
X69256557Y-93032016D01*
X69009570Y-92999500D01*
X69009565Y-92999500D01*
X68760435Y-92999500D01*
X68760429Y-92999500D01*
X68513442Y-93032016D01*
X68272789Y-93096499D01*
X68042622Y-93191838D01*
X67826874Y-93316400D01*
X67629222Y-93468063D01*
X67453063Y-93644222D01*
X67301400Y-93841874D01*
X67176838Y-94057622D01*
X67081499Y-94287789D01*
X67017016Y-94528442D01*
X66984500Y-94775429D01*
X64671297Y-94775429D01*
X81104555Y-78342170D01*
X81171348Y-78303608D01*
X81248476Y-78303608D01*
X81315271Y-78342172D01*
X81353835Y-78408967D01*
X81381499Y-78512210D01*
X81476838Y-78742377D01*
X81534571Y-78842373D01*
X81601401Y-78958127D01*
X81753062Y-79155776D01*
X81929224Y-79331938D01*
X82126873Y-79483599D01*
X82342627Y-79608164D01*
X82572793Y-79703502D01*
X82813435Y-79767982D01*
X82813441Y-79767982D01*
X82813442Y-79767983D01*
X82880586Y-79776822D01*
X83060435Y-79800500D01*
X83309565Y-79800500D01*
X83556565Y-79767982D01*
X83797207Y-79703502D01*
X84027373Y-79608164D01*
X84243127Y-79483599D01*
X84440776Y-79331938D01*
X84616938Y-79155776D01*
X84768599Y-78958127D01*
X84893164Y-78742373D01*
X84988502Y-78512207D01*
X85052982Y-78271565D01*
X85064197Y-78186371D01*
X85093711Y-78115117D01*
X85106555Y-78100470D01*
X90662887Y-72544141D01*
X90729682Y-72505577D01*
X90768246Y-72500500D01*
X121001250Y-72500500D01*
X121075750Y-72520462D01*
X121128067Y-72571279D01*
X121157286Y-72618651D01*
X121157287Y-72618652D01*
X121157289Y-72618655D01*
X121281345Y-72742711D01*
X121430666Y-72834814D01*
X121597203Y-72889999D01*
X121699992Y-72900500D01*
X121699996Y-72900500D01*
X124100004Y-72900500D01*
X124100008Y-72900500D01*
X124202797Y-72889999D01*
X124369334Y-72834814D01*
X124518655Y-72742711D01*
X124642711Y-72618655D01*
X124734814Y-72469334D01*
X124789999Y-72302797D01*
X124800500Y-72200008D01*
X124800500Y-69799992D01*
X124789999Y-69697203D01*
X124734814Y-69530666D01*
X124642711Y-69381345D01*
X124518655Y-69257289D01*
X124413343Y-69192331D01*
X124369336Y-69165187D01*
X124369335Y-69165186D01*
X124369334Y-69165186D01*
X124285332Y-69137350D01*
X124202798Y-69110001D01*
X124202799Y-69110001D01*
X124168534Y-69106500D01*
X124100008Y-69099500D01*
X121699992Y-69099500D01*
X121631466Y-69106500D01*
X121597201Y-69110001D01*
X121430663Y-69165187D01*
X121281344Y-69257289D01*
X121157286Y-69381348D01*
X121128067Y-69428721D01*
X121071966Y-69481650D01*
X121001250Y-69499500D01*
X90306944Y-69499500D01*
X90232444Y-69479538D01*
X90177906Y-69425000D01*
X90157944Y-69350500D01*
X90177906Y-69276000D01*
X90201585Y-69245141D01*
X93571298Y-65875429D01*
X120999500Y-65875429D01*
X120999500Y-66124570D01*
X121032016Y-66371557D01*
X121032017Y-66371563D01*
X121032018Y-66371565D01*
X121096498Y-66612207D01*
X121191836Y-66842373D01*
X121316401Y-67058127D01*
X121468062Y-67255776D01*
X121644224Y-67431938D01*
X121841873Y-67583599D01*
X122057627Y-67708164D01*
X122287793Y-67803502D01*
X122528435Y-67867982D01*
X122528441Y-67867982D01*
X122528442Y-67867983D01*
X122595586Y-67876822D01*
X122775435Y-67900500D01*
X123024565Y-67900500D01*
X123271565Y-67867982D01*
X123512207Y-67803502D01*
X123742373Y-67708164D01*
X123958127Y-67583599D01*
X124155776Y-67431938D01*
X124331938Y-67255776D01*
X124483599Y-67058127D01*
X124608164Y-66842373D01*
X124703502Y-66612207D01*
X124767982Y-66371565D01*
X124800500Y-66124565D01*
X124800500Y-65875435D01*
X124771582Y-65655777D01*
X124767983Y-65628442D01*
X124767982Y-65628441D01*
X124767982Y-65628435D01*
X124703502Y-65387793D01*
X124608164Y-65157627D01*
X124483599Y-64941873D01*
X124331938Y-64744224D01*
X124155776Y-64568062D01*
X123958127Y-64416401D01*
X123886209Y-64374879D01*
X123742377Y-64291838D01*
X123742375Y-64291837D01*
X123742373Y-64291836D01*
X123607548Y-64235989D01*
X123512210Y-64196499D01*
X123512208Y-64196498D01*
X123512207Y-64196498D01*
X123271565Y-64132018D01*
X123271563Y-64132017D01*
X123271557Y-64132016D01*
X123024570Y-64099500D01*
X123024565Y-64099500D01*
X122775435Y-64099500D01*
X122775429Y-64099500D01*
X122528442Y-64132016D01*
X122287789Y-64196499D01*
X122057622Y-64291838D01*
X121841874Y-64416400D01*
X121644222Y-64568063D01*
X121468063Y-64744222D01*
X121316400Y-64941874D01*
X121191838Y-65157622D01*
X121096499Y-65387789D01*
X121032016Y-65628442D01*
X120999500Y-65875429D01*
X93571298Y-65875429D01*
X93681529Y-65765198D01*
X97002586Y-62444141D01*
X97069381Y-62405577D01*
X97107945Y-62400500D01*
X104167998Y-62400500D01*
X104242498Y-62420462D01*
X104258698Y-62431286D01*
X104326873Y-62483599D01*
X104542627Y-62608164D01*
X104772793Y-62703502D01*
X105013435Y-62767982D01*
X105013441Y-62767982D01*
X105013442Y-62767983D01*
X105080586Y-62776822D01*
X105260435Y-62800500D01*
X105509565Y-62800500D01*
X105756565Y-62767982D01*
X105997207Y-62703502D01*
X106227373Y-62608164D01*
X106443127Y-62483599D01*
X106640776Y-62331938D01*
X106816938Y-62155776D01*
X106968599Y-61958127D01*
X107093164Y-61742373D01*
X107188502Y-61512207D01*
X107252982Y-61271565D01*
X107285500Y-61024565D01*
X107285500Y-60775435D01*
X107252982Y-60528435D01*
X107188502Y-60287793D01*
X107093164Y-60057627D01*
X106968599Y-59841873D01*
X106816938Y-59644224D01*
X106640776Y-59468062D01*
X106443127Y-59316401D01*
X106328983Y-59250500D01*
X106227377Y-59191838D01*
X106227375Y-59191837D01*
X106227373Y-59191836D01*
X106092548Y-59135989D01*
X105997210Y-59096499D01*
X105997208Y-59096498D01*
X105997207Y-59096498D01*
X105756565Y-59032018D01*
X105756563Y-59032017D01*
X105756557Y-59032016D01*
X105509570Y-58999500D01*
X105509565Y-58999500D01*
X105260435Y-58999500D01*
X105260429Y-58999500D01*
X105013442Y-59032016D01*
X104772789Y-59096499D01*
X104542622Y-59191838D01*
X104326874Y-59316400D01*
X104303704Y-59334178D01*
X104258701Y-59368710D01*
X104187446Y-59398225D01*
X104167998Y-59399500D01*
X96903145Y-59399500D01*
X96828645Y-59379538D01*
X96774107Y-59325000D01*
X96754145Y-59250500D01*
X96774107Y-59176000D01*
X96797786Y-59145141D01*
X98142935Y-57799992D01*
X120999500Y-57799992D01*
X120999500Y-60200008D01*
X121008250Y-60285665D01*
X121010001Y-60302798D01*
X121065187Y-60469336D01*
X121114098Y-60548632D01*
X121157289Y-60618655D01*
X121281345Y-60742711D01*
X121430666Y-60834814D01*
X121597203Y-60889999D01*
X121699992Y-60900500D01*
X121699996Y-60900500D01*
X124100004Y-60900500D01*
X124100008Y-60900500D01*
X124202797Y-60889999D01*
X124369334Y-60834814D01*
X124518655Y-60742711D01*
X124642711Y-60618655D01*
X124734814Y-60469334D01*
X124789999Y-60302797D01*
X124800500Y-60200008D01*
X124800500Y-57799992D01*
X124789999Y-57697203D01*
X124734814Y-57530666D01*
X124642711Y-57381345D01*
X124518655Y-57257289D01*
X124413343Y-57192331D01*
X124369336Y-57165187D01*
X124369335Y-57165186D01*
X124369334Y-57165186D01*
X124285332Y-57137350D01*
X124202798Y-57110001D01*
X124202799Y-57110001D01*
X124168534Y-57106500D01*
X124100008Y-57099500D01*
X121699992Y-57099500D01*
X121631466Y-57106500D01*
X121597201Y-57110001D01*
X121430663Y-57165187D01*
X121281344Y-57257289D01*
X121157289Y-57381344D01*
X121065187Y-57530663D01*
X121010001Y-57697201D01*
X121010001Y-57697203D01*
X120999500Y-57799992D01*
X98142935Y-57799992D01*
X98252087Y-57690840D01*
X100161583Y-55781344D01*
X102067498Y-53875429D01*
X120999500Y-53875429D01*
X120999500Y-54124570D01*
X121032016Y-54371557D01*
X121032017Y-54371563D01*
X121032018Y-54371565D01*
X121096498Y-54612207D01*
X121191836Y-54842373D01*
X121316401Y-55058127D01*
X121468062Y-55255776D01*
X121644224Y-55431938D01*
X121841873Y-55583599D01*
X122057627Y-55708164D01*
X122287793Y-55803502D01*
X122528435Y-55867982D01*
X122528441Y-55867982D01*
X122528442Y-55867983D01*
X122595586Y-55876822D01*
X122775435Y-55900500D01*
X123024565Y-55900500D01*
X123271565Y-55867982D01*
X123512207Y-55803502D01*
X123742373Y-55708164D01*
X123958127Y-55583599D01*
X124155776Y-55431938D01*
X124331938Y-55255776D01*
X124483599Y-55058127D01*
X124608164Y-54842373D01*
X124703502Y-54612207D01*
X124767982Y-54371565D01*
X124800500Y-54124565D01*
X124800500Y-53875435D01*
X124771582Y-53655777D01*
X124767983Y-53628442D01*
X124767982Y-53628441D01*
X124767982Y-53628435D01*
X124703502Y-53387793D01*
X124608164Y-53157627D01*
X124483599Y-52941873D01*
X124331938Y-52744224D01*
X124155776Y-52568062D01*
X123958127Y-52416401D01*
X123886209Y-52374879D01*
X123742377Y-52291838D01*
X123742375Y-52291837D01*
X123742373Y-52291836D01*
X123607548Y-52235989D01*
X123512210Y-52196499D01*
X123512208Y-52196498D01*
X123512207Y-52196498D01*
X123271565Y-52132018D01*
X123271563Y-52132017D01*
X123271557Y-52132016D01*
X123024570Y-52099500D01*
X123024565Y-52099500D01*
X122775435Y-52099500D01*
X122775429Y-52099500D01*
X122528442Y-52132016D01*
X122287789Y-52196499D01*
X122057622Y-52291838D01*
X121841874Y-52416400D01*
X121644222Y-52568063D01*
X121468063Y-52744222D01*
X121316400Y-52941874D01*
X121191838Y-53157622D01*
X121096499Y-53387789D01*
X121032016Y-53628442D01*
X120999500Y-53875429D01*
X102067498Y-53875429D01*
X106529517Y-49413410D01*
X106668343Y-49222334D01*
X106775568Y-49011892D01*
X106848553Y-48787268D01*
X106885500Y-48553992D01*
X106885500Y-45799992D01*
X120999500Y-45799992D01*
X120999500Y-48200008D01*
X121010001Y-48302797D01*
X121065186Y-48469334D01*
X121157289Y-48618655D01*
X121281345Y-48742711D01*
X121430666Y-48834814D01*
X121597203Y-48889999D01*
X121699992Y-48900500D01*
X121699996Y-48900500D01*
X124100004Y-48900500D01*
X124100008Y-48900500D01*
X124202797Y-48889999D01*
X124369334Y-48834814D01*
X124518655Y-48742711D01*
X124642711Y-48618655D01*
X124734814Y-48469334D01*
X124789999Y-48302797D01*
X124800500Y-48200008D01*
X124800500Y-45799992D01*
X124789999Y-45697203D01*
X124734814Y-45530666D01*
X124642711Y-45381345D01*
X124518655Y-45257289D01*
X124369334Y-45165186D01*
X124223925Y-45117002D01*
X124202798Y-45110001D01*
X124202799Y-45110001D01*
X124168534Y-45106500D01*
X124100008Y-45099500D01*
X121699992Y-45099500D01*
X121631466Y-45106500D01*
X121597201Y-45110001D01*
X121430663Y-45165187D01*
X121281344Y-45257289D01*
X121157289Y-45381344D01*
X121065187Y-45530663D01*
X121010001Y-45697201D01*
X121010001Y-45697203D01*
X120999500Y-45799992D01*
X106885500Y-45799992D01*
X106885500Y-45117002D01*
X106905462Y-45042502D01*
X106916290Y-45026297D01*
X106925878Y-45013802D01*
X106968599Y-44958127D01*
X107093164Y-44742373D01*
X107188502Y-44512207D01*
X107252982Y-44271565D01*
X107285500Y-44024565D01*
X107285500Y-43775435D01*
X107261822Y-43595586D01*
X107252983Y-43528442D01*
X107252982Y-43528441D01*
X107252982Y-43528435D01*
X107188502Y-43287793D01*
X107093164Y-43057627D01*
X107093159Y-43057619D01*
X107035414Y-42957600D01*
X107015452Y-42883100D01*
X107035414Y-42808600D01*
X107089952Y-42754062D01*
X107164452Y-42734100D01*
X120743248Y-42734100D01*
X120817748Y-42754062D01*
X120848607Y-42777741D01*
X121578149Y-43507283D01*
X121786198Y-43666924D01*
X122013303Y-43798043D01*
X122149130Y-43854304D01*
X122255572Y-43898395D01*
X122255576Y-43898396D01*
X122255581Y-43898398D01*
X122508884Y-43966271D01*
X122508890Y-43966271D01*
X122508891Y-43966272D01*
X122579579Y-43975577D01*
X122768880Y-44000499D01*
X123031119Y-44000499D01*
X123291116Y-43966271D01*
X123544419Y-43898398D01*
X123544425Y-43898395D01*
X123544427Y-43898395D01*
X123590299Y-43879393D01*
X123786697Y-43798043D01*
X124013802Y-43666924D01*
X124221851Y-43507283D01*
X124407283Y-43321851D01*
X124566924Y-43113802D01*
X124698043Y-42886697D01*
X124798398Y-42644419D01*
X124866271Y-42391116D01*
X124900499Y-42131119D01*
X124900499Y-41868880D01*
X124866271Y-41608884D01*
X124798398Y-41355581D01*
X124798396Y-41355576D01*
X124798395Y-41355572D01*
X124754304Y-41249130D01*
X124698043Y-41113303D01*
X124566924Y-40886198D01*
X124407283Y-40678149D01*
X122955451Y-39226317D01*
X122831721Y-39131376D01*
X122747403Y-39066676D01*
X122632361Y-39000257D01*
X122520301Y-38935559D01*
X122520299Y-38935558D01*
X122520297Y-38935557D01*
X122434218Y-38899902D01*
X122278016Y-38835200D01*
X122266181Y-38832030D01*
X122266177Y-38832027D01*
X122266177Y-38832029D01*
X122024716Y-38767329D01*
X122024714Y-38767328D01*
X122024708Y-38767327D01*
X121894719Y-38750215D01*
X121894718Y-38750214D01*
X121894718Y-38750215D01*
X121764723Y-38733100D01*
X121764720Y-38733100D01*
X86220280Y-38733100D01*
X86220276Y-38733100D01*
X86073168Y-38752468D01*
X86073166Y-38752468D01*
X85960292Y-38767327D01*
X85782693Y-38814915D01*
X85718823Y-38832029D01*
X85713815Y-38833370D01*
X85706980Y-38835202D01*
X85464698Y-38935559D01*
X85237593Y-39066678D01*
X85237592Y-39066678D01*
X85153280Y-39131375D01*
X85153279Y-39131376D01*
X85029547Y-39226318D01*
X83290359Y-40965507D01*
X83223564Y-41004071D01*
X83146436Y-41004071D01*
X83079641Y-40965507D01*
X81405148Y-39291014D01*
X81287431Y-39200688D01*
X81287430Y-39200687D01*
X81197106Y-39131378D01*
X81197103Y-39131376D01*
X80970001Y-39000259D01*
X80969999Y-39000258D01*
X80969997Y-39000257D01*
X80919824Y-38979475D01*
X80727727Y-38899904D01*
X80727723Y-38899903D01*
X80643284Y-38877277D01*
X80474416Y-38832029D01*
X80474414Y-38832028D01*
X80474408Y-38832027D01*
X80344419Y-38814915D01*
X80344418Y-38814914D01*
X80344418Y-38814915D01*
X80214423Y-38797800D01*
X80214420Y-38797800D01*
X49655580Y-38797800D01*
X49655576Y-38797800D01*
X49525582Y-38814915D01*
X49525580Y-38814915D01*
X49395591Y-38832027D01*
X49142276Y-38899903D01*
X49142272Y-38899904D01*
X48899998Y-39000259D01*
X48672897Y-39131376D01*
X48672892Y-39131378D01*
X48549168Y-39226317D01*
X48549167Y-39226318D01*
X48464851Y-39291014D01*
X45177718Y-42578147D01*
X45018075Y-42786199D01*
X44886959Y-43013298D01*
X44786604Y-43255572D01*
X44786603Y-43255576D01*
X44718727Y-43508891D01*
X44684501Y-43768874D01*
X18300000Y-43768874D01*
X18300000Y-31678706D01*
X46449500Y-31678706D01*
X46449500Y-31921293D01*
X46481160Y-32161781D01*
X46481161Y-32161787D01*
X46481162Y-32161789D01*
X46543946Y-32396100D01*
X46636776Y-32620212D01*
X46758064Y-32830289D01*
X46905735Y-33022738D01*
X47077262Y-33194265D01*
X47269711Y-33341936D01*
X47479788Y-33463224D01*
X47703900Y-33556054D01*
X47938211Y-33618838D01*
X47938217Y-33618838D01*
X47938218Y-33618839D01*
X48003600Y-33627446D01*
X48178712Y-33650500D01*
X48421288Y-33650500D01*
X48661789Y-33618838D01*
X48896100Y-33556054D01*
X49120212Y-33463224D01*
X49330289Y-33341936D01*
X49522738Y-33194265D01*
X49694265Y-33022738D01*
X49841936Y-32830289D01*
X49963224Y-32620212D01*
X50056054Y-32396100D01*
X50118838Y-32161789D01*
X50150500Y-31921288D01*
X50150500Y-31678712D01*
X50118838Y-31438211D01*
X50056054Y-31203900D01*
X49963224Y-30979788D01*
X49841936Y-30769711D01*
X49694265Y-30577262D01*
X49522738Y-30405735D01*
X49330289Y-30258064D01*
X49205322Y-30185914D01*
X49120216Y-30136778D01*
X49120214Y-30136777D01*
X49120212Y-30136776D01*
X48930182Y-30058063D01*
X48896103Y-30043947D01*
X48896101Y-30043946D01*
X48896100Y-30043946D01*
X48661789Y-29981162D01*
X48661787Y-29981161D01*
X48661781Y-29981160D01*
X48421293Y-29949500D01*
X48421288Y-29949500D01*
X48178712Y-29949500D01*
X48178706Y-29949500D01*
X47938218Y-29981160D01*
X47703896Y-30043947D01*
X47479783Y-30136778D01*
X47269712Y-30258063D01*
X47269711Y-30258064D01*
X47077262Y-30405735D01*
X47077260Y-30405736D01*
X47077256Y-30405740D01*
X46905740Y-30577256D01*
X46758063Y-30769712D01*
X46636778Y-30979783D01*
X46543947Y-31203896D01*
X46481160Y-31438218D01*
X46449500Y-31678706D01*
X18300000Y-31678706D01*
X18300000Y-23893713D01*
X51089500Y-23893713D01*
X51089500Y-24106287D01*
X51122754Y-24316243D01*
X51188443Y-24518412D01*
X51284949Y-24707816D01*
X51409896Y-24879792D01*
X51560208Y-25030104D01*
X51732184Y-25155051D01*
X51921588Y-25251557D01*
X52123757Y-25317246D01*
X52333713Y-25350500D01*
X52333718Y-25350500D01*
X52546282Y-25350500D01*
X52546287Y-25350500D01*
X52756243Y-25317246D01*
X52958412Y-25251557D01*
X53147816Y-25155051D01*
X53319792Y-25030104D01*
X53470104Y-24879792D01*
X53589456Y-24715517D01*
X53649396Y-24666979D01*
X53725574Y-24654913D01*
X53797580Y-24682553D01*
X53830544Y-24715517D01*
X53949896Y-24879792D01*
X54100208Y-25030104D01*
X54272184Y-25155051D01*
X54461588Y-25251557D01*
X54663757Y-25317246D01*
X54873713Y-25350500D01*
X54873718Y-25350500D01*
X55086282Y-25350500D01*
X55086287Y-25350500D01*
X55296243Y-25317246D01*
X55498412Y-25251557D01*
X55687816Y-25155051D01*
X55859792Y-25030104D01*
X56010104Y-24879792D01*
X56129456Y-24715517D01*
X56189396Y-24666979D01*
X56265574Y-24654913D01*
X56337580Y-24682553D01*
X56370544Y-24715517D01*
X56489896Y-24879792D01*
X56640208Y-25030104D01*
X56812184Y-25155051D01*
X57001588Y-25251557D01*
X57203757Y-25317246D01*
X57413713Y-25350500D01*
X57413718Y-25350500D01*
X57626282Y-25350500D01*
X57626287Y-25350500D01*
X57836243Y-25317246D01*
X58038412Y-25251557D01*
X58227816Y-25155051D01*
X58399792Y-25030104D01*
X58550104Y-24879792D01*
X58669456Y-24715517D01*
X58729396Y-24666979D01*
X58805574Y-24654913D01*
X58877580Y-24682553D01*
X58910544Y-24715517D01*
X59029896Y-24879792D01*
X59180208Y-25030104D01*
X59352184Y-25155051D01*
X59541588Y-25251557D01*
X59743757Y-25317246D01*
X59953713Y-25350500D01*
X59953718Y-25350500D01*
X60166282Y-25350500D01*
X60166287Y-25350500D01*
X60376243Y-25317246D01*
X60578412Y-25251557D01*
X60767816Y-25155051D01*
X60939792Y-25030104D01*
X61090104Y-24879792D01*
X61209456Y-24715517D01*
X61269396Y-24666979D01*
X61345574Y-24654913D01*
X61417580Y-24682553D01*
X61450544Y-24715517D01*
X61569896Y-24879792D01*
X61720208Y-25030104D01*
X61892184Y-25155051D01*
X62081588Y-25251557D01*
X62283757Y-25317246D01*
X62493713Y-25350500D01*
X62493718Y-25350500D01*
X62706282Y-25350500D01*
X62706287Y-25350500D01*
X62916243Y-25317246D01*
X63118412Y-25251557D01*
X63307816Y-25155051D01*
X63479792Y-25030104D01*
X63630104Y-24879792D01*
X63749456Y-24715517D01*
X63809396Y-24666979D01*
X63885574Y-24654913D01*
X63957580Y-24682553D01*
X63990544Y-24715517D01*
X64109896Y-24879792D01*
X64260208Y-25030104D01*
X64432184Y-25155051D01*
X64621588Y-25251557D01*
X64823757Y-25317246D01*
X65033713Y-25350500D01*
X65033718Y-25350500D01*
X65246282Y-25350500D01*
X65246287Y-25350500D01*
X65390192Y-25327707D01*
X65466894Y-25335769D01*
X65518857Y-25369514D01*
X68016313Y-27866970D01*
X68048612Y-27915310D01*
X68106504Y-28055076D01*
X68106505Y-28055078D01*
X68106506Y-28055079D01*
X68194111Y-28186189D01*
X68305611Y-28297689D01*
X68436721Y-28385294D01*
X68582403Y-28445637D01*
X68737058Y-28476400D01*
X68894742Y-28476400D01*
X69049397Y-28445637D01*
X69195079Y-28385294D01*
X69326189Y-28297689D01*
X69437689Y-28186189D01*
X69525294Y-28055079D01*
X69585637Y-27909397D01*
X69616400Y-27754742D01*
X69616400Y-27597058D01*
X69585637Y-27442403D01*
X69525294Y-27296721D01*
X69437689Y-27165611D01*
X69326189Y-27054111D01*
X69195079Y-26966506D01*
X69195078Y-26966505D01*
X69195076Y-26966504D01*
X69055310Y-26908612D01*
X69006970Y-26876313D01*
X67729655Y-25598998D01*
X67691091Y-25532203D01*
X67691091Y-25455075D01*
X67729655Y-25388280D01*
X67796450Y-25349716D01*
X67811687Y-25346476D01*
X67996243Y-25317246D01*
X68198412Y-25251557D01*
X68387816Y-25155051D01*
X68559792Y-25030104D01*
X68710104Y-24879792D01*
X68829456Y-24715517D01*
X68889396Y-24666979D01*
X68965574Y-24654913D01*
X69037580Y-24682553D01*
X69070544Y-24715517D01*
X69189896Y-24879792D01*
X69340208Y-25030104D01*
X69512184Y-25155051D01*
X69701588Y-25251557D01*
X69903757Y-25317246D01*
X70021374Y-25335874D01*
X70091833Y-25367245D01*
X70103424Y-25377681D01*
X71984857Y-27259114D01*
X72099589Y-27335775D01*
X72099593Y-27335776D01*
X72099597Y-27335779D01*
X72201575Y-27378019D01*
X72227072Y-27388580D01*
X72362406Y-27415500D01*
X72362407Y-27415500D01*
X91526025Y-27415500D01*
X91600525Y-27435462D01*
X91655063Y-27490000D01*
X91675025Y-27564500D01*
X91655063Y-27639000D01*
X91631384Y-27669859D01*
X89237684Y-30063559D01*
X89170889Y-30102123D01*
X89132325Y-30107200D01*
X66437189Y-30107200D01*
X66380170Y-30095858D01*
X66240398Y-30037963D01*
X66240394Y-30037962D01*
X66085742Y-30007200D01*
X65928058Y-30007200D01*
X65773405Y-30037962D01*
X65773401Y-30037963D01*
X65627723Y-30098304D01*
X65496607Y-30185914D01*
X65385114Y-30297407D01*
X65297504Y-30428523D01*
X65237163Y-30574201D01*
X65237162Y-30574205D01*
X65206400Y-30728857D01*
X65206400Y-30886542D01*
X65237162Y-31041194D01*
X65237163Y-31041198D01*
X65297504Y-31186876D01*
X65297505Y-31186878D01*
X65297506Y-31186879D01*
X65385111Y-31317989D01*
X65496611Y-31429489D01*
X65627721Y-31517094D01*
X65627722Y-31517094D01*
X65627723Y-31517095D01*
X65700562Y-31547265D01*
X65773403Y-31577437D01*
X65928058Y-31608200D01*
X66085742Y-31608200D01*
X66240397Y-31577437D01*
X66320944Y-31544073D01*
X66380170Y-31519542D01*
X66437189Y-31508200D01*
X88597325Y-31508200D01*
X88671825Y-31528162D01*
X88726363Y-31582700D01*
X88746325Y-31657200D01*
X88726363Y-31731700D01*
X88702684Y-31762559D01*
X87423484Y-33041759D01*
X87356689Y-33080323D01*
X87318125Y-33085400D01*
X62533489Y-33085400D01*
X62476470Y-33074058D01*
X62336698Y-33016163D01*
X62336694Y-33016162D01*
X62182042Y-32985400D01*
X62024358Y-32985400D01*
X61869705Y-33016162D01*
X61869701Y-33016163D01*
X61724023Y-33076504D01*
X61592907Y-33164114D01*
X61481414Y-33275607D01*
X61393804Y-33406723D01*
X61333463Y-33552401D01*
X61333462Y-33552405D01*
X61302700Y-33707057D01*
X61302700Y-33864742D01*
X61333462Y-34019394D01*
X61333463Y-34019398D01*
X61393804Y-34165076D01*
X61393805Y-34165078D01*
X61393806Y-34165079D01*
X61481411Y-34296189D01*
X61592911Y-34407689D01*
X61724021Y-34495294D01*
X61869703Y-34555637D01*
X62024358Y-34586400D01*
X62182042Y-34586400D01*
X62336697Y-34555637D01*
X62417244Y-34522273D01*
X62476470Y-34497742D01*
X62533489Y-34486400D01*
X87738990Y-34486400D01*
X87738994Y-34486400D01*
X87874328Y-34459480D01*
X87961371Y-34423425D01*
X88001802Y-34406679D01*
X88001803Y-34406678D01*
X88001811Y-34406675D01*
X88116543Y-34330014D01*
X90967850Y-31478706D01*
X97949500Y-31478706D01*
X97949500Y-31721293D01*
X97981160Y-31961781D01*
X97981161Y-31961787D01*
X97981162Y-31961789D01*
X98043946Y-32196100D01*
X98136776Y-32420212D01*
X98258064Y-32630289D01*
X98405735Y-32822738D01*
X98577262Y-32994265D01*
X98769711Y-33141936D01*
X98979788Y-33263224D01*
X99203900Y-33356054D01*
X99438211Y-33418838D01*
X99438217Y-33418838D01*
X99438218Y-33418839D01*
X99503600Y-33427446D01*
X99678712Y-33450500D01*
X99921288Y-33450500D01*
X100161789Y-33418838D01*
X100396100Y-33356054D01*
X100620212Y-33263224D01*
X100830289Y-33141936D01*
X101022738Y-32994265D01*
X101194265Y-32822738D01*
X101341936Y-32630289D01*
X101463224Y-32420212D01*
X101556054Y-32196100D01*
X101618838Y-31961789D01*
X101650500Y-31721288D01*
X101650500Y-31478712D01*
X101618838Y-31238211D01*
X101556054Y-31003900D01*
X101463224Y-30779788D01*
X101341936Y-30569711D01*
X101194265Y-30377262D01*
X101022738Y-30205735D01*
X100830289Y-30058064D01*
X100697091Y-29981162D01*
X100620216Y-29936778D01*
X100620214Y-29936777D01*
X100620212Y-29936776D01*
X100488932Y-29882398D01*
X100396103Y-29843947D01*
X100396101Y-29843946D01*
X100396100Y-29843946D01*
X100161789Y-29781162D01*
X100161787Y-29781161D01*
X100161781Y-29781160D01*
X99921293Y-29749500D01*
X99921288Y-29749500D01*
X99678712Y-29749500D01*
X99678706Y-29749500D01*
X99438218Y-29781160D01*
X99203896Y-29843947D01*
X98979783Y-29936778D01*
X98769712Y-30058063D01*
X98720457Y-30095858D01*
X98577262Y-30205735D01*
X98577260Y-30205736D01*
X98577256Y-30205740D01*
X98405740Y-30377256D01*
X98258063Y-30569712D01*
X98136778Y-30779783D01*
X98043947Y-31003896D01*
X97981160Y-31238218D01*
X97949500Y-31478706D01*
X90967850Y-31478706D01*
X97062833Y-25383722D01*
X97129626Y-25345160D01*
X97193129Y-25344215D01*
X97193250Y-25343095D01*
X97202392Y-25344077D01*
X97202457Y-25344077D01*
X97202515Y-25344090D01*
X97202517Y-25344091D01*
X97212460Y-25345160D01*
X97262114Y-25350499D01*
X97262118Y-25350499D01*
X97262127Y-25350500D01*
X99057872Y-25350499D01*
X99117483Y-25344091D01*
X99232732Y-25301106D01*
X99252329Y-25293797D01*
X99252333Y-25293795D01*
X99364472Y-25209847D01*
X99367546Y-25207546D01*
X99453796Y-25092331D01*
X99504091Y-24957483D01*
X99510500Y-24897873D01*
X99510499Y-23102128D01*
X99504091Y-23042517D01*
X99477005Y-22969895D01*
X99453797Y-22907670D01*
X99453795Y-22907666D01*
X99367547Y-22792455D01*
X99367544Y-22792452D01*
X99252333Y-22706204D01*
X99252329Y-22706202D01*
X99117482Y-22655908D01*
X99057876Y-22649500D01*
X97262136Y-22649500D01*
X97262111Y-22649502D01*
X97202521Y-22655908D01*
X97202515Y-22655909D01*
X97067670Y-22706202D01*
X97067666Y-22706204D01*
X96952455Y-22792452D01*
X96952452Y-22792455D01*
X96866204Y-22907666D01*
X96866203Y-22907668D01*
X96830784Y-23002634D01*
X96786045Y-23065461D01*
X96715887Y-23097501D01*
X96639108Y-23090170D01*
X96585819Y-23055923D01*
X96499793Y-22969897D01*
X96499792Y-22969896D01*
X96327816Y-22844949D01*
X96138412Y-22748443D01*
X95936243Y-22682754D01*
X95726287Y-22649500D01*
X95513713Y-22649500D01*
X95338749Y-22677211D01*
X95303756Y-22682754D01*
X95101594Y-22748441D01*
X95101588Y-22748443D01*
X95101582Y-22748445D01*
X95101582Y-22748446D01*
X94912182Y-22844950D01*
X94912181Y-22844950D01*
X94740209Y-22969895D01*
X94740206Y-22969897D01*
X94589897Y-23120206D01*
X94589895Y-23120209D01*
X94470544Y-23284482D01*
X94410604Y-23333020D01*
X94334425Y-23345086D01*
X94262420Y-23317446D01*
X94229456Y-23284482D01*
X94167236Y-23198844D01*
X94110104Y-23120208D01*
X93959792Y-22969896D01*
X93787816Y-22844949D01*
X93598412Y-22748443D01*
X93396243Y-22682754D01*
X93186287Y-22649500D01*
X92973713Y-22649500D01*
X92798749Y-22677211D01*
X92763756Y-22682754D01*
X92561594Y-22748441D01*
X92561588Y-22748443D01*
X92561582Y-22748445D01*
X92561582Y-22748446D01*
X92372182Y-22844950D01*
X92372181Y-22844950D01*
X92200209Y-22969895D01*
X92200206Y-22969897D01*
X92049897Y-23120206D01*
X92049895Y-23120209D01*
X91930544Y-23284482D01*
X91870604Y-23333020D01*
X91794425Y-23345086D01*
X91722420Y-23317446D01*
X91689456Y-23284482D01*
X91627236Y-23198844D01*
X91570104Y-23120208D01*
X91419792Y-22969896D01*
X91247816Y-22844949D01*
X91058412Y-22748443D01*
X90856243Y-22682754D01*
X90646287Y-22649500D01*
X90433713Y-22649500D01*
X90258749Y-22677211D01*
X90223756Y-22682754D01*
X90021594Y-22748441D01*
X90021588Y-22748443D01*
X90021582Y-22748445D01*
X90021582Y-22748446D01*
X89832182Y-22844950D01*
X89832181Y-22844950D01*
X89660209Y-22969895D01*
X89660206Y-22969897D01*
X89509897Y-23120206D01*
X89509895Y-23120209D01*
X89390544Y-23284482D01*
X89330604Y-23333020D01*
X89254425Y-23345086D01*
X89182420Y-23317446D01*
X89149456Y-23284482D01*
X89087236Y-23198844D01*
X89030104Y-23120208D01*
X88879792Y-22969896D01*
X88707816Y-22844949D01*
X88518412Y-22748443D01*
X88316243Y-22682754D01*
X88106287Y-22649500D01*
X87893713Y-22649500D01*
X87718749Y-22677211D01*
X87683756Y-22682754D01*
X87481594Y-22748441D01*
X87481588Y-22748443D01*
X87481582Y-22748445D01*
X87481582Y-22748446D01*
X87292182Y-22844950D01*
X87292181Y-22844950D01*
X87120209Y-22969895D01*
X87120206Y-22969897D01*
X86969897Y-23120206D01*
X86969895Y-23120209D01*
X86850544Y-23284482D01*
X86790604Y-23333020D01*
X86714425Y-23345086D01*
X86642420Y-23317446D01*
X86609456Y-23284482D01*
X86547236Y-23198844D01*
X86490104Y-23120208D01*
X86339792Y-22969896D01*
X86167816Y-22844949D01*
X85978412Y-22748443D01*
X85776243Y-22682754D01*
X85566287Y-22649500D01*
X85353713Y-22649500D01*
X85178749Y-22677211D01*
X85143756Y-22682754D01*
X84941594Y-22748441D01*
X84941588Y-22748443D01*
X84941582Y-22748445D01*
X84941582Y-22748446D01*
X84752182Y-22844950D01*
X84752181Y-22844950D01*
X84580209Y-22969895D01*
X84580206Y-22969897D01*
X84429897Y-23120206D01*
X84429895Y-23120209D01*
X84310544Y-23284482D01*
X84250604Y-23333020D01*
X84174425Y-23345086D01*
X84102420Y-23317446D01*
X84069456Y-23284482D01*
X84007236Y-23198844D01*
X83950104Y-23120208D01*
X83799792Y-22969896D01*
X83627816Y-22844949D01*
X83438412Y-22748443D01*
X83236243Y-22682754D01*
X83026287Y-22649500D01*
X82813713Y-22649500D01*
X82638749Y-22677211D01*
X82603756Y-22682754D01*
X82401594Y-22748441D01*
X82401588Y-22748443D01*
X82401582Y-22748445D01*
X82401582Y-22748446D01*
X82212182Y-22844950D01*
X82212181Y-22844950D01*
X82040209Y-22969895D01*
X82040206Y-22969897D01*
X81889897Y-23120206D01*
X81889895Y-23120209D01*
X81770544Y-23284482D01*
X81710604Y-23333020D01*
X81634425Y-23345086D01*
X81562420Y-23317446D01*
X81529456Y-23284482D01*
X81467236Y-23198844D01*
X81410104Y-23120208D01*
X81259792Y-22969896D01*
X81087816Y-22844949D01*
X80898412Y-22748443D01*
X80696243Y-22682754D01*
X80486287Y-22649500D01*
X80273713Y-22649500D01*
X80098749Y-22677211D01*
X80063756Y-22682754D01*
X79861594Y-22748441D01*
X79861588Y-22748443D01*
X79861582Y-22748445D01*
X79861582Y-22748446D01*
X79672182Y-22844950D01*
X79672181Y-22844950D01*
X79500209Y-22969895D01*
X79500206Y-22969897D01*
X79349897Y-23120206D01*
X79349895Y-23120209D01*
X79230544Y-23284482D01*
X79170604Y-23333020D01*
X79094425Y-23345086D01*
X79022420Y-23317446D01*
X78989456Y-23284482D01*
X78927236Y-23198844D01*
X78870104Y-23120208D01*
X78719792Y-22969896D01*
X78547816Y-22844949D01*
X78358412Y-22748443D01*
X78156243Y-22682754D01*
X77946287Y-22649500D01*
X77733713Y-22649500D01*
X77558749Y-22677211D01*
X77523756Y-22682754D01*
X77321594Y-22748441D01*
X77321588Y-22748443D01*
X77321582Y-22748445D01*
X77321582Y-22748446D01*
X77132182Y-22844950D01*
X77132181Y-22844950D01*
X76960209Y-22969895D01*
X76960206Y-22969897D01*
X76809897Y-23120206D01*
X76809895Y-23120209D01*
X76690544Y-23284482D01*
X76630604Y-23333020D01*
X76554425Y-23345086D01*
X76482420Y-23317446D01*
X76449456Y-23284482D01*
X76387236Y-23198844D01*
X76330104Y-23120208D01*
X76179792Y-22969896D01*
X76007816Y-22844949D01*
X75818412Y-22748443D01*
X75616243Y-22682754D01*
X75406287Y-22649500D01*
X75193713Y-22649500D01*
X75018749Y-22677211D01*
X74983756Y-22682754D01*
X74781594Y-22748441D01*
X74781588Y-22748443D01*
X74781582Y-22748445D01*
X74781582Y-22748446D01*
X74592182Y-22844950D01*
X74592181Y-22844950D01*
X74420209Y-22969895D01*
X74420206Y-22969897D01*
X74269897Y-23120206D01*
X74269895Y-23120209D01*
X74150544Y-23284482D01*
X74090604Y-23333020D01*
X74014425Y-23345086D01*
X73942420Y-23317446D01*
X73909456Y-23284482D01*
X73847236Y-23198844D01*
X73790104Y-23120208D01*
X73639792Y-22969896D01*
X73467816Y-22844949D01*
X73278412Y-22748443D01*
X73076243Y-22682754D01*
X72866287Y-22649500D01*
X72653713Y-22649500D01*
X72478749Y-22677211D01*
X72443756Y-22682754D01*
X72241594Y-22748441D01*
X72241588Y-22748443D01*
X72241582Y-22748445D01*
X72241582Y-22748446D01*
X72052182Y-22844950D01*
X72052181Y-22844950D01*
X71880209Y-22969895D01*
X71880206Y-22969897D01*
X71729897Y-23120206D01*
X71729895Y-23120209D01*
X71610544Y-23284482D01*
X71550604Y-23333020D01*
X71474425Y-23345086D01*
X71402420Y-23317446D01*
X71369456Y-23284482D01*
X71307236Y-23198844D01*
X71250104Y-23120208D01*
X71099792Y-22969896D01*
X70927816Y-22844949D01*
X70738412Y-22748443D01*
X70536243Y-22682754D01*
X70326287Y-22649500D01*
X70113713Y-22649500D01*
X69938749Y-22677211D01*
X69903756Y-22682754D01*
X69701594Y-22748441D01*
X69701588Y-22748443D01*
X69701582Y-22748445D01*
X69701582Y-22748446D01*
X69512182Y-22844950D01*
X69512181Y-22844950D01*
X69340209Y-22969895D01*
X69340206Y-22969897D01*
X69189897Y-23120206D01*
X69189895Y-23120209D01*
X69070544Y-23284482D01*
X69010604Y-23333020D01*
X68934425Y-23345086D01*
X68862420Y-23317446D01*
X68829456Y-23284482D01*
X68767236Y-23198844D01*
X68710104Y-23120208D01*
X68559792Y-22969896D01*
X68387816Y-22844949D01*
X68198412Y-22748443D01*
X67996243Y-22682754D01*
X67786287Y-22649500D01*
X67573713Y-22649500D01*
X67398749Y-22677211D01*
X67363756Y-22682754D01*
X67161594Y-22748441D01*
X67161588Y-22748443D01*
X67161582Y-22748445D01*
X67161582Y-22748446D01*
X66972182Y-22844950D01*
X66972181Y-22844950D01*
X66800209Y-22969895D01*
X66800206Y-22969897D01*
X66649897Y-23120206D01*
X66649895Y-23120209D01*
X66530544Y-23284482D01*
X66470604Y-23333020D01*
X66394425Y-23345086D01*
X66322420Y-23317446D01*
X66289456Y-23284482D01*
X66227236Y-23198844D01*
X66170104Y-23120208D01*
X66019792Y-22969896D01*
X65847816Y-22844949D01*
X65658412Y-22748443D01*
X65456243Y-22682754D01*
X65246287Y-22649500D01*
X65033713Y-22649500D01*
X64858749Y-22677211D01*
X64823756Y-22682754D01*
X64621594Y-22748441D01*
X64621588Y-22748443D01*
X64621582Y-22748445D01*
X64621582Y-22748446D01*
X64432182Y-22844950D01*
X64432181Y-22844950D01*
X64260209Y-22969895D01*
X64260206Y-22969897D01*
X64109897Y-23120206D01*
X64109895Y-23120209D01*
X63990544Y-23284482D01*
X63930604Y-23333020D01*
X63854425Y-23345086D01*
X63782420Y-23317446D01*
X63749456Y-23284482D01*
X63687236Y-23198844D01*
X63630104Y-23120208D01*
X63479792Y-22969896D01*
X63307816Y-22844949D01*
X63118412Y-22748443D01*
X62916243Y-22682754D01*
X62706287Y-22649500D01*
X62493713Y-22649500D01*
X62318749Y-22677211D01*
X62283756Y-22682754D01*
X62081594Y-22748441D01*
X62081588Y-22748443D01*
X62081582Y-22748445D01*
X62081582Y-22748446D01*
X61892182Y-22844950D01*
X61892181Y-22844950D01*
X61720209Y-22969895D01*
X61720206Y-22969897D01*
X61569897Y-23120206D01*
X61569895Y-23120209D01*
X61450544Y-23284482D01*
X61390604Y-23333020D01*
X61314425Y-23345086D01*
X61242420Y-23317446D01*
X61209456Y-23284482D01*
X61147236Y-23198844D01*
X61090104Y-23120208D01*
X60939792Y-22969896D01*
X60767816Y-22844949D01*
X60578412Y-22748443D01*
X60376243Y-22682754D01*
X60166287Y-22649500D01*
X59953713Y-22649500D01*
X59778749Y-22677211D01*
X59743756Y-22682754D01*
X59541594Y-22748441D01*
X59541588Y-22748443D01*
X59541582Y-22748445D01*
X59541582Y-22748446D01*
X59352182Y-22844950D01*
X59352181Y-22844950D01*
X59180209Y-22969895D01*
X59180206Y-22969897D01*
X59029897Y-23120206D01*
X59029895Y-23120209D01*
X58910544Y-23284482D01*
X58850604Y-23333020D01*
X58774425Y-23345086D01*
X58702420Y-23317446D01*
X58669456Y-23284482D01*
X58607236Y-23198844D01*
X58550104Y-23120208D01*
X58399792Y-22969896D01*
X58227816Y-22844949D01*
X58038412Y-22748443D01*
X57836243Y-22682754D01*
X57626287Y-22649500D01*
X57413713Y-22649500D01*
X57238749Y-22677211D01*
X57203756Y-22682754D01*
X57001594Y-22748441D01*
X57001588Y-22748443D01*
X57001582Y-22748445D01*
X57001582Y-22748446D01*
X56812182Y-22844950D01*
X56812181Y-22844950D01*
X56640209Y-22969895D01*
X56640206Y-22969897D01*
X56489897Y-23120206D01*
X56489895Y-23120209D01*
X56370544Y-23284482D01*
X56310604Y-23333020D01*
X56234425Y-23345086D01*
X56162420Y-23317446D01*
X56129456Y-23284482D01*
X56067236Y-23198844D01*
X56010104Y-23120208D01*
X55859792Y-22969896D01*
X55687816Y-22844949D01*
X55498412Y-22748443D01*
X55296243Y-22682754D01*
X55086287Y-22649500D01*
X54873713Y-22649500D01*
X54698749Y-22677211D01*
X54663756Y-22682754D01*
X54461594Y-22748441D01*
X54461588Y-22748443D01*
X54461582Y-22748445D01*
X54461582Y-22748446D01*
X54272182Y-22844950D01*
X54272181Y-22844950D01*
X54100209Y-22969895D01*
X54100206Y-22969897D01*
X53949897Y-23120206D01*
X53949895Y-23120209D01*
X53830544Y-23284482D01*
X53770604Y-23333020D01*
X53694425Y-23345086D01*
X53622420Y-23317446D01*
X53589456Y-23284482D01*
X53527236Y-23198844D01*
X53470104Y-23120208D01*
X53319792Y-22969896D01*
X53147816Y-22844949D01*
X52958412Y-22748443D01*
X52756243Y-22682754D01*
X52546287Y-22649500D01*
X52333713Y-22649500D01*
X52158749Y-22677211D01*
X52123756Y-22682754D01*
X51921594Y-22748441D01*
X51921588Y-22748443D01*
X51921582Y-22748445D01*
X51921582Y-22748446D01*
X51732182Y-22844950D01*
X51732181Y-22844950D01*
X51560209Y-22969895D01*
X51560206Y-22969897D01*
X51409897Y-23120206D01*
X51409895Y-23120209D01*
X51284950Y-23292181D01*
X51284950Y-23292182D01*
X51284949Y-23292184D01*
X51188443Y-23481588D01*
X51122754Y-23683757D01*
X51089500Y-23893713D01*
X18300000Y-23893713D01*
X18300000Y-8270721D01*
X18308710Y-8220525D01*
X18357348Y-8084590D01*
X18456101Y-7808591D01*
X18461682Y-7795118D01*
X18652607Y-7391443D01*
X18659482Y-7378580D01*
X18889048Y-6995570D01*
X18897167Y-6983420D01*
X18897173Y-6983412D01*
X19163167Y-6624761D01*
X19172412Y-6613494D01*
X19472309Y-6282610D01*
X19482620Y-6272300D01*
X19813486Y-5972421D01*
X19824762Y-5963167D01*
X20183421Y-5697167D01*
X20195565Y-5689052D01*
X20578581Y-5459482D01*
X20591444Y-5452607D01*
X20995118Y-5261682D01*
X21008591Y-5256101D01*
X21420526Y-5108710D01*
X21470722Y-5100000D01*
X134229276Y-5100000D01*
X134279472Y-5108710D01*
G37*
%TD.AperFunction*%
%TD*%
M02*
