M48
; DRILL file KiCad 10.0.0 date 2026-03-30T18:37:03
; FORMAT={-:-/ absolute / metric / decimal}
; #@! TF.CreationDate,2026-03-30T18:37:03-04:00
; #@! TF.GenerationSoftware,Kicad,Pcbnew,10.0.0
; #@! TF.FileFunction,MixedPlating,1,2
FMAT,2
METRIC
; #@! TA.AperFunction,Plated,PTH,ViaDrill
T1C0.300
; #@! TA.AperFunction,Plated,PTH,ComponentDrill
T2C1.000
; #@! TA.AperFunction,Plated,PTH,ComponentDrill
T3C1.300
; #@! TA.AperFunction,Plated,PTH,ComponentDrill
T4C1.500
; #@! TA.AperFunction,NonPlated,NPTH,ComponentDrill
T5C3.200
%
G90
G05
T1
X63.408Y-118.537
X72.091Y-79.044
X72.13Y-26.852
X78.988Y-78.22
X80.887Y-69.961
X85.46Y-112.407
X86.74Y-22.925
X98.39Y-26.852
X107.187Y-23.69
X108.412Y-21.45
X124.864Y-25.309
T2
X37.0Y-56.1
X37.0Y-58.64
X37.0Y-61.18
X37.0Y-63.72
X37.0Y-68.1
X37.0Y-70.64
X37.0Y-73.18
X37.0Y-75.72
X37.0Y-80.1
X37.0Y-82.64
X37.0Y-85.18
X37.0Y-87.72
X37.0Y-92.1
X37.0Y-94.64
X37.0Y-97.18
X37.0Y-99.72
X37.0Y-104.1
X37.0Y-106.64
X37.0Y-109.18
X37.0Y-111.72
X48.96Y-132.5
X49.22Y-124.3
X51.5Y-132.5
X51.76Y-124.3
X52.44Y-24.0
X54.04Y-132.5
X54.3Y-124.3
X54.98Y-24.0
X57.52Y-24.0
X60.06Y-24.0
X62.6Y-24.0
X62.96Y-132.5
X63.22Y-124.3
X65.14Y-24.0
X65.5Y-132.5
X65.76Y-124.3
X67.68Y-24.0
X68.04Y-132.5
X68.3Y-124.3
X70.22Y-24.0
X72.76Y-24.0
X75.3Y-24.0
X76.96Y-132.5
X77.22Y-124.3
X77.84Y-24.0
X79.5Y-132.5
X79.76Y-124.3
X80.38Y-24.0
X82.04Y-132.5
X82.3Y-124.3
X82.92Y-24.0
X85.46Y-24.0
X88.0Y-24.0
X90.54Y-24.0
X90.96Y-132.5
X91.22Y-124.3
X93.08Y-24.0
X93.5Y-132.5
X93.76Y-124.3
X95.62Y-24.0
X96.04Y-132.5
X96.3Y-124.3
X98.16Y-24.0
X104.96Y-132.5
X105.22Y-124.3
X107.5Y-132.5
X107.76Y-124.3
X110.04Y-132.5
X110.3Y-124.3
X116.46Y-120.5
X116.46Y-132.5
X119.0Y-120.5
X119.0Y-132.5
X121.54Y-120.5
X121.54Y-132.5
X124.08Y-120.5
X126.46Y-120.5
X129.0Y-120.5
T3
X25.0Y-52.4
X25.0Y-57.4
X25.0Y-64.4
X25.0Y-69.4
X25.0Y-76.4
X25.0Y-81.4
X25.0Y-88.4
X25.0Y-93.4
X25.0Y-100.4
X25.0Y-105.4
X122.9Y-42.0
X122.9Y-47.0
X122.9Y-54.0
X122.9Y-59.0
X122.9Y-66.0
X122.9Y-71.0
X122.9Y-78.0
X122.9Y-83.0
X122.9Y-90.0
X122.9Y-95.0
X122.9Y-102.0
X122.9Y-107.0
T4
X46.685Y-43.9
X46.685Y-60.9
X46.685Y-77.9
X46.685Y-94.9
X46.685Y-111.9
X68.885Y-43.9
X68.885Y-60.9
X68.885Y-77.9
X68.885Y-94.9
X68.885Y-111.9
X83.185Y-43.9
X83.185Y-60.9
X83.185Y-77.9
X83.185Y-94.9
X83.185Y-111.9
X105.385Y-43.9
X105.385Y-60.9
X105.385Y-77.9
X105.385Y-94.9
X105.385Y-111.9
T5
X48.3Y-31.8
X49.3Y-140.5
X99.3Y-140.5
X99.8Y-31.6
M30
